<?xml version="1.0" encoding="UTF-8" standalone="no"?>
<svg
   xmlns:dc="http://purl.org/dc/elements/1.1/"
   xmlns:cc="http://creativecommons.org/ns#"
   xmlns:rdf="http://www.w3.org/1999/02/22-rdf-syntax-ns#"
   xmlns:svg="http://www.w3.org/2000/svg"
   xmlns="http://www.w3.org/2000/svg"
   xmlns:sodipodi="http://sodipodi.sourceforge.net/DTD/sodipodi-0.dtd"
   xmlns:inkscape="http://www.inkscape.org/namespaces/inkscape"
   width="210mm"
   height="297mm"
   viewBox="0 0 210 297"
   version="1.1"
   id="svg1113"
   inkscape:version="1.0.1 (3bc2e813f5, 2020-09-07)"
   sodipodi:docname="logo.svg">
  <defs
     id="defs1107" />
  <sodipodi:namedview
     id="base"
     pagecolor="#ffffff"
     bordercolor="#666666"
     borderopacity="1.0"
     inkscape:pageopacity="0.0"
     inkscape:pageshadow="2"
     inkscape:zoom="0.65472028"
     inkscape:cx="371.52458"
     inkscape:cy="442.63723"
     inkscape:document-units="mm"
     inkscape:current-layer="layer1"
     inkscape:document-rotation="0"
     showgrid="false"
     inkscape:window-width="1208"
     inkscape:window-height="736"
     inkscape:window-x="72"
     inkscape:window-y="27"
     inkscape:window-maximized="1" />
  <metadata
     id="metadata1110">
    <rdf:RDF>
      <cc:Work
         rdf:about="">
        <dc:format>image/svg+xml</dc:format>
        <dc:type
           rdf:resource="http://purl.org/dc/dcmitype/StillImage" />
        <dc:title></dc:title>
      </cc:Work>
    </rdf:RDF>
  </metadata>
  <g
     inkscape:label="Calque 1"
     inkscape:groupmode="layer"
     id="layer1">
    <path
       inkscape:connector-curvature="0"
       id="path1267-5"
       style="fill:none;stroke:#f90000;stroke-width:0.1;stroke-linecap:butt;stroke-linejoin:miter;stroke-miterlimit:8.9830513;stroke-dasharray:none;stroke-opacity:1"
       d="m 203.02099,49.513435 -22.29816,4.173409 C 165.13984,28.1426 136.99693,11.075175 104.86842,11.075175 c -32.099606,0 -60.210916,17.039432 -75.829115,42.551172 L 6.6806411,49.513435 8.5081973,150.29447 28.795511,145.81137 c 15.55138,25.72663 43.789102,42.88977 76.041299,42.88977 32.40391,0 60.73373,-17.34644 76.25983,-43.25999 l 21.89274,4.82172 V 49.513435 Z" />
    <path
       inkscape:connector-curvature="0"
       id="path1271-6"
       style="fill:#000000;fill-opacity:1;fill-rule:nonzero;stroke:#000000;stroke-width:0.1;stroke-linecap:butt;stroke-linejoin:miter;stroke-miterlimit:8.9830513;stroke-dasharray:none;stroke-opacity:1"
       d="m 178.55756,97.846155 c 0,41.365605 -33.53257,74.898185 -74.89546,74.898185 -41.369226,0 -74.898193,-33.53258 -74.898193,-74.898185 0,-41.3629 33.528967,-74.895479 74.898193,-74.895479 41.36289,0 74.89546,33.532579 74.89546,74.895479" />
    <path
       inkscape:connector-curvature="0"
       id="path1275-3"
       style="fill:none;stroke:#ffffff;stroke-width:0.1;stroke-linecap:butt;stroke-linejoin:miter;stroke-miterlimit:8.9830513;stroke-dasharray:none;stroke-opacity:1"
       d="m 104.0928,24.404414 v 7.9784" />
    <path
       d="m 105.45083,47.101683 c 8.63392,0.246502 15.15588,2.257354 14.88048,12.493109 -0.28171,10.234858 -7.5513,18.305362 -16.17531,18.058849 -8.626713,-0.2474 -15.398777,-8.75131 -15.089072,-18.955469 0.306999,-10.206864 7.728284,-11.843901 16.383902,-11.596489 z"
       style="fill:#ffffff;fill-opacity:1;fill-rule:nonzero;stroke:none;stroke-width:0.1;stroke-miterlimit:8.9830513;stroke-dasharray:none"
       id="path1277-9"
       inkscape:connector-curvature="0" />
    <path
       inkscape:connector-curvature="0"
       id="path1281-4"
       style="fill:none;stroke:#000000;stroke-width:0.1;stroke-linecap:butt;stroke-linejoin:miter;stroke-miterlimit:8.9830513;stroke-dasharray:none;stroke-opacity:1"
       d="m 91.13738,52.049808 -0.525521,3.367973" />
    <path
       d="m 89.52562,30.710568 h 29.31764 v 9.495339 H 89.52562 Z"
       style="fill:#ffffff;fill-opacity:1;fill-rule:nonzero;stroke:none;stroke-width:0.1;stroke-miterlimit:8.9830513;stroke-dasharray:none"
       id="path1283-8"
       inkscape:connector-curvature="0" />
    <path
       d="m 89.52562,41.471832 h 29.31764 l -5.38244,4.486728 H 95.496782 Z"
       style="fill:#ffffff;fill-opacity:1;fill-rule:nonzero;stroke:none;stroke-width:0.1;stroke-miterlimit:8.9830513;stroke-dasharray:none"
       id="path1285-1"
       inkscape:connector-curvature="0" />
    <path
       d="m 98.55505,35.969307 c 0,1.570208 -1.618977,2.843361 -3.61177,2.843361 -2.000021,0 -3.618998,-1.273153 -3.618998,-2.843361 0,-1.572936 1.618977,-2.846077 3.618998,-2.846077 1.992793,0 3.61177,1.273141 3.61177,2.846077"
       style="fill:#010202;fill-opacity:1;fill-rule:nonzero;stroke:none;stroke-width:0.1;stroke-miterlimit:8.9830513;stroke-dasharray:none"
       id="path1287-2"
       inkscape:connector-curvature="0" />
    <path
       d="m 116.68072,35.969307 c 0,1.570208 -1.61898,2.843361 -3.61809,2.843361 -2.00002,0 -3.6226,-1.273153 -3.6226,-2.843361 0,-1.572936 1.62258,-2.846077 3.6226,-2.846077 1.99911,0 3.61809,1.273141 3.61809,2.846077"
       style="fill:#010202;fill-opacity:1;fill-rule:nonzero;stroke:none;stroke-width:0.1;stroke-miterlimit:8.9830513;stroke-dasharray:none"
       id="path1289-9"
       inkscape:connector-curvature="0" />
    <path
       d="m 90.39335,35.969307 c 0,1.929579 -1.079011,3.492582 -2.412662,3.492582 -1.329127,0 -2.409047,-1.563003 -2.409047,-3.492582 0,-1.932307 1.07992,-3.495298 2.409047,-3.495298 1.333651,0 2.412662,1.562991 2.412662,3.495298"
       style="fill:#ffffff;fill-opacity:1;fill-rule:nonzero;stroke:none;stroke-width:0.1;stroke-miterlimit:8.9830513;stroke-dasharray:none"
       id="path1291-3"
       inkscape:connector-curvature="0" />
    <path
       d="m 122.74398,35.969307 c 0,1.929579 -1.08625,3.492582 -2.41267,3.492582 -1.33635,0 -2.41266,-1.563003 -2.41266,-3.492582 0,-1.932307 1.07631,-3.495298 2.41266,-3.495298 1.32642,0 2.41267,1.562991 2.41267,3.495298"
       style="fill:#ffffff;fill-opacity:1;fill-rule:nonzero;stroke:none;stroke-width:0.1;stroke-miterlimit:8.9830513;stroke-dasharray:none"
       id="path1293-9"
       inkscape:connector-curvature="0" />
    <path
       d="m 87.36037,35.969307 c 0,-0.401809 0.712423,-9.462846 0.712423,-9.462846 l 0.712412,9.462846 z"
       style="fill:#ffffff;fill-opacity:1;fill-rule:nonzero;stroke:none;stroke-width:0.1;stroke-miterlimit:8.9830513;stroke-dasharray:none"
       id="path1295-0"
       inkscape:connector-curvature="0" />
    <path
       d="m 119.6189,35.969307 c 0,-0.401809 0.71241,-9.462846 0.71241,-9.462846 l 0.70972,9.462846 z"
       style="fill:#ffffff;fill-opacity:1;fill-rule:nonzero;stroke:none;stroke-width:0.1;stroke-miterlimit:8.9830513;stroke-dasharray:none"
       id="path1297-8"
       inkscape:connector-curvature="0" />
    <path
       d="m 106.44496,25.61075 c 0,0.97337 -1.01219,1.759827 -2.25735,1.759827 -1.24426,0 -2.25736,-0.786457 -2.25736,-1.759827 0,-0.973382 1.0131,-1.763452 2.25736,-1.763452 1.24516,0 2.25735,0.79007 2.25735,1.763452"
       style="fill:#ffffff;fill-opacity:1;fill-rule:nonzero;stroke:none;stroke-width:0.1;stroke-miterlimit:8.9830513;stroke-dasharray:none"
       id="path1299-8"
       inkscape:connector-curvature="0" />
    <path
       d="m 111.57367,38.195055 c 0.89934,0.310614 1.88715,0.310614 2.78649,0 0.89932,-0.309705 1.63974,-0.927318 2.03884,-1.671348 -0.0569,0.557116 -0.55711,0.990532 -1.05103,1.329138 -0.21219,0.155296 -0.4623,0.310603 -0.71242,0.434314 -0.6772,0.34221 -1.45012,0.493903 -2.22575,0.401809 -0.37021,-0.03165 -0.80091,-0.183299 -0.95622,-0.462306 0.0316,-0.03165 0.0922,-0.06319 0.12009,-0.09484"
       style="fill:#ffffff;fill-opacity:1;fill-rule:nonzero;stroke:none;stroke-width:0.1;stroke-miterlimit:8.9830513;stroke-dasharray:none"
       id="path1301-5"
       inkscape:connector-curvature="0" />
    <path
       d="m 91.882308,36.742216 c 0.274494,0.433416 0.736801,0.740416 1.230703,0.958925 0.557116,0.247412 1.177435,0.430711 1.795048,0.402719 1.114232,0 2.102059,-0.525509 3.061882,-1.023037 -0.1237,0.370213 -0.399104,0.74403 -0.769306,0.958925 -0.592326,0.371111 -1.393239,0.434314 -2.137269,0.465921 -0.310614,0.02795 -0.617613,0.02795 -0.923704,-0.03165 -0.402718,-0.09204 -0.776534,-0.279007 -1.150351,-0.493902 -0.458692,-0.279018 -0.895722,-0.621228 -1.139519,-1.054644 -0.03154,-0.02795 -0.06678,-0.1237 0.03255,-0.1833"
       style="fill:#ffffff;fill-opacity:1;fill-rule:nonzero;stroke:none;stroke-width:0.1;stroke-miterlimit:8.9830513;stroke-dasharray:none"
       id="path1303-0"
       inkscape:connector-curvature="0" />
    <path
       d="m 118.84326,33.433843 c 0.0632,-0.03165 0.46592,-0.680827 0.99143,-0.744029 0.52191,-0.0605 1.42123,-0.2474 2.22846,1.082625 0.80092,1.329138 0.4271,3.001384 0.4271,3.001384 h -0.2754 c 0,0 0.3991,-1.516939 -0.307,-2.782864 -0.71243,-1.269538 -1.48805,-1.178343 -1.98195,-1.054643 -0.49392,0.1237 -0.74403,0.680816 -0.74403,0.680816 z"
       style="fill:#010202;fill-opacity:1;fill-rule:nonzero;stroke:none;stroke-width:0.1;stroke-miterlimit:8.9830513;stroke-dasharray:none"
       id="path1305-9"
       inkscape:connector-curvature="0" />
    <path
       d="m 89.712534,33.37063 v -2.473159 h 4.176103 c 0,-0.03154 -3.925089,0.123711 -4.176103,2.473159 z"
       style="fill:#010202;fill-opacity:1;fill-rule:nonzero;stroke:none;stroke-width:0.1;stroke-miterlimit:8.9830513;stroke-dasharray:none"
       id="path1307-6"
       inkscape:connector-curvature="0" />
    <path
       d="M 89.712534,54.956383 93.888637,48.95633 87.36037,47.658799 Z"
       style="fill:#ffffff;fill-opacity:1;fill-rule:nonzero;stroke:none;stroke-width:0.1;stroke-miterlimit:8.9830513;stroke-dasharray:none"
       id="path1309-3"
       inkscape:connector-curvature="0" />
    <path
       d="m 87.949082,49.48184 c 0.155306,0.46592 -2.377441,10.327859 -2.377441,10.327859 l 4.821709,-2.811766 0.832509,-5.720148 z"
       style="fill:#ffffff;fill-opacity:1;fill-rule:nonzero;stroke:none;stroke-width:0.1;stroke-miterlimit:8.9830513;stroke-dasharray:none"
       id="path1311-8"
       inkscape:connector-curvature="0" />
    <path
       d="m 119.43198,54.956383 -4.1725,-6.000053 6.49397,-1.297531"
       style="fill:#ffffff;fill-opacity:1;fill-rule:nonzero;stroke:none;stroke-width:0.1;stroke-miterlimit:8.9830513;stroke-dasharray:none"
       id="path1313-5"
       inkscape:connector-curvature="0" />
    <path
       inkscape:connector-curvature="0"
       id="path1317-6"
       style="fill:#ffffff;fill-opacity:1;fill-rule:nonzero;stroke:#010202;stroke-width:0.1;stroke-linecap:butt;stroke-linejoin:miter;stroke-miterlimit:8.9830513;stroke-dasharray:none;stroke-opacity:1"
       d="m 107.43278,54.120249 c 0.64922,2.042459 -5.25874,5.721046 -13.170316,8.257418 -7.921517,2.503857 -8.232131,0.772012 -8.877737,-1.266833 -0.64922,-2.04246 -1.389625,-3.618987 6.521959,-6.122855 7.953113,-2.536362 14.905774,-2.906564 15.526094,-0.86773 z" />
    <path
       d="m 121.22794,49.359037 c -0.25102,0.433416 0.0279,10.573453 0.0279,10.573453 l -4.08129,-3.801389 0.43069,-5.781532 z"
       style="fill:#ffffff;fill-opacity:1;fill-rule:nonzero;stroke:none;stroke-width:0.1;stroke-miterlimit:8.9830513;stroke-dasharray:none"
       id="path1319-1"
       inkscape:connector-curvature="0" />
    <path
       inkscape:connector-curvature="0"
       id="path1323-1"
       style="fill:#ffffff;fill-opacity:1;fill-rule:nonzero;stroke:#010202;stroke-width:0.1;stroke-linecap:butt;stroke-linejoin:miter;stroke-miterlimit:8.9830513;stroke-dasharray:none;stroke-opacity:1"
       d="m 99.606068,56.656622 c -0.490288,2.073157 5.693052,5.318327 13.766262,7.20548 8.06689,1.887152 8.25381,0.155307 8.74771,-1.946741 0.49391,-2.074066 1.11423,-3.713808 -6.98426,-5.597346 -8.10481,-1.887152 -15.03218,-1.76435 -15.529712,0.338607 z" />
    <path
       inkscape:connector-curvature="0"
       id="path1327-5"
       style="fill:none;stroke:#000000;stroke-width:0.1;stroke-linecap:butt;stroke-linejoin:miter;stroke-miterlimit:8.9830513;stroke-dasharray:none;stroke-opacity:1"
       d="m 117.07982,53.71844 0.49752,3.371586" />
    <path
       d="m 105.39393,60.120302 c 0.0885,-0.338596 13.85114,3.6181 15.27599,1.763452 1.42214,-1.855546 0.6456,2.34855 -1.85826,2.288962 -2.56796,-0.310614 -13.97485,-2.010853 -13.41773,-4.052414 z"
       style="fill:#000000;fill-opacity:1;fill-rule:nonzero;stroke:none;stroke-width:0.1;stroke-miterlimit:8.9830513;stroke-dasharray:none"
       id="path1329-9"
       inkscape:connector-curvature="0" />
    <path
       d="m 85.571641,59.809699 0.956209,2.722366 c 0,0 0.401809,0.712423 2.133654,0.558025 1.700239,-0.155307 6.740469,-1.425755 6.740469,-1.425755 0,0 -8.747707,1.178344 -9.830332,-1.854636 z"
       style="fill:#010202;fill-opacity:1;fill-rule:nonzero;stroke:none;stroke-width:0.1;stroke-miterlimit:8.9830513;stroke-dasharray:none"
       id="path1331-8"
       inkscape:connector-curvature="0" />
    <path
       d="m 91.723386,51.55228 c 0,-0.306999 -0.497527,3.093489 -0.497527,3.093489 l 7.608198,-2.038845 c 0,0 -7.234371,1.979246 -7.110671,-1.054644 z"
       style="fill:#010202;fill-opacity:1;fill-rule:nonzero;stroke:none;stroke-width:0.1;stroke-miterlimit:8.9830513;stroke-dasharray:none"
       id="path1333-4"
       inkscape:connector-curvature="0" />
    <path
       inkscape:connector-curvature="0"
       id="path1337-8"
       style="fill:none;stroke:#ffffff;stroke-width:0.1;stroke-linecap:butt;stroke-linejoin:miter;stroke-miterlimit:8.9830513;stroke-dasharray:none;stroke-opacity:1"
       d="m 120.66992,171.3547 -5.60095,2.93818 -5.34723,-3.37249 0.24741,-6.30616 5.59372,-2.96977 5.35084,3.37158 z" />
    <path
       inkscape:connector-curvature="0"
       id="path1341-1"
       style="fill:none;stroke:#ffffff;stroke-width:0.1;stroke-linecap:butt;stroke-linejoin:miter;stroke-miterlimit:8.9830513;stroke-dasharray:none;stroke-opacity:1"
       d="m 104.52621,161.48915 -5.597344,2.96979 -5.347229,-3.3716 0.243797,-6.33865 5.597346,-2.93818 5.35083,3.36888 z" />
    <path
       inkscape:connector-curvature="0"
       id="path1345-0"
       style="fill:none;stroke:#ffffff;stroke-width:0.1;stroke-linecap:butt;stroke-linejoin:miter;stroke-miterlimit:8.9830513;stroke-dasharray:none;stroke-opacity:1"
       d="m 82.601859,160.71714 0.24379,-6.31067 5.597346,-2.96616 5.350832,3.36888 -0.243786,6.34136 -5.600959,2.93456 z" />
    <path
       inkscape:connector-curvature="0"
       id="path1349-3"
       style="fill:none;stroke:#ffffff;stroke-width:0.1;stroke-linecap:butt;stroke-linejoin:miter;stroke-miterlimit:8.9830513;stroke-dasharray:none;stroke-opacity:1"
       d="m 88.598302,151.4692 0.250116,-6.30705 5.597335,-2.93817 5.350843,3.37248 -0.250116,6.30616 -5.593732,2.93817 z" />
    <path
       inkscape:connector-curvature="0"
       id="path1353-0"
       style="fill:none;stroke:#ffffff;stroke-width:0.1;stroke-linecap:butt;stroke-linejoin:miter;stroke-miterlimit:8.9830513;stroke-dasharray:none;stroke-opacity:1"
       d="m 77.43793,151.09809 0.243794,-6.30615 5.565734,-2.96977 5.350844,3.37158 -0.243797,6.33865 -5.565739,2.93818 z" />
    <path
       inkscape:connector-curvature="0"
       id="path1357-4"
       style="fill:none;stroke:#ffffff;stroke-width:0.1;stroke-linecap:butt;stroke-linejoin:miter;stroke-miterlimit:8.9830513;stroke-dasharray:none;stroke-opacity:1"
       d="m 115.47439,161.79976 0.24379,-6.30975 5.56573,-2.93819 5.35085,3.3716 -0.2438,6.30615 -5.56574,2.93818 z" />
    <path
       inkscape:connector-curvature="0"
       id="path1361-4"
       style="fill:none;stroke:#ffffff;stroke-width:0.1;stroke-linecap:butt;stroke-linejoin:miter;stroke-miterlimit:8.9830513;stroke-dasharray:none;stroke-opacity:1"
       d="m 121.47083,152.58343 0.25011,-6.33866 5.59463,-2.93817 5.35355,3.36888 -0.25011,6.30976 -5.59735,2.96978 z" />
    <path
       inkscape:connector-curvature="0"
       id="path1365-4"
       style="fill:none;stroke:#ffffff;stroke-width:0.1;stroke-linecap:butt;stroke-linejoin:miter;stroke-miterlimit:8.9830513;stroke-dasharray:none;stroke-opacity:1"
       d="m 120.51461,171.4459 0.2158,-6.30615 5.59735,-2.93818 5.34722,3.36888 -0.24379,6.30977 -5.56574,2.93817 z" />
    <path
       inkscape:connector-curvature="0"
       id="path1369-4"
       style="fill:none;stroke:#ffffff;stroke-width:0.1;stroke-linecap:butt;stroke-linejoin:miter;stroke-miterlimit:8.9830513;stroke-dasharray:none;stroke-opacity:1"
       d="m 122.30695,133.87536 0.25012,-6.30976 5.59734,-2.93818 5.35084,3.37159 -0.25373,6.30706 -5.59012,2.93817 z" />
    <path
       inkscape:connector-curvature="0"
       id="path1373-7"
       style="fill:none;stroke:#ffffff;stroke-width:0.1;stroke-linecap:butt;stroke-linejoin:miter;stroke-miterlimit:8.9830513;stroke-dasharray:none;stroke-opacity:1"
       d="m 143.73739,153.44755 0.25102,-6.33866 5.59373,-2.93817 5.35445,3.37248 -0.25103,6.30616 -5.60094,2.96977 z" />
    <path
       inkscape:connector-curvature="0"
       id="path1377-6"
       style="fill:none;stroke:#ffffff;stroke-width:0.1;stroke-linecap:butt;stroke-linejoin:miter;stroke-miterlimit:8.9830513;stroke-dasharray:none;stroke-opacity:1"
       d="m 98.710357,170.55019 0.250116,-6.30977 5.594627,-2.93817 5.35355,3.37158 -0.25012,6.31067 -5.59734,2.93817 z" />
    <path
       inkscape:connector-curvature="0"
       id="path1381-3"
       style="fill:none;stroke:#ffffff;stroke-width:0.1;stroke-linecap:butt;stroke-linejoin:miter;stroke-miterlimit:8.9830513;stroke-dasharray:none;stroke-opacity:1"
       d="m 126.45146,162.16998 0.2465,-6.30977 5.60095,-2.96616 5.34361,3.36797 -0.2465,6.34227 -5.59463,2.93727 z" />
    <path
       inkscape:connector-curvature="0"
       id="path1385-1"
       style="fill:none;stroke:#ffffff;stroke-width:0.1;stroke-linecap:butt;stroke-linejoin:miter;stroke-miterlimit:8.9830513;stroke-dasharray:none;stroke-opacity:1"
       d="m 99.331573,151.96582 0.246514,-6.30976 5.597333,-2.96978 5.34723,3.37159 -0.24289,6.33866 -5.59824,2.93817 z" />
    <path
       inkscape:connector-curvature="0"
       id="path1389-7"
       style="fill:none;stroke:#ffffff;stroke-width:0.1;stroke-linecap:butt;stroke-linejoin:miter;stroke-miterlimit:8.9830513;stroke-dasharray:none;stroke-opacity:1"
       d="m 110.33935,152.33603 0.25012,-6.34137 5.59734,-2.93456 5.35084,3.36797 -0.25374,6.31067 -5.59372,2.96616 z" />
    <path
       inkscape:connector-curvature="0"
       id="path1393-5"
       style="fill:none;stroke:#ffffff;stroke-width:0.1;stroke-linecap:butt;stroke-linejoin:miter;stroke-miterlimit:8.9830513;stroke-dasharray:none;stroke-opacity:1"
       d="m 105.36234,142.71788 0.24379,-6.30614 5.59734,-2.93819 5.32285,3.36799 -0.21581,6.31065 -5.60096,2.93728 z" />
    <path
       inkscape:connector-curvature="0"
       id="path1397-9"
       style="fill:none;stroke:#ffffff;stroke-width:0.1;stroke-linecap:butt;stroke-linejoin:miter;stroke-miterlimit:8.9830513;stroke-dasharray:none;stroke-opacity:1"
       d="m 87.547272,170.20797 0.214907,-6.33775 5.600949,-2.93817 5.347229,3.37158 -0.242899,6.30705 -5.566637,2.96978 z" />
    <path
       inkscape:connector-curvature="0"
       id="path1401-6"
       style="fill:none;stroke:#ffffff;stroke-width:0.1;stroke-linecap:butt;stroke-linejoin:miter;stroke-miterlimit:8.9830513;stroke-dasharray:none;stroke-opacity:1"
       d="m 94.319348,142.22398 5.353548,3.37248 -0.250116,6.30616 -5.597346,2.93817 -5.350832,-3.37159 0.250105,-6.30705 z" />
    <path
       inkscape:connector-curvature="0"
       id="path1405-2"
       style="fill:none;stroke:#ffffff;stroke-width:0.1;stroke-linecap:butt;stroke-linejoin:miter;stroke-miterlimit:8.9830513;stroke-dasharray:none;stroke-opacity:1"
       d="m 100.32211,132.97604 5.34722,3.37158 -0.24289,6.33866 -5.598248,2.93817 -5.349934,-3.36888 0.242899,-6.30976 z" />
    <path
       inkscape:connector-curvature="0"
       id="path1409-1"
       style="fill:none;stroke:#ffffff;stroke-width:0.1;stroke-linecap:butt;stroke-linejoin:miter;stroke-miterlimit:8.9830513;stroke-dasharray:none;stroke-opacity:1"
       d="m 89.155418,132.60582 5.32284,3.37159 -0.215794,6.30706 -5.60096,2.96978 -5.347229,-3.37249 0.243797,-6.33775 z" />
    <path
       inkscape:connector-curvature="0"
       id="path1413-7"
       style="fill:none;stroke:#ffffff;stroke-width:0.1;stroke-linecap:butt;stroke-linejoin:miter;stroke-miterlimit:8.9830513;stroke-dasharray:none;stroke-opacity:1"
       d="m 71.220267,160.15912 5.353548,3.37249 -0.253727,6.30615 -5.565739,2.93817 -5.347225,-3.36797 0.251017,-6.31066 z" />
    <path
       inkscape:connector-curvature="0"
       id="path1417-8"
       style="fill:none;stroke:#ffffff;stroke-width:0.1;stroke-linecap:butt;stroke-linejoin:miter;stroke-miterlimit:8.9830513;stroke-dasharray:none;stroke-opacity:1"
       d="m 77.251021,150.9148 5.350838,3.36887 -0.250115,6.30977 -5.59373,2.96616 -5.354449,-3.36797 0.250115,-6.34227 z" />
    <path
       inkscape:connector-curvature="0"
       id="path1421-5"
       style="fill:none;stroke:#ffffff;stroke-width:0.1;stroke-linecap:butt;stroke-linejoin:miter;stroke-miterlimit:8.9830513;stroke-dasharray:none;stroke-opacity:1"
       d="m 66.056339,150.54097 5.347226,3.3725 -0.243794,6.30976 -5.600953,2.93456 -5.343614,-3.36888 0.243795,-6.30976 z" />
    <path
       inkscape:connector-curvature="0"
       id="path1425-7"
       style="fill:none;stroke:#ffffff;stroke-width:0.1;stroke-linecap:butt;stroke-linejoin:miter;stroke-miterlimit:8.9830513;stroke-dasharray:none;stroke-opacity:1"
       d="m 71.929077,141.54315 5.35445,3.37249 -0.251018,6.30616 -5.597341,2.96978 -5.350838,-3.37159 0.253727,-6.33866 z" />
    <path
       inkscape:connector-curvature="0"
       id="path1429-4"
       style="fill:none;stroke:#ffffff;stroke-width:0.1;stroke-linecap:butt;stroke-linejoin:miter;stroke-miterlimit:8.9830513;stroke-dasharray:none;stroke-opacity:1"
       d="m 77.963443,132.32682 5.350832,3.37249 -0.250105,6.30615 -5.593734,2.93818 -5.35445,-3.36888 0.250116,-6.30976 z" />
    <path
       inkscape:connector-curvature="0"
       id="path1433-1"
       style="fill:none;stroke:#ffffff;stroke-width:0.1;stroke-linecap:butt;stroke-linejoin:miter;stroke-miterlimit:8.9830513;stroke-dasharray:none;stroke-opacity:1"
       d="m 66.765149,131.92501 5.350837,3.37158 -0.243793,6.33866 -5.597342,2.93817 -5.350838,-3.36887 0.243795,-6.30977 z" />
    <path
       inkscape:connector-curvature="0"
       id="path1437-8"
       style="fill:none;stroke:#ffffff;stroke-width:0.1;stroke-linecap:butt;stroke-linejoin:miter;stroke-miterlimit:8.9830513;stroke-dasharray:none;stroke-opacity:1"
       d="m 54.737954,150.29447 5.35445,3.37159 -0.251019,6.33866 -5.600952,2.93818 -5.347226,-3.3725 0.250115,-6.30615 z" />
    <path
       inkscape:connector-curvature="0"
       id="path1441-5"
       style="fill:none;stroke:#ffffff;stroke-width:0.1;stroke-linecap:butt;stroke-linejoin:miter;stroke-miterlimit:8.9830513;stroke-dasharray:none;stroke-opacity:1"
       d="m 60.740716,141.07814 5.343614,3.37158 -0.246503,6.30977 -5.565738,2.93817 -5.350838,-3.37158 0.250115,-6.30977 z" />
    <path
       inkscape:connector-curvature="0"
       id="path1445-9"
       style="fill:none;stroke:#ffffff;stroke-width:0.1;stroke-linecap:butt;stroke-linejoin:miter;stroke-miterlimit:8.9830513;stroke-dasharray:none;stroke-opacity:1"
       d="m 49.574025,140.67543 5.347226,3.37248 -0.243795,6.33775 -5.597341,2.93819 -5.350837,-3.36798 0.247406,-6.31066 z" />
    <path
       inkscape:connector-curvature="0"
       id="path1449-7"
       style="fill:none;stroke:#ffffff;stroke-width:0.1;stroke-linecap:butt;stroke-linejoin:miter;stroke-miterlimit:8.9830513;stroke-dasharray:none;stroke-opacity:1"
       d="m 76.573815,169.83776 0.243793,-6.33775 5.597342,-2.93818 5.347229,3.37159 -0.243797,6.33866 -5.597342,2.93817 z" />
    <path
       inkscape:connector-curvature="0"
       id="path1453-5"
       style="fill:none;stroke:#ffffff;stroke-width:0.1;stroke-linecap:butt;stroke-linejoin:miter;stroke-miterlimit:8.9830513;stroke-dasharray:none;stroke-opacity:1"
       d="m 49.725719,140.77114 0.253727,-6.30976 5.594633,-2.93818 5.349934,3.37158 -0.250115,6.30977 -5.597341,2.93456 z" />
    <path
       inkscape:connector-curvature="0"
       id="path1457-3"
       style="fill:none;stroke:#ffffff;stroke-width:0.1;stroke-linecap:butt;stroke-linejoin:miter;stroke-miterlimit:8.9830513;stroke-dasharray:none;stroke-opacity:1"
       d="m 89.155418,132.54533 0.250116,-6.34137 5.598244,-2.93817 5.349932,3.37249 -0.25011,6.30976 -5.59735,2.96617 z" />
    <path
       inkscape:connector-curvature="0"
       id="path1461-8"
       style="fill:none;stroke:#ffffff;stroke-width:0.1;stroke-linecap:butt;stroke-linejoin:miter;stroke-miterlimit:8.9830513;stroke-dasharray:none;stroke-opacity:1"
       d="m 111.11498,133.50155 0.24379,-6.30616 5.59735,-2.93817 5.35083,3.37159 -0.2438,6.30705 -5.60094,2.93727 z" />
    <path
       inkscape:connector-curvature="0"
       id="path1465-8"
       style="fill:none;stroke:#ffffff;stroke-width:0.1;stroke-linecap:butt;stroke-linejoin:miter;stroke-miterlimit:8.9830513;stroke-dasharray:none;stroke-opacity:1"
       d="m 127.47359,143.27499 0.24379,-6.30975 5.60095,-2.93818 5.34723,3.37158 -0.24289,6.31067 -5.59824,2.93818 z" />
    <path
       inkscape:connector-curvature="0"
       id="path1469-3"
       style="fill:none;stroke:#ffffff;stroke-width:0.1;stroke-linecap:butt;stroke-linejoin:miter;stroke-miterlimit:8.9830513;stroke-dasharray:none;stroke-opacity:1"
       d="m 138.66556,143.64521 0.25012,-6.30616 5.59463,-2.96977 5.35355,3.37158 -0.25373,6.33866 -5.59372,2.93817 z" />
    <path
       inkscape:connector-curvature="0"
       id="path1473-1"
       style="fill:none;stroke:#ffffff;stroke-width:0.1;stroke-linecap:butt;stroke-linejoin:miter;stroke-miterlimit:8.9830513;stroke-dasharray:none;stroke-opacity:1"
       d="m 137.61454,162.72709 0.25011,-6.30977 5.59824,-2.93817 5.34994,3.37159 -0.25372,6.30705 -5.59735,2.93817 z" />
    <path
       inkscape:connector-curvature="0"
       id="path1477-8"
       style="fill:none;stroke:#ffffff;stroke-width:0.1;stroke-linecap:butt;stroke-linejoin:miter;stroke-miterlimit:8.9830513;stroke-dasharray:none;stroke-opacity:1"
       d="m 149.86386,144.01631 0.24379,-6.33865 5.56574,-2.93818 5.35083,3.37249 -0.24378,6.30616 -5.56935,2.96978 z" />
    <path
       inkscape:connector-curvature="0"
       id="path1481-9"
       style="fill:none;stroke:#ffffff;stroke-width:0.1;stroke-linecap:butt;stroke-linejoin:miter;stroke-miterlimit:8.9830513;stroke-dasharray:none;stroke-opacity:1"
       d="m 154.93659,153.88096 0.24289,-6.33776 5.60096,-2.93817 5.3436,3.37159 -0.2465,6.30705 -5.59463,2.96978 z" />
    <path
       d="m 61.266229,135.5124 c 3.615381,-3.18558 9.27322,-4.39191 20.316207,0.1228 11.036673,4.51471 18.521164,11.5974 16.69721,15.86561 -1.826644,4.26731 -25.356428,1.69934 -36.399417,-2.81538 -11.036666,-4.51471 -4.048794,-9.70934 -0.614,-13.17303 z"
       style="fill:#ffffff;fill-opacity:1;fill-rule:nonzero;stroke:none;stroke-width:0.1;stroke-miterlimit:8.9830513;stroke-dasharray:none"
       id="path1483-6"
       inkscape:connector-curvature="0" />
    <path
       d="m 73.572434,141.20455 c 2.444265,-2.13365 6.246556,-2.93818 13.695832,0.0921 7.452891,3.02938 12.461514,7.8231 11.227184,10.66917 -1.234317,2.87497 -17.068319,1.14313 -24.521207,-1.88715 -7.451986,-3.02936 -2.722372,-6.52466 -0.401809,-8.87411 z"
       style="fill:#ffffff;fill-opacity:1;fill-rule:nonzero;stroke:none;stroke-width:0.1;stroke-miterlimit:8.9830513;stroke-dasharray:none"
       id="path1485-4"
       inkscape:connector-curvature="0" />
    <path
       d="m 146.30175,135.05009 c -3.71019,-3.06188 -9.39963,-4.1129 -20.31621,0.70881 -10.91657,4.82532 -18.17895,12.12291 -16.2313,16.33062 1.94675,4.2041 25.38443,0.95622 36.30461,-3.8339 10.91568,-4.79371 3.80501,-9.80504 0.2429,-13.20553 z"
       style="fill:#ffffff;fill-opacity:1;fill-rule:nonzero;stroke:none;stroke-width:0.1;stroke-miterlimit:8.9830513;stroke-dasharray:none"
       id="path1487-3"
       inkscape:connector-curvature="0" />
    <path
       d="m 134.18245,141.10974 c -2.50747,-2.07045 -6.34137,-2.78287 -13.66784,0.46502 -7.36079,3.24518 -12.24931,8.16259 -10.91928,11.00867 1.33274,2.84608 17.10263,0.64922 24.46342,-2.59596 7.32647,-3.24878 2.50476,-6.62037 0.1237,-8.87773 z"
       style="fill:#ffffff;fill-opacity:1;fill-rule:nonzero;stroke:none;stroke-width:0.1;stroke-miterlimit:8.9830513;stroke-dasharray:none"
       id="path1489-3"
       inkscape:connector-curvature="0" />
    <path
       inkscape:connector-curvature="0"
       id="path1493-3"
       style="fill:#ffffff;fill-opacity:1;fill-rule:nonzero;stroke:#0000ff;stroke-width:0.1;stroke-linecap:butt;stroke-linejoin:miter;stroke-miterlimit:8.9830513;stroke-dasharray:none;stroke-opacity:1"
       d="m 88.816811,144.04791 c -0.1237,-8.96621 7.20548,-22.41826 13.825859,-22.51396 6.61406,-0.0913 12.89222,13.17393 13.01862,22.14376 0.1237,8.96892 -5.93955,10.23576 -12.55631,10.32695 -6.620382,0.0957 -14.164469,-0.98781 -14.288169,-9.95675 z" />
    <path
       d="m 120.14441,142.65829 c -3.18829,2.00634 -5.44566,4.01719 -5.04023,4.4506 0.3991,0.46592 3.27677,-0.80362 6.46236,-2.81447 3.18107,-2.00995 5.43842,-4.0172 5.04023,-4.45151 -0.37112,-0.46501 -3.2804,0.80453 -6.46236,2.81538 z"
       style="fill:#000000;fill-opacity:1;fill-rule:nonzero;stroke:none;stroke-width:0.1;stroke-miterlimit:8.9830513;stroke-dasharray:none"
       id="path1495-8"
       inkscape:connector-curvature="0" />
    <path
       d="m 118.84326,137.74086 c 3.95761,0.83251 7.17388,1.82394 7.17388,2.19415 0,0.37021 -3.24518,-0.0317 -7.20548,-0.86411 -3.9576,-0.83612 -7.17116,-1.82666 -7.17116,-2.19777 0,-0.3702 3.21356,0.0325 7.20276,0.86773 z"
       style="fill:#000000;fill-opacity:1;fill-rule:nonzero;stroke:none;stroke-width:0.1;stroke-miterlimit:8.9830513;stroke-dasharray:none"
       id="path1497-6"
       inkscape:connector-curvature="0" />
    <path
       d="m 125.12142,140.61583 c -0.52551,-0.61761 -0.55711,-1.36163 -0.0316,-1.67225 0.4939,-0.3061 1.33274,-0.0596 1.85825,0.52913 0.52551,0.61761 0.55441,1.35803 0.0289,1.66863 -0.49752,0.33861 -1.33003,0.0921 -1.85555,-0.52551 z"
       style="fill:#000000;fill-opacity:1;fill-rule:nonzero;stroke:none;stroke-width:0.1;stroke-miterlimit:8.9830513;stroke-dasharray:none"
       id="path1499-0"
       inkscape:connector-curvature="0" />
    <path
       d="m 112.69152,146.95449 c 0.71242,-1.23523 2.19415,-1.88715 3.30838,-1.42214 1.11153,0.46231 1.39324,1.85556 0.68082,3.09349 -0.71243,1.23432 -2.19686,1.88715 -3.30839,1.42123 -1.11783,-0.46141 -1.39324,-1.85465 -0.68081,-3.09258 z"
       style="fill:#000000;fill-opacity:1;fill-rule:nonzero;stroke:none;stroke-width:0.1;stroke-miterlimit:8.9830513;stroke-dasharray:none"
       id="path1501-4"
       inkscape:connector-curvature="0" />
    <path
       d="m 120.88211,136.50293 c -3.18197,2.01085 -5.43933,4.0208 -5.04022,4.45151 0.40181,0.46592 3.28309,-0.80453 6.46506,-2.81087 3.18469,-2.01085 5.44204,-4.0208 5.04023,-4.45511 -0.37021,-0.43342 -3.27678,0.80452 -6.46507,2.81447 z"
       style="fill:#000000;fill-opacity:1;fill-rule:nonzero;stroke:none;stroke-width:0.1;stroke-miterlimit:8.9830513;stroke-dasharray:none"
       id="path1503-8"
       inkscape:connector-curvature="0" />
    <path
       d="m 119.58368,131.61801 c 3.95759,0.83251 7.17748,1.82395 7.17748,2.19415 0,0.3702 -3.24787,-0.0317 -7.20909,-0.86412 -3.95398,-0.83612 -7.17387,-1.82755 -7.17387,-2.19776 0,-0.3702 3.21989,0 7.20548,0.86773 z"
       style="fill:#000000;fill-opacity:1;fill-rule:nonzero;stroke:none;stroke-width:0.1;stroke-miterlimit:8.9830513;stroke-dasharray:none"
       id="path1505-8"
       inkscape:connector-curvature="0" />
    <path
       d="m 125.86545,134.49298 c -0.52552,-0.61762 -0.56073,-1.36164 -0.0352,-1.66864 0.49753,-0.31061 1.33004,-0.0632 1.85554,0.52551 0.52552,0.61762 0.55712,1.35803 0.0317,1.66865 -0.52551,0.3097 -1.32643,0.0913 -1.85194,-0.52552 z"
       style="fill:#000000;fill-opacity:1;fill-rule:nonzero;stroke:none;stroke-width:0.1;stroke-miterlimit:8.9830513;stroke-dasharray:none"
       id="path1507-8"
       inkscape:connector-curvature="0" />
    <path
       d="m 113.42923,140.83074 c 0.71241,-1.23433 2.20047,-1.88716 3.31198,-1.42123 1.11423,0.4659 1.38963,1.85554 0.67722,3.09347 -0.70521,1.23432 -2.19416,1.88716 -3.30839,1.42123 -1.10791,-0.4623 -1.38602,-1.85554 -0.68081,-3.09347 z"
       style="fill:#000000;fill-opacity:1;fill-rule:nonzero;stroke:none;stroke-width:0.1;stroke-miterlimit:8.9830513;stroke-dasharray:none"
       id="path1509-9"
       inkscape:connector-curvature="0" />
    <path
       d="m 120.17601,131.5232 c -3.1883,2.00995 -5.44565,4.02081 -5.04023,4.45421 0.39911,0.46231 3.27678,-0.80362 6.45875,-2.81447 3.18468,-2.00994 5.44204,-4.0208 5.04023,-4.45511 -0.39911,-0.4298 -3.27678,0.80452 -6.45875,2.81537 z"
       style="fill:#000000;fill-opacity:1;fill-rule:nonzero;stroke:none;stroke-width:0.1;stroke-miterlimit:8.9830513;stroke-dasharray:none"
       id="path1511-7"
       inkscape:connector-curvature="0" />
    <path
       d="m 118.84326,126.60577 c 3.95761,0.83613 7.17388,1.82756 7.17388,2.19777 0,0.3702 -3.24518,-0.0316 -7.20548,-0.86773 -3.9576,-0.83251 -7.17116,-1.82394 -7.17116,-2.19416 0.0315,-0.3702 3.24517,0.0317 7.20276,0.86412 z"
       style="fill:#000000;fill-opacity:1;fill-rule:nonzero;stroke:none;stroke-width:0.1;stroke-miterlimit:8.9830513;stroke-dasharray:none"
       id="path1513-7"
       inkscape:connector-curvature="0" />
    <path
       d="m 125.12142,129.48435 c -0.52551,-0.62121 -0.55711,-1.36163 -0.0316,-1.67224 0.4939,-0.307 1.33274,-0.0596 1.85825,0.52551 0.52551,0.62122 0.55441,1.36164 0.0289,1.67225 -0.52551,0.307 -1.33003,0.0913 -1.85555,-0.52552 z"
       style="fill:#000000;fill-opacity:1;fill-rule:nonzero;stroke:none;stroke-width:0.1;stroke-miterlimit:8.9830513;stroke-dasharray:none"
       id="path1515-6"
       inkscape:connector-curvature="0" />
    <path
       d="m 112.69152,135.82211 c 0.71242,-1.23794 2.19415,-1.88625 3.30838,-1.42123 1.11153,0.46231 1.39324,1.85555 0.68082,3.08987 -0.71243,1.23793 -2.19686,1.88715 -3.30839,1.42484 -1.08624,-0.43341 -1.39324,-1.82665 -0.68081,-3.09348 z"
       style="fill:#000000;fill-opacity:1;fill-rule:nonzero;stroke:none;stroke-width:0.1;stroke-miterlimit:8.9830513;stroke-dasharray:none"
       id="path1517-4"
       inkscape:connector-curvature="0" />
    <path
       d="m 84.609102,143.0601 c 3.251489,1.91513 5.565739,3.8655 5.195525,4.32781 -0.366588,0.46591 -3.30477,-0.71243 -6.557169,-2.62757 -3.241559,-1.91875 -5.565734,-3.8655 -5.195527,-4.33141 0.405421,-0.46231 3.343596,0.71241 6.557171,2.63117 z"
       style="fill:#000000;fill-opacity:1;fill-rule:nonzero;stroke:none;stroke-width:0.1;stroke-miterlimit:8.9830513;stroke-dasharray:none"
       id="path1519-3"
       inkscape:connector-curvature="0" />
    <path
       d="m 85.787445,138.11197 c -3.961214,0.95893 -7.143184,2.03794 -7.110678,2.38016 0.02438,0.3702 3.21267,-0.1228 7.170267,-1.08262 3.957593,-0.95893 7.142277,-2.04246 7.11067,-2.38107 0,-0.34221 -3.20996,0.1237 -7.170259,1.08353 z"
       style="fill:#000000;fill-opacity:1;fill-rule:nonzero;stroke:none;stroke-width:0.1;stroke-miterlimit:8.9830513;stroke-dasharray:none"
       id="path1521-0"
       inkscape:connector-curvature="0" />
    <path
       d="m 79.600478,141.17295 c 0.493909,-0.62032 0.493909,-1.39324 0,-1.67135 -0.49391,-0.307 -1.326422,-0.0289 -1.851936,0.58872 -0.525513,0.61762 -0.497521,1.38963 0,1.66863 0.525514,0.30972 1.358026,0.0632 1.851936,-0.586 z"
       style="fill:#000000;fill-opacity:1;fill-rule:nonzero;stroke:none;stroke-width:0.1;stroke-miterlimit:8.9830513;stroke-dasharray:none"
       id="path1523-3"
       inkscape:connector-curvature="0" />
    <path
       d="m 92.220903,147.14139 c -0.741314,-1.23883 -2.257355,-1.82394 -3.340889,-1.33002 -1.086239,0.4939 -1.361632,1.88714 -0.592326,3.12147 0.77924,1.23793 2.260969,1.82665 3.343594,1.33003 1.082625,-0.49391 1.326422,-1.88353 0.589621,-3.12148 z"
       style="fill:#000000;fill-opacity:1;fill-rule:nonzero;stroke:none;stroke-width:0.1;stroke-miterlimit:8.9830513;stroke-dasharray:none"
       id="path1525-0"
       inkscape:connector-curvature="0" />
    <path
       d="m 83.716993,136.93724 c 3.244273,1.91515 5.562125,3.8655 5.194628,4.32781 -0.370202,0.46501 -3.308384,-0.71242 -6.559877,-2.62757 -3.245176,-1.91875 -5.565738,-3.8664 -5.195532,-4.33141 0.370206,-0.43071 3.308382,0.71243 6.560781,2.63117 z"
       style="fill:#000000;fill-opacity:1;fill-rule:nonzero;stroke:none;stroke-width:0.1;stroke-miterlimit:8.9830513;stroke-dasharray:none"
       id="path1527-9"
       inkscape:connector-curvature="0" />
    <path
       d="m 84.890814,132.01982 c -3.95669,0.95622 -7.142272,2.03884 -7.110669,2.38106 0.02889,0.3702 3.209961,-0.12371 7.171166,-1.08263 3.96031,-0.95983 7.142278,-2.04245 7.110682,-2.38106 -0.02885,-0.37381 -3.245182,0.1237 -7.171179,1.08263 z"
       style="fill:#000000;fill-opacity:1;fill-rule:nonzero;stroke:none;stroke-width:0.1;stroke-miterlimit:8.9830513;stroke-dasharray:none"
       id="path1529-2"
       inkscape:connector-curvature="0" />
    <path
       d="m 78.676767,135.05009 c 0.493007,-0.62123 0.493007,-1.39324 0,-1.67224 -0.497521,-0.27811 -1.333646,-0.028 -1.859159,0.58962 -0.525512,0.6167 -0.49752,1.38962 0,1.66773 0.493911,0.27901 1.361638,0.0641 1.859159,-0.58511 z"
       style="fill:#000000;fill-opacity:1;fill-rule:nonzero;stroke:none;stroke-width:0.1;stroke-miterlimit:8.9830513;stroke-dasharray:none"
       id="path1531-5"
       inkscape:connector-curvature="0" />
    <path
       d="m 91.292676,141.04925 c -0.744019,-1.23794 -2.257355,-1.82666 -3.343594,-1.32914 -1.082626,0.49391 -1.358018,1.88715 -0.588712,3.12148 0.775625,1.23793 2.257355,1.82304 3.33998,1.32913 1.082625,-0.49301 1.332741,-1.91515 0.592326,-3.12147 z"
       style="fill:#000000;fill-opacity:1;fill-rule:nonzero;stroke:none;stroke-width:0.1;stroke-miterlimit:8.9830513;stroke-dasharray:none"
       id="path1533-4"
       inkscape:connector-curvature="0" />
    <path
       d="m 84.298488,131.95661 c 3.248784,1.91875 5.569353,3.8655 5.195537,4.32781 -0.370214,0.46591 -3.308385,-0.70882 -6.553566,-2.62757 -3.245173,-1.91514 -5.565735,-3.8655 -5.191917,-4.3278 0.370207,-0.46591 3.308382,0.7088 6.549946,2.62756 z"
       style="fill:#000000;fill-opacity:1;fill-rule:nonzero;stroke:none;stroke-width:0.1;stroke-miterlimit:8.9830513;stroke-dasharray:none"
       id="path1535-0"
       inkscape:connector-curvature="0" />
    <path
       d="m 85.448839,127.00849 c -3.961211,0.95892 -7.143181,2.04155 -7.117899,2.38016 0.03161,0.37381 3.216282,-0.12281 7.173884,-1.08263 3.961208,-0.95532 7.145881,-2.03884 7.114285,-2.38107 0,-0.3702 -3.213575,0.1237 -7.17027,1.08354 z"
       style="fill:#000000;fill-opacity:1;fill-rule:nonzero;stroke:none;stroke-width:0.1;stroke-miterlimit:8.9830513;stroke-dasharray:none"
       id="path1537-5"
       inkscape:connector-curvature="0" />
    <path
       d="m 79.258263,130.06946 c 0.497521,-0.6167 0.497521,-1.38962 0,-1.66773 -0.49391,-0.31062 -1.326424,-0.0325 -1.851936,0.58511 -0.525513,0.62122 -0.493909,1.39324 0,1.67224 0.525512,0.3061 1.358026,0.0317 1.851936,-0.58962 z"
       style="fill:#000000;fill-opacity:1;fill-rule:nonzero;stroke:none;stroke-width:0.1;stroke-miterlimit:8.9830513;stroke-dasharray:none"
       id="path1539-9"
       inkscape:connector-curvature="0" />
    <path
       d="m 91.882308,136.03791 c -0.744928,-1.23522 -2.264583,-1.82394 -3.340889,-1.33003 -1.08624,0.49752 -1.360735,1.88714 -0.592337,3.12509 0.744029,1.23793 2.257354,1.82304 3.343594,1.33002 1.082636,-0.4939 1.326433,-1.88714 0.589632,-3.12508 z"
       style="fill:#000000;fill-opacity:1;fill-rule:nonzero;stroke:none;stroke-width:0.1;stroke-miterlimit:8.9830513;stroke-dasharray:none"
       id="path1541-4"
       inkscape:connector-curvature="0" />
    <path
       inkscape:connector-curvature="0"
       id="path1545-6"
       style="fill:#ffffff;fill-opacity:1;fill-rule:nonzero;stroke:#010202;stroke-width:0.1;stroke-linecap:butt;stroke-linejoin:miter;stroke-miterlimit:8.9830513;stroke-dasharray:none;stroke-opacity:1"
       d="m 107.77138,169.25265 h 0.95983 l 0.12641,10.57437 z" />
    <path
       inkscape:connector-curvature="0"
       id="path1549-9"
       style="fill:#ffffff;fill-opacity:1;fill-rule:nonzero;stroke:#010202;stroke-width:0.1;stroke-linecap:butt;stroke-linejoin:miter;stroke-miterlimit:8.9830513;stroke-dasharray:none;stroke-opacity:1"
       d="m 100.4422,169.53076 h -0.956218 l 0.155307,10.60687 z" />
    <path
       inkscape:connector-curvature="0"
       id="path1553-2"
       style="fill:#000000;fill-opacity:1;fill-rule:nonzero;stroke:#0000ff;stroke-width:0.1;stroke-linecap:butt;stroke-linejoin:miter;stroke-miterlimit:8.9830513;stroke-dasharray:none;stroke-opacity:1"
       d="m 91.381166,164.51942 c -0.08845,-5.59824 7.086292,-14.84256 11.843904,-14.90577 4.76482,-0.0605 11.81229,8.96894 11.91071,14.56718 0.0885,5.59733 -6.87048,5.65693 -11.62809,5.72105 -4.730516,0.0911 -12.028101,0.21489 -12.126524,-5.38246 z" />
    <path
       inkscape:connector-curvature="0"
       id="path1557-2"
       style="fill:#ffffff;fill-opacity:1;fill-rule:nonzero;stroke:#ffffff;stroke-width:0.1;stroke-linecap:butt;stroke-linejoin:miter;stroke-miterlimit:8.9830513;stroke-dasharray:none;stroke-opacity:1"
       d="m 105.99737,161.98286 c -0.80922,-2.95108 0.45879,-5.86209 2.81456,-6.50033 2.35966,-0.63832 4.91698,1.23438 5.7178,4.18676 0.80081,2.95236 -0.46565,5.85812 -2.81844,6.50039 -2.35966,0.63832 -4.92087,-1.23814 -5.71392,-4.18682" />
    <path
       inkscape:connector-curvature="0"
       id="path1561-4"
       style="fill:#ffffff;fill-opacity:1;fill-rule:nonzero;stroke:#ffffff;stroke-width:0.1;stroke-linecap:butt;stroke-linejoin:miter;stroke-miterlimit:8.9830513;stroke-dasharray:none;stroke-opacity:1"
       d="m 100.13918,162.06454 c -0.715053,2.97339 -3.216654,4.92019 -5.59121,4.34826 -2.373838,-0.57083 -3.724549,-3.44589 -3.008691,-6.41523 0.716115,-2.97408 3.220522,-4.92022 5.59436,-4.34941 2.373557,0.57172 3.724371,3.44296 3.005541,6.41638" />
    <path
       inkscape:connector-curvature="0"
       id="path1565-7"
       style="fill:#000000;fill-opacity:1;fill-rule:nonzero;stroke:#0000ff;stroke-width:0.1;stroke-linecap:butt;stroke-linejoin:miter;stroke-miterlimit:8.9830513;stroke-dasharray:none;stroke-opacity:1"
       d="m 91.938282,130.93719 h 20.873328 l 1.17473,2.68806 -23.130683,-0.0605 z" />
    <path
       inkscape:connector-curvature="0"
       id="path1569-7"
       style="fill:#000000;fill-opacity:1;fill-rule:nonzero;stroke:#0000ff;stroke-width:0.1;stroke-linecap:butt;stroke-linejoin:miter;stroke-miterlimit:8.9830513;stroke-dasharray:none;stroke-opacity:1"
       d="m 115.03736,136.38013 0.74763,1.88624 -0.15529,0.52552 -26.812889,-0.40181 1.17473,-2.47587 z" />
    <path
       inkscape:connector-curvature="0"
       id="path1573-5"
       style="fill:#000000;fill-opacity:1;fill-rule:nonzero;stroke:#0000ff;stroke-width:0.1;stroke-linecap:butt;stroke-linejoin:miter;stroke-miterlimit:8.9830513;stroke-dasharray:none;stroke-opacity:1"
       d="m 88.880014,141.26505 27.056686,0.55712 -0.307,3.12147 -26.812889,-0.89573 z" />
    <path
       d="m 109.13303,156.48053 c 0.5255,-0.64831 1.76344,-0.52551 2.75125,0.27902 0.99415,0.80451 1.51966,3.12147 0.83974,2.62755 -1.70385,-1.26954 -4.11651,-2.25735 -3.59099,-2.90657 z"
       style="fill:#010202;fill-opacity:1;fill-rule:nonzero;stroke:none;stroke-width:0.1;stroke-miterlimit:8.9830513;stroke-dasharray:none"
       id="path1575-4"
       inkscape:connector-curvature="0" />
    <path
       d="m 95.620482,156.85074 c 0.525521,-0.64831 1.763453,-0.52551 2.751268,0.27901 0.987816,0.80452 1.513337,3.12147 0.832509,2.62757 -1.731834,-1.29754 -4.1129,-2.25737 -3.583777,-2.90658 z"
       style="fill:#010202;fill-opacity:1;fill-rule:nonzero;stroke:none;stroke-width:0.1;stroke-miterlimit:8.9830513;stroke-dasharray:none"
       id="path1577-8"
       inkscape:connector-curvature="0" />
    <path
       d="m 61.449526,171.93981 c -0.09481,0.12732 -0.183297,0.18692 -0.281718,0.27901 -0.08849,0.0632 -0.211289,0.12371 -0.338604,0.12371 -0.123702,0.0316 -0.243794,0.0316 -0.370205,0 -0.123704,-0.0289 -0.243795,-0.0605 -0.342217,-0.1517 -0.08849,-0.0958 -0.183297,-0.15531 -0.243794,-0.27901 -0.0632,-0.0948 -0.122799,-0.21851 -0.122799,-0.34221 -0.03251,-0.12371 -0.03251,-0.2465 0,-0.37021 0.02799,-0.1237 0.05959,-0.24651 0.154402,-0.3386 l 1.820332,-2.63118 0.49391,0.34222 -1.78873,2.56435 c -0.09481,0.12642 -0.126411,0.21851 -0.09481,0.34222 0.03161,0.12279 0.0632,0.18691 0.151694,0.24651 0.09842,0.0632 0.186909,0.0922 0.282621,0.0632 0.09119,-0.0316 0.186909,-0.0948 0.274495,-0.21851 l 1.798661,-2.56437 0.49391,0.33861 z"
       style="fill:#010202;fill-opacity:1;fill-rule:nonzero;stroke:none;stroke-width:0.1;stroke-miterlimit:8.9830513;stroke-dasharray:none"
       id="path1579-1"
       inkscape:connector-curvature="0" />
    <path
       d="m 65.438726,170.73709 0.497522,0.307 -0.560728,2.59957 1.30114,-2.10566 0.493911,0.31062 -2.165257,3.52689 -0.462307,-0.27901 0.525512,-2.59867 -1.30114,2.10205 -0.493909,-0.307 z"
       style="fill:#010202;fill-opacity:1;fill-rule:nonzero;stroke:none;stroke-width:0.1;stroke-miterlimit:8.9830513;stroke-dasharray:none"
       id="path1581-2"
       inkscape:connector-curvature="0" />
    <path
       d="m 70.539449,175.03329 -0.525513,-0.2781 0.0632,-0.12371 c 0.0632,-0.1237 0.09571,-0.2474 0.09571,-0.3386 0,-0.12371 -0.09571,-0.21852 -0.219415,-0.27901 -0.0632,-0.0315 -0.126412,-0.0632 -0.183297,-0.0632 -0.06682,0 -0.1228,0.0316 -0.155306,0.0632 -0.06682,0.0317 -0.09481,0.0605 -0.126412,0.12371 -0.02889,0.0596 -0.05688,0.0921 -0.123703,0.1553 -0.03161,0.0596 -0.0632,0.1237 -0.08849,0.18329 -0.03161,0.0632 -0.03161,0.0949 -0.03161,0.15531 0,0.0632 0,0.0948 0.03161,0.15531 0.02528,0.0632 0.05688,0.0911 0.120092,0.1553 l 0.307,0.37022 c 0.09842,0.0911 0.155307,0.21489 0.186909,0.3106 0.03161,0.0913 0.0632,0.1833 0.0632,0.3061 0,0.0957 -0.03161,0.21942 -0.0632,0.31062 -0.03161,0.1237 -0.08849,0.24741 -0.186909,0.3702 -0.08849,0.1553 -0.183298,0.27902 -0.275398,0.40272 -0.09481,0.1228 -0.218511,0.1869 -0.338603,0.2465 -0.126412,0.0632 -0.250115,0.0948 -0.405421,0.0632 -0.151695,0 -0.307001,-0.0632 -0.462306,-0.15531 -0.126412,-0.0596 -0.218513,-0.1544 -0.306098,-0.2465 -0.09571,-0.092 -0.158919,-0.21489 -0.186909,-0.33861 -0.02889,-0.1237 -0.06411,-0.2501 -0.02889,-0.37381 0,-0.1237 0.05688,-0.2474 0.120091,-0.3702 l 0.09571,-0.1833 0.525512,0.27449 -0.09571,0.15531 c -0.0632,0.0957 -0.0632,0.18691 -0.0632,0.31061 0,0.1237 0.09842,0.1869 0.218512,0.27901 0.09481,0.0596 0.151694,0.0596 0.218512,0.0596 0.0632,0 0.120092,0 0.151695,-0.0596 0.03521,-0.0641 0.09211,-0.0922 0.155306,-0.15531 0.03161,-0.0605 0.09571,-0.1237 0.123703,-0.2158 0.05959,-0.0949 0.09481,-0.18691 0.126412,-0.24651 0.03251,-0.0632 0.03251,-0.12731 0.03251,-0.1869 0,-0.0632 -0.03251,-0.0921 -0.03251,-0.1553 -0.03161,-0.0317 -0.06682,-0.0913 -0.126412,-0.15531 l -0.279009,-0.33861 c -0.186909,-0.21851 -0.246503,-0.40181 -0.246503,-0.62032 0,-0.2158 0.05959,-0.40272 0.183296,-0.61761 0.0632,-0.1237 0.155307,-0.2465 0.281719,-0.37021 0.08849,-0.0922 0.219415,-0.18691 0.342215,-0.2149 0.120091,-0.0641 0.243795,-0.0641 0.402713,-0.0641 0.151693,0 0.278105,0.0641 0.426188,0.1237 0.123704,0.0632 0.253727,0.15531 0.310613,0.24652 0.09481,0.092 0.155306,0.2194 0.186908,0.3422 0.03161,0.1237 0.03161,0.24742 0.03161,0.37112 0,0.1228 -0.03161,0.21489 -0.09119,0.3386 z"
       style="fill:#010202;fill-opacity:1;fill-rule:nonzero;stroke:none;stroke-width:0.1;stroke-miterlimit:8.9830513;stroke-dasharray:none"
       id="path1583-8"
       inkscape:connector-curvature="0" />
    <path
       d="m 72.8564,175.96062 c 0.06682,-0.15441 0.155306,-0.27811 0.253727,-0.37021 0.08849,-0.0911 0.212191,-0.15531 0.338603,-0.18691 0.123704,-0.028 0.243794,-0.0596 0.367497,-0.028 0.126412,0.028 0.246504,0.028 0.345827,0.0922 0.08758,0.0596 0.211289,0.12279 0.306098,0.2149 0.0921,0.0948 0.155307,0.18691 0.219415,0.31061 0.05598,0.12281 0.05598,0.24651 0.05598,0.37021 0,0.12371 -0.02799,0.2781 -0.08849,0.43341 l -0.895719,1.97925 c -0.06682,0.1553 -0.155306,0.27811 -0.281718,0.37021 -0.0921,0.0948 -0.212191,0.15531 -0.338603,0.1869 -0.127315,0.0316 -0.247407,0.0596 -0.370207,0.0316 -0.127315,0 -0.251017,-0.0316 -0.338603,-0.0948 -0.127315,-0.0605 -0.219415,-0.1237 -0.314224,-0.2158 -0.08849,-0.0911 -0.155306,-0.18692 -0.211288,-0.30971 -0.06411,-0.12371 -0.09572,-0.24741 -0.09572,-0.37111 0,-0.1228 0.03161,-0.27811 0.09572,-0.43341 z m -0.370207,2.22575 c -0.05599,0.12731 -0.05599,0.25102 -0.02799,0.34222 0.02799,0.0922 0.126412,0.1553 0.214901,0.2158 0.09571,0.0632 0.18691,0.0632 0.310612,0.0316 0.126413,-0.0316 0.183297,-0.0922 0.250115,-0.2474 l 0.895719,-1.97834 c 0.05688,-0.1237 0.05688,-0.24742 0.03251,-0.34223 -0.03251,-0.0921 -0.127314,-0.15169 -0.219415,-0.21489 -0.09481,-0.0641 -0.183298,-0.0641 -0.306097,-0.0325 -0.09932,0.0325 -0.187812,0.0957 -0.251018,0.2474 z"
       style="fill:#010202;fill-opacity:1;fill-rule:nonzero;stroke:none;stroke-width:0.1;stroke-miterlimit:8.9830513;stroke-dasharray:none"
       id="path1585-9"
       inkscape:connector-curvature="0" />
    <path
       d="m 77.406327,176.85724 0.557116,0.21851 -1.269538,3.30838 1.08624,0.40181 -0.218511,0.55712 -1.643357,-0.62032 z"
       style="fill:#010202;fill-opacity:1;fill-rule:nonzero;stroke:none;stroke-width:0.1;stroke-miterlimit:8.9830513;stroke-dasharray:none"
       id="path1587-3"
       inkscape:connector-curvature="0" />
    <path
       d="m 81.332321,178.28208 0.836125,0.24651 c 0.30971,0.0922 0.525511,0.2474 0.651927,0.4939 0.120086,0.24741 0.120086,0.49391 0.02525,0.83613 l -0.550791,1.85555 c -0.130024,0.3702 -0.281718,0.6167 -0.529125,0.7404 -0.250115,0.12371 -0.525512,0.12371 -0.864115,0.0317 l -0.775628,-0.24651 z m -0.462306,3.58649 0.243794,0.0922 c 0.158918,0.0632 0.281718,0.0315 0.373819,-0.0317 0.09481,-0.0605 0.151694,-0.1833 0.2149,-0.3386 l 0.59233,-1.91875 c 0.05688,-0.15531 0.05688,-0.27901 0,-0.40181 -0.06682,-0.1237 -0.126412,-0.1842 -0.309709,-0.24741 l -0.247406,-0.0913 z"
       style="fill:#010202;fill-opacity:1;fill-rule:nonzero;stroke:none;stroke-width:0.1;stroke-miterlimit:8.9830513;stroke-dasharray:none"
       id="path1589-6"
       inkscape:connector-curvature="0" />
    <path
       d="m 85.628524,179.48841 1.731846,0.40181 -0.123711,0.55712 -1.139509,-0.25012 -0.281723,1.17834 0.994146,0.2149 -0.126416,0.55711 -0.99143,-0.21851 -0.275393,1.17835 1.143123,0.2465 -0.1237,0.58511 -1.731846,-0.40181 z"
       style="fill:#010202;fill-opacity:1;fill-rule:nonzero;stroke:none;stroke-width:0.1;stroke-miterlimit:8.9830513;stroke-dasharray:none"
       id="path1591-8"
       inkscape:connector-curvature="0" />
    <path
       d="m 89.712534,180.29203 0.930932,0.15531 c 0.680816,0.0921 0.95622,0.55441 0.864116,1.35802 -0.02795,0.2474 -0.09484,0.43432 -0.214906,0.58963 -0.123701,0.15439 -0.250106,0.2781 -0.465012,0.33769 l 0.341311,1.95127 -0.620318,-0.0957 -0.275393,-1.82305 -0.342221,-0.0605 -0.281723,1.73184 -0.582392,-0.0948 z m 0.307,1.91514 0.342209,0.0641 c 0.09484,0.0316 0.186914,0 0.250116,0 0.05691,-0.0317 0.120098,-0.0641 0.155307,-0.0957 0.03165,-0.0596 0.0605,-0.1228 0.08845,-0.1833 0.03165,-0.0632 0.03165,-0.15529 0.06319,-0.2781 0.03524,-0.12371 0.03524,-0.18691 0.03524,-0.279 0,-0.0922 0,-0.15531 -0.03524,-0.21491 -0.03154,-0.0641 -0.06319,-0.1237 -0.120086,-0.15531 -0.06678,-0.0316 -0.155307,-0.0632 -0.250116,-0.092 l -0.310614,-0.0317 z"
       style="fill:#010202;fill-opacity:1;fill-rule:nonzero;stroke:none;stroke-width:0.1;stroke-miterlimit:8.9830513;stroke-dasharray:none"
       id="path1593-0"
       inkscape:connector-curvature="0" />
    <path
       d="m 94.164041,180.87805 0.588711,0.0632 -0.338595,4.1129 -0.588723,-0.0641 z"
       style="fill:#010202;fill-opacity:1;fill-rule:nonzero;stroke:none;stroke-width:0.1;stroke-miterlimit:8.9830513;stroke-dasharray:none"
       id="path1595-2"
       inkscape:connector-curvature="0" />
    <path
       d="m 97.320721,181.06495 h 0.557116 l 0.864116,2.50386 0.03524,-2.47225 h 0.582393 l -0.05691,4.14089 h -0.56073 l -0.864116,-2.50477 -0.03154,2.47678 h -0.585108 z"
       style="fill:#010202;fill-opacity:1;fill-rule:nonzero;stroke:none;stroke-width:0.1;stroke-miterlimit:8.9830513;stroke-dasharray:none"
       id="path1597-1"
       inkscape:connector-curvature="0" />
    <path
       d="m 101.96276,182.02387 c 0,-0.1553 0,-0.3097 0.056,-0.43341 0.0668,-0.1237 0.1237,-0.2474 0.22213,-0.34221 0.0884,-0.0922 0.18329,-0.15169 0.30338,-0.21491 0.1237,-0.0605 0.25012,-0.0922 0.34221,-0.0922 0.12371,0 0.25012,0 0.37022,0.0316 0.1237,0.0289 0.21851,0.092 0.33859,0.1517 0.0993,0.0957 0.18691,0.1869 0.25103,0.31061 0.0596,0.1237 0.0911,0.27901 0.1264,0.43341 v 0.2158 l -0.59232,0.0316 v -0.2149 c 0,-0.15531 -0.0605,-0.25102 -0.1237,-0.31062 -0.0875,-0.0632 -0.18692,-0.092 -0.2745,-0.092 -0.12731,0 -0.18781,0.0289 -0.28262,0.1237 -0.0569,0.0596 -0.1201,0.1833 -0.0884,0.307 l 0.12009,2.16527 c 0,0.1553 0.0632,0.2474 0.12371,0.31061 0.0632,0.0596 0.18329,0.0921 0.28171,0.0921 0.0884,0 0.1833,-0.0325 0.27541,-0.1237 0.0632,-0.0632 0.1237,-0.18692 0.0957,-0.31062 l -0.0326,-0.77201 -0.46501,0.0315 -0.028,-0.52551 1.05102,-0.0641 0.0596,1.30205 c 0,0.15169 0,0.307 -0.0596,0.4298 -0.0605,0.1237 -0.12732,0.24741 -0.21581,0.34222 -0.0948,0.0922 -0.1869,0.15531 -0.3097,0.21579 -0.12732,0.0632 -0.25102,0.0913 -0.33861,0.0913 -0.12731,0 -0.25101,0 -0.37471,-0.028 -0.12642,-0.0317 -0.21491,-0.0957 -0.33861,-0.15531 -0.12642,-0.0632 -0.18691,-0.18691 -0.25012,-0.31061 -0.0632,-0.12281 -0.0884,-0.27811 -0.12008,-0.43342 z"
       style="fill:#010202;fill-opacity:1;fill-rule:nonzero;stroke:none;stroke-width:0.1;stroke-miterlimit:8.9830513;stroke-dasharray:none"
       id="path1599-0"
       inkscape:connector-curvature="0" />
    <path
       d="m 111.57367,181.37556 -0.5851,0.0596 v -0.12371 c 0,-0.1228 -0.0605,-0.2465 -0.12371,-0.33859 -0.0596,-0.0949 -0.1869,-0.12642 -0.34221,-0.12642 -0.0884,0 -0.15531,0.0316 -0.1833,0.0632 -0.0596,0.0317 -0.0921,0.0922 -0.0921,0.1237 -0.0315,0.0632 -0.0315,0.1228 -0.0315,0.18691 0,0.0596 0,0.12281 0,0.1833 0,0.0949 0.0315,0.15531 0.0315,0.21851 0,0.0596 0.0326,0.0922 0.0605,0.15531 0.0316,0.028 0.0596,0.0596 0.12642,0.0911 0.0569,0.0325 0.12009,0.0605 0.18691,0.0605 l 0.46231,0.1237 c 0.12008,0.0317 0.24378,0.0948 0.33859,0.15441 0.0922,0.0641 0.15169,0.1237 0.21852,0.21941 0.0605,0.0911 0.0884,0.18329 0.12009,0.3061 0.0352,0.1237 0.0632,0.24741 0.0632,0.40271 0.029,0.18691 0.029,0.34221 0,0.49752 -0.028,0.15169 -0.0632,0.27449 -0.12641,0.40181 -0.0569,0.1237 -0.1553,0.21491 -0.2754,0.2754 -0.1237,0.0632 -0.2781,0.12641 -0.46231,0.1544 -0.15439,0.0325 -0.28171,0 -0.40541,-0.028 -0.1201,-0.0316 -0.24651,-0.0948 -0.33861,-0.1553 -0.0948,-0.0632 -0.18691,-0.18691 -0.25011,-0.2781 -0.0569,-0.12371 -0.0884,-0.24741 -0.1237,-0.37022 l -0.0316,-0.21941 0.59232,-0.0596 0.0316,0.1833 c 0,0.0957 0.0569,0.1869 0.1201,0.279 0.0668,0.0913 0.1869,0.12281 0.3386,0.0913 0.0957,0 0.19052,-0.0279 0.22212,-0.0596 0.0569,-0.0316 0.0885,-0.0921 0.1201,-0.12371 0.0315,-0.0632 0.0315,-0.1237 0.0315,-0.1869 0,-0.0913 0,-0.15531 -0.0315,-0.2465 0,-0.0922 -0.0316,-0.1833 -0.0316,-0.27902 -0.0317,-0.0596 -0.0317,-0.1237 -0.0596,-0.15531 -0.029,-0.0279 -0.0605,-0.0596 -0.12732,-0.0911 -0.0569,-0.0326 -0.12371,-0.0326 -0.1833,-0.0605 l -0.43071,-0.12641 c -0.28171,-0.0605 -0.46862,-0.1833 -0.56072,-0.3386 -0.0875,-0.15531 -0.1833,-0.37112 -0.2149,-0.61762 -0.0315,-0.1553 0,-0.31061 0,-0.43341 0.0279,-0.15531 0.0632,-0.27901 0.1553,-0.3711 0.0596,-0.12281 0.1517,-0.18692 0.28173,-0.27811 0.12008,-0.0641 0.27177,-0.1237 0.42708,-0.15531 0.15531,-0.0316 0.28172,0 0.40181,0.0317 0.12371,0.0316 0.25103,0.0922 0.34222,0.18329 0.092,0.0957 0.1869,0.18691 0.25012,0.27902 0.0569,0.0948 0.0884,0.21851 0.0884,0.34221 z"
       style="fill:#010202;fill-opacity:1;fill-rule:nonzero;stroke:none;stroke-width:0.1;stroke-miterlimit:8.9830513;stroke-dasharray:none"
       id="path1601-5"
       inkscape:connector-curvature="0" />
    <path
       d="m 113.89785,179.89022 0.58601,-0.0632 0.52551,4.08039 -0.58601,0.0957 z"
       style="fill:#010202;fill-opacity:1;fill-rule:nonzero;stroke:none;stroke-width:0.1;stroke-miterlimit:8.9830513;stroke-dasharray:none"
       id="path1603-1"
       inkscape:connector-curvature="0" />
    <path
       d="m 117.02294,179.45681 0.5544,-0.0921 1.26592,2.31695 -0.3702,-2.47226 0.58511,-0.0911 0.64921,4.08039 -0.55712,0.0922 -1.26321,-2.31785 0.3702,2.44064 -0.58872,0.0922 z"
       style="fill:#010202;fill-opacity:1;fill-rule:nonzero;stroke:none;stroke-width:0.1;stroke-miterlimit:8.9830513;stroke-dasharray:none"
       id="path1605-1"
       inkscape:connector-curvature="0" />
    <path
       d="m 123.94669,181.52726 c 0.0316,0.1228 0.0316,0.25011 0,0.37381 -0.0315,0.1228 -0.0632,0.2465 -0.15169,0.33861 -0.0668,0.0911 -0.15531,0.18691 -0.25373,0.2465 -0.0884,0.0632 -0.2149,0.1237 -0.3386,0.15531 -0.12009,0.0316 -0.2149,0.0316 -0.3386,0.0316 -0.12009,0 -0.25012,-0.0316 -0.34221,-0.0948 -0.0885,-0.0605 -0.1833,-0.1517 -0.27541,-0.24742 -0.0948,-0.1237 -0.15439,-0.2465 -0.1833,-0.4298 l -0.40542,-2.22936 c -0.0316,-0.1237 -0.0316,-0.24741 0,-0.3702 0.0316,-0.12371 0.0632,-0.24741 0.12371,-0.33861 0.0596,-0.0957 0.15531,-0.18691 0.25012,-0.24741 0.0884,-0.0632 0.21489,-0.1264 0.3702,-0.15531 0.1201,-0.0317 0.2438,-0.0317 0.3702,0 0.12371,0.0289 0.2438,0.0605 0.34222,0.15531 0.0884,0.0605 0.1842,0.15169 0.2438,0.2754 0.0632,0.12732 0.12732,0.25012 0.15531,0.37382 l 0.028,0.2149 -0.5824,0.12371 -0.0316,-0.1833 c -0.0316,-0.12732 -0.0668,-0.21851 -0.15531,-0.27901 -0.0948,-0.0632 -0.18328,-0.0948 -0.28171,-0.0632 -0.15169,0.0317 -0.24379,0.0922 -0.2754,0.18691 -0.0315,0.0921 -0.0315,0.2149 0,0.33861 l 0.3991,2.07406 c 0.0316,0.1237 0.0632,0.21489 0.13003,0.27539 0.0569,0.0632 0.1517,0.0948 0.30339,0.0632 0.0352,0 0.092,-0.0317 0.1237,-0.0317 0.0316,-0.0316 0.0632,-0.0605 0.0984,-0.0922 0.0289,-0.0315 0.0569,-0.0911 0.0569,-0.1553 0,-0.0596 0,-0.1228 0,-0.2149 l -0.028,-0.18691 0.58511,-0.12371 z"
       style="fill:#010202;fill-opacity:1;fill-rule:nonzero;stroke:none;stroke-width:0.1;stroke-miterlimit:8.9830513;stroke-dasharray:none"
       id="path1607-0"
       inkscape:connector-curvature="0" />
    <path
       d="m 125.74265,177.88028 1.73094,-0.37112 0.12371,0.5544 -1.14584,0.25012 0.2465,1.17473 0.98782,-0.21851 0.12731,0.55712 -0.99143,0.21851 0.25012,1.17473 1.13952,-0.2474 0.12731,0.586 -1.73184,0.3702 z"
       style="fill:#010202;fill-opacity:1;fill-rule:nonzero;stroke:none;stroke-width:0.1;stroke-miterlimit:8.9830513;stroke-dasharray:none"
       id="path1609-8"
       inkscape:connector-curvature="0" />
    <path
       d="m 133.65694,179.57961 0.43071,-2.22575 c 0.0317,-0.1228 0.0317,-0.21851 0,-0.27811 0,-0.0632 -0.0289,-0.15531 -0.0569,-0.27901 0,-0.0632 -0.0352,-0.0911 -0.0668,-0.15531 -0.0316,-0.0596 -0.0316,-0.0913 -0.0632,-0.1228 -0.0252,-0.0317 -0.0569,-0.0605 -0.1237,-0.0922 -0.028,-0.0316 -0.0885,0 -0.1833,0 -0.0922,0.0315 -0.15531,0.0605 -0.18691,0.1237 -0.028,0.0596 -0.028,0.15531 0,0.24651 l 0.0948,0.31061 -0.55712,0.15169 -0.0911,-0.307 c -0.0288,-0.1237 -0.0641,-0.2465 -0.0288,-0.34222 0,-0.12279 0.0569,-0.21489 0.0884,-0.33859 0.0315,-0.12281 0.12732,-0.18692 0.2149,-0.27811 0.0957,-0.0921 0.19052,-0.1237 0.31061,-0.15531 0.15531,-0.0317 0.28171,-0.0605 0.40543,-0.0317 0.12008,0.0317 0.21489,0.0632 0.33859,0.15441 0.0922,0.0641 0.18692,0.1553 0.25103,0.279 0.056,0.1237 0.1228,0.21851 0.15169,0.37021 0.028,0.0957 0.0596,0.18691 0.0596,0.24741 0,0.0632 0.0316,0.12641 0.0316,0.1869 0,0.0632 0,0.1228 0,0.18691 0,0.0596 -0.0316,0.15531 -0.0316,0.24651 l -0.3386,1.85554 1.01943,-0.31061 0.1553,0.55711 -1.70025,0.49392 z"
       style="fill:#010202;fill-opacity:1;fill-rule:nonzero;stroke:none;stroke-width:0.1;stroke-miterlimit:8.9830513;stroke-dasharray:none"
       id="path1611-5"
       inkscape:connector-curvature="0" />
    <path
       d="m 136.93372,175.71412 c -0.0632,-0.12371 -0.0632,-0.24651 -0.0632,-0.37022 0,-0.1237 0.0317,-0.21489 0.0949,-0.34221 0.0641,-0.0922 0.1237,-0.1833 0.21851,-0.2465 0.0884,-0.0605 0.18419,-0.12371 0.31061,-0.15531 0.1201,-0.0288 0.2149,-0.0605 0.33861,-0.0605 0.12008,0 0.21489,0.0317 0.307,0.0605 0.0948,0.0317 0.1833,0.12641 0.28262,0.18691 0.0875,0.0632 0.15079,0.18691 0.17968,0.34222 l 0.80724,2.28535 c 0.0569,0.1237 0.0569,0.2465 0.0569,0.37381 0,0.1237 -0.0252,0.2149 -0.0922,0.33861 -0.0596,0.0913 -0.12008,0.1869 -0.21489,0.2465 -0.0884,0.0641 -0.18692,0.1237 -0.31062,0.15531 -0.12009,0.0316 -0.2149,0.0605 -0.3386,0.0605 -0.12009,0 -0.21851,-0.0288 -0.307,-0.0605 -0.0949,-0.0317 -0.18691,-0.12281 -0.28171,-0.18692 -0.0884,-0.0911 -0.15531,-0.1833 -0.18692,-0.3386 z m 1.36164,2.07405 c 0.028,0.0922 0.0948,0.1237 0.15169,0.1833 0.0632,0.0315 0.15531,0.0315 0.21851,0 0.0948,-0.0317 0.1237,-0.0913 0.15531,-0.15531 0.0279,-0.0596 0.0279,-0.1553 0,-0.2149 l -0.80091,-2.28895 c -0.0352,-0.0922 -0.0984,-0.12371 -0.15531,-0.1833 -0.0668,-0.0325 -0.15531,-0.0325 -0.22213,0 -0.0875,0.028 -0.12008,0.0913 -0.14807,0.15169 -0.0352,0.0632 -0.0352,0.1544 0,0.21851 z"
       style="fill:#010202;fill-opacity:1;fill-rule:nonzero;stroke:none;stroke-width:0.1;stroke-miterlimit:8.9830513;stroke-dasharray:none"
       id="path1613-0"
       inkscape:connector-curvature="0" />
    <path
       d="m 140.89132,174.22967 c -0.0605,-0.1237 -0.0884,-0.2474 -0.0884,-0.3711 0,-0.1228 0.0279,-0.21491 0.0569,-0.33861 0.0317,-0.1228 0.0948,-0.18691 0.18691,-0.2781 0.0948,-0.0958 0.18691,-0.15531 0.28172,-0.18692 0.0884,-0.0316 0.2158,-0.0605 0.3386,-0.0605 0.12009,0 0.21851,0 0.34221,0.0605 0.0884,0.0317 0.21491,0.0913 0.27541,0.18692 0.0948,0.0911 0.1553,0.18329 0.21489,0.30699 l 0.96344,2.22847 c 0.056,0.1237 0.0875,0.24741 0.0875,0.37111 0,0.1228 -0.0317,0.2149 -0.0596,0.33861 -0.028,0.0948 -0.092,0.1869 -0.18691,0.27809 -0.0921,0.0922 -0.17968,0.15531 -0.279,0.18692 -0.0875,0.0316 -0.21491,0.0605 -0.33861,0.0605 -0.1201,0 -0.21851,0 -0.33861,-0.0605 -0.0948,-0.0317 -0.2185,-0.0948 -0.2781,-0.18692 -0.0958,-0.0913 -0.15531,-0.1833 -0.21581,-0.307 z m 1.48805,1.97835 c 0.0315,0.0948 0.0884,0.12371 0.15531,0.15531 0.0569,0.0317 0.15169,0.0317 0.21489,0 0.0884,-0.0317 0.1237,-0.0922 0.15531,-0.15531 0.0326,-0.0596 0.0326,-0.15169 0,-0.2149 l -0.96254,-2.22576 c -0.0315,-0.0957 -0.0884,-0.1237 -0.15531,-0.1553 -0.056,-0.0315 -0.15531,-0.0315 -0.21489,0 -0.0922,0.0316 -0.1237,0.0912 -0.15531,0.1553 -0.0317,0.0596 -0.0317,0.15531 0,0.21491 z"
       style="fill:#010202;fill-opacity:1;fill-rule:nonzero;stroke:none;stroke-width:0.1;stroke-miterlimit:8.9830513;stroke-dasharray:none"
       id="path1615-6"
       inkscape:connector-curvature="0" />
    <path
       d="m 145.77623,172.96285 c 0.15531,-0.0948 0.25012,-0.15531 0.31062,-0.21851 0.0317,-0.0596 0.0317,-0.1833 -0.028,-0.307 l -0.25102,-0.46502 c -0.0317,-0.0605 -0.0875,-0.1237 -0.15169,-0.15531 -0.0632,-0.0289 -0.15531,-0.0289 -0.21851,0.0316 -0.0884,0.0632 -0.15531,0.1237 -0.15531,0.1869 0,0.0596 0,0.15531 0.0353,0.1833 l 0.15169,0.31062 -0.52551,0.27811 -0.15169,-0.30972 c -0.0668,-0.0922 -0.0984,-0.21579 -0.0984,-0.3386 0,-0.12371 0,-0.21941 0.0317,-0.34222 0.0315,-0.0922 0.0948,-0.2158 0.1553,-0.307 0.0632,-0.0957 0.15531,-0.1553 0.28171,-0.2185 0.15531,-0.0605 0.27541,-0.0922 0.39911,-0.0922 0.12642,0 0.21489,0.0317 0.31332,0.0632 0.0569,0.0288 0.0884,0.0605 0.15169,0.0922 0.0605,0.0317 0.0922,0.0596 0.1201,0.12371 0.0352,0.0596 0.0993,0.12279 0.1553,0.1869 0.0668,0.0596 0.0984,0.1833 0.15531,0.2745 0.0668,0.12731 0.12732,0.25101 0.15531,0.31061 0.0316,0.0922 0.0632,0.15531 0.0632,0.21489 0,0.0641 0,0.12732 -0.0316,0.18692 -0.0317,0.0641 -0.0569,0.1237 -0.12009,0.2158 0.12009,0 0.18329,0.0317 0.24379,0.0632 0.0632,0.0317 0.12641,0.0632 0.18691,0.1237 0.0596,0.0632 0.0948,0.12281 0.15169,0.18692 0.0632,0.0596 0.0948,0.1833 0.15802,0.307 0.0605,0.1228 0.12371,0.21851 0.1553,0.30971 0.0326,0.0922 0.0605,0.1553 0.0885,0.2158 0.0316,0.0632 0.0316,0.1228 0.0316,0.1553 0,0.0632 0,0.0949 0,0.15441 -0.0316,0.1237 -0.0596,0.2474 -0.1201,0.37111 -0.0632,0.12279 -0.1869,0.21851 -0.33859,0.30971 -0.0984,0.0317 -0.18692,0.0605 -0.28173,0.0922 -0.0921,0.0315 -0.21489,0.0315 -0.31061,0 -0.0884,-0.028 -0.21489,-0.0605 -0.307,-0.15531 -0.0948,-0.0596 -0.1869,-0.1833 -0.25011,-0.33861 l -0.15531,-0.31061 0.52552,-0.27811 0.15531,0.27811 c 0.0315,0.0957 0.0984,0.1237 0.1869,0.15531 0.0668,0.0317 0.1553,0.0317 0.21851,-0.0316 0.0922,-0.028 0.12009,-0.0922 0.1517,-0.18329 0.0352,-0.0632 0,-0.15531 -0.0316,-0.24741 l -0.27179,-0.52551 c -0.0352,-0.0632 -0.0668,-0.12281 -0.0984,-0.15441 -0.0253,-0.0325 -0.0569,-0.0641 -0.12372,-0.0641 -0.0315,0 -0.0884,0 -0.1553,0 -0.0596,0.0315 -0.12009,0.0641 -0.2149,0.0957 z"
       style="fill:#010202;fill-opacity:1;fill-rule:nonzero;stroke:none;stroke-width:0.1;stroke-miterlimit:8.9830513;stroke-dasharray:none"
       id="path1617-4"
       inkscape:connector-curvature="0" />
    <path
       d="M 81.889437,65.501843 28.669099,56.222308 c -3.463688,5.350832 -6.307054,11.103485 -8.444319,17.163126 -0.4298,1.206336 -0.800911,2.412661 -1.171116,3.618998 -0.281719,0.927318 -0.525513,1.854648 -0.775628,2.782864 -1.700241,6.493068 -2.599572,13.265132 -2.599572,20.224114 0,15.89721 4.670019,30.77047 12.774832,43.4505 l 53.961654,-11.2579 c 15.124292,-3.15397 30.86257,-3.15397 45.98325,0 l 52.35622,10.91568 c 7.9784,-12.61591 12.55723,-27.33478 12.55723,-43.10828 0,-16.016393 -4.73052,-30.985379 -12.96264,-43.7259 l -51.4569,9.121523 c -15.51978,2.782875 -31.47658,2.814471 -47.002673,0.09484 z"
       style="fill:#ffffff;fill-opacity:1;fill-rule:nonzero;stroke:none;stroke-width:0.1;stroke-miterlimit:8.9830513;stroke-dasharray:none"
       id="path1619-6"
       inkscape:connector-curvature="0" />
    <path
       d="m 42.308047,63.244488 c 0.186909,0 0.402712,0.215805 0.677206,0.677202 v 11.01229 c 0,0.183299 -0.2149,0.401809 -0.677206,0.64922 H 29.007702 v 14.965371 h 11.318385 c 0.186909,0 0.40181,0.21851 0.652828,0.649209 v 10.85609 c 0,0.18329 -0.215803,0.4018 -0.652828,0.6492 H 29.007702 v 14.96538 h 13.300345 c 0.186909,0 0.402712,0.21852 0.677206,0.65283 v 11.03937 c 0,0.1517 -0.2149,0.37021 -0.677206,0.64922 H 17.62882 c -0.744025,0 -1.142222,-0.49752 -1.142222,-1.45374 V 64.757824 c 0,-0.987827 0.398197,-1.513336 1.142222,-1.513336 z"
       style="fill:#000000;fill-opacity:1;fill-rule:nonzero;stroke:#0000ff;stroke-width:0.1;stroke-opacity:1;stroke-miterlimit:8.9830513;stroke-dasharray:none"
       id="path1621-2"
       inkscape:connector-curvature="0" />
    <path
       d="m 62.747958,68.715418 c 0.151694,0 0.338603,0.186913 0.588718,0.621227 v 6.027137 c 0,0.279007 0.06411,0.46592 0.151694,0.46592 l -0.151694,0.740416 v 45.337642 c 0,0.21581 0.06411,0.46231 0.151694,0.61762 -0.08758,0.1553 -0.151694,0.3386 -0.151694,0.58872 v 5.04022 c 0,0.12371 -0.186909,0.307 -0.588718,0.58601 h -9.46013 c -0.680818,0 -1.022131,-0.4623 -1.022131,-1.33003 V 70.07705 c 0,-0.895712 0.341313,-1.361632 1.022131,-1.361632 z"
       style="fill:#000000;fill-opacity:1;fill-rule:nonzero;stroke:#0000ff;stroke-width:0.1;stroke-opacity:1;stroke-miterlimit:8.9830513;stroke-dasharray:none"
       id="path1623-5"
       inkscape:connector-curvature="0" />
    <path
       d="m 83.032563,69.519934 c 5.692144,0 9.311142,1.39325 10.920185,4.207721 1.389625,1.668631 2.098445,4.574308 2.098445,8.814523 v 8.101202 c 0,4.94541 -1.82395,8.257408 -5.474543,9.92514 v 0.1237 c 4.455121,12.92744 7.209992,20.03811 8.257407,23.72031 -0.155307,0.46141 0.218509,0.89572 -0.279007,0.89572 l -10.51025,0.99052 c -0.434314,0 -1.361643,-2.78286 -2.783773,-8.38021 -0.09484,-0.0316 -0.895722,-2.93817 -2.507471,-8.81361 h -0.151697 v 16.2349 c 0,0.64922 -0.338603,0.95892 -0.962537,0.95892 h -8.529195 c -0.651925,0 -0.962537,-0.34131 -0.962537,-0.95892 V 70.510466 c 0,-0.680816 0.338603,-0.990532 0.962537,-0.990532 z m -1.111523,9.773459 v 14.132851 h 0.956216 c 2.257355,0 3.375201,-1.051018 3.375201,-3.216279 v -7.700292 c 0,-2.165261 -0.775625,-3.21628 -2.257355,-3.21628 z"
       style="fill:#000000;fill-opacity:1;fill-rule:nonzero;stroke:#0000ff;stroke-width:0.1;stroke-opacity:1;stroke-miterlimit:8.9830513;stroke-dasharray:none"
       id="path1625-8"
       inkscape:connector-curvature="0" />
    <path
       d="m 114.61027,72.055397 c 5.28402,0 8.624,1.270448 10.04885,3.742698 1.35802,1.887153 2.07406,4.454223 2.07406,7.731001 v 8.1021 c 0,2.782875 -0.80363,4.98063 -2.47949,6.557169 1.64336,1.576539 2.47949,3.741805 2.47949,6.585165 v 8.1012 c 0,5.66144 -2.07406,9.24884 -6.18967,10.79287 -1.20634,0.43431 -3.619,0.64922 -7.20277,0.64922 h -8.35222 c -0.58872,0 -0.89572,-0.30701 -0.89572,-0.89572 V 72.983625 c 0,-0.617614 0.307,-0.928228 0.89572,-0.928228 z m -1.54764,9.001438 v 13.01863 h 1.14222 c 2.32147,0 3.49529,-0.895723 3.49529,-2.723276 v -6.679971 c 0,-2.409047 -0.71243,-3.615383 -2.07044,-3.615383 z m 0,21.243535 V 115.319 h 2.72236 c 1.29483,0 1.91515,-1.14223 1.91515,-3.46369 v -6.18246 c 0,-2.22936 -0.98692,-3.37248 -2.96978,-3.37248 z"
       style="fill:#000000;fill-opacity:1;fill-rule:nonzero;stroke:#0000ff;stroke-width:0.1;stroke-opacity:1;stroke-miterlimit:8.9830513;stroke-dasharray:none"
       id="path1627-6"
       inkscape:connector-curvature="0" />
    <path
       d="M 160.25492,82.013055 V 115.7217 c 0,6.12286 -1.64336,10.14367 -4.89214,11.9676 -1.76345,1.39324 -4.42262,2.04156 -8.01001,2.04156 h -0.86411 c -5.93595,0 -9.79783,-2.56706 -11.52968,-7.67141 -0.50113,-1.48082 -0.74493,-3.02936 -0.74493,-4.6059 V 80.252318 c 0,-5.967547 2.65646,-9.864654 7.97841,-11.6606 1.42484,-0.429802 3.08987,-0.616716 5.04022,-0.616716 6.02805,0 9.98564,2.196857 11.81591,6.524664 0.8009,1.453736 1.20633,3.957604 1.20633,7.513389 z m -15.68501,34.297375 c 0,2.10204 0.80451,3.12147 2.38105,3.12147 h 0.74403 c 1.48805,0 2.22575,-1.42123 2.22575,-4.26821 V 82.633373 c 0,-2.969777 -0.89571,-4.422616 -2.65646,-4.422616 -1.76344,0.186914 -2.65916,1.297532 -2.65916,3.247887 v 34.851786 z"
       style="fill:#000000;fill-opacity:1;fill-rule:nonzero;stroke:#0000ff;stroke-width:0.1;stroke-opacity:1;stroke-miterlimit:8.9830513;stroke-dasharray:none"
       id="path1629-2"
       inkscape:connector-curvature="0" />
    <path
       d="m 195.13108,64.726217 c 0.1869,0 0.43793,0.21851 0.68082,0.712423 v 11.752694 c 0,0.1833 -0.2149,0.433416 -0.68082,0.680828 h -8.0985 v 56.930528 c 0,0.80452 -0.43702,1.23522 -1.23793,1.23522 h -10.88768 c -0.80453,0 -1.23161,-0.4307 -1.23161,-1.23522 V 77.900154 h -8.29172 c -0.46231,-0.123711 -0.68083,-0.64922 -0.68083,-1.576538 v -9.865553 c 0,-0.864116 0.31061,-1.481729 0.86773,-1.759838 h 29.56054 z"
       style="fill:#000000;fill-opacity:1;fill-rule:nonzero;stroke:#0000ff;stroke-width:0.1;stroke-opacity:1;stroke-miterlimit:8.9830513;stroke-dasharray:none"
       id="path1631-8"
       inkscape:connector-curvature="0" />
  </g>
</svg>
