<?xml version="1.0" encoding="UTF-8" standalone="no"?>
<svg
   xmlns:osb="http://www.openswatchbook.org/uri/2009/osb"
   xmlns:dc="http://purl.org/dc/elements/1.1/"
   xmlns:cc="http://creativecommons.org/ns#"
   xmlns:rdf="http://www.w3.org/1999/02/22-rdf-syntax-ns#"
   xmlns:svg="http://www.w3.org/2000/svg"
   xmlns="http://www.w3.org/2000/svg"
   xmlns:sodipodi="http://sodipodi.sourceforge.net/DTD/sodipodi-0.dtd"
   xmlns:inkscape="http://www.inkscape.org/namespaces/inkscape"
   version="1.1"
   id="svg2"
   width="210mm"
   height="297mm"
   viewBox="0 0 793.70079 1122.5197"
   sodipodi:docname="otter.svg"
   inkscape:version="0.92.5 (2060ec1f9f, 2020-04-08)">
  <metadata
     id="metadata8">
    <rdf:RDF>
      <cc:Work
         rdf:about="">
        <dc:format>image/svg+xml</dc:format>
        <dc:type
           rdf:resource="http://purl.org/dc/dcmitype/StillImage" />
        <dc:title />
      </cc:Work>
    </rdf:RDF>
  </metadata>
  <defs
     id="defs6">
    <linearGradient
       id="linearGradient2279"
       osb:paint="solid">
      <stop
         style="stop-color:#000000;stop-opacity:1;"
         offset="0"
         id="stop2277" />
    </linearGradient>
  </defs>
  <sodipodi:namedview
     pagecolor="#ffffff"
     bordercolor="#666666"
     borderopacity="1"
     objecttolerance="10"
     gridtolerance="10"
     guidetolerance="10"
     inkscape:pageopacity="0"
     inkscape:pageshadow="2"
     inkscape:window-width="2416"
     inkscape:window-height="1472"
     id="namedview4"
     showgrid="false"
     inkscape:zoom="2.8748048"
     inkscape:cx="525.02437"
     inkscape:cy="659.99541"
     inkscape:window-x="144"
     inkscape:window-y="54"
     inkscape:window-maximized="1"
     inkscape:current-layer="svg2"
     units="mm"
     inkscape:document-rotation="0" />
  <g
     id="g825"
     transform="matrix(1.5531526,0,0,1.5531526,-287.60274,-264.04567)">
    <path
       style="fill:#000000;fill-opacity:1;stroke:none;stroke-width:0.09715468"
       d="m 473.10901,546.63476 c -7.02875,-7.16581 -6.44751,-6.54229 -6.32029,-6.78 0.0874,-0.16322 0.17222,-0.19897 0.37143,-0.15649 1.12747,0.24045 31.88311,7.6647 32.0521,7.73721 0.21699,0.0931 0.31325,0.48658 0.11903,0.48658 -0.0548,0 -0.14111,0.1093 -0.1919,0.24289 -0.0508,0.13358 -0.12868,0.24288 -0.17308,0.24288 -0.0444,0 -4.93115,0.43702 -10.85944,0.97114 -5.92829,0.53413 -10.90787,0.97133 -11.06573,0.97155 -0.24959,0 -0.76245,-0.48429 -3.93212,-3.71576 z m 14.97902,2.14637 c 5.54389,-0.49641 10.0798,-0.92659 10.0798,-0.95595 0,-0.063 -30.04484,-7.29522 -30.0956,-7.24446 -0.019,0.019 1.99018,2.09842 4.46492,4.62084 l 4.49954,4.58623 0.48577,-0.0521 c 0.26718,-0.0286 5.02168,-0.45821 10.56557,-0.95461 z m 19.3095,-5.08871 -11.41568,-1.07912 -16.85634,-7.84687 c -9.27098,-4.31578 -16.90865,-7.89767 -16.9726,-7.95977 -0.18028,-0.17506 -14.02938,-40.07125 -14.11944,-40.67498 -0.0482,-0.32323 0.15036,-9.93522 0.50262,-24.32792 l 0.58235,-23.79359 3.7901,-10.25913 c 2.08455,-5.64254 3.85889,-10.33566 3.94296,-10.42917 0.19793,-0.22015 0.34359,-0.21478 0.55654,0.0206 0.1654,0.18275 0.15217,0.55328 -0.32352,9.05967 -0.27279,4.87801 -0.51888,9.09864 -0.54686,9.37918 l -0.0509,0.51006 0.41376,10e-4 c 0.22756,0.001 0.47476,0.0401 0.54933,0.0873 0.0913,0.0579 0.79114,3.50411 2.14514,10.56409 l 2.00957,10.47824 2.07122,3.49757 c 1.13918,1.92366 2.14917,3.6094 2.24445,3.7461 0.15659,0.22467 0.19783,0.96126 0.42957,7.67345 0.14098,4.08371 0.29494,7.47144 0.34212,7.52829 0.0472,0.0568 2.71379,6.92075 5.92581,15.25312 3.21201,8.33237 5.85959,15.16933 5.8835,15.19323 0.1071,0.10711 20.73529,5.50264 20.73529,5.42355 0,-0.0694 -5.60052,-11.08306 -7.26254,-14.28206 -0.33705,-0.64875 -0.33926,-0.66076 -0.15865,-0.86266 0.10074,-0.11261 2.07235,-1.88728 4.38135,-3.9437 l 4.19817,-3.73894 2.40043,-3.89943 c 1.32024,-2.14469 2.60073,-4.20547 2.84554,-4.57952 0.47746,-0.72952 0.72781,-0.86609 1.01199,-0.55208 0.15882,0.1755 0.15578,0.27303 -0.0586,1.8745 l -0.22608,1.68938 0.24749,0.0273 c 0.13612,0.015 1.0756,-0.0351 2.08772,-0.11127 1.01212,-0.0762 1.89782,-0.11648 1.96822,-0.0895 0.0704,0.027 0.154,0.15271 0.18577,0.27931 0.0462,0.18404 -0.0707,0.38417 -0.58279,0.9982 l -0.64057,0.76799 -1.94527,7.27353 c -1.06991,4.00044 -1.93381,7.33487 -1.91978,7.40986 0.0151,0.0807 0.79894,0.4208 1.92061,0.83337 l 1.89511,0.69707 3.64135,3.66688 3.64135,3.66688 3.79039,-0.0312 c 3.6837,-0.0303 3.79859,-0.037 4.08185,-0.23773 0.1603,-0.11363 4.26995,-2.5148 9.13254,-5.33594 4.86259,-2.82112 8.9941,-5.22456 9.18112,-5.34094 l 0.34004,-0.21162 9.08396,5.57604 c 4.99618,3.06681 9.15386,5.65065 9.23928,5.74185 0.14314,0.1528 5.72554,16.63255 5.72347,16.89616 -10e-4,0.0643 -0.18673,0.20089 -0.41383,0.30353 -0.2271,0.10264 -5.22207,2.31468 -11.09993,4.91563 -5.87785,2.60095 -10.74519,4.80336 -10.81628,4.89425 -0.0711,0.0909 -0.35528,0.51382 -0.63151,0.93985 l -0.50223,0.77461 -12.19292,1.47614 c -6.7061,0.81188 -12.36779,1.49229 -12.58153,1.51203 -0.21374,0.0197 -5.52567,-0.44972 -11.80429,-1.04322 z m 5.90758,-8.36671 c -2.63467,-4.64211 -4.81768,-8.46148 -4.85113,-8.4875 -0.0658,-0.0512 -11.44676,14.88902 -11.39118,14.95367 0.0363,0.0422 20.95357,2.0287 21.00289,1.9946 0.0164,-0.0113 -2.12591,-3.81865 -4.76058,-8.46077 z m 18.42967,7.0068 c 5.98473,-0.72089 10.94072,-1.32112 11.01333,-1.33386 0.12452,-0.0218 -11.92286,-7.86091 -12.1729,-7.92075 -0.0645,-0.0154 -2.01578,1.97381 -4.33615,4.42054 -2.32037,2.44673 -4.60826,4.85326 -5.0842,5.34781 -0.77047,0.80064 -0.83443,0.89361 -0.58337,0.84809 0.15508,-0.0281 5.17856,-0.64093 11.16329,-1.36183 z m -3.69527,-7.91495 c 4.63812,-4.88931 8.59111,-9.05588 8.78445,-9.25905 l 0.35148,-0.36939 -0.48577,0.21535 c -0.26718,0.11845 -4.42054,1.93451 -9.2297,4.03568 l -8.74392,3.82033 0.0117,0.41421 c 0.0295,1.04732 0.76425,10.08093 0.8181,10.05818 0.0334,-0.0141 3.85558,-4.026 8.4937,-8.91531 z m -9.86562,3.59472 c -0.20815,-2.64503 -0.53325,-6.77654 -0.72245,-9.18112 -0.1892,-2.40458 -0.3712,-4.77636 -0.40445,-5.27064 -0.0333,-0.49427 -0.0968,-0.89868 -0.1411,-0.89868 -0.17808,0 -7.86097,3.43565 -7.83553,3.50391 0.0472,0.12655 9.45056,16.68512 9.46668,16.67002 0.008,-0.008 -0.155,-2.17845 -0.36315,-4.82349 z m -18.38172,-1.26301 c 1.96713,-2.5916 4.46648,-5.88586 5.55412,-7.32058 1.08765,-1.43472 1.89575,-2.5656 1.79579,-2.51307 -0.1,0.0525 -4.02907,1.7886 -8.73136,3.85793 -4.70229,2.06931 -8.56282,3.77448 -8.57897,3.78924 -0.051,0.0466 6.24398,6.94567 6.31554,6.92153 0.0376,-0.0127 1.67775,-2.14345 3.64488,-4.73505 z m -12.17188,-3.36778 c -3.72581,-4.10573 -7.00939,-7.70779 -7.29685,-8.00456 l -0.52264,-0.53959 -7.81856,0.97578 c -4.3002,0.53668 -7.81711,0.9981 -7.81534,1.02536 0.004,0.0637 30.15264,14.08121 30.19546,14.03938 0.0177,-0.0173 -3.01626,-3.39063 -6.74207,-7.49637 z m 59.46686,1.91046 c 2.26831,-3.61415 3.21834,-5.20697 3.11816,-5.22795 -0.11941,-0.025 -17.87692,2.74381 -18.1786,2.83449 -0.0532,0.016 0.38401,0.33944 0.97155,0.7188 0.58752,0.37936 3.23235,2.0901 5.87739,3.80168 2.64503,1.71156 4.84068,3.10267 4.87921,3.09134 0.0385,-0.0113 1.53806,-2.35958 3.33229,-5.21836 z m -51.00744,-4.41194 c 3.75562,-1.65459 5.83966,-2.62197 5.85974,-2.71998 0.0382,-0.18626 -2.04254,-10.74644 -2.11609,-10.73983 -0.0289,0.003 -1.84498,2.93649 -4.03582,6.51978 -2.19084,3.58329 -4.41065,7.21317 -4.93292,8.06641 -0.61978,1.01255 -0.88947,1.53227 -0.77653,1.49642 0.0952,-0.0302 2.7959,-1.21046 6.00162,-2.6228 z m 2.52405,-13.15662 c -0.0361,-0.0379 -12.68494,5.61658 -12.81433,5.7285 -0.0688,0.0595 2.62022,7.59737 3.31697,9.29808 l 0.13277,0.32408 4.6976,-7.65926 c 2.58368,-4.21259 4.68382,-7.67372 4.66699,-7.6914 z m -10.37839,15.06683 c -0.0243,-0.0401 -1.67096,-4.48855 -3.65927,-9.88549 -1.98832,-5.39694 -3.64533,-9.84526 -3.68225,-9.88514 -0.0369,-0.0399 -0.17033,2.45857 -0.29645,5.55213 l -0.22931,5.62465 1.93402,2.13019 c 1.06372,1.17161 2.83028,3.12011 3.9257,4.32999 1.82055,2.01078 2.13671,2.34679 2.00756,2.13367 z m 52.24898,-2.12065 c 4.91779,-0.77895 8.95492,-1.42973 8.97138,-1.4462 0.0762,-0.0762 -10.13958,-5.32908 -10.27396,-5.28286 -0.0526,0.0181 -1.17357,1.16963 -2.49101,2.55894 -1.31744,1.38932 -3.05082,3.21461 -3.85194,4.05621 -0.80113,0.8416 -1.42044,1.53019 -1.37626,1.53019 0.0442,0 4.10398,-0.63733 9.02179,-1.41628 z m -11.5753,-3.17825 c 5.06629,-2.21351 9.20544,-4.06358 9.19811,-4.11127 -0.0137,-0.0891 -12.33406,-6.48795 -12.38519,-6.43256 -0.0275,0.0298 -6.53336,14.48149 -6.62876,14.72472 -0.0354,0.0903 0.0348,0.0858 0.27852,-0.0178 0.17923,-0.0762 4.47102,-1.94957 9.53732,-4.16308 z m -7.17666,-3.74858 c 1.69072,-3.76046 3.06036,-6.85088 3.04364,-6.8676 -0.0167,-0.0167 -1.62526,0.39535 -3.57454,0.91571 -3.38972,0.90487 -3.54534,0.95646 -3.5717,1.18405 -0.0152,0.13088 0.17065,2.7428 0.41291,5.80428 0.24225,3.06149 0.44179,5.68467 0.44342,5.82928 0.002,0.19685 0.0242,0.22632 0.0876,0.11722 0.0466,-0.0802 1.46796,-3.22247 3.15868,-6.98294 z m 31.36084,2.00494 c 1.10806,-1.77345 1.98245,-3.25661 1.94309,-3.29591 -0.064,-0.0639 -7.26243,-3.60872 -14.20256,-6.99398 -1.64649,-0.80312 -2.49797,-1.17397 -2.37021,-1.03231 0.10967,0.1216 2.96058,3.44542 6.33537,7.38626 3.37478,3.94084 6.1683,7.16409 6.2078,7.16277 0.0395,-10e-4 0.97844,-1.45338 2.08651,-3.22683 z m -43.08681,-0.99918 c 3.37976,-1.48897 6.14488,-2.73155 6.1447,-2.76127 -4e-4,-0.0659 -16.23562,-9.25643 -16.27757,-9.21449 -0.0238,0.0238 2.73544,14.11608 2.92032,14.91502 l 0.0502,0.21675 0.50867,-0.22439 c 0.27977,-0.12341 3.27394,-1.44265 6.65371,-2.93162 z m 38.77661,2.99625 c -0.0733,-0.0899 -2.81479,-3.29235 -6.09212,-7.11658 -4.12408,-4.81226 -6.00866,-6.94326 -6.12075,-6.92105 -0.25883,0.0513 -9.96083,2.64208 -9.98483,2.66632 -0.0213,0.0215 22.224,11.52855 22.29485,11.53265 0.0199,0.001 -0.0238,-0.0714 -0.0972,-0.16134 z m -77.74002,-2.70302 c 4.07202,-0.50741 7.45873,-0.92257 7.52602,-0.92257 0.0885,0 0.083,-0.0361 -0.0199,-0.1305 -0.25932,-0.23787 -16.61896,-10.48277 -16.66538,-10.43635 -0.0473,0.0473 0.90433,11.89957 0.98748,12.29924 0.0419,0.20157 0.0868,0.22024 0.40762,0.16962 0.19827,-0.0313 3.69215,-0.47203 7.76417,-0.97944 z m 8.47806,-1.82125 c -0.002,-0.17366 0.0948,-2.70761 0.21447,-5.631 0.11965,-2.92339 0.18722,-5.34556 0.15016,-5.38262 -0.0371,-0.0371 -2.69018,0.88899 -5.89584,2.05789 -3.64751,1.33001 -5.79421,2.15952 -5.73692,2.21681 0.13429,0.13429 11.11244,7.04665 11.19833,7.05099 0.0401,0.002 0.0715,-0.1384 0.0698,-0.31207 z m -18.12005,-4.15336 c -0.17953,-2.16412 -0.37597,-4.59056 -0.43653,-5.39209 -0.0606,-0.80152 -0.16457,-2.02567 -0.23113,-2.72033 -0.17545,-1.83115 -2.3261,-18.50797 -2.3868,-18.50797 -0.0282,0 -0.52546,1.97831 -1.10511,4.39625 -0.57965,2.41794 -1.24774,5.1832 -1.48464,6.14504 l -0.43072,1.74878 3.17608,9.15773 c 1.74684,5.03675 3.18715,9.1464 3.20068,9.13254 0.0135,-0.0138 -0.12229,-1.79583 -0.30183,-3.95995 z m 30.82609,0.55497 c 3.59351,-1.61212 6.53365,-2.955 6.53365,-2.98419 0,-0.0661 -17.18599,-4.61179 -17.22932,-4.55711 -0.0173,0.0219 0.84421,2.41291 1.91452,5.3134 1.57778,4.2757 1.97456,5.26279 2.09676,5.21633 0.0829,-0.0315 3.09088,-1.37633 6.68439,-2.98843 z m 65.97972,-2.02466 c 1.39457,-2.22435 2.56287,-4.11544 2.59625,-4.20243 0.0554,-0.1443 -0.15057,-0.15364 -2.35447,-0.10667 -1.32834,0.0283 -6.26139,0.0966 -10.96233,0.15186 -4.70094,0.0552 -8.55518,0.1088 -8.56499,0.11905 -0.0489,0.0512 16.63514,8.18884 16.68819,8.13972 0.034,-0.0315 1.20279,-1.87717 2.59735,-4.10153 z m -41.37217,3.53422 c 0.009,-0.50333 -0.52752,-7.07969 -0.58303,-7.14308 -0.0563,-0.0643 -6.92631,2.76553 -7.11427,2.93047 -0.0615,0.054 7.45219,4.37139 7.62131,4.37925 0.0401,0.002 0.0743,-0.0731 0.076,-0.16664 z m 10.05238,-5.74904 6.50937,-1.74313 -2.33171,-0.001 c -3.86663,-0.002 -13.74976,0.15226 -13.81264,0.21514 -0.0552,0.0552 0.10097,2.5909 0.22028,3.57576 l 0.0546,0.4511 1.42534,-0.37737 c 0.78394,-0.20755 4.35456,-1.16177 7.93471,-2.1205 z m -18.99151,0.697 c 10e-4,-0.0935 0.19416,-2.20298 0.42873,-4.68771 0.23458,-2.48473 0.41922,-4.52514 0.41032,-4.53424 -0.009,-0.009 -1.88734,1.1572 -4.17432,2.59178 l -4.15815,2.60833 0.41804,0.24469 c 1.40208,0.82066 6.93986,3.94016 7.00028,3.94333 0.0401,0.002 0.0739,-0.0727 0.0751,-0.16618 z m 4.96664,-1.67679 3.07435,-1.29948 -3.12109,-3.18118 c -1.71659,-1.74966 -3.13007,-3.17219 -3.14106,-3.1612 -0.011,0.011 -0.19741,1.94277 -0.41427,4.29284 -0.21686,2.35007 -0.41915,4.45935 -0.44953,4.68728 l -0.0552,0.41441 0.51624,-0.2266 c 0.28393,-0.12462 1.89969,-0.81135 3.59059,-1.52607 z m -46.26863,-8.54296 c -0.17938,-5.34403 -0.3543,-9.68472 -0.38872,-9.64596 -0.13796,0.15531 -4.4002,16.28308 -4.31197,16.31593 0.0522,0.0194 1.18785,0.7269 2.52373,1.57217 1.33588,0.84526 2.44557,1.52277 2.46598,1.50556 0.0204,-0.0172 -0.10965,-4.40367 -0.28902,-9.7477 z m 7.0729,7.61486 c 3.05689,-1.11446 5.54891,-2.03503 5.53781,-2.04571 -0.0573,-0.0552 -11.55457,-3.05971 -11.58644,-3.02784 -0.0484,0.0484 0.1438,6.20838 0.21101,6.76314 0.0322,0.26575 0.093,0.40514 0.1653,0.37865 0.0629,-0.0231 2.61543,-0.95377 5.67232,-2.06824 z m 24.30469,-5.73912 c -0.59999,-3.03865 -1.12264,-5.56217 -1.16145,-5.60781 -0.0876,-0.10299 -2.61519,1.53838 -2.61519,1.69822 0,0.13863 4.78815,9.5138 4.83501,9.46693 0.0179,-0.0179 -0.45838,-2.51868 -1.05837,-5.55734 z m 44.90921,4.83287 4.72336,-0.0593 -1.97169,-4.95489 c -1.08443,-2.72519 -2.0164,-4.94469 -2.07106,-4.93222 -0.10013,0.0229 -17.31213,10.01582 -17.40257,10.10362 -0.0443,0.043 3.20199,0.0125 16.72196,-0.15722 z m -34.50281,-6.52749 c 0.003,-0.092 -10.49004,-3.91229 -10.55817,-3.84415 -0.054,0.0539 1.68268,9.13229 1.78046,9.30747 0.0382,0.0684 8.77513,-5.36951 8.77771,-5.46332 z m -44.69321,-3.86862 c 1.12411,-4.18906 2.04385,-7.66813 2.04385,-7.73127 0,-0.0631 -1.46461,-0.7506 -3.25469,-1.52771 -3.02426,-1.3129 -3.25468,-1.39743 -3.25468,-1.19388 0,0.28893 2.2194,17.70641 2.29627,18.02077 0.0327,0.13358 0.0743,0.19916 0.0924,0.14573 0.0181,-0.0534 0.95274,-3.52457 2.07685,-7.71364 z m 12.86344,7.15108 c -0.31337,-0.33612 -2.5153,-2.72293 -4.89316,-5.30402 -2.37786,-2.58109 -4.3353,-4.63415 -4.34987,-4.56236 -0.0349,0.17172 0.24329,7.95978 0.28546,7.99328 0.0557,0.0443 9.25476,2.46994 9.39477,2.47728 0.0729,0.004 -0.12382,-0.26805 -0.4372,-0.60418 z m -4.76727,-14.03937 c -2.76283,-7.16719 -5.03674,-13.01785 -5.05312,-13.00147 -0.0164,0.0164 0.0899,3.56504 0.23614,7.88591 l 0.26594,7.85611 4.76288,5.16819 c 2.61959,2.8425 4.77383,5.15791 4.78719,5.14535 0.0134,-0.0126 -2.2362,-5.8869 -4.99903,-13.05409 z m 33.63025,6.55365 c 0.25148,-0.95328 0.43771,-1.75275 0.41383,-1.77663 -0.0439,-0.0439 -6.88552,1.4086 -6.95627,1.4768 -0.021,0.0203 0.0227,0.0594 0.0971,0.087 4.47127,1.65745 5.876,2.14384 5.92776,2.05248 0.0332,-0.0585 0.26605,-0.88636 0.51753,-1.83963 z m -49.10688,-4.76848 c 0.80752,-3.35946 1.43304,-6.14282 1.39005,-6.18528 -0.0981,-0.0969 -8.39963,-3.70186 -8.43579,-3.66328 -0.0324,0.0345 5.52124,16.01294 5.55416,15.98002 0.0128,-0.0129 0.68407,-2.77202 1.49158,-6.13146 z m 40.85385,3.70475 c 1.76335,-1.16967 3.24956,-2.16841 3.30268,-2.21944 0.0531,-0.051 -0.44966,0.1 -1.11728,0.33559 -0.66762,0.2356 -2.39429,0.83504 -3.83703,1.3321 -1.44275,0.49704 -2.64312,0.92 -2.66749,0.9399 -0.0244,0.0199 0.1622,0.45189 0.4146,0.96001 0.31669,0.63752 0.49602,0.90131 0.57866,0.85116 0.0659,-0.04 1.5625,-1.02966 3.32586,-2.19932 z m 5.24243,-0.90251 c 1.68536,-0.36264 3.06429,-0.68926 3.06429,-0.72582 0,-0.0366 -0.35323,-0.46491 -0.78495,-0.95188 l -0.78496,-0.88541 -0.50881,0.32549 c -1.65206,1.05681 -4.44639,2.98696 -4.26454,2.94568 0.11808,-0.0268 1.59361,-0.34543 3.27897,-0.70806 z m -2.32779,-2.13026 c 1.65649,-0.5732 3.04491,-1.07243 3.08539,-1.10938 0.081,-0.074 -2.31081,-2.82494 -2.45616,-2.82494 -0.0742,0 -5.87943,5.10561 -6.7014,5.8938 -0.21141,0.20272 -0.0289,0.15838 1.40874,-0.3422 0.9084,-0.31629 3.00694,-1.04408 4.66343,-1.61728 z m 7.28811,-3.19866 c 0.51149,-1.91393 0.91491,-3.49493 0.8965,-3.51334 -0.0658,-0.0658 -2.92996,3.41213 -2.92755,3.55492 0.003,0.18404 1.02972,3.50965 1.07075,3.46862 0.0167,-0.0167 0.44882,-1.59628 0.9603,-3.5102 z m -2.18128,2.59189 c -0.0936,-0.30726 -0.60014,-1.9686 -1.12551,-3.69188 -0.52538,-1.72328 -0.98471,-3.13324 -1.02073,-3.13324 -0.092,0 -1.76122,2.72589 -1.72623,2.81897 0.0262,0.0698 3.99198,4.56479 4.02732,4.56479 0.009,0 -0.0612,-0.25139 -0.15485,-0.55864 z m -43.29424,-11.84078 c -2.01142,-4.37497 -3.69006,-8.01412 -3.73032,-8.087 -0.0512,-0.0927 -1.34729,1.26153 -4.3148,4.50847 -2.33287,2.55254 -4.2195,4.66307 -4.19251,4.69005 0.0767,0.0767 15.83445,6.89905 15.86635,6.86938 0.0156,-0.0145 -1.61731,-3.60593 -3.62872,-7.9809 z m 43.34076,4.13196 c 0.23898,-1.78254 0.42304,-3.27538 0.40902,-3.31745 -0.014,-0.0421 -0.46855,0.64212 -1.01005,1.52041 l -0.98456,1.59689 0.22388,0.68352 c 0.12314,0.37594 0.36583,1.16649 0.53932,1.75678 0.17348,0.5903 0.33173,1.05696 0.35165,1.03704 0.0199,-0.0199 0.23175,-1.49465 0.47074,-3.27719 z m 2.41649,0.99634 c 1.0012,-1.19378 1.8061,-2.18055 1.78868,-2.19283 -0.066,-0.0465 -3.07896,0.18842 -3.13483,0.24448 -0.0323,0.0323 -0.166,0.86301 -0.29723,1.84593 -0.13124,0.98293 -0.26484,1.94016 -0.2969,2.12718 -0.0358,0.20871 -0.0239,0.30252 0.0308,0.24289 0.049,-0.0534 0.90826,-1.07388 1.90946,-2.26765 z M 465.70208,479.9236 c -0.22961,-6.79166 -0.44163,-12.34847 -0.47118,-12.34847 -0.06,0 -3.60514,14.83271 -3.59786,15.05339 0.006,0.1772 4.39645,9.73358 4.44823,9.68181 0.021,-0.0211 -0.14959,-5.59508 -0.37919,-12.38673 z m -12.07968,0.81476 c 2.24428,-2.4527 4.06954,-4.49425 4.05614,-4.53677 -0.0414,-0.13135 -3.89763,-8.51347 -4.08193,-8.8727 l -0.17361,-0.33839 -2.02106,9.01196 c -2.37114,10.57293 -2.15125,9.53914 -1.98809,9.34654 0.0704,-0.0831 1.96428,-2.15793 4.20855,-4.61064 z m -1.16648,-13.34735 c 1.89959,-8.46385 3.44177,-15.40087 3.42704,-15.41559 -0.024,-0.024 -5.96984,7.38774 -6.27047,7.81642 -0.0942,0.13425 -0.17992,2.48459 -0.3588,9.83343 -0.12929,5.31135 -0.25815,10.48768 -0.28637,11.50294 -0.0282,1.01527 -0.0319,1.80222 -0.008,1.74879 0.0237,-0.0534 1.59726,-7.02213 3.49686,-15.48599 z m 10.4361,6.06895 c 1.02003,-4.27098 1.8546,-7.83492 1.8546,-7.91987 0,-0.13905 -0.53478,-0.12173 -5.3678,0.17387 -2.95229,0.18057 -5.37833,0.33762 -5.3912,0.349 -0.0129,0.0114 1.42297,3.16527 3.19076,7.00862 1.76779,3.84336 3.34168,7.26808 3.49754,7.61048 0.15586,0.3424 0.30096,0.60472 0.32244,0.58293 0.0215,-0.0218 0.87363,-3.53407 1.89366,-7.80503 z m -3.45291,-8.65 c 2.93201,-0.18414 5.34059,-0.34776 5.35239,-0.36359 0.0483,-0.0648 -7.77307,-13.17136 -7.82458,-13.11196 -0.0419,0.0483 -2.82606,12.33549 -3.08012,13.59326 -0.0286,0.14178 0.002,0.21833 0.0886,0.21786 0.073,0 2.53169,-0.15142 5.4637,-0.33557 z m -6.46196,-10.5794 c 3.08317,-3.87507 3.30437,-4.17857 3.19338,-4.38146 -0.35306,-0.64535 -6.13527,-10.34306 -6.15515,-10.32318 -0.013,0.013 -0.11248,3.73896 -0.22115,8.27998 -0.10866,4.54102 -0.22146,8.82322 -0.25067,9.51599 -0.0314,0.74401 -0.0175,1.22123 0.0339,1.16586 0.0479,-0.0516 1.57771,-1.9673 3.39967,-4.25719 z m 5.57958,-8.12662 c -0.93572,-4.8893 -1.70743,-8.89699 -1.71491,-8.90598 -0.0243,-0.0292 -6.5999,0.83842 -6.63727,0.87578 -0.0199,0.0199 2.22216,3.84758 4.98247,8.50585 2.76031,4.65825 5.0305,8.45706 5.04488,8.44179 0.0144,-0.0153 -0.73945,-4.02812 -1.67517,-8.91744 z m -5.4201,-9.33634 c 1.33588,-0.16935 2.43707,-0.31391 2.44709,-0.32125 0.0348,-0.0255 0.9148,-15.72211 0.88316,-15.75375 -0.0223,-0.0223 -5.48079,14.66587 -6.07409,16.34458 -0.0241,0.0682 0.0312,0.099 0.13728,0.0763 0.0977,-0.0209 1.27069,-0.17657 2.60656,-0.34592 z m 0.32304,96.09178 c -0.1715,-0.0402 -0.945,-1.17476 -3.21286,-4.71236 -1.79437,-2.79903 -2.97749,-4.73694 -2.96322,-4.85367 0.0168,-0.13769 0.0945,-0.19295 0.26665,-0.18965 0.26725,0.005 14.61555,9.18497 14.6999,9.40479 0.14258,0.37155 0.034,0.38138 -4.33548,0.39282 -2.32601,0.006 -4.33075,-0.0128 -4.45499,-0.0419 z m 7.35931,-0.60254 c 0.0297,-0.0297 -11.48675,-7.4624 -11.97942,-7.73157 -0.31,-0.16936 -0.46761,-0.4356 2.3477,3.96585 l 2.3925,3.74046 0.45852,0.0486 c 0.48523,0.0514 6.72744,0.0299 6.7807,-0.0233 z m 107.16114,-3.57509 c -0.0284,-0.0781 -1.22966,-3.64661 -2.66946,-7.92998 -2.51363,-7.47797 -2.6094,-7.78992 -2.40637,-7.83818 1.54099,-0.36622 12.91704,-2.69303 12.95942,-2.65065 0.0317,0.0317 -1.71745,4.22093 -3.88711,9.30929 -2.16966,5.08836 -3.96807,9.18764 -3.99648,9.10952 z m 1.03742,-0.007 c 0.31589,-0.77493 8.05751,-18.88697 8.08432,-18.91378 0.0536,-0.0536 10.77624,-3.51382 10.80368,-3.48637 0.026,0.026 -0.0629,0.16893 -1.58184,2.54296 -1.9477,3.04412 -5.12416,7.42325 -7.39968,10.20134 -2.32575,2.8394 -5.62979,6.19902 -8.5515,8.69534 -1.20431,1.02897 -1.45544,1.20698 -1.35498,0.96051 z M 454.73968,521.1334 c -0.13358,-0.0246 -0.30201,-0.0933 -0.37429,-0.15266 -0.3139,-0.25802 -4.85133,-5.58206 -4.90432,-5.75454 -0.0345,-0.11241 0.34977,-1.52593 0.93405,-3.43553 1.0115,-3.30591 1.1569,-3.63376 1.46861,-3.31176 0.13599,0.14047 3.45888,12.08397 3.45888,12.4323 0,0.13702 -0.24189,0.34631 -0.3237,0.28008 -0.009,-0.007 -0.12564,-0.0333 -0.25923,-0.0579 z m -1.60693,-6.10065 c -0.77615,-2.82529 -1.4306,-5.1563 -1.45432,-5.18002 -0.0558,-0.0558 -0.019,-0.16781 -0.88019,2.68212 -0.40794,1.35001 -0.72,2.50858 -0.69347,2.5746 0.0672,0.16719 4.36393,5.13543 4.40545,5.09391 0.0185,-0.0185 -0.60132,-2.34532 -1.37747,-5.17061 z m 108.33943,-4.26615 c -2.44368,-4.14531 -3.56772,-6.09725 -3.53184,-6.13314 0.0487,-0.0487 16.70655,4.71506 16.80865,4.80694 0.0395,0.0356 -1.44696,0.38212 -3.30326,0.77016 -1.85631,0.38804 -4.67852,0.97932 -6.27159,1.31397 l -2.89648,0.60844 z m -8.99488,-4.47851 c -4.5687,-2.80578 -8.32149,-5.14481 -8.33953,-5.19784 -0.018,-0.053 0.1817,-0.34725 0.44386,-0.65381 1.28232,-1.49942 3.32477,-4.28625 4.73419,-6.45955 0.37187,-0.57342 0.7076,-1.01019 0.74605,-0.97062 0.0385,0.0396 2.35996,3.98487 5.15887,8.76731 2.79892,4.78244 5.21075,8.90302 5.35964,9.15683 0.14887,0.25382 0.25561,0.46095 0.23717,0.46029 -0.0184,-10e-4 -3.77155,-2.29683 -8.34025,-5.10261 z m 21.36444,-1.04123 c -1.57852,-1.99045 -2.83403,-3.63363 -2.79005,-3.6515 0.13361,-0.0543 17.27391,3.52268 17.19936,3.5893 -0.0946,0.0846 -11.23842,3.68121 -11.40585,3.68121 -0.0734,0 -1.42495,-1.62855 -3.00346,-3.61901 z m -7.13128,0.94397 c -4.70228,-1.35446 -8.60574,-2.47616 -8.67435,-2.49269 -0.11564,-0.0279 6.39183,-8.65253 6.56021,-8.69458 0.0406,-0.0101 2.50956,3.061 5.48647,6.82478 2.97692,3.76377 5.35964,6.83915 5.29493,6.83418 -0.0647,-0.005 -3.96497,-1.11724 -8.66726,-2.47169 z m -84.90934,1.38774 c -0.0266,-0.12022 -0.22035,-1.94552 -0.43047,-4.0562 -0.35591,-3.57504 -0.371,-3.84836 -0.2206,-3.99471 0.14565,-0.14174 0.41332,-0.14765 2.73604,-0.0604 1.41603,0.0532 2.62925,0.14015 2.69604,0.19329 0.0668,0.0531 0.12145,0.16242 0.12145,0.24286 0,0.16486 -4.01412,7.45976 -4.2501,7.72377 -0.22185,0.24819 -0.59274,0.22058 -0.65236,-0.0486 z m 2.35535,-4.16821 c 0.97696,-1.76947 1.76274,-3.23077 1.7462,-3.24731 -0.0794,-0.0794 -4.25148,-0.1581 -4.2542,-0.0802 -0.0105,0.30109 0.63875,6.54813 0.68039,6.54661 0.0282,-10e-4 0.85066,-1.44962 1.82761,-3.21909 z m 95.1451,-1.05574 c -5.0978,-1.06249 -9.29998,-1.9667 -9.3382,-2.00936 -0.0586,-0.0654 -2.80868,-3.53491 -4.37751,-5.52266 l -0.46356,-0.58735 0.87634,-1.14166 c 0.69923,-0.91092 0.86481,-1.18768 0.81922,-1.36932 -0.0314,-0.12521 -0.12658,-0.2543 -0.21147,-0.28687 -0.0849,-0.0326 -1.33045,-0.007 -2.76795,0.0558 -1.4375,0.0633 -2.63148,0.096 -2.65329,0.0728 -0.08,-0.0853 -4.82166,-9.61377 -4.82166,-9.6893 0,-0.0429 0.44518,-0.81913 0.98927,-1.72488 1.76287,-2.93465 3.49337,-6.21438 4.10289,-7.77599 0.27733,-0.71053 0.72862,-2.70848 0.82103,-3.63488 0.0926,-0.92845 0.0195,-2.1652 -0.18072,-3.05884 -0.0556,-0.24826 -0.0799,-0.48576 -0.0539,-0.52779 0.026,-0.042 0.25633,-0.15535 0.51188,-0.25182 1.70975,-0.64537 3.87927,-2.34378 5.97405,-4.67675 1.30985,-1.45881 1.91769,-2.29102 2.45932,-3.36716 0.56351,-1.11957 0.6991,-1.56694 0.53489,-1.7648 -0.24586,-0.29624 -0.47185,-0.15648 -1.13398,0.7013 -2.3483,3.04223 -3.82381,4.67779 -5.29442,5.86871 -1.81251,1.46779 -2.84971,2.05243 -4.303,2.42548 -0.74983,0.19247 -0.97024,0.19925 -5.05879,0.15559 -5.02193,-0.0536 -6.2473,-0.15028 -7.0923,-0.55944 -0.72424,-0.35069 -3.11175,-2.46022 -3.95449,-3.49409 -2.15696,-2.6461 -3.82109,-6.22588 -4.15395,-8.93569 -0.20482,-1.66741 -0.10277,-3.06626 0.30277,-4.15017 0.16265,-0.43471 0.21909,-0.5012 0.36094,-0.42528 0.36584,0.19578 1.60545,1.43253 2.11663,2.11174 0.43955,0.58403 0.56612,0.69702 0.67737,0.60469 0.16797,-0.13941 0.0946,-0.63138 -0.18347,-1.23036 -0.19408,-0.41805 -1.30682,-1.63686 -1.89495,-2.07562 l -0.31695,-0.23643 0.36951,-0.36083 0.36952,-0.36082 1.02104,0.99573 c 0.56158,0.54765 1.22521,1.30932 1.47473,1.69258 0.51697,0.79406 0.60619,0.87233 0.80564,0.7068 0.10247,-0.085 0.12562,-0.21905 0.0812,-0.46985 -0.11182,-0.63101 -0.55367,-1.28404 -1.5281,-2.25848 -0.84869,-0.84869 -0.92968,-0.95845 -0.70714,-0.95845 0.36627,0 1.12427,0.31032 1.67129,0.68422 0.64493,0.44082 2.52944,2.28113 3.39714,3.31749 0.38874,0.4643 0.95585,1.26151 1.26024,1.77159 l 0.55342,0.92739 -0.31104,0.48473 c -0.39874,0.62137 -0.77515,1.68778 -0.77777,2.20353 -10e-4,0.26325 0.0651,0.48136 0.19226,0.6315 l 0.19431,0.22936 0.19496,-0.23016 c 0.10722,-0.12659 0.26587,-0.47635 0.35255,-0.77723 0.0867,-0.3009 0.2807,-0.7924 0.43115,-1.09224 0.25885,-0.51589 0.35505,-0.59832 1.79191,-1.53549 0.8351,-0.54468 1.62448,-1.03868 1.75418,-1.09778 0.1297,-0.0591 0.23583,-0.13893 0.23583,-0.1774 0,-0.10688 -1.57568,-1.4359 -2.20843,-1.86273 -0.8437,-0.56912 -2.69521,-1.65397 -3.5772,-2.09596 -2.8713,-1.43891 -6.91203,-2.76121 -10.77925,-3.5274 -3.88315,-0.76935 -5.84357,-0.97143 -9.95835,-1.02651 l -3.35184,-0.0449 -1.60305,0.9899 c -4.60497,2.84359 -8.045,4.52708 -11.46426,5.61038 -3.23957,1.02638 -7.34161,1.25629 -10.58482,0.59327 -1.22516,-0.25045 -1.75203,-0.42628 -2.62821,-0.87706 -1.88455,-0.96957 -2.90596,-2.54038 -3.36447,-5.17419 -0.22242,-1.27761 -0.14005,-3.07696 0.18295,-3.99652 0.5142,-1.46392 0.74362,-1.80452 2.58348,-3.83543 2.22892,-2.46036 3.02568,-3.76428 4.45384,-7.28878 0.68656,-1.69436 1.39239,-3.02366 2.50195,-4.71201 0.49164,-0.74809 1.00672,-1.53849 1.14464,-1.75646 0.48549,-0.76727 1.84653,-2.09865 2.73442,-2.67484 1.02341,-0.66411 3.08387,-1.62348 4.96789,-2.31309 0.7481,-0.27382 1.70993,-0.6292 2.13741,-0.78973 1.17318,-0.44057 2.2594,-0.59034 4.69797,-0.64782 3.25919,-0.0768 15.57061,0.3471 17.46234,0.60128 4.79843,0.64472 7.64864,1.13224 11.16375,1.90953 8.99911,1.98996 15.41828,4.23173 22.3751,7.81405 3.64514,1.87702 7.55999,4.31251 10.26887,6.38841 0.26718,0.20475 0.72624,0.55228 1.02013,0.77227 2.91087,2.17905 6.45862,5.7531 8.65442,8.7186 1.2351,1.66804 1.56594,2.15353 2.35038,3.44899 2.32471,3.83916 3.83698,7.71469 4.96628,12.72726 2.50794,11.1318 1.04076,23.87093 -4.19688,36.44036 -1.32022,3.16831 -3.15579,6.97722 -4.60825,9.56239 -0.56313,1.0023 -0.65671,1.11909 -0.90934,1.13496 -0.15488,0.01 -4.45252,-0.85161 -9.5503,-1.91409 z m -3.97147,-4.53314 c 0.87369,-0.50783 2.45456,-1.75176 3.14329,-2.47334 0.32457,-0.34005 0.75363,-0.91165 0.95347,-1.27022 0.21386,-0.38373 0.5566,-0.81376 0.83311,-1.04527 0.58997,-0.49395 1.67127,-1.77619 2.27918,-2.70274 0.73795,-1.12475 1.27794,-2.72134 1.20631,-3.56673 -0.0565,-0.66683 -0.29429,-0.49625 -0.54175,0.38862 -0.33809,1.20894 -1.09752,2.64636 -1.96546,3.72015 -0.81367,1.00666 -2.09712,2.35202 -2.24378,2.35202 -0.0488,0 0.0724,-0.25139 0.26929,-0.55864 0.85044,-1.3272 1.2461,-2.82812 1.17384,-4.45295 -0.0319,-0.71811 -0.0908,-1.06726 -0.21061,-1.25018 -0.0915,-0.13958 -0.20809,-0.22795 -0.25917,-0.19638 -0.0519,0.0321 -0.0929,0.65298 -0.0929,1.40581 0,1.93795 -0.28473,2.97523 -1.21561,4.42844 -0.55959,0.87357 -0.72749,1.19524 -0.72749,1.3937 0,0.21766 0.19292,0.30648 0.49445,0.22763 l 0.22173,-0.058 -0.21293,0.29902 c -0.2771,0.38915 -0.92857,0.97091 -2.22345,1.98548 -1.34457,1.05352 -1.34715,1.05488 -1.10605,0.58227 0.35153,-0.68906 0.68614,-2.04689 0.80002,-3.2465 l 0.11066,-1.16552 0.52931,-0.83867 c 1.11637,-1.76881 1.78383,-3.44318 1.48979,-3.73722 -0.17919,-0.17919 -0.39434,0.0369 -0.59,0.59249 -0.24841,0.70543 -1.05718,2.22021 -1.69132,3.16772 -0.51214,0.76523 -2.01037,2.34851 -1.85076,1.95583 0.5629,-1.38489 0.88698,-3.01233 0.77639,-3.89887 -0.0591,-0.47397 -0.04,-0.53281 0.38976,-1.19711 0.60369,-0.93321 1.51506,-2.73199 1.74981,-3.45363 0.33714,-1.03641 0.21493,-2.97261 -0.21474,-3.40229 -0.24807,-0.24806 -0.32863,-0.0385 -0.22605,0.588 0.23245,1.4195 0.0251,2.2853 -1.03468,4.32019 -0.7227,1.38765 -1.47714,2.55075 -2.11115,3.25468 l -0.43752,0.48577 0.24292,-0.77637 c 0.1336,-0.42701 0.30567,-1.07473 0.38239,-1.43939 0.18436,-0.87641 0.17754,-2.61001 -0.0139,-3.54475 -0.1875,-0.9153 -0.47889,-1.61567 -0.63269,-1.52062 -0.12779,0.079 -0.0904,0.53379 0.15524,1.88905 0.29282,1.61538 0.035,3.43169 -0.76588,5.39615 -0.18736,0.45956 -0.31668,0.89803 -0.28738,0.97439 0.14854,0.38709 1.1023,-0.12698 1.92492,-1.03753 l 0.34211,-0.37869 v 0.44158 c 0,0.66832 -0.26151,1.79797 -0.69401,2.99796 -0.55036,1.52698 -0.53058,1.41876 -0.2593,1.41876 0.30974,0 1.03954,-0.46996 1.70461,-1.09769 l 0.53541,-0.50536 -0.0678,0.6315 c -0.12146,1.13172 -0.43684,2.25314 -0.88178,3.13538 -0.45905,0.9102 -0.50904,1.09661 -0.31287,1.1665 0.22418,0.0798 0.54898,-0.0275 1.16301,-0.38445 z m -7.89097,-21.82047 c 0.85493,-0.39106 1.86323,-1.18077 2.94005,-2.3027 1.11981,-1.16671 1.64195,-1.90827 1.9182,-2.72431 0.10554,-0.31176 0.37508,-0.6991 0.82019,-1.17867 0.73538,-0.79228 1.50851,-1.84355 1.84716,-2.51166 0.2518,-0.49678 0.53824,-1.56657 0.53824,-2.01027 0,-0.32367 -0.25915,-0.64596 -0.32585,-0.40525 -0.40535,1.46276 -0.97198,2.60914 -1.79423,3.62995 -0.74134,0.9204 -2.25158,2.42206 -2.63562,2.62065 l -0.31238,0.16154 0.25347,-0.37097 c 0.60861,-0.89077 0.87867,-2.94557 0.38714,-2.94557 -0.13603,0 -0.19445,0.25523 -0.27249,1.19044 -0.0519,0.62148 -0.34721,1.33893 -0.87191,2.11807 -0.26242,0.38966 -0.32207,0.54835 -0.2423,0.64447 0.14985,0.18055 0.54719,0.15465 1.03695,-0.0676 0.23131,-0.10497 0.40619,-0.14902 0.38862,-0.0979 -0.0921,0.26801 -1.5338,1.88885 -2.05408,2.30932 -1.21469,0.98164 -2.5909,1.80693 -2.74919,1.64864 -0.0315,-0.0315 0.0717,-0.22419 0.22949,-0.42811 0.56771,-0.73387 0.96687,-2.11113 0.86388,-2.98069 -0.0543,-0.45866 -0.0291,-0.52683 0.55783,-1.50982 0.70635,-1.18292 1.0865,-1.96227 1.17746,-2.41391 0.15215,-0.75553 -0.22051,-0.27627 -1.60536,2.06454 -0.82005,1.38611 -1.74967,2.79853 -1.80531,2.74288 -0.017,-0.017 0.0365,-0.28852 0.11871,-0.60348 0.0975,-0.37344 0.15529,-1.08174 0.16606,-2.03611 0.014,-1.24342 -0.005,-1.46346 -0.12921,-1.46346 -0.11897,0 -0.15679,0.23188 -0.20598,1.26301 -0.06,1.25783 -0.33164,2.60269 -0.70399,3.48514 -0.22315,0.52888 -0.20863,0.67219 0.0599,0.59063 0.46358,-0.14082 1.06092,-0.72197 1.74655,-1.69921 0.16761,-0.2389 0.16772,-0.23869 0.11284,0.19804 -0.0842,0.67007 -0.3105,1.32703 -0.77645,2.25413 l -0.42488,0.84539 0.20903,0.14642 c 0.26469,0.18539 0.92911,0.11471 1.53749,-0.16357 z m 22.74544,-10.24317 c 0.55717,-0.52116 1.42809,-1.78256 1.7687,-2.56169 0.12679,-0.29003 0.27931,-0.63663 0.33893,-0.77022 0.0837,-0.18751 0.0949,0.0174 0.0492,0.89868 l -0.0592,1.14157 h 0.2222 c 0.37443,0 1.57314,-1.30622 1.97363,-2.15063 0.54423,-1.14748 0.9123,-3.07369 0.6626,-3.46756 -0.0784,-0.12374 -0.14768,0.0651 -0.81288,2.21778 -0.26622,0.86146 -0.77122,1.80633 -1.24622,2.33171 -0.2174,0.24046 -0.36671,0.38062 -0.33178,0.31147 0.11878,-0.23516 0.0533,-2.88245 -0.0919,-3.71188 -0.20199,-1.15442 -1.12874,-3.98335 -1.30494,-3.98335 -0.18429,0 -0.0909,0.81606 0.18401,1.60799 0.33018,0.95108 0.6766,2.37112 0.6766,2.77345 0,0.46671 -0.50634,2.07501 -0.89934,2.85659 -0.2979,0.59246 -0.9796,1.64909 -1.11984,1.73576 -0.0424,0.0262 0.026,-0.35364 0.1519,-0.84408 0.19837,-0.77261 0.22356,-1.06033 0.18863,-2.15469 -0.0456,-1.42767 -0.25401,-2.16054 -0.96002,-3.37522 l -0.38064,-0.65489 0.33653,-1.5311 c 0.46809,-2.12964 0.60434,-3.41355 0.45264,-4.2655 -0.18742,-1.05264 -0.58931,-2.1719 -0.77984,-2.1719 -0.0487,0 0.003,0.25139 0.11387,0.55864 0.16056,0.44319 0.20141,0.77951 0.19769,1.62734 -0.005,1.207 -0.052,1.518 -0.60587,4.03192 -0.21777,0.98855 -0.44297,2.01223 -0.5004,2.27484 -0.12665,0.57894 -0.22957,0.44645 -0.30092,-0.38738 -0.0541,-0.63263 -0.93668,-3.03794 -1.19257,-3.25032 -0.26297,-0.21825 -0.28916,0.1976 -0.0519,0.82321 0.7339,1.93467 0.79746,2.18398 0.86412,3.38935 0.0652,1.17883 0.0661,1.18222 0.30827,1.18222 0.19953,0 0.29645,-0.10541 0.54299,-0.5907 0.16506,-0.32488 0.32973,-0.6965 0.36594,-0.82581 0.0641,-0.22892 0.072,-0.22511 0.30074,0.14489 0.1292,0.209 0.358,0.7555 0.50845,1.21444 0.24186,0.73776 0.27323,0.9751 0.27081,2.04885 -0.003,1.29101 -0.13867,2.00368 -0.59612,3.12949 -0.13113,0.32269 -0.21534,0.64683 -0.18715,0.72029 0.0977,0.25455 0.45662,0.1314 0.94299,-0.32356 z m -82.45442,-17.85759 c 3.42536,-0.44903 7.19902,-1.93379 12.58895,-4.95318 1.41603,-0.79325 2.85878,-1.59416 3.20611,-1.77981 0.34733,-0.18565 0.91568,-0.49646 1.26301,-0.69069 0.90016,-0.50339 2.72426,-1.37909 3.47328,-1.66743 0.46268,-0.1781 0.19001,0.1289 -0.67722,0.76248 l -0.89581,0.65447 0.77437,0.0212 c 4.47069,0.12241 7.97877,0.56684 12.18044,1.54311 2.55356,0.59333 2.79093,0.63317 3.33932,0.56042 0.50003,-0.0663 0.66228,-0.23505 0.4895,-0.50897 -0.0752,-0.11925 -0.0507,-0.17863 0.10598,-0.25641 0.11214,-0.0557 0.21878,-0.20561 0.23701,-0.33324 0.0182,-0.12762 0.11154,-0.3014 0.20739,-0.38619 0.1579,-0.13966 0.32613,-0.61056 0.4562,-1.27695 0.0306,-0.15686 -0.008,-0.29551 -0.10552,-0.37622 -0.19044,-0.15805 -0.1923,-0.38526 -0.005,-0.63265 0.19288,-0.25499 0.17939,-0.47671 -0.0411,-0.67627 -0.11617,-0.10513 -0.16421,-0.24111 -0.13061,-0.36963 0.0339,-0.12966 -0.009,-0.24904 -0.11947,-0.32955 -0.13378,-0.0978 -0.15476,-0.1875 -0.0932,-0.39838 0.0437,-0.14968 0.083,-0.31586 0.0872,-0.3693 0.004,-0.0534 0.0424,-0.15253 0.0848,-0.22022 0.0424,-0.0677 0.0644,-0.22071 0.049,-0.34004 -0.0154,-0.11934 0.009,-0.27629 0.054,-0.34878 0.091,-0.14622 -0.0891,-0.80073 -0.32171,-1.16921 -0.15712,-0.2489 -0.21699,-0.96231 -0.0875,-1.04236 0.0431,-0.0266 0.0783,-0.18076 0.0783,-0.34255 0,-0.23943 -0.0557,-0.3152 -0.2996,-0.40718 -0.29605,-0.11166 -0.29883,-0.11913 -0.23492,-0.63089 0.0485,-0.3885 0.0292,-0.55843 -0.0775,-0.68009 -0.0782,-0.0892 -0.17148,-0.25832 -0.20725,-0.37581 -0.0358,-0.1175 -0.15576,-0.24243 -0.26667,-0.27763 -0.17923,-0.0569 -0.19533,-0.11726 -0.14485,-0.54341 0.0467,-0.39473 0.0232,-0.51302 -0.13344,-0.66963 -0.10462,-0.10463 -0.19022,-0.25191 -0.19022,-0.32732 0,-0.0754 -0.13419,-0.25 -0.2982,-0.38801 -0.22213,-0.18691 -0.28203,-0.30186 -0.23483,-0.4506 0.0358,-0.11282 0.003,-0.29267 -0.0751,-0.41351 -0.0761,-0.1176 -0.1673,-0.33115 -0.20258,-0.47453 -0.0353,-0.14339 -0.15152,-0.28842 -0.25826,-0.3223 -0.14508,-0.046 -0.19409,-0.14706 -0.19409,-0.40005 0,-0.29498 -0.0437,-0.35671 -0.34004,-0.48053 -0.26234,-0.10962 -0.34004,-0.19859 -0.34004,-0.38937 0,-0.13599 -0.1326,-0.41227 -0.29465,-0.61393 -0.1922,-0.23918 -0.27238,-0.42471 -0.2306,-0.5336 0.0391,-0.10194 -0.01,-0.25013 -0.12582,-0.38059 -0.10444,-0.11751 -0.19546,-0.32211 -0.20226,-0.45467 -0.0147,-0.28733 -0.23014,-0.46339 -0.6673,-0.5454 -0.2828,-0.053 -0.30888,-0.0829 -0.2191,-0.25064 0.16169,-0.30213 -0.11726,-0.63474 -0.61454,-0.73278 -0.37846,-0.0746 -0.41887,-0.11116 -0.46322,-0.41896 -0.0407,-0.28268 -0.10358,-0.35501 -0.38862,-0.44712 -0.27726,-0.0896 -0.3409,-0.15915 -0.34473,-0.37671 -0.006,-0.33885 -0.30798,-0.58593 -0.81543,-0.66707 -0.29755,-0.0476 -0.39431,-0.10754 -0.39431,-0.24433 0,-0.23363 -0.18435,-0.3828 -0.5679,-0.45951 -0.23744,-0.0475 -0.30649,-0.11171 -0.30649,-0.2851 0,-0.4084 -0.29196,-0.55317 -1.49788,-0.74275 -0.11487,-0.018 -0.19261,-0.115 -0.20274,-0.25282 -0.0264,-0.35928 -0.26218,-0.50683 -0.9787,-0.61249 -0.36989,-0.0545 -0.81461,-0.12025 -0.98827,-0.14603 -0.27088,-0.0402 -0.31575,-0.086 -0.31575,-0.32204 0,-0.38469 -0.17229,-0.48944 -0.91982,-0.55925 -0.56656,-0.0529 -0.662,-0.0904 -0.73789,-0.29004 -0.11813,-0.31069 -0.3431,-0.38379 -1.64556,-0.53467 -2.61534,-0.30297 -7.50095,-0.0641 -10.4927,0.51303 -3.34541,0.64535 -7.48309,2.59848 -9.37867,4.42706 -0.58485,0.56417 -1.46349,1.69548 -2.49555,3.21319 -0.69085,1.01594 -1.44136,2.48924 -2.21459,4.3474 -1.36467,3.27946 -2.35212,4.89852 -4.23662,6.94656 -1.40551,1.52748 -1.91598,2.23935 -2.21646,3.09101 l -0.14567,0.41289 0.95474,0.94409 c 0.9149,0.90469 1.48583,1.70467 1.74154,2.4402 0.15961,0.45909 0.14333,1.21053 -0.0355,1.64026 -0.20139,0.48386 -0.86184,1.14955 -1.42844,1.43972 -0.25381,0.12999 -0.46148,0.27075 -0.46148,0.31281 0,0.14013 0.62638,0.67401 1.02012,0.86949 2.0746,1.02991 4.44279,1.42143 6.08092,1.00531 0.39595,-0.10058 0.91422,-0.21516 1.1517,-0.25462 0.65463,-0.10877 1.47641,-0.41589 1.7166,-0.64153 0.25662,-0.24108 0.56099,-0.20949 0.60012,0.0623 0.039,0.27093 -0.38146,0.64208 -1.19403,1.054 l -0.68009,0.34475 0.40793,0.003 c 0.22437,0.002 0.91185,-0.0627 1.52774,-0.14349 z m 0.26205,-10.14767 c -0.7955,-0.19792 -1.08045,-0.5535 -1.08045,-1.3483 0,-0.60044 0.44523,-1.31629 1.01741,-1.6358 0.4132,-0.23074 0.36941,-0.29339 -0.24017,-0.34365 -0.29046,-0.0239 -0.34004,-0.0634 -0.34004,-0.27091 0,-0.23496 0.0206,-0.24263 0.63151,-0.2352 0.72706,0.009 1.08404,0.16338 1.70977,0.74016 0.46088,0.42483 0.62052,0.82179 0.62139,1.54521 10e-4,1.02932 -1.19529,1.82816 -2.31942,1.54849 z m 23.52943,-4.14706 c -0.18995,-0.49502 1.70457,-0.87782 5.53237,-1.1179 1.05534,-0.0662 1.9188,-0.15401 1.9188,-0.19515 0,-0.0932 -1.567,-0.58693 -2.86303,-0.90208 -1.32068,-0.32114 -4.04636,-0.73404 -4.84563,-0.73404 -0.55396,0 -0.7549,0.0521 -1.34218,0.34782 -0.61448,0.30945 -0.7068,0.33173 -0.83668,0.20185 -0.0803,-0.0803 -0.12247,-0.20727 -0.0937,-0.28216 0.0837,-0.21818 1.38385,-0.85522 2.64118,-1.29413 0.80411,-0.28071 1.10275,-0.42338 0.97154,-0.46417 -0.5601,-0.17413 -2.58276,-0.56125 -3.20896,-0.61418 -0.78574,-0.0664 -1.07968,-0.2027 -0.98264,-0.45558 0.1205,-0.31402 1.50621,-0.17841 3.87497,0.37924 1.34849,0.31747 1.55809,0.43394 1.51738,0.84329 -0.0285,0.28651 -0.0653,0.31109 -0.73438,0.49013 -0.3874,0.10368 -0.70437,0.2197 -0.70437,0.25781 0,0.0381 0.40166,0.1228 0.89258,0.18815 l 0.89258,0.11884 0.39472,-0.29591 c 0.21709,-0.16276 0.67392,-0.46713 1.01516,-0.67639 l 0.62044,-0.38048 -0.70937,-0.35723 c -0.80508,-0.40544 -2.44654,-0.96615 -3.12706,-1.06821 -0.56525,-0.0848 -0.81131,-0.24988 -0.72144,-0.4841 0.15485,-0.40352 2.20294,0.10335 4.11674,1.01881 1.17726,0.56315 1.19192,0.57421 1.19192,0.89888 0,0.28461 -0.0489,0.35173 -0.36433,0.50015 -0.48246,0.22702 -1.47968,0.86723 -1.48076,0.95066 0,0.0363 0.25054,0.11764 0.55779,0.18078 1.00622,0.20676 3.26442,0.8865 3.92214,1.18059 0.69705,0.31167 0.99509,0.67484 0.74637,0.90947 -0.0827,0.078 -0.96851,0.17432 -2.55539,0.27789 -2.91549,0.19028 -3.92928,0.30315 -4.94395,0.5504 -0.93757,0.22847 -1.21325,0.23421 -1.29279,0.0269 z m -8.74937,-2.23628 c -0.21181,-0.0855 -0.13302,-0.29529 0.27368,-0.72885 0.91351,-0.97389 1.01399,-2.02562 0.26654,-2.79013 -0.57412,-0.58722 -0.96351,-0.71764 -2.01449,-0.67472 -1.18011,0.0482 -1.61055,0.24639 -2.52823,1.16406 -0.71604,0.71605 -1.00321,0.81786 -1.05156,0.37283 -0.0854,-0.78568 2.43454,-2.71113 4.24588,-3.24427 1.61875,-0.47645 2.85694,0.0714 3.3545,1.48424 0.3706,1.05232 -0.0517,2.41663 -1.09253,3.52932 -0.35254,0.37691 -1.17639,0.97478 -1.30107,0.9442 -0.0172,-0.004 -0.0859,-0.0297 -0.15272,-0.0567 z m -2.36276,-8.05621 c -0.0898,-0.10821 -0.0987,-0.19986 -0.03,-0.30882 0.12018,-0.19052 1.45679,-0.87366 2.54558,-1.30105 l 0.80864,-0.31743 -0.33059,-0.11445 c -0.18182,-0.0629 -0.75626,-0.21281 -1.27653,-0.33303 -1.07539,-0.2485 -1.17391,-0.23461 -2.52703,0.3564 -0.42244,0.18452 -0.82685,0.31294 -0.89868,0.28537 -0.16439,-0.0631 -0.1702,-0.39023 -0.009,-0.51551 0.24069,-0.18722 2.05789,-0.91386 2.49348,-0.99706 0.245,-0.0468 0.55475,-0.12681 0.68834,-0.17779 0.23394,-0.0893 0.22858,-0.0958 -0.14573,-0.17654 -0.77051,-0.1662 -3.7017,-0.0806 -4.93996,0.14426 -0.63301,0.11496 -1.19044,0.18459 -1.23872,0.15475 -0.18068,-0.11167 -0.085,-0.43729 0.15536,-0.52868 0.49894,-0.18969 2.95267,-0.4846 4.03165,-0.48457 1.60879,7e-5 3.84783,0.35006 4.08758,0.63895 0.17621,0.21232 -0.0271,0.37912 -0.64189,0.52661 -0.29706,0.0713 -0.55751,0.15773 -0.57879,0.19215 -0.0213,0.0344 0.36887,0.17715 0.86699,0.31715 1.36706,0.38424 1.60962,0.50376 1.60962,0.79312 0,0.28303 -0.24365,0.44557 -0.66791,0.44557 -0.40697,0 -1.51994,0.41343 -2.77624,1.03128 -0.58513,0.28775 -1.07162,0.52319 -1.0811,0.52319 -0.009,0 -0.0747,-0.0692 -0.14494,-0.15387 z m 49.99799,22.45184 c -0.16655,-0.55343 -0.55651,-1.22767 -1.06478,-1.84105 -0.35602,-0.42963 -0.39451,-0.52634 -0.36735,-0.92296 0.0177,-0.25846 -0.0526,-0.70618 -0.16876,-1.07457 -0.10952,-0.34733 -0.19968,-0.66484 -0.20036,-0.70559 -0.002,-0.10482 1.23024,0.53157 1.71761,0.88722 0.224,0.16347 0.63743,0.58442 0.91873,0.93545 0.61805,0.77126 0.81508,0.79563 0.78154,0.0967 -0.0128,-0.26679 -0.0491,-0.65578 -0.0806,-0.8644 l -0.0574,-0.37934 0.66687,0.3651 c 0.74609,0.40849 1.34715,0.87263 1.92501,1.48656 0.44112,0.46864 0.59083,0.51044 0.67186,0.18761 0.16192,-0.64519 -0.37381,-2.32767 -1.17997,-3.70565 -0.89703,-1.53333 -2.7417,-3.4609 -2.7417,-2.86491 0,0.0562 0.32916,0.47209 0.73146,0.92427 0.82247,0.92442 1.43871,1.83447 1.99543,2.94673 0.33273,0.6648 0.7007,1.75159 0.62262,1.83895 -0.0154,0.0173 -0.23981,-0.17217 -0.49863,-0.42096 -0.39535,-0.38002 -1.52495,-1.02339 -2.17844,-1.24074 -0.0844,-0.0281 -0.32924,-0.41595 -0.54417,-0.86198 -0.21492,-0.44603 -0.58156,-1.05141 -0.81474,-1.34531 -0.63448,-0.79967 -2.04297,-2.23455 -2.19345,-2.23455 -0.32859,0 -0.091,0.45487 0.62791,1.20201 0.90965,0.94543 1.34151,1.53259 1.7957,2.44149 0.26954,0.53939 0.65062,1.57596 0.65062,1.76976 0,0.019 -0.27175,-0.19168 -0.6039,-0.46809 -0.33215,-0.27641 -1.04175,-0.71668 -1.57689,-0.97839 -0.94741,-0.46329 -0.98948,-0.49809 -1.59887,-1.32262 -0.71674,-0.96976 -4.14944,-4.39241 -4.40562,-4.39274 -0.44351,-10e-4 -0.12396,0.45414 1.45732,2.07371 0.89503,0.91672 1.85641,1.97274 2.13638,2.34673 0.60269,0.80508 1.24394,2.03489 1.4271,2.73696 l 0.13111,0.5025 -0.81679,-0.62321 c -0.92041,-0.70227 -1.5745,-1.06221 -2.11431,-1.16347 -0.34394,-0.0645 -0.36527,-0.0547 -0.33468,0.15441 0.0236,0.16143 0.19502,0.30623 0.6184,0.52245 0.77669,0.39664 1.80934,1.13717 2.50399,1.79567 0.523,0.49577 1.38323,1.64095 1.29724,1.72694 -0.0207,0.0207 -0.38234,-0.0761 -0.80357,-0.21522 -1.06603,-0.35203 -1.96061,-0.51129 -2.7838,-0.49562 -0.62731,0.012 -0.70243,0.0336 -0.70243,0.203 0,0.16766 0.18565,0.22613 1.60305,0.50489 0.88168,0.17339 2.04025,0.44552 2.5746,0.60474 0.53435,0.1592 1.00224,0.2927 1.03976,0.29663 0.0375,0.004 0.009,-0.18914 -0.0631,-0.42907 z m -27.30561,-22.01313 c 0.75979,-0.12949 3.95956,-0.0669 5.19311,0.10164 1.1037,0.15076 1.1365,-0.0468 0.10182,-0.61308 -0.4823,-0.26394 -3.23569,-1.55394 -4.56627,-2.13936 -0.3421,-0.15051 2.4404,0.0437 3.25468,0.22713 1.37824,0.31053 3.22069,0.97538 4.27459,1.54252 0.21476,0.11556 0.40278,0.16583 0.42059,0.11242 0.0578,-0.17333 -0.43207,-1.10702 -0.86825,-1.65494 -0.91177,-1.14536 -2.93306,-2.83247 -3.19761,-2.66897 -0.18505,0.11437 -0.0857,0.23557 0.75513,0.92082 0.69513,0.56654 2.55031,2.44591 2.55031,2.58357 0,0.0202 -0.27324,-0.11181 -0.60721,-0.29335 -0.80855,-0.43952 -2.09712,-0.88151 -3.30925,-1.13512 -1.28964,-0.26982 -3.40008,-0.31214 -3.76278,-0.0755 -0.21106,0.13774 -0.2841,0.14 -0.62748,0.0194 -1.05696,-0.37111 -3.07983,-0.55419 -3.33241,-0.30161 -0.19406,0.19406 -0.13656,0.22645 0.33534,0.18892 0.6899,-0.0549 1.7298,0.14842 2.85429,0.558 0.93656,0.34112 4.79799,2.05192 4.73607,2.0983 -0.0149,0.0111 -0.35492,-0.0141 -0.75568,-0.056 -2.28803,-0.23949 -4.74185,0.0984 -4.9356,0.67963 -0.0487,0.14615 0.14806,0.13365 1.48661,-0.0945 z m 10.99956,74.44178 -2.99071,-5.11528 0.36753,-0.0693 c 0.38644,-0.0729 13.91986,-0.69427 13.96856,-0.6414 0.0258,0.028 -8.12122,10.72353 -8.28386,10.87522 -0.0389,0.0363 -1.41663,-2.23585 -3.06152,-5.04925 z m -111.84613,-4.3036 c -0.96563,-0.0841 -1.25896,-0.21126 -1.1655,-0.50537 0.0196,-0.0616 0.37136,-1.18313 0.78173,-2.49229 0.41038,-1.30916 0.80751,-2.44513 0.88253,-2.52437 0.10208,-0.10785 0.17768,-0.11805 0.30051,-0.0406 0.21601,0.13626 1.21847,5.24181 1.08066,5.50387 -0.10036,0.19086 -0.29309,0.19687 -1.87993,0.0587 z m 1.24649,-0.54451 c 0.0473,-0.0792 -0.56212,-3.30707 -0.63882,-3.38376 -0.0478,-0.0478 -1.04487,2.96091 -1.04487,3.15288 0,0.12927 0.27004,0.19494 0.97155,0.23631 0.29389,0.0173 0.56456,0.0396 0.60148,0.0495 0.0369,0.01 0.0867,-0.0148 0.11066,-0.0549 z m 107.29485,-1.67557 c 0.13907,-0.24065 0.39449,-0.65614 0.5676,-0.92331 0.42263,-0.65227 1.3415,-2.2767 2.06088,-3.64331 0.32346,-0.6145 0.79431,-1.48889 1.04632,-1.94309 0.25201,-0.4542 0.62713,-1.16464 0.83357,-1.57876 0.20645,-0.41413 0.40906,-0.75295 0.45024,-0.75295 0.0412,0 1.06921,1.98924 2.28451,4.42054 l 2.20963,4.42053 -0.31561,0.006 c -0.17359,0.003 -2.35735,0.10178 -4.8528,0.21894 l -4.53717,0.21302 0.25283,-0.43753 z m -74.73151,-2.0447 c -0.80153,-0.0986 -1.51114,-0.18172 -1.57691,-0.18473 -0.23476,-0.0107 -0.22901,-0.47119 0.0183,-1.46956 0.31376,-1.26635 0.39229,-1.45055 0.61838,-1.45055 0.0997,0 0.86797,0.64006 1.70727,1.42236 2.11292,1.96942 2.08387,2.03316 -0.76709,1.68248 z m 1.02012,-0.56119 c 0,-0.093 -1.7443,-1.7092 -1.78765,-1.65637 -0.083,0.10113 -0.34943,1.38015 -0.29839,1.43222 0.0478,0.0487 0.79668,0.15932 1.9646,0.29008 0.0668,0.007 0.12144,-0.0222 0.12144,-0.0659 z m 0.51007,-9.60086 c -0.18391,-0.0777 -0.15989,-0.54046 0.323,-6.22172 0.28781,-3.38628 0.42431,-5.46247 0.38733,-5.89141 l -0.0571,-0.66237 0.25586,0.0309 c 0.23003,0.0277 0.54872,0.56534 3.15717,5.3258 1.59572,2.91221 2.90205,5.3246 2.90296,5.36086 0.005,0.2156 -0.58231,0.4211 -3.41201,1.19309 -3.58943,0.97926 -3.39709,0.93249 -3.55719,0.86489 z m 3.43969,-1.45443 c 1.48794,-0.40659 2.71926,-0.75205 2.73627,-0.76769 0.017,-0.0156 -1.05322,-2.00844 -2.3783,-4.42847 -2.18294,-3.98676 -2.41588,-4.37321 -2.47999,-4.11434 -0.0389,0.15714 -0.22669,2.23124 -0.41728,4.6091 -0.1906,2.37786 -0.37297,4.57477 -0.40528,4.88202 -0.0487,0.46275 -0.0331,0.55864 0.0903,0.55864 0.0819,0 1.36639,-0.33267 2.85433,-0.73926 z m -9.88772,-8.65403 -1.6401,-1.6401 0.004,-0.53119 c 0.002,-0.29215 0.0848,-1.51261 0.18321,-2.71213 0.16615,-2.02499 0.1944,-2.19348 0.39512,-2.35601 0.28034,-0.227 0.35554,-0.22074 0.52287,0.0436 0.14614,0.23085 2.58641,8.22322 2.58641,8.47104 0,0.0795 -0.0926,0.19418 -0.20584,0.25476 -0.18761,0.10041 -0.35108,-0.0351 -1.84594,-1.52993 z m 0.19547,-2.91008 c -1.0317,-3.40119 -0.9601,-3.3591 -1.15364,-0.67811 l -0.11842,1.64031 1.04925,1.05251 c 0.57709,0.57889 1.0672,1.03457 1.08913,1.01263 0.0219,-0.0219 -0.36791,-1.38423 -0.86632,-3.02734 z m -29.70645,2.30218 c -1.0086,-0.55828 -1.25167,-0.77641 -1.11692,-1.00234 0.18347,-0.30763 1.93648,-2.6765 2.15633,-2.91388 0.1404,-0.1516 0.35053,-0.26717 0.48575,-0.26717 h 0.23831 l -0.0712,2.20922 c -0.0392,1.21506 -0.11239,2.28619 -0.16275,2.38029 -0.14534,0.27156 -0.45257,0.18998 -1.52952,-0.40612 z m 1.09513,-1.57157 c 0.0373,-0.75434 0.0523,-1.38709 0.0333,-1.40612 -0.019,-0.019 -0.37647,0.42506 -0.79433,0.98684 -0.41786,0.56178 -0.7378,1.04337 -0.71099,1.07018 0.0723,0.0723 1.27778,0.71585 1.34575,0.71841 0.0321,0.001 0.0889,-0.61498 0.12628,-1.36931 z m 2.3736,-9.97129 c -0.8817,-0.70424 -1.63531,-1.43533 -1.63531,-1.58647 0,-0.19131 2.27832,-5.17478 2.51573,-5.50277 0.17877,-0.24696 0.47625,-0.28917 0.5569,-0.079 0.0861,0.22427 -0.71345,7.13955 -0.84356,7.29633 -0.15774,0.19006 -0.20942,0.17892 -0.59376,-0.12806 z m 0.21228,-0.82582 c 9.5e-4,-0.0668 0.10849,-1.05948 0.23908,-2.20597 0.13059,-1.14649 0.21914,-2.10284 0.19678,-2.12519 -0.0224,-0.0224 -0.14623,0.1943 -0.27525,0.48148 -0.12902,0.28718 -0.48063,1.0562 -0.78135,1.70897 -0.30072,0.65275 -0.54678,1.22111 -0.5468,1.26301 -4e-5,0.0902 0.98719,0.98883 1.09302,0.99494 0.0401,0.002 0.0736,-0.0504 0.0745,-0.11724 z m 26.53091,-0.77723 c -0.0457,-0.12023 -0.25018,-0.7592 -0.45449,-1.41994 -0.36053,-1.16594 -0.36603,-1.20531 -0.18685,-1.33633 0.10154,-0.0743 0.2525,-0.11545 0.33545,-0.0916 0.083,0.0239 1.4187,0.2926 2.96831,0.59713 1.54962,0.30454 2.87812,0.60971 2.95222,0.67816 0.0741,0.0684 0.11197,0.18376 0.0842,0.25625 -0.0561,0.14612 -4.90505,1.54003 -5.34619,1.53685 -0.18916,-0.001 -0.29435,-0.0672 -0.3526,-0.22055 z m 2.22523,-0.84752 c 0.82824,-0.22613 1.54067,-0.44361 1.58318,-0.48331 0.0425,-0.0397 -0.7991,-0.24733 -1.87023,-0.4614 -1.07113,-0.21407 -1.94806,-0.36291 -1.94874,-0.33076 -0.005,0.24755 0.54171,1.75849 0.625,1.72666 0.0577,-0.022 0.78254,-0.22508 1.61079,-0.45119 z m -10.86051,-4.78746 c -0.11442,-0.13877 -0.54363,-4.69491 -0.45568,-4.8372 0.0317,-0.0514 0.14237,-0.0934 0.24585,-0.0934 0.19611,0 3.21941,2.58634 3.38502,2.89577 0.18211,0.34029 -0.10348,0.61456 -1.44722,1.38983 -1.34672,0.77698 -1.55505,0.85474 -1.72797,0.645 z m 2.14008,-1.57434 c 0.19993,-0.1093 0.36388,-0.22708 0.36432,-0.26173 0.001,-0.1001 -2.23952,-2.05244 -2.2936,-1.99836 -0.0475,0.0475 0.11615,2.22748 0.21529,2.86823 l 0.0497,0.32109 0.65038,-0.36524 c 0.35772,-0.20089 0.81398,-0.45468 1.01393,-0.56399 z m -23.2913,-0.85452 c -0.11055,-0.32164 -1.99791,-12.93714 -1.95299,-13.05419 0.0643,-0.16765 0.39172,-0.17602 0.51289,-0.0131 0.0497,0.0668 0.97807,2.08234 2.06309,4.47899 1.77364,3.91771 1.95771,4.37259 1.82362,4.50669 -0.082,0.082 -0.21057,0.12558 -0.28565,0.0968 -0.0751,-0.0288 -0.80596,-1.52241 -1.6242,-3.31911 -0.81824,-1.79672 -1.50422,-3.25025 -1.52439,-3.23007 -0.0552,0.0552 1.36049,9.19816 1.42419,9.19816 0.0303,0 0.29159,-0.57002 0.58065,-1.26672 0.28905,-0.6967 0.58211,-1.31366 0.65124,-1.37103 0.17463,-0.14493 0.41963,-0.0299 0.41963,0.19711 0,0.10375 -0.35375,1.02323 -0.78611,2.0433 -0.71488,1.68659 -0.8076,1.85466 -1.02317,1.85466 -0.13039,0 -0.25585,-0.0547 -0.2788,-0.12144 z m 29.41284,-4.08257 c -0.52108,-0.36942 -0.70437,-0.55678 -0.70437,-0.72003 0,-0.27513 0.15885,-0.37694 1.57213,-1.0076 1.64727,-0.73507 1.75853,-0.61205 0.89241,0.98671 -0.53396,0.98561 -0.74343,1.25967 -0.95292,1.24667 -0.0566,-0.003 -0.41984,-0.23109 -0.80725,-0.50575 z m 1.07431,-0.75098 c 0.15003,-0.26712 0.25384,-0.48567 0.23068,-0.48567 -0.12918,0 -1.13497,0.49555 -1.13497,0.5592 0,0.0706 0.4746,0.40412 0.58293,0.40966 0.0267,10e-4 0.17133,-0.21607 0.32136,-0.48319 z m -5.32483,-0.0161 c -0.53429,-0.10079 -0.76469,-0.26259 -0.68174,-0.47877 0.0297,-0.0775 0.41388,-0.35374 0.85367,-0.61392 0.43979,-0.26018 0.91827,-0.58284 1.06328,-0.71701 0.21976,-0.20333 0.28852,-0.22332 0.41291,-0.12009 0.16876,0.14006 0.20038,0.54278 0.0499,0.63577 -0.0546,0.0338 -0.23515,0.33145 -0.40115,0.66153 -0.40868,0.81261 -0.39012,0.80356 -1.29689,0.63249 z m -3.33351,-6.77928 c -0.74666,-0.0571 -0.98216,-0.15372 -0.98838,-0.40558 -8.1e-4,-0.0331 0.52695,-0.62334 1.17282,-1.31159 0.64587,-0.68826 1.26226,-1.39347 1.36976,-1.56713 0.20619,-0.33309 0.37995,-0.39546 0.54143,-0.19431 0.14891,0.18548 0.3303,3.28909 0.20132,3.44451 -0.11194,0.13488 -0.83783,0.14565 -2.29695,0.0341 z m 1.72363,-1.24406 c -0.0112,-1.23088 -0.0365,-1.23913 -0.89699,-0.29135 -0.41129,0.45303 -0.74781,0.84895 -0.74781,0.87983 0,0.0574 0.50231,0.11723 1.23872,0.1475 l 0.41291,0.017 -0.007,-0.75295 z m -18.48494,1.0768 c -0.0356,-0.0356 -0.0645,-0.17771 -0.0641,-0.31576 0.001,-0.45934 0.74499,-4.09587 0.86153,-4.21242 0.083,-0.083 0.1609,-0.086 0.28204,-0.0107 0.20236,0.1257 1.41295,3.21647 1.33717,3.41394 -0.0294,0.0767 -0.14075,0.1623 -0.24735,0.19018 -0.1066,0.0279 -0.19382,0.12722 -0.19382,0.22077 0,0.1239 -0.21896,0.25272 -0.80641,0.47444 -0.81709,0.30838 -1.0521,0.35655 -1.16906,0.23959 z m 1.22345,-0.89874 c 0.29777,-0.10245 0.5739,-0.1571 0.61362,-0.12145 0.0832,0.0747 0.0794,0.0627 -0.34874,-1.10102 -0.17694,-0.48092 -0.35048,-0.90809 -0.38564,-0.94927 -0.0506,-0.0593 -0.48889,1.9944 -0.48768,2.28515 4e-4,0.0974 -0.01,0.0993 0.60844,-0.11341 z m 23.40209,-0.76095 c -0.0795,-0.14853 0.0434,-0.44989 0.6389,-1.56628 0.62212,-1.16639 0.76921,-1.37783 0.94138,-1.35324 0.1805,0.0258 0.21835,0.13569 0.32787,0.9521 0.0681,0.50763 0.11182,1.13997 0.0971,1.40519 -0.0301,0.54521 -0.03,0.54515 -1.29229,0.68033 -0.54262,0.0581 -0.62611,0.0443 -0.71301,-0.1181 z m 1.42448,-0.8053 c 0.0158,-0.13565 -0.0109,-0.35384 -0.0594,-0.48488 -0.0843,-0.22785 -0.0995,-0.21574 -0.34945,0.27744 l -0.26132,0.51569 0.3207,-0.0308 c 0.26109,-0.0251 0.32603,-0.0766 0.34945,-0.27744 z m -9.11272,-7.65967 c -2.16412,-0.57192 -4.01128,-1.0695 -4.10479,-1.10572 -0.3128,-0.12115 -0.17551,-0.47228 0.60722,-1.55299 0.42748,-0.59023 0.77723,-1.12921 0.77723,-1.19774 0,-0.16982 0.46995,-0.52732 0.69319,-0.52732 0.17065,0 0.19623,0.0439 0.22077,0.37896 0.005,0.0748 1.4167,1.12411 3.13605,2.33171 1.71935,1.20761 3.14958,2.25029 3.17829,2.31708 0.0953,0.22176 -0.0544,0.41309 -0.31642,0.4044 -0.14123,-0.005 -2.02742,-0.47646 -4.19154,-1.04838 z m 2.47258,-0.0995 c -0.085,-0.0807 -3.19185,-2.2795 -4.23831,-2.99948 l -0.4517,-0.31079 -0.59295,0.82897 c -0.32613,0.45592 -0.60323,0.87624 -0.61579,0.93404 -0.0132,0.0607 1.16594,0.42283 2.79466,0.85818 2.81767,0.75315 3.27939,0.85565 3.10409,0.68908 z m -19.80333,-7.12011 c -1.54286,-4.86005 -2.29833,-7.39354 -2.24868,-7.54098 0.0705,-0.20941 8.46585,-6.45063 8.7501,-6.50497 0.27927,-0.0534 0.36757,0.18915 0.19441,0.53398 -0.0742,0.14779 -1.3771,3.61327 -2.8953,7.70105 -3.31914,8.93686 -2.97515,8.4109 -3.80053,5.81092 z m 3.313,-6.17214 c 1.34749,-3.61653 2.4351,-6.59038 2.41692,-6.60857 -0.0367,-0.0367 -6.89621,5.04073 -7.1883,5.32082 -0.18003,0.17262 -0.15816,0.2595 1.01235,4.02165 0.658,2.11487 1.22172,3.8444 1.25271,3.84341 0.031,-0.001 1.15884,-2.96079 2.50632,-6.57731 z"
       id="path817"
       inkscape:connector-curvature="0" />
  </g>
  <rect
     style="opacity:1;fill:none;fill-opacity:1;stroke:#ff0000;stroke-width:0.46520579;stroke-miterlimit:4;stroke-dasharray:none;stroke-opacity:1"
     id="rect818"
     width="490.87338"
     height="264.10172"
     x="274.49707"
     y="345.29599"
     rx="37.795277"
     ry="37.795277" />
</svg>
