<?xml version="1.0" encoding="UTF-8" standalone="no"?>
<svg
   xmlns:dc="http://purl.org/dc/elements/1.1/"
   xmlns:cc="http://creativecommons.org/ns#"
   xmlns:rdf="http://www.w3.org/1999/02/22-rdf-syntax-ns#"
   xmlns:svg="http://www.w3.org/2000/svg"
   xmlns="http://www.w3.org/2000/svg"
   xmlns:sodipodi="http://sodipodi.sourceforge.net/DTD/sodipodi-0.dtd"
   xmlns:inkscape="http://www.inkscape.org/namespaces/inkscape"
   height="642.31mm"
   viewBox="0.0 0.0 422.40 642.31"
   width="422.40mm"
   version="1.1"
   id="svg142"
   sodipodi:docname="a_ranger.svg"
   inkscape:version="0.92.5 (2060ec1f9f, 2020-04-08)">
  <defs
     id="defs146" />
  <sodipodi:namedview
     pagecolor="#ffffff"
     bordercolor="#666666"
     borderopacity="1"
     objecttolerance="10"
     gridtolerance="10"
     guidetolerance="10"
     inkscape:pageopacity="0"
     inkscape:pageshadow="2"
     inkscape:window-width="2416"
     inkscape:window-height="1472"
     id="namedview144"
     showgrid="false"
     inkscape:zoom="0.53847305"
     inkscape:cx="665.52252"
     inkscape:cy="1236.2545"
     inkscape:window-x="144"
     inkscape:window-y="54"
     inkscape:window-maximized="1"
     inkscape:current-layer="svg142" />
  <!--
BinTray - A Type tray variant to be used up right with sloped walls in front

Created with Boxes.py (https://festi.info/boxes.py)
Creation date: 2020-06-30 12:22:46
Command line (remove spaces between dashes): boxes BinTray - -FingerJoint_angle=90.0 - -FingerJoint_style=rectangular - -FingerJoint_surroundingspaces=0.5 - -FingerJoint_edge_width=1.0 - -FingerJoint_finger=2.0 - -FingerJoint_play=0.0 - -FingerJoint_space=2.0 - -FingerJoint_width=1.0 '- -sx=100*2' '- -sy=100*2' - -h=80 - -outside=0 - -outside=1 - -front=0.5 - -thickness=4.0 - -format=svg - -tabs=0.0 - -debug=0 - -reference=100 - -burn=0.1
Url: http://localhost:8008/BinTray?FingerJoint_angle=90.0&FingerJoint_style=rectangular&FingerJoint_surroundingspaces=0.5&FingerJoint_edge_width=1.0&FingerJoint_finger=2.0&FingerJoint_play=0.0&FingerJoint_space=2.0&FingerJoint_width=1.0&sx=100*2&sy=100*2&h=80&outside=0&outside=1&front=0.5&thickness=4.0&format=svg&tabs=0.0&debug=0&reference=100&burn=0.1&render=1
SettingsUrl: http://localhost:8008/BinTray?FingerJoint_angle=90.0&FingerJoint_style=rectangular&FingerJoint_surroundingspaces=0.5&FingerJoint_edge_width=1.0&FingerJoint_finger=2.0&FingerJoint_play=0.0&FingerJoint_space=2.0&FingerJoint_width=1.0&sx=100*2&sy=100*2&h=80&outside=0&outside=1&front=0.5&thickness=4.0&format=svg&tabs=0.0&debug=0&reference=100&burn=0.1
-->
  <title
     id="title2">BinTray</title>
  <metadata
     id="metadata4">
    <rdf:RDF>
      <cc:Work>
        <dc:title>BinTray</dc:title>
        <dc:date>2020-06-30 12:22:46</dc:date>
        <dc:source>http://localhost:8008/BinTray?FingerJoint_angle=90.0&amp;FingerJoint_style=rectangular&amp;FingerJoint_surroundingspaces=0.5&amp;FingerJoint_edge_width=1.0&amp;FingerJoint_finger=2.0&amp;FingerJoint_play=0.0&amp;FingerJoint_space=2.0&amp;FingerJoint_width=1.0&amp;sx=100*2&amp;sy=100*2&amp;h=80&amp;outside=0&amp;outside=1&amp;front=0.5&amp;thickness=4.0&amp;format=svg&amp;tabs=0.0&amp;debug=0&amp;reference=100&amp;burn=0.1&amp;render=1</dc:source>
        <dc:description>A Type tray variant to be used up right with sloped walls in front

Created with Boxes.py (https://festi.info/boxes.py)
Command line: boxes BinTray --FingerJoint_angle=90.0 --FingerJoint_style=rectangular --FingerJoint_surroundingspaces=0.5 --FingerJoint_edge_width=1.0 --FingerJoint_finger=2.0 --FingerJoint_play=0.0 --FingerJoint_space=2.0 --FingerJoint_width=1.0 '--sx=100*2' '--sy=100*2' --h=80 --outside=0 --outside=1 --front=0.5 --thickness=4.0 --format=svg --tabs=0.0 --debug=0 --reference=100 --burn=0.1
Url: http://localhost:8008/BinTray?FingerJoint_angle=90.0&amp;FingerJoint_style=rectangular&amp;FingerJoint_surroundingspaces=0.5&amp;FingerJoint_edge_width=1.0&amp;FingerJoint_finger=2.0&amp;FingerJoint_play=0.0&amp;FingerJoint_space=2.0&amp;FingerJoint_width=1.0&amp;sx=100*2&amp;sy=100*2&amp;h=80&amp;outside=0&amp;outside=1&amp;front=0.5&amp;thickness=4.0&amp;format=svg&amp;tabs=0.0&amp;debug=0&amp;reference=100&amp;burn=0.1&amp;render=1
SettingsUrl: http://localhost:8008/BinTray?FingerJoint_angle=90.0&amp;FingerJoint_style=rectangular&amp;FingerJoint_surroundingspaces=0.5&amp;FingerJoint_edge_width=1.0&amp;FingerJoint_finger=2.0&amp;FingerJoint_play=0.0&amp;FingerJoint_space=2.0&amp;FingerJoint_width=1.0&amp;sx=100*2&amp;sy=100*2&amp;h=80&amp;outside=0&amp;outside=1&amp;front=0.5&amp;thickness=4.0&amp;format=svg&amp;tabs=0.0&amp;debug=0&amp;reference=100&amp;burn=0.1
</dc:description>
        <dc:format>image/svg+xml</dc:format>
        <dc:type
           rdf:resource="http://purl.org/dc/dcmitype/StillImage" />
      </cc:Work>
    </rdf:RDF>
  </metadata>
  <g
     id="p-1"
     style="fill:none;stroke-linecap:round;stroke-linejoin:round;stroke:#ff0000;stroke-opacity:1"
     transform="translate(205.65467,-45.768435)">
    <path
       d="m 112,610.007 v 3.9 c 0,0.1 0.1,0 0,0 h -3.8 c -0.1,0 0,0.1 0,0 v -7.8 c 0,-0.1 -0.1,0 0,0 h 3.8 c 0.1,0 0,-0.1 0,0 z"
       id="path11"
       inkscape:connector-curvature="0"
       style="stroke:#ff0000;stroke-width:0.2;stroke-opacity:1" />
    <path
       d="m 112,594.007 v 3.9 c 0,0.1 0.1,0 0,0 h -3.8 c -0.1,0 0,0.1 0,0 v -7.8 c 0,-0.1 -0.1,0 0,0 h 3.8 c 0.1,0 0,-0.1 0,0 z"
       id="path13"
       inkscape:connector-curvature="0"
       style="stroke:#ff0000;stroke-width:0.2;stroke-opacity:1" />
    <path
       d="m 112,578.007 v 3.9 c 0,0.1 0.1,0 0,0 h -3.8 c -0.1,0 0,0.1 0,0 v -7.8 c 0,-0.1 -0.1,0 0,0 h 3.8 c 0.1,0 0,-0.1 0,0 z"
       id="path15"
       inkscape:connector-curvature="0"
       style="stroke:#ff0000;stroke-width:0.2;stroke-opacity:1" />
    <path
       d="m 112,562.007 v 3.9 c 0,0.1 0.1,0 0,0 h -3.8 c -0.1,0 0,0.1 0,0 v -7.8 c 0,-0.1 -0.1,0 0,0 h 3.8 c 0.1,0 0,-0.1 0,0 z"
       id="path17"
       inkscape:connector-curvature="0"
       style="stroke:#ff0000;stroke-width:0.2;stroke-opacity:1" />
    <path
       d="m 112,546.007 v 3.9 c 0,0.1 0.1,0 0,0 h -3.8 c -0.1,0 0,0.1 0,0 v -7.8 c 0,-0.1 -0.1,0 0,0 h 3.8 c 0.1,0 0,-0.1 0,0 z"
       id="path19"
       inkscape:connector-curvature="0"
       style="stroke:#ff0000;stroke-width:0.2;stroke-opacity:1" />
    <path
       d="m 14.1,620.107 h 4 c 0.055,0 0.1,-0.045 0.1,-0.1 v -3.9 c 0,-0.1 -0.1,0 0,0 H 26 c 0.1,0 0,-0.1 0,0 v 3.9 c 0,0.055 0.045,0.1 0.1,0.1 h 8 c 0.055,0 0.1,-0.045 0.1,-0.1 v -3.9 c 0,-0.1 -0.1,0 0,0 H 42 c 0.1,0 0,-0.1 0,0 v 3.9 c 0,0.055 0.045,0.1 0.1,0.1 h 8 c 0.055,0 0.1,-0.045 0.1,-0.1 v -3.9 c 0,-0.1 -0.1,0 0,0 H 58 c 0.1,0 0,-0.1 0,0 v 3.9 c 0,0.055 0.045,0.1 0.1,0.1 h 8 c 0.055,0 0.1,-0.045 0.1,-0.1 v -3.9 c 0,-0.1 -0.1,0 0,0 H 74 c 0.1,0 0,-0.1 0,0 v 3.9 c 0,0.055 0.045,0.1 0.1,0.1 h 8 c 0.055,0 0.1,-0.045 0.1,-0.1 v -3.9 c 0,-0.1 -0.1,0 0,0 H 90 c 0.1,0 0,-0.1 0,0 v 3.9 c 0,0.055 0.045,0.1 0.1,0.1 h 8 c 0.055,0 0.1,-0.045 0.1,-0.1 v -3.9 c 0,-0.1 -0.1,0 0,0 h 7.8 c 0.1,0 0,-0.1 0,0 v 3.9 c 0,0.055 0.045,0.1 0.1,0.1 h 8 c 0.055,0 0.1,-0.045 0.1,-0.1 v -3.9 c 0,-0.1 -0.1,0 0,0 h 7.8 c 0.1,0 0,-0.1 0,0 v 3.9 c 0,0.055 0.045,0.1 0.1,0.1 h 8 c 0.055,0 0.1,-0.045 0.1,-0.1 v -3.9 c 0,-0.1 -0.1,0 0,0 h 7.8 c 0.1,0 0,-0.1 0,0 v 3.9 c 0,0.055 0.045,0.1 0.1,0.1 h 8 c 0.055,0 0.1,-0.045 0.1,-0.1 v -3.9 c 0,-0.1 -0.1,0 0,0 h 7.8 c 0.1,0 0,-0.1 0,0 v 3.9 c 0,0.055 0.045,0.1 0.1,0.1 h 8 c 0.055,0 0.1,-0.045 0.1,-0.1 v -3.9 c 0,-0.1 -0.1,0 0,0 h 7.8 c 0.1,0 0,-0.1 0,0 v 3.9 c 0,0.055 0.045,0.1 0.1,0.1 h 8 c 0.055,0 0.1,-0.045 0.1,-0.1 v -3.9 c 0,-0.1 -0.1,0 0,0 h 7.8 c 0.1,0 0,-0.1 0,0 v 3.9 c 0,0.055 0.045,0.1 0.1,0.1 h 8 c 0.055,0 0.1,-0.045 0.1,-0.1 v -3.9 c 0,-0.1 -0.1,0 0,0 h 7.8 c 0.1,0 0,-0.1 0,0 v 3.9 c 0,0.055 0.045,0.1 0.1,0.1 h 4 c 0.055,0 0.1,-0.045 0.1,-0.1 v -4 -1.9 c 0,-0.1 -0.1,0 0,0 h 3.9 c 0.055,0 0.1,-0.045 0.1,-0.1 v -8 c 0,-0.056 -0.045,-0.1 -0.1,-0.1 h -3.9 c -0.1,0 0,0.1 0,0 v -7.8 c 0,-0.1 -0.1,0 0,0 h 3.9 c 0.055,0 0.1,-0.045 0.1,-0.1 v -8 c 0,-0.056 -0.045,-0.1 -0.1,-0.1 h -3.9 c -0.1,0 0,0.1 0,0 v -7.8 c 0,-0.1 -0.1,0 0,0 h 3.9 c 0.055,0 0.1,-0.045 0.1,-0.1 v -8 c 0,-0.056 -0.045,-0.1 -0.1,-0.1 h -3.9 c -0.1,0 0,0.1 0,0 v -7.8 c 0,-0.1 -0.1,0 0,0 h 3.9 c 0.055,0 0.1,-0.045 0.1,-0.1 v -8 c 0,-0.056 -0.045,-0.1 -0.1,-0.1 h -3.9 c -0.1,0 0,0.1 0,0 v -7.8 c 0,-0.1 -0.1,0 0,0 h 3.9 c 0.055,0 0.1,-0.045 0.1,-0.1 v -8 c 0,-0.056 -0.045,-0.1 -0.1,-0.1 h -3.9 c -0.1,0 0,0.1 0,0 v -1.9 -1.657 c 0,-0.055 -0.045,-0.1 -0.1,-0.1 h -11 c -0.055,0 -0.1,0.045 -0.1,0.1 v 2.728 c 0,0.1 0.1,0 0,0 h -7.8 c -0.1,0 0,0.1 0,0 v -2.728 c 0,-0.055 -0.045,-0.1 -0.1,-0.1 h -8 c -0.055,0 -0.1,0.045 -0.1,0.1 v 2.728 c 0,0.1 0.1,0 0,0 h -7.8 c -0.1,0 0,0.1 0,0 v -2.728 c 0,-0.055 -0.045,-0.1 -0.1,-0.1 h -8 c -0.055,0 -0.1,0.045 -0.1,0.1 v 2.728 c 0,0.1 0.1,0 0,0 h -7.8 c -0.1,0 0,0.1 0,0 v -2.728 c 0,-0.055 -0.045,-0.1 -0.1,-0.1 h -8 c -0.055,0 -0.1,0.045 -0.1,0.1 v 2.728 c 0,0.1 0.1,0 0,0 h -7.8 c -0.1,0 0,0.1 0,0 v -2.728 c 0,-0.055 -0.045,-0.1 -0.1,-0.1 h -8 c -0.055,0 -0.1,0.045 -0.1,0.1 v 2.728 c 0,0.1 0.1,0 0,0 h -7.8 c -0.1,0 0,0.1 0,0 v -2.728 c 0,-0.055 -0.045,-0.1 -0.1,-0.1 h -11 -2 -2 -11 c -0.055,0 -0.1,0.045 -0.1,0.1 v 2.728 c 0,0.1 0.1,0 0,0 h -7.8 c -0.1,0 0,0.1 0,0 v -2.728 c 0,-0.055 -0.045,-0.1 -0.1,-0.1 h -8 c -0.055,0 -0.1,0.045 -0.1,0.1 v 2.728 c 0,0.1 0.1,0 0,0 h -7.8 c -0.1,0 0,0.1 0,0 v -2.728 c 0,-0.055 -0.045,-0.1 -0.1,-0.1 h -8 c -0.055,0 -0.1,0.045 -0.1,0.1 v 2.728 c 0,0.1 0.1,0 0,0 h -7.8 c -0.1,0 0,0.1 0,0 v -2.728 c 0,-0.055 -0.045,-0.1 -0.1,-0.1 h -8 c -0.055,0 -0.1,0.045 -0.1,0.1 v 2.728 c 0,0.1 0.1,0 0,0 h -7.8 c -0.1,0 0,0.1 0,0 v -2.728 c 0,-0.055 -0.045,-0.1 -0.1,-0.1 h -8 c -0.055,0 -0.1,0.045 -0.1,0.1 v 2.728 c 0,0.1 0.1,0 0,0 h -7.8 c -0.1,0 0,0.1 0,0 v -2.728 c 0,-0.055 -0.045,-0.1 -0.1,-0.1 h -11 c -0.055,0 -0.1,0.045 -0.1,0.1 v 1.657 1.9 c 0,0.1 0.1,0 0,0 h -3.9 c -0.055,0 -0.1,0.044 -0.1,0.1 v 8 c 0,0.055 0.045,0.1 0.1,0.1 H 14 c 0.1,0 0,-0.1 0,0 v 7.8 c 0,0.1 0.1,0 0,0 h -3.9 c -0.055,0 -0.1,0.044 -0.1,0.1 v 8 c 0,0.055 0.045,0.1 0.1,0.1 H 14 c 0.1,0 0,-0.1 0,0 v 7.8 c 0,0.1 0.1,0 0,0 h -3.9 c -0.055,0 -0.1,0.044 -0.1,0.1 v 8 c 0,0.055 0.045,0.1 0.1,0.1 H 14 c 0.1,0 0,-0.1 0,0 v 7.8 c 0,0.1 0.1,0 0,0 h -3.9 c -0.055,0 -0.1,0.044 -0.1,0.1 v 8 c 0,0.055 0.045,0.1 0.1,0.1 H 14 c 0.1,0 0,-0.1 0,0 v 7.8 c 0,0.1 0.1,0 0,0 h -3.9 c -0.055,0 -0.1,0.044 -0.1,0.1 v 8 c 0,0.055 0.045,0.1 0.1,0.1 H 14 c 0.1,0 0,-0.1 0,0 v 1.9 4 c 0,0.055 0.045,0.1 0.1,0.1 z"
       id="path21"
       inkscape:connector-curvature="0"
       style="stroke:#ff0000;stroke-width:0.2;stroke-opacity:1" />
  </g>
  <g
     id="p-2"
     style="fill:none;stroke-linecap:round;stroke-linejoin:round;stroke:#ff0000;stroke-opacity:1"
     transform="translate(-201.56611,-41.487175)">
    <path
       d="m 314.2,610.007 v 3.9 c 0,0.1 0.1,0 0,0 h -3.8 c -0.1,0 0,0.1 0,0 v -7.8 c 0,-0.1 -0.1,0 0,0 h 3.8 c 0.1,0 0,-0.1 0,0 z"
       id="path24"
       inkscape:connector-curvature="0"
       style="stroke:#ff0000;stroke-width:0.2;stroke-opacity:1" />
    <path
       d="m 314.2,594.007 v 3.9 c 0,0.1 0.1,0 0,0 h -3.8 c -0.1,0 0,0.1 0,0 v -7.8 c 0,-0.1 -0.1,0 0,0 h 3.8 c 0.1,0 0,-0.1 0,0 z"
       id="path26"
       inkscape:connector-curvature="0"
       style="stroke:#ff0000;stroke-width:0.2;stroke-opacity:1" />
    <path
       d="m 314.2,578.007 v 3.9 c 0,0.1 0.1,0 0,0 h -3.8 c -0.1,0 0,0.1 0,0 v -7.8 c 0,-0.1 -0.1,0 0,0 h 3.8 c 0.1,0 0,-0.1 0,0 z"
       id="path28"
       inkscape:connector-curvature="0"
       style="stroke:#ff0000;stroke-width:0.2;stroke-opacity:1" />
    <path
       d="m 314.2,562.007 v 3.9 c 0,0.1 0.1,0 0,0 h -3.8 c -0.1,0 0,0.1 0,0 v -7.8 c 0,-0.1 -0.1,0 0,0 h 3.8 c 0.1,0 0,-0.1 0,0 z"
       id="path30"
       inkscape:connector-curvature="0"
       style="stroke:#ff0000;stroke-width:0.2;stroke-opacity:1" />
    <path
       d="m 314.2,546.007 v 3.9 c 0,0.1 0.1,0 0,0 h -3.8 c -0.1,0 0,0.1 0,0 v -7.8 c 0,-0.1 -0.1,0 0,0 h 3.8 c 0.1,0 0,-0.1 0,0 z"
       id="path32"
       inkscape:connector-curvature="0"
       style="stroke:#ff0000;stroke-width:0.2;stroke-opacity:1" />
    <path
       d="m 216.3,620.107 h 4 c 0.055,0 0.1,-0.045 0.1,-0.1 v -3.9 c 0,-0.1 -0.1,0 0,0 h 7.8 c 0.1,0 0,-0.1 0,0 v 3.9 c 0,0.055 0.045,0.1 0.1,0.1 h 8 c 0.055,0 0.1,-0.045 0.1,-0.1 v -3.9 c 0,-0.1 -0.1,0 0,0 h 7.8 c 0.1,0 0,-0.1 0,0 v 3.9 c 0,0.055 0.045,0.1 0.1,0.1 h 8 c 0.055,0 0.1,-0.045 0.1,-0.1 v -3.9 c 0,-0.1 -0.1,0 0,0 h 7.8 c 0.1,0 0,-0.1 0,0 v 3.9 c 0,0.055 0.045,0.1 0.1,0.1 h 8 c 0.055,0 0.1,-0.045 0.1,-0.1 v -3.9 c 0,-0.1 -0.1,0 0,0 h 7.8 c 0.1,0 0,-0.1 0,0 v 3.9 c 0,0.055 0.045,0.1 0.1,0.1 h 8 c 0.055,0 0.1,-0.045 0.1,-0.1 v -3.9 c 0,-0.1 -0.1,0 0,0 h 7.8 c 0.1,0 0,-0.1 0,0 v 3.9 c 0,0.055 0.045,0.1 0.1,0.1 h 8 c 0.055,0 0.1,-0.045 0.1,-0.1 v -3.9 c 0,-0.1 -0.1,0 0,0 h 7.8 c 0.1,0 0,-0.1 0,0 v 3.9 c 0,0.055 0.045,0.1 0.1,0.1 h 8 c 0.055,0 0.1,-0.045 0.1,-0.1 v -3.9 c 0,-0.1 -0.1,0 0,0 h 7.8 c 0.1,0 0,-0.1 0,0 v 3.9 c 0,0.055 0.045,0.1 0.1,0.1 h 8 c 0.055,0 0.1,-0.045 0.1,-0.1 v -3.9 c 0,-0.1 -0.1,0 0,0 h 7.8 c 0.1,0 0,-0.1 0,0 v 3.9 c 0,0.055 0.045,0.1 0.1,0.1 h 8 c 0.055,0 0.1,-0.045 0.1,-0.1 v -3.9 c 0,-0.1 -0.1,0 0,0 h 7.8 c 0.1,0 0,-0.1 0,0 v 3.9 c 0,0.055 0.045,0.1 0.1,0.1 h 8 c 0.055,0 0.1,-0.045 0.1,-0.1 v -3.9 c 0,-0.1 -0.1,0 0,0 h 7.8 c 0.1,0 0,-0.1 0,0 v 3.9 c 0,0.055 0.045,0.1 0.1,0.1 h 8 c 0.055,0 0.1,-0.045 0.1,-0.1 v -3.9 c 0,-0.1 -0.1,0 0,0 h 7.8 c 0.1,0 0,-0.1 0,0 v 3.9 c 0,0.055 0.045,0.1 0.1,0.1 h 8 c 0.055,0 0.1,-0.045 0.1,-0.1 v -3.9 c 0,-0.1 -0.1,0 0,0 h 7.8 c 0.1,0 0,-0.1 0,0 v 3.9 c 0,0.055 0.045,0.1 0.1,0.1 h 4 4 c 0.055,0 0.1,-0.045 0.1,-0.1 v -4 -2 c 0,-0.056 -0.045,-0.1 -0.1,-0.1 h -3.9 c -0.1,0 0,0.1 0,0 v -7.8 c 0,-0.1 -0.1,0 0,0 h 3.9 c 0.055,0 0.1,-0.045 0.1,-0.1 v -8 c 0,-0.056 -0.045,-0.1 -0.1,-0.1 h -3.9 c -0.1,0 0,0.1 0,0 v -7.8 c 0,-0.1 -0.1,0 0,0 h 3.9 c 0.055,0 0.1,-0.045 0.1,-0.1 v -8 c 0,-0.056 -0.045,-0.1 -0.1,-0.1 h -3.9 c -0.1,0 0,0.1 0,0 v -7.8 c 0,-0.1 -0.1,0 0,0 h 3.9 c 0.055,0 0.1,-0.045 0.1,-0.1 v -8 c 0,-0.056 -0.045,-0.1 -0.1,-0.1 h -3.9 c -0.1,0 0,0.1 0,0 v -7.8 c 0,-0.1 -0.1,0 0,0 h 3.9 c 0.055,0 0.1,-0.045 0.1,-0.1 v -8 c 0,-0.056 -0.045,-0.1 -0.1,-0.1 h -3.9 c -0.1,0 0,0.1 0,0 v -7.8 c 0,-0.1 -0.1,0 0,0 h 3.9 c 0.055,0 0.1,-0.045 0.1,-0.1 v -2 c 0,-0.056 -0.045,-0.1 -0.1,-0.1 h -3.959 c -0.041,0 0.03,0.029 0,0 l -46.97,-46.971 c -0.039,-0.039 -0.103,-0.039 -0.142,0 l -3.63,3.63 c -0.071,0.071 0.071,0.071 0,0 l -2.758,-2.757 c -0.039,-0.04 -0.102,-0.04 -0.141,0 l -5.657,5.656 c -0.039,0.039 -0.039,0.103 0,0.142 l 2.758,2.758 c 0.07,0.07 0.07,-0.071 0,0 l -5.516,5.515 c -0.07,0.071 0.071,0.071 0,0 l -2.757,-2.758 c -0.039,-0.039 -0.103,-0.039 -0.142,0 l -5.657,5.657 c -0.039,0.039 -0.039,0.102 0,0.141 l 2.758,2.758 c 0.071,0.071 0.071,-0.071 0,0 l -5.515,5.516 c -0.071,0.07 0.07,0.07 0,0 l -2.758,-2.758 c -0.039,-0.039 -0.103,-0.039 -0.142,0 l -5.656,5.657 c -0.039,0.039 -0.039,0.102 0,0.141 l 2.757,2.758 c 0.071,0.071 0.071,-0.071 0,0 l -5.515,5.515 c -0.071,0.071 0.071,0.071 0,0 L 320.9,527.75 c -0.039,-0.039 -0.102,-0.039 -0.141,0 l -5.657,5.656 c -0.039,0.04 -0.039,0.103 0,0.142 l 2.758,2.758 c 0.07,0.07 0.07,-0.071 0,0 l -3.601,3.601 c -0.03,0.029 0.041,0 0,0 h -3.918 c -0.041,0 0.03,0.029 0,0 l -46.97,-46.971 c -0.039,-0.039 -0.103,-0.039 -0.142,0 l -3.63,3.63 c -0.071,0.071 0.071,0.071 0,0 l -2.758,-2.757 c -0.039,-0.04 -0.102,-0.04 -0.141,0 l -5.657,5.656 c -0.039,0.039 -0.039,0.103 0,0.142 l 2.758,2.758 c 0.07,0.07 0.07,-0.071 0,0 l -5.516,5.515 c -0.07,0.071 0.071,0.071 0,0 l -2.757,-2.758 c -0.039,-0.039 -0.103,-0.039 -0.142,0 l -5.657,5.657 c -0.039,0.039 -0.039,0.102 0,0.141 l 2.758,2.758 c 0.071,0.071 0.071,-0.071 0,0 l -5.515,5.516 c -0.071,0.07 0.07,0.07 0,0 l -2.758,-2.758 c -0.039,-0.039 -0.103,-0.039 -0.142,0 l -5.656,5.657 c -0.039,0.039 -0.039,0.102 0,0.141 l 2.757,2.758 c 0.071,0.071 0.071,-0.071 0,0 l -5.515,5.515 c -0.071,0.071 0.071,0.071 0,0 L 222.9,527.75 c -0.039,-0.039 -0.102,-0.039 -0.141,0 l -5.657,5.656 c -0.039,0.04 -0.039,0.103 0,0.142 l 2.758,2.758 c 0.07,0.07 0.07,-0.071 0,0 l -3.601,3.601 c -0.03,0.029 0.041,0 0,0 H 212.3 c -0.055,0 -0.1,0.044 -0.1,0.1 v 2 c 0,0.055 0.045,0.1 0.1,0.1 h 3.9 c 0.1,0 0,-0.1 0,0 v 7.8 c 0,0.1 0.1,0 0,0 h -3.9 c -0.055,0 -0.1,0.044 -0.1,0.1 v 8 c 0,0.055 0.045,0.1 0.1,0.1 h 3.9 c 0.1,0 0,-0.1 0,0 v 7.8 c 0,0.1 0.1,0 0,0 h -3.9 c -0.055,0 -0.1,0.044 -0.1,0.1 v 8 c 0,0.055 0.045,0.1 0.1,0.1 h 3.9 c 0.1,0 0,-0.1 0,0 v 7.8 c 0,0.1 0.1,0 0,0 h -3.9 c -0.055,0 -0.1,0.044 -0.1,0.1 v 8 c 0,0.055 0.045,0.1 0.1,0.1 h 3.9 c 0.1,0 0,-0.1 0,0 v 7.8 c 0,0.1 0.1,0 0,0 h -3.9 c -0.055,0 -0.1,0.044 -0.1,0.1 v 8 c 0,0.055 0.045,0.1 0.1,0.1 h 3.9 c 0.1,0 0,-0.1 0,0 v 7.8 c 0,0.1 0.1,0 0,0 h -3.9 c -0.055,0 -0.1,0.044 -0.1,0.1 v 2 4 c 0,0.055 0.045,0.1 0.1,0.1 z"
       id="path34"
       inkscape:connector-curvature="0"
       style="stroke:#ff0000;stroke-width:0.2;stroke-opacity:1" />
  </g>
  <g
     id="p-3"
     style="fill:none;stroke-linecap:round;stroke-linejoin:round;stroke:#ff0000;stroke-opacity:1">
    <path
       d="M 314.200 480.807 V 484.707 C 314.200 484.807 314.300 484.707 314.200 484.707 H 310.400 C 310.300 484.707 310.400 484.807 310.400 484.707 V 476.907 C 310.400 476.807 310.300 476.907 310.400 476.907 H 314.200 C 314.300 476.907 314.200 476.807 314.200 476.907 V 480.807 Z"
       stroke="rgb(0,0,255)"
       stroke-width="0.20"
       id="path37"
       style="stroke:#ff0000;stroke-opacity:1" />
    <path
       d="M 314.200 464.807 V 468.707 C 314.200 468.807 314.300 468.707 314.200 468.707 H 310.400 C 310.300 468.707 310.400 468.807 310.400 468.707 V 460.907 C 310.400 460.807 310.300 460.907 310.400 460.907 H 314.200 C 314.300 460.907 314.200 460.807 314.200 460.907 V 464.807 Z"
       stroke="rgb(0,0,255)"
       stroke-width="0.20"
       id="path39"
       style="stroke:#ff0000;stroke-opacity:1" />
    <path
       d="M 314.200 448.807 V 452.707 C 314.200 452.807 314.300 452.707 314.200 452.707 H 310.400 C 310.300 452.707 310.400 452.807 310.400 452.707 V 444.907 C 310.400 444.807 310.300 444.907 310.400 444.907 H 314.200 C 314.300 444.907 314.200 444.807 314.200 444.907 V 448.807 Z"
       stroke="rgb(0,0,255)"
       stroke-width="0.20"
       id="path41"
       style="stroke:#ff0000;stroke-opacity:1" />
    <path
       d="M 314.200 432.807 V 436.707 C 314.200 436.807 314.300 436.707 314.200 436.707 H 310.400 C 310.300 436.707 310.400 436.807 310.400 436.707 V 428.907 C 310.400 428.807 310.300 428.907 310.400 428.907 H 314.200 C 314.300 428.907 314.200 428.807 314.200 428.907 V 432.807 Z"
       stroke="rgb(0,0,255)"
       stroke-width="0.20"
       id="path43"
       style="stroke:#ff0000;stroke-opacity:1" />
    <path
       d="M 314.200 416.807 V 420.707 C 314.200 420.807 314.300 420.707 314.200 420.707 H 310.400 C 310.300 420.707 310.400 420.807 310.400 420.707 V 412.907 C 310.400 412.807 310.300 412.907 310.400 412.907 H 314.200 C 314.300 412.907 314.200 412.807 314.200 412.907 V 416.807 Z"
       stroke="rgb(0,0,255)"
       stroke-width="0.20"
       id="path45"
       style="stroke:#ff0000;stroke-opacity:1" />
    <path
       d="M 216.300 490.907 H 220.300 C 220.355 490.907 220.400 490.862 220.400 490.807 V 486.907 C 220.400 486.807 220.300 486.907 220.400 486.907 H 228.200 C 228.300 486.907 228.200 486.807 228.200 486.907 V 490.807 C 228.200 490.862 228.245 490.907 228.300 490.907 H 236.300 C 236.355 490.907 236.400 490.862 236.400 490.807 V 486.907 C 236.400 486.807 236.300 486.907 236.400 486.907 H 244.200 C 244.300 486.907 244.200 486.807 244.200 486.907 V 490.807 C 244.200 490.862 244.245 490.907 244.300 490.907 H 252.300 C 252.355 490.907 252.400 490.862 252.400 490.807 V 486.907 C 252.400 486.807 252.300 486.907 252.400 486.907 H 260.200 C 260.300 486.907 260.200 486.807 260.200 486.907 V 490.807 C 260.200 490.862 260.245 490.907 260.300 490.907 H 268.300 C 268.355 490.907 268.400 490.862 268.400 490.807 V 486.907 C 268.400 486.807 268.300 486.907 268.400 486.907 H 276.200 C 276.300 486.907 276.200 486.807 276.200 486.907 V 490.807 C 276.200 490.862 276.245 490.907 276.300 490.907 H 284.300 C 284.355 490.907 284.400 490.862 284.400 490.807 V 486.907 C 284.400 486.807 284.300 486.907 284.400 486.907 H 292.200 C 292.300 486.907 292.200 486.807 292.200 486.907 V 490.807 C 292.200 490.862 292.245 490.907 292.300 490.907 H 300.300 C 300.355 490.907 300.400 490.862 300.400 490.807 V 486.907 C 300.400 486.807 300.300 486.907 300.400 486.907 H 308.200 C 308.300 486.907 308.200 486.807 308.200 486.907 V 490.807 C 308.200 490.862 308.245 490.907 308.300 490.907 H 316.300 C 316.355 490.907 316.400 490.862 316.400 490.807 V 486.907 C 316.400 486.807 316.300 486.907 316.400 486.907 H 324.200 C 324.300 486.907 324.200 486.807 324.200 486.907 V 490.807 C 324.200 490.862 324.245 490.907 324.300 490.907 H 332.300 C 332.355 490.907 332.400 490.862 332.400 490.807 V 486.907 C 332.400 486.807 332.300 486.907 332.400 486.907 H 340.200 C 340.300 486.907 340.200 486.807 340.200 486.907 V 490.807 C 340.200 490.862 340.245 490.907 340.300 490.907 H 348.300 C 348.355 490.907 348.400 490.862 348.400 490.807 V 486.907 C 348.400 486.807 348.300 486.907 348.400 486.907 H 356.200 C 356.300 486.907 356.200 486.807 356.200 486.907 V 490.807 C 356.200 490.862 356.245 490.907 356.300 490.907 H 364.300 C 364.355 490.907 364.400 490.862 364.400 490.807 V 486.907 C 364.400 486.807 364.300 486.907 364.400 486.907 H 372.200 C 372.300 486.907 372.200 486.807 372.200 486.907 V 490.807 C 372.200 490.862 372.245 490.907 372.300 490.907 H 380.300 C 380.355 490.907 380.400 490.862 380.400 490.807 V 486.907 C 380.400 486.807 380.300 486.907 380.400 486.907 H 388.200 C 388.300 486.907 388.200 486.807 388.200 486.907 V 490.807 C 388.200 490.862 388.245 490.907 388.300 490.907 H 396.300 C 396.355 490.907 396.400 490.862 396.400 490.807 V 486.907 C 396.400 486.807 396.300 486.907 396.400 486.907 H 404.200 C 404.300 486.907 404.200 486.807 404.200 486.907 V 490.807 C 404.200 490.862 404.245 490.907 404.300 490.907 H 408.300 H 412.300 C 412.355 490.907 412.400 490.862 412.400 490.807 V 486.807 V 484.807 C 412.400 484.751 412.355 484.707 412.300 484.707 H 408.400 C 408.300 484.707 408.400 484.807 408.400 484.707 V 476.907 C 408.400 476.807 408.300 476.907 408.400 476.907 H 412.300 C 412.355 476.907 412.400 476.862 412.400 476.807 V 468.807 C 412.400 468.751 412.355 468.707 412.300 468.707 H 408.400 C 408.300 468.707 408.400 468.807 408.400 468.707 V 460.907 C 408.400 460.807 408.300 460.907 408.400 460.907 H 412.300 C 412.355 460.907 412.400 460.862 412.400 460.807 V 452.807 C 412.400 452.751 412.355 452.707 412.300 452.707 H 408.400 C 408.300 452.707 408.400 452.807 408.400 452.707 V 444.907 C 408.400 444.807 408.300 444.907 408.400 444.907 H 412.300 C 412.355 444.907 412.400 444.862 412.400 444.807 V 436.807 C 412.400 436.751 412.355 436.707 412.300 436.707 H 408.400 C 408.300 436.707 408.400 436.807 408.400 436.707 V 428.907 C 408.400 428.807 408.300 428.907 408.400 428.907 H 412.300 C 412.355 428.907 412.400 428.862 412.400 428.807 V 420.807 C 412.400 420.751 412.355 420.707 412.300 420.707 H 408.400 C 408.300 420.707 408.400 420.807 408.400 420.707 V 412.907 C 408.400 412.807 408.300 412.907 408.400 412.907 H 412.300 C 412.355 412.907 412.400 412.862 412.400 412.807 V 410.807 C 412.400 410.751 412.355 410.707 412.300 410.707 H 408.341 C 408.300 410.707 408.371 410.736 408.341 410.707 L 361.371 363.736 C 361.332 363.697 361.268 363.697 361.229 363.736 L 357.599 367.366 C 357.528 367.437 357.670 367.437 357.599 367.366 L 354.841 364.609 C 354.802 364.569 354.739 364.569 354.700 364.609 L 349.043 370.265 C 349.004 370.304 349.004 370.368 349.043 370.407 L 351.801 373.165 C 351.871 373.235 351.871 373.094 351.801 373.165 L 346.285 378.680 C 346.215 378.751 346.356 378.751 346.285 378.680 L 343.528 375.922 C 343.489 375.883 343.425 375.883 343.386 375.922 L 337.729 381.579 C 337.690 381.618 337.690 381.681 337.729 381.720 L 340.487 384.478 C 340.558 384.549 340.558 384.407 340.487 384.478 L 334.972 389.994 C 334.901 390.064 335.042 390.064 334.972 389.994 L 332.214 387.236 C 332.175 387.197 332.111 387.197 332.072 387.236 L 326.416 392.893 C 326.377 392.932 326.377 392.995 326.416 393.034 L 329.173 395.792 C 329.244 395.863 329.244 395.721 329.173 395.792 L 323.658 401.307 C 323.587 401.378 323.729 401.378 323.658 401.307 L 320.900 398.550 C 320.861 398.511 320.798 398.511 320.759 398.550 L 315.102 404.206 C 315.063 404.246 315.063 404.309 315.102 404.348 L 317.860 407.106 C 317.930 407.176 317.930 407.035 317.860 407.106 L 314.259 410.707 C 314.229 410.736 314.300 410.707 314.259 410.707 H 310.341 C 310.300 410.707 310.371 410.736 310.341 410.707 L 263.371 363.736 C 263.332 363.697 263.268 363.697 263.229 363.736 L 259.599 367.366 C 259.528 367.437 259.670 367.437 259.599 367.366 L 256.841 364.609 C 256.802 364.569 256.739 364.569 256.700 364.609 L 251.043 370.265 C 251.004 370.304 251.004 370.368 251.043 370.407 L 253.801 373.165 C 253.871 373.235 253.871 373.094 253.801 373.165 L 248.285 378.680 C 248.215 378.751 248.356 378.751 248.285 378.680 L 245.528 375.922 C 245.489 375.883 245.425 375.883 245.386 375.922 L 239.729 381.579 C 239.690 381.618 239.690 381.681 239.729 381.720 L 242.487 384.478 C 242.558 384.549 242.558 384.407 242.487 384.478 L 236.972 389.994 C 236.901 390.064 237.042 390.064 236.972 389.994 L 234.214 387.236 C 234.175 387.197 234.111 387.197 234.072 387.236 L 228.416 392.893 C 228.377 392.932 228.377 392.995 228.416 393.034 L 231.173 395.792 C 231.244 395.863 231.244 395.721 231.173 395.792 L 225.658 401.307 C 225.587 401.378 225.729 401.378 225.658 401.307 L 222.900 398.550 C 222.861 398.511 222.798 398.511 222.759 398.550 L 217.102 404.206 C 217.063 404.246 217.063 404.309 217.102 404.348 L 219.860 407.106 C 219.930 407.176 219.930 407.035 219.860 407.106 L 216.259 410.707 C 216.229 410.736 216.300 410.707 216.259 410.707 H 212.300 C 212.245 410.707 212.200 410.751 212.200 410.807 V 412.807 C 212.200 412.862 212.245 412.907 212.300 412.907 H 216.200 C 216.300 412.907 216.200 412.807 216.200 412.907 V 420.707 C 216.200 420.807 216.300 420.707 216.200 420.707 H 212.300 C 212.245 420.707 212.200 420.751 212.200 420.807 V 428.807 C 212.200 428.862 212.245 428.907 212.300 428.907 H 216.200 C 216.300 428.907 216.200 428.807 216.200 428.907 V 436.707 C 216.200 436.807 216.300 436.707 216.200 436.707 H 212.300 C 212.245 436.707 212.200 436.751 212.200 436.807 V 444.807 C 212.200 444.862 212.245 444.907 212.300 444.907 H 216.200 C 216.300 444.907 216.200 444.807 216.200 444.907 V 452.707 C 216.200 452.807 216.300 452.707 216.200 452.707 H 212.300 C 212.245 452.707 212.200 452.751 212.200 452.807 V 460.807 C 212.200 460.862 212.245 460.907 212.300 460.907 H 216.200 C 216.300 460.907 216.200 460.807 216.200 460.907 V 468.707 C 216.200 468.807 216.300 468.707 216.200 468.707 H 212.300 C 212.245 468.707 212.200 468.751 212.200 468.807 V 476.807 C 212.200 476.862 212.245 476.907 212.300 476.907 H 216.200 C 216.300 476.907 216.200 476.807 216.200 476.907 V 484.707 C 216.200 484.807 216.300 484.707 216.200 484.707 H 212.300 C 212.245 484.707 212.200 484.751 212.200 484.807 V 486.807 V 490.807 C 212.200 490.862 212.245 490.907 212.300 490.907 H 216.300 Z"
       stroke="rgb(0,0,0)"
       stroke-width="0.20"
       id="path47"
       style="stroke:#ff0000;stroke-opacity:1" />
  </g>
  <g
     id="p-4"
     style="fill:none;stroke-linecap:round;stroke-linejoin:round;stroke:#ff0000;stroke-opacity:1"
     transform="translate(3.6797059,-41.703333)">
    <path
       d="m 112,480.807 v 3.9 c 0,0.1 0.1,0 0,0 h -3.8 c -0.1,0 0,0.1 0,0 v -7.8 c 0,-0.1 -0.1,0 0,0 h 3.8 c 0.1,0 0,-0.1 0,0 z"
       id="path50"
       inkscape:connector-curvature="0"
       style="stroke:#ff0000;stroke-width:0.2;stroke-opacity:1" />
    <path
       d="m 112,464.807 v 3.9 c 0,0.1 0.1,0 0,0 h -3.8 c -0.1,0 0,0.1 0,0 v -7.8 c 0,-0.1 -0.1,0 0,0 h 3.8 c 0.1,0 0,-0.1 0,0 z"
       id="path52"
       inkscape:connector-curvature="0"
       style="stroke:#ff0000;stroke-width:0.2;stroke-opacity:1" />
    <path
       d="m 112,448.807 v 3.9 c 0,0.1 0.1,0 0,0 h -3.8 c -0.1,0 0,0.1 0,0 v -7.8 c 0,-0.1 -0.1,0 0,0 h 3.8 c 0.1,0 0,-0.1 0,0 z"
       id="path54"
       inkscape:connector-curvature="0"
       style="stroke:#ff0000;stroke-width:0.2;stroke-opacity:1" />
    <path
       d="m 112,432.807 v 3.9 c 0,0.1 0.1,0 0,0 h -3.8 c -0.1,0 0,0.1 0,0 v -7.8 c 0,-0.1 -0.1,0 0,0 h 3.8 c 0.1,0 0,-0.1 0,0 z"
       id="path56"
       inkscape:connector-curvature="0"
       style="stroke:#ff0000;stroke-width:0.2;stroke-opacity:1" />
    <path
       d="m 112,416.807 v 3.9 c 0,0.1 0.1,0 0,0 h -3.8 c -0.1,0 0,0.1 0,0 v -7.8 c 0,-0.1 -0.1,0 0,0 h 3.8 c 0.1,0 0,-0.1 0,0 z"
       id="path58"
       inkscape:connector-curvature="0"
       style="stroke:#ff0000;stroke-width:0.2;stroke-opacity:1" />
    <path
       d="m 14.1,490.907 h 4 c 0.055,0 0.1,-0.045 0.1,-0.1 v -3.9 c 0,-0.1 -0.1,0 0,0 H 26 c 0.1,0 0,-0.1 0,0 v 3.9 c 0,0.055 0.045,0.1 0.1,0.1 h 8 c 0.055,0 0.1,-0.045 0.1,-0.1 v -3.9 c 0,-0.1 -0.1,0 0,0 H 42 c 0.1,0 0,-0.1 0,0 v 3.9 c 0,0.055 0.045,0.1 0.1,0.1 h 8 c 0.055,0 0.1,-0.045 0.1,-0.1 v -3.9 c 0,-0.1 -0.1,0 0,0 H 58 c 0.1,0 0,-0.1 0,0 v 3.9 c 0,0.055 0.045,0.1 0.1,0.1 h 8 c 0.055,0 0.1,-0.045 0.1,-0.1 v -3.9 c 0,-0.1 -0.1,0 0,0 H 74 c 0.1,0 0,-0.1 0,0 v 3.9 c 0,0.055 0.045,0.1 0.1,0.1 h 8 c 0.055,0 0.1,-0.045 0.1,-0.1 v -3.9 c 0,-0.1 -0.1,0 0,0 H 90 c 0.1,0 0,-0.1 0,0 v 3.9 c 0,0.055 0.045,0.1 0.1,0.1 h 8 c 0.055,0 0.1,-0.045 0.1,-0.1 v -3.9 c 0,-0.1 -0.1,0 0,0 h 7.8 c 0.1,0 0,-0.1 0,0 v 3.9 c 0,0.055 0.045,0.1 0.1,0.1 h 8 c 0.055,0 0.1,-0.045 0.1,-0.1 v -3.9 c 0,-0.1 -0.1,0 0,0 h 7.8 c 0.1,0 0,-0.1 0,0 v 3.9 c 0,0.055 0.045,0.1 0.1,0.1 h 8 c 0.055,0 0.1,-0.045 0.1,-0.1 v -3.9 c 0,-0.1 -0.1,0 0,0 h 7.8 c 0.1,0 0,-0.1 0,0 v 3.9 c 0,0.055 0.045,0.1 0.1,0.1 h 8 c 0.055,0 0.1,-0.045 0.1,-0.1 v -3.9 c 0,-0.1 -0.1,0 0,0 h 7.8 c 0.1,0 0,-0.1 0,0 v 3.9 c 0,0.055 0.045,0.1 0.1,0.1 h 8 c 0.055,0 0.1,-0.045 0.1,-0.1 v -3.9 c 0,-0.1 -0.1,0 0,0 h 7.8 c 0.1,0 0,-0.1 0,0 v 3.9 c 0,0.055 0.045,0.1 0.1,0.1 h 8 c 0.055,0 0.1,-0.045 0.1,-0.1 v -3.9 c 0,-0.1 -0.1,0 0,0 h 7.8 c 0.1,0 0,-0.1 0,0 v 3.9 c 0,0.055 0.045,0.1 0.1,0.1 h 8 c 0.055,0 0.1,-0.045 0.1,-0.1 v -3.9 c 0,-0.1 -0.1,0 0,0 h 7.8 c 0.1,0 0,-0.1 0,0 v 3.9 c 0,0.055 0.045,0.1 0.1,0.1 h 4 c 0.055,0 0.1,-0.045 0.1,-0.1 v -4 -1.9 c 0,-0.1 -0.1,0 0,0 h 3.9 c 0.055,0 0.1,-0.045 0.1,-0.1 v -8 c 0,-0.056 -0.045,-0.1 -0.1,-0.1 h -3.9 c -0.1,0 0,0.1 0,0 v -7.8 c 0,-0.1 -0.1,0 0,0 h 3.9 c 0.055,0 0.1,-0.045 0.1,-0.1 v -8 c 0,-0.056 -0.045,-0.1 -0.1,-0.1 h -3.9 c -0.1,0 0,0.1 0,0 v -7.8 c 0,-0.1 -0.1,0 0,0 h 3.9 c 0.055,0 0.1,-0.045 0.1,-0.1 v -8 c 0,-0.056 -0.045,-0.1 -0.1,-0.1 h -3.9 c -0.1,0 0,0.1 0,0 v -7.8 c 0,-0.1 -0.1,0 0,0 h 3.9 c 0.055,0 0.1,-0.045 0.1,-0.1 v -8 c 0,-0.056 -0.045,-0.1 -0.1,-0.1 h -3.9 c -0.1,0 0,0.1 0,0 v -7.8 c 0,-0.1 -0.1,0 0,0 h 3.9 c 0.055,0 0.1,-0.045 0.1,-0.1 v -8 c 0,-0.056 -0.045,-0.1 -0.1,-0.1 h -3.9 c -0.1,0 0,0.1 0,0 v -1.9 c 0,-0.056 -0.045,-0.1 -0.1,-0.1 h -192 c -0.055,0 -0.1,0.044 -0.1,0.1 v 1.9 c 0,0.1 0.1,0 0,0 h -3.9 c -0.055,0 -0.1,0.044 -0.1,0.1 v 8 c 0,0.055 0.045,0.1 0.1,0.1 H 14 c 0.1,0 0,-0.1 0,0 v 7.8 c 0,0.1 0.1,0 0,0 h -3.9 c -0.055,0 -0.1,0.044 -0.1,0.1 v 8 c 0,0.055 0.045,0.1 0.1,0.1 H 14 c 0.1,0 0,-0.1 0,0 v 7.8 c 0,0.1 0.1,0 0,0 h -3.9 c -0.055,0 -0.1,0.044 -0.1,0.1 v 8 c 0,0.055 0.045,0.1 0.1,0.1 H 14 c 0.1,0 0,-0.1 0,0 v 7.8 c 0,0.1 0.1,0 0,0 h -3.9 c -0.055,0 -0.1,0.044 -0.1,0.1 v 8 c 0,0.055 0.045,0.1 0.1,0.1 H 14 c 0.1,0 0,-0.1 0,0 v 7.8 c 0,0.1 0.1,0 0,0 h -3.9 c -0.055,0 -0.1,0.044 -0.1,0.1 v 8 c 0,0.055 0.045,0.1 0.1,0.1 H 14 c 0.1,0 0,-0.1 0,0 v 1.9 4 c 0,0.055 0.045,0.1 0.1,0.1 z"
       id="path60"
       inkscape:connector-curvature="0"
       style="stroke:#ff0000;stroke-width:0.2;stroke-opacity:1" />
  </g>
  <path
     inkscape:connector-curvature="0"
     style="fill:none;stroke:#ff0000;stroke-width:0.2;stroke-linecap:round;stroke-linejoin:round;stroke-opacity:1"
     id="path63"
     d="m 112,350.607 v 3.9 c 0,0.1 0.1,0 0,0 h -3.8 c -0.1,0 0,0.1 0,0 v -7.8 c 0,-0.1 -0.1,0 0,0 h 3.8 c 0.1,0 0,-0.1 0,0 z" />
  <path
     inkscape:connector-curvature="0"
     style="fill:none;stroke:#ff0000;stroke-width:0.2;stroke-linecap:round;stroke-linejoin:round;stroke-opacity:1"
     id="path65"
     d="m 112,334.607 v 3.9 c 0,0.1 0.1,0 0,0 h -3.8 c -0.1,0 0,0.1 0,0 v -7.8 c 0,-0.1 -0.1,0 0,0 h 3.8 c 0.1,0 0,-0.1 0,0 z" />
  <path
     inkscape:connector-curvature="0"
     style="fill:none;stroke:#ff0000;stroke-width:0.2;stroke-linecap:round;stroke-linejoin:round;stroke-opacity:1"
     id="path67"
     d="m 112,318.607 v 3.9 c 0,0.1 0.1,0 0,0 h -3.8 c -0.1,0 0,0.1 0,0 v -7.8 c 0,-0.1 -0.1,0 0,0 h 3.8 c 0.1,0 0,-0.1 0,0 z" />
  <path
     inkscape:connector-curvature="0"
     style="fill:none;stroke:#ff0000;stroke-width:0.2;stroke-linecap:round;stroke-linejoin:round;stroke-opacity:1"
     id="path69"
     d="m 112,302.607 v 3.9 c 0,0.1 0.1,0 0,0 h -3.8 c -0.1,0 0,0.1 0,0 v -7.8 c 0,-0.1 -0.1,0 0,0 h 3.8 c 0.1,0 0,-0.1 0,0 z" />
  <path
     inkscape:connector-curvature="0"
     style="fill:none;stroke:#ff0000;stroke-width:0.2;stroke-linecap:round;stroke-linejoin:round;stroke-opacity:1"
     id="path71"
     d="m 112,286.607 v 3.9 c 0,0.1 0.1,0 0,0 h -3.8 c -0.1,0 0,0.1 0,0 v -7.8 c 0,-0.1 -0.1,0 0,0 h 3.8 c 0.1,0 0,-0.1 0,0 z" />
  <path
     inkscape:connector-curvature="0"
     style="fill:none;stroke:#ff0000;stroke-width:0.2;stroke-linecap:round;stroke-linejoin:round;stroke-opacity:1"
     id="path73"
     d="m 112,270.607 v 3.9 c 0,0.1 0.1,0 0,0 h -3.8 c -0.1,0 0,0.1 0,0 v -7.8 c 0,-0.1 -0.1,0 0,0 h 3.8 c 0.1,0 0,-0.1 0,0 z" />
  <path
     inkscape:connector-curvature="0"
     style="fill:none;stroke:#ff0000;stroke-width:0.2;stroke-linecap:round;stroke-linejoin:round;stroke-opacity:1"
     id="path75"
     d="m 112,252.607 v 3.9 c 0,0.1 0.1,0 0,0 h -3.8 c -0.1,0 0,0.1 0,0 v -7.8 c 0,-0.1 -0.1,0 0,0 h 3.8 c 0.1,0 0,-0.1 0,0 z" />
  <path
     inkscape:connector-curvature="0"
     style="fill:none;stroke:#ff0000;stroke-width:0.2;stroke-linecap:round;stroke-linejoin:round;stroke-opacity:1"
     id="path77"
     d="m 112,236.607 v 3.9 c 0,0.1 0.1,0 0,0 h -3.8 c -0.1,0 0,0.1 0,0 v -7.8 c 0,-0.1 -0.1,0 0,0 h 3.8 c 0.1,0 0,-0.1 0,0 z" />
  <path
     inkscape:connector-curvature="0"
     style="fill:none;stroke:#ff0000;stroke-width:0.2;stroke-linecap:round;stroke-linejoin:round;stroke-opacity:1"
     id="path79"
     d="m 112,220.607 v 3.9 c 0,0.1 0.1,0 0,0 h -3.8 c -0.1,0 0,0.1 0,0 v -7.8 c 0,-0.1 -0.1,0 0,0 h 3.8 c 0.1,0 0,-0.1 0,0 z" />
  <path
     inkscape:connector-curvature="0"
     style="fill:none;stroke:#ff0000;stroke-width:0.2;stroke-linecap:round;stroke-linejoin:round;stroke-opacity:1"
     id="path81"
     d="m 112,204.607 v 3.9 c 0,0.1 0.1,0 0,0 h -3.8 c -0.1,0 0,0.1 0,0 v -7.8 c 0,-0.1 -0.1,0 0,0 h 3.8 c 0.1,0 0,-0.1 0,0 z" />
  <path
     inkscape:connector-curvature="0"
     style="fill:none;stroke:#ff0000;stroke-width:0.2;stroke-linecap:round;stroke-linejoin:round;stroke-opacity:1"
     id="path83"
     d="m 112,188.607 v 3.9 c 0,0.1 0.1,0 0,0 h -3.8 c -0.1,0 0,0.1 0,0 v -7.8 c 0,-0.1 -0.1,0 0,0 h 3.8 c 0.1,0 0,-0.1 0,0 z" />
  <path
     inkscape:connector-curvature="0"
     style="fill:none;stroke:#ff0000;stroke-width:0.2;stroke-linecap:round;stroke-linejoin:round;stroke-opacity:1"
     id="path85"
     d="m 112,172.607 v 3.9 c 0,0.1 0.1,0 0,0 h -3.8 c -0.1,0 0,0.1 0,0 v -7.8 c 0,-0.1 -0.1,0 0,0 h 3.8 c 0.1,0 0,-0.1 0,0 z" />
  <path
     inkscape:connector-curvature="0"
     style="fill:none;stroke:#ff0000;stroke-width:0.2;stroke-linecap:round;stroke-linejoin:round;stroke-opacity:1"
     id="path87"
     d="M 14.1,357.707 H 18 c 0.1,0 0,-0.1 0,0 v 3.9 c 0,0.055 0.045,0.1 0.1,0.1 h 8 c 0.055,0 0.1,-0.045 0.1,-0.1 v -3.9 c 0,-0.1 -0.1,0 0,0 H 34 c 0.1,0 0,-0.1 0,0 v 3.9 c 0,0.055 0.045,0.1 0.1,0.1 h 8 c 0.055,0 0.1,-0.045 0.1,-0.1 v -3.9 c 0,-0.1 -0.1,0 0,0 H 50 c 0.1,0 0,-0.1 0,0 v 3.9 c 0,0.055 0.045,0.1 0.1,0.1 h 8 c 0.055,0 0.1,-0.045 0.1,-0.1 v -3.9 c 0,-0.1 -0.1,0 0,0 H 66 c 0.1,0 0,-0.1 0,0 v 3.9 c 0,0.055 0.045,0.1 0.1,0.1 h 8 c 0.055,0 0.1,-0.045 0.1,-0.1 v -3.9 c 0,-0.1 -0.1,0 0,0 H 82 c 0.1,0 0,-0.1 0,0 v 3.9 c 0,0.055 0.045,0.1 0.1,0.1 h 8 c 0.055,0 0.1,-0.045 0.1,-0.1 v -3.9 c 0,-0.1 -0.1,0 0,0 H 98 c 0.1,0 0,-0.1 0,0 v 3.9 c 0,0.055 0.045,0.1 0.1,0.1 h 8 c 0.055,0 0.1,-0.045 0.1,-0.1 v -3.9 c 0,-0.1 -0.1,0 0,0 h 7.8 c 0.1,0 0,-0.1 0,0 v 3.9 c 0,0.055 0.045,0.1 0.1,0.1 h 8 c 0.055,0 0.1,-0.045 0.1,-0.1 v -3.9 c 0,-0.1 -0.1,0 0,0 h 7.8 c 0.1,0 0,-0.1 0,0 v 3.9 c 0,0.055 0.045,0.1 0.1,0.1 h 8 c 0.055,0 0.1,-0.045 0.1,-0.1 v -3.9 c 0,-0.1 -0.1,0 0,0 h 7.8 c 0.1,0 0,-0.1 0,0 v 3.9 c 0,0.055 0.045,0.1 0.1,0.1 h 8 c 0.055,0 0.1,-0.045 0.1,-0.1 v -3.9 c 0,-0.1 -0.1,0 0,0 h 7.8 c 0.1,0 0,-0.1 0,0 v 3.9 c 0,0.055 0.045,0.1 0.1,0.1 h 8 c 0.055,0 0.1,-0.045 0.1,-0.1 v -3.9 c 0,-0.1 -0.1,0 0,0 h 7.8 c 0.1,0 0,-0.1 0,0 v 3.9 c 0,0.055 0.045,0.1 0.1,0.1 h 8 c 0.055,0 0.1,-0.045 0.1,-0.1 v -3.9 c 0,-0.1 -0.1,0 0,0 h 7.8 c 0.1,0 0,-0.1 0,0 v 3.9 c 0,0.055 0.045,0.1 0.1,0.1 h 8 c 0.055,0 0.1,-0.045 0.1,-0.1 v -3.9 c 0,-0.1 -0.1,0 0,0 h 3.9 c 0.055,0 0.1,-0.045 0.1,-0.1 v -3.9 c 0,-0.1 -0.1,0 0,0 h 3.9 c 0.055,0 0.1,-0.045 0.1,-0.1 v -8 c 0,-0.056 -0.045,-0.1 -0.1,-0.1 h -3.9 c -0.1,0 0,0.1 0,0 v -7.8 c 0,-0.1 -0.1,0 0,0 h 3.9 c 0.055,0 0.1,-0.045 0.1,-0.1 v -8 c 0,-0.056 -0.045,-0.1 -0.1,-0.1 h -3.9 c -0.1,0 0,0.1 0,0 v -7.8 c 0,-0.1 -0.1,0 0,0 h 3.9 c 0.055,0 0.1,-0.045 0.1,-0.1 v -8 c 0,-0.056 -0.045,-0.1 -0.1,-0.1 h -3.9 c -0.1,0 0,0.1 0,0 v -7.8 c 0,-0.1 -0.1,0 0,0 h 3.9 c 0.055,0 0.1,-0.045 0.1,-0.1 v -8 c 0,-0.056 -0.045,-0.1 -0.1,-0.1 h -3.9 c -0.1,0 0,0.1 0,0 v -7.8 c 0,-0.1 -0.1,0 0,0 h 3.9 c 0.055,0 0.1,-0.045 0.1,-0.1 v -8 c 0,-0.056 -0.045,-0.1 -0.1,-0.1 h -3.9 c -0.1,0 0,0.1 0,0 v -7.8 c 0,-0.1 -0.1,0 0,0 h 3.9 c 0.055,0 0.1,-0.045 0.1,-0.1 v -8 c 0,-0.056 -0.045,-0.1 -0.1,-0.1 h -3.9 c -0.1,0 0,0.1 0,0 v -7.8 c 0,-0.1 -0.1,0 0,0 h 3.9 c 0.055,0 0.1,-0.045 0.1,-0.1 v -8 c 0,-0.056 -0.045,-0.1 -0.1,-0.1 h -3.9 c -0.1,0 0,0.1 0,0 v -7.8 c 0,-0.1 -0.1,0 0,0 h 3.9 c 0.055,0 0.1,-0.045 0.1,-0.1 v -8 c 0,-0.056 -0.045,-0.1 -0.1,-0.1 h -3.9 c -0.1,0 0,0.1 0,0 v -7.8 c 0,-0.1 -0.1,0 0,0 h 3.9 c 0.055,0 0.1,-0.045 0.1,-0.1 v -8 c 0,-0.056 -0.045,-0.1 -0.1,-0.1 h -3.9 c -0.1,0 0,0.1 0,0 v -7.8 c 0,-0.1 -0.1,0 0,0 h 3.9 c 0.055,0 0.1,-0.045 0.1,-0.1 v -8 c 0,-0.056 -0.045,-0.1 -0.1,-0.1 h -3.9 c -0.1,0 0,0.1 0,0 v -7.8 c 0,-0.1 -0.1,0 0,0 h 3.9 c 0.055,0 0.1,-0.045 0.1,-0.1 v -8 c 0,-0.056 -0.045,-0.1 -0.1,-0.1 h -3.9 c -0.1,0 0,0.1 0,0 v -7.8 c 0,-0.1 -0.1,0 0,0 h 3.9 c 0.055,0 0.1,-0.045 0.1,-0.1 v -8 c 0,-0.056 -0.045,-0.1 -0.1,-0.1 h -3.9 c -0.1,0 0,0.1 0,0 v -3.9 c 0,-0.056 -0.045,-0.1 -0.1,-0.1 h -3.9 c -0.1,0 0,0.1 0,0 v -3.9 c 0,-0.056 -0.045,-0.1 -0.1,-0.1 h -8 c -0.055,0 -0.1,0.044 -0.1,0.1 v 3.9 c 0,0.1 0.1,0 0,0 h -7.8 c -0.1,0 0,0.1 0,0 v -3.9 c 0,-0.056 -0.045,-0.1 -0.1,-0.1 h -8 c -0.055,0 -0.1,0.044 -0.1,0.1 v 3.9 c 0,0.1 0.1,0 0,0 h -7.8 c -0.1,0 0,0.1 0,0 v -3.9 c 0,-0.056 -0.045,-0.1 -0.1,-0.1 h -8 c -0.055,0 -0.1,0.044 -0.1,0.1 v 3.9 c 0,0.1 0.1,0 0,0 h -7.8 c -0.1,0 0,0.1 0,0 v -3.9 c 0,-0.056 -0.045,-0.1 -0.1,-0.1 h -8 c -0.055,0 -0.1,0.044 -0.1,0.1 v 3.9 c 0,0.1 0.1,0 0,0 h -7.8 c -0.1,0 0,0.1 0,0 v -3.9 c 0,-0.056 -0.045,-0.1 -0.1,-0.1 h -8 c -0.055,0 -0.1,0.044 -0.1,0.1 v 3.9 c 0,0.1 0.1,0 0,0 h -7.8 c -0.1,0 0,0.1 0,0 v -3.9 c 0,-0.056 -0.045,-0.1 -0.1,-0.1 h -8 c -0.055,0 -0.1,0.044 -0.1,0.1 v 3.9 c 0,0.1 0.1,0 0,0 h -7.8 c -0.1,0 0,0.1 0,0 v -3.9 c 0,-0.056 -0.045,-0.1 -0.1,-0.1 h -8 c -0.055,0 -0.1,0.044 -0.1,0.1 v 3.9 c 0,0.1 0.1,0 0,0 h -7.8 c -0.1,0 0,0.1 0,0 v -3.9 c 0,-0.056 -0.045,-0.1 -0.1,-0.1 h -8 c -0.055,0 -0.1,0.044 -0.1,0.1 v 3.9 c 0,0.1 0.1,0 0,0 h -7.8 c -0.1,0 0,0.1 0,0 v -3.9 c 0,-0.056 -0.045,-0.1 -0.1,-0.1 h -8 c -0.055,0 -0.1,0.044 -0.1,0.1 v 3.9 c 0,0.1 0.1,0 0,0 h -7.8 c -0.1,0 0,0.1 0,0 v -3.9 c 0,-0.056 -0.045,-0.1 -0.1,-0.1 h -8 c -0.055,0 -0.1,0.044 -0.1,0.1 v 3.9 c 0,0.1 0.1,0 0,0 h -7.8 c -0.1,0 0,0.1 0,0 v -3.9 c 0,-0.056 -0.045,-0.1 -0.1,-0.1 h -8 c -0.055,0 -0.1,0.044 -0.1,0.1 v 3.9 c 0,0.1 0.1,0 0,0 h -7.8 c -0.1,0 0,0.1 0,0 v -3.9 c 0,-0.056 -0.045,-0.1 -0.1,-0.1 h -8 c -0.055,0 -0.1,0.044 -0.1,0.1 v 3.9 c 0,0.1 0.1,0 0,0 h -3.9 c -0.055,0 -0.1,0.044 -0.1,0.1 v 3.9 c 0,0.1 0.1,0 0,0 h -3.9 c -0.055,0 -0.1,0.044 -0.1,0.1 v 8 c 0,0.055 0.045,0.1 0.1,0.1 H 14 c 0.1,0 0,-0.1 0,0 v 7.8 c 0,0.1 0.1,0 0,0 h -3.9 c -0.055,0 -0.1,0.044 -0.1,0.1 v 8 c 0,0.055 0.045,0.1 0.1,0.1 H 14 c 0.1,0 0,-0.1 0,0 v 7.8 c 0,0.1 0.1,0 0,0 h -3.9 c -0.055,0 -0.1,0.044 -0.1,0.1 v 8 c 0,0.055 0.045,0.1 0.1,0.1 H 14 c 0.1,0 0,-0.1 0,0 v 7.8 c 0,0.1 0.1,0 0,0 h -3.9 c -0.055,0 -0.1,0.044 -0.1,0.1 v 8 c 0,0.055 0.045,0.1 0.1,0.1 H 14 c 0.1,0 0,-0.1 0,0 v 7.8 c 0,0.1 0.1,0 0,0 h -3.9 c -0.055,0 -0.1,0.044 -0.1,0.1 v 8 c 0,0.055 0.045,0.1 0.1,0.1 H 14 c 0.1,0 0,-0.1 0,0 v 7.8 c 0,0.1 0.1,0 0,0 h -3.9 c -0.055,0 -0.1,0.044 -0.1,0.1 v 8 c 0,0.055 0.045,0.1 0.1,0.1 H 14 c 0.1,0 0,-0.1 0,0 v 7.8 c 0,0.1 0.1,0 0,0 h -3.9 c -0.055,0 -0.1,0.044 -0.1,0.1 v 8 c 0,0.055 0.045,0.1 0.1,0.1 H 14 c 0.1,0 0,-0.1 0,0 v 7.8 c 0,0.1 0.1,0 0,0 h -3.9 c -0.055,0 -0.1,0.044 -0.1,0.1 v 8 c 0,0.055 0.045,0.1 0.1,0.1 H 14 c 0.1,0 0,-0.1 0,0 v 7.8 c 0,0.1 0.1,0 0,0 h -3.9 c -0.055,0 -0.1,0.044 -0.1,0.1 v 8 c 0,0.055 0.045,0.1 0.1,0.1 H 14 c 0.1,0 0,-0.1 0,0 v 7.8 c 0,0.1 0.1,0 0,0 h -3.9 c -0.055,0 -0.1,0.044 -0.1,0.1 v 8 c 0,0.055 0.045,0.1 0.1,0.1 H 14 c 0.1,0 0,-0.1 0,0 v 7.8 c 0,0.1 0.1,0 0,0 h -3.9 c -0.055,0 -0.1,0.044 -0.1,0.1 v 8 c 0,0.055 0.045,0.1 0.1,0.1 H 14 c 0.1,0 0,-0.1 0,0 v 7.8 c 0,0.1 0.1,0 0,0 h -3.9 c -0.055,0 -0.1,0.044 -0.1,0.1 v 8 c 0,0.055 0.045,0.1 0.1,0.1 H 14 c 0.1,0 0,-0.1 0,0 v 3.9 c 0,0.055 0.045,0.1 0.1,0.1 z" />
  <path
     inkscape:connector-curvature="0"
     style="fill:none;stroke:#ff0000;stroke-width:0.2;stroke-linecap:round;stroke-linejoin:round;stroke-opacity:1"
     id="path89"
     d="m 199.1,259.707 h 3.9 c 0.1,0 0,-0.1 0,0 v 3.8 c 0,0.1 0.1,0 0,0 h -7.8 c -0.1,0 0,0.1 0,0 v -3.8 c 0,-0.1 -0.1,0 0,0 z" />
  <path
     inkscape:connector-curvature="0"
     style="fill:none;stroke:#ff0000;stroke-width:0.2;stroke-linecap:round;stroke-linejoin:round;stroke-opacity:1"
     id="path91"
     d="m 183.1,259.707 h 3.9 c 0.1,0 0,-0.1 0,0 v 3.8 c 0,0.1 0.1,0 0,0 h -7.8 c -0.1,0 0,0.1 0,0 v -3.8 c 0,-0.1 -0.1,0 0,0 z" />
  <path
     inkscape:connector-curvature="0"
     style="fill:none;stroke:#ff0000;stroke-width:0.2;stroke-linecap:round;stroke-linejoin:round;stroke-opacity:1"
     id="path93"
     d="m 167.1,259.707 h 3.9 c 0.1,0 0,-0.1 0,0 v 3.8 c 0,0.1 0.1,0 0,0 h -7.8 c -0.1,0 0,0.1 0,0 v -3.8 c 0,-0.1 -0.1,0 0,0 z" />
  <path
     inkscape:connector-curvature="0"
     style="fill:none;stroke:#ff0000;stroke-width:0.2;stroke-linecap:round;stroke-linejoin:round;stroke-opacity:1"
     id="path95"
     d="m 151.1,259.707 h 3.9 c 0.1,0 0,-0.1 0,0 v 3.8 c 0,0.1 0.1,0 0,0 h -7.8 c -0.1,0 0,0.1 0,0 v -3.8 c 0,-0.1 -0.1,0 0,0 z" />
  <path
     inkscape:connector-curvature="0"
     style="fill:none;stroke:#ff0000;stroke-width:0.2;stroke-linecap:round;stroke-linejoin:round;stroke-opacity:1"
     id="path97"
     d="m 135.1,259.707 h 3.9 c 0.1,0 0,-0.1 0,0 v 3.8 c 0,0.1 0.1,0 0,0 h -7.8 c -0.1,0 0,0.1 0,0 v -3.8 c 0,-0.1 -0.1,0 0,0 z" />
  <path
     inkscape:connector-curvature="0"
     style="fill:none;stroke:#ff0000;stroke-width:0.2;stroke-linecap:round;stroke-linejoin:round;stroke-opacity:1"
     id="path99"
     d="m 119.1,259.707 h 3.9 c 0.1,0 0,-0.1 0,0 v 3.8 c 0,0.1 0.1,0 0,0 h -7.8 c -0.1,0 0,0.1 0,0 v -3.8 c 0,-0.1 -0.1,0 0,0 z" />
  <path
     inkscape:connector-curvature="0"
     style="fill:none;stroke:#ff0000;stroke-width:0.2;stroke-linecap:round;stroke-linejoin:round;stroke-opacity:1"
     id="path101"
     d="m 101.1,259.707 h 3.9 c 0.1,0 0,-0.1 0,0 v 3.8 c 0,0.1 0.1,0 0,0 h -7.8 c -0.1,0 0,0.1 0,0 v -3.8 c 0,-0.1 -0.1,0 0,0 z" />
  <path
     inkscape:connector-curvature="0"
     style="fill:none;stroke:#ff0000;stroke-width:0.2;stroke-linecap:round;stroke-linejoin:round;stroke-opacity:1"
     id="path103"
     d="M 85.1,259.707 H 89 c 0.1,0 0,-0.1 0,0 v 3.8 c 0,0.1 0.1,0 0,0 h -7.8 c -0.1,0 0,0.1 0,0 v -3.8 c 0,-0.1 -0.1,0 0,0 z" />
  <path
     inkscape:connector-curvature="0"
     style="fill:none;stroke:#ff0000;stroke-width:0.2;stroke-linecap:round;stroke-linejoin:round;stroke-opacity:1"
     id="path105"
     d="M 69.1,259.707 H 73 c 0.1,0 0,-0.1 0,0 v 3.8 c 0,0.1 0.1,0 0,0 h -7.8 c -0.1,0 0,0.1 0,0 v -3.8 c 0,-0.1 -0.1,0 0,0 z" />
  <path
     inkscape:connector-curvature="0"
     style="fill:none;stroke:#ff0000;stroke-width:0.2;stroke-linecap:round;stroke-linejoin:round;stroke-opacity:1"
     id="path107"
     d="M 53.1,259.707 H 57 c 0.1,0 0,-0.1 0,0 v 3.8 c 0,0.1 0.1,0 0,0 h -7.8 c -0.1,0 0,0.1 0,0 v -3.8 c 0,-0.1 -0.1,0 0,0 z" />
  <path
     inkscape:connector-curvature="0"
     style="fill:none;stroke:#ff0000;stroke-width:0.2;stroke-linecap:round;stroke-linejoin:round;stroke-opacity:1"
     id="path109"
     d="M 37.1,259.707 H 41 c 0.1,0 0,-0.1 0,0 v 3.8 c 0,0.1 0.1,0 0,0 h -7.8 c -0.1,0 0,0.1 0,0 v -3.8 c 0,-0.1 -0.1,0 0,0 z" />
  <path
     inkscape:connector-curvature="0"
     style="fill:none;stroke:#ff0000;stroke-width:0.2;stroke-linecap:round;stroke-linejoin:round;stroke-opacity:1"
     id="path111"
     d="M 21.1,259.707 H 25 c 0.1,0 0,-0.1 0,0 v 3.8 c 0,0.1 0.1,0 0,0 h -7.8 c -0.1,0 0,0.1 0,0 v -3.8 c 0,-0.1 -0.1,0 0,0 z" />
  <g
     id="p-6"
     style="fill:none;stroke-linecap:round;stroke-linejoin:round;stroke:#ff0000;stroke-opacity:1">
    <path
       d="M 216.300 357.707 H 219.200 C 219.300 357.707 219.200 357.607 219.200 357.707 V 361.607 C 219.200 361.662 219.245 361.707 219.300 361.707 H 227.300 C 227.355 361.707 227.400 361.662 227.400 361.607 V 357.707 C 227.400 357.607 227.300 357.707 227.400 357.707 H 235.200 C 235.300 357.707 235.200 357.607 235.200 357.707 V 361.607 C 235.200 361.662 235.245 361.707 235.300 361.707 H 243.300 C 243.355 361.707 243.400 361.662 243.400 361.607 V 357.707 C 243.400 357.607 243.300 357.707 243.400 357.707 H 251.200 C 251.300 357.707 251.200 357.607 251.200 357.707 V 361.607 C 251.200 361.662 251.245 361.707 251.300 361.707 H 259.300 C 259.355 361.707 259.400 361.662 259.400 361.607 V 357.707 C 259.400 357.607 259.300 357.707 259.400 357.707 H 267.200 C 267.300 357.707 267.200 357.607 267.200 357.707 V 361.607 C 267.200 361.662 267.245 361.707 267.300 361.707 H 275.300 C 275.355 361.707 275.400 361.662 275.400 361.607 V 357.707 C 275.400 357.607 275.300 357.707 275.400 357.707 H 283.200 C 283.300 357.707 283.200 357.607 283.200 357.707 V 361.607 C 283.200 361.662 283.245 361.707 283.300 361.707 H 291.300 C 291.355 361.707 291.400 361.662 291.400 361.607 V 357.707 C 291.400 357.607 291.300 357.707 291.400 357.707 H 299.200 C 299.300 357.707 299.200 357.607 299.200 357.707 V 361.607 C 299.200 361.662 299.245 361.707 299.300 361.707 H 307.300 C 307.355 361.707 307.400 361.662 307.400 361.607 V 357.707 C 307.400 357.607 307.300 357.707 307.400 357.707 H 310.300 H 312.300 H 314.300 H 317.200 C 317.300 357.707 317.200 357.607 317.200 357.707 V 361.607 C 317.200 361.662 317.245 361.707 317.300 361.707 H 325.300 C 325.355 361.707 325.400 361.662 325.400 361.607 V 357.707 C 325.400 357.607 325.300 357.707 325.400 357.707 H 333.200 C 333.300 357.707 333.200 357.607 333.200 357.707 V 361.607 C 333.200 361.662 333.245 361.707 333.300 361.707 H 341.300 C 341.355 361.707 341.400 361.662 341.400 361.607 V 357.707 C 341.400 357.607 341.300 357.707 341.400 357.707 H 349.200 C 349.300 357.707 349.200 357.607 349.200 357.707 V 361.607 C 349.200 361.662 349.245 361.707 349.300 361.707 H 357.300 C 357.355 361.707 357.400 361.662 357.400 361.607 V 357.707 C 357.400 357.607 357.300 357.707 357.400 357.707 H 365.200 C 365.300 357.707 365.200 357.607 365.200 357.707 V 361.607 C 365.200 361.662 365.245 361.707 365.300 361.707 H 373.300 C 373.355 361.707 373.400 361.662 373.400 361.607 V 357.707 C 373.400 357.607 373.300 357.707 373.400 357.707 H 381.200 C 381.300 357.707 381.200 357.607 381.200 357.707 V 361.607 C 381.200 361.662 381.245 361.707 381.300 361.707 H 389.300 C 389.355 361.707 389.400 361.662 389.400 361.607 V 357.707 C 389.400 357.607 389.300 357.707 389.400 357.707 H 397.200 C 397.300 357.707 397.200 357.607 397.200 357.707 V 361.607 C 397.200 361.662 397.245 361.707 397.300 361.707 H 405.300 C 405.355 361.707 405.400 361.662 405.400 361.607 V 357.707 C 405.400 357.607 405.300 357.707 405.400 357.707 H 408.300 C 408.355 357.707 408.400 357.662 408.400 357.607 V 355.707 C 408.400 355.607 408.300 355.707 408.400 355.707 H 412.300 C 412.355 355.707 412.400 355.662 412.400 355.607 V 347.607 C 412.400 347.551 412.355 347.507 412.300 347.507 H 408.400 C 408.300 347.507 408.400 347.607 408.400 347.507 V 339.707 C 408.400 339.607 408.300 339.707 408.400 339.707 H 412.300 C 412.355 339.707 412.400 339.662 412.400 339.607 V 331.607 C 412.400 331.551 412.355 331.507 412.300 331.507 H 408.400 C 408.300 331.507 408.400 331.607 408.400 331.507 V 323.707 C 408.400 323.607 408.300 323.707 408.400 323.707 H 412.300 C 412.355 323.707 412.400 323.662 412.400 323.607 V 315.607 C 412.400 315.551 412.355 315.507 412.300 315.507 H 408.400 C 408.300 315.507 408.400 315.607 408.400 315.507 V 307.707 C 408.400 307.607 408.300 307.707 408.400 307.707 H 412.300 C 412.355 307.707 412.400 307.662 412.400 307.607 V 299.607 C 412.400 299.551 412.355 299.507 412.300 299.507 H 408.400 C 408.300 299.507 408.400 299.607 408.400 299.507 V 291.707 C 408.400 291.607 408.300 291.707 408.400 291.707 H 412.300 C 412.355 291.707 412.400 291.662 412.400 291.607 V 283.607 C 412.400 283.551 412.355 283.507 412.300 283.507 H 408.400 C 408.300 283.507 408.400 283.607 408.400 283.507 V 281.607 C 408.400 281.551 408.355 281.507 408.300 281.507 C 408.327 281.507 408.352 281.517 408.371 281.536 L 361.371 234.536 C 361.332 234.497 361.268 234.497 361.229 234.536 L 357.599 238.166 C 357.528 238.237 357.670 238.237 357.599 238.166 L 354.841 235.409 C 354.802 235.369 354.739 235.369 354.700 235.409 L 349.043 241.065 C 349.004 241.104 349.004 241.168 349.043 241.207 L 351.801 243.965 C 351.871 244.035 351.871 243.894 351.801 243.965 L 346.285 249.480 C 346.215 249.551 346.356 249.551 346.285 249.480 L 343.528 246.722 C 343.489 246.683 343.425 246.683 343.386 246.722 L 337.729 252.379 C 337.690 252.418 337.690 252.481 337.729 252.520 L 340.487 255.278 C 340.558 255.349 340.558 255.207 340.487 255.278 L 334.972 260.794 C 334.901 260.864 335.042 260.864 334.972 260.794 L 332.214 258.036 C 332.175 257.997 332.111 257.997 332.072 258.036 L 326.416 263.693 C 326.377 263.732 326.377 263.795 326.416 263.834 L 329.173 266.592 C 329.244 266.663 329.244 266.521 329.173 266.592 L 323.658 272.107 C 323.587 272.178 323.729 272.178 323.658 272.107 L 320.900 269.350 C 320.861 269.311 320.798 269.311 320.759 269.350 L 315.102 275.006 C 315.063 275.046 315.063 275.109 315.102 275.148 L 317.860 277.906 C 317.930 277.976 317.930 277.835 317.860 277.906 L 314.229 281.536 C 314.211 281.555 314.200 281.580 314.200 281.607 V 319.507 C 314.200 319.607 314.300 319.507 314.200 319.507 H 310.400 C 310.300 319.507 310.400 319.607 310.400 319.507 V 281.607 C 310.400 281.580 310.389 281.555 310.371 281.536 L 263.371 234.536 C 263.332 234.497 263.268 234.497 263.229 234.536 L 259.599 238.166 C 259.528 238.237 259.670 238.237 259.599 238.166 L 256.841 235.409 C 256.802 235.369 256.739 235.369 256.700 235.409 L 251.043 241.065 C 251.004 241.104 251.004 241.168 251.043 241.207 L 253.801 243.965 C 253.871 244.035 253.871 243.894 253.801 243.965 L 248.285 249.480 C 248.215 249.551 248.356 249.551 248.285 249.480 L 245.528 246.722 C 245.489 246.683 245.425 246.683 245.386 246.722 L 239.729 252.379 C 239.690 252.418 239.690 252.481 239.729 252.520 L 242.487 255.278 C 242.558 255.349 242.558 255.207 242.487 255.278 L 236.972 260.794 C 236.901 260.864 237.042 260.864 236.972 260.794 L 234.214 258.036 C 234.175 257.997 234.111 257.997 234.072 258.036 L 228.416 263.693 C 228.377 263.732 228.377 263.795 228.416 263.834 L 231.173 266.592 C 231.244 266.663 231.244 266.521 231.173 266.592 L 225.658 272.107 C 225.587 272.178 225.729 272.178 225.658 272.107 L 222.900 269.350 C 222.861 269.311 222.798 269.311 222.759 269.350 L 217.102 275.006 C 217.063 275.046 217.063 275.109 217.102 275.148 L 219.860 277.906 C 219.930 277.976 219.930 277.835 219.860 277.906 L 216.229 281.536 C 216.248 281.517 216.273 281.507 216.300 281.507 C 216.245 281.507 216.200 281.551 216.200 281.607 V 283.507 C 216.200 283.607 216.300 283.507 216.200 283.507 H 212.300 C 212.245 283.507 212.200 283.551 212.200 283.607 V 291.607 C 212.200 291.662 212.245 291.707 212.300 291.707 H 216.200 C 216.300 291.707 216.200 291.607 216.200 291.707 V 299.507 C 216.200 299.607 216.300 299.507 216.200 299.507 H 212.300 C 212.245 299.507 212.200 299.551 212.200 299.607 V 307.607 C 212.200 307.662 212.245 307.707 212.300 307.707 H 216.200 C 216.300 307.707 216.200 307.607 216.200 307.707 V 315.507 C 216.200 315.607 216.300 315.507 216.200 315.507 H 212.300 C 212.245 315.507 212.200 315.551 212.200 315.607 V 323.607 C 212.200 323.662 212.245 323.707 212.300 323.707 H 216.200 C 216.300 323.707 216.200 323.607 216.200 323.707 V 331.507 C 216.200 331.607 216.300 331.507 216.200 331.507 H 212.300 C 212.245 331.507 212.200 331.551 212.200 331.607 V 339.607 C 212.200 339.662 212.245 339.707 212.300 339.707 H 216.200 C 216.300 339.707 216.200 339.607 216.200 339.707 V 347.507 C 216.200 347.607 216.300 347.507 216.200 347.507 H 212.300 C 212.245 347.507 212.200 347.551 212.200 347.607 V 355.607 C 212.200 355.662 212.245 355.707 212.300 355.707 H 216.200 C 216.300 355.707 216.200 355.607 216.200 355.707 V 357.607 C 216.200 357.662 216.245 357.707 216.300 357.707 Z"
       stroke="rgb(0,0,0)"
       stroke-width="0.20"
       id="path114"
       style="stroke:#ff0000;stroke-opacity:1" />
  </g>
  <g
     id="p-7"
     style="fill:none;stroke-linecap:round;stroke-linejoin:round;stroke:#ff0000;stroke-opacity:1">
    <path
       d="M 216.300 228.507 H 219.200 C 219.300 228.507 219.200 228.407 219.200 228.507 V 232.407 C 219.200 232.462 219.245 232.507 219.300 232.507 H 227.300 C 227.355 232.507 227.400 232.462 227.400 232.407 V 228.507 C 227.400 228.407 227.300 228.507 227.400 228.507 H 235.200 C 235.300 228.507 235.200 228.407 235.200 228.507 V 232.407 C 235.200 232.462 235.245 232.507 235.300 232.507 H 243.300 C 243.355 232.507 243.400 232.462 243.400 232.407 V 228.507 C 243.400 228.407 243.300 228.507 243.400 228.507 H 251.200 C 251.300 228.507 251.200 228.407 251.200 228.507 V 232.407 C 251.200 232.462 251.245 232.507 251.300 232.507 H 259.300 C 259.355 232.507 259.400 232.462 259.400 232.407 V 228.507 C 259.400 228.407 259.300 228.507 259.400 228.507 H 267.200 C 267.300 228.507 267.200 228.407 267.200 228.507 V 232.407 C 267.200 232.462 267.245 232.507 267.300 232.507 H 275.300 C 275.355 232.507 275.400 232.462 275.400 232.407 V 228.507 C 275.400 228.407 275.300 228.507 275.400 228.507 H 283.200 C 283.300 228.507 283.200 228.407 283.200 228.507 V 232.407 C 283.200 232.462 283.245 232.507 283.300 232.507 H 291.300 C 291.355 232.507 291.400 232.462 291.400 232.407 V 228.507 C 291.400 228.407 291.300 228.507 291.400 228.507 H 299.200 C 299.300 228.507 299.200 228.407 299.200 228.507 V 232.407 C 299.200 232.462 299.245 232.507 299.300 232.507 H 307.300 C 307.355 232.507 307.400 232.462 307.400 232.407 V 228.507 C 307.400 228.407 307.300 228.507 307.400 228.507 H 310.300 C 310.355 228.507 310.400 228.462 310.400 228.407 V 190.507 C 310.400 190.407 310.300 190.507 310.400 190.507 H 314.200 C 314.300 190.507 314.200 190.407 314.200 190.507 V 228.407 C 314.200 228.462 314.245 228.507 314.300 228.507 H 317.200 C 317.300 228.507 317.200 228.407 317.200 228.507 V 232.407 C 317.200 232.462 317.245 232.507 317.300 232.507 H 325.300 C 325.355 232.507 325.400 232.462 325.400 232.407 V 228.507 C 325.400 228.407 325.300 228.507 325.400 228.507 H 333.200 C 333.300 228.507 333.200 228.407 333.200 228.507 V 232.407 C 333.200 232.462 333.245 232.507 333.300 232.507 H 341.300 C 341.355 232.507 341.400 232.462 341.400 232.407 V 228.507 C 341.400 228.407 341.300 228.507 341.400 228.507 H 349.200 C 349.300 228.507 349.200 228.407 349.200 228.507 V 232.407 C 349.200 232.462 349.245 232.507 349.300 232.507 H 357.300 C 357.355 232.507 357.400 232.462 357.400 232.407 V 228.507 C 357.400 228.407 357.300 228.507 357.400 228.507 H 365.200 C 365.300 228.507 365.200 228.407 365.200 228.507 V 232.407 C 365.200 232.462 365.245 232.507 365.300 232.507 H 373.300 C 373.355 232.507 373.400 232.462 373.400 232.407 V 228.507 C 373.400 228.407 373.300 228.507 373.400 228.507 H 381.200 C 381.300 228.507 381.200 228.407 381.200 228.507 V 232.407 C 381.200 232.462 381.245 232.507 381.300 232.507 H 389.300 C 389.355 232.507 389.400 232.462 389.400 232.407 V 228.507 C 389.400 228.407 389.300 228.507 389.400 228.507 H 397.200 C 397.300 228.507 397.200 228.407 397.200 228.507 V 232.407 C 397.200 232.462 397.245 232.507 397.300 232.507 H 405.300 C 405.355 232.507 405.400 232.462 405.400 232.407 V 228.507 C 405.400 228.407 405.300 228.507 405.400 228.507 H 408.300 C 408.355 228.507 408.400 228.462 408.400 228.407 V 226.507 C 408.400 226.407 408.300 226.507 408.400 226.507 H 412.300 C 412.355 226.507 412.400 226.462 412.400 226.407 V 218.407 C 412.400 218.351 412.355 218.307 412.300 218.307 H 408.400 C 408.300 218.307 408.400 218.407 408.400 218.307 V 210.507 C 408.400 210.407 408.300 210.507 408.400 210.507 H 412.300 C 412.355 210.507 412.400 210.462 412.400 210.407 V 202.407 C 412.400 202.351 412.355 202.307 412.300 202.307 H 408.400 C 408.300 202.307 408.400 202.407 408.400 202.307 V 194.507 C 408.400 194.407 408.300 194.507 408.400 194.507 H 412.300 C 412.355 194.507 412.400 194.462 412.400 194.407 V 186.407 C 412.400 186.351 412.355 186.307 412.300 186.307 H 408.400 C 408.300 186.307 408.400 186.407 408.400 186.307 V 178.507 C 408.400 178.407 408.300 178.507 408.400 178.507 H 412.300 C 412.355 178.507 412.400 178.462 412.400 178.407 V 170.407 C 412.400 170.351 412.355 170.307 412.300 170.307 H 408.400 C 408.300 170.307 408.400 170.407 408.400 170.307 V 162.507 C 408.400 162.407 408.300 162.507 408.400 162.507 H 412.300 C 412.355 162.507 412.400 162.462 412.400 162.407 V 154.407 C 412.400 154.351 412.355 154.307 412.300 154.307 H 408.400 C 408.300 154.307 408.400 154.407 408.400 154.307 V 152.407 V 150.750 C 408.400 150.695 408.355 150.650 408.300 150.650 H 397.300 C 397.245 150.650 397.200 150.695 397.200 150.750 V 153.478 C 397.200 153.578 397.300 153.478 397.200 153.478 H 389.400 C 389.300 153.478 389.400 153.578 389.400 153.478 V 150.750 C 389.400 150.695 389.355 150.650 389.300 150.650 H 381.300 C 381.245 150.650 381.200 150.695 381.200 150.750 V 153.478 C 381.200 153.578 381.300 153.478 381.200 153.478 H 373.400 C 373.300 153.478 373.400 153.578 373.400 153.478 V 150.750 C 373.400 150.695 373.355 150.650 373.300 150.650 H 365.300 C 365.245 150.650 365.200 150.695 365.200 150.750 V 153.478 C 365.200 153.578 365.300 153.478 365.200 153.478 H 357.400 C 357.300 153.478 357.400 153.578 357.400 153.478 V 150.750 C 357.400 150.695 357.355 150.650 357.300 150.650 H 349.300 C 349.245 150.650 349.200 150.695 349.200 150.750 V 153.478 C 349.200 153.578 349.300 153.478 349.200 153.478 H 341.400 C 341.300 153.478 341.400 153.578 341.400 153.478 V 150.750 C 341.400 150.695 341.355 150.650 341.300 150.650 H 333.300 C 333.245 150.650 333.200 150.695 333.200 150.750 V 153.478 C 333.200 153.578 333.300 153.478 333.200 153.478 H 325.400 C 325.300 153.478 325.400 153.578 325.400 153.478 V 150.750 C 325.400 150.695 325.355 150.650 325.300 150.650 H 314.300 H 312.300 H 310.300 H 299.300 C 299.245 150.650 299.200 150.695 299.200 150.750 V 153.478 C 299.200 153.578 299.300 153.478 299.200 153.478 H 291.400 C 291.300 153.478 291.400 153.578 291.400 153.478 V 150.750 C 291.400 150.695 291.355 150.650 291.300 150.650 H 283.300 C 283.245 150.650 283.200 150.695 283.200 150.750 V 153.478 C 283.200 153.578 283.300 153.478 283.200 153.478 H 275.400 C 275.300 153.478 275.400 153.578 275.400 153.478 V 150.750 C 275.400 150.695 275.355 150.650 275.300 150.650 H 267.300 C 267.245 150.650 267.200 150.695 267.200 150.750 V 153.478 C 267.200 153.578 267.300 153.478 267.200 153.478 H 259.400 C 259.300 153.478 259.400 153.578 259.400 153.478 V 150.750 C 259.400 150.695 259.355 150.650 259.300 150.650 H 251.300 C 251.245 150.650 251.200 150.695 251.200 150.750 V 153.478 C 251.200 153.578 251.300 153.478 251.200 153.478 H 243.400 C 243.300 153.478 243.400 153.578 243.400 153.478 V 150.750 C 243.400 150.695 243.355 150.650 243.300 150.650 H 235.300 C 235.245 150.650 235.200 150.695 235.200 150.750 V 153.478 C 235.200 153.578 235.300 153.478 235.200 153.478 H 227.400 C 227.300 153.478 227.400 153.578 227.400 153.478 V 150.750 C 227.400 150.695 227.355 150.650 227.300 150.650 H 216.300 C 216.245 150.650 216.200 150.695 216.200 150.750 V 152.407 V 154.307 C 216.200 154.407 216.300 154.307 216.200 154.307 H 212.300 C 212.245 154.307 212.200 154.351 212.200 154.407 V 162.407 C 212.200 162.462 212.245 162.507 212.300 162.507 H 216.200 C 216.300 162.507 216.200 162.407 216.200 162.507 V 170.307 C 216.200 170.407 216.300 170.307 216.200 170.307 H 212.300 C 212.245 170.307 212.200 170.351 212.200 170.407 V 178.407 C 212.200 178.462 212.245 178.507 212.300 178.507 H 216.200 C 216.300 178.507 216.200 178.407 216.200 178.507 V 186.307 C 216.200 186.407 216.300 186.307 216.200 186.307 H 212.300 C 212.245 186.307 212.200 186.351 212.200 186.407 V 194.407 C 212.200 194.462 212.245 194.507 212.300 194.507 H 216.200 C 216.300 194.507 216.200 194.407 216.200 194.507 V 202.307 C 216.200 202.407 216.300 202.307 216.200 202.307 H 212.300 C 212.245 202.307 212.200 202.351 212.200 202.407 V 210.407 C 212.200 210.462 212.245 210.507 212.300 210.507 H 216.200 C 216.300 210.507 216.200 210.407 216.200 210.507 V 218.307 C 216.200 218.407 216.300 218.307 216.200 218.307 H 212.300 C 212.245 218.307 212.200 218.351 212.200 218.407 V 226.407 C 212.200 226.462 212.245 226.507 212.300 226.507 H 216.200 C 216.300 226.507 216.200 226.407 216.200 226.507 V 228.407 C 216.200 228.462 216.245 228.507 216.300 228.507 Z"
       stroke="rgb(0,0,0)"
       stroke-width="0.20"
       id="path117"
       style="stroke:#ff0000;stroke-opacity:1" />
  </g>
  <g
     id="p-8"
     style="fill:none;stroke-linecap:round;stroke-linejoin:round;stroke:#ff0000;stroke-opacity:1">
    <path
       d="M 314.200 137.659 V 141.559 C 314.200 141.659 314.300 141.559 314.200 141.559 H 310.400 C 310.300 141.559 310.400 141.659 310.400 141.559 V 133.759 C 310.400 133.659 310.300 133.759 310.400 133.759 H 314.200 C 314.300 133.759 314.200 133.659 314.200 133.759 V 137.659 Z"
       stroke="rgb(0,0,255)"
       stroke-width="0.20"
       id="path120"
       style="stroke:#ff0000;stroke-opacity:1" />
    <path
       d="M 314.200 121.659 V 125.559 C 314.200 125.659 314.300 125.559 314.200 125.559 H 310.400 C 310.300 125.559 310.400 125.659 310.400 125.559 V 117.759 C 310.400 117.659 310.300 117.759 310.400 117.759 H 314.200 C 314.300 117.759 314.200 117.659 314.200 117.759 V 121.659 Z"
       stroke="rgb(0,0,255)"
       stroke-width="0.20"
       id="path122"
       style="stroke:#ff0000;stroke-opacity:1" />
    <path
       d="M 314.200 105.659 V 109.559 C 314.200 109.659 314.300 109.559 314.200 109.559 H 310.400 C 310.300 109.559 310.400 109.659 310.400 109.559 V 101.759 C 310.400 101.659 310.300 101.759 310.400 101.759 H 314.200 C 314.300 101.759 314.200 101.659 314.200 101.759 V 105.659 Z"
       stroke="rgb(0,0,255)"
       stroke-width="0.20"
       id="path124"
       style="stroke:#ff0000;stroke-opacity:1" />
    <path
       d="M 314.200 89.659 V 93.559 C 314.200 93.659 314.300 93.559 314.200 93.559 H 310.400 C 310.300 93.559 310.400 93.659 310.400 93.559 V 85.759 C 310.400 85.659 310.300 85.759 310.400 85.759 H 314.200 C 314.300 85.759 314.200 85.659 314.200 85.759 V 89.659 Z"
       stroke="rgb(0,0,255)"
       stroke-width="0.20"
       id="path126"
       style="stroke:#ff0000;stroke-opacity:1" />
    <path
       d="M 216.300 145.821 H 227.200 C 227.300 145.821 227.200 145.721 227.200 145.821 V 148.550 C 227.200 148.605 227.245 148.650 227.300 148.650 H 235.300 C 235.355 148.650 235.400 148.605 235.400 148.550 V 145.821 C 235.400 145.721 235.300 145.821 235.400 145.821 H 243.200 C 243.300 145.821 243.200 145.721 243.200 145.821 V 148.550 C 243.200 148.605 243.245 148.650 243.300 148.650 H 251.300 C 251.355 148.650 251.400 148.605 251.400 148.550 V 145.821 C 251.400 145.721 251.300 145.821 251.400 145.821 H 259.200 C 259.300 145.821 259.200 145.721 259.200 145.821 V 148.550 C 259.200 148.605 259.245 148.650 259.300 148.650 H 267.300 C 267.355 148.650 267.400 148.605 267.400 148.550 V 145.821 C 267.400 145.721 267.300 145.821 267.400 145.821 H 275.200 C 275.300 145.821 275.200 145.721 275.200 145.821 V 148.550 C 275.200 148.605 275.245 148.650 275.300 148.650 H 283.300 C 283.355 148.650 283.400 148.605 283.400 148.550 V 145.821 C 283.400 145.721 283.300 145.821 283.400 145.821 H 291.200 C 291.300 145.821 291.200 145.721 291.200 145.821 V 148.550 C 291.200 148.605 291.245 148.650 291.300 148.650 H 299.300 C 299.355 148.650 299.400 148.605 299.400 148.550 V 145.821 C 299.400 145.721 299.300 145.821 299.400 145.821 H 310.300 H 312.300 H 314.300 H 325.200 C 325.300 145.821 325.200 145.721 325.200 145.821 V 148.550 C 325.200 148.605 325.245 148.650 325.300 148.650 H 333.300 C 333.355 148.650 333.400 148.605 333.400 148.550 V 145.821 C 333.400 145.721 333.300 145.821 333.400 145.821 H 341.200 C 341.300 145.821 341.200 145.721 341.200 145.821 V 148.550 C 341.200 148.605 341.245 148.650 341.300 148.650 H 349.300 C 349.355 148.650 349.400 148.605 349.400 148.550 V 145.821 C 349.400 145.721 349.300 145.821 349.400 145.821 H 357.200 C 357.300 145.821 357.200 145.721 357.200 145.821 V 148.550 C 357.200 148.605 357.245 148.650 357.300 148.650 H 365.300 C 365.355 148.650 365.400 148.605 365.400 148.550 V 145.821 C 365.400 145.721 365.300 145.821 365.400 145.821 H 373.200 C 373.300 145.821 373.200 145.721 373.200 145.821 V 148.550 C 373.200 148.605 373.245 148.650 373.300 148.650 H 381.300 C 381.355 148.650 381.400 148.605 381.400 148.550 V 145.821 C 381.400 145.721 381.300 145.821 381.400 145.821 H 389.200 C 389.300 145.821 389.200 145.721 389.200 145.821 V 148.550 C 389.200 148.605 389.245 148.650 389.300 148.650 H 397.300 C 397.355 148.650 397.400 148.605 397.400 148.550 V 145.821 C 397.400 145.721 397.300 145.821 397.400 145.821 H 408.300 H 412.300 C 412.355 145.821 412.400 145.777 412.400 145.721 V 146.893 V 141.659 C 412.400 141.604 412.355 141.559 412.300 141.559 H 408.400 C 408.300 141.559 408.400 141.659 408.400 141.559 V 133.759 C 408.400 133.659 408.300 133.759 408.400 133.759 H 412.300 C 412.355 133.759 412.400 133.714 412.400 133.659 V 125.659 C 412.400 125.604 412.355 125.559 412.300 125.559 H 408.400 C 408.300 125.559 408.400 125.659 408.400 125.559 V 117.759 C 408.400 117.659 408.300 117.759 408.400 117.759 H 412.300 C 412.355 117.759 412.400 117.714 412.400 117.659 V 109.659 C 412.400 109.604 412.355 109.559 412.300 109.559 H 408.400 C 408.300 109.559 408.400 109.659 408.400 109.559 V 101.759 C 408.400 101.659 408.300 101.759 408.400 101.759 H 412.300 C 412.355 101.759 412.400 101.714 412.400 101.659 V 93.659 C 412.400 93.604 412.355 93.559 412.300 93.559 H 408.400 C 408.300 93.559 408.400 93.659 408.400 93.559 V 85.759 C 408.400 85.659 408.300 85.759 408.400 85.759 H 412.300 C 412.355 85.759 412.400 85.714 412.400 85.659 V 80.425 C 412.400 80.370 412.355 80.325 412.300 80.325 H 408.300 H 216.300 H 212.300 C 212.245 80.325 212.200 80.370 212.200 80.425 V 85.659 C 212.200 85.714 212.245 85.759 212.300 85.759 H 216.200 C 216.300 85.759 216.200 85.659 216.200 85.759 V 93.559 C 216.200 93.659 216.300 93.559 216.200 93.559 H 212.300 C 212.245 93.559 212.200 93.604 212.200 93.659 V 101.659 C 212.200 101.714 212.245 101.759 212.300 101.759 H 216.200 C 216.300 101.759 216.200 101.659 216.200 101.759 V 109.559 C 216.200 109.659 216.300 109.559 216.200 109.559 H 212.300 C 212.245 109.559 212.200 109.604 212.200 109.659 V 117.659 C 212.200 117.714 212.245 117.759 212.300 117.759 H 216.200 C 216.300 117.759 216.200 117.659 216.200 117.759 V 125.559 C 216.200 125.659 216.300 125.559 216.200 125.559 H 212.300 C 212.245 125.559 212.200 125.604 212.200 125.659 V 133.659 C 212.200 133.714 212.245 133.759 212.300 133.759 H 216.200 C 216.300 133.759 216.200 133.659 216.200 133.759 V 141.559 C 216.200 141.659 216.300 141.559 216.200 141.559 H 212.300 C 212.245 141.559 212.200 141.604 212.200 141.659 V 146.893 V 145.721 C 212.200 145.777 212.245 145.821 212.300 145.821 H 216.300 Z"
       stroke="rgb(0,0,0)"
       stroke-width="0.20"
       id="path128"
       style="stroke:#ff0000;stroke-opacity:1" />
  </g>
  <g
     id="p-9"
     style="fill:none;stroke-linecap:round;stroke-linejoin:round;stroke:#ff0000;stroke-opacity:1"
     transform="translate(-204.83696,71.549837)">
    <path
       d="m 314.2,67.334 v 3.9 c 0,0.1 0.1,0 0,0 h -3.8 c -0.1,0 0,0.1 0,0 v -7.8 c 0,-0.1 -0.1,0 0,0 h 3.8 c 0.1,0 0,-0.1 0,0 z"
       id="path131"
       inkscape:connector-curvature="0"
       style="stroke:#ff0000;stroke-width:0.2;stroke-opacity:1" />
    <path
       d="m 314.2,51.334 v 3.9 c 0,0.1 0.1,0 0,0 h -3.8 c -0.1,0 0,0.1 0,0 v -7.8 c 0,-0.1 -0.1,0 0,0 h 3.8 c 0.1,0 0,-0.1 0,0 z"
       id="path133"
       inkscape:connector-curvature="0"
       style="stroke:#ff0000;stroke-width:0.2;stroke-opacity:1" />
    <path
       d="m 314.2,35.334 v 3.9 c 0,0.1 0.1,0 0,0 h -3.8 c -0.1,0 0,0.1 0,0 v -7.8 c 0,-0.1 -0.1,0 0,0 h 3.8 c 0.1,0 0,-0.1 0,0 z"
       id="path135"
       inkscape:connector-curvature="0"
       style="stroke:#ff0000;stroke-width:0.2;stroke-opacity:1" />
    <path
       d="m 314.2,19.334 v 3.9 c 0,0.1 0.1,0 0,0 h -3.8 c -0.1,0 0,0.1 0,0 v -7.8 c 0,-0.1 -0.1,0 0,0 h 3.8 c 0.1,0 0,-0.1 0,0 z"
       id="path137"
       inkscape:connector-curvature="0"
       style="stroke:#ff0000;stroke-width:0.2;stroke-opacity:1" />
    <path
       d="m 216.3,75.496 h 10.9 c 0.1,0 0,-0.1 0,0 v 2.729 c 0,0.055 0.045,0.1 0.1,0.1 h 8 c 0.055,0 0.1,-0.045 0.1,-0.1 v -2.729 c 0,-0.1 -0.1,0 0,0 h 7.8 c 0.1,0 0,-0.1 0,0 v 2.729 c 0,0.055 0.045,0.1 0.1,0.1 h 8 c 0.055,0 0.1,-0.045 0.1,-0.1 v -2.729 c 0,-0.1 -0.1,0 0,0 h 7.8 c 0.1,0 0,-0.1 0,0 v 2.729 c 0,0.055 0.045,0.1 0.1,0.1 h 8 c 0.055,0 0.1,-0.045 0.1,-0.1 v -2.729 c 0,-0.1 -0.1,0 0,0 h 7.8 c 0.1,0 0,-0.1 0,0 v 2.729 c 0,0.055 0.045,0.1 0.1,0.1 h 8 c 0.055,0 0.1,-0.045 0.1,-0.1 v -2.729 c 0,-0.1 -0.1,0 0,0 h 7.8 c 0.1,0 0,-0.1 0,0 v 2.729 c 0,0.055 0.045,0.1 0.1,0.1 h 8 c 0.055,0 0.1,-0.045 0.1,-0.1 v -2.729 c 0,-0.1 -0.1,0 0,0 h 10.9 2 2 10.9 c 0.1,0 0,-0.1 0,0 v 2.729 c 0,0.055 0.045,0.1 0.1,0.1 h 8 c 0.055,0 0.1,-0.045 0.1,-0.1 v -2.729 c 0,-0.1 -0.1,0 0,0 h 7.8 c 0.1,0 0,-0.1 0,0 v 2.729 c 0,0.055 0.045,0.1 0.1,0.1 h 8 c 0.055,0 0.1,-0.045 0.1,-0.1 v -2.729 c 0,-0.1 -0.1,0 0,0 h 7.8 c 0.1,0 0,-0.1 0,0 v 2.729 c 0,0.055 0.045,0.1 0.1,0.1 h 8 c 0.055,0 0.1,-0.045 0.1,-0.1 v -2.729 c 0,-0.1 -0.1,0 0,0 h 7.8 c 0.1,0 0,-0.1 0,0 v 2.729 c 0,0.055 0.045,0.1 0.1,0.1 h 8 c 0.055,0 0.1,-0.045 0.1,-0.1 v -2.729 c 0,-0.1 -0.1,0 0,0 h 7.8 c 0.1,0 0,-0.1 0,0 v 2.729 c 0,0.055 0.045,0.1 0.1,0.1 h 8 c 0.055,0 0.1,-0.045 0.1,-0.1 v -2.729 c 0,-0.1 -0.1,0 0,0 h 10.9 4 c 0.055,0 0.1,-0.044 0.1,-0.1 v 1.172 -5.234 c 0,-0.055 -0.045,-0.1 -0.1,-0.1 h -3.9 c -0.1,0 0,0.1 0,0 v -7.8 c 0,-0.1 -0.1,0 0,0 h 3.9 c 0.055,0 0.1,-0.045 0.1,-0.1 v -8 c 0,-0.055 -0.045,-0.1 -0.1,-0.1 h -3.9 c -0.1,0 0,0.1 0,0 v -7.8 c 0,-0.1 -0.1,0 0,0 h 3.9 c 0.055,0 0.1,-0.045 0.1,-0.1 v -8 c 0,-0.055 -0.045,-0.1 -0.1,-0.1 h -3.9 c -0.1,0 0,0.1 0,0 v -7.8 c 0,-0.1 -0.1,0 0,0 h 3.9 c 0.055,0 0.1,-0.045 0.1,-0.1 v -8 c 0,-0.055 -0.045,-0.1 -0.1,-0.1 h -3.9 c -0.1,0 0,0.1 0,0 v -7.8 c 0,-0.1 -0.1,0 0,0 h 3.9 c 0.055,0 0.1,-0.045 0.1,-0.1 V 10.1 c 0,-0.055 -0.045,-0.1 -0.1,-0.1 h -4 -192 -4 c -0.055,0 -0.1,0.045 -0.1,0.1 v 5.234 c 0,0.055 0.045,0.1 0.1,0.1 h 3.9 c 0.1,0 0,-0.1 0,0 v 7.8 c 0,0.1 0.1,0 0,0 h -3.9 c -0.055,0 -0.1,0.045 -0.1,0.1 v 8 c 0,0.055 0.045,0.1 0.1,0.1 h 3.9 c 0.1,0 0,-0.1 0,0 v 7.8 c 0,0.1 0.1,0 0,0 h -3.9 c -0.055,0 -0.1,0.045 -0.1,0.1 v 8 c 0,0.055 0.045,0.1 0.1,0.1 h 3.9 c 0.1,0 0,-0.1 0,0 v 7.8 c 0,0.1 0.1,0 0,0 h -3.9 c -0.055,0 -0.1,0.045 -0.1,0.1 v 8 c 0,0.055 0.045,0.1 0.1,0.1 h 3.9 c 0.1,0 0,-0.1 0,0 v 7.8 c 0,0.1 0.1,0 0,0 h -3.9 c -0.055,0 -0.1,0.045 -0.1,0.1 v 5.234 -1.172 c 0,0.056 0.045,0.1 0.1,0.1 z"
       id="path139"
       inkscape:connector-curvature="0"
       style="stroke:#ff0000;stroke-width:0.2;stroke-opacity:1" />
  </g>
  <text
     xml:space="preserve"
     style="font-style:normal;font-variant:normal;font-weight:normal;font-stretch:normal;font-size:16.93333244px;line-height:1.25;font-family:aakar;-inkscape-font-specification:aakar;letter-spacing:0px;word-spacing:0px;fill:#000000;fill-opacity:1;stroke:none;stroke-width:0.26458332"
     x="55.482487"
     y="418.23801"
     id="text955"><tspan
       sodipodi:role="line"
       x="55.482487"
       y="418.23801"
       style="font-style:normal;font-variant:normal;font-weight:normal;font-stretch:normal;font-size:25.39999962px;font-family:sans-serif;-inkscape-font-specification:sans-serif;stroke-width:0.26458332"
       id="tspan959"> Ranger </tspan></text>
  <g
     id="g1499"
     transform="matrix(0.00487243,0,0,-0.00487243,333.60528,222.61391)"
     style="fill:#000000;stroke:none">
    <path
       id="path1495"
       d="m 9196,12714 c -176,-48 -314,-149 -383,-279 -17,-33 -72,-172 -122,-309 -49,-137 -94,-253 -99,-258 -5,-5 -52,-5 -118,2 -228,21 -533,10 -818,-31 -114,-16 -142,-18 -152,-7 -7,7 -64,121 -125,253 -62,132 -127,263 -146,292 -70,107 -187,192 -318,233 -87,27 -223,30 -311,7 -58,-15 -586,-250 -729,-325 -185,-97 -305,-298 -305,-512 0,-118 22,-186 149,-458 66,-140 117,-260 115,-266 -3,-6 -28,-29 -57,-51 -153,-119 -521,-519 -630,-686 -18,-27 -39,-51 -47,-54 -9,-3 -133,37 -276,89 -282,102 -357,119 -470,106 -96,-10 -148,-26 -229,-68 -88,-45 -199,-155 -237,-232 -56,-117 -278,-732 -289,-802 -32,-208 65,-433 237,-551 54,-37 127,-68 344,-148 151,-55 280,-106 286,-112 8,-9 9,-33 2,-87 -5,-41 -9,-185 -10,-320 0,-242 13,-420 47,-595 7,-38 11,-74 9,-80 -2,-5 -53,-32 -112,-59 -59,-27 -186,-87 -282,-134 -162,-78 -179,-89 -246,-156 -152,-155 -209,-374 -149,-575 16,-51 246,-565 315,-701 58,-116 191,-233 316,-280 111,-41 270,-43 388,-4 27,9 154,65 282,125 128,60 239,109 247,109 8,0 42,-34 77,-76 147,-177 434,-442 643,-592 48,-35 87,-65 87,-68 0,-2 -41,-117 -91,-255 -110,-306 -119,-341 -119,-444 0,-218 120,-411 315,-508 95,-47 725,-276 792,-288 218,-38 447,59 568,242 35,52 70,134 146,341 54,150 103,276 108,281 5,5 81,4 182,-3 262,-19 528,-5 822,41 48,8 81,9 86,3 5,-5 61,-120 124,-256 63,-135 127,-263 141,-285 39,-56 122,-138 177,-174 120,-77 303,-108 442,-75 96,22 739,317 814,372 105,78 185,197 217,321 20,77 20,218 1,294 -9,33 -67,170 -130,305 -63,136 -115,254 -115,263 0,10 30,42 67,72 168,135 431,418 583,626 44,60 82,103 92,103 9,0 122,-38 250,-84 308,-111 337,-119 438,-119 209,-1 420,126 507,303 42,86 261,676 284,765 10,39 19,85 19,103 0,52 -38,181 -77,262 -43,89 -157,209 -242,254 -30,16 -169,71 -310,121 l -256,93 4,303 c 3,305 -7,476 -43,700 -7,43 -10,83 -6,89 3,5 118,62 255,126 138,64 278,136 312,160 187,133 277,367 228,596 -13,62 -243,590 -329,753 -71,137 -232,257 -391,290 -167,35 -251,15 -586,-141 l -252,-118 -70,80 c -185,210 -464,464 -667,609 -30,22 -58,44 -62,49 -3,5 14,66 39,135 154,427 163,458 163,561 0,111 -17,189 -63,280 -40,81 -140,184 -222,227 -77,40 -685,267 -787,293 -97,25 -132,24 -242,-6 z m -776,-2254 c 303,-36 533,-104 798,-235 548,-272 950,-719 1165,-1297 157,-419 182,-915 71,-1360 -214,-857 -902,-1531 -1749,-1713 -805,-174 -1632,77 -2200,666 -185,192 -308,369 -426,614 -113,235 -181,462 -215,715 -22,167 -14,525 14,680 121,654 470,1193 1006,1553 55,38 178,106 271,153 248,122 463,187 722,219 132,16 428,19 543,5 z"
       inkscape:connector-curvature="0" />
    <path
       id="path1497"
       d="m 3334,5441 c -85,-22 -186,-97 -220,-164 -8,-15 -37,-91 -64,-168 -28,-77 -54,-148 -59,-156 -7,-14 -42,-16 -247,-18 -132,-1 -274,-8 -317,-14 -53,-8 -82,-9 -91,-2 -6,5 -43,77 -81,160 -85,186 -120,233 -205,280 -62,34 -70,36 -160,36 h -95 l -210,-99 c -115,-54 -228,-111 -251,-127 -73,-50 -116,-120 -134,-218 -15,-86 -5,-127 81,-320 l 71,-159 -159,-159 c -88,-87 -188,-195 -222,-240 -34,-46 -66,-83 -71,-83 -5,0 -78,25 -162,56 -142,53 -159,57 -243,58 -73,0 -99,-4 -139,-22 C 294,4054 228,4000 201,3956 164,3897 0,3445 0,3403 c 0,-42 41,-152 74,-200 47,-69 104,-102 276,-162 85,-30 160,-58 166,-63 8,-6 14,-96 18,-276 4,-147 9,-293 12,-324 l 6,-57 -34,-14 C 224,2183 154,2135 104,2028 80,1975 75,1953 75,1885 l 1,-80 104,-224 c 122,-260 158,-309 262,-356 51,-23 77,-29 138,-29 72,0 82,4 249,77 98,43 179,73 186,69 6,-4 45,-45 85,-91 80,-90 216,-214 317,-288 42,-32 63,-54 63,-68 0,-11 -22,-81 -49,-156 -86,-235 -89,-309 -18,-428 49,-84 102,-118 295,-189 370,-137 359,-134 454,-103 65,22 100,42 146,85 51,47 70,84 132,259 l 58,162 188,2 c 104,1 249,7 322,13 112,10 136,10 147,-1 7,-8 43,-82 80,-166 75,-170 120,-228 211,-270 64,-29 155,-39 214,-23 25,6 141,57 258,112 237,112 285,147 329,236 25,51 28,68 28,152 l -1,95 -72,159 c -40,87 -72,162 -72,167 0,5 71,80 159,166 87,87 184,193 216,236 34,46 65,77 75,77 10,0 83,-23 162,-51 178,-64 243,-76 321,-60 70,15 155,70 197,128 18,24 68,139 117,270 80,210 86,234 87,303 1,83 -20,142 -74,210 -47,60 -107,93 -270,150 -83,29 -153,57 -156,61 -3,5 -7,121 -9,257 -1,136 -7,276 -13,310 -6,35 -9,69 -6,76 3,7 75,43 160,81 222,98 289,165 313,312 14,88 1,135 -101,351 -104,223 -120,252 -174,304 -64,61 -124,83 -229,82 -90,0 -90,0 -249,-72 -87,-40 -166,-72 -175,-71 -9,0 -38,27 -66,60 -66,80 -199,206 -312,296 -50,40 -94,77 -97,82 -4,5 20,81 51,168 55,150 58,162 57,248 -1,109 -21,161 -91,236 -59,63 -56,61 -304,154 -175,66 -215,78 -279,81 -41,2 -89,0 -106,-5 z M 3050,4096 c 284,-66 507,-191 700,-392 107,-111 169,-199 237,-332 106,-210 147,-385 147,-637 0,-138 -4,-189 -22,-272 -62,-286 -188,-520 -392,-724 -203,-204 -452,-333 -737,-385 -114,-20 -350,-20 -463,0 -216,39 -448,137 -611,260 -266,200 -459,510 -530,846 -28,135 -31,361 -6,497 88,483 413,890 851,1069 96,39 246,80 346,94 116,16 362,4 480,-24 z"
       inkscape:connector-curvature="0" />
  </g>
  <path
     style="fill:#000000;stroke-width:0.11992723"
     d="m 235.03752,209.09021 -0.39166,-0.34991 -0.032,-9.98564 c -0.0203,-6.35091 0.0121,-10.22409 0.0891,-10.64072 0.37933,-2.05196 2.03297,-3.71816 4.06684,-4.09775 0.35529,-0.0663 1.28623,-0.12056 2.06874,-0.12056 h 1.42275 v -2.79309 c 0,-2.08891 0.0451,-2.96625 0.1789,-3.47991 0.47456,-1.82195 1.63964,-3.08942 3.39499,-3.69335 0.60278,-0.20739 1.05441,-0.22746 5.11785,-0.22746 3.72484,0 4.5637,0.0314 5.10812,0.19106 0.73485,0.21555 1.5931,0.70645 2.39033,1.36721 1.15331,0.95589 0.73066,0.90023 6.83585,0.90023 6.10519,0 5.68253,0.0557 6.83585,-0.90023 0.79722,-0.66076 1.65548,-1.15166 2.39033,-1.36721 0.54442,-0.15969 1.38328,-0.19106 5.10811,-0.19106 4.06344,0 4.51508,0.0201 5.11786,0.22746 1.75534,0.60393 2.92043,1.8714 3.39498,3.69335 0.1338,0.51366 0.1789,1.391 0.1789,3.47991 v 2.79309 h 1.42276 c 0.78251,0 1.71345,0.0543 2.06874,0.12056 2.03387,0.37959 3.68751,2.04579 4.06683,4.09775 0.077,0.41663 0.10945,4.28981 0.0891,10.64072 l -0.032,9.98564 -0.39165,0.34991 c -0.55218,0.49333 -1.19263,0.48614 -1.69785,-0.0191 l -0.36901,-0.36901 v -9.81889 c 0,-6.78664 -0.0414,-10.01207 -0.13414,-10.44437 -0.10586,-0.49368 -0.25328,-0.74461 -0.69963,-1.19097 -0.68577,-0.68575 -1.23074,-0.83378 -3.06976,-0.83378 h -1.25333 v 2.74196 c 0,1.50808 -0.0548,3.03265 -0.12174,3.38795 -0.39484,2.09517 -2.2302,3.79111 -4.40646,4.07173 -1.0953,0.14123 -7.30654,0.13299 -8.41738,-0.0112 -1.08244,-0.14047 -2.21613,-0.64586 -3.05613,-1.36238 -0.33452,-0.28534 -0.85107,-0.64795 -1.14789,-0.80579 l -0.53968,-0.28698 h -5.33675 -5.33677 l -0.53175,0.27941 c -0.29246,0.15367 -0.80515,0.51124 -1.13931,0.79459 -0.66009,0.55973 -1.34697,0.94176 -2.21236,1.23048 -0.69078,0.23045 -7.55388,0.36564 -9.09634,0.17916 -2.35161,-0.2843 -4.17744,-1.91165 -4.58777,-4.08905 -0.0669,-0.35529 -0.12174,-1.87987 -0.12174,-3.38794 v -2.74196 h -1.25333 c -1.83902,0 -2.384,0.14802 -3.06976,0.83378 -0.44635,0.44636 -0.59377,0.69729 -0.69964,1.19097 -0.0926,0.432 -0.13413,3.63072 -0.13413,10.34155 0,6.91978 -0.0386,9.79147 -0.13397,9.97804 -0.38675,0.75623 -1.28519,0.91044 -1.93289,0.33177 z m 17.41754,-23.93535 v -8.93457 h -1.25924 -1.25923 v 8.93457 8.93459 h 1.25923 1.25924 z m 5.89451,6.95705 c 0.35284,-0.1642 0.89786,-0.33305 1.21118,-0.37523 l 0.56965,-0.0767 v -6.45834 -6.45833 l -0.3298,-0.0708 c -0.65527,-0.14059 -1.53461,-0.43597 -1.79469,-0.60286 -0.14609,-0.0937 -0.2945,-0.17044 -0.3298,-0.17044 -0.0353,0 -0.0642,3.26502 -0.0642,7.25559 0,3.99058 0.0216,7.2556 0.0481,7.2556 0.0264,0 0.33674,-0.13434 0.68958,-0.29855 z m 9.45617,-6.95705 v -6.4161 h -1.25923 -1.25924 v 6.4161 6.41612 h 1.25924 1.25923 z"
     id="path2605"
     inkscape:connector-curvature="0" />
  <path
     style="fill:#000000;stroke-width:0.05584889"
     d="m 391.4141,509.1455 c 0.37768,0.18317 0.55696,0.37693 0.7367,0.79627 0.11553,0.26941 0.11565,0.28514 0.11516,9.71764 l -5.3e-4,9.44779 -0.13042,0.27925 c -0.17995,0.38534 -0.36846,0.59271 -0.68646,0.75513 l -0.27107,0.13845 -4.00717,0.0151 -4.00716,0.015 v -4.58069 c 0,-2.51937 -0.0129,-4.58069 -0.0287,-4.58069 -0.0159,0 -0.70656,0.45238 -1.53507,1.00528 -0.82852,0.55291 -1.51966,1.00528 -1.53586,1.00528 -0.0162,0 -0.70766,-0.45261 -1.53659,-1.00579 l -1.50717,-1.00578 v 4.58012 4.58011 l -3.97924,-5.3e-4 -3.97922,-5.6e-4 -0.28042,-0.13058 c -0.34675,-0.16148 -0.57123,-0.38176 -0.75279,-0.73872 l -0.13962,-0.27452 v -9.52225 -9.52224 l 0.13962,-0.27451 c 0.18553,-0.36476 0.41052,-0.58125 0.76876,-0.73967 l 0.29555,-0.13069 10.98668,8.8e-4 10.98669,8.7e-4 z m -30.61787,-0.038 c 0.34478,0.1569 0.57099,0.37808 0.75335,0.73661 l 0.13962,0.2745 v 9.52225 9.52223 l -0.13962,0.27451 c -0.18156,0.35696 -0.40605,0.57725 -0.75279,0.73872 l -0.28042,0.13057 -3.97923,5.5e-4 -3.97924,5.6e-4 v -4.58012 -4.58013 l -1.50716,1.0058 c -0.82894,0.55316 -1.5204,1.00577 -1.5366,1.00577 -0.0162,0 -0.70733,-0.45238 -1.53584,-1.00528 -0.82852,-0.55291 -1.5193,-1.00529 -1.53508,-1.00529 -0.0159,0 -0.0287,2.06131 -0.0287,4.58069 v 4.58069 l -4.00717,-0.0151 -4.00714,-0.015 -0.27109,-0.13846 c -0.318,-0.16242 -0.50652,-0.36978 -0.68647,-0.75513 l -0.13041,-0.27924 -5.3e-4,-9.44779 c -5.3e-4,-9.43249 -5.3e-4,-9.44824 0.11516,-9.71765 0.18157,-0.42357 0.35947,-0.61417 0.74505,-0.79818 l 0.356,-0.16991 10.99425,0.004 10.99426,0.004 z m 14.91103,27.3946 c 0.52093,0.0879 0.93782,0.4338 1.18421,0.98248 0.0952,0.21209 0.10031,0.70041 0.10031,9.66303 v 9.43963 l -0.18188,0.36947 c -0.18785,0.38156 -0.40138,0.58974 -0.78153,0.76198 -0.18961,0.0859 -0.58592,0.0964 -4.18864,0.11127 l -3.97924,0.0165 v -4.58204 c 0,-2.52013 -0.0122,-4.58204 -0.0268,-4.58204 -0.0147,0 -0.69489,0.4398 -1.51146,0.97735 -0.81656,0.53754 -1.50651,0.97735 -1.53321,0.97735 -0.0266,0 -0.71546,-0.43981 -1.53058,-0.97735 -0.81512,-0.53755 -1.49539,-0.97735 -1.5117,-0.97735 -0.0163,0 -0.0297,2.06191 -0.0297,4.58204 v 4.58204 l -3.97924,-0.0165 c -3.60274,-0.0149 -3.99905,-0.0253 -4.18865,-0.11127 -0.38016,-0.17224 -0.59368,-0.38042 -0.78152,-0.76198 l -0.18189,-0.36947 v -9.43963 c 0,-8.96262 0.005,-9.45094 0.10031,-9.66303 0.1868,-0.41598 0.37372,-0.62628 0.72694,-0.81786 l 0.34556,-0.18743 10.86261,-0.007 c 5.97444,-0.004 10.96315,0.01 11.086,0.0302 z"
     id="path4216"
     inkscape:connector-curvature="0" />
  <path
     style="fill:#000000;stroke-width:0.0558052"
     d="m 269.59059,509.05502 c 0.65623,0.14255 1.22827,0.56434 1.53855,1.13442 0.33315,0.61211 0.31509,-0.28399 0.31524,15.63412 1.6e-4,15.85217 0.0178,14.93383 -0.29916,15.55677 -0.29622,0.5821 -0.9826,1.07226 -1.65411,1.1812 -0.2369,0.0384 -2.58858,0.0587 -6.84579,0.059 l -6.48495,4.3e-4 -0.0163,-5.20383 -0.0163,-5.20383 -0.1296,-0.32101 c -0.26346,-0.65241 -0.81969,-1.18113 -1.45277,-1.3808 -0.34419,-0.10857 -0.50589,-0.11187 -5.48347,-0.11187 h -5.12882 l 0.0146,-9.83857 0.0146,-9.83856 0.21016,-0.42522 c 0.35133,-0.71084 0.93505,-1.14228 1.71511,-1.26769 0.24436,-0.0394 4.11476,-0.057 11.85862,-0.0543 9.46218,0.003 11.55755,0.0174 11.84458,0.0798 z m 15.42434,9.17743 c 0.32746,0.099 0.84985,0.42657 1.06395,0.6672 0.12488,0.14036 0.30517,0.41842 0.40063,0.61792 l 0.17358,0.36274 v 16.62994 16.62995 l -0.16522,0.33482 c -0.21527,0.43628 -0.71622,0.93825 -1.12972,1.132 l -0.32341,0.15154 -4.1575,0.0177 -4.15748,0.0177 -0.19532,0.31243 c -0.25952,0.41513 -1.11299,1.30745 -1.53297,1.60276 -1.16809,0.82133 -2.41844,1.18811 -3.85222,1.13004 -1.97955,-0.0802 -3.76704,-1.09291 -4.81787,-2.7296 l -0.20461,-0.31868 -4.15748,-0.0161 -4.15749,-0.0162 -0.33483,-0.16308 c -0.45973,-0.22395 -0.98035,-0.7593 -1.15175,-1.18435 l -0.13177,-0.32673 -0.0155,-3.72499 -0.0155,-3.725 h 6.69086 c 7.31118,0 7.15522,0.006 8.09283,-0.32552 1.312,-0.46428 2.52689,-1.61375 3.07318,-2.90772 0.0964,-0.22832 0.23082,-0.60499 0.29876,-0.8371 l 0.12353,-0.42198 0.0149,-11.48191 0.0149,-11.48191 5.20293,0.005 c 2.8616,0.002 5.26934,0.0248 5.35053,0.0495 z m -14.52979,31.46025 c -0.61395,0.28731 -0.97872,0.68948 -1.2147,1.33927 -0.1862,0.51275 -0.1464,1.18355 0.1008,1.69853 0.54851,1.14264 1.91411,1.61099 3.06111,1.04984 0.41212,-0.20162 0.82345,-0.62861 1.05485,-1.09504 0.14891,-0.30015 0.16198,-0.3757 0.1626,-0.94024 6.1e-4,-0.55818 -0.0134,-0.64232 -0.15351,-0.92771 -0.18738,-0.38137 -0.53849,-0.79026 -0.84565,-0.9848 -0.62441,-0.39548 -1.49859,-0.45194 -2.1655,-0.13985 z m -17.39888,-11.67571 v 4.60393 l -0.29297,-3.4e-4 c -0.4771,-5e-4 -0.9406,-0.0989 -1.29748,-0.2755 -0.28915,-0.14306 -0.80769,-0.63976 -3.80212,-3.642 -3.96445,-3.97481 -3.69947,-3.64115 -3.74692,-4.71801 l -0.0252,-0.572 h 4.58233 4.58236 v 4.60391 z"
     id="path4414"
     inkscape:connector-curvature="0" />
  <text
     xml:space="preserve"
     style="font-style:normal;font-weight:normal;font-size:12.69999993px;line-height:1.25;font-family:sans-serif;letter-spacing:0px;word-spacing:0px;fill:#000000;fill-opacity:1;stroke:none;stroke-width:0.26458332;"
     x="233.6554"
     y="103.42597"
     id="text2041"><tspan
       sodipodi:role="line"
       id="tspan2039"
       x="233.6554"
       y="105.92297"
       style="stroke-width:0.26458332;font-size:12.69999993px;" /></text>
  <text
     xml:space="preserve"
     style="font-style:normal;font-weight:normal;font-size:2.82222223px;line-height:1.25;font-family:sans-serif;letter-spacing:0px;word-spacing:0px;fill:#000000;fill-opacity:1;stroke:none;stroke-width:0.26458332"
     x="228.93076"
     y="118.24541"
     id="text2045"><tspan
       sodipodi:role="line"
       id="tspan2043"
       x="228.93076"
       y="118.24541"
       style="font-size:12.69999981px;stroke-width:0.26458332">Mcanique </tspan></text>
  <text
     xml:space="preserve"
     style="font-style:normal;font-weight:normal;font-size:12.69999981px;line-height:1.25;font-family:sans-serif;letter-spacing:0px;word-spacing:0px;fill:#000000;fill-opacity:1;stroke:none;stroke-width:0.26458332"
     x="323.67813"
     y="117.99117"
     id="text2049"><tspan
       sodipodi:role="line"
       id="tspan2047"
       x="323.67813"
       y="117.99117"
       style="font-size:12.69999981px;stroke-width:0.26458332">Electronique</tspan></text>
  <text
     xml:space="preserve"
     style="font-style:normal;font-weight:normal;font-size:12.69999981px;line-height:1.25;font-family:sans-serif;letter-spacing:0px;word-spacing:0px;fill:#000000;fill-opacity:1;stroke:none;stroke-width:0.26458332"
     x="42.388042"
     y="120.25159"
     id="text2053"><tspan
       sodipodi:role="line"
       id="tspan2051"
       x="42.388042"
       y="120.25159"
       style="font-size:12.69999981px;stroke-width:0.26458332">Vrac</tspan></text>
  <text
     xml:space="preserve"
     style="font-style:normal;font-weight:normal;font-size:12.69999981px;line-height:1.25;font-family:sans-serif;letter-spacing:0px;word-spacing:0px;fill:#000000;fill-opacity:1;stroke:none;stroke-width:0.26458332"
     x="118.18578"
     y="119.216"
     id="text2057"><tspan
       sodipodi:role="line"
       id="tspan2055"
       x="118.18578"
       y="119.216"
       style="font-size:12.69999981px;stroke-width:0.26458332">Bureautique</tspan></text>
</svg>
