<?xml version='1.0' encoding='us-ascii'?>
<svg height="233.60mm" viewBox="0.0 0.0 328.29 233.60" width="328.29mm" xmlns="http://www.w3.org/2000/svg" xmlns:cc="http://creativecommons.org/ns#" xmlns:dc="http://purl.org/dc/elements/1.1/" xmlns:inkscape="http://www.inkscape.org/namespaces/inkscape" xmlns:rdf="http://www.w3.org/1999/02/22-rdf-syntax-ns#" xmlns:svg="http://www.w3.org/2000/svg" xmlns:xlink="http://www.w3.org/1999/xlink">
<!--
AngledBox - Box with both ends cornered

Created with Boxes.py (https://festi.info/boxes.py)
Creation date: 2020-09-03 09:17:22
Command line (remove spaces between dashes): boxes AngledBox - -FingerJoint_angle=90.0 - -FingerJoint_style=rectangular - -FingerJoint_surroundingspaces=2.0 - -FingerJoint_edge_width=1.0 - -FingerJoint_finger=2.0 - -FingerJoint_play=0.0 - -FingerJoint_space=2.0 - -FingerJoint_width=1.0 - -x=90 - -y=90 - -h=110 - -outside=0 - -outside=1 - -bottom_edge=h - -n=5 '- -top=angled lid2' - -thickness=3.0 - -format=svg - -tabs=0.0 - -debug=0 - -reference=100 - -burn=0.1
Url: http://www.festi.info/AngledBox?FingerJoint_angle=90.0&FingerJoint_style=rectangular&FingerJoint_surroundingspaces=2.0&FingerJoint_edge_width=1.0&FingerJoint_finger=2.0&FingerJoint_play=0.0&FingerJoint_space=2.0&FingerJoint_width=1.0&x=90&y=90&h=110&outside=0&outside=1&bottom_edge=h&n=5&top=angled+lid2&thickness=3.0&format=svg&tabs=0.0&debug=0&reference=100&burn=0.1&render=1
SettingsUrl: http://www.festi.info/AngledBox?FingerJoint_angle=90.0&FingerJoint_style=rectangular&FingerJoint_surroundingspaces=2.0&FingerJoint_edge_width=1.0&FingerJoint_finger=2.0&FingerJoint_play=0.0&FingerJoint_space=2.0&FingerJoint_width=1.0&x=90&y=90&h=110&outside=0&outside=1&bottom_edge=h&n=5&top=angled+lid2&thickness=3.0&format=svg&tabs=0.0&debug=0&reference=100&burn=0.1
-->
<title>AngledBox</title>
<metadata>
<rdf:RDF><cc:Work>
<dc:title>Box - AngledBox</dc:title>
<dc:date>2020-09-03 09:17:22</dc:date>
<dc:source>http://www.festi.info/AngledBox?FingerJoint_angle=90.0&amp;FingerJoint_style=rectangular&amp;FingerJoint_surroundingspaces=2.0&amp;FingerJoint_edge_width=1.0&amp;FingerJoint_finger=2.0&amp;FingerJoint_play=0.0&amp;FingerJoint_space=2.0&amp;FingerJoint_width=1.0&amp;x=90&amp;y=90&amp;h=110&amp;outside=0&amp;outside=1&amp;bottom_edge=h&amp;n=5&amp;top=angled+lid2&amp;thickness=3.0&amp;format=svg&amp;tabs=0.0&amp;debug=0&amp;reference=100&amp;burn=0.1&amp;render=1</dc:source>
<dc:description>Box with both ends cornered

Created with Boxes.py (https://festi.info/boxes.py)
Command line: boxes AngledBox --FingerJoint_angle=90.0 --FingerJoint_style=rectangular --FingerJoint_surroundingspaces=2.0 --FingerJoint_edge_width=1.0 --FingerJoint_finger=2.0 --FingerJoint_play=0.0 --FingerJoint_space=2.0 --FingerJoint_width=1.0 --x=90 --y=90 --h=110 --outside=0 --outside=1 --bottom_edge=h --n=5 '--top=angled lid2' --thickness=3.0 --format=svg --tabs=0.0 --debug=0 --reference=100 --burn=0.1
Url: http://www.festi.info/AngledBox?FingerJoint_angle=90.0&amp;FingerJoint_style=rectangular&amp;FingerJoint_surroundingspaces=2.0&amp;FingerJoint_edge_width=1.0&amp;FingerJoint_finger=2.0&amp;FingerJoint_play=0.0&amp;FingerJoint_space=2.0&amp;FingerJoint_width=1.0&amp;x=90&amp;y=90&amp;h=110&amp;outside=0&amp;outside=1&amp;bottom_edge=h&amp;n=5&amp;top=angled+lid2&amp;thickness=3.0&amp;format=svg&amp;tabs=0.0&amp;debug=0&amp;reference=100&amp;burn=0.1&amp;render=1
SettingsUrl: http://www.festi.info/AngledBox?FingerJoint_angle=90.0&amp;FingerJoint_style=rectangular&amp;FingerJoint_surroundingspaces=2.0&amp;FingerJoint_edge_width=1.0&amp;FingerJoint_finger=2.0&amp;FingerJoint_play=0.0&amp;FingerJoint_space=2.0&amp;FingerJoint_width=1.0&amp;x=90&amp;y=90&amp;h=110&amp;outside=0&amp;outside=1&amp;bottom_edge=h&amp;n=5&amp;top=angled+lid2&amp;thickness=3.0&amp;format=svg&amp;tabs=0.0&amp;debug=0&amp;reference=100&amp;burn=0.1
</dc:description>
</cc:Work></rdf:RDF></metadata>
<g id="p-0" style="fill:none;stroke-linecap:round;stroke-linejoin:round;">
  <path d="M 10.100 223.600 H 110.100 V 213.600 H 10.100 V 223.600 Z" stroke="rgb(0,0,0)" stroke-width="0.20" />
  <text alignment-baseline="hanging" font-size="10px" style="font-family: sans-serif ; font-weight: normal; font-style: normal; fill: rgb(0,0,0)" text-anchor="middle" transform="matrix( 1.000 0.000 0.000 1.000 60.100 213.600 )">100mm</text>
</g>
<g id="p-1" style="fill:none;stroke-linecap:round;stroke-linejoin:round;">
  <path d="M 43.846 208.900 H 52.000 C 52.100 208.900 52.000 208.800 52.000 208.900 V 211.800 C 52.000 211.855 52.045 211.900 52.100 211.900 H 58.100 C 58.155 211.900 58.200 211.855 58.200 211.800 V 208.900 C 58.200 208.800 58.100 208.900 58.200 208.900 H 66.354 C 66.371 208.900 66.389 208.895 66.404 208.887 L 73.465 204.810 C 73.552 204.760 73.415 204.723 73.465 204.810 L 74.915 207.321 C 74.943 207.369 75.004 207.385 75.052 207.358 L 80.248 204.358 C 80.296 204.330 80.312 204.269 80.285 204.221 L 78.835 201.710 C 78.785 201.623 78.748 201.760 78.835 201.710 L 85.896 197.633 C 85.911 197.624 85.924 197.611 85.933 197.596 L 90.010 190.535 C 90.060 190.448 89.923 190.485 90.010 190.535 L 92.521 191.985 C 92.569 192.012 92.630 191.996 92.658 191.948 L 95.658 186.752 C 95.685 186.704 95.669 186.643 95.621 186.615 L 93.110 185.165 C 93.023 185.115 93.060 185.252 93.110 185.165 L 97.187 178.104 C 97.195 178.089 97.200 178.071 97.200 178.054 V 169.900 C 97.200 169.800 97.100 169.900 97.200 169.900 H 100.100 C 100.155 169.900 100.200 169.855 100.200 169.800 V 163.800 C 100.200 163.745 100.155 163.700 100.100 163.700 H 97.200 C 97.100 163.700 97.200 163.800 97.200 163.700 V 155.546 C 97.200 155.529 97.195 155.511 97.187 155.496 L 93.110 148.435 C 93.060 148.348 93.023 148.485 93.110 148.435 L 95.621 146.985 C 95.669 146.957 95.685 146.896 95.658 146.848 L 92.658 141.652 C 92.630 141.604 92.569 141.588 92.521 141.615 L 90.010 143.065 C 89.923 143.115 90.060 143.152 90.010 143.065 L 85.933 136.004 C 85.924 135.989 85.911 135.976 85.896 135.967 L 78.835 131.890 C 78.748 131.840 78.785 131.977 78.835 131.890 L 80.285 129.379 C 80.312 129.331 80.296 129.270 80.248 129.242 L 75.052 126.242 C 75.004 126.215 74.943 126.231 74.915 126.279 L 73.465 128.790 C 73.415 128.877 73.552 128.840 73.465 128.790 L 66.404 124.713 C 66.389 124.705 66.371 124.700 66.354 124.700 H 58.200 C 58.100 124.700 58.200 124.800 58.200 124.700 V 121.800 C 58.200 121.745 58.155 121.700 58.100 121.700 H 52.100 C 52.045 121.700 52.000 121.745 52.000 121.800 V 124.700 C 52.000 124.800 52.100 124.700 52.000 124.700 H 43.846 C 43.829 124.700 43.811 124.705 43.796 124.713 L 36.735 128.790 C 36.648 128.840 36.785 128.877 36.735 128.790 L 35.285 126.279 C 35.257 126.231 35.196 126.215 35.148 126.242 L 29.952 129.242 C 29.904 129.270 29.888 129.331 29.915 129.379 L 31.365 131.890 C 31.415 131.977 31.452 131.840 31.365 131.890 L 24.304 135.967 C 24.289 135.976 24.276 135.989 24.267 136.004 L 20.190 143.065 C 20.140 143.152 20.277 143.115 20.190 143.065 L 17.679 141.615 C 17.631 141.588 17.570 141.604 17.542 141.652 L 14.542 146.848 C 14.515 146.896 14.531 146.957 14.579 146.985 L 17.090 148.435 C 17.177 148.485 17.140 148.348 17.090 148.435 L 13.013 155.496 C 13.005 155.511 13.000 155.529 13.000 155.546 V 163.700 C 13.000 163.800 13.100 163.700 13.000 163.700 H 10.100 C 10.045 163.700 10.000 163.745 10.000 163.800 V 169.800 C 10.000 169.855 10.045 169.900 10.100 169.900 H 13.000 C 13.100 169.900 13.000 169.800 13.000 169.900 V 178.054 C 13.000 178.071 13.005 178.089 13.013 178.104 L 17.090 185.165 C 17.140 185.252 17.177 185.115 17.090 185.165 L 14.579 186.615 C 14.531 186.643 14.515 186.704 14.542 186.752 L 17.542 191.948 C 17.570 191.996 17.631 192.012 17.679 191.985 L 20.190 190.535 C 20.277 190.485 20.140 190.448 20.190 190.535 L 24.267 197.596 C 24.276 197.611 24.289 197.624 24.304 197.633 L 31.365 201.710 C 31.452 201.760 31.415 201.623 31.365 201.710 L 29.915 204.221 C 29.888 204.269 29.904 204.330 29.952 204.358 L 35.148 207.358 C 35.196 207.385 35.257 207.369 35.285 207.321 L 36.735 204.810 C 36.785 204.723 36.648 204.760 36.735 204.810 L 43.796 208.887 C 43.811 208.895 43.829 208.900 43.846 208.900 Z" stroke="rgb(0,0,0)" stroke-width="0.20" />
</g>
<g id="p-2" style="fill:none;stroke-linecap:round;stroke-linejoin:round;">
  <path d="M 136.350 205.900 H 157.250 C 157.268 205.900 157.285 205.895 157.300 205.887 L 175.400 195.437 C 175.415 195.428 175.428 195.415 175.437 195.400 L 185.887 177.300 C 185.895 177.285 185.900 177.268 185.900 177.250 V 156.350 C 185.900 156.332 185.895 156.315 185.887 156.300 L 175.437 138.200 C 175.428 138.185 175.415 138.172 175.400 138.163 L 157.300 127.713 C 157.285 127.705 157.268 127.700 157.250 127.700 H 136.350 C 136.332 127.700 136.315 127.705 136.300 127.713 L 118.200 138.163 C 118.185 138.172 118.172 138.185 118.163 138.200 L 107.713 156.300 C 107.705 156.315 107.700 156.332 107.700 156.350 V 177.250 C 107.700 177.268 107.705 177.285 107.713 177.300 L 118.163 195.400 C 118.172 195.415 118.185 195.428 118.200 195.437 L 136.300 205.887 C 136.315 205.895 136.332 205.900 136.350 205.900 M 135.546 211.900 H 143.800 C 143.855 211.900 143.900 211.855 143.900 211.800 V 208.900 C 143.900 208.800 143.800 208.900 143.900 208.900 H 149.700 C 149.800 208.900 149.700 208.800 149.700 208.900 V 211.800 C 149.700 211.855 149.745 211.900 149.800 211.900 H 158.054 H 158.858 C 158.875 211.900 158.893 211.895 158.908 211.887 L 159.604 211.485 L 166.752 207.358 C 166.800 207.330 166.816 207.269 166.789 207.221 L 165.339 204.710 C 165.289 204.623 165.252 204.760 165.339 204.710 L 170.361 201.810 C 170.448 201.760 170.311 201.723 170.361 201.810 L 171.811 204.321 C 171.839 204.369 171.900 204.385 171.948 204.358 L 179.096 200.231 L 179.792 199.829 C 179.807 199.820 179.820 199.807 179.829 199.792 L 180.231 199.096 L 184.358 191.948 C 184.385 191.900 184.369 191.839 184.321 191.811 L 181.810 190.361 C 181.723 190.311 181.760 190.448 181.810 190.361 L 184.710 185.339 C 184.760 185.252 184.623 185.289 184.710 185.339 L 187.221 186.789 C 187.269 186.816 187.330 186.800 187.358 186.752 L 191.485 179.604 L 191.887 178.908 C 191.895 178.893 191.900 178.875 191.900 178.858 V 178.054 V 169.800 C 191.900 169.745 191.855 169.700 191.800 169.700 H 188.900 C 188.800 169.700 188.900 169.800 188.900 169.700 V 163.900 C 188.900 163.800 188.800 163.900 188.900 163.900 H 191.800 C 191.855 163.900 191.900 163.855 191.900 163.800 V 155.546 V 154.742 C 191.900 154.725 191.895 154.707 191.887 154.692 L 191.485 153.996 L 187.358 146.848 C 187.330 146.800 187.269 146.784 187.221 146.811 L 184.710 148.261 C 184.623 148.311 184.760 148.348 184.710 148.261 L 181.810 143.239 C 181.760 143.152 181.723 143.289 181.810 143.239 L 184.321 141.789 C 184.369 141.761 184.385 141.700 184.358 141.652 L 180.231 134.504 L 179.829 133.808 C 179.820 133.793 179.807 133.780 179.792 133.771 L 179.096 133.369 L 171.948 129.242 C 171.900 129.215 171.839 129.231 171.811 129.279 L 170.361 131.790 C 170.311 131.877 170.448 131.840 170.361 131.790 L 165.339 128.890 C 165.252 128.840 165.289 128.977 165.339 128.890 L 166.789 126.379 C 166.816 126.331 166.800 126.270 166.752 126.242 L 159.604 122.115 L 158.908 121.713 C 158.893 121.705 158.875 121.700 158.858 121.700 H 158.054 H 149.800 C 149.745 121.700 149.700 121.745 149.700 121.800 V 124.700 C 149.700 124.800 149.800 124.700 149.700 124.700 H 143.900 C 143.800 124.700 143.900 124.800 143.900 124.700 V 121.800 C 143.900 121.745 143.855 121.700 143.800 121.700 H 135.546 H 134.742 C 134.725 121.700 134.707 121.705 134.692 121.713 L 133.996 122.115 L 126.848 126.242 C 126.800 126.270 126.784 126.331 126.811 126.379 L 128.261 128.890 C 128.311 128.977 128.348 128.840 128.261 128.890 L 123.239 131.790 C 123.152 131.840 123.289 131.877 123.239 131.790 L 121.789 129.279 C 121.761 129.231 121.700 129.215 121.652 129.242 L 114.504 133.369 L 113.808 133.771 C 113.793 133.780 113.780 133.793 113.771 133.808 L 113.369 134.504 L 109.242 141.652 C 109.215 141.700 109.231 141.761 109.279 141.789 L 111.790 143.239 C 111.877 143.289 111.840 143.152 111.790 143.239 L 108.890 148.261 C 108.840 148.348 108.977 148.311 108.890 148.261 L 106.379 146.811 C 106.331 146.784 106.270 146.800 106.242 146.848 L 102.115 153.996 L 101.713 154.692 C 101.705 154.707 101.700 154.725 101.700 154.742 V 155.546 V 163.800 C 101.700 163.855 101.745 163.900 101.800 163.900 H 104.700 C 104.800 163.900 104.700 163.800 104.700 163.900 V 169.700 C 104.700 169.800 104.800 169.700 104.700 169.700 H 101.800 C 101.745 169.700 101.700 169.745 101.700 169.800 V 178.054 V 178.858 C 101.700 178.875 101.705 178.893 101.713 178.908 L 102.115 179.604 L 106.242 186.752 C 106.270 186.800 106.331 186.816 106.379 186.789 L 108.890 185.339 C 108.977 185.289 108.840 185.252 108.890 185.339 L 111.790 190.361 C 111.840 190.448 111.877 190.311 111.790 190.361 L 109.279 191.811 C 109.231 191.839 109.215 191.900 109.242 191.948 L 113.369 199.096 L 113.771 199.792 C 113.780 199.807 113.793 199.820 113.808 199.829 L 114.504 200.231 L 121.652 204.358 C 121.700 204.385 121.761 204.369 121.789 204.321 L 123.239 201.810 C 123.289 201.723 123.152 201.760 123.239 201.810 L 128.261 204.710 C 128.348 204.760 128.311 204.623 128.261 204.710 L 126.811 207.221 C 126.784 207.269 126.800 207.330 126.848 207.358 L 133.996 211.485 L 134.692 211.887 C 134.707 211.895 134.725 211.900 134.742 211.900 H 135.546" stroke="rgb(0,0,0)" stroke-width="0.20" />
</g>
<g id="p-3" style="fill:none;stroke-linecap:round;stroke-linejoin:round;">
  <path d="M 227.246 211.900 H 249.754 H 250.558 C 250.575 211.900 250.593 211.895 250.608 211.887 L 251.304 211.485 L 270.796 200.231 L 271.492 199.829 C 271.507 199.820 271.520 199.807 271.529 199.792 L 271.931 199.096 L 283.185 179.604 L 283.587 178.908 C 283.595 178.893 283.600 178.875 283.600 178.858 V 178.054 V 155.546 V 154.742 C 283.600 154.725 283.595 154.707 283.587 154.692 L 283.185 153.996 L 271.931 134.504 L 271.529 133.808 C 271.520 133.793 271.507 133.780 271.492 133.771 L 270.796 133.369 L 251.304 122.115 L 250.608 121.713 C 250.593 121.705 250.575 121.700 250.558 121.700 H 249.754 H 227.246 H 226.442 C 226.425 121.700 226.407 121.705 226.392 121.713 L 225.696 122.115 L 206.204 133.369 L 205.508 133.771 C 205.493 133.780 205.480 133.793 205.471 133.808 L 205.069 134.504 L 193.815 153.996 L 193.413 154.692 C 193.405 154.707 193.400 154.725 193.400 154.742 V 155.546 V 178.054 V 178.858 C 193.400 178.875 193.405 178.893 193.413 178.908 L 193.815 179.604 L 205.069 199.096 L 205.471 199.792 C 205.480 199.807 205.493 199.820 205.508 199.829 L 206.204 200.231 L 225.696 211.485 L 226.392 211.887 C 226.407 211.895 226.425 211.900 226.442 211.900 H 227.246 Z" stroke="rgb(0,0,0)" stroke-width="0.20" />
</g>
<g id="p-4" style="fill:none;stroke-linecap:round;stroke-linejoin:round;">
  <path d="M 22.158 117.000 H 19.258 C 19.158 117.000 19.258 117.100 19.258 117.000 V 114.200 C 19.258 114.100 19.158 114.200 19.258 114.200 H 25.058 C 25.158 114.200 25.058 114.100 25.058 114.200 V 117.000 C 25.058 117.100 25.158 117.000 25.058 117.000 H 22.158 Z" stroke="rgb(0,0,255)" stroke-width="0.20" />
  <path d="M 10.904 120.200 H 33.412 H 34.215 C 34.271 120.200 34.315 120.155 34.315 120.100 V 114.100 V 102.600 C 34.315 102.545 34.271 102.500 34.215 102.500 H 32.815 C 32.715 102.500 32.815 102.600 32.815 102.500 V 96.700 C 32.815 96.600 32.715 96.700 32.815 96.700 H 34.215 C 34.271 96.700 34.315 96.655 34.315 96.600 V 90.600 C 34.315 90.545 34.271 90.500 34.215 90.500 H 32.815 C 32.715 90.500 32.815 90.600 32.815 90.500 V 84.700 C 32.815 84.600 32.715 84.700 32.815 84.700 H 34.215 C 34.271 84.700 34.315 84.655 34.315 84.600 V 78.600 C 34.315 78.545 34.271 78.500 34.215 78.500 H 32.815 C 32.715 78.500 32.815 78.600 32.815 78.500 V 72.700 C 32.815 72.600 32.715 72.700 32.815 72.700 H 34.215 C 34.271 72.700 34.315 72.655 34.315 72.600 V 66.600 C 34.315 66.545 34.271 66.500 34.215 66.500 H 32.815 C 32.715 66.500 32.815 66.600 32.815 66.500 V 60.700 C 32.815 60.600 32.715 60.700 32.815 60.700 H 34.215 C 34.271 60.700 34.315 60.655 34.315 60.600 V 54.600 C 34.315 54.545 34.271 54.500 34.215 54.500 H 32.815 C 32.715 54.500 32.815 54.600 32.815 54.500 V 48.700 C 32.815 48.600 32.715 48.700 32.815 48.700 H 34.215 C 34.271 48.700 34.315 48.655 34.315 48.600 V 42.600 C 34.315 42.545 34.271 42.500 34.215 42.500 H 32.815 C 32.715 42.500 32.815 42.600 32.815 42.500 V 36.700 C 32.815 36.600 32.715 36.700 32.815 36.700 H 34.215 C 34.271 36.700 34.315 36.655 34.315 36.600 V 30.600 C 34.315 30.545 34.271 30.500 34.215 30.500 H 32.815 C 32.715 30.500 32.815 30.600 32.815 30.500 V 24.700 C 32.815 24.600 32.715 24.700 32.815 24.700 H 34.215 C 34.271 24.700 34.315 24.655 34.315 24.600 V 13.100 C 34.315 13.045 34.271 13.000 34.215 13.000 H 33.412 H 25.258 C 25.158 13.000 25.258 13.100 25.258 13.000 V 10.100 C 25.258 10.045 25.213 10.000 25.158 10.000 H 19.158 C 19.102 10.000 19.058 10.045 19.058 10.100 V 13.000 C 19.058 13.100 19.158 13.000 19.058 13.000 H 10.904 H 10.100 C 10.045 13.000 10.000 13.045 10.000 13.100 V 24.600 C 10.000 24.655 10.045 24.700 10.100 24.700 H 11.500 C 11.600 24.700 11.500 24.600 11.500 24.700 V 30.500 C 11.500 30.600 11.600 30.500 11.500 30.500 H 10.100 C 10.045 30.500 10.000 30.545 10.000 30.600 V 36.600 C 10.000 36.655 10.045 36.700 10.100 36.700 H 11.500 C 11.600 36.700 11.500 36.600 11.500 36.700 V 42.500 C 11.500 42.600 11.600 42.500 11.500 42.500 H 10.100 C 10.045 42.500 10.000 42.545 10.000 42.600 V 48.600 C 10.000 48.655 10.045 48.700 10.100 48.700 H 11.500 C 11.600 48.700 11.500 48.600 11.500 48.700 V 54.500 C 11.500 54.600 11.600 54.500 11.500 54.500 H 10.100 C 10.045 54.500 10.000 54.545 10.000 54.600 V 60.600 C 10.000 60.655 10.045 60.700 10.100 60.700 H 11.500 C 11.600 60.700 11.500 60.600 11.500 60.700 V 66.500 C 11.500 66.600 11.600 66.500 11.500 66.500 H 10.100 C 10.045 66.500 10.000 66.545 10.000 66.600 V 72.600 C 10.000 72.655 10.045 72.700 10.100 72.700 H 11.500 C 11.600 72.700 11.500 72.600 11.500 72.700 V 78.500 C 11.500 78.600 11.600 78.500 11.500 78.500 H 10.100 C 10.045 78.500 10.000 78.545 10.000 78.600 V 84.600 C 10.000 84.655 10.045 84.700 10.100 84.700 H 11.500 C 11.600 84.700 11.500 84.600 11.500 84.700 V 90.500 C 11.500 90.600 11.600 90.500 11.500 90.500 H 10.100 C 10.045 90.500 10.000 90.545 10.000 90.600 V 96.600 C 10.000 96.655 10.045 96.700 10.100 96.700 H 11.500 C 11.600 96.700 11.500 96.600 11.500 96.700 V 102.500 C 11.500 102.600 11.600 102.500 11.500 102.500 H 10.100 C 10.045 102.500 10.000 102.545 10.000 102.600 V 114.100 V 120.100 C 10.000 120.155 10.045 120.200 10.100 120.200 H 10.904 Z" stroke="rgb(0,0,0)" stroke-width="0.20" />
</g>
<g id="p-5" style="fill:none;stroke-linecap:round;stroke-linejoin:round;">
  <path d="M 47.973 117.000 H 45.073 C 44.973 117.000 45.073 117.100 45.073 117.000 V 114.200 C 45.073 114.100 44.973 114.200 45.073 114.200 H 50.873 C 50.973 114.200 50.873 114.100 50.873 114.200 V 117.000 C 50.873 117.100 50.973 117.000 50.873 117.000 H 47.973 Z" stroke="rgb(0,0,255)" stroke-width="0.20" />
  <path d="M 36.719 120.200 H 59.227 H 58.531 C 58.586 120.200 58.631 120.155 58.631 120.100 V 114.100 V 102.700 C 58.631 102.600 58.531 102.700 58.631 102.700 H 60.031 C 60.086 102.700 60.131 102.655 60.131 102.600 V 96.600 C 60.131 96.545 60.086 96.500 60.031 96.500 H 58.631 C 58.531 96.500 58.631 96.600 58.631 96.500 V 90.700 C 58.631 90.600 58.531 90.700 58.631 90.700 H 60.031 C 60.086 90.700 60.131 90.655 60.131 90.600 V 84.600 C 60.131 84.545 60.086 84.500 60.031 84.500 H 58.631 C 58.531 84.500 58.631 84.600 58.631 84.500 V 78.700 C 58.631 78.600 58.531 78.700 58.631 78.700 H 60.031 C 60.086 78.700 60.131 78.655 60.131 78.600 V 72.600 C 60.131 72.545 60.086 72.500 60.031 72.500 H 58.631 C 58.531 72.500 58.631 72.600 58.631 72.500 V 66.700 C 58.631 66.600 58.531 66.700 58.631 66.700 H 60.031 C 60.086 66.700 60.131 66.655 60.131 66.600 V 60.600 C 60.131 60.545 60.086 60.500 60.031 60.500 H 58.631 C 58.531 60.500 58.631 60.600 58.631 60.500 V 54.700 C 58.631 54.600 58.531 54.700 58.631 54.700 H 60.031 C 60.086 54.700 60.131 54.655 60.131 54.600 V 48.600 C 60.131 48.545 60.086 48.500 60.031 48.500 H 58.631 C 58.531 48.500 58.631 48.600 58.631 48.500 V 42.700 C 58.631 42.600 58.531 42.700 58.631 42.700 H 60.031 C 60.086 42.700 60.131 42.655 60.131 42.600 V 36.600 C 60.131 36.545 60.086 36.500 60.031 36.500 H 58.631 C 58.531 36.500 58.631 36.600 58.631 36.500 V 30.700 C 58.631 30.600 58.531 30.700 58.631 30.700 H 60.031 C 60.086 30.700 60.131 30.655 60.131 30.600 V 24.600 C 60.131 24.545 60.086 24.500 60.031 24.500 H 58.631 C 58.531 24.500 58.631 24.600 58.631 24.500 V 13.100 C 58.631 13.045 58.586 13.000 58.531 13.000 H 59.227 H 51.073 C 50.973 13.000 51.073 13.100 51.073 13.000 V 10.100 C 51.073 10.045 51.028 10.000 50.973 10.000 H 44.973 C 44.918 10.000 44.873 10.045 44.873 10.100 V 13.000 C 44.873 13.100 44.973 13.000 44.873 13.000 H 36.719 H 37.415 C 37.360 13.000 37.315 13.045 37.315 13.100 V 24.500 C 37.315 24.600 37.415 24.500 37.315 24.500 H 35.915 C 35.860 24.500 35.815 24.545 35.815 24.600 V 30.600 C 35.815 30.655 35.860 30.700 35.915 30.700 H 37.315 C 37.415 30.700 37.315 30.600 37.315 30.700 V 36.500 C 37.315 36.600 37.415 36.500 37.315 36.500 H 35.915 C 35.860 36.500 35.815 36.545 35.815 36.600 V 42.600 C 35.815 42.655 35.860 42.700 35.915 42.700 H 37.315 C 37.415 42.700 37.315 42.600 37.315 42.700 V 48.500 C 37.315 48.600 37.415 48.500 37.315 48.500 H 35.915 C 35.860 48.500 35.815 48.545 35.815 48.600 V 54.600 C 35.815 54.655 35.860 54.700 35.915 54.700 H 37.315 C 37.415 54.700 37.315 54.600 37.315 54.700 V 60.500 C 37.315 60.600 37.415 60.500 37.315 60.500 H 35.915 C 35.860 60.500 35.815 60.545 35.815 60.600 V 66.600 C 35.815 66.655 35.860 66.700 35.915 66.700 H 37.315 C 37.415 66.700 37.315 66.600 37.315 66.700 V 72.500 C 37.315 72.600 37.415 72.500 37.315 72.500 H 35.915 C 35.860 72.500 35.815 72.545 35.815 72.600 V 78.600 C 35.815 78.655 35.860 78.700 35.915 78.700 H 37.315 C 37.415 78.700 37.315 78.600 37.315 78.700 V 84.500 C 37.315 84.600 37.415 84.500 37.315 84.500 H 35.915 C 35.860 84.500 35.815 84.545 35.815 84.600 V 90.600 C 35.815 90.655 35.860 90.700 35.915 90.700 H 37.315 C 37.415 90.700 37.315 90.600 37.315 90.700 V 96.500 C 37.315 96.600 37.415 96.500 37.315 96.500 H 35.915 C 35.860 96.500 35.815 96.545 35.815 96.600 V 102.600 C 35.815 102.655 35.860 102.700 35.915 102.700 H 37.315 C 37.415 102.700 37.315 102.600 37.315 102.700 V 114.100 V 120.100 C 37.315 120.155 37.360 120.200 37.415 120.200 H 36.719 Z" stroke="rgb(0,0,0)" stroke-width="0.20" />
</g>
<g id="p-6" style="fill:none;stroke-linecap:round;stroke-linejoin:round;">
  <path d="M 73.789 117.000 H 70.889 C 70.789 117.000 70.889 117.100 70.889 117.000 V 114.200 C 70.889 114.100 70.789 114.200 70.889 114.200 H 76.689 C 76.789 114.200 76.689 114.100 76.689 114.200 V 117.000 C 76.689 117.100 76.789 117.000 76.689 117.000 H 73.789 Z" stroke="rgb(0,0,255)" stroke-width="0.20" />
  <path d="M 62.535 120.200 H 85.042 H 85.846 C 85.902 120.200 85.946 120.155 85.946 120.100 V 114.100 V 102.600 C 85.946 102.545 85.902 102.500 85.846 102.500 H 84.446 C 84.346 102.500 84.446 102.600 84.446 102.500 V 96.700 C 84.446 96.600 84.346 96.700 84.446 96.700 H 85.846 C 85.902 96.700 85.946 96.655 85.946 96.600 V 90.600 C 85.946 90.545 85.902 90.500 85.846 90.500 H 84.446 C 84.346 90.500 84.446 90.600 84.446 90.500 V 84.700 C 84.446 84.600 84.346 84.700 84.446 84.700 H 85.846 C 85.902 84.700 85.946 84.655 85.946 84.600 V 78.600 C 85.946 78.545 85.902 78.500 85.846 78.500 H 84.446 C 84.346 78.500 84.446 78.600 84.446 78.500 V 72.700 C 84.446 72.600 84.346 72.700 84.446 72.700 H 85.846 C 85.902 72.700 85.946 72.655 85.946 72.600 V 66.600 C 85.946 66.545 85.902 66.500 85.846 66.500 H 84.446 C 84.346 66.500 84.446 66.600 84.446 66.500 V 60.700 C 84.446 60.600 84.346 60.700 84.446 60.700 H 85.846 C 85.902 60.700 85.946 60.655 85.946 60.600 V 54.600 C 85.946 54.545 85.902 54.500 85.846 54.500 H 84.446 C 84.346 54.500 84.446 54.600 84.446 54.500 V 48.700 C 84.446 48.600 84.346 48.700 84.446 48.700 H 85.846 C 85.902 48.700 85.946 48.655 85.946 48.600 V 42.600 C 85.946 42.545 85.902 42.500 85.846 42.500 H 84.446 C 84.346 42.500 84.446 42.600 84.446 42.500 V 36.700 C 84.446 36.600 84.346 36.700 84.446 36.700 H 85.846 C 85.902 36.700 85.946 36.655 85.946 36.600 V 30.600 C 85.946 30.545 85.902 30.500 85.846 30.500 H 84.446 C 84.346 30.500 84.446 30.600 84.446 30.500 V 24.700 C 84.446 24.600 84.346 24.700 84.446 24.700 H 85.846 C 85.902 24.700 85.946 24.655 85.946 24.600 V 13.100 C 85.946 13.045 85.902 13.000 85.846 13.000 H 85.042 H 76.889 C 76.789 13.000 76.889 13.100 76.889 13.000 V 10.100 C 76.889 10.045 76.844 10.000 76.789 10.000 H 70.789 C 70.733 10.000 70.689 10.045 70.689 10.100 V 13.000 C 70.689 13.100 70.789 13.000 70.689 13.000 H 62.535 H 61.731 C 61.676 13.000 61.631 13.045 61.631 13.100 V 24.600 C 61.631 24.655 61.676 24.700 61.731 24.700 H 63.131 C 63.231 24.700 63.131 24.600 63.131 24.700 V 30.500 C 63.131 30.600 63.231 30.500 63.131 30.500 H 61.731 C 61.676 30.500 61.631 30.545 61.631 30.600 V 36.600 C 61.631 36.655 61.676 36.700 61.731 36.700 H 63.131 C 63.231 36.700 63.131 36.600 63.131 36.700 V 42.500 C 63.131 42.600 63.231 42.500 63.131 42.500 H 61.731 C 61.676 42.500 61.631 42.545 61.631 42.600 V 48.600 C 61.631 48.655 61.676 48.700 61.731 48.700 H 63.131 C 63.231 48.700 63.131 48.600 63.131 48.700 V 54.500 C 63.131 54.600 63.231 54.500 63.131 54.500 H 61.731 C 61.676 54.500 61.631 54.545 61.631 54.600 V 60.600 C 61.631 60.655 61.676 60.700 61.731 60.700 H 63.131 C 63.231 60.700 63.131 60.600 63.131 60.700 V 66.500 C 63.131 66.600 63.231 66.500 63.131 66.500 H 61.731 C 61.676 66.500 61.631 66.545 61.631 66.600 V 72.600 C 61.631 72.655 61.676 72.700 61.731 72.700 H 63.131 C 63.231 72.700 63.131 72.600 63.131 72.700 V 78.500 C 63.131 78.600 63.231 78.500 63.131 78.500 H 61.731 C 61.676 78.500 61.631 78.545 61.631 78.600 V 84.600 C 61.631 84.655 61.676 84.700 61.731 84.700 H 63.131 C 63.231 84.700 63.131 84.600 63.131 84.700 V 90.500 C 63.131 90.600 63.231 90.500 63.131 90.500 H 61.731 C 61.676 90.500 61.631 90.545 61.631 90.600 V 96.600 C 61.631 96.655 61.676 96.700 61.731 96.700 H 63.131 C 63.231 96.700 63.131 96.600 63.131 96.700 V 102.500 C 63.131 102.600 63.231 102.500 63.131 102.500 H 61.731 C 61.676 102.500 61.631 102.545 61.631 102.600 V 114.100 V 120.100 C 61.631 120.155 61.676 120.200 61.731 120.200 H 62.535 Z" stroke="rgb(0,0,0)" stroke-width="0.20" />
</g>
<g id="p-7" style="fill:none;stroke-linecap:round;stroke-linejoin:round;">
  <path d="M 99.604 117.000 H 96.704 C 96.604 117.000 96.704 117.100 96.704 117.000 V 114.200 C 96.704 114.100 96.604 114.200 96.704 114.200 H 102.504 C 102.604 114.200 102.504 114.100 102.504 114.200 V 117.000 C 102.504 117.100 102.604 117.000 102.504 117.000 H 99.604 Z" stroke="rgb(0,0,255)" stroke-width="0.20" />
  <path d="M 88.350 120.200 H 110.858 H 110.162 C 110.217 120.200 110.262 120.155 110.262 120.100 V 114.100 V 102.700 C 110.262 102.600 110.162 102.700 110.262 102.700 H 111.662 C 111.717 102.700 111.762 102.655 111.762 102.600 V 96.600 C 111.762 96.545 111.717 96.500 111.662 96.500 H 110.262 C 110.162 96.500 110.262 96.600 110.262 96.500 V 90.700 C 110.262 90.600 110.162 90.700 110.262 90.700 H 111.662 C 111.717 90.700 111.762 90.655 111.762 90.600 V 84.600 C 111.762 84.545 111.717 84.500 111.662 84.500 H 110.262 C 110.162 84.500 110.262 84.600 110.262 84.500 V 78.700 C 110.262 78.600 110.162 78.700 110.262 78.700 H 111.662 C 111.717 78.700 111.762 78.655 111.762 78.600 V 72.600 C 111.762 72.545 111.717 72.500 111.662 72.500 H 110.262 C 110.162 72.500 110.262 72.600 110.262 72.500 V 66.700 C 110.262 66.600 110.162 66.700 110.262 66.700 H 111.662 C 111.717 66.700 111.762 66.655 111.762 66.600 V 60.600 C 111.762 60.545 111.717 60.500 111.662 60.500 H 110.262 C 110.162 60.500 110.262 60.600 110.262 60.500 V 54.700 C 110.262 54.600 110.162 54.700 110.262 54.700 H 111.662 C 111.717 54.700 111.762 54.655 111.762 54.600 V 48.600 C 111.762 48.545 111.717 48.500 111.662 48.500 H 110.262 C 110.162 48.500 110.262 48.600 110.262 48.500 V 42.700 C 110.262 42.600 110.162 42.700 110.262 42.700 H 111.662 C 111.717 42.700 111.762 42.655 111.762 42.600 V 36.600 C 111.762 36.545 111.717 36.500 111.662 36.500 H 110.262 C 110.162 36.500 110.262 36.600 110.262 36.500 V 30.700 C 110.262 30.600 110.162 30.700 110.262 30.700 H 111.662 C 111.717 30.700 111.762 30.655 111.762 30.600 V 24.600 C 111.762 24.545 111.717 24.500 111.662 24.500 H 110.262 C 110.162 24.500 110.262 24.600 110.262 24.500 V 13.100 C 110.262 13.045 110.217 13.000 110.162 13.000 H 110.858 H 102.704 C 102.604 13.000 102.704 13.100 102.704 13.000 V 10.100 C 102.704 10.045 102.659 10.000 102.604 10.000 H 96.604 C 96.549 10.000 96.504 10.045 96.504 10.100 V 13.000 C 96.504 13.100 96.604 13.000 96.504 13.000 H 88.350 H 89.046 C 88.991 13.000 88.946 13.045 88.946 13.100 V 24.500 C 88.946 24.600 89.046 24.500 88.946 24.500 H 87.546 C 87.491 24.500 87.446 24.545 87.446 24.600 V 30.600 C 87.446 30.655 87.491 30.700 87.546 30.700 H 88.946 C 89.046 30.700 88.946 30.600 88.946 30.700 V 36.500 C 88.946 36.600 89.046 36.500 88.946 36.500 H 87.546 C 87.491 36.500 87.446 36.545 87.446 36.600 V 42.600 C 87.446 42.655 87.491 42.700 87.546 42.700 H 88.946 C 89.046 42.700 88.946 42.600 88.946 42.700 V 48.500 C 88.946 48.600 89.046 48.500 88.946 48.500 H 87.546 C 87.491 48.500 87.446 48.545 87.446 48.600 V 54.600 C 87.446 54.655 87.491 54.700 87.546 54.700 H 88.946 C 89.046 54.700 88.946 54.600 88.946 54.700 V 60.500 C 88.946 60.600 89.046 60.500 88.946 60.500 H 87.546 C 87.491 60.500 87.446 60.545 87.446 60.600 V 66.600 C 87.446 66.655 87.491 66.700 87.546 66.700 H 88.946 C 89.046 66.700 88.946 66.600 88.946 66.700 V 72.500 C 88.946 72.600 89.046 72.500 88.946 72.500 H 87.546 C 87.491 72.500 87.446 72.545 87.446 72.600 V 78.600 C 87.446 78.655 87.491 78.700 87.546 78.700 H 88.946 C 89.046 78.700 88.946 78.600 88.946 78.700 V 84.500 C 88.946 84.600 89.046 84.500 88.946 84.500 H 87.546 C 87.491 84.500 87.446 84.545 87.446 84.600 V 90.600 C 87.446 90.655 87.491 90.700 87.546 90.700 H 88.946 C 89.046 90.700 88.946 90.600 88.946 90.700 V 96.500 C 88.946 96.600 89.046 96.500 88.946 96.500 H 87.546 C 87.491 96.500 87.446 96.545 87.446 96.600 V 102.600 C 87.446 102.655 87.491 102.700 87.546 102.700 H 88.946 C 89.046 102.700 88.946 102.600 88.946 102.700 V 114.100 V 120.100 C 88.946 120.155 88.991 120.200 89.046 120.200 H 88.350 Z" stroke="rgb(0,0,0)" stroke-width="0.20" />
</g>
<g id="p-8" style="fill:none;stroke-linecap:round;stroke-linejoin:round;">
  <path d="M 125.419 117.000 H 122.519 C 122.419 117.000 122.519 117.100 122.519 117.000 V 114.200 C 122.519 114.100 122.419 114.200 122.519 114.200 H 128.319 C 128.419 114.200 128.319 114.100 128.319 114.200 V 117.000 C 128.319 117.100 128.419 117.000 128.319 117.000 H 125.419 Z" stroke="rgb(0,0,255)" stroke-width="0.20" />
  <path d="M 114.166 120.200 H 136.673 H 137.477 C 137.532 120.200 137.577 120.155 137.577 120.100 V 114.100 V 102.600 C 137.577 102.545 137.532 102.500 137.477 102.500 H 136.077 C 135.977 102.500 136.077 102.600 136.077 102.500 V 96.700 C 136.077 96.600 135.977 96.700 136.077 96.700 H 137.477 C 137.532 96.700 137.577 96.655 137.577 96.600 V 90.600 C 137.577 90.545 137.532 90.500 137.477 90.500 H 136.077 C 135.977 90.500 136.077 90.600 136.077 90.500 V 84.700 C 136.077 84.600 135.977 84.700 136.077 84.700 H 137.477 C 137.532 84.700 137.577 84.655 137.577 84.600 V 78.600 C 137.577 78.545 137.532 78.500 137.477 78.500 H 136.077 C 135.977 78.500 136.077 78.600 136.077 78.500 V 72.700 C 136.077 72.600 135.977 72.700 136.077 72.700 H 137.477 C 137.532 72.700 137.577 72.655 137.577 72.600 V 66.600 C 137.577 66.545 137.532 66.500 137.477 66.500 H 136.077 C 135.977 66.500 136.077 66.600 136.077 66.500 V 60.700 C 136.077 60.600 135.977 60.700 136.077 60.700 H 137.477 C 137.532 60.700 137.577 60.655 137.577 60.600 V 54.600 C 137.577 54.545 137.532 54.500 137.477 54.500 H 136.077 C 135.977 54.500 136.077 54.600 136.077 54.500 V 48.700 C 136.077 48.600 135.977 48.700 136.077 48.700 H 137.477 C 137.532 48.700 137.577 48.655 137.577 48.600 V 42.600 C 137.577 42.545 137.532 42.500 137.477 42.500 H 136.077 C 135.977 42.500 136.077 42.600 136.077 42.500 V 36.700 C 136.077 36.600 135.977 36.700 136.077 36.700 H 137.477 C 137.532 36.700 137.577 36.655 137.577 36.600 V 30.600 C 137.577 30.545 137.532 30.500 137.477 30.500 H 136.077 C 135.977 30.500 136.077 30.600 136.077 30.500 V 24.700 C 136.077 24.600 135.977 24.700 136.077 24.700 H 137.477 C 137.532 24.700 137.577 24.655 137.577 24.600 V 13.100 C 137.577 13.045 137.532 13.000 137.477 13.000 H 136.673 H 128.519 C 128.419 13.000 128.519 13.100 128.519 13.000 V 10.100 C 128.519 10.045 128.475 10.000 128.419 10.000 H 122.419 C 122.364 10.000 122.319 10.045 122.319 10.100 V 13.000 C 122.319 13.100 122.419 13.000 122.319 13.000 H 114.166 H 113.362 C 113.306 13.000 113.262 13.045 113.262 13.100 V 24.600 C 113.262 24.655 113.306 24.700 113.362 24.700 H 114.762 C 114.862 24.700 114.762 24.600 114.762 24.700 V 30.500 C 114.762 30.600 114.862 30.500 114.762 30.500 H 113.362 C 113.306 30.500 113.262 30.545 113.262 30.600 V 36.600 C 113.262 36.655 113.306 36.700 113.362 36.700 H 114.762 C 114.862 36.700 114.762 36.600 114.762 36.700 V 42.500 C 114.762 42.600 114.862 42.500 114.762 42.500 H 113.362 C 113.306 42.500 113.262 42.545 113.262 42.600 V 48.600 C 113.262 48.655 113.306 48.700 113.362 48.700 H 114.762 C 114.862 48.700 114.762 48.600 114.762 48.700 V 54.500 C 114.762 54.600 114.862 54.500 114.762 54.500 H 113.362 C 113.306 54.500 113.262 54.545 113.262 54.600 V 60.600 C 113.262 60.655 113.306 60.700 113.362 60.700 H 114.762 C 114.862 60.700 114.762 60.600 114.762 60.700 V 66.500 C 114.762 66.600 114.862 66.500 114.762 66.500 H 113.362 C 113.306 66.500 113.262 66.545 113.262 66.600 V 72.600 C 113.262 72.655 113.306 72.700 113.362 72.700 H 114.762 C 114.862 72.700 114.762 72.600 114.762 72.700 V 78.500 C 114.762 78.600 114.862 78.500 114.762 78.500 H 113.362 C 113.306 78.500 113.262 78.545 113.262 78.600 V 84.600 C 113.262 84.655 113.306 84.700 113.362 84.700 H 114.762 C 114.862 84.700 114.762 84.600 114.762 84.700 V 90.500 C 114.762 90.600 114.862 90.500 114.762 90.500 H 113.362 C 113.306 90.500 113.262 90.545 113.262 90.600 V 96.600 C 113.262 96.655 113.306 96.700 113.362 96.700 H 114.762 C 114.862 96.700 114.762 96.600 114.762 96.700 V 102.500 C 114.762 102.600 114.862 102.500 114.762 102.500 H 113.362 C 113.306 102.500 113.262 102.545 113.262 102.600 V 114.100 V 120.100 C 113.262 120.155 113.306 120.200 113.362 120.200 H 114.166 Z" stroke="rgb(0,0,0)" stroke-width="0.20" />
</g>
<g id="p-9" style="fill:none;stroke-linecap:round;stroke-linejoin:round;">
  <path d="M 151.235 117.000 H 148.335 C 148.235 117.000 148.335 117.100 148.335 117.000 V 114.200 C 148.335 114.100 148.235 114.200 148.335 114.200 H 154.135 C 154.235 114.200 154.135 114.100 154.135 114.200 V 117.000 C 154.135 117.100 154.235 117.000 154.135 117.000 H 151.235 Z" stroke="rgb(0,0,255)" stroke-width="0.20" />
  <path d="M 139.981 120.200 H 162.489 H 161.793 C 161.848 120.200 161.893 120.155 161.893 120.100 V 114.100 V 102.700 C 161.893 102.600 161.793 102.700 161.893 102.700 H 163.293 C 163.348 102.700 163.393 102.655 163.393 102.600 V 96.600 C 163.393 96.545 163.348 96.500 163.293 96.500 H 161.893 C 161.793 96.500 161.893 96.600 161.893 96.500 V 90.700 C 161.893 90.600 161.793 90.700 161.893 90.700 H 163.293 C 163.348 90.700 163.393 90.655 163.393 90.600 V 84.600 C 163.393 84.545 163.348 84.500 163.293 84.500 H 161.893 C 161.793 84.500 161.893 84.600 161.893 84.500 V 78.700 C 161.893 78.600 161.793 78.700 161.893 78.700 H 163.293 C 163.348 78.700 163.393 78.655 163.393 78.600 V 72.600 C 163.393 72.545 163.348 72.500 163.293 72.500 H 161.893 C 161.793 72.500 161.893 72.600 161.893 72.500 V 66.700 C 161.893 66.600 161.793 66.700 161.893 66.700 H 163.293 C 163.348 66.700 163.393 66.655 163.393 66.600 V 60.600 C 163.393 60.545 163.348 60.500 163.293 60.500 H 161.893 C 161.793 60.500 161.893 60.600 161.893 60.500 V 54.700 C 161.893 54.600 161.793 54.700 161.893 54.700 H 163.293 C 163.348 54.700 163.393 54.655 163.393 54.600 V 48.600 C 163.393 48.545 163.348 48.500 163.293 48.500 H 161.893 C 161.793 48.500 161.893 48.600 161.893 48.500 V 42.700 C 161.893 42.600 161.793 42.700 161.893 42.700 H 163.293 C 163.348 42.700 163.393 42.655 163.393 42.600 V 36.600 C 163.393 36.545 163.348 36.500 163.293 36.500 H 161.893 C 161.793 36.500 161.893 36.600 161.893 36.500 V 30.700 C 161.893 30.600 161.793 30.700 161.893 30.700 H 163.293 C 163.348 30.700 163.393 30.655 163.393 30.600 V 24.600 C 163.393 24.545 163.348 24.500 163.293 24.500 H 161.893 C 161.793 24.500 161.893 24.600 161.893 24.500 V 13.100 C 161.893 13.045 161.848 13.000 161.793 13.000 H 162.489 H 154.335 C 154.235 13.000 154.335 13.100 154.335 13.000 V 10.100 C 154.335 10.045 154.290 10.000 154.235 10.000 H 148.235 C 148.180 10.000 148.135 10.045 148.135 10.100 V 13.000 C 148.135 13.100 148.235 13.000 148.135 13.000 H 139.981 H 140.677 C 140.622 13.000 140.577 13.045 140.577 13.100 V 24.500 C 140.577 24.600 140.677 24.500 140.577 24.500 H 139.177 C 139.122 24.500 139.077 24.545 139.077 24.600 V 30.600 C 139.077 30.655 139.122 30.700 139.177 30.700 H 140.577 C 140.677 30.700 140.577 30.600 140.577 30.700 V 36.500 C 140.577 36.600 140.677 36.500 140.577 36.500 H 139.177 C 139.122 36.500 139.077 36.545 139.077 36.600 V 42.600 C 139.077 42.655 139.122 42.700 139.177 42.700 H 140.577 C 140.677 42.700 140.577 42.600 140.577 42.700 V 48.500 C 140.577 48.600 140.677 48.500 140.577 48.500 H 139.177 C 139.122 48.500 139.077 48.545 139.077 48.600 V 54.600 C 139.077 54.655 139.122 54.700 139.177 54.700 H 140.577 C 140.677 54.700 140.577 54.600 140.577 54.700 V 60.500 C 140.577 60.600 140.677 60.500 140.577 60.500 H 139.177 C 139.122 60.500 139.077 60.545 139.077 60.600 V 66.600 C 139.077 66.655 139.122 66.700 139.177 66.700 H 140.577 C 140.677 66.700 140.577 66.600 140.577 66.700 V 72.500 C 140.577 72.600 140.677 72.500 140.577 72.500 H 139.177 C 139.122 72.500 139.077 72.545 139.077 72.600 V 78.600 C 139.077 78.655 139.122 78.700 139.177 78.700 H 140.577 C 140.677 78.700 140.577 78.600 140.577 78.700 V 84.500 C 140.577 84.600 140.677 84.500 140.577 84.500 H 139.177 C 139.122 84.500 139.077 84.545 139.077 84.600 V 90.600 C 139.077 90.655 139.122 90.700 139.177 90.700 H 140.577 C 140.677 90.700 140.577 90.600 140.577 90.700 V 96.500 C 140.577 96.600 140.677 96.500 140.577 96.500 H 139.177 C 139.122 96.500 139.077 96.545 139.077 96.600 V 102.600 C 139.077 102.655 139.122 102.700 139.177 102.700 H 140.577 C 140.677 102.700 140.577 102.600 140.577 102.700 V 114.100 V 120.100 C 140.577 120.155 140.622 120.200 140.677 120.200 H 139.981 Z" stroke="rgb(0,0,0)" stroke-width="0.20" />
</g>
<g id="p-10" style="fill:none;stroke-linecap:round;stroke-linejoin:round;">
  <path d="M 177.050 117.000 H 174.150 C 174.050 117.000 174.150 117.100 174.150 117.000 V 114.200 C 174.150 114.100 174.050 114.200 174.150 114.200 H 179.950 C 180.050 114.200 179.950 114.100 179.950 114.200 V 117.000 C 179.950 117.100 180.050 117.000 179.950 117.000 H 177.050 Z" stroke="rgb(0,0,255)" stroke-width="0.20" />
  <path d="M 165.796 120.200 H 188.304 H 187.608 C 187.663 120.200 187.708 120.155 187.708 120.100 V 114.100 V 102.700 C 187.708 102.600 187.608 102.700 187.708 102.700 H 189.108 C 189.163 102.700 189.208 102.655 189.208 102.600 V 96.600 C 189.208 96.545 189.163 96.500 189.108 96.500 H 187.708 C 187.608 96.500 187.708 96.600 187.708 96.500 V 90.700 C 187.708 90.600 187.608 90.700 187.708 90.700 H 189.108 C 189.163 90.700 189.208 90.655 189.208 90.600 V 84.600 C 189.208 84.545 189.163 84.500 189.108 84.500 H 187.708 C 187.608 84.500 187.708 84.600 187.708 84.500 V 78.700 C 187.708 78.600 187.608 78.700 187.708 78.700 H 189.108 C 189.163 78.700 189.208 78.655 189.208 78.600 V 72.600 C 189.208 72.545 189.163 72.500 189.108 72.500 H 187.708 C 187.608 72.500 187.708 72.600 187.708 72.500 V 66.700 C 187.708 66.600 187.608 66.700 187.708 66.700 H 189.108 C 189.163 66.700 189.208 66.655 189.208 66.600 V 60.600 C 189.208 60.545 189.163 60.500 189.108 60.500 H 187.708 C 187.608 60.500 187.708 60.600 187.708 60.500 V 54.700 C 187.708 54.600 187.608 54.700 187.708 54.700 H 189.108 C 189.163 54.700 189.208 54.655 189.208 54.600 V 48.600 C 189.208 48.545 189.163 48.500 189.108 48.500 H 187.708 C 187.608 48.500 187.708 48.600 187.708 48.500 V 42.700 C 187.708 42.600 187.608 42.700 187.708 42.700 H 189.108 C 189.163 42.700 189.208 42.655 189.208 42.600 V 36.600 C 189.208 36.545 189.163 36.500 189.108 36.500 H 187.708 C 187.608 36.500 187.708 36.600 187.708 36.500 V 30.700 C 187.708 30.600 187.608 30.700 187.708 30.700 H 189.108 C 189.163 30.700 189.208 30.655 189.208 30.600 V 24.600 C 189.208 24.545 189.163 24.500 189.108 24.500 H 187.708 C 187.608 24.500 187.708 24.600 187.708 24.500 V 13.100 C 187.708 13.045 187.663 13.000 187.608 13.000 H 188.304 H 180.150 C 180.050 13.000 180.150 13.100 180.150 13.000 V 10.100 C 180.150 10.045 180.106 10.000 180.050 10.000 H 174.050 C 173.995 10.000 173.950 10.045 173.950 10.100 V 13.000 C 173.950 13.100 174.050 13.000 173.950 13.000 H 165.796 H 166.493 C 166.437 13.000 166.393 13.045 166.393 13.100 V 24.500 C 166.393 24.600 166.493 24.500 166.393 24.500 H 164.993 C 164.937 24.500 164.893 24.545 164.893 24.600 V 30.600 C 164.893 30.655 164.937 30.700 164.993 30.700 H 166.393 C 166.493 30.700 166.393 30.600 166.393 30.700 V 36.500 C 166.393 36.600 166.493 36.500 166.393 36.500 H 164.993 C 164.937 36.500 164.893 36.545 164.893 36.600 V 42.600 C 164.893 42.655 164.937 42.700 164.993 42.700 H 166.393 C 166.493 42.700 166.393 42.600 166.393 42.700 V 48.500 C 166.393 48.600 166.493 48.500 166.393 48.500 H 164.993 C 164.937 48.500 164.893 48.545 164.893 48.600 V 54.600 C 164.893 54.655 164.937 54.700 164.993 54.700 H 166.393 C 166.493 54.700 166.393 54.600 166.393 54.700 V 60.500 C 166.393 60.600 166.493 60.500 166.393 60.500 H 164.993 C 164.937 60.500 164.893 60.545 164.893 60.600 V 66.600 C 164.893 66.655 164.937 66.700 164.993 66.700 H 166.393 C 166.493 66.700 166.393 66.600 166.393 66.700 V 72.500 C 166.393 72.600 166.493 72.500 166.393 72.500 H 164.993 C 164.937 72.500 164.893 72.545 164.893 72.600 V 78.600 C 164.893 78.655 164.937 78.700 164.993 78.700 H 166.393 C 166.493 78.700 166.393 78.600 166.393 78.700 V 84.500 C 166.393 84.600 166.493 84.500 166.393 84.500 H 164.993 C 164.937 84.500 164.893 84.545 164.893 84.600 V 90.600 C 164.893 90.655 164.937 90.700 164.993 90.700 H 166.393 C 166.493 90.700 166.393 90.600 166.393 90.700 V 96.500 C 166.393 96.600 166.493 96.500 166.393 96.500 H 164.993 C 164.937 96.500 164.893 96.545 164.893 96.600 V 102.600 C 164.893 102.655 164.937 102.700 164.993 102.700 H 166.393 C 166.493 102.700 166.393 102.600 166.393 102.700 V 114.100 V 120.100 C 166.393 120.155 166.437 120.200 166.493 120.200 H 165.796 Z" stroke="rgb(0,0,0)" stroke-width="0.20" />
</g>
<g id="p-11" style="fill:none;stroke-linecap:round;stroke-linejoin:round;">
  <path d="M 202.866 117.000 H 199.966 C 199.866 117.000 199.966 117.100 199.966 117.000 V 114.200 C 199.966 114.100 199.866 114.200 199.966 114.200 H 205.766 C 205.866 114.200 205.766 114.100 205.766 114.200 V 117.000 C 205.766 117.100 205.866 117.000 205.766 117.000 H 202.866 Z" stroke="rgb(0,0,255)" stroke-width="0.20" />
  <path d="M 191.612 120.200 H 214.120 H 214.923 C 214.979 120.200 215.023 120.155 215.023 120.100 V 114.100 V 102.600 C 215.023 102.545 214.979 102.500 214.923 102.500 H 213.523 C 213.423 102.500 213.523 102.600 213.523 102.500 V 96.700 C 213.523 96.600 213.423 96.700 213.523 96.700 H 214.923 C 214.979 96.700 215.023 96.655 215.023 96.600 V 90.600 C 215.023 90.545 214.979 90.500 214.923 90.500 H 213.523 C 213.423 90.500 213.523 90.600 213.523 90.500 V 84.700 C 213.523 84.600 213.423 84.700 213.523 84.700 H 214.923 C 214.979 84.700 215.023 84.655 215.023 84.600 V 78.600 C 215.023 78.545 214.979 78.500 214.923 78.500 H 213.523 C 213.423 78.500 213.523 78.600 213.523 78.500 V 72.700 C 213.523 72.600 213.423 72.700 213.523 72.700 H 214.923 C 214.979 72.700 215.023 72.655 215.023 72.600 V 66.600 C 215.023 66.545 214.979 66.500 214.923 66.500 H 213.523 C 213.423 66.500 213.523 66.600 213.523 66.500 V 60.700 C 213.523 60.600 213.423 60.700 213.523 60.700 H 214.923 C 214.979 60.700 215.023 60.655 215.023 60.600 V 54.600 C 215.023 54.545 214.979 54.500 214.923 54.500 H 213.523 C 213.423 54.500 213.523 54.600 213.523 54.500 V 48.700 C 213.523 48.600 213.423 48.700 213.523 48.700 H 214.923 C 214.979 48.700 215.023 48.655 215.023 48.600 V 42.600 C 215.023 42.545 214.979 42.500 214.923 42.500 H 213.523 C 213.423 42.500 213.523 42.600 213.523 42.500 V 36.700 C 213.523 36.600 213.423 36.700 213.523 36.700 H 214.923 C 214.979 36.700 215.023 36.655 215.023 36.600 V 30.600 C 215.023 30.545 214.979 30.500 214.923 30.500 H 213.523 C 213.423 30.500 213.523 30.600 213.523 30.500 V 24.700 C 213.523 24.600 213.423 24.700 213.523 24.700 H 214.923 C 214.979 24.700 215.023 24.655 215.023 24.600 V 13.100 C 215.023 13.045 214.979 13.000 214.923 13.000 H 214.120 H 205.966 C 205.866 13.000 205.966 13.100 205.966 13.000 V 10.100 C 205.966 10.045 205.921 10.000 205.866 10.000 H 199.866 C 199.810 10.000 199.766 10.045 199.766 10.100 V 13.000 C 199.766 13.100 199.866 13.000 199.766 13.000 H 191.612 H 190.808 C 190.753 13.000 190.708 13.045 190.708 13.100 V 24.600 C 190.708 24.655 190.753 24.700 190.808 24.700 H 192.208 C 192.308 24.700 192.208 24.600 192.208 24.700 V 30.500 C 192.208 30.600 192.308 30.500 192.208 30.500 H 190.808 C 190.753 30.500 190.708 30.545 190.708 30.600 V 36.600 C 190.708 36.655 190.753 36.700 190.808 36.700 H 192.208 C 192.308 36.700 192.208 36.600 192.208 36.700 V 42.500 C 192.208 42.600 192.308 42.500 192.208 42.500 H 190.808 C 190.753 42.500 190.708 42.545 190.708 42.600 V 48.600 C 190.708 48.655 190.753 48.700 190.808 48.700 H 192.208 C 192.308 48.700 192.208 48.600 192.208 48.700 V 54.500 C 192.208 54.600 192.308 54.500 192.208 54.500 H 190.808 C 190.753 54.500 190.708 54.545 190.708 54.600 V 60.600 C 190.708 60.655 190.753 60.700 190.808 60.700 H 192.208 C 192.308 60.700 192.208 60.600 192.208 60.700 V 66.500 C 192.208 66.600 192.308 66.500 192.208 66.500 H 190.808 C 190.753 66.500 190.708 66.545 190.708 66.600 V 72.600 C 190.708 72.655 190.753 72.700 190.808 72.700 H 192.208 C 192.308 72.700 192.208 72.600 192.208 72.700 V 78.500 C 192.208 78.600 192.308 78.500 192.208 78.500 H 190.808 C 190.753 78.500 190.708 78.545 190.708 78.600 V 84.600 C 190.708 84.655 190.753 84.700 190.808 84.700 H 192.208 C 192.308 84.700 192.208 84.600 192.208 84.700 V 90.500 C 192.208 90.600 192.308 90.500 192.208 90.500 H 190.808 C 190.753 90.500 190.708 90.545 190.708 90.600 V 96.600 C 190.708 96.655 190.753 96.700 190.808 96.700 H 192.208 C 192.308 96.700 192.208 96.600 192.208 96.700 V 102.500 C 192.208 102.600 192.308 102.500 192.208 102.500 H 190.808 C 190.753 102.500 190.708 102.545 190.708 102.600 V 114.100 V 120.100 C 190.708 120.155 190.753 120.200 190.808 120.200 H 191.612 Z" stroke="rgb(0,0,0)" stroke-width="0.20" />
</g>
<g id="p-12" style="fill:none;stroke-linecap:round;stroke-linejoin:round;">
  <path d="M 228.681 117.000 H 225.781 C 225.681 117.000 225.781 117.100 225.781 117.000 V 114.200 C 225.781 114.100 225.681 114.200 225.781 114.200 H 231.581 C 231.681 114.200 231.581 114.100 231.581 114.200 V 117.000 C 231.581 117.100 231.681 117.000 231.581 117.000 H 228.681 Z" stroke="rgb(0,0,255)" stroke-width="0.20" />
  <path d="M 217.427 120.200 H 239.935 H 239.239 C 239.294 120.200 239.339 120.155 239.339 120.100 V 114.100 V 102.700 C 239.339 102.600 239.239 102.700 239.339 102.700 H 240.739 C 240.794 102.700 240.839 102.655 240.839 102.600 V 96.600 C 240.839 96.545 240.794 96.500 240.739 96.500 H 239.339 C 239.239 96.500 239.339 96.600 239.339 96.500 V 90.700 C 239.339 90.600 239.239 90.700 239.339 90.700 H 240.739 C 240.794 90.700 240.839 90.655 240.839 90.600 V 84.600 C 240.839 84.545 240.794 84.500 240.739 84.500 H 239.339 C 239.239 84.500 239.339 84.600 239.339 84.500 V 78.700 C 239.339 78.600 239.239 78.700 239.339 78.700 H 240.739 C 240.794 78.700 240.839 78.655 240.839 78.600 V 72.600 C 240.839 72.545 240.794 72.500 240.739 72.500 H 239.339 C 239.239 72.500 239.339 72.600 239.339 72.500 V 66.700 C 239.339 66.600 239.239 66.700 239.339 66.700 H 240.739 C 240.794 66.700 240.839 66.655 240.839 66.600 V 60.600 C 240.839 60.545 240.794 60.500 240.739 60.500 H 239.339 C 239.239 60.500 239.339 60.600 239.339 60.500 V 54.700 C 239.339 54.600 239.239 54.700 239.339 54.700 H 240.739 C 240.794 54.700 240.839 54.655 240.839 54.600 V 48.600 C 240.839 48.545 240.794 48.500 240.739 48.500 H 239.339 C 239.239 48.500 239.339 48.600 239.339 48.500 V 42.700 C 239.339 42.600 239.239 42.700 239.339 42.700 H 240.739 C 240.794 42.700 240.839 42.655 240.839 42.600 V 36.600 C 240.839 36.545 240.794 36.500 240.739 36.500 H 239.339 C 239.239 36.500 239.339 36.600 239.339 36.500 V 30.700 C 239.339 30.600 239.239 30.700 239.339 30.700 H 240.739 C 240.794 30.700 240.839 30.655 240.839 30.600 V 24.600 C 240.839 24.545 240.794 24.500 240.739 24.500 H 239.339 C 239.239 24.500 239.339 24.600 239.339 24.500 V 13.100 C 239.339 13.045 239.294 13.000 239.239 13.000 H 239.935 H 231.781 C 231.681 13.000 231.781 13.100 231.781 13.000 V 10.100 C 231.781 10.045 231.736 10.000 231.681 10.000 H 225.681 C 225.626 10.000 225.581 10.045 225.581 10.100 V 13.000 C 225.581 13.100 225.681 13.000 225.581 13.000 H 217.427 H 218.123 C 218.068 13.000 218.023 13.045 218.023 13.100 V 24.500 C 218.023 24.600 218.123 24.500 218.023 24.500 H 216.623 C 216.568 24.500 216.523 24.545 216.523 24.600 V 30.600 C 216.523 30.655 216.568 30.700 216.623 30.700 H 218.023 C 218.123 30.700 218.023 30.600 218.023 30.700 V 36.500 C 218.023 36.600 218.123 36.500 218.023 36.500 H 216.623 C 216.568 36.500 216.523 36.545 216.523 36.600 V 42.600 C 216.523 42.655 216.568 42.700 216.623 42.700 H 218.023 C 218.123 42.700 218.023 42.600 218.023 42.700 V 48.500 C 218.023 48.600 218.123 48.500 218.023 48.500 H 216.623 C 216.568 48.500 216.523 48.545 216.523 48.600 V 54.600 C 216.523 54.655 216.568 54.700 216.623 54.700 H 218.023 C 218.123 54.700 218.023 54.600 218.023 54.700 V 60.500 C 218.023 60.600 218.123 60.500 218.023 60.500 H 216.623 C 216.568 60.500 216.523 60.545 216.523 60.600 V 66.600 C 216.523 66.655 216.568 66.700 216.623 66.700 H 218.023 C 218.123 66.700 218.023 66.600 218.023 66.700 V 72.500 C 218.023 72.600 218.123 72.500 218.023 72.500 H 216.623 C 216.568 72.500 216.523 72.545 216.523 72.600 V 78.600 C 216.523 78.655 216.568 78.700 216.623 78.700 H 218.023 C 218.123 78.700 218.023 78.600 218.023 78.700 V 84.500 C 218.023 84.600 218.123 84.500 218.023 84.500 H 216.623 C 216.568 84.500 216.523 84.545 216.523 84.600 V 90.600 C 216.523 90.655 216.568 90.700 216.623 90.700 H 218.023 C 218.123 90.700 218.023 90.600 218.023 90.700 V 96.500 C 218.023 96.600 218.123 96.500 218.023 96.500 H 216.623 C 216.568 96.500 216.523 96.545 216.523 96.600 V 102.600 C 216.523 102.655 216.568 102.700 216.623 102.700 H 218.023 C 218.123 102.700 218.023 102.600 218.023 102.700 V 114.100 V 120.100 C 218.023 120.155 218.068 120.200 218.123 120.200 H 217.427 Z" stroke="rgb(0,0,0)" stroke-width="0.20" />
</g>
<g id="p-13" style="fill:none;stroke-linecap:round;stroke-linejoin:round;">
  <path d="M 254.497 117.000 H 251.597 C 251.497 117.000 251.597 117.100 251.597 117.000 V 114.200 C 251.597 114.100 251.497 114.200 251.597 114.200 H 257.397 C 257.497 114.200 257.397 114.100 257.397 114.200 V 117.000 C 257.397 117.100 257.497 117.000 257.397 117.000 H 254.497 Z" stroke="rgb(0,0,255)" stroke-width="0.20" />
  <path d="M 243.243 120.200 H 265.750 H 266.554 C 266.610 120.200 266.654 120.155 266.654 120.100 V 114.100 V 102.600 C 266.654 102.545 266.610 102.500 266.554 102.500 H 265.154 C 265.054 102.500 265.154 102.600 265.154 102.500 V 96.700 C 265.154 96.600 265.054 96.700 265.154 96.700 H 266.554 C 266.610 96.700 266.654 96.655 266.654 96.600 V 90.600 C 266.654 90.545 266.610 90.500 266.554 90.500 H 265.154 C 265.054 90.500 265.154 90.600 265.154 90.500 V 84.700 C 265.154 84.600 265.054 84.700 265.154 84.700 H 266.554 C 266.610 84.700 266.654 84.655 266.654 84.600 V 78.600 C 266.654 78.545 266.610 78.500 266.554 78.500 H 265.154 C 265.054 78.500 265.154 78.600 265.154 78.500 V 72.700 C 265.154 72.600 265.054 72.700 265.154 72.700 H 266.554 C 266.610 72.700 266.654 72.655 266.654 72.600 V 66.600 C 266.654 66.545 266.610 66.500 266.554 66.500 H 265.154 C 265.054 66.500 265.154 66.600 265.154 66.500 V 60.700 C 265.154 60.600 265.054 60.700 265.154 60.700 H 266.554 C 266.610 60.700 266.654 60.655 266.654 60.600 V 54.600 C 266.654 54.545 266.610 54.500 266.554 54.500 H 265.154 C 265.054 54.500 265.154 54.600 265.154 54.500 V 48.700 C 265.154 48.600 265.054 48.700 265.154 48.700 H 266.554 C 266.610 48.700 266.654 48.655 266.654 48.600 V 42.600 C 266.654 42.545 266.610 42.500 266.554 42.500 H 265.154 C 265.054 42.500 265.154 42.600 265.154 42.500 V 36.700 C 265.154 36.600 265.054 36.700 265.154 36.700 H 266.554 C 266.610 36.700 266.654 36.655 266.654 36.600 V 30.600 C 266.654 30.545 266.610 30.500 266.554 30.500 H 265.154 C 265.054 30.500 265.154 30.600 265.154 30.500 V 24.700 C 265.154 24.600 265.054 24.700 265.154 24.700 H 266.554 C 266.610 24.700 266.654 24.655 266.654 24.600 V 13.100 C 266.654 13.045 266.610 13.000 266.554 13.000 H 265.750 H 257.597 C 257.497 13.000 257.597 13.100 257.597 13.000 V 10.100 C 257.597 10.045 257.552 10.000 257.497 10.000 H 251.497 C 251.441 10.000 251.397 10.045 251.397 10.100 V 13.000 C 251.397 13.100 251.497 13.000 251.397 13.000 H 243.243 H 242.439 C 242.384 13.000 242.339 13.045 242.339 13.100 V 24.600 C 242.339 24.655 242.384 24.700 242.439 24.700 H 243.839 C 243.939 24.700 243.839 24.600 243.839 24.700 V 30.500 C 243.839 30.600 243.939 30.500 243.839 30.500 H 242.439 C 242.384 30.500 242.339 30.545 242.339 30.600 V 36.600 C 242.339 36.655 242.384 36.700 242.439 36.700 H 243.839 C 243.939 36.700 243.839 36.600 243.839 36.700 V 42.500 C 243.839 42.600 243.939 42.500 243.839 42.500 H 242.439 C 242.384 42.500 242.339 42.545 242.339 42.600 V 48.600 C 242.339 48.655 242.384 48.700 242.439 48.700 H 243.839 C 243.939 48.700 243.839 48.600 243.839 48.700 V 54.500 C 243.839 54.600 243.939 54.500 243.839 54.500 H 242.439 C 242.384 54.500 242.339 54.545 242.339 54.600 V 60.600 C 242.339 60.655 242.384 60.700 242.439 60.700 H 243.839 C 243.939 60.700 243.839 60.600 243.839 60.700 V 66.500 C 243.839 66.600 243.939 66.500 243.839 66.500 H 242.439 C 242.384 66.500 242.339 66.545 242.339 66.600 V 72.600 C 242.339 72.655 242.384 72.700 242.439 72.700 H 243.839 C 243.939 72.700 243.839 72.600 243.839 72.700 V 78.500 C 243.839 78.600 243.939 78.500 243.839 78.500 H 242.439 C 242.384 78.500 242.339 78.545 242.339 78.600 V 84.600 C 242.339 84.655 242.384 84.700 242.439 84.700 H 243.839 C 243.939 84.700 243.839 84.600 243.839 84.700 V 90.500 C 243.839 90.600 243.939 90.500 243.839 90.500 H 242.439 C 242.384 90.500 242.339 90.545 242.339 90.600 V 96.600 C 242.339 96.655 242.384 96.700 242.439 96.700 H 243.839 C 243.939 96.700 243.839 96.600 243.839 96.700 V 102.500 C 243.839 102.600 243.939 102.500 243.839 102.500 H 242.439 C 242.384 102.500 242.339 102.545 242.339 102.600 V 114.100 V 120.100 C 242.339 120.155 242.384 120.200 242.439 120.200 H 243.243 Z" stroke="rgb(0,0,0)" stroke-width="0.20" />
</g>
<g id="p-14" style="fill:none;stroke-linecap:round;stroke-linejoin:round;">
  <path d="M 280.312 117.000 H 277.412 C 277.312 117.000 277.412 117.100 277.412 117.000 V 114.200 C 277.412 114.100 277.312 114.200 277.412 114.200 H 283.212 C 283.312 114.200 283.212 114.100 283.212 114.200 V 117.000 C 283.212 117.100 283.312 117.000 283.212 117.000 H 280.312 Z" stroke="rgb(0,0,255)" stroke-width="0.20" />
  <path d="M 269.058 120.200 H 291.566 H 290.870 C 290.925 120.200 290.970 120.155 290.970 120.100 V 114.100 V 102.700 C 290.970 102.600 290.870 102.700 290.970 102.700 H 292.370 C 292.425 102.700 292.470 102.655 292.470 102.600 V 96.600 C 292.470 96.545 292.425 96.500 292.370 96.500 H 290.970 C 290.870 96.500 290.970 96.600 290.970 96.500 V 90.700 C 290.970 90.600 290.870 90.700 290.970 90.700 H 292.370 C 292.425 90.700 292.470 90.655 292.470 90.600 V 84.600 C 292.470 84.545 292.425 84.500 292.370 84.500 H 290.970 C 290.870 84.500 290.970 84.600 290.970 84.500 V 78.700 C 290.970 78.600 290.870 78.700 290.970 78.700 H 292.370 C 292.425 78.700 292.470 78.655 292.470 78.600 V 72.600 C 292.470 72.545 292.425 72.500 292.370 72.500 H 290.970 C 290.870 72.500 290.970 72.600 290.970 72.500 V 66.700 C 290.970 66.600 290.870 66.700 290.970 66.700 H 292.370 C 292.425 66.700 292.470 66.655 292.470 66.600 V 60.600 C 292.470 60.545 292.425 60.500 292.370 60.500 H 290.970 C 290.870 60.500 290.970 60.600 290.970 60.500 V 54.700 C 290.970 54.600 290.870 54.700 290.970 54.700 H 292.370 C 292.425 54.700 292.470 54.655 292.470 54.600 V 48.600 C 292.470 48.545 292.425 48.500 292.370 48.500 H 290.970 C 290.870 48.500 290.970 48.600 290.970 48.500 V 42.700 C 290.970 42.600 290.870 42.700 290.970 42.700 H 292.370 C 292.425 42.700 292.470 42.655 292.470 42.600 V 36.600 C 292.470 36.545 292.425 36.500 292.370 36.500 H 290.970 C 290.870 36.500 290.970 36.600 290.970 36.500 V 30.700 C 290.970 30.600 290.870 30.700 290.970 30.700 H 292.370 C 292.425 30.700 292.470 30.655 292.470 30.600 V 24.600 C 292.470 24.545 292.425 24.500 292.370 24.500 H 290.970 C 290.870 24.500 290.970 24.600 290.970 24.500 V 13.100 C 290.970 13.045 290.925 13.000 290.870 13.000 H 291.566 H 283.412 C 283.312 13.000 283.412 13.100 283.412 13.000 V 10.100 C 283.412 10.045 283.367 10.000 283.312 10.000 H 277.312 C 277.257 10.000 277.212 10.045 277.212 10.100 V 13.000 C 277.212 13.100 277.312 13.000 277.212 13.000 H 269.058 H 269.754 C 269.699 13.000 269.654 13.045 269.654 13.100 V 24.500 C 269.654 24.600 269.754 24.500 269.654 24.500 H 268.254 C 268.199 24.500 268.154 24.545 268.154 24.600 V 30.600 C 268.154 30.655 268.199 30.700 268.254 30.700 H 269.654 C 269.754 30.700 269.654 30.600 269.654 30.700 V 36.500 C 269.654 36.600 269.754 36.500 269.654 36.500 H 268.254 C 268.199 36.500 268.154 36.545 268.154 36.600 V 42.600 C 268.154 42.655 268.199 42.700 268.254 42.700 H 269.654 C 269.754 42.700 269.654 42.600 269.654 42.700 V 48.500 C 269.654 48.600 269.754 48.500 269.654 48.500 H 268.254 C 268.199 48.500 268.154 48.545 268.154 48.600 V 54.600 C 268.154 54.655 268.199 54.700 268.254 54.700 H 269.654 C 269.754 54.700 269.654 54.600 269.654 54.700 V 60.500 C 269.654 60.600 269.754 60.500 269.654 60.500 H 268.254 C 268.199 60.500 268.154 60.545 268.154 60.600 V 66.600 C 268.154 66.655 268.199 66.700 268.254 66.700 H 269.654 C 269.754 66.700 269.654 66.600 269.654 66.700 V 72.500 C 269.654 72.600 269.754 72.500 269.654 72.500 H 268.254 C 268.199 72.500 268.154 72.545 268.154 72.600 V 78.600 C 268.154 78.655 268.199 78.700 268.254 78.700 H 269.654 C 269.754 78.700 269.654 78.600 269.654 78.700 V 84.500 C 269.654 84.600 269.754 84.500 269.654 84.500 H 268.254 C 268.199 84.500 268.154 84.545 268.154 84.600 V 90.600 C 268.154 90.655 268.199 90.700 268.254 90.700 H 269.654 C 269.754 90.700 269.654 90.600 269.654 90.700 V 96.500 C 269.654 96.600 269.754 96.500 269.654 96.500 H 268.254 C 268.199 96.500 268.154 96.545 268.154 96.600 V 102.600 C 268.154 102.655 268.199 102.700 268.254 102.700 H 269.654 C 269.754 102.700 269.654 102.600 269.654 102.700 V 114.100 V 120.100 C 269.654 120.155 269.699 120.200 269.754 120.200 H 269.058 Z" stroke="rgb(0,0,0)" stroke-width="0.20" />
</g>
<g id="p-15" style="fill:none;stroke-linecap:round;stroke-linejoin:round;">
  <path d="M 306.127 117.000 H 303.227 C 303.127 117.000 303.227 117.100 303.227 117.000 V 114.200 C 303.227 114.100 303.127 114.200 303.227 114.200 H 309.027 C 309.127 114.200 309.027 114.100 309.027 114.200 V 117.000 C 309.027 117.100 309.127 117.000 309.027 117.000 H 306.127 Z" stroke="rgb(0,0,255)" stroke-width="0.20" />
  <path d="M 294.874 120.200 H 317.381 H 318.185 C 318.240 120.200 318.285 120.155 318.285 120.100 V 114.100 V 102.600 C 318.285 102.545 318.240 102.500 318.185 102.500 H 316.785 C 316.685 102.500 316.785 102.600 316.785 102.500 V 96.700 C 316.785 96.600 316.685 96.700 316.785 96.700 H 318.185 C 318.240 96.700 318.285 96.655 318.285 96.600 V 90.600 C 318.285 90.545 318.240 90.500 318.185 90.500 H 316.785 C 316.685 90.500 316.785 90.600 316.785 90.500 V 84.700 C 316.785 84.600 316.685 84.700 316.785 84.700 H 318.185 C 318.240 84.700 318.285 84.655 318.285 84.600 V 78.600 C 318.285 78.545 318.240 78.500 318.185 78.500 H 316.785 C 316.685 78.500 316.785 78.600 316.785 78.500 V 72.700 C 316.785 72.600 316.685 72.700 316.785 72.700 H 318.185 C 318.240 72.700 318.285 72.655 318.285 72.600 V 66.600 C 318.285 66.545 318.240 66.500 318.185 66.500 H 316.785 C 316.685 66.500 316.785 66.600 316.785 66.500 V 60.700 C 316.785 60.600 316.685 60.700 316.785 60.700 H 318.185 C 318.240 60.700 318.285 60.655 318.285 60.600 V 54.600 C 318.285 54.545 318.240 54.500 318.185 54.500 H 316.785 C 316.685 54.500 316.785 54.600 316.785 54.500 V 48.700 C 316.785 48.600 316.685 48.700 316.785 48.700 H 318.185 C 318.240 48.700 318.285 48.655 318.285 48.600 V 42.600 C 318.285 42.545 318.240 42.500 318.185 42.500 H 316.785 C 316.685 42.500 316.785 42.600 316.785 42.500 V 36.700 C 316.785 36.600 316.685 36.700 316.785 36.700 H 318.185 C 318.240 36.700 318.285 36.655 318.285 36.600 V 30.600 C 318.285 30.545 318.240 30.500 318.185 30.500 H 316.785 C 316.685 30.500 316.785 30.600 316.785 30.500 V 24.700 C 316.785 24.600 316.685 24.700 316.785 24.700 H 318.185 C 318.240 24.700 318.285 24.655 318.285 24.600 V 13.100 C 318.285 13.045 318.240 13.000 318.185 13.000 H 317.381 H 309.227 C 309.127 13.000 309.227 13.100 309.227 13.000 V 10.100 C 309.227 10.045 309.183 10.000 309.127 10.000 H 303.127 C 303.072 10.000 303.027 10.045 303.027 10.100 V 13.000 C 303.027 13.100 303.127 13.000 303.027 13.000 H 294.874 H 294.070 C 294.014 13.000 293.970 13.045 293.970 13.100 V 24.600 C 293.970 24.655 294.014 24.700 294.070 24.700 H 295.470 C 295.570 24.700 295.470 24.600 295.470 24.700 V 30.500 C 295.470 30.600 295.570 30.500 295.470 30.500 H 294.070 C 294.014 30.500 293.970 30.545 293.970 30.600 V 36.600 C 293.970 36.655 294.014 36.700 294.070 36.700 H 295.470 C 295.570 36.700 295.470 36.600 295.470 36.700 V 42.500 C 295.470 42.600 295.570 42.500 295.470 42.500 H 294.070 C 294.014 42.500 293.970 42.545 293.970 42.600 V 48.600 C 293.970 48.655 294.014 48.700 294.070 48.700 H 295.470 C 295.570 48.700 295.470 48.600 295.470 48.700 V 54.500 C 295.470 54.600 295.570 54.500 295.470 54.500 H 294.070 C 294.014 54.500 293.970 54.545 293.970 54.600 V 60.600 C 293.970 60.655 294.014 60.700 294.070 60.700 H 295.470 C 295.570 60.700 295.470 60.600 295.470 60.700 V 66.500 C 295.470 66.600 295.570 66.500 295.470 66.500 H 294.070 C 294.014 66.500 293.970 66.545 293.970 66.600 V 72.600 C 293.970 72.655 294.014 72.700 294.070 72.700 H 295.470 C 295.570 72.700 295.470 72.600 295.470 72.700 V 78.500 C 295.470 78.600 295.570 78.500 295.470 78.500 H 294.070 C 294.014 78.500 293.970 78.545 293.970 78.600 V 84.600 C 293.970 84.655 294.014 84.700 294.070 84.700 H 295.470 C 295.570 84.700 295.470 84.600 295.470 84.700 V 90.500 C 295.470 90.600 295.570 90.500 295.470 90.500 H 294.070 C 294.014 90.500 293.970 90.545 293.970 90.600 V 96.600 C 293.970 96.655 294.014 96.700 294.070 96.700 H 295.470 C 295.570 96.700 295.470 96.600 295.470 96.700 V 102.500 C 295.470 102.600 295.570 102.500 295.470 102.500 H 294.070 C 294.014 102.500 293.970 102.545 293.970 102.600 V 114.100 V 120.100 C 293.970 120.155 294.014 120.200 294.070 120.200 H 294.874 Z" stroke="rgb(0,0,0)" stroke-width="0.20" />
</g>
</svg>