<?xml version="1.0" encoding="UTF-8" standalone="no"?>
<svg width="1188.97mm" height="840.994mm"
 viewBox="0 0 14043 9933"
 xmlns="http://www.w3.org/2000/svg" xmlns:xlink="http://www.w3.org/1999/xlink"  version="1.2" baseProfile="tiny">
<defs>
</defs>
<g fill="none" stroke="black" stroke-width="1" fill-rule="evenodd" stroke-linecap="square" stroke-linejoin="bevel" >

<g fill="#ffffff" fill-opacity="1" stroke="none" transform="matrix(1,0,0,1,0,0)"
font-family="Arial" font-size="12" font-weight="400" font-style="normal" 
>
<rect x="0" y="0" width="14043" height="9933"/>
</g>

<g fill="none" stroke="#000000" stroke-opacity="1" stroke-width="1" stroke-linecap="square" stroke-linejoin="bevel" transform="matrix(1,0,0,1,0,0)"
font-family="Arial" font-size="12" font-weight="400" font-style="normal" 
>
</g>

<g fill="#000000" fill-opacity="1" stroke="#000000" stroke-opacity="1" stroke-width="1" stroke-linecap="butt" stroke-linejoin="miter" stroke-miterlimit="2" transform="matrix(1,0,0,1,0,0)"
font-family="Arial" font-size="12" font-weight="400" font-style="normal" 
>
</g>

<g fill="#000000" fill-opacity="1" stroke="#000000" stroke-opacity="1" stroke-width="5" stroke-linecap="round" stroke-linejoin="bevel" transform="matrix(1,0,0,1,0,0)"
font-family="Arial" font-size="12" font-weight="400" font-style="normal" 
>
<polyline fill="none" vector-effect="none" points="466.553,6904.11 466.553,7022.21 " />
<polyline fill="none" vector-effect="none" points="198.127,7022.21 466.553,7022.21 " />
<polyline fill="none" vector-effect="none" points="198.127,4305.74 198.127,7022.21 " />
<polyline fill="none" vector-effect="none" points="466.553,4305.74 198.127,4305.74 " />
<polyline fill="none" vector-effect="none" points="466.553,4187.63 466.553,4305.74 " />
<polyline fill="none" vector-effect="none" points="466.553,4187.63 734.979,4187.63 " />
<polyline fill="none" vector-effect="none" points="734.979,4187.63 734.979,4305.74 " />
<polyline fill="none" vector-effect="none" points="1003.41,4305.74 734.979,4305.74 " />
<polyline fill="none" vector-effect="none" points="1003.41,4187.63 1003.41,4305.74 " />
<polyline fill="none" vector-effect="none" points="1003.41,4187.63 1271.83,4187.63 " />
<polyline fill="none" vector-effect="none" points="1271.83,4187.63 1271.83,4305.74 " />
<polyline fill="none" vector-effect="none" points="1540.26,4305.74 1271.83,4305.74 " />
<polyline fill="none" vector-effect="none" points="1540.26,4187.63 1540.26,4305.74 " />
<polyline fill="none" vector-effect="none" points="1540.26,4187.63 1808.69,4187.63 " />
<polyline fill="none" vector-effect="none" points="1808.69,4187.63 1808.69,4305.74 " />
<polyline fill="none" vector-effect="none" points="2077.11,4305.74 1808.69,4305.74 " />
<polyline fill="none" vector-effect="none" points="2077.11,4187.63 2077.11,4305.74 " />
<polyline fill="none" vector-effect="none" points="2077.11,4187.63 2345.54,4187.63 " />
<polyline fill="none" vector-effect="none" points="2345.54,4187.63 2345.54,4305.74 " />
<polyline fill="none" vector-effect="none" points="2613.96,4305.74 2345.54,4305.74 " />
<polyline fill="none" vector-effect="none" points="2613.96,4187.63 2613.96,4305.74 " />
<polyline fill="none" vector-effect="none" points="2613.96,4187.63 2882.39,4187.63 " />
<polyline fill="none" vector-effect="none" points="2882.39,4187.63 2882.39,4305.74 " />
<polyline fill="none" vector-effect="none" points="3150.82,4305.74 2882.39,4305.74 " />
<polyline fill="none" vector-effect="none" points="3150.82,4305.74 3150.82,7022.21 " />
<polyline fill="none" vector-effect="none" points="2882.39,7022.21 3150.82,7022.21 " />
<polyline fill="none" vector-effect="none" points="2882.39,6904.11 2882.39,7022.21 " />
<polyline fill="none" vector-effect="none" points="2882.39,6904.11 2613.96,6904.11 " />
<polyline fill="none" vector-effect="none" points="2613.96,6904.11 2613.96,7022.21 " />
<polyline fill="none" vector-effect="none" points="2345.54,7022.21 2613.96,7022.21 " />
<polyline fill="none" vector-effect="none" points="2345.54,6904.11 2345.54,7022.21 " />
<polyline fill="none" vector-effect="none" points="2345.54,6904.11 2077.11,6904.11 " />
<polyline fill="none" vector-effect="none" points="2077.11,6904.11 2077.11,7022.21 " />
<polyline fill="none" vector-effect="none" points="1808.69,7022.21 2077.11,7022.21 " />
<polyline fill="none" vector-effect="none" points="1808.69,6904.11 1808.69,7022.21 " />
<polyline fill="none" vector-effect="none" points="1808.69,6904.11 1540.26,6904.11 " />
<polyline fill="none" vector-effect="none" points="1540.26,6904.11 1540.26,7022.21 " />
<polyline fill="none" vector-effect="none" points="1271.83,7022.21 1540.26,7022.21 " />
<polyline fill="none" vector-effect="none" points="1271.83,6904.11 1271.83,7022.21 " />
<polyline fill="none" vector-effect="none" points="1271.83,6904.11 1003.41,6904.11 " />
<polyline fill="none" vector-effect="none" points="1003.41,6904.11 1003.41,7022.21 " />
<polyline fill="none" vector-effect="none" points="734.979,7022.21 1003.41,7022.21 " />
<polyline fill="none" vector-effect="none" points="734.979,6904.11 734.979,7022.21 " />
<polyline fill="none" vector-effect="none" points="734.979,6904.11 466.553,6904.11 " />
<polyline fill="none" vector-effect="none" points="316.234,5326.53 434.342,5326.53 " />
<polyline fill="none" vector-effect="none" points="316.234,5410.89 316.234,5495.25 " />
<polyline fill="none" vector-effect="none" points="434.342,5579.61 434.342,5663.98 " />
<polyline fill="none" vector-effect="none" points="316.234,5579.61 434.342,5579.61 " />
<polyline fill="none" vector-effect="none" points="316.234,5579.61 316.234,5663.98 " />
<polyline fill="none" vector-effect="none" points="316.234,5663.98 434.342,5663.98 " />
<polyline fill="none" vector-effect="none" points="434.342,5073.44 434.342,5157.8 " />
<polyline fill="none" vector-effect="none" points="316.234,5073.44 434.342,5073.44 " />
<polyline fill="none" vector-effect="none" points="316.234,5073.44 316.234,5157.8 " />
<polyline fill="none" vector-effect="none" points="316.234,5157.8 434.342,5157.8 " />
<polyline fill="none" vector-effect="none" points="2374.68,6667.89 2459.04,6667.89 " />
<polyline fill="none" vector-effect="none" points="2374.68,6786 2374.68,6667.89 " />
<polyline fill="none" vector-effect="none" points="2374.68,6786 2459.04,6786 " />
<polyline fill="none" vector-effect="none" points="2459.04,6786 2459.04,6667.89 " />
<polyline fill="none" vector-effect="none" points="2543.41,6667.89 2627.77,6667.89 " />
<polyline fill="none" vector-effect="none" points="2543.41,6786 2543.41,6667.89 " />
<polyline fill="none" vector-effect="none" points="2543.41,6786 2627.77,6786 " />
<polyline fill="none" vector-effect="none" points="2627.77,6786 2627.77,6667.89 " />
<polyline fill="none" vector-effect="none" points="2712.13,6667.89 2796.49,6667.89 " />
<polyline fill="none" vector-effect="none" points="2712.13,6786 2712.13,6667.89 " />
<polyline fill="none" vector-effect="none" points="2712.13,6786 2796.49,6786 " />
<polyline fill="none" vector-effect="none" points="2796.49,6786 2796.49,6667.89 " />
<polyline fill="none" vector-effect="none" points="2205.96,6667.89 2290.32,6667.89 " />
<polyline fill="none" vector-effect="none" points="2205.96,6786 2205.96,6667.89 " />
<polyline fill="none" vector-effect="none" points="2205.96,6786 2290.32,6786 " />
<polyline fill="none" vector-effect="none" points="2290.32,6786 2290.32,6667.89 " />
<polyline fill="none" vector-effect="none" points="721.175,6667.89 805.537,6667.89 " />
<polyline fill="none" vector-effect="none" points="721.175,6786 721.175,6667.89 " />
<polyline fill="none" vector-effect="none" points="721.175,6786 805.537,6786 " />
<polyline fill="none" vector-effect="none" points="805.537,6786 805.537,6667.89 " />
<polyline fill="none" vector-effect="none" points="889.9,6667.89 974.263,6667.89 " />
<polyline fill="none" vector-effect="none" points="889.9,6786 889.9,6667.89 " />
<polyline fill="none" vector-effect="none" points="889.9,6786 974.263,6786 " />
<polyline fill="none" vector-effect="none" points="974.263,6786 974.263,6667.89 " />
<polyline fill="none" vector-effect="none" points="1058.63,6667.89 1142.99,6667.89 " />
<polyline fill="none" vector-effect="none" points="1058.63,6786 1058.63,6667.89 " />
<polyline fill="none" vector-effect="none" points="1058.63,6786 1142.99,6786 " />
<polyline fill="none" vector-effect="none" points="1142.99,6786 1142.99,6667.89 " />
<polyline fill="none" vector-effect="none" points="552.449,6667.89 636.812,6667.89 " />
<polyline fill="none" vector-effect="none" points="552.449,6786 552.449,6667.89 " />
<polyline fill="none" vector-effect="none" points="552.449,6786 636.812,6786 " />
<polyline fill="none" vector-effect="none" points="636.812,6786 636.812,6667.89 " />
<polyline fill="none" vector-effect="none" points="316.234,5410.89 434.342,5410.89 " />
<polyline fill="none" vector-effect="none" points="434.342,5410.89 434.342,5495.25 " />
<polyline fill="none" vector-effect="none" points="316.234,5495.25 434.342,5495.25 " />
<polyline fill="none" vector-effect="none" points="316.234,5242.16 316.234,5326.53 " />
<polyline fill="none" vector-effect="none" points="316.234,5242.16 434.342,5242.16 " />
<polyline fill="none" vector-effect="none" points="434.342,5242.16 434.342,5326.53 " />
<polyline fill="none" vector-effect="none" points="3240.28,8697.5 3122.18,8697.5 " />
<polyline fill="none" vector-effect="none" points="3122.18,8768.37 3122.18,8697.5 " />
<polyline fill="none" vector-effect="none" points="3240.28,8768.37 3122.18,8768.37 " />
<polyline fill="none" vector-effect="none" points="3240.28,9754.57 3240.28,8768.37 " />
<polyline fill="none" vector-effect="none" points="2971.86,9754.57 3240.28,9754.57 " />
<polyline fill="none" vector-effect="none" points="2971.86,9754.57 2971.86,9636.46 " />
<polyline fill="none" vector-effect="none" points="2703.43,9636.46 2971.86,9636.46 " />
<polyline fill="none" vector-effect="none" points="2703.43,9754.57 2703.43,9636.46 " />
<polyline fill="none" vector-effect="none" points="2435,9754.57 2703.43,9754.57 " />
<polyline fill="none" vector-effect="none" points="2435,9754.57 2435,9636.46 " />
<polyline fill="none" vector-effect="none" points="2166.58,9636.46 2435,9636.46 " />
<polyline fill="none" vector-effect="none" points="2166.58,9754.57 2166.58,9636.46 " />
<polyline fill="none" vector-effect="none" points="1898.15,9754.57 2166.58,9754.57 " />
<polyline fill="none" vector-effect="none" points="1898.15,9754.57 1898.15,9636.46 " />
<polyline fill="none" vector-effect="none" points="1629.73,9636.46 1898.15,9636.46 " />
<polyline fill="none" vector-effect="none" points="1629.73,9754.57 1629.73,9636.46 " />
<polyline fill="none" vector-effect="none" points="1361.3,9754.57 1629.73,9754.57 " />
<polyline fill="none" vector-effect="none" points="1361.3,9754.57 1361.3,9636.46 " />
<polyline fill="none" vector-effect="none" points="1092.87,9636.46 1361.3,9636.46 " />
<polyline fill="none" vector-effect="none" points="1092.87,9754.57 1092.87,9636.46 " />
<polyline fill="none" vector-effect="none" points="824.446,9754.57 1092.87,9754.57 " />
<polyline fill="none" vector-effect="none" points="824.446,9754.57 824.446,9636.46 " />
<polyline fill="none" vector-effect="none" points="556.019,9636.46 824.446,9636.46 " />
<polyline fill="none" vector-effect="none" points="556.019,9754.57 556.019,9636.46 " />
<polyline fill="none" vector-effect="none" points="287.593,9754.57 556.019,9754.57 " />
<polyline fill="none" vector-effect="none" points="287.593,9754.57 287.593,7156.2 " />
<polyline fill="none" vector-effect="none" points="556.019,7156.2 287.593,7156.2 " />
<polyline fill="none" vector-effect="none" points="556.019,7038.09 556.019,7156.2 " />
<polyline fill="none" vector-effect="none" points="556.019,7038.09 824.446,7038.09 " />
<polyline fill="none" vector-effect="none" points="824.446,7038.09 824.446,7156.2 " />
<polyline fill="none" vector-effect="none" points="1092.87,7156.2 824.446,7156.2 " />
<polyline fill="none" vector-effect="none" points="1092.87,7038.09 1092.87,7156.2 " />
<polyline fill="none" vector-effect="none" points="1092.87,7038.09 1361.3,7038.09 " />
<polyline fill="none" vector-effect="none" points="1361.3,7038.09 1361.3,7156.2 " />
<polyline fill="none" vector-effect="none" points="1629.73,7156.2 1361.3,7156.2 " />
<polyline fill="none" vector-effect="none" points="1629.73,7038.09 1629.73,7156.2 " />
<polyline fill="none" vector-effect="none" points="1629.73,7038.09 1898.15,7038.09 " />
<polyline fill="none" vector-effect="none" points="2166.58,7038.09 2166.58,7156.2 " />
<polyline fill="none" vector-effect="none" points="2166.58,7038.09 2435,7038.09 " />
<polyline fill="none" vector-effect="none" points="2435,7038.09 2435,7156.2 " />
<polyline fill="none" vector-effect="none" points="2703.43,7156.2 2435,7156.2 " />
<polyline fill="none" vector-effect="none" points="2703.43,7038.09 2703.43,7156.2 " />
<polyline fill="none" vector-effect="none" points="2703.43,7038.09 2971.86,7038.09 " />
<polyline fill="none" vector-effect="none" points="2971.86,7038.09 2971.86,7156.2 " />
<polyline fill="none" vector-effect="none" points="3240.28,7156.2 2971.86,7156.2 " />
<polyline fill="none" vector-effect="none" points="3240.28,8130.59 3240.28,7156.2 " />
<polyline fill="none" vector-effect="none" points="3240.28,8130.59 1675.36,8130.59 " />
<polyline fill="none" vector-effect="none" points="1675.36,8130.59 1675.36,8455.38 " />
<polyline fill="none" vector-effect="none" points="1675.36,8455.38 1675.53,8460.83 1676.03,8466.27 1676.87,8471.66 1678.03,8476.99 1679.53,8482.23 1681.34,8487.38 1683.47,8492.4 1685.9,8497.29 1688.63,8502.01 1691.64,8506.56 1694.93,8510.91 1698.48,8515.06 1702.27,8518.97 1706.31,8522.65 1710.56,8526.07 1715.01,8529.22 1719.65,8532.09 1724.45,8534.68 1729.41,8536.96 1734.5,8538.93 1739.7,8540.58 1744.99,8541.91 1750.35,8542.91 1755.77,8543.58 1761.21,8543.92 1766.67,8543.92 1772.11,8543.58 1777.53,8542.91 1782.89,8541.91 1788.18,8540.58 1793.38,8538.93 1798.47,8536.96 1803.42,8534.68 1808.23,8532.09 1812.87,8529.22 1817.32,8526.07 1821.57,8522.65 1825.6,8518.97 1829.4,8515.06 1832.95,8510.91 1836.24,8506.56 1839.25,8502.01 1841.98,8497.29 1844.41,8492.4 1846.54,8487.38 1848.35,8482.23 1849.84,8476.99 1851.01,8471.66 1851.85,8466.27 1852.35,8460.83 1852.52,8455.38 " />
<polyline fill="none" vector-effect="none" points="1852.52,8307.75 1852.52,8455.38 " />
<polyline fill="none" vector-effect="none" points="3240.28,8307.75 1852.52,8307.75 " />
<polyline fill="none" vector-effect="none" points="3240.28,8555.77 3240.28,8307.75 " />
<polyline fill="none" vector-effect="none" points="3240.28,8555.77 3122.18,8555.77 " />
<polyline fill="none" vector-effect="none" points="3122.18,8626.64 3122.18,8555.77 " />
<polyline fill="none" vector-effect="none" points="3240.28,8626.64 3122.18,8626.64 " />
<polyline fill="none" vector-effect="none" points="3240.28,8697.5 3240.28,8626.64 " />
<polyline fill="none" vector-effect="none" points="523.808,8269.78 523.808,8354.15 " />
<polyline fill="none" vector-effect="none" points="405.701,8269.78 523.808,8269.78 " />
<polyline fill="none" vector-effect="none" points="405.701,8269.78 405.701,8354.15 " />
<polyline fill="none" vector-effect="none" points="405.701,8354.15 523.808,8354.15 " />
<polyline fill="none" vector-effect="none" points="523.808,8438.51 523.808,8522.87 " />
<polyline fill="none" vector-effect="none" points="405.701,8438.51 523.808,8438.51 " />
<polyline fill="none" vector-effect="none" points="405.701,8438.51 405.701,8522.87 " />
<polyline fill="none" vector-effect="none" points="405.701,8522.87 523.808,8522.87 " />
<polyline fill="none" vector-effect="none" points="523.808,8607.23 523.808,8691.6 " />
<polyline fill="none" vector-effect="none" points="405.701,8607.23 523.808,8607.23 " />
<polyline fill="none" vector-effect="none" points="405.701,8607.23 405.701,8691.6 " />
<polyline fill="none" vector-effect="none" points="405.701,8691.6 523.808,8691.6 " />
<polyline fill="none" vector-effect="none" points="523.808,8101.06 523.808,8185.42 " />
<polyline fill="none" vector-effect="none" points="405.701,8101.06 523.808,8101.06 " />
<polyline fill="none" vector-effect="none" points="405.701,8101.06 405.701,8185.42 " />
<polyline fill="none" vector-effect="none" points="405.701,8185.42 523.808,8185.42 " />
<polyline fill="none" vector-effect="none" points="2166.58,7156.2 1898.15,7156.2 " />
<polyline fill="none" vector-effect="none" points="1898.15,7038.09 1898.15,7156.2 " />
<polyline fill="none" vector-effect="none" points="5835.49,6923.68 5835.49,7041.79 " />
<polyline fill="none" vector-effect="none" points="5835.49,7041.79 5567.07,7041.79 " />
<polyline fill="none" vector-effect="none" points="5567.07,6923.68 5567.07,7041.79 " />
<polyline fill="none" vector-effect="none" points="5298.64,6923.68 5567.07,6923.68 " />
<polyline fill="none" vector-effect="none" points="5298.64,6923.68 5298.64,7041.79 " />
<polyline fill="none" vector-effect="none" points="5298.64,7041.79 5030.21,7041.79 " />
<polyline fill="none" vector-effect="none" points="5030.21,6923.68 5030.21,7041.79 " />
<polyline fill="none" vector-effect="none" points="4761.79,6923.68 5030.21,6923.68 " />
<polyline fill="none" vector-effect="none" points="4761.79,6923.68 4761.79,7041.79 " />
<polyline fill="none" vector-effect="none" points="4761.79,7041.79 4493.36,7041.79 " />
<polyline fill="none" vector-effect="none" points="4493.36,6923.68 4493.36,7041.79 " />
<polyline fill="none" vector-effect="none" points="4224.93,6923.68 4493.36,6923.68 " />
<polyline fill="none" vector-effect="none" points="4224.93,6923.68 4224.93,7041.79 " />
<polyline fill="none" vector-effect="none" points="4224.93,7041.79 3956.51,7041.79 " />
<polyline fill="none" vector-effect="none" points="3956.51,6923.68 3956.51,7041.79 " />
<polyline fill="none" vector-effect="none" points="3688.08,6923.68 3956.51,6923.68 " />
<polyline fill="none" vector-effect="none" points="3688.08,6923.68 3688.08,7041.79 " />
<polyline fill="none" vector-effect="none" points="3688.08,7041.79 3419.66,7041.79 " />
<polyline fill="none" vector-effect="none" points="3419.66,4325.31 3419.66,7041.79 " />
<polyline fill="none" vector-effect="none" points="3419.66,4325.31 3688.08,4325.31 " />
<polyline fill="none" vector-effect="none" points="3688.08,4207.2 3688.08,4325.31 " />
<polyline fill="none" vector-effect="none" points="3956.51,4207.2 3688.08,4207.2 " />
<polyline fill="none" vector-effect="none" points="3956.51,4207.2 3956.51,4325.31 " />
<polyline fill="none" vector-effect="none" points="3956.51,4325.31 4224.93,4325.31 " />
<polyline fill="none" vector-effect="none" points="4224.93,4207.2 4224.93,4325.31 " />
<polyline fill="none" vector-effect="none" points="4493.36,4207.2 4224.93,4207.2 " />
<polyline fill="none" vector-effect="none" points="4493.36,4207.2 4493.36,4325.31 " />
<polyline fill="none" vector-effect="none" points="4493.36,4325.31 4761.79,4325.31 " />
<polyline fill="none" vector-effect="none" points="4761.79,4207.2 4761.79,4325.31 " />
<polyline fill="none" vector-effect="none" points="5030.21,4207.2 4761.79,4207.2 " />
<polyline fill="none" vector-effect="none" points="5030.21,4207.2 5030.21,4325.31 " />
<polyline fill="none" vector-effect="none" points="5030.21,4325.31 5298.64,4325.31 " />
<polyline fill="none" vector-effect="none" points="5298.64,4207.2 5298.64,4325.31 " />
<polyline fill="none" vector-effect="none" points="5567.07,4207.2 5298.64,4207.2 " />
<polyline fill="none" vector-effect="none" points="5567.07,4207.2 5567.07,4325.31 " />
<polyline fill="none" vector-effect="none" points="5567.07,4325.31 5835.49,4325.31 " />
<polyline fill="none" vector-effect="none" points="5835.49,4207.2 5835.49,4325.31 " />
<polyline fill="none" vector-effect="none" points="6103.92,4207.2 5835.49,4207.2 " />
<polyline fill="none" vector-effect="none" points="6103.92,4207.2 6103.92,4325.31 " />
<polyline fill="none" vector-effect="none" points="6103.92,4325.31 6372.35,4325.31 " />
<polyline fill="none" vector-effect="none" points="6372.35,4325.31 6372.35,7041.79 " />
<polyline fill="none" vector-effect="none" points="6372.35,7041.79 6103.92,7041.79 " />
<polyline fill="none" vector-effect="none" points="6103.92,6923.68 6103.92,7041.79 " />
<polyline fill="none" vector-effect="none" points="5835.49,6923.68 6103.92,6923.68 " />
<polyline fill="none" vector-effect="none" points="6254.24,5599.19 6136.13,5599.19 " />
<polyline fill="none" vector-effect="none" points="6254.24,5346.1 6254.24,5261.74 " />
<polyline fill="none" vector-effect="none" points="6136.13,5514.83 6136.13,5430.46 " />
<polyline fill="none" vector-effect="none" points="6254.24,5514.83 6136.13,5514.83 " />
<polyline fill="none" vector-effect="none" points="6254.24,5514.83 6254.24,5430.46 " />
<polyline fill="none" vector-effect="none" points="6254.24,5430.46 6136.13,5430.46 " />
<polyline fill="none" vector-effect="none" points="6136.13,5177.37 6136.13,5093.01 " />
<polyline fill="none" vector-effect="none" points="6254.24,5177.37 6136.13,5177.37 " />
<polyline fill="none" vector-effect="none" points="6254.24,5177.37 6254.24,5093.01 " />
<polyline fill="none" vector-effect="none" points="6254.24,5093.01 6136.13,5093.01 " />
<polyline fill="none" vector-effect="none" points="3773.98,6687.47 3858.34,6687.47 " />
<polyline fill="none" vector-effect="none" points="3773.98,6805.57 3773.98,6687.47 " />
<polyline fill="none" vector-effect="none" points="3773.98,6805.57 3858.34,6805.57 " />
<polyline fill="none" vector-effect="none" points="3858.34,6805.57 3858.34,6687.47 " />
<polyline fill="none" vector-effect="none" points="4111.43,6687.47 4195.79,6687.47 " />
<polyline fill="none" vector-effect="none" points="4111.43,6805.57 4111.43,6687.47 " />
<polyline fill="none" vector-effect="none" points="4111.43,6805.57 4195.79,6805.57 " />
<polyline fill="none" vector-effect="none" points="4195.79,6805.57 4195.79,6687.47 " />
<polyline fill="none" vector-effect="none" points="3942.7,6687.47 4027.07,6687.47 " />
<polyline fill="none" vector-effect="none" points="3942.7,6805.57 3942.7,6687.47 " />
<polyline fill="none" vector-effect="none" points="3942.7,6805.57 4027.07,6805.57 " />
<polyline fill="none" vector-effect="none" points="4027.07,6805.57 4027.07,6687.47 " />
<polyline fill="none" vector-effect="none" points="4280.15,6687.47 4364.52,6687.47 " />
<polyline fill="none" vector-effect="none" points="4280.15,6805.57 4280.15,6687.47 " />
<polyline fill="none" vector-effect="none" points="4280.15,6805.57 4364.52,6805.57 " />
<polyline fill="none" vector-effect="none" points="4364.52,6805.57 4364.52,6687.47 " />
<polyline fill="none" vector-effect="none" points="5427.49,6687.47 5511.85,6687.47 " />
<polyline fill="none" vector-effect="none" points="5427.49,6805.57 5427.49,6687.47 " />
<polyline fill="none" vector-effect="none" points="5427.49,6805.57 5511.85,6805.57 " />
<polyline fill="none" vector-effect="none" points="5511.85,6805.57 5511.85,6687.47 " />
<polyline fill="none" vector-effect="none" points="5764.94,6687.47 5849.3,6687.47 " />
<polyline fill="none" vector-effect="none" points="5764.94,6805.57 5764.94,6687.47 " />
<polyline fill="none" vector-effect="none" points="5764.94,6805.57 5849.3,6805.57 " />
<polyline fill="none" vector-effect="none" points="5849.3,6805.57 5849.3,6687.47 " />
<polyline fill="none" vector-effect="none" points="5596.21,6687.47 5680.57,6687.47 " />
<polyline fill="none" vector-effect="none" points="5596.21,6805.57 5596.21,6687.47 " />
<polyline fill="none" vector-effect="none" points="5596.21,6805.57 5680.57,6805.57 " />
<polyline fill="none" vector-effect="none" points="5680.57,6805.57 5680.57,6687.47 " />
<polyline fill="none" vector-effect="none" points="5933.66,6687.47 6018.02,6687.47 " />
<polyline fill="none" vector-effect="none" points="5933.66,6805.57 5933.66,6687.47 " />
<polyline fill="none" vector-effect="none" points="5933.66,6805.57 6018.02,6805.57 " />
<polyline fill="none" vector-effect="none" points="6018.02,6805.57 6018.02,6687.47 " />
<polyline fill="none" vector-effect="none" points="6254.24,5346.1 6136.13,5346.1 " />
<polyline fill="none" vector-effect="none" points="6136.13,5346.1 6136.13,5261.74 " />
<polyline fill="none" vector-effect="none" points="6254.24,5261.74 6136.13,5261.74 " />
<polyline fill="none" vector-effect="none" points="6254.24,5683.55 6254.24,5599.19 " />
<polyline fill="none" vector-effect="none" points="6254.24,5683.55 6136.13,5683.55 " />
<polyline fill="none" vector-effect="none" points="6136.13,5683.55 6136.13,5599.19 " />
<polyline fill="none" vector-effect="none" points="3387.76,8582.2 3505.86,8582.2 " />
<polyline fill="none" vector-effect="none" points="3505.86,8511.33 3505.86,8582.2 " />
<polyline fill="none" vector-effect="none" points="3387.76,8511.33 3505.86,8511.33 " />
<polyline fill="none" vector-effect="none" points="3387.76,8511.33 3387.76,8263.31 " />
<polyline fill="none" vector-effect="none" points="3387.76,8263.31 4775.52,8263.31 " />
<polyline fill="none" vector-effect="none" points="4775.52,8263.31 4775.52,8410.94 " />
<polyline fill="none" vector-effect="none" points="4952.68,8410.94 4952.51,8416.4 4952.01,8421.83 4951.17,8427.22 4950.01,8432.55 4948.51,8437.8 4946.7,8442.94 4944.57,8447.97 4942.14,8452.85 4939.41,8457.57 4936.4,8462.12 4933.11,8466.48 4929.56,8470.62 4925.77,8474.54 4921.73,8478.21 4917.48,8481.63 4913.03,8484.78 4908.39,8487.66 4903.59,8490.24 4898.63,8492.52 4893.54,8494.49 4888.34,8496.14 4883.05,8497.47 4877.69,8498.48 4872.27,8499.15 4866.83,8499.48 4861.37,8499.48 4855.93,8499.15 4850.51,8498.48 4845.15,8497.47 4839.86,8496.14 4834.66,8494.49 4829.57,8492.52 4824.62,8490.24 4819.81,8487.66 4815.17,8484.78 4810.72,8481.63 4806.47,8478.21 4802.44,8474.54 4798.64,8470.62 4795.09,8466.48 4791.8,8462.12 4788.79,8457.57 4786.06,8452.85 4783.63,8447.97 4781.5,8442.94 4779.69,8437.8 4778.2,8432.55 4777.03,8427.22 4776.19,8421.83 4775.69,8416.4 4775.52,8410.94 " />
<polyline fill="none" vector-effect="none" points="4952.68,8086.15 4952.68,8410.94 " />
<polyline fill="none" vector-effect="none" points="3387.76,8086.15 4952.68,8086.15 " />
<polyline fill="none" vector-effect="none" points="3387.76,8086.15 3387.76,7111.76 " />
<polyline fill="none" vector-effect="none" points="3387.76,7111.76 3656.18,7111.76 " />
<polyline fill="none" vector-effect="none" points="3656.18,6993.65 3656.18,7111.76 " />
<polyline fill="none" vector-effect="none" points="3924.61,6993.65 3656.18,6993.65 " />
<polyline fill="none" vector-effect="none" points="3924.61,6993.65 3924.61,7111.76 " />
<polyline fill="none" vector-effect="none" points="3924.61,7111.76 4193.04,7111.76 " />
<polyline fill="none" vector-effect="none" points="4193.04,6993.65 4193.04,7111.76 " />
<polyline fill="none" vector-effect="none" points="4461.46,6993.65 4193.04,6993.65 " />
<polyline fill="none" vector-effect="none" points="4461.46,6993.65 4461.46,7111.76 " />
<polyline fill="none" vector-effect="none" points="4998.31,6993.65 4729.89,6993.65 " />
<polyline fill="none" vector-effect="none" points="4998.31,6993.65 4998.31,7111.76 " />
<polyline fill="none" vector-effect="none" points="4998.31,7111.76 5266.74,7111.76 " />
<polyline fill="none" vector-effect="none" points="5266.74,6993.65 5266.74,7111.76 " />
<polyline fill="none" vector-effect="none" points="5535.17,6993.65 5266.74,6993.65 " />
<polyline fill="none" vector-effect="none" points="5535.17,6993.65 5535.17,7111.76 " />
<polyline fill="none" vector-effect="none" points="5535.17,7111.76 5803.59,7111.76 " />
<polyline fill="none" vector-effect="none" points="5803.59,6993.65 5803.59,7111.76 " />
<polyline fill="none" vector-effect="none" points="6072.02,6993.65 5803.59,6993.65 " />
<polyline fill="none" vector-effect="none" points="6072.02,6993.65 6072.02,7111.76 " />
<polyline fill="none" vector-effect="none" points="6072.02,7111.76 6340.45,7111.76 " />
<polyline fill="none" vector-effect="none" points="6340.45,9710.13 6340.45,7111.76 " />
<polyline fill="none" vector-effect="none" points="6340.45,9710.13 6072.02,9710.13 " />
<polyline fill="none" vector-effect="none" points="6072.02,9710.13 6072.02,9592.02 " />
<polyline fill="none" vector-effect="none" points="6072.02,9592.02 5803.59,9592.02 " />
<polyline fill="none" vector-effect="none" points="5803.59,9710.13 5803.59,9592.02 " />
<polyline fill="none" vector-effect="none" points="5803.59,9710.13 5535.17,9710.13 " />
<polyline fill="none" vector-effect="none" points="5535.17,9710.13 5535.17,9592.02 " />
<polyline fill="none" vector-effect="none" points="5535.17,9592.02 5266.74,9592.02 " />
<polyline fill="none" vector-effect="none" points="5266.74,9710.13 5266.74,9592.02 " />
<polyline fill="none" vector-effect="none" points="5266.74,9710.13 4998.31,9710.13 " />
<polyline fill="none" vector-effect="none" points="4998.31,9710.13 4998.31,9592.02 " />
<polyline fill="none" vector-effect="none" points="4998.31,9592.02 4729.89,9592.02 " />
<polyline fill="none" vector-effect="none" points="4729.89,9710.13 4729.89,9592.02 " />
<polyline fill="none" vector-effect="none" points="4729.89,9710.13 4461.46,9710.13 " />
<polyline fill="none" vector-effect="none" points="4461.46,9710.13 4461.46,9592.02 " />
<polyline fill="none" vector-effect="none" points="4461.46,9592.02 4193.04,9592.02 " />
<polyline fill="none" vector-effect="none" points="4193.04,9710.13 4193.04,9592.02 " />
<polyline fill="none" vector-effect="none" points="4193.04,9710.13 3924.61,9710.13 " />
<polyline fill="none" vector-effect="none" points="3924.61,9710.13 3924.61,9592.02 " />
<polyline fill="none" vector-effect="none" points="3924.61,9592.02 3656.18,9592.02 " />
<polyline fill="none" vector-effect="none" points="3656.18,9710.13 3656.18,9592.02 " />
<polyline fill="none" vector-effect="none" points="3656.18,9710.13 3387.76,9710.13 " />
<polyline fill="none" vector-effect="none" points="3387.76,9710.13 3387.76,8723.93 " />
<polyline fill="none" vector-effect="none" points="3387.76,8723.93 3505.86,8723.93 " />
<polyline fill="none" vector-effect="none" points="3505.86,8653.06 3505.86,8723.93 " />
<polyline fill="none" vector-effect="none" points="3387.76,8653.06 3505.86,8653.06 " />
<polyline fill="none" vector-effect="none" points="3387.76,8653.06 3387.76,8582.2 " />
<polyline fill="none" vector-effect="none" points="6104.23,8647.16 6104.23,8562.8 " />
<polyline fill="none" vector-effect="none" points="6222.34,8647.16 6104.23,8647.16 " />
<polyline fill="none" vector-effect="none" points="6222.34,8647.16 6222.34,8562.8 " />
<polyline fill="none" vector-effect="none" points="6222.34,8562.8 6104.23,8562.8 " />
<polyline fill="none" vector-effect="none" points="6104.23,8309.71 6104.23,8225.35 " />
<polyline fill="none" vector-effect="none" points="6222.34,8309.71 6104.23,8309.71 " />
<polyline fill="none" vector-effect="none" points="6222.34,8309.71 6222.34,8225.35 " />
<polyline fill="none" vector-effect="none" points="6222.34,8225.35 6104.23,8225.35 " />
<polyline fill="none" vector-effect="none" points="6104.23,8478.43 6104.23,8394.07 " />
<polyline fill="none" vector-effect="none" points="6222.34,8478.43 6104.23,8478.43 " />
<polyline fill="none" vector-effect="none" points="6222.34,8478.43 6222.34,8394.07 " />
<polyline fill="none" vector-effect="none" points="6222.34,8394.07 6104.23,8394.07 " />
<polyline fill="none" vector-effect="none" points="6104.23,8140.98 6104.23,8056.62 " />
<polyline fill="none" vector-effect="none" points="6222.34,8140.98 6104.23,8140.98 " />
<polyline fill="none" vector-effect="none" points="6222.34,8140.98 6222.34,8056.62 " />
<polyline fill="none" vector-effect="none" points="6222.34,8056.62 6104.23,8056.62 " />
<polyline fill="none" vector-effect="none" points="4461.46,7111.76 4729.89,7111.76 " />
<polyline fill="none" vector-effect="none" points="4729.89,6993.65 4729.89,7111.76 " />
<polyline fill="none" vector-effect="none" points="8203.16,3322.98 8203.16,3407.35 " />
<polyline fill="none" vector-effect="none" points="8321.27,3407.35 8203.16,3407.35 " />
<polyline fill="none" vector-effect="none" points="53.7293,3407.35 171.837,3407.35 " />
<polyline fill="none" vector-effect="none" points="171.837,3407.35 171.837,3322.98 " />
<polyline fill="none" vector-effect="none" points="53.7293,3322.98 171.837,3322.98 " />
<polyline fill="none" vector-effect="none" points="53.7293,3238.62 171.837,3238.62 " />
<polyline fill="none" vector-effect="none" points="171.837,3238.62 171.837,3154.26 " />
<polyline fill="none" vector-effect="none" points="53.7293,3154.26 171.837,3154.26 " />
<polyline fill="none" vector-effect="none" points="53.7293,3069.9 171.837,3069.9 " />
<polyline fill="none" vector-effect="none" points="171.837,3069.9 171.837,2985.53 " />
<polyline fill="none" vector-effect="none" points="53.7293,2985.53 171.837,2985.53 " />
<polyline fill="none" vector-effect="none" points="8321.27,2985.53 8203.16,2985.53 " />
<polyline fill="none" vector-effect="none" points="8203.16,2985.53 8203.16,3069.9 " />
<polyline fill="none" vector-effect="none" points="8321.27,3069.9 8203.16,3069.9 " />
<polyline fill="none" vector-effect="none" points="8321.27,3154.26 8203.16,3154.26 " />
<polyline fill="none" vector-effect="none" points="8203.16,3154.26 8203.16,3238.62 " />
<polyline fill="none" vector-effect="none" points="8321.27,3238.62 8203.16,3238.62 " />
<polyline fill="none" vector-effect="none" points="8321.27,3322.98 8203.16,3322.98 " />
<polyline fill="none" vector-effect="none" points="8321.27,3491.71 53.7293,3491.71 " />
<polyline fill="none" vector-effect="none" points="53.7293,2901.17 53.7293,2985.53 " />
<polyline fill="none" vector-effect="none" points="8321.27,2901.17 53.7293,2901.17 " />
<polyline fill="none" vector-effect="none" points="8321.27,2901.17 8321.27,2985.53 " />
<polyline fill="none" vector-effect="none" points="53.7293,3407.35 53.7293,3491.71 " />
<polyline fill="none" vector-effect="none" points="53.7293,3238.62 53.7293,3322.98 " />
<polyline fill="none" vector-effect="none" points="53.7293,3069.9 53.7293,3154.26 " />
<polyline fill="none" vector-effect="none" points="8321.27,3069.9 8321.27,3154.26 " />
<polyline fill="none" vector-effect="none" points="8321.27,3238.62 8321.27,3322.98 " />
<polyline fill="none" vector-effect="none" points="8321.27,3407.35 8321.27,3491.71 " />
<polyline fill="none" vector-effect="none" points="8164.93,2593.58 8164.93,2677.94 " />
<polyline fill="none" vector-effect="none" points="8283.04,2677.94 8164.93,2677.94 " />
<polyline fill="none" vector-effect="none" points="15.5067,2677.94 133.614,2677.94 " />
<polyline fill="none" vector-effect="none" points="133.614,2677.94 133.614,2593.58 " />
<polyline fill="none" vector-effect="none" points="15.5067,2593.58 133.614,2593.58 " />
<polyline fill="none" vector-effect="none" points="15.5067,2509.21 133.614,2509.21 " />
<polyline fill="none" vector-effect="none" points="133.614,2509.21 133.614,2424.85 " />
<polyline fill="none" vector-effect="none" points="15.5067,2424.85 133.614,2424.85 " />
<polyline fill="none" vector-effect="none" points="15.5067,2340.49 133.614,2340.49 " />
<polyline fill="none" vector-effect="none" points="133.614,2340.49 133.614,2256.13 " />
<polyline fill="none" vector-effect="none" points="15.5067,2256.13 133.614,2256.13 " />
<polyline fill="none" vector-effect="none" points="8283.04,2256.13 8164.93,2256.13 " />
<polyline fill="none" vector-effect="none" points="8164.93,2256.13 8164.93,2340.49 " />
<polyline fill="none" vector-effect="none" points="8283.04,2340.49 8164.93,2340.49 " />
<polyline fill="none" vector-effect="none" points="8283.04,2424.85 8164.93,2424.85 " />
<polyline fill="none" vector-effect="none" points="8164.93,2424.85 8164.93,2509.21 " />
<polyline fill="none" vector-effect="none" points="8283.04,2509.21 8164.93,2509.21 " />
<polyline fill="none" vector-effect="none" points="8283.04,2593.58 8164.93,2593.58 " />
<polyline fill="none" vector-effect="none" points="8283.04,2762.3 15.5067,2762.3 " />
<polyline fill="none" vector-effect="none" points="15.5067,2171.76 15.5067,2256.13 " />
<polyline fill="none" vector-effect="none" points="8283.04,2171.76 15.5067,2171.76 " />
<polyline fill="none" vector-effect="none" points="8283.04,2171.76 8283.04,2256.13 " />
<polyline fill="none" vector-effect="none" points="15.5067,2677.94 15.5067,2762.3 " />
<polyline fill="none" vector-effect="none" points="15.5067,2509.21 15.5067,2593.58 " />
<polyline fill="none" vector-effect="none" points="15.5067,2340.49 15.5067,2424.85 " />
<polyline fill="none" vector-effect="none" points="8283.04,2340.49 8283.04,2424.85 " />
<polyline fill="none" vector-effect="none" points="8283.04,2509.21 8283.04,2593.58 " />
<polyline fill="none" vector-effect="none" points="8283.04,2677.94 8283.04,2762.3 " />
<polyline fill="none" vector-effect="none" points="239.517,1869.74 2790.64,1869.74 " />
<polyline fill="none" vector-effect="none" points="2790.64,1787.06 2790.64,1869.74 " />
<polyline fill="none" vector-effect="none" points="239.517,1787.06 2790.64,1787.06 " />
<polyline fill="none" vector-effect="none" points="239.517,1787.06 239.517,1869.74 " />
<polyline fill="none" vector-effect="none" points="2908.75,1869.74 5459.88,1869.74 " />
<polyline fill="none" vector-effect="none" points="5459.88,1787.06 5459.88,1869.74 " />
<polyline fill="none" vector-effect="none" points="2908.75,1787.06 5459.88,1787.06 " />
<polyline fill="none" vector-effect="none" points="2908.75,1787.06 2908.75,1869.74 " />
<polyline fill="none" vector-effect="none" points="5577.98,1869.74 8129.11,1869.74 " />
<polyline fill="none" vector-effect="none" points="8129.11,1787.06 8129.11,1869.74 " />
<polyline fill="none" vector-effect="none" points="5577.98,1787.06 8129.11,1787.06 " />
<polyline fill="none" vector-effect="none" points="5577.98,1787.06 5577.98,1869.74 " />
<polyline fill="none" vector-effect="none" points="50.5445,1928.79 50.5445,1869.74 " />
<polyline fill="none" vector-effect="none" points="50.5445,1869.74 168.652,1869.74 " />
<polyline fill="none" vector-effect="none" points="168.652,1787.06 168.652,1869.74 " />
<polyline fill="none" vector-effect="none" points="50.5445,1787.06 168.652,1787.06 " />
<polyline fill="none" vector-effect="none" points="50.5445,1787.06 50.5445,1728.01 " />
<polyline fill="none" vector-effect="none" points="50.5445,1728.01 168.652,1728.01 " />
<polyline fill="none" vector-effect="none" points="168.652,1592.18 168.652,1728.01 " />
<polyline fill="none" vector-effect="none" points="8199.97,1592.18 168.652,1592.18 " />
<polyline fill="none" vector-effect="none" points="8199.97,1728.01 8199.97,1592.18 " />
<polyline fill="none" vector-effect="none" points="8318.08,1728.01 8199.97,1728.01 " />
<polyline fill="none" vector-effect="none" points="8318.08,1787.06 8318.08,1728.01 " />
<polyline fill="none" vector-effect="none" points="8318.08,1787.06 8199.97,1787.06 " />
<polyline fill="none" vector-effect="none" points="8199.97,1869.74 8199.97,1787.06 " />
<polyline fill="none" vector-effect="none" points="8318.08,1869.74 8199.97,1869.74 " />
<polyline fill="none" vector-effect="none" points="8318.08,1928.79 8318.08,1869.74 " />
<polyline fill="none" vector-effect="none" points="8318.08,1928.79 8199.97,1928.79 " />
<polyline fill="none" vector-effect="none" points="8199.97,2064.61 8199.97,1928.79 " />
<polyline fill="none" vector-effect="none" points="8199.97,2064.61 168.652,2064.61 " />
<polyline fill="none" vector-effect="none" points="168.652,1928.79 168.652,2064.61 " />
<polyline fill="none" vector-effect="none" points="50.5445,1928.79 168.652,1928.79 " />
<polyline fill="none" vector-effect="none" points="8205.55,1254.2 8205.55,1338.56 " />
<polyline fill="none" vector-effect="none" points="8323.65,1338.56 8205.55,1338.56 " />
<polyline fill="none" vector-effect="none" points="8323.65,1338.56 8323.65,1422.92 " />
<polyline fill="none" vector-effect="none" points="8323.65,1422.92 56.1191,1422.92 " />
<polyline fill="none" vector-effect="none" points="56.1191,1338.56 56.1191,1422.92 " />
<polyline fill="none" vector-effect="none" points="56.1191,1338.56 174.227,1338.56 " />
<polyline fill="none" vector-effect="none" points="174.227,1338.56 174.227,1254.2 " />
<polyline fill="none" vector-effect="none" points="56.1191,1254.2 174.227,1254.2 " />
<polyline fill="none" vector-effect="none" points="56.1191,1169.83 56.1191,1254.2 " />
<polyline fill="none" vector-effect="none" points="56.1191,1169.83 174.227,1169.83 " />
<polyline fill="none" vector-effect="none" points="174.227,1169.83 174.227,1085.47 " />
<polyline fill="none" vector-effect="none" points="56.1191,1085.47 174.227,1085.47 " />
<polyline fill="none" vector-effect="none" points="56.1191,1001.11 56.1191,1085.47 " />
<polyline fill="none" vector-effect="none" points="174.227,1001.11 174.227,916.747 " />
<polyline fill="none" vector-effect="none" points="56.1191,916.747 174.227,916.747 " />
<polyline fill="none" vector-effect="none" points="56.1191,832.385 56.1191,916.747 " />
<polyline fill="none" vector-effect="none" points="8323.65,832.385 56.1191,832.385 " />
<polyline fill="none" vector-effect="none" points="8323.65,916.747 8205.55,916.747 " />
<polyline fill="none" vector-effect="none" points="8205.55,916.747 8205.55,1001.11 " />
<polyline fill="none" vector-effect="none" points="8323.65,1001.11 8205.55,1001.11 " />
<polyline fill="none" vector-effect="none" points="8323.65,1085.47 8205.55,1085.47 " />
<polyline fill="none" vector-effect="none" points="8205.55,1085.47 8205.55,1169.83 " />
<polyline fill="none" vector-effect="none" points="8323.65,1169.83 8205.55,1169.83 " />
<polyline fill="none" vector-effect="none" points="8323.65,1254.2 8205.55,1254.2 " />
<polyline fill="none" vector-effect="none" points="56.1191,1001.11 174.227,1001.11 " />
<polyline fill="none" vector-effect="none" points="8323.65,832.385 8323.65,916.747 " />
<polyline fill="none" vector-effect="none" points="8323.65,1001.11 8323.65,1085.47 " />
<polyline fill="none" vector-effect="none" points="8323.65,1169.83 8323.65,1254.2 " />
<polyline fill="none" vector-effect="none" points="8214.31,526.38 8214.31,610.742 " />
<polyline fill="none" vector-effect="none" points="8332.41,610.742 8214.31,610.742 " />
<polyline fill="none" vector-effect="none" points="8332.41,610.742 8332.41,695.105 " />
<polyline fill="none" vector-effect="none" points="8332.41,695.105 64.8785,695.105 " />
<polyline fill="none" vector-effect="none" points="64.8785,610.742 64.8785,695.105 " />
<polyline fill="none" vector-effect="none" points="64.8785,610.742 182.986,610.742 " />
<polyline fill="none" vector-effect="none" points="182.986,610.742 182.986,526.38 " />
<polyline fill="none" vector-effect="none" points="64.8785,526.38 182.986,526.38 " />
<polyline fill="none" vector-effect="none" points="64.8785,442.017 64.8785,526.38 " />
<polyline fill="none" vector-effect="none" points="64.8785,442.017 182.986,442.017 " />
<polyline fill="none" vector-effect="none" points="182.986,442.017 182.986,357.654 " />
<polyline fill="none" vector-effect="none" points="64.8785,357.654 182.986,357.654 " />
<polyline fill="none" vector-effect="none" points="64.8785,273.292 64.8785,357.654 " />
<polyline fill="none" vector-effect="none" points="64.8785,273.292 182.986,273.292 " />
<polyline fill="none" vector-effect="none" points="182.986,273.292 182.986,188.929 " />
<polyline fill="none" vector-effect="none" points="64.8785,188.929 182.986,188.929 " />
<polyline fill="none" vector-effect="none" points="64.8785,104.566 64.8785,188.929 " />
<polyline fill="none" vector-effect="none" points="8332.41,273.292 8214.31,273.292 " />
<polyline fill="none" vector-effect="none" points="8332.41,273.292 8332.41,357.654 " />
<polyline fill="none" vector-effect="none" points="8332.41,357.654 8214.31,357.654 " />
<polyline fill="none" vector-effect="none" points="8214.31,357.654 8214.31,442.017 " />
<polyline fill="none" vector-effect="none" points="8332.41,442.017 8214.31,442.017 " />
<polyline fill="none" vector-effect="none" points="8332.41,442.017 8332.41,526.38 " />
<polyline fill="none" vector-effect="none" points="8332.41,526.38 8214.31,526.38 " />
<polyline fill="none" vector-effect="none" points="8214.31,188.929 8214.31,273.292 " />
<polyline fill="none" vector-effect="none" points="8332.41,104.566 8332.41,188.929 " />
<polyline fill="none" vector-effect="none" points="8332.41,104.566 64.8785,104.566 " />
<polyline fill="none" vector-effect="none" points="8332.41,188.929 8214.31,188.929 " />
</g>

<g fill="none" stroke="#000000" stroke-opacity="1" stroke-width="1" stroke-linecap="square" stroke-linejoin="bevel" transform="matrix(1,0,0,1,0,0)"
font-family="Arial" font-size="12" font-weight="400" font-style="normal" 
>
</g>
</g>
</svg>
