<svg xmlns="http://www.w3.org/2000/svg" viewBox="0 0 522.22 472.58"><defs><style>.cls-1{fill:none;stroke:red;stroke-miterlimit:10;stroke-width:0.28px;}</style></defs><g id="Calque_2" data-name="Calque 2"><g id="Calque_1-2" data-name="Calque 1"><g id="Mode_Isolation" data-name="Mode Isolation"><path class="cls-1" d="M522.08,102.31,462.8,113.4a236.23,236.23,0,0,0-403.28-.2L.14,102.31,5,370.27l54-11.86a236.24,236.24,0,0,0,404.92-1l58.22,12.82Z"/></g><path class="cls-1" d="M284.92,139.88c3.23.76,6,1.27,8.58,1.7,0-.11,0-.22,0-.34a1.54,1.54,0,0,1,.06-.43.24.24,0,0,1,0-.08,3.88,3.88,0,0,1-.94-.17c-.34-.08-.68-.08-.93-.17a16.42,16.42,0,0,1-2-.42c-.34-.09-.77-.17-1.11-.26-.59-.08-1.1-.25-1.69-.34a11.4,11.4,0,0,1-1.7-.42c-12.92-3-24.56-7.48-31.36-11.82-.17-.08-.25-.17-.42-.25s-.26-.17-.43-.26a16.76,16.76,0,0,1-4.67-4.33,3.86,3.86,0,0,1-.65-1.75,1.09,1.09,0,0,1,0-.18,2.61,2.61,0,0,1,.06-.62c.34-1.4,1.87-2.46,4.34-3.18a37.56,37.56,0,0,1,9.94-1.07c1.78,0,3.74.09,5.86.26h.85a145.86,145.86,0,0,1,21.16,3.4c.42.08.93.25,1.36.34l1.1.25,1.19.26c.17.08.43.08.6.17l1,.25c.42.09.76.26,1.19.34s.76.26,1.1.34.68.26,1,.34c.09,0,.26.09.34.09a2.51,2.51,0,0,1,.51-.61s.05-.06.09-.07a4.68,4.68,0,0,1-1.28-.15l-.34-.11c-.42-.17-.93-.25-1.36-.42-1.95-.6-4.08-1.11-6.46-1.7a142,142,0,0,0-21-3.4,3.28,3.28,0,0,0,.08-2.38,4.22,4.22,0,0,0-2.21-2.38c-5.95-3.14-22.86-1.27-41,4.5a9.34,9.34,0,0,0-1.69.6l-1.62.51c-.59.17-1.19.42-1.78.59l0,.08a2.24,2.24,0,0,1,.15.77l1.53-.51c1.19-.42,2.37-.85,3.73-1.27,12.16-3.91,23.71-6,31.7-6,3.74,0,6.71.43,8.58,1.45a3.15,3.15,0,0,1,1.79,1.87,2.71,2.71,0,0,1,.11.82,1.42,1.42,0,0,1,0,.29,3.83,3.83,0,0,1-.26.93c-2-.17-4.08-.26-5.87-.26-8.83,0-14.7,1.62-15.46,4.93a3.44,3.44,0,0,0-.1.84,1.69,1.69,0,0,0,0,.23,5.38,5.38,0,0,0,.77,2.16,15.74,15.74,0,0,0,4.5,4.33l-.07,0A145,145,0,0,1,232.32,135c-1.78.59-3.4,1-4.93,1.44l0,.08a3,3,0,0,0,.31.69c1.53-.43,3.15-.94,4.93-1.45a140.35,140.35,0,0,0,20.23-8.16C259.68,132.15,271.5,136.74,284.92,139.88ZM293,59.59l-.23-.33A6.33,6.33,0,0,0,291.74,58,7,7,0,0,0,290.39,57a9.1,9.1,0,0,0-1-.56c-.19-.1-.4-.19-.61-.28a2.56,2.56,0,0,0-.43-.17l-.43-.17c-.29-.1-.6-.18-.91-.26h0a11.25,11.25,0,0,0-1.45-.25l-.4,0-.34,0c-.26,0-.51,0-.77,0s-.51,0-.76,0l-.34,0-.41,0a11.55,11.55,0,0,0-1.45.25h0c-.32.08-.62.16-.91.26l-.44.17a2.56,2.56,0,0,0-.43.17c-.2.09-.42.18-.61.28a9.1,9.1,0,0,0-1,.56A7.69,7.69,0,0,0,276.4,58a6.33,6.33,0,0,0-1.07,1.25l-.22.33a4.35,4.35,0,0,0-.38.7h0a5,5,0,0,0-.29.73,4.74,4.74,0,0,0-.15.57c0,.12-.06.26-.08.39a1,1,0,0,0,0,.17c0,.05,0,.1,0,.16a1.18,1.18,0,0,0,0,.27,4,4,0,0,0,0,.8,1.18,1.18,0,0,0,0,.27c0,.06,0,.11,0,.16a1,1,0,0,0,0,.17c0,.13.05.27.08.39a4.74,4.74,0,0,0,.15.57,4.51,4.51,0,0,0,.29.72h0a4.35,4.35,0,0,0,.38.7h0l.22.32A6.33,6.33,0,0,0,276.4,68,7.69,7.69,0,0,0,277.75,69a9.1,9.1,0,0,0,1,.56c.19.1.41.19.61.28a2.56,2.56,0,0,0,.43.17l.44.17c.29.1.59.18.91.26h0a11.55,11.55,0,0,0,1.45.25l.41,0,.34,0c.25,0,.51,0,.76,0s.51,0,.77,0l.34,0,.4,0a11.25,11.25,0,0,0,1.45-.25h0c.31-.08.62-.16.91-.26l.43-.17a2.56,2.56,0,0,0,.43-.17c.21-.09.42-.18.61-.28a9.1,9.1,0,0,0,1-.56A7,7,0,0,0,291.74,68a6.33,6.33,0,0,0,1.07-1.25l.23-.32s0,0,0,0a5.23,5.23,0,0,0,.37-.7h0a4.51,4.51,0,0,0,.29-.72,4.74,4.74,0,0,0,.15-.57,2.45,2.45,0,0,0,.08-.39,1,1,0,0,0,0-.17c0-.05,0-.1,0-.16a1.18,1.18,0,0,0,0-.27c0-.14,0-.26,0-.4s0-.26,0-.4a1.18,1.18,0,0,0,0-.27c0-.06,0-.11,0-.16a1,1,0,0,0,0-.17,2.45,2.45,0,0,0-.08-.39,4.74,4.74,0,0,0-.15-.57,5,5,0,0,0-.29-.73h0A5.23,5.23,0,0,0,293,59.59ZM261.89,305.75h22.95c9.85,0,16.48-.6,19.79-1.79,11.31-4.25,17-14.1,17-29.65V252c0-7.81-2.3-13.76-6.8-18.09,4.59-4.34,6.8-10.37,6.8-18V193.67c0-9-2-16.06-5.69-21.25-3.66-6.28-11.73-9.77-24.39-10.19-1-.09-2.13-.09-3.23-.09H261.89a2.23,2.23,0,0,0-2.46,2.55v22.14H285.9v0h5.22c3.74,0,5.7,3.31,5.7,9.94v18.36c0,5-3.23,7.47-9.6,7.47h-3.15v-23H259.43v68.57h24.64v-23h4.59c5.44,0,8.16,3.14,8.16,9.26v17c0,6.38-1.7,9.52-5.27,9.52H259.43v22.26A2.2,2.2,0,0,0,261.89,305.75Zm-87,25c17.93,5.17,34.92,14,51.26,26.19,2.8-14.64,6.16-26.79,10.45-35.46C218.52,321.92,197.42,325.61,174.92,330.79ZM145.82,153h-26c-1.87,0-2.81,1.27-2.81,3.73V314.24c0,2.38.94,3.66,2.81,3.66h26c1.1-.77,1.61-1.28,1.61-1.62V302.43a3,3,0,0,1,.43-1.61,3.57,3.57,0,0,1-.43-1.7V154.67C146.75,153.48,146.24,153,145.82,153Zm75.8-5.53a55.06,55.06,0,0,1-2.21-7.64,2.08,2.08,0,0,0,0-.3l0,.13a3.86,3.86,0,0,0-.09-.43h-.08a.38.38,0,0,1,.08.17h-.08c-.05-.13-.09-.27-.14-.42a1.89,1.89,0,0,0-.2-.43c-3.15.34-5.44.17-7-.68-2-1-2.64-3.06-3.4-5.35l-.25-.85a13,13,0,0,1-.89-4v-.13a5.08,5.08,0,0,1,.55-2.16,11.42,11.42,0,0,1,1.95-2.38,4.81,4.81,0,0,1,.17-1.19c.08-.08.08-.08.17-.08a.94.94,0,0,0,0-.16,4,4,0,0,1,.13-.52s0,0,0,0c1.93-7.63,4.6-18.56,4.6-20.45a.76.76,0,0,0,0-.24l-1.62-5,17.93,3.57-.51.76a39.49,39.49,0,0,1,15-5.1V90.6H235.72l-16.4-12.33V74.62h.09V70.37a5.72,5.72,0,0,1-4.25,2.21c-3.66,0-6.63-4.33-6.63-9.6,0-4.84,2.46-8.84,5.61-9.52a6.43,6.43,0,0,1,1.18.06l1.37.11a6,6,0,0,1,2.72,2V48.53H257.3V39c-2.2-.77-3.82-2.47-3.82-4.51,0-2.72,2.8-4.84,6.2-4.84s6.21,2.12,6.21,4.84c0,2.13-1.79,4-4.34,4.59v9.43H300v6.89a5.79,5.79,0,0,1,2.81-1.87,2.7,2.7,0,0,1,1.54-.13l1,.13c3.06.85,5.36,4.76,5.36,9.43,0,5.27-3,9.6-6.63,9.6a5.45,5.45,0,0,1-4.08-2v7.73h-.08L285.09,90.6h-10v4.07a45.2,45.2,0,0,1,15.13,4.42l-.17-.25,17.84-3.57-1.53,4.67h.09c-.51.85-.26,16.66,0,24.56v1c.42.34.85.68,1.19,1a2.1,2.1,0,0,1,.42.51,1.68,1.68,0,0,1,.34.51c1.19,1.95.68,3.91.17,6.29l-.17.85a19.72,19.72,0,0,1-1,3.24,1.63,1.63,0,0,1-.11.23,4.91,4.91,0,0,1-1.89,2.14c-.17.08-.43.25-.6.33s-.17.09-.25.09a1.28,1.28,0,0,1-.51.17c-.17,0-.26.08-.43.08s-.25.09-.42.09-.25.08-.42.08a2.33,2.33,0,0,0-.4.08h0a1.92,1.92,0,0,1-.16.42c0,.09-.09.17-.14.28a.33.33,0,0,0,0,.06h0l-.08.17h-.09c0,.09-.08.26-.08.34q-.9,3.06-2,5.87c10.53-.94,21.07-2.38,31.52-4.25l108.94-19.37c-1.45-2.81-3.06-5.53-4.68-8.16a205.84,205.84,0,0,0-350.26-2c-1.78,2.81-3.48,5.7-5.18,8.67l121.17,21.16C208,145.66,214.73,146.59,221.62,147.44ZM244,302.6c-3.4-10.87-10.62-29.91-21.66-61.86v-.34q15-6.89,15-27.27V190.86c0-11.64-1.47-20-5.3-24.54-4.89-7.56-14.84-11.23-30.48-11.23H174.29c-1.7,0-2.64.85-2.64,2.72v50.24H198.5V182h5.7c4.08,0,6.2,2.89,6.2,8.83V212c0,5.95-3.06,8.84-9.26,8.84H171.65v87.61a2.34,2.34,0,0,0,2.64,2.63h23.45a2.34,2.34,0,0,0,2.63-2.63V263.86h.43c4.42,16.14,6.63,24.13,6.88,24.21,3.91,15.38,6.46,23,7.65,23l3.4-.34,9.09-.85,9.35-.85,7.05-.68c1.36.09.34-1.1.76-2.38C244.73,305,244.39,303.88,244,302.6Zm104.23,28.19c-22.5-5.18-43.59-8.87-61.71-9.27,4.3,8.67,7.66,20.82,10.46,35.46C313.28,344.83,330.27,336,348.19,330.79ZM152.61,376.87c14.85,6.47,40.71,11.06,57.61,10.76,1.21,0,2.33-.1,3.36-.1h.09c1.59-.1,3.08-.3,4.48-.5a21.78,21.78,0,0,0,5.23-1.39,5.48,5.48,0,0,0,3.27-2.79c.09-.2.09-.4.18-.5a9.46,9.46,0,0,0-.18-5.08c-1.12-4.18-4.67-9-10-13.74a72.14,72.14,0,0,0-7.1-5.58c-1.31-.9-2.71-1.79-4.11-2.69l-13.81-7.07A105.84,105.84,0,0,0,181,344.3l-2.33-.49-4.95-1.1c-10.64-1.69-17.46,1-22.31,5.58C144.4,355.86,130.11,367.11,152.61,376.87Zm67.68,53.81c0-11.65,7.85-26.19,15.87-35.85.1-.1.19-.3.28-.4-.28.1-.56.1-.84.2a31.88,31.88,0,0,1-3.64.69,91.25,91.25,0,0,1-14.08.95c-25.17,0-62-6.78-83.38-16.08-26.51-11.56-18.58-24.51-9.06-35L97.9,351.4l-13.53,3c1.3,1.69,2.52,3.49,3.92,5.18a231,231,0,0,0,17.45,20l.1.1c2,2.09,4.2,4.18,6.35,6.27l.09.1A212.41,212.41,0,0,0,129,400.4c.37.3.75.6,1,.8.09,0,.09.1.18.1a9.24,9.24,0,0,1,1,.8,207,207,0,0,0,18.21,12.45c2.8,1.79,5.69,3.38,8.68,5.08h.09a223,223,0,0,0,20.54,10.06c.28.09.47.19.75.29s.37.1.56.2.46.2.74.3a215.53,215.53,0,0,0,29.88,9.86c.56.1,1,.3,1.59.4,2.33.6,4.66,1.1,7.09,1.59,1.77.4,3.45.7,5.23,1-2.8-3.19-4.2-7.37-4.3-12.25Zm150.45-231H342.19v68.44h28.55ZM91.52,319.6V289.26c-.76-1.19-1.36-1.78-1.87-1.78H53.11V246.35h31.1c1.19-.68,1.79-1.27,1.79-1.78V214.74c-.68-1.19-1.28-1.78-1.79-1.78H53.11V171.83H89.65c1.28-.68,1.87-1.27,1.87-1.78V139.8c-.76-1.28-1.36-1.87-1.87-1.87H21.84c-2,0-3.14,1.44-3.14,4.16v175.3c0,2.63,1.11,4,3.14,4H89.65C90.93,320.62,91.52,320,91.52,319.6ZM285,436.36c-7.1,2.09-14.84-4-17.27-13.45s1.4-18.82,8.49-20.91a9.6,9.6,0,0,1,3.74-.4,62.83,62.83,0,0,0-5.14-6c-5.22-5.47-10.83-9.06-15.31-9.06h-.09c-4.2,0-9.9,3.59-15.68,9.76l-.66.7c-1.49,1.69-3,3.38-4.29,5.18a8,8,0,0,1,2.15.3c7.18,1.89,11.2,11.15,9,20.71s-9.71,15.94-16.9,14a10.81,10.81,0,0,1-6.16-4.18,10.81,10.81,0,0,0,2.9,6.18c6.16,6.27,20.63,6,30.24,5.77h.28c9.81-.1,23.25-.3,28.85-6.47a11.47,11.47,0,0,0,2.8-8.07A11.28,11.28,0,0,1,285,436.36ZM509.59,142v-.08H428.36c-1.53.76-2.38,2.46-2.38,4.84v27.11c0,2.55.59,4,1.87,4.33h22.77V334.55A3.05,3.05,0,0,0,454,338h29.91a3.05,3.05,0,0,0,3.4-3.4V178.12h22.26c1.27-.68,1.87-1.36,1.87-1.87V144C510.78,142.6,510.1,142,509.59,142ZM403.83,343l-9.61-2.19h-.1c2,2,4.11,4.08,5.89,6.27.28.3.46.6.74.9,4.86,6.07,7.84,12.74,3.08,19.62a3.07,3.07,0,0,0-.46.69c-2.62,3.49-7.29,7-14.66,10.46-2,1-4.2,1.89-6.54,2.79a222.59,222.59,0,0,1-34.63,10.16c-9.43,2-19,3.58-27.82,4.58h-.37c-4.49.5-8.69.8-12.7,1h-1.12c-1.12,0-2.23,0-3.31,0a90.07,90.07,0,0,1-9.57-.44,41.46,41.46,0,0,1-5.79-1,18.29,18.29,0,0,1-3.92-1.39c8.77,10.65,15.49,24.8,15.68,35.35a19,19,0,0,1-4.57,13.35,17.91,17.91,0,0,1-1.31,1.3c6.53-.9,13-2.2,19.23-3.69a4,4,0,0,0,.47-.1c.28-.1.56-.1.84-.2s.28-.1.46-.1a215.73,215.73,0,0,0,27.36-8.76c.09,0,.18-.1.37-.1,1.77-.7,3.55-1.5,5.32-2.19,5.42-2.29,10.74-4.88,16-7.67a2.44,2.44,0,0,0,.65-.4c2.15-1.2,4.39-2.39,6.44-3.59A222.72,222.72,0,0,0,392.07,403c.19-.1.28-.2.47-.3,2-1.49,4-3.08,6.07-4.68,2.61-2.09,5.13-4.18,7.56-6.37,3.08-2.69,6.07-5.48,9.05-8.47a6.06,6.06,0,0,0,.75-.79c.19-.2.37-.3.56-.5l.75-.8c3.54-3.58,7-7.27,10.45-11.15.28-.4.66-.7.94-1.1,1.58-1.79,3.08-3.58,4.57-5.48s2.89-3.58,4.39-5.47c1.59-2.1,3.17-4.19,4.76-6.38l-8.68-1.79ZM225.53,66.7A7.07,7.07,0,0,0,226.6,68,7.69,7.69,0,0,0,228,69a10.21,10.21,0,0,0,1,.56l.62.28A2.26,2.26,0,0,0,230,70l.43.17c.29.1.6.18.91.26h0a11.4,11.4,0,0,0,1.44.25l.41,0,.34,0c.26,0,.51,0,.77,0s.51,0,.76,0l.34,0,.41,0a11.09,11.09,0,0,0,1.44-.25h0c.32-.08.62-.16.91-.26l.44-.17a2.94,2.94,0,0,0,.43-.17l.61-.28a10.21,10.21,0,0,0,1-.56A7.69,7.69,0,0,0,242,68,6.68,6.68,0,0,0,243,66.7l.22-.32s0,0,0,0a5.3,5.3,0,0,0,.38-.7h0a4.48,4.48,0,0,0,.28-.72c.06-.18.11-.37.16-.57a2.44,2.44,0,0,0,.07-.39.51.51,0,0,0,0-.17c0-.05,0-.1,0-.16a2.28,2.28,0,0,0,0-.27,4,4,0,0,0,0-.8,2.28,2.28,0,0,0,0-.27c0-.06,0-.11,0-.16a.51.51,0,0,0,0-.17,2.44,2.44,0,0,0-.07-.39c-.05-.2-.1-.39-.16-.57a5,5,0,0,0-.28-.73h0a5.3,5.3,0,0,0-.38-.7l-.22-.33A6.68,6.68,0,0,0,242,58,7.69,7.69,0,0,0,240.6,57a10.21,10.21,0,0,0-1-.56l-.61-.28a2.94,2.94,0,0,0-.43-.17l-.44-.17c-.29-.1-.59-.18-.91-.26h0a11.09,11.09,0,0,0-1.44-.25l-.41,0-.34,0c-.25,0-.51,0-.76,0s-.51,0-.77,0l-.34,0-.41,0a11.4,11.4,0,0,0-1.44.25h0c-.31.08-.62.16-.91.26l-.43.17a2.26,2.26,0,0,0-.43.17l-.62.28a10.21,10.21,0,0,0-1,.56A7.69,7.69,0,0,0,226.6,58a7.07,7.07,0,0,0-1.07,1.25l-.22.33a5.23,5.23,0,0,0-.37.7h0a5,5,0,0,0-.29.73,4.74,4.74,0,0,0-.15.57,2.45,2.45,0,0,0-.08.39.51.51,0,0,0,0,.17.92.92,0,0,1,0,.16,1.18,1.18,0,0,0,0,.27c0,.14,0,.26,0,.4s0,.26,0,.4a1.18,1.18,0,0,0,0,.27.92.92,0,0,1,0,.16.51.51,0,0,0,0,.17,2.45,2.45,0,0,0,.08.39,4.74,4.74,0,0,0,.15.57,4.51,4.51,0,0,0,.29.72h0a5.23,5.23,0,0,0,.37.7s0,0,0,0S225.47,66.6,225.53,66.7Zm72.64,317.49a5,5,0,0,0,1.4,1.8,8.26,8.26,0,0,0,1.77,1,21,21,0,0,0,5.32,1.4c1.41.2,2.9.3,4.49.39,16.71,1,45.09-3.78,61-10.65,22.4-9.76,8.12-21,1.12-28.59-5-4.58-11.67-7.27-22.31-5.67l-7.29,1.69A78.05,78.05,0,0,0,333,349.43l-8.68,4.49L320.2,356l-1,.5c-1.4.89-2.8,1.79-4.1,2.68-6.72,4.59-11.86,9.57-14.75,14.25a18.41,18.41,0,0,0-2.34,5,9.29,9.29,0,0,0,0,5.28C298.08,383.89,298.08,384.09,298.17,384.19ZM413.74,282.12V189.5q0-14.66-3.31-20.64c-5-11.9-15.89-17.93-32.46-17.93a47.78,47.78,0,0,0-13.85,1.7c-14.62,4.92-21.93,15.63-21.93,32v2.17h28.6c.33-4.64,2.77-7.3,7.26-7.78,4.84,0,7.31,4,7.31,12.15v89.4q0,11.72-6.12,11.72h-2c-4.33,0-6.54-2.8-6.54-8.58h.08v-2.85H342.19v6a39.82,39.82,0,0,0,2,12.66c4.76,14,15.38,21.08,31.7,21.08h2.38c9.85,0,17.16-1.79,22-5.61C409.24,310,413.74,299,413.74,282.12Z"/></g></g></svg>