<?xml version='1.0' encoding='us-ascii'?>
<svg height="385.30mm" viewBox="0.0 0.0 585.83 385.30" width="585.83mm" xmlns="http://www.w3.org/2000/svg" xmlns:cc="http://creativecommons.org/ns#" xmlns:dc="http://purl.org/dc/elements/1.1/" xmlns:inkscape="http://www.inkscape.org/namespaces/inkscape" xmlns:rdf="http://www.w3.org/1999/02/22-rdf-syntax-ns#" xmlns:svg="http://www.w3.org/2000/svg" xmlns:xlink="http://www.w3.org/1999/xlink">
<!--
Folder - Book cover with flex for the spine

Created with Boxes.py (https://festi.info/boxes.py)
Creation date: 2020-07-10 14:10:12
Command line (remove spaces between dashes): boxes Folder - -FingerJoint_angle=90.0 - -FingerJoint_style=rectangular - -FingerJoint_surroundingspaces=2.0 - -FingerJoint_edge_width=1.0 - -FingerJoint_finger=2.0 - -FingerJoint_play=0.0 - -FingerJoint_space=2.0 - -FingerJoint_width=1.0 - -x=250 - -y=350 - -h=20 - -r=10.0 - -thickness=4 - -format=svg - -tabs=0.0 - -debug=0 - -reference=100 - -burn=0.1
Url: http://localhost:8008/Folder?FingerJoint_angle=90.0&FingerJoint_style=rectangular&FingerJoint_surroundingspaces=2.0&FingerJoint_edge_width=1.0&FingerJoint_finger=2.0&FingerJoint_play=0.0&FingerJoint_space=2.0&FingerJoint_width=1.0&x=250&y=350&h=20&r=10.0&thickness=4&format=svg&tabs=0.0&debug=0&reference=100&burn=0.1&render=1
SettingsUrl: http://localhost:8008/Folder?FingerJoint_angle=90.0&FingerJoint_style=rectangular&FingerJoint_surroundingspaces=2.0&FingerJoint_edge_width=1.0&FingerJoint_finger=2.0&FingerJoint_play=0.0&FingerJoint_space=2.0&FingerJoint_width=1.0&x=250&y=350&h=20&r=10.0&thickness=4&format=svg&tabs=0.0&debug=0&reference=100&burn=0.1
-->
<title>Folder</title>
<metadata>
<rdf:RDF><cc:Work>
<dc:title>Misc - Folder</dc:title>
<dc:date>2020-07-10 14:10:12</dc:date>
<dc:source>http://localhost:8008/Folder?FingerJoint_angle=90.0&amp;FingerJoint_style=rectangular&amp;FingerJoint_surroundingspaces=2.0&amp;FingerJoint_edge_width=1.0&amp;FingerJoint_finger=2.0&amp;FingerJoint_play=0.0&amp;FingerJoint_space=2.0&amp;FingerJoint_width=1.0&amp;x=250&amp;y=350&amp;h=20&amp;r=10.0&amp;thickness=4&amp;format=svg&amp;tabs=0.0&amp;debug=0&amp;reference=100&amp;burn=0.1&amp;render=1</dc:source>
<dc:description>Book cover with flex for the spine

Created with Boxes.py (https://festi.info/boxes.py)
Command line: boxes Folder --FingerJoint_angle=90.0 --FingerJoint_style=rectangular --FingerJoint_surroundingspaces=2.0 --FingerJoint_edge_width=1.0 --FingerJoint_finger=2.0 --FingerJoint_play=0.0 --FingerJoint_space=2.0 --FingerJoint_width=1.0 --x=250 --y=350 --h=20 --r=10.0 --thickness=4 --format=svg --tabs=0.0 --debug=0 --reference=100 --burn=0.1
Url: http://localhost:8008/Folder?FingerJoint_angle=90.0&amp;FingerJoint_style=rectangular&amp;FingerJoint_surroundingspaces=2.0&amp;FingerJoint_edge_width=1.0&amp;FingerJoint_finger=2.0&amp;FingerJoint_play=0.0&amp;FingerJoint_space=2.0&amp;FingerJoint_width=1.0&amp;x=250&amp;y=350&amp;h=20&amp;r=10.0&amp;thickness=4&amp;format=svg&amp;tabs=0.0&amp;debug=0&amp;reference=100&amp;burn=0.1&amp;render=1
SettingsUrl: http://localhost:8008/Folder?FingerJoint_angle=90.0&amp;FingerJoint_style=rectangular&amp;FingerJoint_surroundingspaces=2.0&amp;FingerJoint_edge_width=1.0&amp;FingerJoint_finger=2.0&amp;FingerJoint_play=0.0&amp;FingerJoint_space=2.0&amp;FingerJoint_width=1.0&amp;x=250&amp;y=350&amp;h=20&amp;r=10.0&amp;thickness=4&amp;format=svg&amp;tabs=0.0&amp;debug=0&amp;reference=100&amp;burn=0.1
</dc:description>
</cc:Work></rdf:RDF></metadata>
<g id="p-0" style="fill:none;stroke-linecap:round;stroke-linejoin:round;">
  <path d="M 10.000 375.300 H 110.000 V 365.300 H 10.000 V 375.300 Z" stroke="rgb(0,0,0)" stroke-width="0.20" />
  <text alignment-baseline="hanging" font-size="10px" style="font-family: sans-serif ; font-weight: normal; font-style: normal; fill: rgb(0,0,0)" text-anchor="middle" transform="matrix( 1.000 0.000 0.000 1.000 60.000 365.300 )">100mm</text>
</g>
<g id="p-1" style="fill:none;stroke-linecap:round;stroke-linejoin:round;">
  <path d="M 22.900 360.200 H 262.900 M 265.316 360.200 V 339.835 M 265.316 335.835 V 299.106 M 265.316 295.106 V 258.376 M 265.316 254.376 V 217.647 M 265.316 213.647 V 176.918 M 265.316 172.918 V 136.188 M 265.316 132.188 V 95.459 M 265.316 91.459 V 54.729 M 265.316 50.729 V 14.000 M 267.316 10.000 V 30.365 M 267.316 34.365 V 71.094 M 267.316 75.094 V 111.824 M 267.316 115.824 V 152.553 M 267.316 156.553 V 193.282 M 267.316 197.282 V 234.012 M 267.316 238.012 V 274.741 M 267.316 278.741 V 315.471 M 267.316 319.471 V 356.200 M 269.316 360.200 V 339.835 M 269.316 335.835 V 299.106 M 269.316 295.106 V 258.376 M 269.316 254.376 V 217.647 M 269.316 213.647 V 176.918 M 269.316 172.918 V 136.188 M 269.316 132.188 V 95.459 M 269.316 91.459 V 54.729 M 269.316 50.729 V 14.000 M 271.316 10.000 V 30.365 M 271.316 34.365 V 71.094 M 271.316 75.094 V 111.824 M 271.316 115.824 V 152.553 M 271.316 156.553 V 193.282 M 271.316 197.282 V 234.012 M 271.316 238.012 V 274.741 M 271.316 278.741 V 315.471 M 271.316 319.471 V 356.200 M 273.316 360.200 V 339.835 M 273.316 335.835 V 299.106 M 273.316 295.106 V 258.376 M 273.316 254.376 V 217.647 M 273.316 213.647 V 176.918 M 273.316 172.918 V 136.188 M 273.316 132.188 V 95.459 M 273.316 91.459 V 54.729 M 273.316 50.729 V 14.000 M 275.316 10.000 V 30.365 M 275.316 34.365 V 71.094 M 275.316 75.094 V 111.824 M 275.316 115.824 V 152.553 M 275.316 156.553 V 193.282 M 275.316 197.282 V 234.012 M 275.316 238.012 V 274.741 M 275.316 278.741 V 315.471 M 275.316 319.471 V 356.200 M 277.316 360.200 V 339.835 M 277.316 335.835 V 299.106 M 277.316 295.106 V 258.376 M 277.316 254.376 V 217.647 M 277.316 213.647 V 176.918 M 277.316 172.918 V 136.188 M 277.316 132.188 V 95.459 M 277.316 91.459 V 54.729 M 277.316 50.729 V 14.000 M 279.316 10.000 V 30.365 M 279.316 34.365 V 71.094 M 279.316 75.094 V 111.824 M 279.316 115.824 V 152.553 M 279.316 156.553 V 193.282 M 279.316 197.282 V 234.012 M 279.316 238.012 V 274.741 M 279.316 278.741 V 315.471 M 279.316 319.471 V 356.200 M 281.316 360.200 V 339.835 M 281.316 335.835 V 299.106 M 281.316 295.106 V 258.376 M 281.316 254.376 V 217.647 M 281.316 213.647 V 176.918 M 281.316 172.918 V 136.188 M 281.316 132.188 V 95.459 M 281.316 91.459 V 54.729 M 281.316 50.729 V 14.000 M 283.316 10.000 V 30.365 M 283.316 34.365 V 71.094 M 283.316 75.094 V 111.824 M 283.316 115.824 V 152.553 M 283.316 156.553 V 193.282 M 283.316 197.282 V 234.012 M 283.316 238.012 V 274.741 M 283.316 278.741 V 315.471 M 283.316 319.471 V 356.200 M 285.316 360.200 V 339.835 M 285.316 335.835 V 299.106 M 285.316 295.106 V 258.376 M 285.316 254.376 V 217.647 M 285.316 213.647 V 176.918 M 285.316 172.918 V 136.188 M 285.316 132.188 V 95.459 M 285.316 91.459 V 54.729 M 285.316 50.729 V 14.000 M 287.316 10.000 V 30.365 M 287.316 34.365 V 71.094 M 287.316 75.094 V 111.824 M 287.316 115.824 V 152.553 M 287.316 156.553 V 193.282 M 287.316 197.282 V 234.012 M 287.316 238.012 V 274.741 M 287.316 278.741 V 315.471 M 287.316 319.471 V 356.200 M 289.316 360.200 V 339.835 M 289.316 335.835 V 299.106 M 289.316 295.106 V 258.376 M 289.316 254.376 V 217.647 M 289.316 213.647 V 176.918 M 289.316 172.918 V 136.188 M 289.316 132.188 V 95.459 M 289.316 91.459 V 54.729 M 289.316 50.729 V 14.000 M 291.316 10.000 V 30.365 M 291.316 34.365 V 71.094 M 291.316 75.094 V 111.824 M 291.316 115.824 V 152.553 M 291.316 156.553 V 193.282 M 291.316 197.282 V 234.012 M 291.316 238.012 V 274.741 M 291.316 278.741 V 315.471 M 291.316 319.471 V 356.200 M 293.316 360.200 V 339.835 M 293.316 335.835 V 299.106 M 293.316 295.106 V 258.376 M 293.316 254.376 V 217.647 M 293.316 213.647 V 176.918 M 293.316 172.918 V 136.188 M 293.316 132.188 V 95.459 M 293.316 91.459 V 54.729 M 293.316 50.729 V 14.000 M 295.316 10.000 V 30.365 M 295.316 34.365 V 71.094 M 295.316 75.094 V 111.824 M 295.316 115.824 V 152.553 M 295.316 156.553 V 193.282 M 295.316 197.282 V 234.012 M 295.316 238.012 V 274.741 M 295.316 278.741 V 315.471 M 295.316 319.471 V 356.200 M 297.316 360.200 V 339.835 M 297.316 335.835 V 299.106 M 297.316 295.106 V 258.376 M 297.316 254.376 V 217.647 M 297.316 213.647 V 176.918 M 297.316 172.918 V 136.188 M 297.316 132.188 V 95.459 M 297.316 91.459 V 54.729 M 297.316 50.729 V 14.000 M 299.316 10.000 V 30.365 M 299.316 34.365 V 71.094 M 299.316 75.094 V 111.824 M 299.316 115.824 V 152.553 M 299.316 156.553 V 193.282 M 299.316 197.282 V 234.012 M 299.316 238.012 V 274.741 M 299.316 278.741 V 315.471 M 299.316 319.471 V 356.200 M 301.316 360.200 V 339.835 M 301.316 335.835 V 299.106 M 301.316 295.106 V 258.376 M 301.316 254.376 V 217.647 M 301.316 213.647 V 176.918 M 301.316 172.918 V 136.188 M 301.316 132.188 V 95.459 M 301.316 91.459 V 54.729 M 301.316 50.729 V 14.000 M 303.316 10.000 V 30.365 M 303.316 34.365 V 71.094 M 303.316 75.094 V 111.824 M 303.316 115.824 V 152.553 M 303.316 156.553 V 193.282 M 303.316 197.282 V 234.012 M 303.316 238.012 V 274.741 M 303.316 278.741 V 315.471 M 303.316 319.471 V 356.200 M 305.316 360.200 V 339.835 M 305.316 335.835 V 299.106 M 305.316 295.106 V 258.376 M 305.316 254.376 V 217.647 M 305.316 213.647 V 176.918 M 305.316 172.918 V 136.188 M 305.316 132.188 V 95.459 M 305.316 91.459 V 54.729 M 305.316 50.729 V 14.000 M 307.316 10.000 V 30.365 M 307.316 34.365 V 71.094 M 307.316 75.094 V 111.824 M 307.316 115.824 V 152.553 M 307.316 156.553 V 193.282 M 307.316 197.282 V 234.012 M 307.316 238.012 V 274.741 M 307.316 278.741 V 315.471 M 307.316 319.471 V 356.200 M 309.316 360.200 V 339.835 M 309.316 335.835 V 299.106 M 309.316 295.106 V 258.376 M 309.316 254.376 V 217.647 M 309.316 213.647 V 176.918 M 309.316 172.918 V 136.188 M 309.316 132.188 V 95.459 M 309.316 91.459 V 54.729 M 309.316 50.729 V 14.000 M 311.316 10.000 V 30.365 M 311.316 34.365 V 71.094 M 311.316 75.094 V 111.824 M 311.316 115.824 V 152.553 M 311.316 156.553 V 193.282 M 311.316 197.282 V 234.012 M 311.316 238.012 V 274.741 M 311.316 278.741 V 315.471 M 311.316 319.471 V 356.200 M 313.316 360.200 V 339.835 M 313.316 335.835 V 299.106 M 313.316 295.106 V 258.376 M 313.316 254.376 V 217.647 M 313.316 213.647 V 176.918 M 313.316 172.918 V 136.188 M 313.316 132.188 V 95.459 M 313.316 91.459 V 54.729 M 313.316 50.729 V 14.000 M 315.316 10.000 V 30.365 M 315.316 34.365 V 71.094 M 315.316 75.094 V 111.824 M 315.316 115.824 V 152.553 M 315.316 156.553 V 193.282 M 315.316 197.282 V 234.012 M 315.316 238.012 V 274.741 M 315.316 278.741 V 315.471 M 315.316 319.471 V 356.200 M 317.316 360.200 V 339.835 M 317.316 335.835 V 299.106 M 317.316 295.106 V 258.376 M 317.316 254.376 V 217.647 M 317.316 213.647 V 176.918 M 317.316 172.918 V 136.188 M 317.316 132.188 V 95.459 M 317.316 91.459 V 54.729 M 317.316 50.729 V 14.000 M 319.316 10.000 V 30.365 M 319.316 34.365 V 71.094 M 319.316 75.094 V 111.824 M 319.316 115.824 V 152.553 M 319.316 156.553 V 193.282 M 319.316 197.282 V 234.012 M 319.316 238.012 V 274.741 M 319.316 278.741 V 315.471 M 319.316 319.471 V 356.200 M 321.316 360.200 V 339.835 M 321.316 335.835 V 299.106 M 321.316 295.106 V 258.376 M 321.316 254.376 V 217.647 M 321.316 213.647 V 176.918 M 321.316 172.918 V 136.188 M 321.316 132.188 V 95.459 M 321.316 91.459 V 54.729 M 321.316 50.729 V 14.000 M 323.316 10.000 V 30.365 M 323.316 34.365 V 71.094 M 323.316 75.094 V 111.824 M 323.316 115.824 V 152.553 M 323.316 156.553 V 193.282 M 323.316 197.282 V 234.012 M 323.316 238.012 V 274.741 M 323.316 278.741 V 315.471 M 323.316 319.471 V 356.200 M 262.900 360.200 H 325.732 H 565.732 C 567.505 360.200 569.246 359.733 570.782 358.847 C 572.317 357.960 573.592 356.685 574.479 355.150 C 575.365 353.615 575.832 351.873 575.832 350.100 V 20.100 C 575.832 18.327 575.365 16.585 574.479 15.050 C 573.592 13.515 572.317 12.240 570.782 11.353 C 569.246 10.467 567.505 10.000 565.732 10.000 H 22.900 C 21.127 10.000 19.385 10.467 17.850 11.353 C 16.315 12.240 15.040 13.515 14.153 15.050 C 13.267 16.585 12.800 18.327 12.800 20.100 V 350.100 C 12.800 351.873 13.267 353.615 14.153 355.150 C 15.040 356.685 16.315 357.960 17.850 358.847 C 19.385 359.733 21.127 360.200 22.900 360.200 Z" stroke="rgb(0,0,0)" stroke-width="0.20" />
</g>
</svg>