<?xml version="1.0" encoding="UTF-8" standalone="no"?>
<svg
   xmlns:dc="http://purl.org/dc/elements/1.1/"
   xmlns:cc="http://creativecommons.org/ns#"
   xmlns:rdf="http://www.w3.org/1999/02/22-rdf-syntax-ns#"
   xmlns:svg="http://www.w3.org/2000/svg"
   xmlns="http://www.w3.org/2000/svg"
   xmlns:sodipodi="http://sodipodi.sourceforge.net/DTD/sodipodi-0.dtd"
   xmlns:inkscape="http://www.inkscape.org/namespaces/inkscape"
   version="1.1"
   id="Layer_1"
   x="0px"
   y="0px"
   width="2848.02px"
   height="349.813px"
   viewBox="0 0 2848.02 349.813"
   enable-background="new 0 0 2848.02 349.813"
   xml:space="preserve"
   sodipodi:docname="Iris_box_-_Small.svg"
   inkscape:version="1.0.1 (3bc2e813f5, 2020-09-07)"><metadata
   id="metadata267"><rdf:RDF><cc:Work
       rdf:about=""><dc:format>image/svg+xml</dc:format><dc:type
         rdf:resource="http://purl.org/dc/dcmitype/StillImage" /><dc:title></dc:title></cc:Work></rdf:RDF></metadata><defs
   id="defs265">
	
	
	
	
	
</defs><sodipodi:namedview
   pagecolor="#ffffff"
   bordercolor="#666666"
   borderopacity="1"
   objecttolerance="10"
   gridtolerance="10"
   guidetolerance="10"
   inkscape:pageopacity="0"
   inkscape:pageshadow="2"
   inkscape:window-width="1208"
   inkscape:window-height="736"
   id="namedview263"
   showgrid="false"
   inkscape:zoom="0.34975532"
   inkscape:cx="747.47179"
   inkscape:cy="127.37631"
   inkscape:window-x="72"
   inkscape:window-y="27"
   inkscape:window-maximized="1"
   inkscape:current-layer="Layer_1" />
<g
   id="g4418"><path
     inkscape:connector-curvature="0"
     id="path1271-6"
     style="fill:#000000;fill-opacity:1;fill-rule:nonzero;stroke:#000000;stroke-width:0.0784882;stroke-linecap:butt;stroke-linejoin:miter;stroke-miterlimit:8.98305;stroke-dasharray:none;stroke-opacity:1"
     d="m 500.64382,163.00097 c 0,32.4671 -26.3191,58.78621 -58.78407,58.78621 -32.46994,0 -58.78621,-26.31911 -58.78621,-58.78621 0,-32.46498 26.31627,-58.78408 58.78621,-58.78408 32.46497,0 58.78407,26.3191 58.78407,58.78408" /><path
     inkscape:connector-curvature="0"
     id="path1275-3"
     style="fill:none;stroke:#ffffff;stroke-width:0.0784882;stroke-linecap:butt;stroke-linejoin:miter;stroke-miterlimit:8.98305;stroke-dasharray:none;stroke-opacity:1"
     d="M 442.1978,105.3579 V 111.62" /><path
     d="m 443.2637,123.17257 c 6.7766,0.19347 11.89557,1.77175 11.67941,9.80561 -0.22111,8.03315 -5.92688,14.36754 -12.6957,14.17406 -6.77095,-0.19418 -12.08622,-6.86874 -11.84314,-14.8778 0.24096,-8.01118 6.06579,-9.29606 12.85943,-9.10187 z"
     style="fill:#ffffff;fill-opacity:1;fill-rule:nonzero;stroke:none;stroke-width:0.0784882;stroke-miterlimit:8.98305;stroke-dasharray:none"
     id="path1277-9"
     inkscape:connector-curvature="0" /><path
     inkscape:connector-curvature="0"
     id="path1281-4"
     style="fill:none;stroke:#000000;stroke-width:0.0784882;stroke-linecap:butt;stroke-linejoin:miter;stroke-miterlimit:8.98305;stroke-dasharray:none;stroke-opacity:1"
     d="m 432.02933,127.05626 -0.41247,2.64346" /><path
     d="m 430.76429,110.30748 h 23.01088 v 7.45272 h -23.01088 z"
     style="fill:#ffffff;fill-opacity:1;fill-rule:nonzero;stroke:none;stroke-width:0.0784882;stroke-miterlimit:8.98305;stroke-dasharray:none"
     id="path1283-8"
     inkscape:connector-curvature="0" /><path
     d="m 430.76429,118.7538 h 23.01088 l -4.22458,3.52155 h -14.09964 z"
     style="fill:#ffffff;fill-opacity:1;fill-rule:nonzero;stroke:none;stroke-width:0.0784882;stroke-miterlimit:8.98305;stroke-dasharray:none"
     id="path1285-1"
     inkscape:connector-curvature="0" /><path
     d="m 437.85132,114.43497 c 0,1.23243 -1.2707,2.2317 -2.83481,2.2317 -1.56978,0 -2.84048,-0.99927 -2.84048,-2.2317 0,-1.23457 1.2707,-2.23383 2.84048,-2.23383 1.56411,0 2.83481,0.99926 2.83481,2.23383"
     style="fill:#010202;fill-opacity:1;fill-rule:nonzero;stroke:none;stroke-width:0.0784882;stroke-miterlimit:8.98305;stroke-dasharray:none"
     id="path1287-2"
     inkscape:connector-curvature="0" /><path
     d="m 452.07783,114.43497 c 0,1.23243 -1.27071,2.2317 -2.83977,2.2317 -1.56978,0 -2.84332,-0.99927 -2.84332,-2.2317 0,-1.23457 1.27354,-2.23383 2.84332,-2.23383 1.56906,0 2.83977,0.99926 2.83977,2.23383"
     style="fill:#010202;fill-opacity:1;fill-rule:nonzero;stroke:none;stroke-width:0.0784882;stroke-miterlimit:8.98305;stroke-dasharray:none"
     id="path1289-9"
     inkscape:connector-curvature="0" /><path
     d="m 431.44536,114.43497 c 0,1.51449 -0.8469,2.74127 -1.89366,2.74127 -1.04321,0 -1.89081,-1.22678 -1.89081,-2.74127 0,-1.51663 0.8476,-2.74339 1.89081,-2.74339 1.04676,0 1.89366,1.22676 1.89366,2.74339"
     style="fill:#ffffff;fill-opacity:1;fill-rule:nonzero;stroke:none;stroke-width:0.0784882;stroke-miterlimit:8.98305;stroke-dasharray:none"
     id="path1291-3"
     inkscape:connector-curvature="0" /><path
     d="m 456.83677,114.43497 c 0,1.51449 -0.85258,2.74127 -1.89366,2.74127 -1.04888,0 -1.89365,-1.22678 -1.89365,-2.74127 0,-1.51663 0.84477,-2.74339 1.89365,-2.74339 1.04108,0 1.89366,1.22676 1.89366,2.74339"
     style="fill:#ffffff;fill-opacity:1;fill-rule:nonzero;stroke:none;stroke-width:0.0784882;stroke-miterlimit:8.98305;stroke-dasharray:none"
     id="path1293-9"
     inkscape:connector-curvature="0" /><path
     d="m 429.06483,114.43497 c 0,-0.31537 0.55916,-7.42721 0.55916,-7.42721 l 0.55916,7.42721 z"
     style="fill:#ffffff;fill-opacity:1;fill-rule:nonzero;stroke:none;stroke-width:0.0784882;stroke-miterlimit:8.98305;stroke-dasharray:none"
     id="path1295-0"
     inkscape:connector-curvature="0" /><path
     d="m 454.38395,114.43497 c 0,-0.31537 0.55916,-7.42721 0.55916,-7.42721 l 0.55705,7.42721 z"
     style="fill:#ffffff;fill-opacity:1;fill-rule:nonzero;stroke:none;stroke-width:0.0784882;stroke-miterlimit:8.98305;stroke-dasharray:none"
     id="path1297-8"
     inkscape:connector-curvature="0" /><path
     d="m 444.04397,106.30473 c 0,0.76398 -0.79445,1.38126 -1.77175,1.38126 -0.9766,0 -1.77176,-0.61728 -1.77176,-1.38126 0,-0.76399 0.79516,-1.3841 1.77176,-1.3841 0.9773,0 1.77175,0.62011 1.77175,1.3841"
     style="fill:#ffffff;fill-opacity:1;fill-rule:nonzero;stroke:none;stroke-width:0.0784882;stroke-miterlimit:8.98305;stroke-dasharray:none"
     id="path1299-8"
     inkscape:connector-curvature="0" /><path
     d="m 448.0694,116.18192 c 0.70587,0.2438 1.48119,0.2438 2.18706,0 0.70586,-0.24308 1.28701,-0.72783 1.60025,-1.31181 -0.0447,0.43727 -0.43726,0.77745 -0.82493,1.04322 -0.16655,0.12189 -0.36285,0.24378 -0.55917,0.34088 -0.53152,0.2686 -1.13817,0.38766 -1.74695,0.31537 -0.29057,-0.0248 -0.62862,-0.14386 -0.75052,-0.36285 0.0248,-0.0248 0.0724,-0.0496 0.0943,-0.0744"
     style="fill:#ffffff;fill-opacity:1;fill-rule:nonzero;stroke:none;stroke-width:0.0784882;stroke-miterlimit:8.98305;stroke-dasharray:none"
     id="path1301-5"
     inkscape:connector-curvature="0" /><path
     d="m 432.61401,115.04161 c 0.21545,0.34018 0.5783,0.58114 0.96596,0.75265 0.43727,0.19419 0.92415,0.33805 1.4089,0.31608 0.87454,0 1.64987,-0.41246 2.40321,-0.80296 -0.0971,0.29057 -0.31325,0.58398 -0.60381,0.75264 -0.46491,0.29128 -1.09353,0.34089 -1.6775,0.3657 -0.2438,0.0219 -0.48476,0.0219 -0.725,-0.0249 -0.31609,-0.0722 -0.60949,-0.21898 -0.90289,-0.38765 -0.36002,-0.219 -0.70304,-0.48759 -0.89439,-0.82777 -0.0247,-0.0219 -0.0524,-0.0971 0.0256,-0.14387"
     style="fill:#ffffff;fill-opacity:1;fill-rule:nonzero;stroke:none;stroke-width:0.0784882;stroke-miterlimit:8.98305;stroke-dasharray:none"
     id="path1303-0"
     inkscape:connector-curvature="0" /><path
     d="m 453.77517,112.44493 c 0.0496,-0.0248 0.36569,-0.53437 0.77815,-0.58397 0.40964,-0.0475 1.1155,-0.19418 1.74908,0.84973 0.62863,1.04322 0.33522,2.35573 0.33522,2.35573 h -0.21615 c 0,0 0.31324,-1.19062 -0.24096,-2.18422 -0.55918,-0.99643 -1.16795,-0.92486 -1.5556,-0.82777 -0.38767,0.0971 -0.58397,0.53436 -0.58397,0.53436 z"
     style="fill:#010202;fill-opacity:1;fill-rule:nonzero;stroke:none;stroke-width:0.0784882;stroke-miterlimit:8.98305;stroke-dasharray:none"
     id="path1305-9"
     inkscape:connector-curvature="0" /><path
     d="m 430.911,112.39532 v -1.94114 h 3.27774 c 0,-0.0247 -3.08073,0.0971 -3.27774,1.94114 z"
     style="fill:#010202;fill-opacity:1;fill-rule:nonzero;stroke:none;stroke-width:0.0784882;stroke-miterlimit:8.98305;stroke-dasharray:none"
     id="path1307-6"
     inkscape:connector-curvature="0" /><path
     d="m 430.911,129.33758 3.27774,-4.70933 -5.12391,-1.01841 z"
     style="fill:#ffffff;fill-opacity:1;fill-rule:nonzero;stroke:none;stroke-width:0.0784882;stroke-miterlimit:8.98305;stroke-dasharray:none"
     id="path1309-3"
     inkscape:connector-curvature="0" /><path
     d="m 429.5269,125.04071 c 0.12189,0.36569 -1.86601,8.10615 -1.86601,8.10615 l 3.78447,-2.20691 0.65342,-4.48964 z"
     style="fill:#ffffff;fill-opacity:1;fill-rule:nonzero;stroke:none;stroke-width:0.0784882;stroke-miterlimit:8.98305;stroke-dasharray:none"
     id="path1311-8"
     inkscape:connector-curvature="0" /><path
     d="m 454.23724,129.33758 -3.27492,-4.70933 5.097,-1.01841"
     style="fill:#ffffff;fill-opacity:1;fill-rule:nonzero;stroke:none;stroke-width:0.0784882;stroke-miterlimit:8.98305;stroke-dasharray:none"
     id="path1313-5"
     inkscape:connector-curvature="0" /><path
     inkscape:connector-curvature="0"
     id="path1317-6"
     style="fill:#ffffff;fill-opacity:1;fill-rule:nonzero;stroke:#010202;stroke-width:0.0784882;stroke-linecap:butt;stroke-linejoin:miter;stroke-miterlimit:8.98305;stroke-dasharray:none;stroke-opacity:1"
     d="m 444.81929,128.68131 c 0.50956,1.60309 -4.12749,4.49035 -10.33714,6.4811 -6.21745,1.96523 -6.46125,0.60594 -6.96797,-0.99432 -0.50956,-1.60309 -1.09069,-2.84047 5.11897,-4.80571 6.24225,-1.99075 11.69926,-2.28131 12.18614,-0.68107 z" /><path
     d="m 455.64686,124.94432 c -0.19702,0.34018 0.0219,8.29891 0.0219,8.29891 l -3.20333,-2.98364 0.33804,-4.53782 z"
     style="fill:#ffffff;fill-opacity:1;fill-rule:nonzero;stroke:none;stroke-width:0.0784882;stroke-miterlimit:8.98305;stroke-dasharray:none"
     id="path1319-1"
     inkscape:connector-curvature="0" /><path
     inkscape:connector-curvature="0"
     id="path1323-1"
     style="fill:#ffffff;fill-opacity:1;fill-rule:nonzero;stroke:#010202;stroke-width:0.0784882;stroke-linecap:butt;stroke-linejoin:miter;stroke-miterlimit:8.98305;stroke-dasharray:none;stroke-opacity:1"
     d="m 438.67625,130.67206 c -0.38482,1.62719 4.46837,4.17426 10.80488,5.65545 6.33156,1.48119 6.47827,0.1219 6.86592,-1.52796 0.38766,-1.62789 0.87454,-2.9149 -5.48182,-4.39325 -6.36131,-1.48119 -11.79848,-1.38481 -12.18898,0.26576 z" /><path
     inkscape:connector-curvature="0"
     id="path1327-5"
     style="fill:none;stroke:#000000;stroke-width:0.0784882;stroke-linecap:butt;stroke-linejoin:miter;stroke-miterlimit:8.98305;stroke-dasharray:none;stroke-opacity:1"
     d="m 452.39108,128.36594 0.39049,2.6463" /><path
     d="m 443.21904,133.39064 c 0.0695,-0.26575 10.8715,2.83978 11.98984,1.3841 1.11621,-1.45638 0.50672,1.84334 -1.45852,1.79657 -2.01554,-0.2438 -10.9686,-1.57828 -10.53132,-3.18067 z"
     style="fill:#000000;fill-opacity:1;fill-rule:nonzero;stroke:none;stroke-width:0.0784882;stroke-miterlimit:8.98305;stroke-dasharray:none"
     id="path1329-9"
     inkscape:connector-curvature="0" /><path
     d="m 427.66089,133.14686 0.75051,2.13673 c 0,0 0.31537,0.55917 1.67466,0.43799 1.33449,-0.1219 5.29047,-1.11905 5.29047,-1.11905 0,0 -6.86591,0.92486 -7.71564,-1.45567 z"
     style="fill:#010202;fill-opacity:1;fill-rule:nonzero;stroke:none;stroke-width:0.0784882;stroke-miterlimit:8.98305;stroke-dasharray:none"
     id="path1331-8"
     inkscape:connector-curvature="0" /><path
     d="m 432.48928,126.66576 c 0,-0.24096 -0.3905,2.42802 -0.3905,2.42802 l 5.97153,-1.60025 c 0,0 -5.67812,1.55347 -5.58103,-0.82777 z"
     style="fill:#010202;fill-opacity:1;fill-rule:nonzero;stroke:none;stroke-width:0.0784882;stroke-miterlimit:8.98305;stroke-dasharray:none"
     id="path1333-4"
     inkscape:connector-curvature="0" /><path
     inkscape:connector-curvature="0"
     id="path1337-8"
     style="fill:none;stroke:#ffffff;stroke-width:0.0784882;stroke-linecap:butt;stroke-linejoin:miter;stroke-miterlimit:8.98305;stroke-dasharray:none;stroke-opacity:1"
     d="m 455.20888,220.69647 -4.39608,2.30613 -4.19695,-2.64701 0.19419,-4.94959 4.39041,-2.33091 4.19977,2.64629 z" /><path
     inkscape:connector-curvature="0"
     id="path1341-1"
     style="fill:none;stroke:#ffffff;stroke-width:0.0784882;stroke-linecap:butt;stroke-linejoin:miter;stroke-miterlimit:8.98305;stroke-dasharray:none;stroke-opacity:1"
     d="m 442.53798,212.95319 -4.39325,2.33093 -4.19695,-2.64631 0.19136,-4.97509 4.39325,-2.30612 4.19977,2.64417 z" /><path
     inkscape:connector-curvature="0"
     id="path1345-0"
     style="fill:none;stroke:#ffffff;stroke-width:0.0784882;stroke-linecap:butt;stroke-linejoin:miter;stroke-miterlimit:8.98305;stroke-dasharray:none;stroke-opacity:1"
     d="m 425.32996,212.34725 0.19134,-4.95313 4.39326,-2.32808 4.19977,2.64417 -0.19135,4.97721 -4.39608,2.30329 z" /><path
     inkscape:connector-curvature="0"
     id="path1349-3"
     style="fill:none;stroke:#ffffff;stroke-width:0.0784882;stroke-linecap:butt;stroke-linejoin:miter;stroke-miterlimit:8.98305;stroke-dasharray:none;stroke-opacity:1"
     d="m 430.03646,205.08871 0.19631,-4.95029 4.39324,-2.30611 4.19978,2.647 -0.19631,4.94958 -4.39042,2.30612 z" /><path
     inkscape:connector-curvature="0"
     id="path1353-0"
     style="fill:none;stroke:#ffffff;stroke-width:0.0784882;stroke-linecap:butt;stroke-linejoin:miter;stroke-miterlimit:8.98305;stroke-dasharray:none;stroke-opacity:1"
     d="m 421.27689,204.79743 0.19135,-4.94958 4.36844,-2.33091 4.19978,2.64629 -0.19136,4.97509 -4.36844,2.30612 z" /><path
     inkscape:connector-curvature="0"
     id="path1357-4"
     style="fill:none;stroke:#ffffff;stroke-width:0.0784882;stroke-linecap:butt;stroke-linejoin:miter;stroke-miterlimit:8.98305;stroke-dasharray:none;stroke-opacity:1"
     d="m 451.131,213.19698 0.19135,-4.95241 4.36844,-2.30613 4.19978,2.64631 -0.19135,4.94958 -4.36845,2.30612 z" /><path
     inkscape:connector-curvature="0"
     id="path1361-4"
     style="fill:none;stroke:#ffffff;stroke-width:0.0784882;stroke-linecap:butt;stroke-linejoin:miter;stroke-miterlimit:8.98305;stroke-dasharray:none;stroke-opacity:1"
     d="m 455.8375,205.96325 0.1963,-4.9751 4.39113,-2.30611 4.2019,2.64417 -0.19631,4.95241 -4.39325,2.33093 z" /><path
     inkscape:connector-curvature="0"
     id="path1365-4"
     style="fill:none;stroke:#ffffff;stroke-width:0.0784882;stroke-linecap:butt;stroke-linejoin:miter;stroke-miterlimit:8.98305;stroke-dasharray:none;stroke-opacity:1"
     d="m 455.08698,220.76806 0.16938,-4.94959 4.39325,-2.30612 4.19694,2.64417 -0.19135,4.95243 -4.36845,2.30611 z" /><path
     inkscape:connector-curvature="0"
     id="path1369-4"
     style="fill:none;stroke:#ffffff;stroke-width:0.0784882;stroke-linecap:butt;stroke-linejoin:miter;stroke-miterlimit:8.98305;stroke-dasharray:none;stroke-opacity:1"
     d="m 456.49375,191.27963 0.19632,-4.95241 4.39325,-2.30613 4.19977,2.6463 -0.19915,4.9503 -4.38758,2.30611 z" /><path
     inkscape:connector-curvature="0"
     id="path1373-7"
     style="fill:none;stroke:#ffffff;stroke-width:0.0784882;stroke-linecap:butt;stroke-linejoin:miter;stroke-miterlimit:8.98305;stroke-dasharray:none;stroke-opacity:1"
     d="m 473.31411,206.64148 0.19702,-4.9751 4.39042,-2.30611 4.20261,2.647 -0.19703,4.94959 -4.39608,2.33091 z" /><path
     inkscape:connector-curvature="0"
     id="path1377-6"
     style="fill:none;stroke:#ffffff;stroke-width:0.0784882;stroke-linecap:butt;stroke-linejoin:miter;stroke-miterlimit:8.98305;stroke-dasharray:none;stroke-opacity:1"
     d="m 437.97322,220.06503 0.19631,-4.95242 4.39112,-2.30612 4.20191,2.64629 -0.19632,4.95313 -4.39325,2.30612 z" /><path
     inkscape:connector-curvature="0"
     id="path1381-3"
     style="fill:none;stroke:#ffffff;stroke-width:0.0784882;stroke-linecap:butt;stroke-linejoin:miter;stroke-miterlimit:8.98305;stroke-dasharray:none;stroke-opacity:1"
     d="m 459.7467,213.48756 0.19348,-4.95243 4.39608,-2.32808 4.1941,2.64346 -0.19347,4.97793 -4.39113,2.30541 z" /><path
     inkscape:connector-curvature="0"
     id="path1385-1"
     style="fill:none;stroke:#ffffff;stroke-width:0.0784882;stroke-linecap:butt;stroke-linejoin:miter;stroke-miterlimit:8.98305;stroke-dasharray:none;stroke-opacity:1"
     d="m 438.4608,205.4785 0.19349,-4.95242 4.39324,-2.33092 4.19694,2.6463 -0.19064,4.9751 -4.39395,2.30611 z" /><path
     inkscape:connector-curvature="0"
     id="path1389-7"
     style="fill:none;stroke:#ffffff;stroke-width:0.0784882;stroke-linecap:butt;stroke-linejoin:miter;stroke-miterlimit:8.98305;stroke-dasharray:none;stroke-opacity:1"
     d="m 447.1006,205.76907 0.19632,-4.97722 4.39325,-2.30329 4.19977,2.64346 -0.19915,4.95313 -4.39041,2.32808 z" /><path
     inkscape:connector-curvature="0"
     id="path1393-5"
     style="fill:none;stroke:#ffffff;stroke-width:0.0784882;stroke-linecap:butt;stroke-linejoin:miter;stroke-miterlimit:8.98305;stroke-dasharray:none;stroke-opacity:1"
     d="m 443.19424,198.21996 0.19135,-4.94957 4.39325,-2.30613 4.1778,2.64347 -0.16938,4.95311 -4.39609,2.30542 z" /><path
     inkscape:connector-curvature="0"
     id="path1397-9"
     style="fill:none;stroke:#ffffff;stroke-width:0.0784882;stroke-linecap:butt;stroke-linejoin:miter;stroke-miterlimit:8.98305;stroke-dasharray:none;stroke-opacity:1"
     d="m 429.21152,219.79643 0.16868,-4.97439 4.39608,-2.30611 4.19694,2.64629 -0.19065,4.95029 -4.36915,2.33092 z" /><path
     inkscape:connector-curvature="0"
     id="path1401-6"
     style="fill:none;stroke:#ffffff;stroke-width:0.0784882;stroke-linecap:butt;stroke-linejoin:miter;stroke-miterlimit:8.98305;stroke-dasharray:none;stroke-opacity:1"
     d="m 434.5268,197.83231 4.2019,2.647 -0.19631,4.94958 -4.39325,2.30612 -4.19977,-2.6463 0.1963,-4.95029 z" /><path
     inkscape:connector-curvature="0"
     id="path1405-2"
     style="fill:none;stroke:#ffffff;stroke-width:0.0784882;stroke-linecap:butt;stroke-linejoin:miter;stroke-miterlimit:8.98305;stroke-dasharray:none;stroke-opacity:1"
     d="m 439.23826,190.57377 4.19693,2.64629 -0.19064,4.9751 -4.39396,2.30611 -4.19906,-2.64417 0.19064,-4.95241 z" /><path
     inkscape:connector-curvature="0"
     id="path1409-1"
     style="fill:none;stroke:#ffffff;stroke-width:0.0784882;stroke-linecap:butt;stroke-linejoin:miter;stroke-miterlimit:8.98305;stroke-dasharray:none;stroke-opacity:1"
     d="m 430.47373,190.28319 4.1778,2.6463 -0.16938,4.9503 -4.39609,2.33092 -4.19694,-2.647 0.19135,-4.97439 z" /><path
     inkscape:connector-curvature="0"
     id="path1413-7"
     style="fill:none;stroke:#ffffff;stroke-width:0.0784882;stroke-linecap:butt;stroke-linejoin:miter;stroke-miterlimit:8.98305;stroke-dasharray:none;stroke-opacity:1"
     d="m 416.39676,211.90927 4.2019,2.64701 -0.19915,4.94958 -4.36844,2.30611 -4.19694,-2.64346 0.19702,-4.95312 z" /><path
     inkscape:connector-curvature="0"
     id="path1417-8"
     style="fill:none;stroke:#ffffff;stroke-width:0.0784882;stroke-linecap:butt;stroke-linejoin:miter;stroke-miterlimit:8.98305;stroke-dasharray:none;stroke-opacity:1"
     d="m 421.13018,204.65357 4.19978,2.64417 -0.19631,4.95242 -4.39042,2.32808 -4.20261,-2.64345 0.19631,-4.97793 z" /><path
     inkscape:connector-curvature="0"
     id="path1421-5"
     style="fill:none;stroke:#ffffff;stroke-width:0.0784882;stroke-linecap:butt;stroke-linejoin:miter;stroke-miterlimit:8.98305;stroke-dasharray:none;stroke-opacity:1"
     d="m 412.34368,204.36016 4.19694,2.64701 -0.19135,4.95242 -4.39608,2.30328 -4.1941,-2.64417 0.19135,-4.95242 z" /><path
     inkscape:connector-curvature="0"
     id="path1425-7"
     style="fill:none;stroke:#ffffff;stroke-width:0.0784882;stroke-linecap:butt;stroke-linejoin:miter;stroke-miterlimit:8.98305;stroke-dasharray:none;stroke-opacity:1"
     d="m 416.95309,197.29794 4.20261,2.647 -0.19702,4.94959 -4.39325,2.33093 -4.19978,-2.6463 0.19915,-4.9751 z" /><path
     inkscape:connector-curvature="0"
     id="path1429-4"
     style="fill:none;stroke:#ffffff;stroke-width:0.0784882;stroke-linecap:butt;stroke-linejoin:miter;stroke-miterlimit:8.98305;stroke-dasharray:none;stroke-opacity:1"
     d="m 421.68935,190.06421 4.19977,2.64701 -0.1963,4.94958 -4.39042,2.30612 -4.20261,-2.64417 0.19631,-4.95242 z" /><path
     inkscape:connector-curvature="0"
     id="path1433-1"
     style="fill:none;stroke:#ffffff;stroke-width:0.0784882;stroke-linecap:butt;stroke-linejoin:miter;stroke-miterlimit:8.98305;stroke-dasharray:none;stroke-opacity:1"
     d="m 412.90002,189.74884 4.19977,2.64629 -0.19135,4.9751 -4.39325,2.30611 -4.19977,-2.64416 0.19135,-4.95243 z" /><path
     inkscape:connector-curvature="0"
     id="path1437-8"
     style="fill:none;stroke:#ffffff;stroke-width:0.0784882;stroke-linecap:butt;stroke-linejoin:miter;stroke-miterlimit:8.98305;stroke-dasharray:none;stroke-opacity:1"
     d="m 403.46009,204.16669 4.20261,2.6463 -0.19702,4.97509 -4.39608,2.30613 -4.19694,-2.64702 0.19631,-4.94958 z" /><path
     inkscape:connector-curvature="0"
     id="path1441-5"
     style="fill:none;stroke:#ffffff;stroke-width:0.0784882;stroke-linecap:butt;stroke-linejoin:miter;stroke-miterlimit:8.98305;stroke-dasharray:none;stroke-opacity:1"
     d="m 408.17155,196.93296 4.1941,2.64629 -0.19347,4.95242 -4.36845,2.30612 -4.19977,-2.64629 0.19631,-4.95242 z" /><path
     inkscape:connector-curvature="0"
     id="path1445-9"
     style="fill:none;stroke:#ffffff;stroke-width:0.0784882;stroke-linecap:butt;stroke-linejoin:miter;stroke-miterlimit:8.98305;stroke-dasharray:none;stroke-opacity:1"
     d="m 399.40702,196.61688 4.19694,2.647 -0.19135,4.97438 -4.39325,2.30613 -4.19977,-2.64346 0.19418,-4.95312 z" /><path
     inkscape:connector-curvature="0"
     id="path1449-7"
     style="fill:none;stroke:#ffffff;stroke-width:0.0784882;stroke-linecap:butt;stroke-linejoin:miter;stroke-miterlimit:8.98305;stroke-dasharray:none;stroke-opacity:1"
     d="m 420.59866,219.50586 0.19135,-4.97439 4.39325,-2.30612 4.19694,2.6463 -0.19135,4.9751 -4.39325,2.30611 z" /><path
     inkscape:connector-curvature="0"
     id="path1453-5"
     style="fill:none;stroke:#ffffff;stroke-width:0.0784882;stroke-linecap:butt;stroke-linejoin:miter;stroke-miterlimit:8.98305;stroke-dasharray:none;stroke-opacity:1"
     d="m 399.52608,196.692 0.19915,-4.95241 4.39112,-2.30613 4.19907,2.64629 -0.19631,4.95243 -4.39325,2.30328 z" /><path
     inkscape:connector-curvature="0"
     id="path1457-3"
     style="fill:none;stroke:#ffffff;stroke-width:0.0784882;stroke-linecap:butt;stroke-linejoin:miter;stroke-miterlimit:8.98305;stroke-dasharray:none;stroke-opacity:1"
     d="m 430.47373,190.23571 0.19631,-4.97722 4.39396,-2.30612 4.19906,2.64701 -0.19631,4.95241 -4.39325,2.3281 z" /><path
     inkscape:connector-curvature="0"
     id="path1461-8"
     style="fill:none;stroke:#ffffff;stroke-width:0.0784882;stroke-linecap:butt;stroke-linejoin:miter;stroke-miterlimit:8.98305;stroke-dasharray:none;stroke-opacity:1"
     d="m 447.70938,190.98623 0.19135,-4.94959 4.39326,-2.30611 4.19976,2.6463 -0.19135,4.95029 -4.39608,2.3054 z" /><path
     inkscape:connector-curvature="0"
     id="path1465-8"
     style="fill:none;stroke:#ffffff;stroke-width:0.0784882;stroke-linecap:butt;stroke-linejoin:miter;stroke-miterlimit:8.98305;stroke-dasharray:none;stroke-opacity:1"
     d="m 460.54895,198.65723 0.19135,-4.95241 4.39608,-2.30612 4.19695,2.64629 -0.19064,4.95313 -4.39396,2.30612 z" /><path
     inkscape:connector-curvature="0"
     id="path1469-3"
     style="fill:none;stroke:#ffffff;stroke-width:0.0784882;stroke-linecap:butt;stroke-linejoin:miter;stroke-miterlimit:8.98305;stroke-dasharray:none;stroke-opacity:1"
     d="m 469.33333,198.94781 0.19631,-4.94959 4.39112,-2.33092 4.2019,2.64629 -0.19914,4.9751 -4.39041,2.30611 z" /><path
     inkscape:connector-curvature="0"
     id="path1473-1"
     style="fill:none;stroke:#ffffff;stroke-width:0.0784882;stroke-linecap:butt;stroke-linejoin:miter;stroke-miterlimit:8.98305;stroke-dasharray:none;stroke-opacity:1"
     d="m 468.5084,213.92482 0.19631,-4.95242 4.39395,-2.30612 4.19907,2.6463 -0.19914,4.95029 -4.39326,2.30612 z" /><path
     inkscape:connector-curvature="0"
     id="path1477-8"
     style="fill:none;stroke:#ffffff;stroke-width:0.0784882;stroke-linecap:butt;stroke-linejoin:miter;stroke-miterlimit:8.98305;stroke-dasharray:none;stroke-opacity:1"
     d="m 478.12266,199.23908 0.19135,-4.97509 4.36845,-2.30613 4.19977,2.64701 -0.19134,4.94959 -4.37128,2.33092 z" /><path
     inkscape:connector-curvature="0"
     id="path1481-9"
     style="fill:none;stroke:#ffffff;stroke-width:0.0784882;stroke-linecap:butt;stroke-linejoin:miter;stroke-miterlimit:8.98305;stroke-dasharray:none;stroke-opacity:1"
     d="m 482.10416,206.98166 0.19064,-4.97439 4.39609,-2.30612 4.19409,2.6463 -0.19347,4.95029 -4.39112,2.33092 z" /><path
     d="m 408.58402,192.56451 c 2.83764,-2.5003 7.27837,-3.44713 15.94581,0.0964 8.66248,3.54351 14.53692,9.10258 13.10533,12.45262 -1.43369,3.34933 -19.90179,1.33378 -28.56923,-2.20974 -8.66247,-3.54351 -3.17782,-7.62068 -0.48191,-10.33927 z"
     style="fill:#ffffff;fill-opacity:1;fill-rule:nonzero;stroke:none;stroke-width:0.0784882;stroke-miterlimit:8.98305;stroke-dasharray:none"
     id="path1483-6"
     inkscape:connector-curvature="0" /><path
     d="m 418.24293,197.03218 c 1.91846,-1.67467 4.90281,-2.30613 10.74961,0.0723 5.84963,2.37771 9.78081,6.14021 8.81201,8.37404 -0.9688,2.25651 -13.39661,0.89722 -19.24625,-1.48119 -5.84893,-2.37769 -2.13674,-5.12109 -0.31537,-6.96513 z"
     style="fill:#ffffff;fill-opacity:1;fill-rule:nonzero;stroke:none;stroke-width:0.0784882;stroke-miterlimit:8.98305;stroke-dasharray:none"
     id="path1485-4"
     inkscape:connector-curvature="0" /><path
     d="m 475.32683,192.20165 c -2.91206,-2.40321 -7.3776,-3.22814 -15.94582,0.55634 -8.56821,3.7873 -14.26832,9.51505 -12.73965,12.8176 1.52797,3.29972 19.92377,0.75052 28.49482,-3.00916 8.56752,-3.76249 2.98648,-7.69579 0.19065,-10.36478 z"
     style="fill:#ffffff;fill-opacity:1;fill-rule:nonzero;stroke:none;stroke-width:0.0784882;stroke-miterlimit:8.98305;stroke-dasharray:none"
     id="path1487-3"
     inkscape:connector-curvature="0" /><path
     d="m 465.81461,196.95776 c -1.96806,-1.62506 -4.97722,-2.18422 -10.72763,0.36499 -5.77735,2.54708 -9.61426,6.40666 -8.57034,8.6405 1.04604,2.23384 13.42354,0.50956 19.20088,-2.03752 5.75042,-2.54991 1.96594,-5.19621 0.0971,-6.96797 z"
     style="fill:#ffffff;fill-opacity:1;fill-rule:nonzero;stroke:none;stroke-width:0.0784882;stroke-miterlimit:8.98305;stroke-dasharray:none"
     id="path1489-3"
     inkscape:connector-curvature="0" /><path
     inkscape:connector-curvature="0"
     id="path1493-3"
     style="fill:#ffffff;fill-opacity:1;fill-rule:nonzero;stroke:#0000ff;stroke-width:0.0784882;stroke-linecap:butt;stroke-linejoin:miter;stroke-miterlimit:8.98305;stroke-dasharray:none;stroke-opacity:1"
     d="m 430.20796,199.26388 c -0.0971,-7.03742 5.65545,-17.59568 10.85166,-17.6708 5.19126,-0.0716 10.11887,10.33998 10.21808,17.38023 0.0971,7.03954 -4.66185,8.03386 -9.85522,8.10544 -5.19622,0.0751 -11.11743,-0.77532 -11.21452,-7.81487 z" /><path
     d="m 454.79642,198.17319 c -2.50243,1.57474 -4.2742,3.15302 -3.95599,3.49319 0.31325,0.3657 2.57188,-0.63074 5.07219,-2.20902 2.49676,-1.57757 4.26851,-3.15303 3.95598,-3.49391 -0.29128,-0.36498 -2.57472,0.63146 -5.07218,2.20974 z"
     style="fill:#000000;fill-opacity:1;fill-rule:nonzero;stroke:none;stroke-width:0.0784882;stroke-miterlimit:8.98305;stroke-dasharray:none"
     id="path1495-8"
     inkscape:connector-curvature="0" /><path
     d="m 453.77517,194.31359 c 3.10625,0.65342 5.63064,1.43158 5.63064,1.72215 0,0.29057 -2.54708,-0.0249 -5.65545,-0.67823 -3.10624,-0.65625 -5.62851,-1.43371 -5.62851,-1.72499 0,-0.29056 2.52227,0.0255 5.65332,0.68107 z"
     style="fill:#000000;fill-opacity:1;fill-rule:nonzero;stroke:none;stroke-width:0.0784882;stroke-miterlimit:8.98305;stroke-dasharray:none"
     id="path1497-6"
     inkscape:connector-curvature="0" /><path
     d="m 458.70278,196.5701 c -0.41246,-0.48475 -0.43727,-1.06872 -0.0248,-1.31252 0.38765,-0.24025 1.04604,-0.0468 1.4585,0.41531 0.41247,0.48475 0.43515,1.06589 0.0227,1.30967 -0.3905,0.26577 -1.04392,0.0723 -1.45639,-0.41246 z"
     style="fill:#000000;fill-opacity:1;fill-rule:nonzero;stroke:none;stroke-width:0.0784882;stroke-miterlimit:8.98305;stroke-dasharray:none"
     id="path1499-0"
     inkscape:connector-curvature="0" /><path
     d="m 448.94678,201.5452 c 0.55916,-0.96951 1.72215,-1.48119 2.59669,-1.11621 0.87242,0.36286 1.09352,1.45639 0.53436,2.42802 -0.55917,0.9688 -1.72428,1.48119 -2.5967,1.1155 -0.87736,-0.36215 -1.09352,-1.45568 -0.53435,-2.42731 z"
     style="fill:#000000;fill-opacity:1;fill-rule:nonzero;stroke:none;stroke-width:0.0784882;stroke-miterlimit:8.98305;stroke-dasharray:none"
     id="path1501-4"
     inkscape:connector-curvature="0" /><path
     d="m 455.37542,193.34196 c -2.49747,1.57828 -4.26923,3.15585 -3.95597,3.49391 0.31537,0.36569 2.57683,-0.63146 5.0743,-2.2062 2.49961,-1.57828 4.27136,-3.15585 3.95599,-3.49673 -0.29057,-0.34019 -2.57189,0.63145 -5.07432,2.20902 z"
     style="fill:#000000;fill-opacity:1;fill-rule:nonzero;stroke:none;stroke-width:0.0784882;stroke-miterlimit:8.98305;stroke-dasharray:none"
     id="path1503-8"
     inkscape:connector-curvature="0" /><path
     d="m 454.35631,189.50788 c 3.10624,0.65342 5.63347,1.43158 5.63347,1.72215 0,0.29056 -2.54919,-0.0249 -5.65828,-0.67824 -3.10341,-0.65625 -5.63064,-1.43441 -5.63064,-1.72498 0,-0.29056 2.52723,0 5.65545,0.68107 z"
     style="fill:#000000;fill-opacity:1;fill-rule:nonzero;stroke:none;stroke-width:0.0784882;stroke-miterlimit:8.98305;stroke-dasharray:none"
     id="path1505-8"
     inkscape:connector-curvature="0" /><path
     d="m 459.28675,191.76439 c -0.41247,-0.48476 -0.4401,-1.06873 -0.0276,-1.30969 0.3905,-0.24379 1.04392,-0.0496 1.45638,0.41247 0.41247,0.48476 0.43727,1.06589 0.0249,1.30969 -0.41247,0.24308 -1.04109,0.0717 -1.45356,-0.41247 z"
     style="fill:#000000;fill-opacity:1;fill-rule:nonzero;stroke:none;stroke-width:0.0784882;stroke-miterlimit:8.98305;stroke-dasharray:none"
     id="path1507-8"
     inkscape:connector-curvature="0" /><path
     d="m 449.52579,196.73878 c 0.55916,-0.9688 1.72711,-1.4812 2.59952,-1.1155 0.87454,0.36568 1.09069,1.45638 0.53153,2.42801 -0.5535,0.9688 -1.72215,1.4812 -2.59669,1.1155 -0.86958,-0.36285 -1.08786,-1.45638 -0.53436,-2.42801 z"
     style="fill:#000000;fill-opacity:1;fill-rule:nonzero;stroke:none;stroke-width:0.0784882;stroke-miterlimit:8.98305;stroke-dasharray:none"
     id="path1509-9"
     inkscape:connector-curvature="0" /><path
     d="m 454.82122,189.43346 c -2.50244,1.57758 -4.27419,3.15586 -3.95599,3.49603 0.31326,0.36286 2.57189,-0.63075 5.06936,-2.20902 2.49959,-1.57757 4.27136,-3.15586 3.95598,-3.49674 -0.31325,-0.33734 -2.57188,0.63145 -5.06935,2.20973 z"
     style="fill:#000000;fill-opacity:1;fill-rule:nonzero;stroke:none;stroke-width:0.0784882;stroke-miterlimit:8.98305;stroke-dasharray:none"
     id="path1511-7"
     inkscape:connector-curvature="0" /><path
     d="m 453.77517,185.57386 c 3.10625,0.65627 5.63064,1.43442 5.63064,1.72499 0,0.29057 -2.54708,-0.0248 -5.65545,-0.68106 -3.10624,-0.65342 -5.62851,-1.43158 -5.62851,-1.72216 0.0247,-0.29056 2.54708,0.0249 5.65332,0.67823 z"
     style="fill:#000000;fill-opacity:1;fill-rule:nonzero;stroke:none;stroke-width:0.0784882;stroke-miterlimit:8.98305;stroke-dasharray:none"
     id="path1513-7"
     inkscape:connector-curvature="0" /><path
     d="m 458.70278,187.83321 c -0.41246,-0.48758 -0.43727,-1.06872 -0.0248,-1.31251 0.38765,-0.24096 1.04604,-0.0468 1.4585,0.41246 0.41247,0.48758 0.43515,1.06873 0.0227,1.31252 -0.41247,0.24096 -1.04392,0.0717 -1.45639,-0.41247 z"
     style="fill:#000000;fill-opacity:1;fill-rule:nonzero;stroke:none;stroke-width:0.0784882;stroke-miterlimit:8.98305;stroke-dasharray:none"
     id="path1515-6"
     inkscape:connector-curvature="0" /><path
     d="m 448.94678,192.8076 c 0.55916,-0.97164 1.72215,-1.48048 2.59669,-1.1155 0.87242,0.36286 1.09352,1.45639 0.53436,2.42518 -0.55917,0.97163 -1.72428,1.48119 -2.5967,1.11833 -0.85257,-0.34017 -1.09352,-1.4337 -0.53435,-2.42801 z"
     style="fill:#000000;fill-opacity:1;fill-rule:nonzero;stroke:none;stroke-width:0.0784882;stroke-miterlimit:8.98305;stroke-dasharray:none"
     id="path1517-4"
     inkscape:connector-curvature="0" /><path
     d="m 426.90541,198.48856 c 2.55203,1.50315 4.36844,3.03396 4.07787,3.39682 -0.28773,0.36569 -2.59385,-0.55917 -5.1466,-2.06233 -2.54424,-1.50599 -4.36844,-3.03396 -4.07788,-3.39964 0.31821,-0.36286 2.62433,0.55915 5.14661,2.06515 z"
     style="fill:#000000;fill-opacity:1;fill-rule:nonzero;stroke:none;stroke-width:0.0784882;stroke-miterlimit:8.98305;stroke-dasharray:none"
     id="path1519-3"
     inkscape:connector-curvature="0" /><path
     d="m 427.83027,194.60487 c -3.10909,0.75264 -5.60656,1.59954 -5.58104,1.86814 0.0191,0.29056 2.52156,-0.0964 5.62781,-0.84973 3.10624,-0.75264 5.60584,-1.60309 5.58103,-1.86886 0,-0.26859 -2.51944,0.0971 -5.6278,0.85045 z"
     style="fill:#000000;fill-opacity:1;fill-rule:nonzero;stroke:none;stroke-width:0.0784882;stroke-miterlimit:8.98305;stroke-dasharray:none"
     id="path1521-0"
     inkscape:connector-curvature="0" /><path
     d="m 422.97423,197.00737 c 0.38766,-0.48687 0.38766,-1.09352 0,-1.31181 -0.38766,-0.24096 -1.04108,-0.0227 -1.45355,0.46208 -0.41247,0.48476 -0.3905,1.09069 0,1.30968 0.41247,0.24309 1.06589,0.0496 1.45355,-0.45995 z"
     style="fill:#000000;fill-opacity:1;fill-rule:nonzero;stroke:none;stroke-width:0.0784882;stroke-miterlimit:8.98305;stroke-dasharray:none"
     id="path1523-3"
     inkscape:connector-curvature="0" /><path
     d="m 432.87977,201.69189 c -0.58184,-0.97233 -1.77176,-1.43157 -2.6222,-1.04391 -0.85257,0.38766 -1.06872,1.48119 -0.46491,2.44999 0.61161,0.97163 1.77459,1.4337 2.62433,1.04392 0.84973,-0.38767 1.04108,-1.47835 0.46278,-2.45 z"
     style="fill:#000000;fill-opacity:1;fill-rule:nonzero;stroke:none;stroke-width:0.0784882;stroke-miterlimit:8.98305;stroke-dasharray:none"
     id="path1525-0"
     inkscape:connector-curvature="0" /><path
     d="m 426.20521,193.68284 c 2.54637,1.50317 4.36561,3.03396 4.07716,3.39682 -0.29056,0.36498 -2.59669,-0.55916 -5.14872,-2.06233 -2.54708,-1.50599 -4.36845,-3.03467 -4.07788,-3.39964 0.29057,-0.33806 2.59669,0.55917 5.14944,2.06515 z"
     style="fill:#000000;fill-opacity:1;fill-rule:nonzero;stroke:none;stroke-width:0.0784882;stroke-miterlimit:8.98305;stroke-dasharray:none"
     id="path1527-9"
     inkscape:connector-curvature="0" /><path
     d="m 427.12652,189.82325 c -3.10554,0.75052 -5.60584,1.60025 -5.58104,1.86885 0.0227,0.29056 2.51944,-0.0971 5.62852,-0.84973 3.10837,-0.75336 5.60584,-1.60309 5.58104,-1.86886 -0.0226,-0.29339 -2.54708,0.0971 -5.62852,0.84974 z"
     style="fill:#000000;fill-opacity:1;fill-rule:nonzero;stroke:none;stroke-width:0.0784882;stroke-miterlimit:8.98305;stroke-dasharray:none"
     id="path1529-2"
     inkscape:connector-curvature="0" /><path
     d="m 422.24923,192.20165 c 0.38695,-0.48759 0.38695,-1.09352 0,-1.31251 -0.3905,-0.21828 -1.04676,-0.022 -1.45922,0.46279 -0.41247,0.48403 -0.3905,1.09068 0,1.30897 0.38766,0.21899 1.06872,0.0503 1.45922,-0.45925 z"
     style="fill:#000000;fill-opacity:1;fill-rule:nonzero;stroke:none;stroke-width:0.0784882;stroke-miterlimit:8.98305;stroke-dasharray:none"
     id="path1531-5"
     inkscape:connector-curvature="0" /><path
     d="m 432.15122,196.91028 c -0.58397,-0.97163 -1.77176,-1.43371 -2.62432,-1.04321 -0.84974,0.38766 -1.06589,1.48119 -0.46207,2.44999 0.60877,0.97163 1.77175,1.43087 2.62148,1.04321 0.84974,-0.38696 1.04605,-1.50317 0.46491,-2.44999 z"
     style="fill:#000000;fill-opacity:1;fill-rule:nonzero;stroke:none;stroke-width:0.0784882;stroke-miterlimit:8.98305;stroke-dasharray:none"
     id="path1533-4"
     inkscape:connector-curvature="0" /><path
     d="m 426.66161,189.77364 c 2.54991,1.50599 4.37128,3.03396 4.07788,3.39682 -0.29057,0.36568 -2.59669,-0.55634 -5.14377,-2.06233 -2.54708,-1.50316 -4.36844,-3.03396 -4.07504,-3.39681 0.29057,-0.36569 2.59669,0.55632 5.14093,2.06232 z"
     style="fill:#000000;fill-opacity:1;fill-rule:nonzero;stroke:none;stroke-width:0.0784882;stroke-miterlimit:8.98305;stroke-dasharray:none"
     id="path1535-0"
     inkscape:connector-curvature="0" /><path
     d="m 427.5645,185.88995 c -3.10908,0.75264 -5.60655,1.60238 -5.58671,1.86814 0.0248,0.2934 2.5244,-0.0964 5.63065,-0.84973 3.10908,-0.74982 5.60867,-1.60025 5.58387,-1.86886 0,-0.29056 -2.52227,0.0971 -5.62781,0.85045 z"
     style="fill:#000000;fill-opacity:1;fill-rule:nonzero;stroke:none;stroke-width:0.0784882;stroke-miterlimit:8.98305;stroke-dasharray:none"
     id="path1537-5"
     inkscape:connector-curvature="0" /><path
     d="m 422.70563,188.29245 c 0.3905,-0.48404 0.3905,-1.09069 0,-1.30897 -0.38766,-0.2438 -1.04108,-0.0255 -1.45355,0.45924 -0.41246,0.48759 -0.38766,1.09353 0,1.31251 0.41247,0.24025 1.06589,0.0249 1.45355,-0.46278 z"
     style="fill:#000000;fill-opacity:1;fill-rule:nonzero;stroke:none;stroke-width:0.0784882;stroke-miterlimit:8.98305;stroke-dasharray:none"
     id="path1539-9"
     inkscape:connector-curvature="0" /><path
     d="m 432.61401,192.97698 c -0.58468,-0.96951 -1.77743,-1.43158 -2.6222,-1.04392 -0.85257,0.39049 -1.06802,1.48118 -0.46491,2.45283 0.58397,0.97162 1.77175,1.43087 2.62432,1.0439 0.84974,-0.38765 1.04109,-1.48118 0.46279,-2.45281 z"
     style="fill:#000000;fill-opacity:1;fill-rule:nonzero;stroke:none;stroke-width:0.0784882;stroke-miterlimit:8.98305;stroke-dasharray:none"
     id="path1541-4"
     inkscape:connector-curvature="0" /><path
     inkscape:connector-curvature="0"
     id="path1545-6"
     style="fill:#ffffff;fill-opacity:1;fill-rule:nonzero;stroke:#010202;stroke-width:0.0784882;stroke-linecap:butt;stroke-linejoin:miter;stroke-miterlimit:8.98305;stroke-dasharray:none;stroke-opacity:1"
     d="m 445.08505,219.04661 h 0.75335 l 0.0992,8.29963 z" /><path
     inkscape:connector-curvature="0"
     id="path1549-9"
     style="fill:#ffffff;fill-opacity:1;fill-rule:nonzero;stroke:#010202;stroke-width:0.0784882;stroke-linecap:butt;stroke-linejoin:miter;stroke-miterlimit:8.98305;stroke-dasharray:none;stroke-opacity:1"
     d="M 439.33251,219.2649 H 438.582 l 0.12189,8.32513 z" /><path
     inkscape:connector-curvature="0"
     id="path1553-2"
     style="fill:#000000;fill-opacity:1;fill-rule:nonzero;stroke:#0000ff;stroke-width:0.0784882;stroke-linecap:butt;stroke-linejoin:miter;stroke-miterlimit:8.98305;stroke-dasharray:none;stroke-opacity:1"
     d="m 432.22067,215.33159 c -0.0694,-4.39396 5.5619,-11.64965 9.29607,-11.69927 3.73982,-0.0475 9.27125,7.03956 9.34849,11.43352 0.0695,4.39324 -5.39251,4.44002 -9.12667,4.49034 -3.71289,0.0715 -9.44063,0.16867 -9.51789,-4.22459 z" /><path
     inkscape:connector-curvature="0"
     id="path1557-2"
     style="fill:#ffffff;fill-opacity:1;fill-rule:nonzero;stroke:#ffffff;stroke-width:0.0784882;stroke-linecap:butt;stroke-linejoin:miter;stroke-miterlimit:8.98305;stroke-dasharray:none;stroke-opacity:1"
     d="m 443.69266,213.34069 c -0.63514,-2.31625 0.3601,-4.60105 2.2091,-5.10199 1.85205,-0.50101 3.85925,0.96884 4.4878,3.28611 0.62854,2.31725 -0.36548,4.59793 -2.21215,5.10204 -1.85205,0.501 -3.8623,-0.9718 -4.48475,-3.28616" /><path
     inkscape:connector-curvature="0"
     id="path1561-4"
     style="fill:#ffffff;fill-opacity:1;fill-rule:nonzero;stroke:#ffffff;stroke-width:0.0784882;stroke-linecap:butt;stroke-linejoin:miter;stroke-miterlimit:8.98305;stroke-dasharray:none;stroke-opacity:1"
     d="m 439.09468,213.4048 c -0.56123,2.33376 -2.52469,3.86177 -4.38844,3.41287 -1.86318,-0.44804 -2.92333,-2.70462 -2.36147,-5.0352 0.56207,-2.3343 2.52773,-3.86179 4.39092,-3.41377 1.86296,0.44873 2.92319,2.70232 2.35899,5.0361" /><path
     inkscape:connector-curvature="0"
     id="path1565-7"
     style="fill:#000000;fill-opacity:1;fill-rule:nonzero;stroke:#0000ff;stroke-width:0.0784882;stroke-linecap:butt;stroke-linejoin:miter;stroke-miterlimit:8.98305;stroke-dasharray:none;stroke-opacity:1"
     d="m 432.65794,188.97351 h 16.3831 l 0.92202,2.10981 -18.15485,-0.0475 z" /><path
     inkscape:connector-curvature="0"
     id="path1569-7"
     style="fill:#000000;fill-opacity:1;fill-rule:nonzero;stroke:#0000ff;stroke-width:0.0784882;stroke-linecap:butt;stroke-linejoin:miter;stroke-miterlimit:8.98305;stroke-dasharray:none;stroke-opacity:1"
     d="m 450.78799,193.24558 0.5868,1.48047 -0.12189,0.41247 -21.04494,-0.31537 0.92202,-1.94326 z" /><path
     inkscape:connector-curvature="0"
     id="path1573-5"
     style="fill:#000000;fill-opacity:1;fill-rule:nonzero;stroke:#0000ff;stroke-width:0.0784882;stroke-linecap:butt;stroke-linejoin:miter;stroke-miterlimit:8.98305;stroke-dasharray:none;stroke-opacity:1"
     d="m 430.25757,197.07966 21.23629,0.43728 -0.24096,2.44998 -21.04494,-0.70304 z" /><path
     d="m 446.15379,209.02201 c 0.41245,-0.50884 1.38409,-0.41246 2.1594,0.219 0.78029,0.63144 1.19275,2.44998 0.6591,2.06232 -1.33732,-0.99644 -3.23097,-1.77176 -2.8185,-2.28132 z"
     style="fill:#010202;fill-opacity:1;fill-rule:nonzero;stroke:none;stroke-width:0.0784882;stroke-miterlimit:8.98305;stroke-dasharray:none"
     id="path1575-4"
     inkscape:connector-curvature="0" /><path
     d="m 435.54804,209.31258 c 0.41247,-0.50884 1.3841,-0.41246 2.15942,0.21899 0.77531,0.63146 1.18779,2.44999 0.65342,2.06233 -1.35929,-1.01841 -3.22814,-1.77176 -2.81284,-2.28132 z"
     style="fill:#010202;fill-opacity:1;fill-rule:nonzero;stroke:none;stroke-width:0.0784882;stroke-miterlimit:8.98305;stroke-dasharray:none"
     id="path1577-8"
     inkscape:connector-curvature="0" /><path
     d="m 408.72788,221.15572 c -0.0744,0.0999 -0.14386,0.14671 -0.22111,0.21899 -0.0695,0.0496 -0.16584,0.0971 -0.26577,0.0971 -0.0971,0.0248 -0.19135,0.0248 -0.29056,0 -0.0971,-0.0227 -0.19135,-0.0475 -0.2686,-0.11906 -0.0695,-0.0752 -0.14387,-0.1219 -0.19135,-0.21899 -0.0496,-0.0744 -0.0964,-0.17151 -0.0964,-0.2686 -0.0255,-0.0971 -0.0255,-0.19347 0,-0.29057 0.022,-0.0971 0.0468,-0.19348 0.12119,-0.26576 l 1.42875,-2.06516 0.38766,0.2686 -1.40394,2.01271 c -0.0744,0.0992 -0.0992,0.1715 -0.0744,0.2686 0.0248,0.0964 0.0496,0.1467 0.11906,0.19348 0.0772,0.0496 0.1467,0.0724 0.22183,0.0496 0.0716,-0.0248 0.1467,-0.0744 0.21544,-0.17151 l 1.41174,-2.01272 0.38766,0.26577 z"
     style="fill:#010202;fill-opacity:1;fill-rule:nonzero;stroke:none;stroke-width:0.0784882;stroke-miterlimit:8.98305;stroke-dasharray:none"
     id="path1579-1"
     inkscape:connector-curvature="0" /><path
     d="m 411.85893,220.21172 0.3905,0.24096 -0.44011,2.04036 1.02124,-1.6527 0.38766,0.2438 -1.69947,2.76819 -0.36285,-0.21899 0.41246,-2.03964 -1.02124,1.64986 -0.38766,-0.24096 z"
     style="fill:#010202;fill-opacity:1;fill-rule:nonzero;stroke:none;stroke-width:0.0784882;stroke-miterlimit:8.98305;stroke-dasharray:none"
     id="path1581-2"
     inkscape:connector-curvature="0" /><path
     d="m 415.86239,223.58373 -0.41246,-0.21827 0.0496,-0.0971 c 0.0496,-0.0971 0.0751,-0.19418 0.0751,-0.26576 0,-0.0971 -0.0751,-0.17151 -0.17221,-0.21899 -0.0496,-0.0247 -0.0992,-0.0496 -0.14387,-0.0496 -0.0524,0 -0.0964,0.0248 -0.12189,0.0496 -0.0525,0.0249 -0.0744,0.0475 -0.0992,0.0971 -0.0227,0.0468 -0.0446,0.0723 -0.0971,0.12189 -0.0248,0.0468 -0.0496,0.0971 -0.0695,0.14386 -0.0248,0.0496 -0.0248,0.0745 -0.0248,0.1219 0,0.0496 0,0.0744 0.0248,0.1219 0.0198,0.0496 0.0447,0.0715 0.0943,0.12189 l 0.24096,0.29058 c 0.0773,0.0715 0.1219,0.16866 0.1467,0.24378 0.0248,0.0717 0.0496,0.14387 0.0496,0.24026 0,0.0751 -0.0248,0.17221 -0.0496,0.2438 -0.0248,0.0971 -0.0694,0.19418 -0.1467,0.29056 -0.0695,0.12189 -0.14387,0.219 -0.21616,0.31609 -0.0744,0.0964 -0.1715,0.14669 -0.26576,0.19347 -0.0992,0.0496 -0.19631,0.0744 -0.31821,0.0496 -0.11906,0 -0.24096,-0.0496 -0.36285,-0.1219 -0.0992,-0.0468 -0.17151,-0.12118 -0.24025,-0.19347 -0.0751,-0.0722 -0.12474,-0.16866 -0.1467,-0.26577 -0.0227,-0.0971 -0.0503,-0.1963 -0.0227,-0.29339 0,-0.0971 0.0446,-0.19418 0.0943,-0.29057 l 0.0751,-0.14387 0.41246,0.21545 -0.0751,0.1219 c -0.0496,0.0751 -0.0496,0.1467 -0.0496,0.24379 0,0.0971 0.0772,0.14669 0.1715,0.21899 0.0744,0.0468 0.11907,0.0468 0.17151,0.0468 0.0496,0 0.0943,0 0.11906,-0.0468 0.0276,-0.0503 0.0723,-0.0724 0.1219,-0.1219 0.0248,-0.0475 0.0751,-0.0971 0.0971,-0.16938 0.0468,-0.0745 0.0744,-0.1467 0.0992,-0.19348 0.0255,-0.0496 0.0255,-0.0999 0.0255,-0.14669 0,-0.0496 -0.0255,-0.0723 -0.0255,-0.1219 -0.0248,-0.0249 -0.0525,-0.0717 -0.0992,-0.1219 l -0.21899,-0.26577 c -0.1467,-0.1715 -0.19347,-0.31537 -0.19347,-0.48687 0,-0.16938 0.0468,-0.31609 0.14386,-0.48475 0.0496,-0.0971 0.1219,-0.19348 0.22112,-0.29058 0.0695,-0.0724 0.17221,-0.1467 0.2686,-0.16867 0.0942,-0.0503 0.19135,-0.0503 0.31608,-0.0503 0.11906,0 0.21828,0.0503 0.33451,0.0971 0.0971,0.0496 0.19914,0.1219 0.24379,0.19349 0.0744,0.0722 0.1219,0.1722 0.1467,0.26859 0.0248,0.0971 0.0248,0.19419 0.0248,0.29128 0,0.0964 -0.0248,0.16867 -0.0716,0.26576 z"
     style="fill:#010202;fill-opacity:1;fill-rule:nonzero;stroke:none;stroke-width:0.0784882;stroke-miterlimit:8.98305;stroke-dasharray:none"
     id="path1583-8"
     inkscape:connector-curvature="0" /><path
     d="m 417.68093,224.31158 c 0.0524,-0.1212 0.12189,-0.21829 0.19914,-0.29057 0.0695,-0.0715 0.16655,-0.1219 0.26577,-0.14671 0.0971,-0.022 0.19135,-0.0468 0.28844,-0.022 0.0992,0.022 0.19347,0.022 0.27143,0.0724 0.0687,0.0468 0.16584,0.0964 0.24025,0.16867 0.0723,0.0744 0.1219,0.14671 0.17222,0.2438 0.0439,0.0964 0.0439,0.19348 0.0439,0.29057 0,0.0971 -0.022,0.21827 -0.0694,0.34017 l -0.70303,1.55348 c -0.0525,0.12189 -0.1219,0.21828 -0.22112,0.29057 -0.0723,0.0744 -0.16654,0.1219 -0.26576,0.14669 -0.0999,0.0248 -0.19419,0.0468 -0.29057,0.0248 -0.0999,0 -0.19702,-0.0248 -0.26576,-0.0744 -0.0999,-0.0475 -0.17222,-0.0971 -0.24663,-0.16938 -0.0695,-0.0715 -0.1219,-0.14671 -0.16584,-0.24308 -0.0503,-0.0971 -0.0751,-0.19419 -0.0751,-0.29128 0,-0.0964 0.0248,-0.21828 0.0751,-0.34018 z m -0.29057,1.74695 c -0.0439,0.0999 -0.0439,0.19702 -0.022,0.2686 0.022,0.0724 0.0992,0.12189 0.16867,0.16938 0.0751,0.0496 0.1467,0.0496 0.2438,0.0248 0.0992,-0.0248 0.14386,-0.0724 0.19631,-0.19418 l 0.70303,-1.55276 c 0.0446,-0.0971 0.0446,-0.1942 0.0255,-0.26861 -0.0255,-0.0723 -0.0999,-0.11906 -0.17222,-0.16867 -0.0744,-0.0503 -0.14387,-0.0503 -0.24025,-0.0255 -0.0779,0.0255 -0.14741,0.0751 -0.19702,0.19418 z"
     style="fill:#010202;fill-opacity:1;fill-rule:nonzero;stroke:none;stroke-width:0.0784882;stroke-miterlimit:8.98305;stroke-dasharray:none"
     id="path1585-9"
     inkscape:connector-curvature="0" /><path
     d="m 421.25208,225.01532 0.43727,0.1715 -0.99644,2.59669 0.85257,0.31537 -0.1715,0.43727 -1.28984,-0.48687 z"
     style="fill:#010202;fill-opacity:1;fill-rule:nonzero;stroke:none;stroke-width:0.0784882;stroke-miterlimit:8.98305;stroke-dasharray:none"
     id="path1587-3"
     inkscape:connector-curvature="0" /><path
     d="m 424.33352,226.13365 0.65626,0.19348 c 0.24309,0.0724 0.41246,0.19418 0.51169,0.38765 0.0942,0.19419 0.0942,0.38766 0.0198,0.65626 l -0.4323,1.45639 c -0.10205,0.29056 -0.22112,0.48404 -0.4153,0.58113 -0.19631,0.0971 -0.41247,0.0971 -0.67823,0.0249 l -0.60878,-0.19348 z m -0.36285,2.81497 0.19135,0.0724 c 0.12473,0.0496 0.22111,0.0247 0.2934,-0.0249 0.0744,-0.0475 0.11906,-0.14387 0.16867,-0.26576 l 0.46491,-1.50599 c 0.0446,-0.1219 0.0446,-0.21899 0,-0.31537 -0.0525,-0.0971 -0.0992,-0.14458 -0.24309,-0.19419 l -0.19418,-0.0717 z"
     style="fill:#010202;fill-opacity:1;fill-rule:nonzero;stroke:none;stroke-width:0.0784882;stroke-miterlimit:8.98305;stroke-dasharray:none"
     id="path1589-6"
     inkscape:connector-curvature="0" /><path
     d="m 427.70553,227.08047 1.3593,0.31538 -0.0971,0.43727 -0.89438,-0.19631 -0.22112,0.92485 0.78029,0.16867 -0.0992,0.43727 -0.77815,-0.17151 -0.21615,0.92487 0.89721,0.19347 -0.0971,0.45925 -1.35929,-0.31538 z"
     style="fill:#010202;fill-opacity:1;fill-rule:nonzero;stroke:none;stroke-width:0.0784882;stroke-miterlimit:8.98305;stroke-dasharray:none"
     id="path1591-8"
     inkscape:connector-curvature="0" /><path
     d="m 430.911,227.71122 0.73067,0.1219 c 0.53436,0.0723 0.75052,0.43515 0.67823,1.06589 -0.0219,0.19417 -0.0744,0.34088 -0.16868,0.46278 -0.0971,0.12118 -0.1963,0.21828 -0.36498,0.26505 l 0.26789,1.53152 -0.48688,-0.0751 -0.21615,-1.43087 -0.2686,-0.0475 -0.22112,1.35929 -0.45711,-0.0744 z m 0.24095,1.50316 0.2686,0.0503 c 0.0744,0.0248 0.1467,0 0.19631,0 0.0447,-0.0249 0.0943,-0.0503 0.1219,-0.0751 0.0248,-0.0468 0.0475,-0.0964 0.0694,-0.14387 0.0248,-0.0496 0.0248,-0.12189 0.0496,-0.21828 0.0277,-0.0971 0.0277,-0.1467 0.0277,-0.21898 0,-0.0724 0,-0.1219 -0.0277,-0.16868 -0.0248,-0.0503 -0.0496,-0.0971 -0.0943,-0.1219 -0.0524,-0.0248 -0.12189,-0.0496 -0.19631,-0.0722 l -0.24379,-0.0249 z"
     style="fill:#010202;fill-opacity:1;fill-rule:nonzero;stroke:none;stroke-width:0.0784882;stroke-miterlimit:8.98305;stroke-dasharray:none"
     id="path1593-0"
     inkscape:connector-curvature="0" /><path
     d="m 434.4049,228.17118 0.46207,0.0496 -0.26576,3.22814 -0.46207,-0.0503 z"
     style="fill:#010202;fill-opacity:1;fill-rule:nonzero;stroke:none;stroke-width:0.0784882;stroke-miterlimit:8.98305;stroke-dasharray:none"
     id="path1595-2"
     inkscape:connector-curvature="0" /><path
     d="m 436.88252,228.31787 h 0.43727 l 0.67823,1.96523 0.0277,-1.94042 h 0.45711 l -0.0447,3.25011 h -0.4401 l -0.67823,-1.96595 -0.0248,1.94398 h -0.45924 z"
     style="fill:#010202;fill-opacity:1;fill-rule:nonzero;stroke:none;stroke-width:0.0784882;stroke-miterlimit:8.98305;stroke-dasharray:none"
     id="path1597-1"
     inkscape:connector-curvature="0" /><path
     d="m 440.52597,229.07051 c 0,-0.12189 0,-0.24308 0.044,-0.34018 0.0524,-0.0971 0.0971,-0.19418 0.17434,-0.26859 0.0694,-0.0724 0.14386,-0.11906 0.23812,-0.16868 0.0971,-0.0475 0.19631,-0.0724 0.26859,-0.0724 0.0971,0 0.19632,0 0.29058,0.0248 0.0971,0.0227 0.17151,0.0722 0.26576,0.11906 0.0779,0.0751 0.1467,0.1467 0.19702,0.2438 0.0468,0.0971 0.0715,0.21899 0.0992,0.34017 v 0.16938 l -0.4649,0.0248 V 228.974 c 0,-0.1219 -0.0475,-0.19702 -0.0971,-0.2438 -0.0687,-0.0496 -0.14671,-0.0722 -0.21545,-0.0722 -0.0999,0 -0.14741,0.0227 -0.22182,0.0971 -0.0447,0.0468 -0.0943,0.14387 -0.0694,0.24096 l 0.0942,1.69948 c 0,0.12189 0.0496,0.19418 0.0971,0.24379 0.0496,0.0468 0.14386,0.0723 0.22111,0.0723 0.0694,0 0.14387,-0.0255 0.21616,-0.0971 0.0496,-0.0496 0.0971,-0.14671 0.0751,-0.2438 l -0.0256,-0.60594 -0.36498,0.0247 -0.022,-0.41247 0.82492,-0.0503 0.0468,1.02196 c 0,0.11906 0,0.24096 -0.0468,0.33734 -0.0475,0.0971 -0.0999,0.19419 -0.16938,0.2686 -0.0744,0.0724 -0.1467,0.1219 -0.24308,0.16937 -0.0999,0.0496 -0.19702,0.0717 -0.26577,0.0717 -0.0999,0 -0.19701,0 -0.2941,-0.022 -0.0992,-0.0249 -0.16868,-0.0751 -0.26577,-0.1219 -0.0992,-0.0496 -0.1467,-0.1467 -0.19632,-0.24379 -0.0496,-0.0964 -0.0694,-0.21828 -0.0942,-0.34018 z"
     style="fill:#010202;fill-opacity:1;fill-rule:nonzero;stroke:none;stroke-width:0.0784882;stroke-miterlimit:8.98305;stroke-dasharray:none"
     id="path1599-0"
     inkscape:connector-curvature="0" /><path
     d="m 448.0694,228.56166 -0.45923,0.0468 v -0.0971 c 0,-0.0964 -0.0475,-0.19347 -0.0971,-0.26575 -0.0468,-0.0745 -0.1467,-0.0992 -0.2686,-0.0992 -0.0694,0 -0.1219,0.0248 -0.14387,0.0496 -0.0468,0.0249 -0.0723,0.0724 -0.0723,0.0971 -0.0247,0.0496 -0.0247,0.0964 -0.0247,0.1467 0,0.0468 0,0.0964 0,0.14387 0,0.0745 0.0247,0.1219 0.0247,0.17151 0,0.0468 0.0256,0.0724 0.0475,0.1219 0.0248,0.022 0.0468,0.0468 0.0992,0.0715 0.0447,0.0255 0.0942,0.0475 0.1467,0.0475 l 0.36286,0.0971 c 0.0942,0.0249 0.19134,0.0744 0.26575,0.1212 0.0724,0.0503 0.11906,0.0971 0.17151,0.17221 0.0475,0.0715 0.0694,0.14386 0.0943,0.24025 0.0276,0.0971 0.0496,0.19419 0.0496,0.31608 0.0228,0.1467 0.0228,0.26859 0,0.39049 -0.022,0.11906 -0.0496,0.21545 -0.0992,0.31538 -0.0447,0.0971 -0.12189,0.16868 -0.21616,0.21615 -0.0971,0.0496 -0.21827,0.0992 -0.36286,0.12119 -0.12118,0.0255 -0.22111,0 -0.3182,-0.022 -0.0943,-0.0248 -0.19348,-0.0744 -0.26577,-0.12189 -0.0744,-0.0496 -0.1467,-0.1467 -0.1963,-0.21827 -0.0447,-0.0971 -0.0694,-0.19419 -0.0971,-0.29058 l -0.0248,-0.17221 0.4649,-0.0468 0.0248,0.14387 c 0,0.0751 0.0447,0.14669 0.0943,0.21898 0.0524,0.0717 0.1467,0.0964 0.26576,0.0717 0.0751,0 0.14954,-0.0219 0.17434,-0.0468 0.0447,-0.0248 0.0695,-0.0723 0.0943,-0.0971 0.0247,-0.0496 0.0247,-0.0971 0.0247,-0.14669 0,-0.0717 0,-0.1219 -0.0247,-0.19348 0,-0.0724 -0.0248,-0.14387 -0.0248,-0.21899 -0.0249,-0.0468 -0.0249,-0.0971 -0.0468,-0.1219 -0.0228,-0.0219 -0.0475,-0.0468 -0.0999,-0.0715 -0.0447,-0.0256 -0.0971,-0.0256 -0.14386,-0.0475 l -0.33806,-0.0992 c -0.22111,-0.0475 -0.36781,-0.14387 -0.4401,-0.26576 -0.0687,-0.1219 -0.14387,-0.29129 -0.16867,-0.48476 -0.0247,-0.12189 0,-0.24379 0,-0.34017 0.0219,-0.1219 0.0496,-0.21899 0.12189,-0.29127 0.0468,-0.0964 0.11907,-0.14671 0.22113,-0.21829 0.0942,-0.0503 0.2133,-0.0971 0.3352,-0.1219 0.1219,-0.0248 0.22112,0 0.31538,0.0249 0.0971,0.0248 0.19703,0.0724 0.2686,0.14386 0.0722,0.0751 0.14669,0.14671 0.19631,0.219 0.0447,0.0744 0.0694,0.17151 0.0694,0.2686 z"
     style="fill:#010202;fill-opacity:1;fill-rule:nonzero;stroke:none;stroke-width:0.0784882;stroke-miterlimit:8.98305;stroke-dasharray:none"
     id="path1601-5"
     inkscape:connector-curvature="0" /><path
     d="m 449.89361,227.39585 0.45994,-0.0496 0.41247,3.20263 -0.45995,0.0751 z"
     style="fill:#010202;fill-opacity:1;fill-rule:nonzero;stroke:none;stroke-width:0.0784882;stroke-miterlimit:8.98305;stroke-dasharray:none"
     id="path1603-1"
     inkscape:connector-curvature="0" /><path
     d="m 452.34643,227.05567 0.43514,-0.0723 0.9936,1.81854 -0.29057,-1.94044 0.45925,-0.0715 0.50955,3.20262 -0.43727,0.0724 -0.99147,-1.81924 0.29056,1.91562 -0.46208,0.0724 z"
     style="fill:#010202;fill-opacity:1;fill-rule:nonzero;stroke:none;stroke-width:0.0784882;stroke-miterlimit:8.98305;stroke-dasharray:none"
     id="path1605-1"
     inkscape:connector-curvature="0" /><path
     d="m 457.78076,228.68073 c 0.0248,0.0964 0.0248,0.19631 0,0.2934 -0.0247,0.0964 -0.0496,0.19347 -0.11906,0.26576 -0.0524,0.0715 -0.1219,0.14671 -0.19915,0.19348 -0.0694,0.0496 -0.16867,0.0971 -0.26576,0.1219 -0.0943,0.0248 -0.16867,0.0248 -0.26576,0.0248 -0.0943,0 -0.19632,-0.0248 -0.2686,-0.0744 -0.0695,-0.0475 -0.14387,-0.11906 -0.21616,-0.19419 -0.0744,-0.0971 -0.12118,-0.19348 -0.14387,-0.33734 l -0.31821,-1.74979 c -0.0248,-0.0971 -0.0248,-0.19419 0,-0.29056 0.0248,-0.0971 0.0496,-0.19419 0.0971,-0.26577 0.0468,-0.0751 0.1219,-0.1467 0.19631,-0.19419 0.0694,-0.0496 0.16867,-0.0992 0.29057,-0.1219 0.0943,-0.0249 0.19135,-0.0249 0.29056,0 0.0971,0.0227 0.19136,0.0475 0.2686,0.1219 0.0694,0.0475 0.14458,0.11906 0.19136,0.21616 0.0496,0.0999 0.0999,0.19631 0.1219,0.2934 l 0.022,0.16867 -0.45711,0.0971 -0.0248,-0.14387 c -0.0248,-0.0999 -0.0524,-0.1715 -0.1219,-0.21899 -0.0744,-0.0496 -0.14386,-0.0744 -0.22111,-0.0496 -0.11906,0.0249 -0.19135,0.0724 -0.21616,0.1467 -0.0247,0.0723 -0.0247,0.16867 0,0.26577 l 0.31325,1.62789 c 0.0248,0.0971 0.0496,0.16867 0.10206,0.21615 0.0447,0.0496 0.11906,0.0744 0.23812,0.0496 0.0276,0 0.0722,-0.0249 0.0971,-0.0249 0.0248,-0.0248 0.0496,-0.0475 0.0772,-0.0724 0.0227,-0.0247 0.0447,-0.0715 0.0447,-0.12189 0,-0.0468 0,-0.0964 0,-0.16868 l -0.022,-0.1467 0.45924,-0.0971 z"
     style="fill:#010202;fill-opacity:1;fill-rule:nonzero;stroke:none;stroke-width:0.0784882;stroke-miterlimit:8.98305;stroke-dasharray:none"
     id="path1607-0"
     inkscape:connector-curvature="0" /><path
     d="m 459.19037,225.81828 1.35858,-0.29128 0.0971,0.43514 -0.89935,0.19631 0.19348,0.92202 0.77532,-0.1715 0.0999,0.43727 -0.77815,0.17151 0.19631,0.92202 0.89439,-0.19418 0.0999,0.45994 -1.35929,0.29056 z"
     style="fill:#010202;fill-opacity:1;fill-rule:nonzero;stroke:none;stroke-width:0.0784882;stroke-miterlimit:8.98305;stroke-dasharray:none"
     id="path1609-8"
     inkscape:connector-curvature="0" /><path
     d="m 465.40215,227.15205 0.33806,-1.74695 c 0.0249,-0.0964 0.0249,-0.1715 0,-0.21828 0,-0.0496 -0.0227,-0.1219 -0.0447,-0.21899 0,-0.0496 -0.0276,-0.0715 -0.0524,-0.1219 -0.0248,-0.0468 -0.0248,-0.0717 -0.0496,-0.0964 -0.0198,-0.0249 -0.0447,-0.0475 -0.0971,-0.0724 -0.022,-0.0248 -0.0695,0 -0.14387,0 -0.0724,0.0247 -0.1219,0.0475 -0.1467,0.0971 -0.022,0.0468 -0.022,0.1219 0,0.19348 l 0.0744,0.24379 -0.43727,0.11906 -0.0715,-0.24095 c -0.0226,-0.0971 -0.0503,-0.19348 -0.0226,-0.26861 0,-0.0964 0.0447,-0.16866 0.0694,-0.26575 0.0247,-0.0964 0.0999,-0.14671 0.16867,-0.21828 0.0751,-0.0723 0.14954,-0.0971 0.2438,-0.1219 0.1219,-0.0249 0.2211,-0.0475 0.31821,-0.0249 0.0942,0.0249 0.16866,0.0496 0.26575,0.12119 0.0724,0.0503 0.14671,0.12189 0.19703,0.21898 0.044,0.0971 0.0964,0.17151 0.11906,0.29057 0.022,0.0751 0.0468,0.1467 0.0468,0.19419 0,0.0496 0.0248,0.0992 0.0248,0.14669 0,0.0496 0,0.0964 0,0.14671 0,0.0468 -0.0248,0.1219 -0.0248,0.19348 l -0.26576,1.45638 0.80013,-0.2438 0.12189,0.43727 -1.33449,0.38767 z"
     style="fill:#010202;fill-opacity:1;fill-rule:nonzero;stroke:none;stroke-width:0.0784882;stroke-miterlimit:8.98305;stroke-dasharray:none"
     id="path1611-5"
     inkscape:connector-curvature="0" /><path
     d="m 467.97404,224.1181 c -0.0496,-0.0971 -0.0496,-0.19348 -0.0496,-0.29058 0,-0.0971 0.0249,-0.16866 0.0745,-0.26859 0.0503,-0.0724 0.0971,-0.14387 0.1715,-0.19347 0.0694,-0.0475 0.14457,-0.0971 0.24379,-0.1219 0.0943,-0.0226 0.16867,-0.0475 0.26577,-0.0475 0.0942,0 0.16867,0.0249 0.24096,0.0475 0.0744,0.0249 0.14387,0.0992 0.22182,0.1467 0.0687,0.0496 0.11836,0.1467 0.14103,0.2686 l 0.63359,1.79373 c 0.0447,0.0971 0.0447,0.19347 0.0447,0.2934 0,0.0971 -0.0198,0.16867 -0.0724,0.26577 -0.0468,0.0716 -0.0943,0.14669 -0.16866,0.19347 -0.0694,0.0503 -0.14671,0.0971 -0.2438,0.1219 -0.0943,0.0248 -0.16867,0.0475 -0.26576,0.0475 -0.0943,0 -0.17151,-0.0226 -0.24096,-0.0475 -0.0745,-0.0249 -0.1467,-0.0964 -0.22111,-0.14671 -0.0694,-0.0715 -0.1219,-0.14387 -0.14671,-0.26576 z m 1.06872,1.62789 c 0.022,0.0724 0.0744,0.0971 0.11906,0.14387 0.0496,0.0247 0.1219,0.0247 0.17151,0 0.0744,-0.0249 0.0971,-0.0717 0.1219,-0.1219 0.0219,-0.0468 0.0219,-0.1219 0,-0.16868 l -0.62862,-1.79655 c -0.0276,-0.0724 -0.0772,-0.0971 -0.1219,-0.14387 -0.0524,-0.0255 -0.1219,-0.0255 -0.17435,0 -0.0687,0.022 -0.0942,0.0717 -0.11622,0.11906 -0.0276,0.0496 -0.0276,0.12119 0,0.1715 z"
     style="fill:#010202;fill-opacity:1;fill-rule:nonzero;stroke:none;stroke-width:0.0784882;stroke-miterlimit:8.98305;stroke-dasharray:none"
     id="path1613-0"
     inkscape:connector-curvature="0" /><path
     d="m 471.08028,222.95299 c -0.0475,-0.0971 -0.0694,-0.19418 -0.0694,-0.29127 0,-0.0964 0.0219,-0.16868 0.0447,-0.26577 0.0249,-0.0964 0.0744,-0.14671 0.1467,-0.21828 0.0744,-0.0752 0.1467,-0.1219 0.22112,-0.14671 0.0694,-0.0248 0.16938,-0.0475 0.26576,-0.0475 0.0943,0 0.1715,0 0.26859,0.0475 0.0694,0.0249 0.16868,0.0717 0.21617,0.14671 0.0744,0.0715 0.12189,0.14386 0.16866,0.24095 l 0.75619,1.74909 c 0.0439,0.0971 0.0687,0.19418 0.0687,0.29127 0,0.0964 -0.0249,0.16868 -0.0468,0.26577 -0.022,0.0744 -0.0722,0.1467 -0.14671,0.21827 -0.0723,0.0724 -0.14102,0.1219 -0.21898,0.14671 -0.0687,0.0248 -0.16868,0.0475 -0.26577,0.0475 -0.0943,0 -0.1715,0 -0.26577,-0.0475 -0.0744,-0.0249 -0.17149,-0.0744 -0.21827,-0.14671 -0.0752,-0.0717 -0.1219,-0.14387 -0.16939,-0.24096 z m 1.16795,1.55277 c 0.0247,0.0744 0.0694,0.0971 0.1219,0.1219 0.0447,0.0249 0.11905,0.0249 0.16866,0 0.0694,-0.0249 0.0971,-0.0724 0.1219,-0.1219 0.0256,-0.0468 0.0256,-0.11906 0,-0.16868 l -0.75548,-1.74695 c -0.0247,-0.0751 -0.0694,-0.0971 -0.1219,-0.1219 -0.0439,-0.0247 -0.1219,-0.0247 -0.16866,0 -0.0724,0.0248 -0.0971,0.0716 -0.1219,0.1219 -0.0249,0.0468 -0.0249,0.1219 0,0.16868 z"
     style="fill:#010202;fill-opacity:1;fill-rule:nonzero;stroke:none;stroke-width:0.0784882;stroke-miterlimit:8.98305;stroke-dasharray:none"
     id="path1615-6"
     inkscape:connector-curvature="0" /><path
     d="m 474.91436,221.95868 c 0.1219,-0.0744 0.19631,-0.1219 0.2438,-0.1715 0.0249,-0.0468 0.0249,-0.14387 -0.022,-0.24096 l -0.19702,-0.36499 c -0.0249,-0.0475 -0.0687,-0.0971 -0.11906,-0.1219 -0.0496,-0.0227 -0.1219,-0.0227 -0.1715,0.0248 -0.0694,0.0496 -0.1219,0.0971 -0.1219,0.14669 0,0.0468 0,0.1219 0.0277,0.14387 l 0.11906,0.2438 -0.41246,0.21828 -0.11906,-0.24309 c -0.0524,-0.0724 -0.0772,-0.16937 -0.0772,-0.26576 0,-0.0971 0,-0.17221 0.0249,-0.2686 0.0247,-0.0724 0.0744,-0.16938 0.12189,-0.24096 0.0496,-0.0751 0.1219,-0.1219 0.22111,-0.1715 0.1219,-0.0475 0.21617,-0.0724 0.31326,-0.0724 0.0992,0 0.16866,0.0249 0.24591,0.0496 0.0447,0.0226 0.0694,0.0475 0.11906,0.0724 0.0475,0.0249 0.0724,0.0468 0.0943,0.0971 0.0276,0.0468 0.0779,0.0964 0.12189,0.1467 0.0524,0.0468 0.0772,0.14387 0.1219,0.21545 0.0524,0.0999 0.0999,0.19701 0.1219,0.24379 0.0248,0.0724 0.0496,0.1219 0.0496,0.16866 0,0.0503 0,0.0999 -0.0248,0.14671 -0.0249,0.0503 -0.0447,0.0971 -0.0942,0.16938 0.0942,0 0.14386,0.0249 0.19134,0.0496 0.0496,0.0249 0.0992,0.0496 0.1467,0.0971 0.0468,0.0496 0.0744,0.0964 0.11906,0.14671 0.0496,0.0468 0.0744,0.14387 0.12403,0.24096 0.0475,0.0964 0.0971,0.17151 0.12189,0.24309 0.0256,0.0724 0.0475,0.12189 0.0695,0.16938 0.0248,0.0496 0.0248,0.0964 0.0248,0.12189 0,0.0496 0,0.0745 0,0.12119 -0.0248,0.0971 -0.0468,0.19418 -0.0943,0.29128 -0.0496,0.0964 -0.14669,0.1715 -0.26575,0.24308 -0.0772,0.0249 -0.14671,0.0475 -0.22113,0.0724 -0.0723,0.0247 -0.16866,0.0247 -0.24379,0 -0.0694,-0.022 -0.16866,-0.0475 -0.24096,-0.1219 -0.0744,-0.0468 -0.14669,-0.14387 -0.1963,-0.26577 l -0.1219,-0.24379 0.41247,-0.21828 0.1219,0.21828 c 0.0247,0.0751 0.0772,0.0971 0.14669,0.1219 0.0524,0.0249 0.12189,0.0249 0.17151,-0.0248 0.0724,-0.022 0.0942,-0.0724 0.11906,-0.14386 0.0276,-0.0496 0,-0.1219 -0.0248,-0.19419 l -0.21332,-0.41246 c -0.0276,-0.0496 -0.0524,-0.0964 -0.0772,-0.1212 -0.0198,-0.0255 -0.0446,-0.0503 -0.0971,-0.0503 -0.0247,0 -0.0694,0 -0.12189,0 -0.0468,0.0247 -0.0943,0.0503 -0.16867,0.0751 z"
     style="fill:#010202;fill-opacity:1;fill-rule:nonzero;stroke:none;stroke-width:0.0784882;stroke-miterlimit:8.98305;stroke-dasharray:none"
     id="path1617-4"
     inkscape:connector-curvature="0" /><path
     d="m 424.77079,137.61452 -41.77166,-7.28334 c -2.71859,4.19977 -4.95029,8.71492 -6.62779,13.47102 -0.33734,0.94683 -0.62862,1.89365 -0.91919,2.84049 -0.22112,0.72783 -0.41247,1.45568 -0.60878,2.18421 -1.33448,5.09629 -2.04035,10.41156 -2.04035,15.87354 0,12.47743 3.66541,24.15117 10.02673,34.1035 l 42.35351,-8.83612 c 11.87078,-2.47549 24.22346,-2.47549 36.0914,0 l 41.09344,8.56751 c 6.2621,-9.90199 9.85594,-21.45456 9.85594,-33.83489 0,-12.57097 -3.7129,-24.31985 -10.17414,-34.31965 l -40.38758,7.15931 c -12.18119,2.18423 -24.70538,2.20903 -36.89153,0.0744 z"
     style="fill:#ffffff;fill-opacity:1;fill-rule:nonzero;stroke:none;stroke-width:0.0784882;stroke-miterlimit:8.98305;stroke-dasharray:none"
     id="path1619-6"
     inkscape:connector-curvature="0" /><path
     d="m 393.70409,135.84276 c 0.1467,0 0.31608,0.16938 0.53152,0.53152 v 8.64335 c 0,0.14386 -0.16867,0.31537 -0.53152,0.50956 h -10.4392 v 11.74604 h 8.88359 c 0.1467,0 0.31538,0.17151 0.5124,0.50955 v 8.52075 c 0,0.14386 -0.16938,0.31536 -0.5124,0.50954 h -8.88359 v 11.74606 h 10.4392 c 0.1467,0 0.31608,0.17151 0.53152,0.51239 v 8.6646 c 0,0.11906 -0.16867,0.29057 -0.53152,0.50956 h -19.37027 c -0.58398,0 -0.89651,-0.3905 -0.89651,-1.14102 v -50.07411 c 0,-0.77533 0.31253,-1.18779 0.89651,-1.18779 z"
     style="fill:#000000;fill-opacity:1;fill-rule:nonzero;stroke:#0000ff;stroke-width:0.0784882;stroke-miterlimit:8.98305;stroke-dasharray:none;stroke-opacity:1"
     id="path1621-2"
     inkscape:connector-curvature="0" /><path
     d="m 409.747,140.13679 c 0.11906,0 0.26576,0.14671 0.46207,0.48759 v 4.73059 c 0,0.21899 0.0503,0.36569 0.11906,0.36569 l -0.11906,0.58114 v 35.58468 c 0,0.16939 0.0503,0.36286 0.11906,0.48476 -0.0687,0.12189 -0.11906,0.26576 -0.11906,0.46208 v 3.95597 c 0,0.0971 -0.1467,0.24096 -0.46207,0.45995 h -7.42508 c -0.53437,0 -0.80226,-0.36285 -0.80226,-1.04392 v -44.99981 c 0,-0.70303 0.26789,-1.06872 0.80226,-1.06872 z"
     style="fill:#000000;fill-opacity:1;fill-rule:nonzero;stroke:#0000ff;stroke-width:0.0784882;stroke-miterlimit:8.98305;stroke-dasharray:none;stroke-opacity:1"
     id="path1623-5"
     inkscape:connector-curvature="0" /><path
     d="m 425.66801,140.76824 c 4.46766,0 7.30814,1.09354 8.57105,3.30256 1.09069,1.30968 1.64703,3.59029 1.64703,6.91836 v 6.35849 c 0,3.88156 -1.43158,6.48108 -4.29686,7.79005 v 0.0971 c 3.49674,10.14651 5.65899,15.72755 6.48108,18.61764 -0.1219,0.36215 0.17151,0.70303 -0.21899,0.70303 l -8.2493,0.77744 c -0.34088,0 -1.06873,-2.18421 -2.18493,-6.57747 -0.0744,-0.0248 -0.70304,-2.30611 -1.96807,-6.91764 h -0.11906 v 12.74248 c 0,0.50956 -0.26576,0.75263 -0.75548,0.75263 h -6.69441 c -0.51168,0 -0.75547,-0.26788 -0.75547,-0.75263 V 141.5457 c 0,-0.53436 0.26576,-0.77745 0.75547,-0.77745 z m -0.87241,7.67101 v 11.09261 h 0.75051 c 1.77176,0 2.64914,-0.82492 2.64914,-2.52439 v -6.04382 c 0,-1.69948 -0.60878,-2.5244 -1.77176,-2.5244 z"
     style="fill:#000000;fill-opacity:1;fill-rule:nonzero;stroke:#0000ff;stroke-width:0.0784882;stroke-miterlimit:8.98305;stroke-dasharray:none;stroke-opacity:1"
     id="path1625-8"
     inkscape:connector-curvature="0" /><path
     d="m 450.45277,142.75828 c 4.14733,0 6.76882,0.99715 7.88716,2.93757 1.06588,1.4812 1.62789,3.49604 1.62789,6.06792 v 6.35919 c 0,2.18423 -0.63075,3.90921 -1.94611,5.14661 1.28985,1.23739 1.94611,2.93687 1.94611,5.16857 v 6.35848 c 0,4.44356 -1.62789,7.25925 -4.85816,8.47113 -0.94683,0.34088 -2.84048,0.50956 -5.65332,0.50956 h -6.5555 c -0.46208,0 -0.70304,-0.24097 -0.70304,-0.70304 v -39.58744 c 0,-0.48476 0.24096,-0.72855 0.70304,-0.72855 z m -1.21471,7.06506 v 10.21809 h 0.8965 c 1.82208,0 2.74339,-0.70304 2.74339,-2.13745 v -5.24299 c 0,-1.89082 -0.55917,-2.83765 -1.62505,-2.83765 z m 0,16.67366 v 10.21809 h 2.13673 c 1.01629,0 1.50316,-0.89652 1.50316,-2.71859 v -4.8525 c 0,-1.74978 -0.77461,-2.647 -2.33092,-2.647 z"
     style="fill:#000000;fill-opacity:1;fill-rule:nonzero;stroke:#0000ff;stroke-width:0.0784882;stroke-miterlimit:8.98305;stroke-dasharray:none;stroke-opacity:1"
     id="path1627-6"
     inkscape:connector-curvature="0" /><path
     d="m 486.27842,150.57386 v 26.4573 c 0,4.80572 -1.28985,7.96158 -3.83975,9.39315 -1.3841,1.09352 -3.47124,1.60238 -6.28691,1.60238 h -0.67823 c -4.65902,0 -7.69013,-2.01484 -9.04943,-6.02115 -0.39333,-1.16227 -0.58468,-2.37769 -0.58468,-3.61509 v -29.19856 c 0,-4.68382 2.085,-7.74258 6.2621,-9.15219 1.11833,-0.33734 2.42519,-0.48405 3.95598,-0.48405 4.73131,0 7.83754,1.72428 9.27409,5.12109 0.62861,1.14101 0.94683,3.10625 0.94683,5.89712 z m -12.31088,26.91938 c 0,1.64985 0.63145,2.44998 1.86884,2.44998 h 0.58398 c 1.16794,0 1.74695,-1.11549 1.74695,-3.35003 v -25.53245 c 0,-2.33093 -0.70303,-3.47123 -2.08501,-3.47123 -1.38409,0.1467 -2.08712,1.01841 -2.08712,2.54921 v 27.35452 z"
     style="fill:#000000;fill-opacity:1;fill-rule:nonzero;stroke:#0000ff;stroke-width:0.0784882;stroke-miterlimit:8.98305;stroke-dasharray:none;stroke-opacity:1"
     id="path1629-2"
     inkscape:connector-curvature="0" /><path
     d="m 513.65207,137.00574 c 0.1467,0 0.34373,0.17151 0.53437,0.55917 v 9.22447 c 0,0.14387 -0.16868,0.34018 -0.53437,0.53437 h -6.35636 v 44.68372 c 0,0.63146 -0.34301,0.96951 -0.97163,0.96951 h -8.54554 c -0.63146,0 -0.96667,-0.33805 -0.96667,-0.96951 v -44.66175 h -6.50802 c -0.36285,-0.0971 -0.53437,-0.50956 -0.53437,-1.23739 v -7.74329 c 0,-0.67823 0.2438,-1.16299 0.68107,-1.38127 h 23.20152 z"
     style="fill:#000000;fill-opacity:1;fill-rule:nonzero;stroke:#0000ff;stroke-width:0.0784882;stroke-miterlimit:8.98305;stroke-dasharray:none;stroke-opacity:1"
     id="path1631-8"
     inkscape:connector-curvature="0" /></g><g
   id="g4569"
   transform="translate(-1.4345011,2.3320006)"><path
     fill="none"
     stroke="#000000"
     stroke-width="2.8347"
     stroke-miterlimit="10"
     d="m 445.02219,165.54952 c 15.281,46.659 56.875,77.355 102.975,80.998 25.924,-33.334 35.418,-78.509 21.386,-121.695 -1.859,-5.719 -4.076,-11.221 -6.615,-16.494 -3.832,-1.04 -7.998,-1.04 -12.06,0.278 -3.332,1.082 -6.209,2.915 -8.514,5.244 -21.286,30.969 -56.829,51.357 -97.172,51.669 z m 107.972,-36.757 c 0,-2.353 1.908,-4.259 4.261,-4.259 2.354,0 4.26,1.907 4.26,4.259 0,2.353 -1.906,4.259 -4.26,4.259 -2.353,0 -4.261,-1.907 -4.261,-4.259 z m -14.392,15.169 c 0.787,-1.223 2.127,-1.953 3.582,-1.953 0.813,0 1.604,0.234 2.291,0.677 1.971,1.269 2.543,3.902 1.276,5.871 -13.123,20.4 -16.354,45.318 -8.868,68.365 1.87,5.753 4.37,11.271 7.43,16.399 0.582,0.975 0.75,2.116 0.471,3.216 -0.279,1.101 -0.969,2.027 -1.943,2.609 -0.659,0.393 -1.409,0.6 -2.172,0.6 -1.514,0 -2.881,-0.775 -3.653,-2.074 -3.386,-5.675 -6.148,-11.771 -8.213,-18.123 -8.281,-25.482 -4.707,-53.032 9.799,-75.587 z"
     id="path2"
     style="fill:none;stroke:#ff0000;stroke-width:0.377953;stroke-miterlimit:8.90909;stroke-dasharray:none;stroke-opacity:1" /><path
     fill="none"
     stroke="#000000"
     stroke-width="2.8347"
     stroke-miterlimit="10"
     d="m 399.80619,288.51452 c 39.713,14.356 85.61,9.427 122.35,-17.267 4.863,-3.534 9.41,-7.343 13.644,-11.388 -0.197,-3.969 -1.484,-7.931 -3.994,-11.383 -2.06,-2.836 -4.689,-5.007 -7.617,-6.478 -36.029,-10.675 -66.404,-38.177 -79.167,-76.449 -39.658,28.954 -55.997,77.997 -45.216,122.965 z m 110.593,-27.582 c 0,-2.353 1.908,-4.26 4.26,-4.26 2.354,0 4.26,1.907 4.26,4.26 0,2.353 -1.906,4.261 -4.26,4.261 -2.351,-10e-4 -4.26,-1.909 -4.26,-4.261 z m -106.587,17.476 c -0.075,-1.132 0.295,-2.227 1.045,-3.081 4.35,-4.971 9.293,-9.483 14.695,-13.41 15.304,-11.118 33.333,-16.995 52.139,-16.995 7.656,0 15.319,0.996 22.779,2.96 1.098,0.289 2.018,0.988 2.59,1.97 0.572,0.98 0.728,2.124 0.438,3.221 -0.491,1.867 -2.181,3.17 -4.105,3.17 -0.363,0 -0.729,-0.047 -1.084,-0.141 -6.746,-1.776 -13.679,-2.678 -20.603,-2.678 -17.012,0 -33.317,5.313 -47.156,15.368 -4.895,3.56 -9.369,7.642 -13.302,12.134 -0.806,0.922 -1.972,1.45 -3.195,1.45 -1.029,0 -2.023,-0.373 -2.799,-1.053 -0.855,-0.748 -1.367,-1.783 -1.442,-2.915 z"
     id="path4"
     style="fill:none;stroke:#ff0000;stroke-width:0.377953;stroke-miterlimit:8.90909;stroke-dasharray:none;stroke-opacity:1" /><path
     fill="none"
     stroke="#000000"
     stroke-width="2.8347"
     stroke-miterlimit="10"
     d="m 368.33619,271.57052 c 4.862,3.532 9.891,6.681 15.045,9.455 3.713,-1.413 7.082,-3.861 9.592,-7.314 2.062,-2.834 3.313,-6.008 3.807,-9.247 -0.979,-37.563 15.789,-74.949 48.242,-98.915 -39.787,-28.769 -91.479,-29.152 -130.916,-5.004 -1.381,42.204 17.492,84.333 54.23,111.025 z m 3.234,-10.317 c 0,-2.354 1.906,-4.26 4.261,-4.26 2.352,0 4.258,1.906 4.258,4.26 0,2.353 -1.906,4.26 -4.258,4.26 -2.354,-0.001 -4.261,-1.908 -4.261,-4.26 z m -48.941,-97.75 c 0.672,-1.565 2.205,-2.577 3.906,-2.577 0.575,0 1.139,0.115 1.674,0.346 6.073,2.602 11.893,5.91 17.295,9.833 21.676,15.751 34.979,40.14 36.498,66.915 0.065,1.134 -0.314,2.225 -1.07,3.072 -0.756,0.846 -1.797,1.348 -2.93,1.41 -0.082,0.006 -0.164,0.008 -0.246,0.008 -2.248,0 -4.109,-1.762 -4.238,-4.009 -1.375,-24.219 -13.404,-46.276 -33.008,-60.52 -4.896,-3.557 -10.162,-6.551 -15.652,-8.902 -1.041,-0.443 -1.846,-1.268 -2.268,-2.318 -0.422,-1.055 -0.408,-2.212 0.039,-3.258 z"
     id="path6"
     style="fill:none;stroke:#ff0000;stroke-width:0.377953;stroke-miterlimit:8.90909;stroke-dasharray:none;stroke-opacity:1" /><path
     fill="none"
     stroke="#000000"
     stroke-width="2.8347"
     stroke-miterlimit="10"
     d="m 316.14719,142.61052 c 2.492,3.095 5.861,5.543 9.922,6.861 3.332,1.086 6.738,1.295 9.972,0.764 35.421,-12.541 76.159,-8.145 108.981,15.314 15.063,-46.729 -0.543,-96.010999 -35.699,-126.054999 -40.563,11.727 -74.799,42.696 -88.83,85.884999 -1.858,5.718 -3.3,11.473 -4.346,17.231 z m 37.394,-22.52 c 22.608,-8.792 39.869,-27.050999 47.357,-50.095999 1.868,-5.758 3.089,-11.69 3.629,-17.635 0.197,-2.202 2.014,-3.862 4.225,-3.862 0.131,0 0.262,0.006 0.392,0.018 2.334,0.213 4.06,2.284 3.847,4.618 -0.598,6.583 -1.944,13.141 -4.007,19.486 -8.281,25.483 -27.366,45.672999 -52.359,55.391999 -0.496,0.193 -1.017,0.291 -1.541,0.291 -1.738,0 -3.33,-1.089 -3.959,-2.711 -0.851,-2.184 0.234,-4.651 2.416,-5.501 z m -25.182,9.229 c 0,-2.354 1.906,-4.259 4.258,-4.259 2.354,0 4.261,1.906 4.261,4.259 0,2.352 -1.906,4.259 -4.261,4.259 -2.351,0 -4.258,-1.907 -4.258,-4.259 z"
     id="path8"
     style="fill:none;stroke:#ff0000;stroke-width:0.377953;stroke-miterlimit:8.90909;stroke-dasharray:none;stroke-opacity:1" /><path
     fill="none"
     stroke="#000000"
     stroke-width="2.8347"
     stroke-miterlimit="10"
     d="m 425.91019,57.168521 c 22.873,29.813 31.281,69.916999 19.112,108.380999 49.098,-0.113 91.144,-30.187 108.854,-72.902999 -23.689,-34.958 -63.722,-57.947 -109.131,-57.946 -6.013,10e-4 -11.931,0.41 -17.731,1.194 -2.172,3.324 -3.459,7.286 -3.459,11.556 -0.002,3.503 0.851,6.806 2.355,9.718 z m 26.561,9.593 c 0.112,-1.129 0.66,-2.146 1.538,-2.863 0.769,-0.627 1.696,-0.959 2.687,-0.959 1.281,0 2.482,0.568 3.293,1.561 15.348,18.785 38.048,29.56 62.277,29.56 6.043,0 12.063,-0.673 17.893,-1.998 0.313,-0.071 0.633,-0.107 0.95,-0.107 1.96,0 3.698,1.392 4.135,3.309 0.52,2.285 -0.917,4.567 -3.202,5.084999 -6.444,1.467 -13.098,2.21 -19.773,2.21 -26.792,0 -51.891,-11.911999 -68.858,-32.680999 -0.721,-0.881 -1.054,-1.988 -0.94,-3.117 z m -11.985,-19.31 c 0,-2.353 1.907,-4.259 4.26,-4.259 2.353,0 4.259,1.907 4.259,4.259 0,2.352 -1.906,4.259 -4.259,4.259 -2.352,10e-4 -4.26,-1.907 -4.26,-4.259 z"
     id="path10"
     style="fill:none;stroke:#ff0000;stroke-width:0.377953;stroke-miterlimit:8.90909;stroke-dasharray:none;stroke-opacity:1" /></g>
<path
   fill="none"
   stroke="#000000"
   stroke-width="2.8347"
   stroke-miterlimit="10"
   d="M854.077,104.336  c-4.411,0.445-8.997-0.646-12.866-3.458c-8.103-5.885-10.067-17.049-4.649-25.339c-25.948-33.046-66.264-54.274-111.537-54.274  c-5.383,0-10.69,0.311-15.917,0.896c-0.943,4.323-3.396,8.336-7.259,11.143c-8.11,5.893-19.353,4.302-25.558-3.438  c-45.64,16.71-80.287,56.222-90.153,104.736c3.831,2.231,6.896,5.811,8.375,10.357c3.094,9.519-1.871,19.698-11.117,23.228  c1.823,50.666,30.235,94.549,71.709,118.117c3.306-2.949,7.652-4.759,12.433-4.759c10.024,0,18.183,7.894,18.657,17.8  c12.339,3.508,25.365,5.385,38.828,5.385c36.868,0,70.445-14.08,95.656-37.152c-1.775-4.053-2.147-8.736-0.674-13.272  c3.095-9.525,13.107-14.845,22.669-12.25c15.205-22.584,24.08-49.783,24.08-79.056C866.754,142.075,862.217,122.213,854.077,104.336  z M759.033,47.752c1.252-1.708,3.649-2.08,5.358-0.829c1.708,1.25,2.079,3.649,0.829,5.357s-3.649,2.08-5.356,0.83  C758.156,51.859,757.783,49.46,759.033,47.752z M631.537,234.942c-1.252,1.708-3.648,2.079-5.356,0.828  c-1.709-1.25-2.08-3.648-0.83-5.357c1.25-1.707,3.649-2.08,5.356-0.828C632.416,230.834,632.787,233.233,631.537,234.942z   M632.024,95.047c-1.25,1.708-3.648,2.08-5.357,0.83s-2.08-3.648-0.83-5.357c1.253-1.708,3.649-2.08,5.357-0.829  C632.903,90.94,633.274,93.339,632.024,95.047z M764.435,278.633c-1.25,1.709-3.649,2.08-5.357,0.83  c-1.709-1.25-2.079-3.647-0.829-5.356c1.25-1.708,3.648-2.08,5.356-0.829C765.313,274.527,765.685,276.926,764.435,278.633z   M725.022,242.73c-44.02,0-79.703-35.686-79.703-79.704c0-44.021,35.684-79.704,79.703-79.704s79.705,35.684,79.705,79.704  C804.728,207.045,769.041,242.73,725.022,242.73z M847.055,165.743c-1.25,1.709-3.649,2.08-5.357,0.83  c-1.709-1.25-2.08-3.649-0.828-5.357c1.25-1.708,3.647-2.079,5.356-0.829C847.934,161.636,848.305,164.035,847.055,165.743z"
   id="path14"
   style="fill:none;stroke:#ff0000;stroke-opacity:1;stroke-width:0.37795276;stroke-miterlimit:8.909091;stroke-dasharray:none" />
<path
   fill="none"
   stroke="#000000"
   stroke-width="2.8347"
   stroke-miterlimit="10"
   d="M162.589,21.294  c-78.151,0-141.732,63.581-141.732,141.732s63.581,141.732,141.732,141.732c78.15,0,141.731-63.581,141.731-141.732  S240.74,21.294,162.589,21.294z M298.392,172.946l-8.504,0.002v-19.846l8.503,0.002L298.392,172.946z M288.679,111.625l6.132,18.87  l-8.087,2.629l-6.133-18.874L288.679,111.625z M279.405,125.068c0.315,0.971,0.233,2.007-0.229,2.917  c-0.465,0.911-1.255,1.585-2.229,1.901c-0.386,0.125-0.782,0.188-1.183,0.188c-1.662,0-3.123-1.062-3.636-2.643  c-0.65-2.007,0.452-4.168,2.456-4.82c0.385-0.125,0.78-0.188,1.181-0.188C277.429,122.425,278.891,123.487,279.405,125.068z   M266.624,75.177l11.663,16.051l-6.878,5l-11.666-16.056L266.624,75.177z M162.589,267.153  c-57.416,0-104.127-46.711-104.127-104.127S105.173,58.899,162.589,58.899s104.127,46.711,104.127,104.127  S220.005,267.153,162.589,267.153z M202.588,279.336c-12.885,4.422-26.375,6.664-40.1,6.664c-13.573,0-26.886-2.193-39.564-6.522  c-2.217-0.758-3.404-3.18-2.647-5.396c0.589-1.722,2.204-2.879,4.021-2.879c0.465,0,0.927,0.077,1.374,0.229  c11.8,4.03,24.188,6.073,36.818,6.073c12.773,0,25.336-2.088,37.34-6.207c0.446-0.153,0.912-0.231,1.379-0.231  c0.793,0,1.569,0.223,2.251,0.647c0.835,0.521,1.445,1.287,1.768,2.225C205.987,276.154,204.803,278.576,202.588,279.336z   M61.865,92.437c15.64-22.288,38.498-38.957,64.367-46.938c0.409-0.126,0.83-0.189,1.252-0.189c1.875,0,3.507,1.205,4.062,2.998  c0.689,2.238-0.568,4.623-2.809,5.313c-24.074,7.427-45.354,22.946-59.915,43.698c-0.737,1.052-1.897,1.707-3.182,1.799  c-0.102,0.007-0.203,0.011-0.305,0.011c-0.873,0-1.715-0.267-2.436-0.771C60.984,97.01,60.52,94.354,61.865,92.437z M158.765,44.023  c0.001-2.108,1.715-3.824,3.82-3.824h0.005c2.106,0,3.823,1.716,3.823,3.825c0,2.107-1.717,3.824-3.823,3.825  C160.48,47.847,158.765,46.131,158.765,44.023z M193.289,48.231c0.551-1.796,2.183-3.003,4.061-3.003c0.42,0,0.84,0.063,1.247,0.188  c26.028,7.986,48.946,24.575,64.531,46.712c1.349,1.916,0.887,4.572-1.027,5.921c-0.722,0.508-1.565,0.775-2.443,0.775  c-1.383,0-2.684-0.674-3.479-1.802c-14.503-20.603-35.837-36.043-60.073-43.481c-1.229-0.376-2.209-1.275-2.692-2.471  C193.041,50.157,192.998,49.177,193.289,48.231z M234.386,47.328l16.053,11.661l-4.996,6.881l-16.057-11.665L234.386,47.328z   M195.12,30.804l18.869,6.13l-2.625,8.088l-18.876-6.132L195.12,30.804z M152.668,27.226h19.842v8.504h-19.842V27.226z   M130.062,30.807l2.627,8.088l-18.871,6.132l-2.628-8.088L130.062,30.807z M90.796,47.329l4.998,6.881L79.741,65.873l-4.999-6.88  L90.796,47.329z M58.559,75.177l6.88,5L53.774,96.229l-6.88-4.999L58.559,75.177z M45.774,125.072  c0.516-1.583,1.977-2.646,3.638-2.646c0.398,0,0.798,0.063,1.183,0.188c2.006,0.651,3.107,2.814,2.457,4.819  c-0.516,1.582-1.977,2.644-3.637,2.644c-0.4,0-0.8-0.063-1.185-0.188C46.225,129.236,45.123,127.076,45.774,125.072z   M36.504,111.624l8.088,2.629l-6.132,18.872l-8.088-2.628L36.504,111.624z M26.792,153.102l8.504,0.001v19.842h-8.504V153.102z   M36.505,214.424l-6.133-18.872l8.089-2.628l6.132,18.873L36.505,214.424z M58.56,250.871l-11.665-16.054l6.882-4.998l11.663,16.055  L58.56,250.871z M71.85,235.481c-0.236,0.955-0.779,1.773-1.57,2.369c-0.741,0.559-1.623,0.854-2.547,0.854  c-1.352,0-2.591-0.619-3.4-1.697c-16.364-21.759-25.153-48.649-24.75-75.721c0.034-2.308,1.938-4.185,4.247-4.185h0.064  c2.343,0.035,4.221,1.969,4.187,4.312c-0.378,25.19,7.806,50.224,23.044,70.488C71.896,232.926,72.16,234.231,71.85,235.481z   M90.798,278.717l-16.056-11.662l5.001-6.881l16.053,11.664L90.798,278.717z M95.737,261.547c-0.718,0.988-1.877,1.577-3.101,1.577  c-0.809,0-1.584-0.253-2.24-0.729c-0.828-0.603-1.371-1.487-1.531-2.496c-0.159-1.01,0.083-2.021,0.685-2.849  c0.718-0.985,1.877-1.575,3.101-1.575c0.811,0,1.585,0.252,2.241,0.729C96.596,257.446,96.977,259.842,95.737,261.547z   M130.063,295.241l-18.874-6.132l2.631-8.089l18.871,6.133L130.063,295.241z M172.51,298.826h-19.842v-8.504h19.842V298.826z   M195.118,295.245l-2.629-8.087l18.872-6.132l2.627,8.088L195.118,295.245z M228.761,258.7c0.159-1.009,0.702-1.895,1.528-2.494  c0.657-0.479,1.436-0.73,2.244-0.73c1.24,0,2.37,0.574,3.1,1.577c1.238,1.705,0.859,4.103-0.846,5.342  c-0.658,0.478-1.435,0.729-2.244,0.729c-1.224,0-2.381-0.589-3.1-1.578C228.844,260.72,228.602,259.709,228.761,258.7z   M234.385,278.721l-4.999-6.88l16.055-11.663l4.997,6.881L234.385,278.721z M255.136,237.586c-1.875-1.405-2.258-4.075-0.853-5.948  c15.11-20.16,23.203-45.222,22.787-70.571c-0.021-1.284,0.531-2.495,1.521-3.324c0.752-0.634,1.672-0.979,2.661-0.995h0.07  c2.303,0,4.207,1.875,4.246,4.181c0.447,27.222-8.248,54.146-24.483,75.808c-0.811,1.08-2.051,1.699-3.406,1.699  C256.756,238.434,255.876,238.141,255.136,237.586z M266.624,250.874l-6.881-4.998l11.664-16.055l6.879,5L266.624,250.874z   M288.679,214.424l-8.088-2.625l6.133-18.875l8.086,2.631L288.679,214.424z"
   id="path16"
   style="fill:none;stroke:#ff0000;stroke-opacity:1;stroke-width:0.37795276;stroke-miterlimit:8.909091;stroke-dasharray:none" />
<g
   id="g28"
   style="fill:none;stroke:#ff0000;stroke-opacity:1;stroke-width:0.37795276;stroke-miterlimit:8.909091;stroke-dasharray:none">
	<path
   fill="none"
   stroke="#000000"
   stroke-width="2.8347"
   stroke-miterlimit="10"
   d="M114.322,138.464v8.279   c0,8.607,6.979,15.585,15.587,15.585c8.605,0,15.584-6.978,15.584-15.585v-8.279H114.322z M129.908,150.57   c-2.113,0-3.827-1.713-3.827-3.827s1.714-3.827,3.827-3.827c2.112,0,3.825,1.713,3.825,3.827S132.021,150.57,129.908,150.57z"
   id="path18"
   style="fill:none;stroke:#ff0000;stroke-opacity:1;stroke-width:0.37795276;stroke-miterlimit:8.909091;stroke-dasharray:none" />
	<path
   fill="none"
   stroke="#000000"
   stroke-width="2.8347"
   stroke-miterlimit="10"
   d="M147.004,138.464v8.279   c0,8.607,6.979,15.585,15.585,15.585c8.605,0,15.585-6.978,15.585-15.585v-8.279H147.004z M162.589,150.57   c-2.113,0-3.827-1.713-3.827-3.827s1.714-3.827,3.827-3.827s3.827,1.713,3.827,3.827S164.702,150.57,162.589,150.57z"
   id="path20"
   style="fill:none;stroke:#ff0000;stroke-opacity:1;stroke-width:0.37795276;stroke-miterlimit:8.909091;stroke-dasharray:none" />
	<path
   fill="none"
   stroke="#000000"
   stroke-width="2.8347"
   stroke-miterlimit="10"
   d="M179.861,138.464v8.279   c0,8.607,6.979,15.585,15.585,15.585c8.606,0,15.585-6.978,15.585-15.585v-8.279H179.861z M195.446,150.57   c-2.112,0-3.826-1.713-3.826-3.827s1.714-3.827,3.826-3.827c2.113,0,3.827,1.713,3.827,3.827S197.56,150.57,195.446,150.57z"
   id="path22"
   style="fill:none;stroke:#ff0000;stroke-opacity:1;stroke-width:0.37795276;stroke-miterlimit:8.909091;stroke-dasharray:none" />
	<path
   fill="none"
   stroke="#000000"
   stroke-width="2.8347"
   stroke-miterlimit="10"
   d="M130.575,167.297v8.279   c0,8.607,6.978,15.585,15.585,15.585c8.606,0,15.585-6.978,15.585-15.585v-8.279H130.575z M146.16,179.403   c-2.113,0-3.826-1.713-3.826-3.826s1.713-3.826,3.826-3.826c2.112,0,3.825,1.713,3.825,3.826S148.273,179.403,146.16,179.403z"
   id="path24"
   style="fill:none;stroke:#ff0000;stroke-opacity:1;stroke-width:0.37795276;stroke-miterlimit:8.909091;stroke-dasharray:none" />
	<path
   fill="none"
   stroke="#000000"
   stroke-width="2.8347"
   stroke-miterlimit="10"
   d="M163.433,167.297v8.279   c0,8.607,6.979,15.585,15.585,15.585c8.607,0,15.585-6.978,15.585-15.585v-8.279H163.433z M179.018,179.403   c-2.113,0-3.826-1.713-3.826-3.826s1.713-3.826,3.826-3.826s3.826,1.713,3.826,3.826S181.131,179.403,179.018,179.403z"
   id="path26"
   style="fill:none;stroke:#ff0000;stroke-opacity:1;stroke-width:0.37795276;stroke-miterlimit:8.909091;stroke-dasharray:none" />
</g>
<g
   id="g70"
   style="fill:none;stroke:#ff0000;stroke-opacity:1;stroke-width:0.37795276;stroke-miterlimit:8.909091;stroke-dasharray:none">
	<polygon
   fill="none"
   stroke="#000000"
   stroke-width="2.8347"
   stroke-miterlimit="10"
   points="2754.416,238.164 2764.664,238.164    2764.664,246.667 2784.506,246.667 2784.506,238.164 2794.754,238.164 2794.754,96.432 2784.506,96.432 2784.506,87.927    2764.664,87.927 2764.664,96.432 2754.416,96.432  "
   id="polygon30"
   style="fill:none;stroke:#ff0000;stroke-opacity:1;stroke-width:0.37795276;stroke-miterlimit:8.909091;stroke-dasharray:none" />
	<polyline
   fill="none"
   stroke="#000000"
   stroke-width="2.8347"
   stroke-miterlimit="10"
   points="2754.416,96.432 2744.17,96.432    2744.17,87.927 2724.325,87.927 2724.325,96.432 2714.08,96.432 2714.08,238.164 2724.325,238.164 2724.325,246.667    2744.17,246.667 2744.17,238.164 2754.416,238.164  "
   id="polyline32"
   style="fill:none;stroke:#ff0000;stroke-opacity:1;stroke-width:0.37795276;stroke-miterlimit:8.909091;stroke-dasharray:none" />
	<polyline
   fill="none"
   stroke="#000000"
   stroke-width="2.8347"
   stroke-miterlimit="10"
   points="2714.08,96.432 2703.832,96.432    2703.832,87.927 2683.99,87.927 2683.99,96.432 2673.741,96.432 2673.741,238.164 2683.99,238.164 2683.99,246.667    2703.832,246.667 2703.832,238.164 2714.08,238.164  "
   id="polyline34"
   style="fill:none;stroke:#ff0000;stroke-opacity:1;stroke-width:0.37795276;stroke-miterlimit:8.909091;stroke-dasharray:none" />
	<polyline
   fill="none"
   stroke="#000000"
   stroke-width="2.8347"
   stroke-miterlimit="10"
   points="2673.741,96.432 2663.496,96.432    2663.496,87.927 2643.652,87.927 2643.652,96.432 2633.406,96.432 2633.406,238.164 2643.652,238.164 2643.652,246.667    2663.496,246.667 2663.496,238.164 2673.741,238.164  "
   id="polyline36"
   style="fill:none;stroke:#ff0000;stroke-opacity:1;stroke-width:0.37795276;stroke-miterlimit:8.909091;stroke-dasharray:none" />
	<polyline
   fill="none"
   stroke="#000000"
   stroke-width="2.8347"
   stroke-miterlimit="10"
   points="2633.406,96.432 2623.157,96.432    2623.157,87.927 2603.316,87.927 2603.316,96.432 2593.068,96.432 2593.068,238.164 2603.316,238.164 2603.316,246.667    2623.157,246.667 2623.157,238.164 2633.406,238.164  "
   id="polyline38"
   style="fill:none;stroke:#ff0000;stroke-opacity:1;stroke-width:0.37795276;stroke-miterlimit:8.909091;stroke-dasharray:none" />
	<polyline
   fill="none"
   stroke="#000000"
   stroke-width="2.8347"
   stroke-miterlimit="10"
   points="2593.068,96.432 2582.822,96.432    2582.822,87.927 2562.979,87.927 2562.979,96.432 2552.732,96.432 2552.732,238.164 2562.979,238.164 2562.979,246.667    2582.822,246.667 2582.822,238.164 2593.068,238.164  "
   id="polyline40"
   style="fill:none;stroke:#ff0000;stroke-opacity:1;stroke-width:0.37795276;stroke-miterlimit:8.909091;stroke-dasharray:none" />
	<polyline
   fill="none"
   stroke="#000000"
   stroke-width="2.8347"
   stroke-miterlimit="10"
   points="2552.732,96.432 2542.484,96.432    2542.484,87.927 2522.643,87.927 2522.643,96.432 2512.395,96.432 2512.395,238.164 2522.643,238.164 2522.643,246.667    2542.484,246.667 2542.484,238.164 2552.732,238.164  "
   id="polyline42"
   style="fill:none;stroke:#ff0000;stroke-opacity:1;stroke-width:0.37795276;stroke-miterlimit:8.909091;stroke-dasharray:none" />
	<polyline
   fill="none"
   stroke="#000000"
   stroke-width="2.8347"
   stroke-miterlimit="10"
   points="2512.395,96.432 2502.148,96.432    2502.148,87.927 2482.305,87.927 2482.305,96.432 2472.059,96.432 2472.059,238.164 2482.305,238.164 2482.305,246.667    2502.148,246.667 2502.148,238.164 2512.395,238.164  "
   id="polyline44"
   style="fill:none;stroke:#ff0000;stroke-opacity:1;stroke-width:0.37795276;stroke-miterlimit:8.909091;stroke-dasharray:none" />
	<polyline
   fill="none"
   stroke="#000000"
   stroke-width="2.8347"
   stroke-miterlimit="10"
   points="2472.059,96.432 2461.811,96.432    2461.811,87.927 2441.969,87.927 2441.969,96.432 2431.721,96.432 2431.721,238.164 2441.969,238.164 2441.969,246.667    2461.811,246.667 2461.811,238.164 2472.059,238.164  "
   id="polyline46"
   style="fill:none;stroke:#ff0000;stroke-opacity:1;stroke-width:0.37795276;stroke-miterlimit:8.909091;stroke-dasharray:none" />
	<polyline
   fill="none"
   stroke="#000000"
   stroke-width="2.8347"
   stroke-miterlimit="10"
   points="2431.721,96.432 2421.475,96.432    2421.475,87.927 2401.631,87.927 2401.631,96.432 2391.385,96.432 2391.385,238.164 2401.631,238.164 2401.631,246.667    2421.475,246.667 2421.475,238.164 2431.721,238.164  "
   id="polyline48"
   style="fill:none;stroke:#ff0000;stroke-opacity:1;stroke-width:0.37795276;stroke-miterlimit:8.909091;stroke-dasharray:none" />
	<polyline
   fill="none"
   stroke="#000000"
   stroke-width="2.8347"
   stroke-miterlimit="10"
   points="2391.385,96.432 2381.137,96.432    2381.137,87.927 2361.295,87.927 2361.295,96.432 2351.047,96.432 2351.047,238.164 2361.295,238.164 2361.295,246.667    2381.137,246.667 2381.137,238.164 2391.385,238.164  "
   id="polyline50"
   style="fill:none;stroke:#ff0000;stroke-opacity:1;stroke-width:0.37795276;stroke-miterlimit:8.909091;stroke-dasharray:none" />
	<polyline
   fill="none"
   stroke="#000000"
   stroke-width="2.8347"
   stroke-miterlimit="10"
   points="2351.047,96.432 2340.801,96.432    2340.801,87.927 2320.957,87.927 2320.957,96.432 2310.711,96.432 2310.711,238.164 2320.957,238.164 2320.957,246.667    2340.801,246.667 2340.801,238.164 2351.047,238.164  "
   id="polyline52"
   style="fill:none;stroke:#ff0000;stroke-opacity:1;stroke-width:0.37795276;stroke-miterlimit:8.909091;stroke-dasharray:none" />
	<polyline
   fill="none"
   stroke="#000000"
   stroke-width="2.8347"
   stroke-miterlimit="10"
   points="2310.711,96.432 2300.463,96.432    2300.463,87.927 2280.621,87.927 2280.621,96.432 2270.373,96.432 2270.373,238.164 2280.621,238.164 2280.621,246.667    2300.463,246.667 2300.463,238.164 2310.711,238.164  "
   id="polyline54"
   style="fill:none;stroke:#ff0000;stroke-opacity:1;stroke-width:0.37795276;stroke-miterlimit:8.909091;stroke-dasharray:none" />
	<polyline
   fill="none"
   stroke="#000000"
   stroke-width="2.8347"
   stroke-miterlimit="10"
   points="2270.373,96.432 2260.127,96.432    2260.127,87.927 2240.282,87.927 2240.282,96.432 2230.037,96.432 2230.037,238.164 2240.282,238.164 2240.282,246.667    2260.127,246.667 2260.127,238.164 2270.373,238.164  "
   id="polyline56"
   style="fill:none;stroke:#ff0000;stroke-opacity:1;stroke-width:0.37795276;stroke-miterlimit:8.909091;stroke-dasharray:none" />
	<polyline
   fill="none"
   stroke="#000000"
   stroke-width="2.8347"
   stroke-miterlimit="10"
   points="2230.037,96.432 2219.789,96.432    2219.789,87.927 2199.947,87.927 2199.947,96.432 2189.698,96.432 2189.698,238.164 2199.947,238.164 2199.947,246.667    2219.789,246.667 2219.789,238.164 2230.037,238.164  "
   id="polyline58"
   style="fill:none;stroke:#ff0000;stroke-opacity:1;stroke-width:0.37795276;stroke-miterlimit:8.909091;stroke-dasharray:none" />
	<polyline
   fill="none"
   stroke="#000000"
   stroke-width="2.8347"
   stroke-miterlimit="10"
   points="2189.698,96.432 2179.452,96.432    2179.452,87.927 2159.609,87.927 2159.609,96.432 2149.363,96.432 2149.363,238.164 2159.609,238.164 2159.609,246.667    2179.452,246.667 2179.452,238.164 2189.698,238.164  "
   id="polyline60"
   style="fill:none;stroke:#ff0000;stroke-opacity:1;stroke-width:0.37795276;stroke-miterlimit:8.909091;stroke-dasharray:none" />
	<polyline
   fill="none"
   stroke="#000000"
   stroke-width="2.8347"
   stroke-miterlimit="10"
   points="2149.363,96.432 2139.115,96.432    2139.115,87.927 2119.273,87.927 2119.273,96.432 2109.025,96.432 2109.025,238.164 2119.273,238.164 2119.273,246.667    2139.115,246.667 2139.115,238.164 2149.363,238.164  "
   id="polyline62"
   style="fill:none;stroke:#ff0000;stroke-opacity:1;stroke-width:0.37795276;stroke-miterlimit:8.909091;stroke-dasharray:none" />
	<polyline
   fill="none"
   stroke="#000000"
   stroke-width="2.8347"
   stroke-miterlimit="10"
   points="2109.025,96.432 2098.779,96.432    2098.779,87.927 2078.936,87.927 2078.936,96.432 2068.689,96.432 2068.689,238.164 2078.936,238.164 2078.936,246.667    2098.779,246.667 2098.779,238.164 2109.025,238.164  "
   id="polyline64"
   style="fill:none;stroke:#ff0000;stroke-opacity:1;stroke-width:0.37795276;stroke-miterlimit:8.909091;stroke-dasharray:none" />
	<polyline
   fill="none"
   stroke="#000000"
   stroke-width="2.8347"
   stroke-miterlimit="10"
   points="2068.689,96.432 2058.441,96.432    2058.441,87.927 2038.6,87.927 2038.6,96.432 2028.352,96.432 2028.352,238.164 2038.6,238.164 2038.6,246.667 2058.441,246.667    2058.441,238.164 2068.689,238.164  "
   id="polyline66"
   style="fill:none;stroke:#ff0000;stroke-opacity:1;stroke-width:0.37795276;stroke-miterlimit:8.909091;stroke-dasharray:none" />
	<polyline
   fill="none"
   stroke="#000000"
   stroke-width="2.8347"
   stroke-miterlimit="10"
   points="2028.352,96.432 2018.105,96.432    2018.105,87.927 1998.262,87.927 1998.262,96.432 1988.016,96.432 1988.016,238.164 1998.262,238.164 1998.262,246.667    2018.105,246.667 2018.105,238.164 2028.352,238.164  "
   id="polyline68"
   style="fill:none;stroke:#ff0000;stroke-opacity:1;stroke-width:0.37795276;stroke-miterlimit:8.909091;stroke-dasharray:none" />
</g>
<path
   fill="none"
   stroke="#000000"
   stroke-width="2.8347"
   stroke-miterlimit="10"
   d="M1149.07,100.878  c-8.102-5.886-10.065-17.049-4.647-25.34c-25.947-33.046-66.265-54.272-111.537-54.272c-5.383,0-10.691,0.311-15.918,0.895  c-0.943,4.324-3.396,8.336-7.258,11.143c-8.111,5.894-19.354,4.303-25.56-3.437c-45.639,16.71-80.287,56.221-90.151,104.736  c3.829,2.229,6.896,5.809,8.375,10.356c3.094,9.519-1.871,19.699-11.117,23.228c1.821,50.666,30.233,94.551,71.709,118.117  c3.305-2.949,7.651-4.759,12.432-4.759c10.025,0,18.182,7.894,18.658,17.8c12.338,3.508,25.365,5.385,38.828,5.385  c36.866,0,70.444-14.08,95.655-37.152c-1.774-4.051-2.147-8.736-0.674-13.272c3.095-9.525,13.107-14.847,22.668-12.25  c15.205-22.582,24.08-49.781,24.08-79.056c0-20.924-4.537-40.785-12.676-58.662C1157.525,104.783,1152.941,103.691,1149.07,100.878z   M1066.896,47.774c1.252-1.708,3.65-2.08,5.359-0.829c1.707,1.25,2.075,3.646,0.825,5.354s-3.646,2.08-5.354,0.83  C1066.02,51.879,1065.646,49.483,1066.896,47.774z M933.698,90.541c1.252-1.708,3.65-2.08,5.357-0.829  c1.709,1.249,2.08,3.648,0.83,5.357c-1.25,1.708-3.648,2.08-5.357,0.83S932.448,92.25,933.698,90.541z M939.4,234.961  c-1.252,1.709-3.647,2.08-5.356,0.83s-2.08-3.646-0.83-5.354c1.25-1.709,3.647-2.08,5.356-0.83  C940.279,230.856,940.65,233.254,939.4,234.961z M1072.297,278.657c-1.25,1.707-3.648,2.08-5.357,0.828  c-1.709-1.25-2.08-3.648-0.83-5.357c1.25-1.707,3.65-2.08,5.357-0.828C1073.176,274.547,1073.547,276.948,1072.297,278.657z   M1032.885,262.86c-55.125,0-99.813-44.688-99.813-99.813s44.688-99.812,99.813-99.812s99.813,44.687,99.813,99.812  S1088.01,262.86,1032.885,262.86z M1154.916,165.766c-1.248,1.709-3.646,2.078-5.355,0.826c-1.709-1.25-2.08-3.646-0.828-5.354  c1.25-1.707,3.648-2.08,5.357-0.828C1155.795,161.658,1156.166,164.057,1154.916,165.766z"
   id="path72"
   style="fill:none;stroke:#ff0000;stroke-opacity:1;stroke-width:0.37795276;stroke-miterlimit:8.909091;stroke-dasharray:none" />
<path
   fill="none"
   stroke="#000000"
   stroke-width="2.8347"
   stroke-miterlimit="10"
   d="M1384.34,304.728  c78.151,0,141.731-63.58,141.731-141.732c0-78.149-63.58-141.729-141.731-141.729c-78.15,0-141.732,63.58-141.732,141.729  C1242.607,241.148,1306.189,304.728,1384.34,304.728z M1248.536,153.078l8.505-0.002v19.846l-8.502-0.004L1248.536,153.078z   M1258.25,214.398l-6.132-18.871l8.087-2.629l6.133,18.875L1258.25,214.398z M1280.305,250.845l-11.662-16.052l6.877-5  l11.666,16.056L1280.305,250.845z M1312.543,278.694l-16.054-11.661l4.996-6.881l16.058,11.664L1312.543,278.694z M1351.809,295.218  l-18.869-6.131l2.625-8.088l18.875,6.132L1351.809,295.218z M1394.262,298.797h-19.844v-8.505h19.844V298.797z M1416.866,295.215  l-2.627-8.088l18.871-6.132l2.629,8.088L1416.866,295.215z M1456.133,278.693l-4.998-6.881l16.053-11.662l5,6.879L1456.133,278.693z   M1488.37,250.845l-6.881-5l11.664-16.054l6.881,4.998L1488.37,250.845z M1510.426,214.398l-8.088-2.629l6.131-18.871l8.088,2.627  L1510.426,214.398z M1520.137,172.919h-8.504v-19.844h8.504V172.919z M1510.424,111.597l6.133,18.873l-8.088,2.627l-6.133-18.871  L1510.424,111.597z M1488.368,75.152l11.666,16.055l-6.883,4.996L1481.49,80.15L1488.368,75.152z M1456.131,47.304l16.057,11.664  l-5.002,6.879l-16.053-11.664L1456.131,47.304z M1416.866,30.783l18.873,6.131l-2.631,8.088l-18.871-6.133L1416.866,30.783z   M1374.418,27.197h19.844v8.504h-19.844V27.197z M1351.811,30.777l2.629,8.088l-18.873,6.131l-2.627-8.086L1351.811,30.777z   M1312.545,47.3l4.998,6.88l-16.056,11.664l-4.996-6.88L1312.545,47.3z M1280.305,75.15l6.881,4.996l-11.664,16.055l-6.879-4.998  L1280.305,75.15z M1258.25,111.597l8.088,2.627l-6.134,18.873l-8.086-2.629L1258.25,111.597z"
   id="path74"
   style="fill:none;stroke:#ff0000;stroke-opacity:1;stroke-width:0.37795276;stroke-miterlimit:8.909091;stroke-dasharray:none" />

</svg>
