<?xml version="1.0" encoding="UTF-8" standalone="no"?>
<svg
   xmlns:dc="http://purl.org/dc/elements/1.1/"
   xmlns:cc="http://creativecommons.org/ns#"
   xmlns:rdf="http://www.w3.org/1999/02/22-rdf-syntax-ns#"
   xmlns:svg="http://www.w3.org/2000/svg"
   xmlns="http://www.w3.org/2000/svg"
   xmlns:sodipodi="http://sodipodi.sourceforge.net/DTD/sodipodi-0.dtd"
   xmlns:inkscape="http://www.inkscape.org/namespaces/inkscape"
   version="1.1"
   id="svg2"
   xml:space="preserve"
   width="793.70081"
   height="1122.5197"
   viewBox="0 0 793.70081 1122.5197"
   sodipodi:docname="Phone_Stand_v_5.5.svg"
   inkscape:version="0.92.5 (2060ec1f9f, 2020-04-08)"><metadata
     id="metadata8"><rdf:RDF><cc:Work
         rdf:about=""><dc:format>image/svg+xml</dc:format><dc:type
           rdf:resource="http://purl.org/dc/dcmitype/StillImage" /><dc:title /></cc:Work></rdf:RDF></metadata><defs
     id="defs6" /><sodipodi:namedview
     pagecolor="#ffffff"
     bordercolor="#666666"
     borderopacity="1"
     objecttolerance="10"
     gridtolerance="10"
     guidetolerance="10"
     inkscape:pageopacity="0"
     inkscape:pageshadow="2"
     inkscape:window-width="2416"
     inkscape:window-height="1472"
     id="namedview4"
     showgrid="false"
     inkscape:zoom="1.8397672"
     inkscape:cx="315.04209"
     inkscape:cy="850.63961"
     inkscape:window-x="144"
     inkscape:window-y="54"
     inkscape:window-maximized="1"
     inkscape:current-layer="g10" /><g
     id="g10"
     inkscape:groupmode="layer"
     inkscape:label="Phone_Stand_v_5.5"
     transform="matrix(1.3333333,0,0,-1.3333333,0,1122.5197)"><g
       id="g951"
       transform="rotate(-90,173.88552,671.33107)"><g
         transform="translate(0,-0.040745)"
         id="g1012"><path
           id="path122-5"
           style="fill:none;stroke:#ff0000;stroke-width:0.21600001;stroke-linecap:butt;stroke-linejoin:bevel;stroke-miterlimit:22.92560005;stroke-dasharray:none;stroke-opacity:1"
           d="m 119.67991,718.53981 h 6.3791 v 12.7559 h -6.3788"
           inkscape:connector-curvature="0" /><path
           id="path122-3-3"
           style="fill:none;stroke:#ff0000;stroke-width:0.21600001;stroke-linecap:butt;stroke-linejoin:bevel;stroke-miterlimit:22.92560005;stroke-dasharray:none;stroke-opacity:1"
           d="m 119.67991,750.44144 h 6.3791 v 12.7559 h -6.3788"
           inkscape:connector-curvature="0" /><path
           id="path122-6-5"
           style="fill:none;stroke:#ff0000;stroke-width:0.21600001;stroke-linecap:butt;stroke-linejoin:bevel;stroke-miterlimit:22.92560005;stroke-dasharray:none;stroke-opacity:1"
           d="m 119.67991,686.63817 h 6.3791 v 12.75591 h -6.3788"
           inkscape:connector-curvature="0" /></g><path
         id="path12"
         style="fill:none;stroke:#ff0000;stroke-width:0.21600001;stroke-linecap:butt;stroke-linejoin:bevel;stroke-miterlimit:22.92560005;stroke-dasharray:none;stroke-opacity:1"
         d="m 76.0419,627.4123 h 65.6433 l 0.474,0.1865 0.1956,0.4487 v 0.3427 l -0.1965,0.4493 -0.4731,0.1859 H 76.0419 l -0.4736,-0.1865 -0.1956,-0.4487 v -0.3427 l 0.1964,-0.4493 z"
         inkscape:connector-curvature="0" /><path
         id="path14"
         style="fill:none;stroke:#ff0000;stroke-width:0.21600001;stroke-linecap:butt;stroke-linejoin:bevel;stroke-miterlimit:22.92560005;stroke-dasharray:none;stroke-opacity:1"
         d="m 76.0419,792.7489 h 65.6433 l 0.4737,-0.1859 0.1959,-0.4493 5e-4,-0.3427 -0.1961,-0.449 -0.4737,-0.1863 H 76.0419 l -0.4734,0.186 -0.1958,0.4493 v 0.3427 l 0.1953,0.449 z"
         inkscape:connector-curvature="0" /><path
         id="path16"
         style="fill:none;stroke:#ff0000;stroke-width:0.21600001;stroke-linecap:butt;stroke-linejoin:bevel;stroke-miterlimit:22.92560005;stroke-dasharray:none;stroke-opacity:1"
         d="m 177.9732,580.0348 v 0.343 l -0.1967,0.4493 -0.4731,0.1857 h -65.6433 l -0.474,-0.1865 -0.1958,-0.4485 v -0.343 l 0.1967,-0.4493 0.4731,-0.1856 h 65.6433 l 0.474,0.1862 z"
         inkscape:connector-curvature="0" /><path
         id="path18"
         style="fill:none;stroke:#ff0000;stroke-width:0.21600001;stroke-linecap:butt;stroke-linejoin:bevel;stroke-miterlimit:22.92560005;stroke-dasharray:none;stroke-opacity:1"
         d="m 39.7542,787.335 v 0.343 l 0.1959,0.449 0.4739,0.186 h 65.6433 l 0.4737,-0.1857 0.1964,-0.4493 v -0.343 l -0.1961,-0.449 -0.474,-0.1859 H 40.424 l -0.4734,0.1856 z"
         inkscape:connector-curvature="0" /><path
         id="path20"
         style="fill:none;stroke:#ff0000;stroke-width:0.21600001;stroke-linecap:butt;stroke-linejoin:bevel;stroke-miterlimit:22.92560005;stroke-dasharray:none;stroke-opacity:1"
         d="m 35.5017,800.0073 h 34.948 l 0.4734,0.1862 0.1965,0.4491 v 0.3427 l -0.1965,0.449 -0.4734,0.1862 H 35.5017 V 600.7969 h 34.948 l 0.4734,0.186 0.1965,0.449 v 0.343 l -0.1965,0.449 -0.4734,0.1859 h -34.948"
         inkscape:connector-curvature="0" /><path
         id="path22"
         style="fill:none;stroke:#ff0000;stroke-width:0.21600001;stroke-linecap:butt;stroke-linejoin:bevel;stroke-miterlimit:22.92560005;stroke-dasharray:none;stroke-opacity:1"
         d="m 39.7542,615.0827 v -0.343 l 0.197,-0.4493 0.4728,-0.1857 h 65.6433 l 0.474,0.1865 0.1961,0.4485 v 0.343 l -0.197,0.4493 -0.4731,0.1859 H 40.424 l -0.4739,-0.1865 z"
         inkscape:connector-curvature="0" /><path
         id="path24"
         style="fill:none;stroke:#ff0000;stroke-width:0.21600001;stroke-linecap:butt;stroke-linejoin:bevel;stroke-miterlimit:22.92560005;stroke-dasharray:none;stroke-opacity:1"
         d="m 39.7542,562.2917 v 0.3429 l 0.1959,0.4491 0.4739,0.1859 65.6433,-3e-4 0.4737,-0.1856 0.1962,-0.4493 v -0.343 l -0.1959,-0.449 -0.474,-0.186 -65.6433,3e-4 -0.4734,0.1857 z"
         inkscape:connector-curvature="0" /><path
         id="path26"
         style="fill:none;stroke:#ff0000;stroke-width:0.21600001;stroke-linecap:butt;stroke-linejoin:bevel;stroke-miterlimit:22.92560005;stroke-dasharray:none;stroke-opacity:1"
         d="m 39.7542,623.9546 v -0.343 l 0.197,-0.4493 0.4728,-0.1857 h 65.6433 l 0.474,0.1862 0.1961,0.4488 v 0.343 l -0.197,0.4492 -0.4731,0.1857 H 40.424 l -0.4739,-0.1865 z"
         inkscape:connector-curvature="0" /><path
         id="path28"
         style="fill:none;stroke:#ff0000;stroke-width:0.21600001;stroke-linecap:butt;stroke-linejoin:bevel;stroke-miterlimit:22.92560005;stroke-dasharray:none;stroke-opacity:1"
         d="m 177.9732,571.163 v 0.343 l -0.1967,0.4492 -0.4731,0.186 h -65.6433 l -0.474,-0.1865 -0.1958,-0.4487 v -0.343 l 0.1967,-0.4493 0.4731,-0.1857 h 65.6433 l 0.474,0.1865 z"
         inkscape:connector-curvature="0" /><path
         id="path30"
         style="fill:none;stroke:#ff0000;stroke-width:0.21600001;stroke-linecap:butt;stroke-linejoin:bevel;stroke-miterlimit:22.92560005;stroke-dasharray:none;stroke-opacity:1"
         d="m 39.7545,571.1632 v 0.343 l 0.1959,0.449 0.4739,0.1863 65.6433,-3e-4 0.4737,-0.186 0.1961,-0.4492 v -0.343 l -0.1958,-0.4488 -0.474,-0.1862 -65.6433,3e-4 -0.4734,0.1857 z"
         inkscape:connector-curvature="0" /><path
         id="path32"
         style="fill:none;stroke:#ff0000;stroke-width:0.21600001;stroke-linecap:butt;stroke-linejoin:bevel;stroke-miterlimit:22.92560005;stroke-dasharray:none;stroke-opacity:1"
         d="m 177.9732,796.2066 v 0.343 l -0.1967,0.4493 -0.4731,0.1857 h -65.6436 l -0.4739,-0.1863 -0.1956,-0.4487 v -0.343 l 0.1967,-0.4493 0.4728,-0.1856 h 65.6436 l 0.4737,0.1865 z"
         inkscape:connector-curvature="0" /><path
         id="path34"
         style="fill:none;stroke:#ff0000;stroke-width:0.21600001;stroke-linecap:butt;stroke-linejoin:bevel;stroke-miterlimit:22.92560005;stroke-dasharray:none;stroke-opacity:1"
         d="m 177.9729,562.2914 v 0.343 l -0.1967,0.4493 -0.4731,0.1856 h -65.6433 l -0.4739,-0.1862 -0.1959,-0.4487 v -0.343 l 0.1967,-0.4493 0.4731,-0.1857 h 65.6433 l 0.474,0.1862 z"
         inkscape:connector-curvature="0" /><path
         id="path36"
         style="fill:none;stroke:#ff0000;stroke-width:0.21600001;stroke-linecap:butt;stroke-linejoin:bevel;stroke-miterlimit:22.92560005;stroke-dasharray:none;stroke-opacity:1"
         d="m 76.0419,620.1536 h 65.6433 l 0.4737,-0.1857 0.1959,-0.4493 v -0.343 l -0.1956,-0.449 -0.474,-0.1859 H 76.0419 l -0.4734,0.1856 -0.1958,0.4493 v 0.343 l 0.1953,0.449 z"
         inkscape:connector-curvature="0" /><path
         id="path38"
         style="fill:none;stroke:#ff0000;stroke-width:0.21600001;stroke-linecap:butt;stroke-linejoin:bevel;stroke-miterlimit:22.92560005;stroke-dasharray:none;stroke-opacity:1"
         d="m 182.226,800.0073 h -34.9483 l -0.4737,0.1862 -0.1964,0.4491 v 0.3427 l 0.1964,0.449 0.4737,0.1862 H 182.226 V 600.7969 h -34.9483 l -0.4737,0.186 -0.1964,0.449 v 0.343 l 0.1964,0.449 0.4737,0.1859 h 34.9483"
         inkscape:connector-curvature="0" /><path
         id="path40"
         style="fill:none;stroke:#ff0000;stroke-width:0.21600001;stroke-linecap:butt;stroke-linejoin:bevel;stroke-miterlimit:22.92560005;stroke-dasharray:none;stroke-opacity:1"
         d="m 177.9732,623.9546 v -0.343 l -0.1961,-0.449 -0.4737,-0.186 h -65.6436 l -0.4737,0.1857 -0.1958,0.4493 v 0.343 l 0.1956,0.449 0.4739,0.1859 h 65.6436 l 0.4734,-0.1857 z"
         inkscape:connector-curvature="0" /><path
         id="path42"
         style="fill:none;stroke:#ff0000;stroke-width:0.21600001;stroke-linecap:butt;stroke-linejoin:bevel;stroke-miterlimit:22.92560005;stroke-dasharray:none;stroke-opacity:1"
         d="m 39.7542,796.2066 v 0.343 l 0.1959,0.449 0.4739,0.186 h 65.6433 l 0.4737,-0.1857 0.1964,-0.4493 v -0.343 l -0.1961,-0.449 -0.474,-0.1859 H 40.424 l -0.4734,0.1856 z"
         inkscape:connector-curvature="0" /><path
         id="path44"
         style="fill:none;stroke:#ff0000;stroke-width:0.21600001;stroke-linecap:butt;stroke-linejoin:bevel;stroke-miterlimit:22.92560005;stroke-dasharray:none;stroke-opacity:1"
         d="m 39.7545,588.9067 v 0.343 l 0.1959,0.449 0.4739,0.186 65.6433,-3e-4 0.4737,-0.1857 0.1961,-0.4493 v -0.343 l -0.1958,-0.449 -0.474,-0.1859 -65.6433,2e-4 -0.4734,0.1857 z"
         inkscape:connector-curvature="0" /><path
         id="path46"
         style="fill:none;stroke:#ff0000;stroke-width:0.21600001;stroke-linecap:butt;stroke-linejoin:bevel;stroke-miterlimit:22.92560005;stroke-dasharray:none;stroke-opacity:1"
         d="m 177.9732,615.0827 v -0.343 l -0.1961,-0.4487 -0.4737,-0.1863 h -65.6436 l -0.4737,0.1857 -0.1958,0.4493 v 0.343 l 0.1956,0.449 0.4739,0.1862 h 65.6436 l 0.4734,-0.1859 z"
         inkscape:connector-curvature="0" /><path
         id="path48"
         style="fill:none;stroke:#ff0000;stroke-width:0.21600001;stroke-linecap:butt;stroke-linejoin:bevel;stroke-miterlimit:22.92560005;stroke-dasharray:none;stroke-opacity:1"
         d="m 39.7545,580.0351 v 0.343 l 0.1959,0.449 0.4739,0.186 65.6433,-3e-4 0.4737,-0.1857 0.1961,-0.4493 v -0.343 l -0.1958,-0.449 -0.474,-0.1859 -65.6433,3e-4 -0.4734,0.1856 z"
         inkscape:connector-curvature="0" /><path
         id="path50"
         style="fill:none;stroke:#ff0000;stroke-width:0.21600001;stroke-linecap:butt;stroke-linejoin:bevel;stroke-miterlimit:22.92560005;stroke-dasharray:none;stroke-opacity:1"
         d="m 177.9732,588.9064 v 0.343 l -0.1967,0.4493 -0.4731,0.1857 h -65.6433 l -0.474,-0.1863 -0.1958,-0.4487 v -0.343 l 0.1967,-0.4493 0.4731,-0.1856 h 65.6433 l 0.474,0.1865 z"
         inkscape:connector-curvature="0" /><path
         id="path52"
         style="fill:none;stroke:#ff0000;stroke-width:0.21600001;stroke-linecap:butt;stroke-linejoin:bevel;stroke-miterlimit:22.92560005;stroke-dasharray:none;stroke-opacity:1"
         d="m 177.9732,787.335 v 0.343 l -0.1967,0.4493 -0.4731,0.1857 h -65.6436 l -0.4739,-0.1865 -0.1956,-0.4485 v -0.343 l 0.1967,-0.4493 0.4728,-0.1856 h 65.6436 l 0.4737,0.1862 z"
         inkscape:connector-curvature="0" /><path
         id="path54"
         style="fill:none;stroke:#ff0000;stroke-width:0.21600001;stroke-linecap:butt;stroke-linejoin:bevel;stroke-miterlimit:22.92560005;stroke-dasharray:none;stroke-opacity:1"
         d="m 76.0419,783.877 h 65.6433 l 0.4737,-0.1856 0.1959,-0.4493 v -0.343 l -0.1956,-0.449 -0.4737,-0.186 H 76.0419 l -0.4734,0.1857 -0.1958,0.4493 v 0.343 l 0.1953,0.449 z"
         inkscape:connector-curvature="0" /><path
         id="path56"
         style="fill:none;stroke:#ff0000;stroke-width:0.21600001;stroke-linecap:butt;stroke-linejoin:bevel;stroke-miterlimit:22.92560005;stroke-dasharray:none;stroke-opacity:1"
         d="m 142.3548,567.07 v -0.3427 l -0.1956,-0.449 -0.474,-0.1862 -65.643,2e-4 -0.4737,0.186 -0.1961,0.4493 v 0.3427 l 0.1956,0.449 0.4742,0.1862 65.643,-2e-4 0.4734,-0.1857 z"
         inkscape:connector-curvature="0" /><path
         id="path58"
         style="fill:none;stroke:#ff0000;stroke-width:0.21600001;stroke-linecap:butt;stroke-linejoin:bevel;stroke-miterlimit:22.92560005;stroke-dasharray:none;stroke-opacity:1"
         d="m 142.3551,575.9419 v -0.343 l -0.1956,-0.449 -0.474,-0.186 -65.643,3e-4 -0.4737,0.1857 -0.1961,0.4493 v 0.343 l 0.1956,0.449 0.4742,0.1859 65.643,-2e-4 0.4734,-0.1857 z"
         inkscape:connector-curvature="0" /><path
         id="path60"
         style="fill:none;stroke:#ff0000;stroke-width:0.21600001;stroke-linecap:butt;stroke-linejoin:bevel;stroke-miterlimit:22.92560005;stroke-dasharray:none;stroke-opacity:1"
         d="m 142.3551,584.8135 v -0.3427 l -0.1956,-0.449 -0.474,-0.1863 -65.643,3e-4 -0.4737,0.186 -0.1961,0.4493 v 0.3427 l 0.1956,0.449 0.4742,0.1862 65.643,-3e-4 0.4734,-0.1859 z"
         inkscape:connector-curvature="0" /><path
         id="path62"
         style="fill:none;stroke:#ff0000;stroke-width:0.21600001;stroke-linecap:butt;stroke-linejoin:bevel;stroke-miterlimit:22.92560005;stroke-dasharray:none;stroke-opacity:1"
         d="m 182.2258,566.0921 h -34.9484 l -0.4734,0.1862 -0.1964,0.449 v 0.3427 l 0.1964,0.449 0.4734,0.1863 h 34.9484"
         inkscape:connector-curvature="0" /><path
         id="path64"
         style="fill:none;stroke:#ff0000;stroke-width:0.21600001;stroke-linecap:butt;stroke-linejoin:bevel;stroke-miterlimit:22.92560005;stroke-dasharray:none;stroke-opacity:1"
         d="m 182.226,574.9639 h -34.9483 l -0.4734,0.186 -0.1964,0.449 v 0.343 l 0.1964,0.449 0.4734,0.186 h 34.9483"
         inkscape:connector-curvature="0" /><path
         id="path66"
         style="fill:none;stroke:#ff0000;stroke-width:0.21600001;stroke-linecap:butt;stroke-linejoin:bevel;stroke-miterlimit:22.92560005;stroke-dasharray:none;stroke-opacity:1"
         d="M 35.5017,583.8358 H 70.45 l 0.4734,0.1862 0.1964,0.4491 v 0.3427 l -0.1964,0.449 -0.4734,0.1862 H 35.5017 l -3e-4,-34.2536 c 0,-1.5037 0.5975,-2.9457 1.6605,-4.009 1.0633,-1.063 2.5053,-1.6603 4.0088,-1.6603 l 135.3858,-2e-4 c 3.1311,0 5.6693,2.5384 5.6693,5.6692 l 2e-4,34.2536 h -34.9483 l -0.4734,-0.1862 -0.1964,-0.449 v -0.3427 l 0.1964,-0.449 0.4734,-0.1863 h 34.9483"
         inkscape:connector-curvature="0" /><path
         id="path68"
         style="fill:none;stroke:#ff0000;stroke-width:0.21600001;stroke-linecap:butt;stroke-linejoin:bevel;stroke-miterlimit:22.92560005;stroke-dasharray:none;stroke-opacity:1"
         d="M 35.5017,574.9642 H 70.45 l 0.4734,0.186 0.1964,0.449 v 0.343 l -0.1964,0.449 -0.4734,0.1859 H 35.5017"
         inkscape:connector-curvature="0" /><path
         id="path70"
         style="fill:none;stroke:#ff0000;stroke-width:0.21600001;stroke-linecap:butt;stroke-linejoin:bevel;stroke-miterlimit:22.92560005;stroke-dasharray:none;stroke-opacity:1"
         d="m 35.5014,566.0923 h 34.9483 l 0.4734,0.1863 0.1965,0.449 v 0.3427 l -0.1965,0.449 -0.4734,0.1862 H 35.5014"
         inkscape:connector-curvature="0" /><path
         id="path72"
         style="fill:none;stroke:#ff0000;stroke-width:0.21600001;stroke-linecap:butt;stroke-linejoin:bevel;stroke-miterlimit:22.92560005;stroke-dasharray:none;stroke-opacity:1"
         d="m 35.5017,618.5407 h 34.948 l 0.4734,0.1859 0.1965,0.449 v 0.343 l -0.1965,0.449 -0.4734,0.186 h -34.948"
         inkscape:connector-curvature="0" /><path
         id="path74"
         style="fill:none;stroke:#ff0000;stroke-width:0.21600001;stroke-linecap:butt;stroke-linejoin:bevel;stroke-miterlimit:22.92560005;stroke-dasharray:none;stroke-opacity:1"
         d="m 35.5017,629.0254 h 34.948 l 0.4734,-0.1862 0.1965,-0.449 v -0.3427 l -0.1965,-0.449 -0.4734,-0.1862 h -34.948"
         inkscape:connector-curvature="0" /><path
         id="path76"
         style="fill:none;stroke:#ff0000;stroke-width:0.21600001;stroke-linecap:butt;stroke-linejoin:bevel;stroke-miterlimit:22.92560005;stroke-dasharray:none;stroke-opacity:1"
         d="m 182.226,629.0254 h -34.9483 l -0.4737,-0.1862 -0.1964,-0.449 v -0.3427 l 0.1964,-0.449 0.4737,-0.1862 h 34.9483"
         inkscape:connector-curvature="0" /><path
         id="path78"
         style="fill:none;stroke:#ff0000;stroke-width:0.21600001;stroke-linecap:butt;stroke-linejoin:bevel;stroke-miterlimit:22.92560005;stroke-dasharray:none;stroke-opacity:1"
         d="m 182.226,620.1536 h -34.9483 l -0.4737,-0.186 -0.1964,-0.449 v -0.343 l 0.1964,-0.449 0.4737,-0.1859 h 34.9483"
         inkscape:connector-curvature="0" /><path
         id="path80"
         style="fill:none;stroke:#ff0000;stroke-width:0.21600001;stroke-linecap:butt;stroke-linejoin:bevel;stroke-miterlimit:22.92560005;stroke-dasharray:none;stroke-opacity:1"
         d="m 182.226,791.1357 h -34.9483 l -0.4737,0.1863 -0.1964,0.449 v 0.3427 l 0.1964,0.449 0.4737,0.1862 h 34.9483"
         inkscape:connector-curvature="0" /><path
         id="path82"
         style="fill:none;stroke:#ff0000;stroke-width:0.21600001;stroke-linecap:butt;stroke-linejoin:bevel;stroke-miterlimit:22.92560005;stroke-dasharray:none;stroke-opacity:1"
         d="m 182.226,783.877 h -34.9483 l -0.4737,-0.1859 -0.1964,-0.449 v -0.343 l 0.1964,-0.449 0.4737,-0.186 h 34.9483"
         inkscape:connector-curvature="0" /><path
         id="path84"
         style="fill:none;stroke:#ff0000;stroke-width:0.21600001;stroke-linecap:butt;stroke-linejoin:bevel;stroke-miterlimit:22.92560005;stroke-dasharray:none;stroke-opacity:1"
         d="m 35.5017,792.7489 h 34.948 l 0.4734,-0.1862 0.1965,-0.449 v -0.3427 l -0.1965,-0.449 -0.4734,-0.1863 h -34.948"
         inkscape:connector-curvature="0" /><path
         id="path86"
         style="fill:none;stroke:#ff0000;stroke-width:0.21600001;stroke-linecap:butt;stroke-linejoin:bevel;stroke-miterlimit:22.92560005;stroke-dasharray:none;stroke-opacity:1"
         d="m 35.5017,783.877 h 34.948 l 0.4734,-0.1859 0.1965,-0.449 v -0.343 l -0.1965,-0.449 -0.4734,-0.186 h -34.948"
         inkscape:connector-curvature="0" /><path
         id="path88"
         style="fill:none;stroke:#ff0000;stroke-width:0.21600001;stroke-linecap:butt;stroke-linejoin:bevel;stroke-miterlimit:22.92560005;stroke-dasharray:none;stroke-opacity:1"
         d="m 39.7542,606.2108 v -0.343 l 0.197,-0.4493 0.4728,-0.1856 h 65.6433 l 0.474,0.1865 0.1961,0.4484 v 0.343 l -0.197,0.4493 -0.4731,0.1859 H 40.424 l -0.4739,-0.1865 z"
         inkscape:connector-curvature="0" /><path
         id="path90"
         style="fill:none;stroke:#ff0000;stroke-width:0.21600001;stroke-linecap:butt;stroke-linejoin:bevel;stroke-miterlimit:22.92560005;stroke-dasharray:none;stroke-opacity:1"
         d="m 76.0419,611.2817 h 65.6433 l 0.4737,-0.1857 0.1959,-0.4493 v -0.343 l -0.1956,-0.449 -0.474,-0.1859 H 76.0419 l -0.4734,0.1857 -0.1958,0.4492 v 0.343 l 0.1953,0.449 z"
         inkscape:connector-curvature="0" /><path
         id="path92"
         style="fill:none;stroke:#ff0000;stroke-width:0.21600001;stroke-linecap:butt;stroke-linejoin:bevel;stroke-miterlimit:22.92560005;stroke-dasharray:none;stroke-opacity:1"
         d="m 177.9732,606.2108 v -0.343 l -0.1961,-0.4487 -0.4737,-0.1862 h -65.6436 l -0.4737,0.1856 -0.1958,0.4493 v 0.343 l 0.1956,0.449 0.4739,0.1862 h 65.6436 l 0.4734,-0.1859 z"
         inkscape:connector-curvature="0" /><path
         id="path94"
         style="fill:none;stroke:#ff0000;stroke-width:0.21600001;stroke-linecap:butt;stroke-linejoin:bevel;stroke-miterlimit:22.92560005;stroke-dasharray:none;stroke-opacity:1"
         d="m 35.5017,609.6688 h 34.948 l 0.4734,0.1859 0.1965,0.449 v 0.343 l -0.1965,0.449 -0.4734,0.186 h -34.948"
         inkscape:connector-curvature="0" /><path
         id="path96"
         style="fill:none;stroke:#ff0000;stroke-width:0.21600001;stroke-linecap:butt;stroke-linejoin:bevel;stroke-miterlimit:22.92560005;stroke-dasharray:none;stroke-opacity:1"
         d="m 182.226,611.2817 h -34.9483 l -0.4737,-0.186 -0.1964,-0.449 v -0.343 l 0.1964,-0.449 0.4737,-0.1859 h 34.9483"
         inkscape:connector-curvature="0" /><path
         id="path98"
         style="fill:none;stroke:#ff0000;stroke-width:0.21600001;stroke-linecap:butt;stroke-linejoin:bevel;stroke-miterlimit:22.92560005;stroke-dasharray:none;stroke-opacity:1"
         d="m 76.0419,801.6205 h 65.6433 l 0.4737,-0.1859 0.1959,-0.4493 5e-4,-0.3427 -0.1961,-0.4491 -0.4737,-0.1862 H 76.0419 l -0.4734,0.186 -0.1958,0.4493 v 0.3427 l 0.1953,0.449 z"
         inkscape:connector-curvature="0" /><path
         id="path100"
         style="fill:none;stroke:#ff0000;stroke-width:0.21600001;stroke-linecap:butt;stroke-linejoin:bevel;stroke-miterlimit:22.92560005;stroke-dasharray:none;stroke-opacity:1"
         d="m 177.9732,805.0782 v 0.343 l -0.1967,0.4493 -0.4731,0.1857 h -65.6436 l -0.4739,-0.1863 -0.1956,-0.4487 v -0.343 l 0.1967,-0.4493 0.4728,-0.1857 h 65.6436 l 0.4737,0.1866 z"
         inkscape:connector-curvature="0" /><path
         id="path102"
         style="fill:none;stroke:#ff0000;stroke-width:0.21600001;stroke-linecap:butt;stroke-linejoin:bevel;stroke-miterlimit:22.92560005;stroke-dasharray:none;stroke-opacity:1"
         d="m 39.7542,805.0782 v 0.343 l 0.1959,0.449 0.4739,0.186 h 65.6433 l 0.4737,-0.1857 0.1964,-0.4493 v -0.343 l -0.1961,-0.449 -0.474,-0.186 H 40.424 l -0.4734,0.1857 z"
         inkscape:connector-curvature="0" /><path
         id="path104"
         style="fill:none;stroke:#ff0000;stroke-width:0.21600001;stroke-linecap:butt;stroke-linejoin:bevel;stroke-miterlimit:22.92560005;stroke-dasharray:none;stroke-opacity:1"
         d="m 39.7542,597.3389 v -0.343 l 0.197,-0.4493 0.4728,-0.1856 h 65.6433 l 0.474,0.1865 0.1961,0.4484 v 0.343 l -0.197,0.4493 -0.4731,0.186 H 40.424 l -0.4739,-0.1865 z"
         inkscape:connector-curvature="0" /><path
         id="path106"
         style="fill:none;stroke:#ff0000;stroke-width:0.21600001;stroke-linecap:butt;stroke-linejoin:bevel;stroke-miterlimit:22.92560005;stroke-dasharray:none;stroke-opacity:1"
         d="m 76.0419,602.4098 h 65.6433 l 0.4737,-0.1856 0.1959,-0.4493 v -0.343 l -0.1956,-0.449 -0.474,-0.186 H 76.0419 l -0.4734,0.1857 -0.1958,0.4493 v 0.343 l 0.1953,0.449 z"
         inkscape:connector-curvature="0" /><path
         id="path108"
         style="fill:none;stroke:#ff0000;stroke-width:0.21600001;stroke-linecap:butt;stroke-linejoin:bevel;stroke-miterlimit:22.92560005;stroke-dasharray:none;stroke-opacity:1"
         d="m 177.9732,597.3389 v -0.343 l -0.1961,-0.4487 -0.4737,-0.1862 h -65.6436 l -0.4737,0.1856 -0.1958,0.4493 v 0.343 l 0.1956,0.449 0.4739,0.1863 h 65.6436 l 0.4734,-0.186 z"
         inkscape:connector-curvature="0" /><path
         id="path110"
         style="fill:none;stroke:#ff0000;stroke-width:0.21600001;stroke-linecap:butt;stroke-linejoin:bevel;stroke-miterlimit:22.92560005;stroke-dasharray:none;stroke-opacity:1"
         d="m 32.6631,524.9597 c -3.7588,2e-4 -7.3639,1.4932 -10.0219,4.1513 -2.6581,2.658 -4.1514,6.2631 -4.1514,10.0219 v 268.8809 c 0,3.7587 1.4933,7.3638 4.1514,10.0219 2.658,2.658 6.2631,4.151 10.0219,4.151 h 152.4013 c 3.7587,0 7.3638,-1.493 10.0219,-4.151 2.658,-2.6581 4.1513,-6.2632 4.1513,-10.0219 V 539.1329 c -3e-4,-7.8276 -6.3456,-14.173 -14.1732,-14.1732 z"
         inkscape:connector-curvature="0" /><path
         id="path112"
         style="fill:none;stroke:#ff0000;stroke-width:0.21600001;stroke-linecap:butt;stroke-linejoin:bevel;stroke-miterlimit:22.92560005;stroke-dasharray:none;stroke-opacity:1"
         d="m 62.6145,700.9503 v -17.0078 h 8.5039 v 17.0078 h 2.8347 v 24.0945 l -7.0866,-7.0866 -7.0867,7.0869 v -24.0948 z"
         inkscape:connector-curvature="0" /><path
         id="path114"
         style="fill:none;stroke:#ff0000;stroke-width:0.21600001;stroke-linecap:butt;stroke-linejoin:bevel;stroke-miterlimit:22.92560005;stroke-dasharray:none;stroke-opacity:1"
         d="m 58.1788,655.8287 c -1.5037,3e-4 -2.9457,0.5976 -4.009,1.6606 -1.063,1.0632 -1.6603,2.5052 -1.6603,4.0087 v 85.9913 c 0,1.5037 0.5973,2.9457 1.6603,4.009 1.0633,1.063 2.5053,1.6603 4.009,1.6603 h 17.3756 c 1.5035,0 2.9454,-0.5973 4.0087,-1.6603 1.063,-1.0633 1.6603,-2.5053 1.6603,-4.009 V 661.498 c 0,-3.1309 -2.5382,-5.669 -5.6693,-5.6693 z"
         inkscape:connector-curvature="0" /><path
         id="path116"
         style="fill:none;stroke:#ff0000;stroke-width:0.21600001;stroke-linecap:butt;stroke-linejoin:bevel;stroke-miterlimit:22.92560005;stroke-dasharray:none;stroke-opacity:1"
         d="m 142.1731,753.1586 c -1.5035,0 -2.9455,-0.5973 -4.0088,-1.6603 -1.063,-1.0633 -1.6602,-2.5053 -1.6602,-4.0088 V 661.498 c 0,-1.5035 0.5972,-2.9455 1.6602,-4.0087 1.0633,-1.063 2.5053,-1.6603 4.0091,-1.6603 h 17.3752 c 3.1311,0 5.6693,2.5381 5.6693,5.669 v 85.9915 c 0,1.5035 -0.5973,2.9455 -1.6603,4.0088 -1.0632,1.063 -2.5052,1.6603 -4.009,1.6603 z"
         inkscape:connector-curvature="0" /><path
         id="path118"
         style="fill:none;stroke:#ff0000;stroke-width:0.21600001;stroke-linecap:butt;stroke-linejoin:bevel;stroke-miterlimit:22.92560005;stroke-dasharray:none;stroke-opacity:1"
         d="m 35.5017,775.8357 c 0,-1.5035 0.5972,-2.9455 1.6602,-4.0087 1.0633,-1.063 2.5053,-1.6603 4.0091,-1.6603"
         inkscape:connector-curvature="0" /><path
         id="path120"
         style="fill:none;stroke:#ff0000;stroke-width:0.21600001;stroke-linecap:butt;stroke-linejoin:bevel;stroke-miterlimit:22.92560005;stroke-dasharray:none;stroke-opacity:1"
         d="m 176.5568,770.1667 c 3.1308,0 5.669,2.5382 5.669,5.669"
         inkscape:connector-curvature="0" /><path
         id="path122"
         style="fill:none;stroke:#ff0000;stroke-width:0.21600001;stroke-linecap:butt;stroke-linejoin:bevel;stroke-miterlimit:22.92560005;stroke-dasharray:none;stroke-opacity:1"
         d="m 98.2315,718.49906 h -6.3791 v 12.7559 h 6.3788"
         inkscape:connector-curvature="0" /><path
         id="path126"
         style="fill:none;stroke:#ff0000;stroke-width:0.21600001;stroke-linecap:butt;stroke-linejoin:bevel;stroke-miterlimit:22.92560005;stroke-dasharray:none;stroke-opacity:1"
         d="m 49.9198,558.089 h 9.3543 v -8.5039 h -9.3543 z"
         inkscape:connector-curvature="0" /><path
         id="path128"
         style="fill:none;stroke:#ff0000;stroke-width:0.21600001;stroke-linecap:butt;stroke-linejoin:bevel;stroke-miterlimit:22.92560005;stroke-dasharray:none;stroke-opacity:1"
         d="m 167.8076,558.089 h -9.3543 v -8.5039 h 9.3543 z"
         inkscape:connector-curvature="0" /><path
         id="path130"
         style="fill:none;stroke:#ff0000;stroke-width:0.21600001;stroke-linecap:butt;stroke-linejoin:bevel;stroke-miterlimit:22.92560005;stroke-dasharray:none;stroke-opacity:1"
         d="m 182.226,764.4971 c 0,1.5038 -0.5975,2.9458 -1.6605,4.0091 -1.0633,1.063 -2.5052,1.6602 -4.0087,1.6602 h -51.3916 c -1.5038,0 -2.9458,-0.5972 -4.009,-1.6602 -1.063,-1.0633 -1.6603,-2.5053 -1.6603,-4.0091 V 659.2303 c 0,-0.902 0.3583,-1.7671 0.9961,-2.4052 0.6381,-0.6378 1.5032,-0.9961 2.4058,-0.9964 h 3.8279 c 0.902,0 1.7671,-0.3583 2.4052,-0.9961 0.6378,-0.638 0.9963,-1.5032 0.9963,-2.4055 v -6.5196 h -4.2519 v -7.937 H 91.8524 v 7.9372 h -4.2519 v 6.5194 c 0,0.9023 0.3583,1.7675 0.9961,2.4055 0.638,0.6378 1.5032,0.9961 2.4054,0.9961 h 3.828 c 1.8785,3e-4 3.4012,1.5231 3.4015,3.4016 l -3e-4,105.2668 c 0,1.5038 -0.5972,2.9458 -1.6602,4.0091 -1.0633,1.063 -2.5053,1.6602 -4.009,1.6602 H 41.171 c -1.5038,0 -2.9458,-0.5972 -4.0091,-1.6602 -1.063,-1.0633 -1.6602,-2.5053 -1.6602,-4.0091"
         inkscape:connector-curvature="0" /><path
         id="path132"
         style="fill:none;stroke:#ff0000;stroke-width:0.21600001;stroke-linecap:butt;stroke-linejoin:bevel;stroke-miterlimit:22.92560005;stroke-dasharray:none;stroke-opacity:1"
         d="m 49.9198,545.5261 v -2.2677 h 9.3543 v 2.2677"
         inkscape:connector-curvature="0" /><path
         id="path134"
         style="fill:none;stroke:#ff0000;stroke-width:0.21600001;stroke-linecap:butt;stroke-linejoin:bevel;stroke-miterlimit:22.92560005;stroke-dasharray:none;stroke-opacity:1"
         d="m 167.8076,545.5259 v -2.2678 h -9.3543 v 2.2678"
         inkscape:connector-curvature="0" /><path
         id="path136"
         style="fill:none;stroke:#ff0000;stroke-width:0.21600001;stroke-linecap:butt;stroke-linejoin:bevel;stroke-miterlimit:22.92560005;stroke-dasharray:none;stroke-opacity:1"
         d="m 146.609,700.9503 v -17.0078 h 8.5039 v 17.0078 h 2.8347 v 24.0945 l -7.0866,-7.0866 -7.0866,7.0869 v -24.0948 z"
         inkscape:connector-curvature="0" /><path
         id="path122-3"
         style="fill:none;stroke:#ff0000;stroke-width:0.21600001;stroke-linecap:butt;stroke-linejoin:bevel;stroke-miterlimit:22.92560005;stroke-dasharray:none;stroke-opacity:1"
         d="m 98.2315,750.40069 h -6.3791 v 12.7559 h 6.3788"
         inkscape:connector-curvature="0" /><path
         id="path122-6"
         style="fill:none;stroke:#ff0000;stroke-width:0.21600001;stroke-linecap:butt;stroke-linejoin:bevel;stroke-miterlimit:22.92560005;stroke-dasharray:none;stroke-opacity:1"
         d="m 98.2315,686.59743 h -6.3791 v 12.7559 h 6.3788"
         inkscape:connector-curvature="0" /></g></g></svg>