<?xml version="1.0" encoding="UTF-8" standalone="no"?>
<!-- Created with Inkscape (http://www.inkscape.org/) -->

<svg
   xmlns:dc="http://purl.org/dc/elements/1.1/"
   xmlns:cc="http://creativecommons.org/ns#"
   xmlns:rdf="http://www.w3.org/1999/02/22-rdf-syntax-ns#"
   xmlns:svg="http://www.w3.org/2000/svg"
   xmlns="http://www.w3.org/2000/svg"
   xmlns:sodipodi="http://sodipodi.sourceforge.net/DTD/sodipodi-0.dtd"
   xmlns:inkscape="http://www.inkscape.org/namespaces/inkscape"
   version="1.1"
   id="svg2"
   width="594mm"
   height="420mm"
   viewBox="0 0 2245.0393 1587.4015"
   sodipodi:docname="Port-du-masque-obligatoire.svg"
   inkscape:version="0.92.5 (2060ec1f9f, 2020-04-08)">
  <metadata
     id="metadata8">
    <rdf:RDF>
      <cc:Work
         rdf:about="">
        <dc:format>image/svg+xml</dc:format>
        <dc:type
           rdf:resource="http://purl.org/dc/dcmitype/StillImage" />
        <dc:title></dc:title>
      </cc:Work>
    </rdf:RDF>
  </metadata>
  <defs
     id="defs6" />
  <sodipodi:namedview
     pagecolor="#ffffff"
     bordercolor="#666666"
     borderopacity="1"
     objecttolerance="10"
     gridtolerance="10"
     guidetolerance="10"
     inkscape:pageopacity="0"
     inkscape:pageshadow="2"
     inkscape:window-width="2416"
     inkscape:window-height="1472"
     id="namedview4"
     showgrid="false"
     inkscape:zoom="0.53332931"
     inkscape:cx="717.95001"
     inkscape:cy="1050.1468"
     inkscape:window-x="144"
     inkscape:window-y="54"
     inkscape:window-maximized="1"
     inkscape:current-layer="svg2"
     units="mm" />
  <g
     id="g833"
     transform="matrix(0.46874999,0,0,0.46874999,89.463265,42.604455)">
    <path
       inkscape:connector-curvature="0"
       id="path817"
       d="m 635.0052,69.887203 c -1.88872,0.0206 -2.50892,0.23685 -2.66016,0.70898 -0.16427,0.51277 -0.47216,6.4823 -0.68554,13.26563 -0.21339,6.78334 -0.58054,16.386187 -0.81446,21.337887 -0.56256,11.9092 0.34253,15.3269 5.38672,20.37109 3.90171,3.90171 6.72143,5.37145 12.71094,6.62696 5.32454,1.11605 8.52812,1.13004 13.33398,0.0586 5.99148,-1.33581 10.01985,-3.35368 13.16992,-6.59766 3.79966,-3.91289 5.15939,-7.95049 5.20899,-15.46289 0.0218,-3.3 0.42001,-12.900637 0.88477,-21.333977 0.4647,-8.43333 0.7176,-15.70008 0.56054,-16.14844 -0.15708,-0.44836 -1.23241,-0.95711 -2.38867,-1.13086 -4.44648,-0.66817 -12.13632,-0.98445 -12.85156,-0.5293 -1.13072,0.71955 -1.51567,5.4546 -2.01172,24.68555 -0.49579,19.220667 -0.78064,20.626517 -4.64258,22.894527 -4.14175,2.43232 -10.57304,0.64113 -12.25195,-3.41211 -0.78593,-1.89739 -0.71173,-8.64496 0.38867,-34.783197 0.2654,-6.30414 0.15771,-9.23091 -0.35352,-9.54688 -0.40549,-0.2506 -4.02386,-0.62987 -8.04101,-0.84179 -2.21929,-0.11708 -3.81013,-0.17446 -4.94336,-0.16211 z m -49.00195,1.5625 c -14.72115,0.27758 -27.92448,8.9842 -32.29297,22.03125 -1.77905,5.31337 -1.5034,15.098927 0.57422,20.400387 4.17736,10.65934 11.11006,16.97755 21.99218,20.04297 8.32094,2.34394 18.08921,1.32922 26.04883,-2.70703 4.79424,-2.43111 5.42877,-2.46165 8.22266,-0.40039 1.26691,0.9347 2.66027,1.45191 3.29492,1.22265 1.55287,-0.56095 6.718,-6.30715 6.75,-7.50976 0.0146,-0.55 -1.06253,-1.94538 -2.39258,-3.09961 l -2.41797,-2.09766 1.91406,-3.90234 c 1.80926,-3.68801 1.91407,-4.37572 1.91407,-12.56836 0,-8.553317 -0.0308,-8.726677 -2.30469,-13.259767 -4.74751,-9.46426 -14.14275,-16.15331 -24.92188,-17.74414 -2.14363,-0.31637 -4.27783,-0.44786 -6.38085,-0.4082 z m 110.29882,1.41211 -0.78711,4 c -0.4326,2.2 -1.29372,7.75064 -1.91406,12.33398 -0.62033,4.58333 -1.41496,9.98333 -1.76562,11.999997 -0.64374,3.70163 -1.7624,11.41664 -3.54492,24.42969 -0.53475,3.90367 -0.84109,7.31109 -0.67969,7.57227 0.16147,0.26119 1.87677,0.68286 3.8125,0.9375 1.93574,0.25464 6.97083,0.92816 11.1875,1.49609 4.21667,0.56792 10.51667,1.41175 14,1.87695 9.53433,1.27332 9.92293,1.25668 10.30273,-0.47851 0.55567,-2.53906 1.69727,-9.36978 1.69727,-10.15625 0,-0.86783 -5.58255,-2.08274 -12.58008,-2.73828 -7.59927,-0.71191 -10.37801,-1.71827 -10.63281,-3.85157 -0.3134,-2.62338 1.18936,-9.12029 2.19922,-9.50781 0.4814,-0.18474 3.23192,0.009 6.11132,0.43164 11.64407,1.70775 14.54558,1.91621 15.35352,1.10742 1.12006,-1.12129 2.50902,-8.5249 1.98828,-10.59961 -0.40466,-1.61251 -0.78559,-1.777147 -4.93945,-2.154287 -7.181,-0.65199 -15.063,-1.86896 -16.38867,-2.5293 -1.04747,-0.52174 -1.1569,-1.09995 -0.75977,-4.05469 0.64667,-4.81216 1.24258,-5.35724 5.29492,-4.85156 1.84446,0.23016 6.65222,0.83351 10.68555,1.3418 6.6828,0.84218 7.43374,0.82659 8.46094,-0.17383 1.1866,-1.1557 2.64683,-9.51333 1.8789,-10.75586 -0.236,-0.38184 -2.05905,-0.9952 -4.05078,-1.36328 -5.31214,-0.98172 -29.18472,-4.09789 -32.27539,-4.21289 z m -176.26757,9.16992 c -4.91504,-0.0131 -10.14337,1.34272 -14.37891,3.92773 -5.50389,3.35911 -8.02501,6.92171 -8.74609,12.35743 -1.44382,10.884067 5.76227,18.708577 18.6621,20.261707 9.48467,1.14195 12.23076,1.89505 13.69141,3.75196 1.34756,1.71315 1.75927,4.59778 0.83789,5.88086 -0.26939,0.37513 -1.39023,1.25795 -2.49023,1.96289 -3.04028,1.9484 -7.83831,1.732 -12.56055,-0.56836 l -3.89258,-1.89649 -2.66406,2.57618 c -4.32417,4.18482 -5.49789,6.10299 -4.48438,7.32422 1.55859,1.87797 6.65332,5.0365 10.1543,6.29687 4.17612,1.50342 13.25999,1.72682 15.82422,0.38867 0.94111,-0.49111 2.45466,-1.08054 3.36328,-1.30859 3.08348,-0.7739 9.65611,-5.55522 11.17578,-8.13086 2.16522,-3.66977 2.90566,-8.45643 2.04492,-13.20313 -1.124,-6.19852 -4.29437,-10.278 -10.37695,-13.35156 -2.87797,-1.45425 -11.16971,-3.10481 -15.60351,-3.10547 -7.70699,-0.001 -10.55965,-5.991607 -4.27344,-8.974607 2.6,-1.23379 7.86328,-1.05468 9.23242,0.31446 1.55749,1.55749 4.05432,0.62505 7.53906,-2.81641 1.93653,-1.91247 3.52149,-3.84948 3.52149,-4.30273 0,-1.0131 -4.76196,-4.35086 -8.34961,-5.85352 -2.44199,-1.02282 -5.27754,-1.52341 -8.22656,-1.53125 z m 66.14453,3.5 c 3.046,-0.034 6.12444,0.45762 8.09765,1.48828 3.10429,1.62146 6.39299,4.93411 7.9336,7.99219 1.25775,2.4966 2.10537,9.273957 1.47461,11.787107 -0.53595,2.13542 -1.59029,2.18963 -3.74805,0.19531 -0.91292,-0.84377 -2.64981,-2.11756 -3.85938,-2.83008 l -2.19921,-1.29492 -3.00782,3.33008 c -1.65408,1.8313 -3.29864,3.8544 -3.65625,4.49609 -0.68812,1.23478 -0.67063,1.25713 5.06055,6.12891 1.46543,1.24568 2.45258,2.47711 2.19336,2.73633 -0.25922,0.25922 -1.75916,0.71931 -3.33203,1.02343 -12.62749,2.44159 -21.98829,-5.37339 -22.02539,-18.38867 -0.0192,-6.746147 2.73554,-11.253017 9.16601,-14.998037 1.84277,-1.0732 4.85634,-1.63206 7.90235,-1.66602 z m 206.76367,6.06641 c -6.4066,0.0546 -8.70119,0.34274 -11.52539,1.45117 -6.86086,2.69269 -11.19117,5.8805 -15.14063,11.146477 -4.78974,6.3863 -6.60501,11.91215 -6.57031,20 0.0417,9.68656 3.46359,16.72187 11.03906,22.69336 5.6324,4.43982 10.21851,6.573 16.53125,7.68945 1.65,0.29186 5.85066,0.40806 9.33399,0.25977 6.90613,-0.29402 10.92294,-1.50517 16.625,-5.01367 3.2262,-1.98513 9.375,-8.2579 9.375,-9.56445 0,-0.34409 0.41132,-1.09886 0.91406,-1.67774 0.5028,-0.57887 1.51684,-2.85273 2.25391,-5.05273 4.11673,-12.28707 1.55188,-23.56327 -7.34766,-32.29883 -2.26087,-2.219177 -4.39649,-4.035157 -4.74609,-4.035157 -0.3496,0 -1.11059,-0.4075 -1.68946,-0.90625 -0.57887,-0.49874 -3.30273,-1.77439 -6.05273,-2.83398 -4.57066,-1.76107 -5.687,-1.91972 -13,-1.85742 z m -332.08399,5.60351 c -0.78001,-0.004 -5.4252,1.34414 -10.32226,2.994137 -4.89705,1.65 -9.02193,3 -9.16602,3 -0.42529,0 0.54066,64.07398 0.97657,64.7793 0.21906,0.35442 0.74281,0.52549 1.16406,0.37891 0.42124,-0.14657 3.84128,-1.25467 7.59961,-2.4629 5.73803,-1.84462 6.84732,-2.42464 6.91992,-3.61328 0.0476,-0.77854 0.12192,-4.38922 0.16601,-8.02343 l 0.0801,-6.60743 8.66602,-2.85546 c 4.76666,-1.57107 9.26666,-2.87178 10,-2.88868 0.89156,-0.0205 2.93306,1.94008 6.16016,5.91407 l 4.82617,5.9414 2.50781,-0.67187 c 4.38558,-1.17773 12.48428,-4.0193 13.10547,-4.59766 0.63339,-0.58973 -0.71147,-3.03307 -2.80469,-5.0957 -1.3484,-1.3287 -13.32747,-15.57079 -16.46094,-19.57031 -2.39283,-3.05417 -6.85704,-8.42385 -8.55273,-10.28711 -0.67084,-0.73714 -3.9715,-4.71251 -7.33399,-8.83399 -4.29406,-5.263317 -6.53513,-7.494997 -7.53125,-7.499997 z m 333.57032,8.101557 c 4.45418,0.10783 8.86476,1.91339 12.30078,5.31446 3.75713,3.71887 4.87643,7.11024 4.27929,12.96875 -0.75919,7.4483 -4.92947,13.6632 -10.95507,16.33008 -6.42913,2.84548 -15.74495,0.42801 -20.64649,-5.35938 -1.78486,-2.10749 -3.43522,-6.44887 -3.44922,-9.07422 -0.0323,-5.96789 4.11444,-14.47017 8.4375,-17.30273 3.07922,-2.0176 6.56884,-2.96082 10.03321,-2.87696 z m 56.60937,4.06055 c -0.13847,0.0178 -0.25082,0.0571 -0.3418,0.11328 -0.36366,0.22475 -2.22408,3.62694 -4.13281,7.5625 -1.9088,3.93556 -7.12535,14.65561 -11.59375,23.82227 -10.5697,21.68291 -10.88717,22.39375 -10.55664,23.62305 0.24273,0.90281 14.99268,7.67352 22.77735,10.45507 3.7392,1.33605 13.86046,1.14743 17.08593,-0.31836 8.52913,-3.87598 12.84769,-13.98937 9.16602,-21.46875 -0.82407,-1.6741 -1.5,-3.3774 -1.5,-3.7832 0,-0.4058 1.125,-1.10591 2.5,-1.55664 6.24153,-2.04598 9.5,-6.85917 9.5,-14.03125 0,-3.60397 -0.31378,-4.8205 -1.88672,-7.30078 -1.03833,-1.63733 -2.90994,-3.8364 -4.1582,-4.88672 -2.0312,-1.70913 -12.19933,-7.04409 -13.45313,-7.05859 -0.27407,-0.003 -2.37341,-0.8644 -4.66601,-1.91407 -5.50084,-2.51853 -7.77091,-3.3827 -8.74024,-3.25781 z m -395.54687,2.76172 c 0.16361,-0.0182 0.44924,0.13988 0.89453,0.41797 0.70306,0.43908 1.9905,2.04062 2.85937,3.55859 0.86887,1.51796 3.3015,5.02844 5.40625,7.80078 l 3.82618,5.04102 -3.10743,1.47461 c -1.70916,0.81146 -4.21348,1.65545 -5.5664,1.875 -2.94346,0.47766 -2.95057,0.46193 -3.48243,-9.43164 -0.19709,-3.66666 -0.5499,-7.66693 -0.78515,-8.89063 -0.24834,-1.29173 -0.31763,-1.81539 -0.0449,-1.8457 z m -45.6543,2.54297 c -0.59364,-0.11432 -4.99953,1.66806 -9.79102,3.96289 -6.55758,3.14067 -8.76143,4.50971 -8.9082,5.53516 -0.10725,0.74927 0.16094,4.66198 0.5957,8.69531 0.43477,4.03334 1.10503,10.33333 1.49024,14 0.3852,3.66666 0.83938,7.65831 1.00781,8.86914 0.20739,1.49095 0.006,2.31709 -0.62305,2.55859 -0.79075,0.30344 -11.26494,-8.05499 -24.92578,-19.89062 -1.60996,-1.39486 -3.20739,-2.53711 -3.55078,-2.53711 -1.28732,0 -18.41778,8.76796 -18.73242,9.58789 -0.3077,0.80188 1.04282,3.59795 5.99609,12.41211 1.1333,2.01666 3.19096,5.76731 4.57227,8.33398 1.38131,2.56667 3.22867,5.80639 4.10547,7.19922 0.87681,1.39283 1.87843,3.19283 2.22461,4 0.34618,0.80717 1.66402,3.2668 2.92969,5.4668 2.29743,3.99346 3.90238,6.8949 7.4707,13.5 1.03996,1.925 2.12241,3.5 2.4043,3.5 0.28188,0 3.36181,-1.35758 6.84374,-3.01758 5.25422,-2.50495 6.33008,-3.27572 6.33008,-4.5332 0,-0.83334 -0.25931,-1.80011 -0.57617,-2.14844 -0.31685,-0.34834 -1.70635,-2.73412 -3.08789,-5.30078 -7.24107,-13.45266 -7.494,-13.86477 -12.47461,-20.39063 -6.07413,-7.95865 -5.09623,-8.06164 4.29492,-0.44922 7.69104,6.23432 19.76989,15.17383 20.50196,15.17383 0.26825,0 2.25405,-0.89683 4.41406,-1.99219 2.16,-1.09534 4.2567,-1.995 4.6582,-2 0.40151,-0.005 1.28342,-0.62047 1.96094,-1.36914 1.19069,-1.31568 1.19428,-1.76706 0.10547,-13.5 -1.06375,-11.46298 -1.42301,-17.07143 -1.21875,-18.97265 0.17718,-1.6491 1.32565,-0.7876 1.77929,1.33398 0.25482,1.19167 0.68904,2.46733 0.96485,2.83399 0.27581,0.36667 1.00055,2.16667 1.61133,4 0.61078,1.83334 1.99114,4.83268 3.0664,6.66601 1.07526,1.83333 2.40159,4.23399 2.94727,5.33399 0.54567,1.1 1.89567,3.49869 3,5.33203 1.10432,1.83333 2.45408,4.31294 3,5.50976 0.54592,1.19682 1.45596,2.3533 2.02148,2.57032 1.05349,0.40426 13.33471,-5.28489 14.10743,-6.53516 0.23574,-0.38146 0.13687,-0.88514 -0.21876,-1.11914 -0.57168,-0.37619 -2.19099,-3.19484 -10.39648,-18.0918 -1.11081,-2.01667 -2.69948,-4.86731 -3.5293,-6.33398 -0.82982,-1.46666 -2.58819,-4.69468 -3.9082,-7.17383 -1.32001,-2.47915 -3.23333,-5.9285 -4.25195,-7.66602 -1.01862,-1.73751 -2.06576,-3.61015 -2.32617,-4.16015 -2.21568,-4.6797 -4.99511,-9.02203 -5.88477,-9.19336 z m 449.79883,12.65234 c 0.32239,-0.0101 0.70435,0.0553 1.19922,0.1543 3.16633,0.63327 7.09604,3.49318 7.18554,5.23047 0.15406,2.99215 -0.21056,4.18027 -1.6289,5.30859 -1.53366,1.22012 -6.10867,1.6041 -6.75,0.56641 -0.20913,-0.33846 -1.27725,-0.81206 -2.37305,-1.05274 -2.55066,-0.56022 -2.61479,-2.31712 -0.25586,-7.01367 1.236,-2.46086 1.65589,-3.16296 2.62305,-3.19336 z m 41.64062,3.86133 -3.16601,4.83984 c -1.7414,2.66232 -3.3162,5.14308 -3.5,5.51368 -0.1837,0.3706 -2.83197,4.72192 -5.88477,9.66796 -3.05282,4.94608 -5.9015,9.58718 -6.33203,10.31446 -0.43047,0.72729 -1.55731,2.52729 -2.50391,4 -0.9466,1.47272 -1.92665,3.12773 -2.17578,3.67773 -0.24907,0.55 -0.97373,1.80306 -1.61132,2.78516 -2.72033,4.18997 -6.76615,11.04881 -6.95508,11.79101 -0.1126,0.44226 1.44623,1.73244 3.46289,2.86719 3.53794,1.99074 5.76261,3.19548 18,9.74414 3.1167,1.66784 6.56601,3.56192 7.66601,4.20899 1.1,0.64708 2.3231,1.19665 2.7168,1.22265 0.9183,0.0607 6.93887,-8.98267 7.13477,-10.71679 0.1184,-1.04871 -1.45774,-2.1625 -7.83204,-5.52735 -4.3897,-2.3172 -8.27377,-4.67603 -8.63085,-5.24219 -0.43871,-0.69541 -0.3773,-1.53173 0.1914,-2.58007 2.1613,-3.98406 3.31121,-5.92313 5.50391,-9.27344 1.3007,-1.98737 5.3099,-8.56328 8.9082,-14.61328 3.5982,-6.05 6.94671,-11.47191 7.44141,-12.05078 2.0578,-2.40783 1.14177,-3.54574 -5.76563,-7.15039 z m -50.80078,16.24024 c 1.00511,0.0107 2.27032,0.49452 4.00781,1.375 3.92627,1.98956 5.45899,3.88653 5.45899,6.75195 0,2.26386 -0.81919,3.5534 -3.31445,5.21484 -1.75047,1.16552 -6.35813,1.5002 -6.97266,0.50586 -0.20153,-0.32604 -1.19328,-0.80021 -2.20508,-1.05273 -1.01173,-0.25252 -2.36706,-0.93468 -3.01172,-1.51563 -0.9984,-0.89977 -1.03931,-1.21165 -0.26758,-2.11328 0.49833,-0.58215 1.61064,-2.79267 2.47071,-4.91211 1.20637,-2.97279 2.1588,-4.2717 3.83398,-4.2539 z m 95.78516,8.90039 c -1.23869,-0.008 -2.46065,1.28351 -4.50781,4.35546 -2.2724,3.40998 -7.26713,10.41274 -10.82813,15.1836 -0.958,1.28333 -4.04543,5.52225 -6.86133,9.41992 -2.816,3.89767 -7.29482,10.09794 -9.95312,13.77734 -2.6583,3.6794 -4.83399,7.11627 -4.83399,7.63868 0,0.52241 0.675,1.29589 1.5,1.71875 1.6454,0.84334 2.52476,1.39436 7.38086,4.61328 1.7977,1.19167 3.51396,2.16601 3.81446,2.16601 0.3006,0 1.23421,-0.97434 2.07421,-2.16601 0.8401,-1.19166 1.75932,-2.46732 2.04102,-2.83399 0.7858,-1.02279 10.9188,-15.04872 12.6543,-17.51562 0.8445,-1.20045 2.73457,-3.81755 4.20117,-5.81641 1.4667,-1.99885 3.80777,-5.21832 5.20117,-7.15234 1.3934,-1.93402 4.31489,-5.97614 6.49219,-8.98242 2.2694,-3.13345 3.80069,-5.87699 3.58789,-6.43164 -0.2042,-0.53217 -2.22579,-2.10088 -4.49219,-3.48438 -2.2665,-1.3835 -4.82916,-3.05709 -5.69336,-3.71875 -0.64828,-0.49637 -1.2143,-0.76771 -1.77734,-0.77148 z m -635.9668,13.16211 c -0.20239,-0.005 -0.3904,0.0427 -0.5957,0.10546 -2.1702,0.66332 -11.08789,7.66621 -11.08789,8.70704 0,0.75028 5.14959,7.69601 6.59765,8.89843 0.22079,0.18333 1.59264,1.83268 3.04688,3.66602 1.45423,1.83333 2.80423,3.48464 3,3.66797 0.91551,0.85737 10.74082,12.69074 12.91211,15.55078 3.42105,4.5062 3.35864,7.11805 -0.25195,10.55273 -2.37485,2.25914 -3.08365,2.5625 -5.9668,2.5625 -2.94846,0 -3.55817,-0.28044 -6.17774,-2.83398 -1.59862,-1.55834 -4.23419,-4.48334 -5.85742,-6.5 -1.62323,-2.01667 -3.11137,-3.81667 -3.30664,-4 -0.19527,-0.18334 -2.44321,-2.88334 -4.99609,-6 -2.55288,-3.11667 -4.80711,-5.81667 -5.00977,-6 -0.20266,-0.18334 -1.55944,-1.82382 -3.01367,-3.64649 -4.28444,-5.36989 -4.57689,-5.68554 -5.25391,-5.68554 -0.88004,0 -10.66548,6.46183 -11.97265,7.90625 -1.10411,1.22003 -1.14804,1.14325 5.46875,9.09961 0.61319,0.73733 3.20781,3.88733 5.76758,7 2.55978,3.11268 4.81655,5.81081 5.01367,5.99414 0.19712,0.18334 2.44061,2.88334 4.98633,6 7.70056,9.4276 9.85228,11.10739 16.34375,12.76367 2.38437,0.60836 5.23593,0.96707 6.33593,0.79687 15.38759,-2.38083 26.35007,-12.87631 26.32618,-25.20312 -0.0101,-5.23058 -2.22098,-8.87533 -13.9668,-23.02539 -14.73911,-17.75601 -16.92506,-20.34356 -18.3418,-20.37695 z m 667.20703,13.6875 c -3.88521,0.0233 -7.84655,0.38914 -9.71093,1.08203 -4.64091,1.72479 -8.13606,3.22213 -8.84766,3.79101 -0.3666,0.29314 -1.9285,1.43849 -3.4707,2.54492 -3.388,2.43078 -8.39548,8.93331 -10.73438,13.93946 -1.5167,3.24626 -1.71791,4.54441 -1.75391,11.33203 -0.0394,7.37839 0.0435,7.83933 2.1875,12.22461 4.1606,8.51005 13.12747,15.69098 23.10547,18.5039 7.9736,2.24791 15.29959,1.13929 23.33399,-3.52929 4.5809,-2.66185 12.33203,-9.91969 12.33203,-11.54688 0,-0.45478 -1.125,-1.66992 -2.5,-2.70117 -1.375,-1.03125 -3.09873,-2.40224 -3.83203,-3.04492 -4.9727,-4.35796 -23.11862,-17.90625 -23.98242,-17.90625 -1.0271,0 -3.8172,2.80644 -6.8125,6.84961 l -1.46094,1.97265 7.12695,5.64063 c 9.4694,7.49468 10.79492,8.64301 10.79492,9.34961 0,0.83088 -4.76901,2.85417 -6.72461,2.85351 -1.7175,-5.8e-4 -6.26288,-1.63829 -9.70898,-3.49804 -3.0079,-1.62325 -6.79697,-6.31379 -7.64649,-9.46485 -0.9255,-3.43312 -0.28001,-9.04914 1.42579,-12.39257 1.7011,-3.33452 6.06086,-7.64227 9.56836,-9.45313 3.7209,-1.92104 12.32135,-2.05227 15.75195,-0.24023 6.1385,3.24232 9.36968,7.21654 10.36328,12.74804 0.7966,4.43526 1.69488,4.96875 8.35942,4.96875 6.7863,0 6.6116,0.20791 5.7734,-6.91992 -0.6303,-5.36054 -3.0527,-10.8844 -6.4004,-14.58984 -3.1282,-3.46255 -9.10023,-8.00181 -12.42773,-9.44532 -1.4667,-0.63625 -3.65147,-1.5802 -4.85547,-2.09961 -1.55875,-0.67238 -5.3687,-0.99203 -9.25391,-0.96874 z m -323.15039,22.7871 c -2.83459,0.008 -6.17843,0.046 -10.21484,0.10938 -19.30508,0.303 -23.2999,0.63897 -40.85938,3.42383 -18.00783,2.85597 -45.31368,10.52794 -59.76758,16.79297 -1.1554,0.50082 -2.29872,0.91015 -2.54101,0.91015 -0.62937,0 -6.47889,2.71806 -18.35742,8.53125 -9.84008,4.81561 -25.02929,13.67622 -33.66797,19.64063 -14.06362,9.70995 -33.81477,27.90857 -42.86328,39.49414 -2.29097,2.93333 -4.41929,5.65494 -4.73047,6.04687 -9.05826,11.409 -20.65607,34.0405 -24.57422,47.95313 -0.41306,1.46667 -1.23249,4.26398 -1.82031,6.21484 -5.57372,18.49789 -8.50747,48.10193 -7.12305,71.87695 0.87985,15.10994 1.78392,25.084 2.71094,29.90821 0.35229,1.83334 1.28972,7.08464 2.08398,11.66797 0.79427,4.58333 1.69722,9.08333 2.00586,10 0.30864,0.91667 0.74347,2.71667 0.9668,4 1.05745,6.07663 5.152,20.92836 7.41601,26.90234 1.24744,3.2916 0.71282,4.89134 -1.81836,5.44727 -3.28546,0.7216 -8.74545,6.73398 -10.63281,11.70898 -1.47784,3.89547 -1.61153,5.1577 -1.51953,14.27344 0.0555,5.5 0.40277,11.8 0.77149,14 1.85132,11.0463 6.3296,29.0453 10.20117,41 2.26583,6.9964 2.1398,6.6611 6.35742,17 1.64534,4.0333 4.28749,10.93398 5.87109,15.33398 1.58361,4.4 3.1025,8.60069 3.375,9.33399 0.80264,2.1601 5.1009,11.16211 5.70313,11.94531 5.10808,6.6432 10.02488,9.71347 15.58398,9.73047 1.85301,0.006 3.6945,0.2306 4.0918,0.5 1.32613,0.8992 7.25951,14.30683 10.32617,23.33203 1.02942,3.0296 2.44026,6.33028 3.13477,7.33398 1.21025,1.7491 2.47458,4.30012 5.36328,10.82422 0.73058,1.65 2.13131,4.8 3.11133,7 1.86375,4.1838 2.36912,6.35839 4.0332,17.33399 2.4381,16.0807 3.14419,24.32645 3.44336,40.21875 0.49492,26.2907 -1.08976,32.70706 -12.99609,52.63476 -5.17127,8.6552 -7.76846,12.5659 -15.15235,22.8125 -4.97106,6.8984 -6.27713,8.19966 -7.34375,7.31446 -1.44781,-1.2016 -9.40449,-1.9736 -14.17187,-1.375 -7.64322,0.9598 -11.94594,2.93107 -22.80469,10.45507 -4.66806,3.2345 -9.88704,5.96841 -20.83399,10.90821 -2.47598,1.1172 -4.77731,2.03125 -5.11328,2.03125 -0.33597,0 -1.45999,0.43003 -2.49804,0.95703 -2.33725,1.1865 -7.68435,3.17563 -29.55469,10.99023 -5.11209,1.8267 -13.49991,4.69201 -23.33203,7.97071 -5.68333,1.8952 -10.93464,3.71506 -11.66797,4.04296 -3.24793,1.4525 -5.79809,1.95553 -7.19141,1.41993 -4.66329,4.41787 0,0 -8.10351,6.98437 9.07877,8.96004 13.87021,13.28404 22.65039,20.63477 1.75189,1.4666 3.51472,2.9721 3.91601,3.3457 1.61731,1.5054 12.98223,10.24188 16.72852,12.85938 3.60074,2.51589 17.83835,12.40184 20.33398,14.11914 6.47102,4.4531 17.46043,11.12038 33.29102,20.19918 12.20915,7.0019 55.72925,27.14262 58.65039,27.14262 0.40893,0 1.2637,0.2687 1.90039,0.5977 2.43579,1.2588 15.14358,5.8422 21.49219,7.7519 2.01667,0.6066 4.26667,1.3571 5,1.668 2.60674,1.1049 25.80815,7.5269 31.33203,8.6719 1.46666,0.304 5.81797,1.29 9.66797,2.1914 3.85,0.9014 9.84869,2.1434 13.33203,2.7597 3.48333,0.6162 7.53333,1.4103 9,1.7657 1.46666,0.3556 4.91797,0.9229 7.66797,1.2617 2.75,0.3387 8.29869,1.0824 12.33203,1.6523 4.03333,0.5699 10.78333,1.3257 15,1.6797 4.21667,0.354 9.01797,0.8469 10.66797,1.0938 1.65,0.2468 8.9987,0.6681 16.33203,0.9375 32.86452,1.2073 65.98748,-0.43 95,-4.6973 2.38333,-0.3506 5.53333,-0.8042 7,-1.0078 1.46667,-0.2036 4.01601,-0.6508 5.66601,-0.9942 1.65,-0.3434 6.45131,-1.2604 10.66797,-2.0371 4.21667,-0.7767 8.71667,-1.6648 10,-1.9746 1.28334,-0.3098 4.43334,-1.0478 7,-1.6406 8.1858,-1.8905 19.671,-4.8822 27,-7.0332 5.66034,-1.6612 31.67042,-10.447 35.66602,-12.0469 0.73333,-0.2936 4.03397,-1.6145 7.33398,-2.93552 3.3,-1.3208 6.94421,-2.8346 8.09961,-3.3653 1.15547,-0.5306 2.29471,-0.9648 2.53125,-0.9648 0.40073,0 2.87424,-1.1246 15.70117,-7.1367 9.83567,-4.61 24.99799,-12.4595 29.24219,-15.1387 1.50307,-0.9489 2.92653,-1.7246 3.16406,-1.7246 0.6784,0 19.75979,-11.71191 25.61329,-15.72071 2.9023,-1.9876 5.43054,-3.61328 5.61914,-3.61328 0.3316,0 10.52034,-7.24315 12.18164,-8.66015 0.4505,-0.3842 2.2505,-1.64684 4,-2.80664 1.38144,-0.91576 3.41556,-2.43049 5.69336,-4.17774 -0.35485,-0.18759 -0.70026,-0.39505 -1.0586,-0.57422 -0.625,-0.31251 -1.29359,-0.54989 -1.875,-0.9375 -0.36772,-0.24515 -0.56978,-0.69235 -0.9375,-0.9375 -0.58142,-0.38761 -1.29359,-0.54988 -1.875,-0.9375 -1.14695,-0.76463 -2.09492,-2.22172 -2.91601,-3.4707 -1.61465,1.07374 -2.91177,1.8071 -3.30469,1.79297 -1.0662,-0.038 -5.56882,-1.596 -14.54492,-5.0293 -1.4667,-0.561 -3.56797,-1.27614 -4.66797,-1.58984 -1.7729,-0.5057 -17.0804,-5.86467 -19.66602,-6.88477 -0.55,-0.217 -14.34934,-4.79769 -30.66601,-10.17969 -16.31666,-5.382 -31.61667,-10.46181 -34,-11.28711 -2.38333,-0.82529 -6.43333,-2.15297 -9,-2.95117 -2.56667,-0.798 -5.26667,-1.70522 -6,-2.01562 -0.73333,-0.3104 -5.83399,-1.96549 -11.33399,-3.67969 -5.5,-1.7141 -11.19934,-3.50461 -12.66601,-3.97852 -1.46667,-0.47389 -4.31733,-1.37324 -6.33399,-1.99804 -7.37194,-2.2839 -8.40459,-2.94017 -9.84179,-6.25977 -2.3614,-5.4542 -2.95561,-6.98858 -4.95508,-12.77148 -2.06166,-5.9627 -2.55897,-7.71318 -4.12891,-14.54688 -0.5326,-2.3183 -1.14362,-4.67141 -1.35742,-5.22851 -0.2138,-0.5571 -0.98689,-4.86582 -1.71875,-9.57422 -2.3588,-15.1746 -1.62982,-33.45959 1.93945,-48.65039 0.38767,-1.65 1.19289,-5.39863 1.79102,-8.33203 0.59813,-2.9333 1.48074,-7.13399 1.96094,-9.33399 0.48027,-2.2 1.37732,-6.40068 1.99218,-9.33398 0.61494,-2.9334 1.51972,-6.83272 2.01172,-8.66602 0.49207,-1.8333 1.54654,-6.3333 2.3418,-10 0.79534,-3.6667 1.86142,-7.95224 2.37109,-9.52343 0.5096,-1.5712 0.93632,-3.37122 0.94532,-4 0.0402,-2.62851 2.72178,-6.44705 9.47851,-13.49415 5.2922,-5.5197 7.37636,-8.19036 7.98242,-10.22656 0.9222,-3.0987 2.00049,-5.15913 7.02149,-13.42773 1.925,-3.1701 3.5,-5.88385 3.5,-6.03125 0,-0.1473 1.0487,-2.51096 2.33203,-5.25196 1.28334,-2.7412 2.33398,-5.42931 2.33398,-5.97461 0,-0.54529 0.26674,-1.15652 0.5918,-1.35742 0.32514,-0.2009 0.78667,-1.41436 1.02734,-2.69726 0.5102,-2.7197 1.95827,-3.68164 5.53907,-3.68164 3.0732,0 8.4363,-2.53159 11.30664,-5.33789 4.87247,-4.7638 15.2984,-26.05588 24.1582,-49.33008 1.18647,-3.1167 2.88231,-7.2486 3.76758,-9.1836 0.88526,-1.9351 1.62011,-3.7351 1.63281,-4 0.0125,-0.265 0.60209,-1.68173 1.31055,-3.14843 0.70847,-1.4666 1.29784,-3.13277 1.31054,-3.70118 0.0124,-0.5683 0.27308,-1.31771 0.58008,-1.66601 0.746,-0.8464 4.39814,-10.81751 6.0918,-16.63281 0.74754,-2.5666 1.78749,-6.01797 2.31055,-7.66797 1.95187,-6.1567 3.20282,-15.84254 2.90429,-22.49414 -0.3518,-7.83934 -1.82538,-11.41793 -6.83984,-16.61133 -3.19214,-3.306 -10.02877,-7.56055 -12.14844,-7.56055 -0.54333,0 -0.87949,-0.225 -0.74805,-0.5 0.13141,-0.275 2.22337,-4.55 4.64844,-9.5 2.42506,-4.95 5.05743,-10.50064 5.85156,-12.33398 0.79408,-1.83333 1.7338,-3.93269 2.08594,-4.66602 1.89406,-3.94496 7.62261,-21.1124 9.56641,-28.66601 4.15467,-16.14485 5.71875,-27.91849 5.71875,-43.04492 0,-15.3597 -1.51742,-26.0318 -5.41602,-38.0625 -5.72574,-17.66913 -19.59003,-41.77064 -34.2207,-59.49024 -9.4396,-11.43253 -22.51274,-24.82527 -32.36328,-33.15625 -2.75,-2.32578 -5.1487,-4.41115 -5.33203,-4.63477 -0.18333,-0.22359 -4.38399,-3.40015 -9.33399,-7.05859 -9.5212,-7.03691 -15.03752,-10.55524 -21.32226,-13.59961 -2.702,-1.30885 -5.00879,-3.1955 -7.76172,-6.34765 -7.41193,-8.48667 -15.06757,-16.24432 -19.82031,-20.08594 -2.61953,-2.11734 -4.91238,-4.00381 -5.09571,-4.19141 -0.56014,-0.57312 -6.17427,-4.20032 -9,-5.81445 -9.475,-5.41241 -17.77851,-9.11048 -25.83398,-11.50781 -2.6582,-0.79109 -5.58333,-1.69356 -6.5,-2.00586 -2.4848,-0.84653 -10.74808,-2.46798 -18.80664,-3.68946 -4.3535,-0.65988 -8.2814,-0.90573 -16.78516,-0.88086 z m -395.35937,12.72461 c -1.58938,0.0384 -3.18587,0.19351 -4.78516,0.47071 -5.05942,0.87694 -11.77646,3.87921 -14.79687,6.61328 -8.97726,8.1262 -14.10475,12.81403 -16.4043,15 l -2.70703,2.57422 5.99023,5.63281 c 3.29392,3.09779 7.68055,7.19003 9.74805,9.09375 5.02038,4.62268 18.13453,16.90777 24.79101,23.22461 3.87772,3.67987 5.68935,4.97923 6.51172,4.66797 1.3664,-0.5172 6.10441,-4.77029 14.40625,-12.92774 5.87629,-5.77409 7.76184,-8.54371 10.50196,-15.41992 2.33923,-5.87018 0.32475,-17.86944 -3.97071,-23.64844 -7.47402,-10.05537 -18.15953,-15.55018 -29.28515,-15.28125 z m 784.78517,13.17774 c -0.7921,0 -12.9814,4.84761 -17.6855,7.0332 -1.935,0.89904 -3.8369,1.63477 -4.2286,1.63477 -0.3918,0 -1.5092,0.425 -2.4824,0.94531 -1.6244,0.86837 -16.8218,7.24433 -31.96289,13.41016 -3.4059,1.387 -6.36783,2.80572 -6.58203,3.15234 -0.6261,1.01299 9.85845,11.1582 11.53125,11.1582 1.3106,0 8.82557,-2.98849 11.73437,-4.66601 2.2918,-1.32165 3.5845,-0.56919 9.9981,5.82031 5.0399,5.02102 6.5117,6.89677 6.5117,8.29492 0,0.99357 -0.2631,1.96766 -0.584,2.16602 -1.0165,0.62825 -6.084,9.5688 -6.084,10.73437 0,0.61423 2.3591,3.4881 5.2403,6.38477 2.8812,2.89667 5.5591,5.26562 5.9511,5.26562 0.392,0 1.1337,-0.84487 1.6485,-1.87695 0.8438,-1.69128 4.2346,-7.57662 14.8593,-25.78906 1.9252,-3.3 4.0957,-7.05065 4.8223,-8.33399 0.7267,-1.28333 2.3818,-4.13398 3.6797,-6.33398 5.6762,-9.6218 7.8673,-13.81271 7.6738,-14.68555 -0.2556,-1.1525 -13.1659,-14.31445 -14.041,-14.31445 z m -786.04103,1.34179 c 5.05258,0.0195 12.59636,3.93023 15.77539,8.17774 3.07786,4.11233 3.98618,6.63558 3.92578,10.91406 -0.0659,4.66746 -1.65664,7.81486 -5.77148,11.42774 -1.33957,1.17616 -2.79857,2.12988 -3.24415,2.11718 -0.93725,-0.0266 -9.06251,-7.31811 -19.13281,-17.16992 l -7.01172,-6.85937 3.44336,-3.21289 c 3.49655,-3.26226 8.27937,-5.40893 12.01563,-5.39454 z m 782.56253,14.65821 c 0.5202,0 0.3489,2.54091 -0.1875,2.77929 -0.6412,0.28501 -5.5,6.32037 -5.5,6.83204 0,0.21245 -1.0788,1.88651 -2.3965,3.7207 -1.3178,1.83418 -2.6874,3.33594 -3.0449,3.33594 -0.9118,0 -6.269,-5.41739 -6.7793,-6.85547 -0.3065,-0.86386 0.035,-1.36031 1.25,-1.82227 0.919,-0.34941 4.9738,-2.29031 9.0097,-4.3125 4.036,-2.02218 7.4771,-3.67773 7.6485,-3.67773 z m 33.3476,15.33398 c -1.3922,0 -10.3147,6.21746 -10.3437,7.20703 -0.014,0.47998 1.7796,3.24227 3.9844,6.13868 l 4.0078,5.26562 -2.8418,2.08594 c -2.3685,1.73791 -6.5355,4.65541 -15.4024,10.78711 -0.6748,0.46663 -4.1405,2.97857 -7.7011,5.58203 -3.5606,2.60346 -6.7576,4.85346 -7.1055,5 -0.348,0.14654 -2.0572,1.30025 -3.7988,2.5625 -3.2784,2.3759 -3.9008,3.93203 -2.1504,5.38476 0.5595,0.46436 2.4177,2.7515 4.1289,5.08204 1.7112,2.33053 3.6139,4.23828 4.2285,4.23828 0.6146,0 3.9315,-2.03094 7.3711,-4.51368 3.4396,-2.48275 7.0052,-5.02456 7.9219,-5.64648 0.9166,-0.6219 2.8653,-1.98777 4.332,-3.03711 13.5396,-9.68699 20.171,-14.13276 21.0859,-14.13476 0.5971,-10e-4 2.3971,1.7212 4,3.82812 5.2045,6.84088 4.9252,6.64739 7.4258,5.18359 4.0586,-2.37597 8.4883,-5.96452 8.4883,-6.875 0,-0.50055 -1.8743,-3.18152 -4.166,-5.95703 -2.2916,-2.77551 -6.3962,-7.9266 -9.1211,-11.44726 -2.7248,-3.52066 -5.1409,-6.55104 -5.3691,-6.73438 -0.2281,-0.18333 -2.1359,-2.50768 -4.2403,-5.16601 -2.1042,-2.65834 -4.235,-4.83399 -4.7344,-4.83399 z m -874.9199,6.74414 c -1.42301,-0.0388 -2.48484,1.45114 -5.1875,4.92188 -1.42761,1.83333 -2.75854,3.48463 -2.95898,3.66797 -0.20043,0.18333 -1.84109,2.28268 -3.64453,4.66601 -1.80344,2.38334 -3.61334,4.63334 -4.02344,5 -0.76609,0.68496 -11.00172,14.03218 -11.85938,15.46485 -0.75243,1.25687 9.02259,8.36533 10.64649,7.74218 0.45209,-0.17348 2.66984,-2.54768 4.92773,-5.27734 l 4.10547,-4.96289 2.43945,1.48047 c 1.34182,0.81504 2.58815,1.66308 2.77149,1.88476 0.18333,0.22166 1.68398,1.31151 3.33398,2.42188 1.65,1.11036 8.55065,5.87548 15.33399,10.58789 6.78333,4.71241 13.32554,9.24616 14.53906,10.07617 1.21352,0.83001 2.62902,1.3482 3.14453,1.15039 1.49669,-0.57434 8.92874,-10.93494 8.55078,-11.91992 -0.18856,-0.49138 -2.79388,-2.57248 -5.78906,-4.62695 -2.99519,-2.05448 -8.44661,-5.83709 -12.11328,-8.4043 -3.66667,-2.5672 -9.21537,-6.37878 -12.33203,-8.4707 -3.11667,-2.09192 -6.0643,-4.18165 -6.54883,-4.64258 -0.48452,-0.46093 -1.15952,-0.83789 -1.5,-0.83789 -0.34047,0 -0.61628,-0.8237 -0.61328,-1.83203 0.004,-1.23052 1.10065,-3.11158 3.33398,-5.72071 1.83007,-2.13802 3.32813,-4.44799 3.32813,-5.13281 0,-0.80571 -1.75369,-2.42157 -4.9668,-4.58008 -2.48604,-1.67008 -3.81118,-2.62608 -4.91797,-2.65625 z m 897.5098,43.25586 c -2.0037,0 -5.7756,0.59197 -8.3828,1.31446 -12.4054,3.43773 -20.5827,10.09844 -24.6406,20.07031 -1.6196,3.97968 -1.9358,5.6922 -1.9356,10.51758 6e-4,8.56938 2.9405,15.68751 9.1777,22.22656 4.1294,4.32928 7.9445,6.79926 13.8223,8.94726 5.9753,2.18362 14.3773,2.12916 21.3516,-0.13671 12.7386,-4.1386 20.8885,-12.80005 23.6777,-25.16407 2.3346,-10.349 -4.5886,-25.289 -14.7363,-31.80078 -4.6658,-2.99404 -13.8116,-5.97461 -18.334,-5.97461 z m -925.18558,7.22266 c -3.28889,-0.0472 -6.50532,0.45693 -8.60352,1.52734 -3.99558,2.0384 -9.74423,8.13271 -13.12695,13.91602 -1.6085,2.75 -4.24396,7.0361 -5.85547,9.52344 -1.76522,2.72458 -2.78463,4.97666 -2.56445,5.66601 0.201,0.62933 2.69427,2.4171 5.53906,3.97266 2.84479,1.55556 6.22057,3.41751 7.50391,4.13672 12.18512,6.82883 16.81275,9.36914 17.06445,9.36914 0.16315,0 1.41549,0.69699 2.78321,1.54882 2.19163,1.36501 10.04631,5.68468 16.77929,9.22852 1.26063,0.66352 2.59577,1.50983 2.9668,1.88086 0.37103,0.37103 1.32932,0.67383 2.13086,0.67383 1.09487,0 2.14287,-1.15174 4.21094,-4.63281 1.51401,-2.54846 3.04709,-4.8159 3.4082,-5.03907 0.3611,-0.22318 0.65625,-1.07481 0.65625,-1.89257 0,-1.53968 -2.23532,-3.08253 -12,-8.2793 -9.26361,-4.93009 -8.48831,-5.48828 7.60351,-5.48828 11.40464,0 12.97445,-0.13312 13.89649,-1.16797 2.03378,-2.28262 7.76105,-12.41126 7.37305,-13.03906 -0.23955,-0.38808 -5.92493,-0.53788 -14.4668,-0.38282 l -14.07227,0.25586 -0.39062,-4 c -0.70447,-7.20062 -4.71282,-12.63491 -11.79492,-15.99609 -2.39113,-1.13484 -5.75213,-1.73405 -9.04102,-1.78125 z m 926.76368,8.11133 c 5.3492,0 11.4958,3.87502 14.4082,9.08593 2.3933,4.28163 2.4313,10.58461 0.09,14.58008 -1.9317,3.29619 -7.491,7.67023 -11.7246,9.22461 -4.1919,1.539 -11.6101,1.42966 -14.6446,-0.21484 -9.0163,-4.88621 -11.9305,-15.35836 -6.5,-23.35156 3.0935,-4.5534 12.493,-9.32422 18.3711,-9.32422 z m -927.69141,7.33203 c 2.27932,0 3.55069,0.42092 5.02343,1.66015 3.32404,2.79699 3.23009,5.99941 -0.33007,11.17383 -0.94604,1.375 -2.05444,2.48826 -2.46289,2.47266 -1.0119,-0.0387 -9.18574,-4.48306 -10.32813,-5.61524 -1.36187,-1.34969 -0.45123,-3.91177 2.49023,-7.0039 2.25868,-2.37437 2.91012,-2.6875 5.60743,-2.6875 z m 516.58398,0.25586 c 3.34818,0.0138 6.31553,0.11666 8.71484,0.3164 11.10427,0.92442 14.65323,1.56679 22.35743,4.04297 16.0484,5.15805 24.25415,11.89981 38.65429,31.75586 0.2804,0.38668 0.81107,1.16634 1.17774,1.73242 0.36667,0.56607 2.04848,3.09833 3.73828,5.62891 5.471,8.19305 12.59375,19.83436 12.59375,20.58203 0,0.13339 1.29843,2.44223 2.88476,5.13086 3.91687,6.63869 15.71921,30.68702 19.08594,38.88867 1.50513,3.66666 3.02924,7.18753 3.38477,7.82422 0.35547,0.6367 0.64453,1.4925 0.64453,1.90039 0,0.40789 0.43799,1.68639 0.97266,2.8418 1.27579,2.75662 5.34594,15.21398 6.32421,19.35742 0.42286,1.79102 1.19474,7.94037 1.7168,13.66602 1.0996,12.06007 2.74645,57.33838 2.14258,58.91211 -1.0214,2.66173 -14.78471,10.82761 -21.03125,12.47851 -1.58126,0.4179 -3.30496,0.92661 -3.83203,1.12891 -1.11327,0.4271 -1.29428,-1.51941 -0.36328,-3.91211 0.32774,-0.8423 1.12399,-3.33125 1.76953,-5.53125 0.64546,-2.20003 1.60494,-5.2417 2.13281,-6.75977 1.26673,-3.64286 0.38814,-5.37245 -3.00586,-5.91211 -1.37053,-0.21794 -3.69153,-0.67563 -5.1582,-1.01757 -1.46667,-0.34201 -5.06667,-0.95925 -8,-1.37305 -2.93333,-0.4138 -7.73463,-1.13634 -10.66797,-1.60547 -2.93333,-0.46907 -9.53269,-1.49536 -14.66602,-2.2793 -5.13334,-0.78393 -11.73268,-1.84946 -14.66601,-2.36718 -2.93333,-0.5178 -8.93399,-1.41951 -13.33399,-2.00391 -4.4,-0.58447 -10.7,-1.48271 -14,-1.99805 -3.3,-0.51533 -10.20065,-1.42951 -15.33398,-2.03125 -5.13333,-0.60173 -10.83268,-1.36593 -12.66602,-1.69726 -3.48115,-0.62907 -13.29601,-1.50896 -29.66601,-2.66016 -10.06888,-0.70806 -30.89518,-0.34666 -40.66797,0.70508 -3.11667,0.3354 -8.36602,0.78664 -11.66602,1.0039 -3.3,0.21727 -7.50065,0.66665 -9.33398,0.99805 -1.83333,0.3314 -7.38202,1.07931 -12.33203,1.66211 -4.95,0.58287 -11.7,1.48552 -15,2.00586 -3.3,0.52033 -9.45131,1.42627 -13.66797,2.01367 -4.21667,0.5874 -9.91602,1.49656 -12.66602,2.02149 -2.75,0.52487 -8.75065,1.58842 -13.33398,2.36328 -4.58334,0.77487 -10.58203,1.81734 -13.33203,2.3164 -2.75,0.499 -7.17864,1.23293 -9.83985,1.63086 -6.4027,0.95747 -9.33898,2.2223 -9.61718,4.14063 -0.12052,0.83107 0.003,3.01041 0.27539,4.84375 0.27231,1.83333 0.6881,5.0253 0.92383,7.09179 l 0.42968,3.75586 -1.91992,-0.32421 c -7.27056,-1.2334 -20.08472,-6.37992 -27.41992,-11.01172 -4.08907,-2.58207 -4.16602,-2.685 -4.16602,-5.58594 0,-2.67773 0.70826,-9.449 2.67578,-25.5918 0.37986,-3.11667 0.96828,-8.51667 1.3086,-12 2.58485,-26.45707 3.56263,-33.81301 4.96094,-37.33398 0.50966,-1.28333 1.8878,-4.88333 3.0625,-8 2.95601,-7.84281 6.75497,-17.46588 7.36914,-18.66602 0.28146,-0.55 1.62248,-3.7 2.97851,-7 1.35603,-3.3 3.15166,-7.50064 3.99219,-9.33398 0.84054,-1.83333 2.1965,-4.83269 3.01172,-6.66602 2.9351,-6.60067 10.41714,-21.42846 13.11914,-26 1.51701,-2.56667 3.64927,-6.30318 4.74023,-8.30273 1.79982,-3.29873 11.41897,-17.32971 13.08985,-19.09375 0.3801,-0.40128 1.89075,-2.15335 3.35742,-3.89453 3.46562,-4.11427 10.10469,-9.39319 14.50976,-11.53711 3.2801,-1.5964 4.55929,-1.75325 21.15821,-2.61133 64.26057,-3.32192 74.54983,-4.02039 96.66601,-6.55469 11.90546,-1.36425 25.38514,-2.12547 35.42969,-2.08398 z m 459.23443,32.41211 c -0.843,0 -5.4862,1.7578 -9.3301,3.5332 -7.8789,3.63909 -12.7763,5.79883 -13.1484,5.79883 -0.214,0 -2.069,0.78045 -4.1211,1.73437 -5.2683,2.44906 -9.5086,4.35762 -11.0645,4.98047 -0.7333,0.29356 -3.3783,1.4529 -5.8789,2.57617 -2.5005,1.12327 -4.7253,2.04297 -4.9434,2.04297 -0.2181,0 -2.5973,1.04557 -5.2871,2.32227 -3.2338,1.53496 -4.8906,2.70156 -4.8906,3.44726 0,1.85531 5.4957,12.1614 6.623,12.41993 0.5743,0.13167 1.3444,0.0399 1.711,-0.20313 0.3667,-0.24309 1.8673,-0.9096 3.334,-1.48242 1.4666,-0.57281 4.7653,-1.99525 7.332,-3.16016 8.2376,-3.73871 8.8626,-4.00976 9.2285,-4.00976 0.1979,0 2.9455,-1.2013 6.1055,-2.66797 3.1601,-1.46666 5.9227,-2.66602 6.1406,-2.66602 0.218,0 1.9262,-0.71501 3.7949,-1.58984 1.8687,-0.87483 4.8972,-2.24192 6.7305,-3.03711 1.8333,-0.79519 3.9346,-1.71243 4.668,-2.03906 5.5558,-2.47457 7.68,-3.33399 8.25,-3.33399 1.8178,0 1.2632,-2.88367 -1.6524,-8.58789 -1.7089,-3.3435 -3.3289,-6.07812 -3.6015,-6.07812 z m -997.9981,5.12109 c -7.15118,-0.0135 -7.99498,0.12771 -12.57031,2.09961 -13.06152,5.6293 -20.72715,16.89375 -20.75195,30.49414 -0.0157,8.62063 2.60836,14.67916 9.12695,21.07617 4.0286,3.95345 8.64407,6.63218 14.86328,8.62696 4.8904,1.56857 16.51348,1.67294 20.87304,0.1875 9.06958,-3.09032 16.27543,-9.55295 20.36133,-18.26172 2.27255,-4.84375 2.35312,-5.27896 2.38282,-13.01172 0.0299,-7.76432 -0.0357,-8.13417 -2.22071,-12.59571 -2.70607,-5.52537 -8.43718,-11.43895 -13.51758,-13.94921 -8.36029,-4.13089 -10.42545,-4.65072 -18.54687,-4.66602 z m -0.88477,15.16211 c 3.29461,0.10298 6.8453,0.99204 10.47461,2.70898 4.3046,2.0364 9.37088,7.31146 9.98828,10.39844 1.46327,7.31636 -2.27885,14.84515 -9.05664,18.22266 -9.24487,4.60692 -23.1083,-0.19613 -27.60156,-9.5625 -2.1098,-4.39795 -1.92601,-7.72237 0.70703,-12.87891 2.85765,-5.59639 7.96309,-8.65477 14.0918,-8.88476 0.45965,-0.0173 0.92583,-0.0186 1.39648,-0.004 z m 1011.05857,7.47656 c -1.5146,0.0832 -3.9443,0.82996 -8.0253,2.17578 -4.6646,1.53824 -9.0812,3.08165 -9.8145,3.42969 -0.7333,0.34803 -5.832,2.12405 -11.332,3.94727 -5.5,1.82322 -13.9013,4.70497 -18.668,6.40429 -4.7667,1.69933 -9.3656,3.24812 -10.2207,3.44141 -2.3979,0.542 -2.4404,1.82299 -0.2344,7.03125 1.1207,2.64579 2.2194,5.46615 2.4434,6.26758 0.4462,1.59713 2.1157,2.24085 3.6797,1.41992 1.2564,-0.65945 10.2213,-3.78925 13.332,-4.6543 5.2753,-1.46703 5.334,-1.46629 5.334,0.0312 0,1.40481 -1.4951,3.28187 -8.916,11.19922 -2.154,2.29804 -4.5947,5.09557 -5.4219,6.2168 l -1.5039,2.03906 1.9473,5.14453 c 1.071,2.82983 2.4461,6.30281 3.0546,7.7168 l 1.1055,2.57031 3.0332,-3.27539 c 1.6684,-1.80228 5.8055,-6.61398 9.1934,-10.69141 l 6.1601,-7.41406 4.7715,2.76367 c 4.599,2.66264 4.9794,2.76149 10.5078,2.74219 4.8078,-0.0168 6.3288,-0.30491 9.4024,-1.7832 4.102,-1.97297 8.0692,-5.52634 9.7207,-8.70508 1.683,-3.23946 2.0128,-11.00703 0.6484,-15.25 -1.375,-4.27564 -5.5059,-15.13204 -6.2969,-16.54883 -0.3138,-0.56204 -0.7777,-1.96679 -1.0312,-3.12109 -0.4867,-2.21576 -0.9217,-3.20461 -2.8692,-3.09766 z m -7.8222,18.59961 c 1.5175,-0.0185 2.0627,1.15367 3.2187,4.1543 1.7197,4.46394 1.4445,6.37568 -1.2597,8.75 -4.326,3.7983 -9.4154,2.40904 -12.3672,-3.37695 -1.6571,-3.24812 -1.4829,-6.12025 0.3906,-6.42579 0.7333,-0.11959 3.3859,-0.98509 5.8945,-1.92187 1.952,-0.72891 3.2126,-1.16858 4.1231,-1.17969 z M 116.62239,441.02196 c -4.53277,0.049 -5.89173,0.3596 -9.65234,2.21094 -6.973633,3.43311 -10.49852,8.38999 -13.72266,19.29688 -0.81291,2.75 -1.852527,6.0487 -2.310547,7.33203 -0.45802,1.28334 -1.044314,3.60425 -1.302734,5.15625 -0.42522,2.55382 -0.322873,2.87745 1.085937,3.41406 2.782461,1.05983 6.230703,2.07513 9.257813,2.72461 1.630761,0.34988 4.764841,1.13026 6.964841,1.73437 2.2,0.60414 5.6513,1.50198 7.66797,1.9961 3.49651,0.85671 6.59516,1.67904 15.16601,4.02344 2.10833,0.5767 5.03333,1.32539 6.5,1.66406 1.46667,0.33867 5.21733,1.32342 8.33399,2.1875 6.2833,1.74202 7.74161,1.49619 8.38476,-1.41797 0.2202,-0.99775 0.84375,-3.2312 1.38672,-4.96094 0.54297,-1.72974 0.89256,-3.94653 0.77539,-4.92773 -0.19068,-1.59671 -0.70408,-1.91856 -4.88086,-3.0625 -2.56667,-0.70297 -6.25209,-1.7289 -8.18945,-2.2793 l -3.52148,-1 0.44921,-2.45898 c 0.24702,-1.35236 0.70615,-3.15309 1.02149,-4.00196 0.31535,-0.84887 0.57422,-3.65624 0.57422,-6.23828 0,-12.51827 -10.11999,-21.54238 -23.98828,-21.39258 z m 1061.15821,9.61329 c -0.22,0.01 -0.4582,0.068 -0.7285,0.13867 -3.3954,0.88747 -10.4034,2.59759 -14.1074,3.44336 -2.2,0.50235 -5.9506,1.38225 -8.334,1.95508 -2.3833,0.57278 -6.2827,1.4571 -8.666,1.96484 -2.3834,0.50775 -5.234,1.22143 -6.334,1.58594 -1.1,0.36451 -3.8,1.03022 -6,1.48046 -4.147,0.84871 -10.1469,2.25303 -14.5352,3.40235 -1.3944,0.3652 -2.6982,1.0866 -2.8965,1.60351 -0.1983,0.51691 0.2838,3.12599 1.0704,5.79688 2.0303,6.89432 3.4213,12.04451 5.3652,19.85547 1.5509,6.2317 2.2105,8.35958 2.8418,9.16797 0.3578,0.45833 0.8751,0.83398 1.1504,0.83398 0.9738,0 10.5537,-2.51616 11.2734,-2.96094 0.9882,-0.61078 0.9227,-2.13739 -0.2441,-5.70703 -0.5394,-1.65 -1.4132,-4.64935 -1.9414,-6.66601 -0.5282,-2.01667 -1.2604,-4.79652 -1.6289,-6.17774 -0.8209,-3.07678 0.094,-4.25956 3.7324,-4.8164 1.3633,-0.20865 3.4867,-0.70166 4.7187,-1.09571 2.8818,-0.92175 3.5116,-0.24374 5.0508,5.42383 0.6473,2.38333 1.5614,5.68203 2.0313,7.33203 0.4698,1.65 1.0364,3.79188 1.2597,4.75977 0.5554,2.40838 1.9423,2.7643 6.336,1.62304 2.0625,-0.5357 4.6058,-1.15471 5.6523,-1.375 1.7064,-0.35919 1.8696,-0.62105 1.582,-2.5371 -0.1764,-1.1751 -0.8361,-3.93672 -1.4648,-6.13672 -3.7935,-13.27526 -3.8368,-12.9739 2.0488,-14.29102 3.1003,-0.69384 3.8997,-0.68382 4.5977,0.0586 0.4646,0.49419 1.8526,4.91787 3.0859,9.83007 1.2333,4.9122 2.5443,9.33867 2.9121,9.83594 0.5617,0.75934 1.4161,0.75946 5.3457,0.008 4.6555,-0.89072 7.6655,-2.05719 7.6465,-2.96484 -0.011,-0.51984 -1.5151,-6.40565 -4.5508,-17.81055 -4.1076,-15.43166 -4.7296,-17.63071 -6.2695,-17.56054 z m -1060.41603,5.27148 c 2.66497,0.11402 4.83424,1.03509 6.98243,2.89453 2.55845,2.21452 2.59495,2.31566 2.53125,6.75586 -0.0511,3.56208 -0.32145,4.69585 -1.29297,5.40625 -0.67618,0.49443 -1.39665,0.87294 -1.60157,0.83984 -0.20492,-0.0331 -3.07304,-0.79726 -6.37304,-1.69726 -3.3,-0.89999 -7.125,-1.93443 -8.5,-2.29883 -2.92769,-0.7759 -3.11387,-1.72231 -1.1914,-6.06836 1.70435,-3.85299 3.3178,-5.24172 6.59765,-5.68164 1.01611,-0.13629 1.95933,-0.1884 2.84765,-0.15039 z m 307.32813,62.98242 c 0.37607,0.0194 0.69369,0.1225 0.92969,0.31836 0.49307,0.4092 1.69745,3.34906 2.67578,6.5332 0.97832,3.18406 2.61061,8.33841 3.62695,11.45508 1.01634,3.11667 2.80938,8.81602 3.98438,12.66602 1.175,3.85003 2.98486,9.55137 4.02148,12.66797 1.03663,3.1167 2.10195,6.70711 2.36719,7.97851 0.26524,1.2712 0.73722,2.76993 1.04883,3.33203 0.31162,0.562 0.87597,2.26937 1.25586,3.79297 0.37988,1.5236 1.23308,3.43906 1.89453,4.25586 1.00718,1.2438 1.43098,1.36107 2.60937,0.73047 1.09371,-0.5854 1.49417,-1.60639 1.79688,-4.58789 0.35331,-3.48 1.18781,-10.63747 2.09375,-17.94727 0.33077,-2.669 0.41566,-2.757 2.18359,-2.25 1.0119,0.2902 2.7959,1.02246 3.96484,1.62696 4.37478,2.2622 22.38649,8.34898 29.5586,9.98828 l 1.75976,0.40234 0.39453,12.83789 c 0.21669,7.0614 0.54502,21.68916 0.73047,32.50586 0.7411,43.2261 1.03389,50.09659 2.31641,54.33399 0.66588,2.2 1.7203,5.8 2.34375,8 0.62345,2.2 1.41088,4.74931 1.74805,5.66601 0.33718,0.9167 0.89879,3.01602 1.25,4.66602 0.35122,1.65 0.83643,3.82568 1.07812,4.83398 0.61531,2.5671 -1.14098,2.38275 -5.38281,-0.56445 -7.1631,-4.9769 -20.74725,-16.85193 -22.36328,-19.54883 -0.56705,-0.9463 -2.48424,-5.10348 -4.25977,-9.23828 -1.77554,-4.1349 -3.56134,-7.72682 -3.96875,-7.98242 -0.40741,-0.2556 -2.84154,-0.49144 -5.4082,-0.52344 -3.82346,-0.0477 -5.15994,-0.37257 -7.40039,-1.79687 -5.35724,-3.4056 -8.61011,-9.04899 -13.93945,-24.17969 -1.67893,-4.7667 -3.47757,-9.56602 -3.9961,-10.66602 -1.62023,-3.4371 -6.99609,-17.12324 -6.99609,-17.81054 0,-0.3599 -0.42347,-1.60046 -0.93946,-2.75586 -0.516,-1.1554 -1.44637,-3.89961 -2.06835,-6.09961 -0.62199,-2.2 -1.42806,-4.9 -1.79102,-6 -0.8507,-2.5781 -2.35279,-8.26459 -3.52344,-13.33399 -6.44688,-27.91787 -6.40536,-42.30511 0.14258,-49.74804 1.90915,-2.17009 4.63209,-3.64265 6.26172,-3.5586 z m 417.49609,0.70899 c 2.80612,0.0348 7.06062,2.25779 10.42383,5.5664 5.2718,5.18627 6.13349,7.1356 6.49609,14.69727 0.291,6.0682 0.0303,8.32703 -2.08007,18 -0.97173,4.4539 -7.12999,23.431 -8.76172,27 -1.3478,2.948 -5.59535,13.34988 -9.93555,24.33398 -2.10087,5.3167 -4.22812,10.56602 -4.72851,11.66602 -0.50033,1.1 -1.50264,3.35 -2.22657,5 -3.6926,8.4162 -9.5367,20.22678 -11.62304,23.48828 -2.9512,4.6134 -4.69144,6.24285 -8.47657,7.93555 -2.891,1.2929 -3.81753,1.31194 -8.75,0.18554 -1.67873,-0.3834 -1.80683,-0.2006 -3.19336,4.4961 -1.6082,5.4474 -4.90607,13.4913 -7.19922,17.5625 -0.82613,1.4667 -1.79837,3.34101 -2.1621,4.16601 -0.36373,0.825 -0.97906,1.5 -1.36719,1.5 -0.38813,0 -3.19029,2.32432 -6.22656,5.16602 -7.2822,6.8154 -11.64818,9.91926 -12.14258,8.63086 -0.35326,-0.9205 3.44004,-13.21906 5.41797,-17.56446 0.52593,-1.1555 0.95703,-2.57073 0.95703,-3.14453 0,-0.5738 0.41959,-2.02822 0.93359,-3.23242 0.514,-1.204 1.47777,-3.98945 2.14063,-6.18945 0.66294,-2.2 1.50475,-4.40585 1.87109,-4.90235 0.38773,-0.5255 0.89408,-10.69043 1.21094,-24.33203 0.29934,-12.8869 0.91031,-32.73095 1.35937,-44.09765 l 0.81641,-20.66797 3,-0.84961 c 10.12507,-2.8726 14.61258,-4.6012 18.82031,-7.25 4.78187,-3.0103 4.81089,-2.94999 5.08789,11.09961 0.20273,10.2796 0.61249,11.64458 3.19336,10.64648 1.04373,-0.4037 1.55028,-1.33729 1.86328,-3.43359 0.4496,-3.0117 0.96734,-5.29712 4.4336,-19.54492 2.72247,-11.1906 4.09961,-15.3368 6.61914,-19.92774 1.12887,-2.05693 2.31299,-5.33808 2.63086,-7.29101 1.0226,-6.2832 7.5305,-17.81585 10.49023,-18.58985 0.33496,-0.0876 0.70655,-0.12802 1.10742,-0.12304 z M 488.46418,706.77196 c 0.73416,0.0962 2.62929,1.86799 7.26172,6.58594 4.09713,4.1728 9.01888,9.96821 10.9375,12.87891 1.91862,2.9107 3.66718,5.4416 3.88477,5.625 0.21758,0.1833 1.59397,1.83467 3.05859,3.66797 9.1252,11.4224 16.66005,18.64208 29.66992,28.42968 9.98815,7.5143 26.36407,16.45728 37,20.20508 2.2,0.7752 4.32598,1.61178 4.72461,1.85938 0.39862,0.2476 1.89928,0.75039 3.33399,1.11718 1.43471,0.36672 4.25872,1.16389 6.27539,1.77149 5.05049,1.5219 10.32799,2.71545 19.33203,4.37305 10.81343,1.9906 37.92937,2.20642 45,0.35742 8.39002,-2.194 11.97886,-3.20762 13.33398,-3.76172 0.73334,-0.2999 2.83269,-1.06537 4.66602,-1.70117 5.71776,-1.983 24.80053,-11.74677 28.78906,-14.73047 1.1672,-0.8731 2.28659,-1.58789 2.48633,-1.58789 0.36773,0 12.44412,-8.0341 13.05859,-8.6875 0.18333,-0.195 2.88333,-2.27364 6,-4.61914 9.9856,-7.5146 19.14144,-15.45379 29.43164,-25.52539 2.52873,-2.475 4.89585,-4.5 5.26172,-4.5 0.69827,0 0.6815,0.10443 -1.46484,9.33203 -0.72493,3.1166 -1.76816,7.6166 -2.31836,10 -0.5502,2.3833 -1.29955,5.48653 -1.66602,6.89453 -0.36653,1.4078 -0.94804,4.1078 -1.29296,6 -0.34501,1.892 -1.04973,5.39014 -1.56446,7.77344 -5.8674,27.17 -5.93074,27.61149 -6.22461,42.65039 -0.28667,14.668 -0.0129,17.62202 2.97461,32.01562 1.9058,9.1816 6.75218,24.49432 10.24024,32.35742 1.84034,4.1487 2.14575,6.04155 1.25195,7.74805 -3.4464,6.58 -17.93737,22.25093 -26.62891,28.79883 -2.01646,1.5192 -4.25794,3.29682 -4.98047,3.94922 -1.274,1.1504 -9.42669,6.79798 -11.75976,8.14648 -0.6344,0.3667 -3.80126,2.25005 -7.03906,4.18555 -9.10594,5.4435 -28.01754,14.65076 -36.86524,17.94726 -2.39561,0.89251 -6.75612,2.52085 -9.68945,3.61915 -2.93333,1.0983 -7.28268,2.61213 -9.66602,3.36523 -2.38333,0.7531 -6.43333,2.03752 -9,2.85352 -15.68537,4.98678 -25.77336,7.34518 -35.80664,8.36918 -14.2285,1.4522 -27.34874,0.2456 -41.85937,-3.8477 -4.47529,-1.2624 -16.80288,-6.16558 -20,-7.95508 -1.28333,-0.7184 -4.43333,-2.47168 -7,-3.89648 -2.56666,-1.4249 -4.96732,-2.84299 -5.33399,-3.15039 -0.36667,-0.3075 -2.07724,-1.51851 -3.80078,-2.69141 -9.52159,-6.4795 -12.54785,-9.0535 -23.21289,-19.75 -6.42414,-6.443 -14.06025,-14.86484 -16.96875,-18.71484 -2.90852,-3.85 -5.46866,-7.15059 -5.68945,-7.33399 -0.62662,-0.5203 -10.15138,-15.11872 -13.4043,-20.54492 -3.64188,-6.075 -12.58984,-23.49682 -12.58984,-24.51172 0,-0.4133 0.99593,-2.06869 2.21289,-3.67969 2.18637,-2.8944 6.12324,-8.48517 11.45703,-16.26367 3.066,-4.4713 12.99609,-20.73931 12.99609,-21.29101 0,-0.1951 0.84733,-2.10254 1.88282,-4.24024 4.74616,-9.7978 5.78629,-16.71665 5.77929,-38.46875 -0.005,-15.7596 -0.57546,-23.7565 -2.99804,-42 -0.96303,-7.2522 -2.74674,-15.91697 -3.45704,-16.79687 -0.35369,-0.4381 -0.54363,-1.43234 -0.42382,-2.21094 0.0451,-0.29345 0.15957,-0.44808 0.40429,-0.41602 z"
       style="fill:#000000;stroke-width:0.66666669" />
    <circle
       r="604.5257"
       cy="551.74951"
       cx="639.0072"
       id="path829"
       style="opacity:1;fill:none;fill-opacity:1;stroke:#ff0000;stroke-width:0.39745018;stroke-miterlimit:4;stroke-dasharray:none;stroke-dashoffset:0;stroke-opacity:1" />
  </g>
</svg>
