<?xml version="1.0" encoding="UTF-8" standalone="no"?>
<svg
   xmlns:dc="http://purl.org/dc/elements/1.1/"
   xmlns:cc="http://creativecommons.org/ns#"
   xmlns:rdf="http://www.w3.org/1999/02/22-rdf-syntax-ns#"
   xmlns:svg="http://www.w3.org/2000/svg"
   xmlns="http://www.w3.org/2000/svg"
   xmlns:sodipodi="http://sodipodi.sourceforge.net/DTD/sodipodi-0.dtd"
   xmlns:inkscape="http://www.inkscape.org/namespaces/inkscape"
   height="603.50mm"
   viewBox="0.0 0.0 233.00 603.50"
   width="233.00mm"
   version="1.1"
   id="svg19"
   sodipodi:docname="presentoir.svg"
   inkscape:version="0.92.5 (2060ec1f9f, 2020-04-08)">
  <defs
     id="defs23" />
  <sodipodi:namedview
     pagecolor="#ffffff"
     bordercolor="#666666"
     borderopacity="1"
     objecttolerance="10"
     gridtolerance="10"
     guidetolerance="10"
     inkscape:pageopacity="0"
     inkscape:pageshadow="2"
     inkscape:window-width="2416"
     inkscape:window-height="1472"
     id="namedview21"
     showgrid="false"
     inkscape:zoom="0.64"
     inkscape:cx="833.45988"
     inkscape:cy="864.182"
     inkscape:window-x="144"
     inkscape:window-y="54"
     inkscape:window-maximized="1"
     inkscape:current-layer="p-1" />
  <!--
Display - Diplay for flyers or leaflets

Created with Boxes.py (https://festi.info/boxes.py)
Creation date: 2020-07-22 10:01:14
Command line (remove spaces between dashes): boxes Display - -x=210 - -h=300 - -radius=5.0 - -angle=0.0 - -thickness=4 - -format=svg - -tabs=0.0 - -debug=0 - -reference=100 - -burn=0.1
Url: http://localhost:8008/Display?x=210&h=300&radius=5.0&angle=0.0&thickness=4&format=svg&tabs=0.0&debug=0&reference=100&burn=0.1&render=1
SettingsUrl: http://localhost:8008/Display?x=210&h=300&radius=5.0&angle=0.0&thickness=4&format=svg&tabs=0.0&debug=0&reference=100&burn=0.1
-->
  <title
     id="title2">Display</title>
  <metadata
     id="metadata4">
    <rdf:RDF>
      <cc:Work>
        <dc:title>Misc - Display</dc:title>
        <dc:date>2020-07-22 10:01:14</dc:date>
        <dc:source>http://localhost:8008/Display?x=210&amp;h=300&amp;radius=5.0&amp;angle=0.0&amp;thickness=4&amp;format=svg&amp;tabs=0.0&amp;debug=0&amp;reference=100&amp;burn=0.1&amp;render=1</dc:source>
        <dc:description>Diplay for flyers or leaflets

Created with Boxes.py (https://festi.info/boxes.py)
Command line: boxes Display --x=210 --h=300 --radius=5.0 --angle=0.0 --thickness=4 --format=svg --tabs=0.0 --debug=0 --reference=100 --burn=0.1
Url: http://localhost:8008/Display?x=210&amp;h=300&amp;radius=5.0&amp;angle=0.0&amp;thickness=4&amp;format=svg&amp;tabs=0.0&amp;debug=0&amp;reference=100&amp;burn=0.1&amp;render=1
SettingsUrl: http://localhost:8008/Display?x=210&amp;h=300&amp;radius=5.0&amp;angle=0.0&amp;thickness=4&amp;format=svg&amp;tabs=0.0&amp;debug=0&amp;reference=100&amp;burn=0.1
</dc:description>
        <dc:format>image/svg+xml</dc:format>
        <dc:type
           rdf:resource="http://purl.org/dc/dcmitype/StillImage" />
      </cc:Work>
    </rdf:RDF>
  </metadata>
  <g
     id="p-1"
     style="fill:none;stroke:#ff0000;stroke-linecap:round;stroke-linejoin:round;stroke-opacity:1"
     transform="translate(1.3581827,7.0625501)">
    <path
       d="m 18.9,371.2 c 0,-0.055 0.045,-0.1 0.1,-0.1 -0.895,0 -1.775,0.236 -2.55,0.683 -0.775,0.448 -1.419,1.092 -1.867,1.867 -0.447,0.775 -0.683,1.655 -0.683,2.55 v 200 c 0,0.895 0.236,1.775 0.683,2.55 0.448,0.775 1.092,1.419 1.867,1.867 0.775,0.447 1.655,0.683 2.55,0.683 -0.055,0 -0.1,-0.045 -0.1,-0.1 M 14,576.3 c -0.055,0 -0.1,-0.045 -0.1,-0.1 0,0.895 0.236,1.775 0.683,2.55 0.448,0.775 1.092,1.419 1.867,1.867 0.775,0.447 1.655,0.683 2.55,0.683 H 87.5 156 c 0.895,0 1.775,-0.236 2.55,-0.683 0.775,-0.448 1.419,-1.092 1.867,-1.867 0.447,-0.775 0.683,-1.655 0.683,-2.55 0,0.055 -0.045,0.1 -0.1,0.1 m -4.9,4.9 c 0,0.055 -0.045,0.1 -0.1,0.1 0.895,0 1.775,-0.236 2.55,-0.683 0.775,-0.448 1.419,-1.092 1.867,-1.867 0.447,-0.775 0.683,-1.655 0.683,-2.55 v -200 c 0,-0.895 -0.236,-1.775 -0.683,-2.55 -0.448,-0.775 -1.092,-1.419 -1.867,-1.867 -0.775,-0.447 -1.655,-0.683 -2.55,-0.683 0.055,0 0.1,0.045 0.1,0.1 m 4.9,4.9 c 0.055,0 0.1,0.045 0.1,0.1 0,-0.895 -0.236,-1.775 -0.683,-2.55 -0.448,-0.775 -1.092,-1.419 -1.867,-1.867 -0.775,-0.447 -1.655,-0.683 -2.55,-0.683 H 19 c -0.895,0 -1.775,0.236 -2.55,0.683 -0.775,0.448 -1.419,1.092 -1.867,1.867 -0.447,0.775 -0.683,1.655 -0.683,2.55 0,-0.055 0.045,-0.1 0.1,-0.1"
       id="path11"
       style="stroke:#ff0000;stroke-width:0.2;stroke-opacity:1"
       inkscape:connector-curvature="0"
       sodipodi:nodetypes="ccccssccccccccscsccccccccssccccccccsscccc" />
  </g>
  <g
     id="p-2"
     style="fill:none;stroke-linecap:round;stroke-linejoin:round;stroke:#ff0000;stroke-opacity:1">
    <path
       d="M 117.900 312.700 H 44.300 C 44.200 312.700 44.300 312.800 44.300 312.700 V 307.700 C 44.300 307.600 44.200 307.700 44.300 307.700 H 191.500 C 191.600 307.700 191.500 307.600 191.500 307.700 V 312.700 C 191.500 312.800 191.600 312.700 191.500 312.700 H 117.900 Z"
       stroke="rgb(0,0,255)"
       stroke-width="0.20"
       id="path14"
       style="stroke:#ff0000;stroke-opacity:1" />
    <path
       d="M 17.900 370.200 H 217.900 C 218.795 370.200 219.675 369.964 220.450 369.517 C 221.225 369.069 221.869 368.425 222.317 367.650 C 222.764 366.875 223.000 365.995 223.000 365.100 V 15.100 C 223.000 14.205 222.764 13.325 222.317 12.550 C 221.869 11.775 221.225 11.131 220.450 10.683 C 219.675 10.236 218.795 10.000 217.900 10.000 H 17.900 C 17.005 10.000 16.125 10.236 15.350 10.683 C 14.575 11.131 13.931 11.775 13.483 12.550 C 13.036 13.325 12.800 14.205 12.800 15.100 V 365.100 C 12.800 365.995 13.036 366.875 13.483 367.650 C 13.931 368.425 14.575 369.069 15.350 369.517 C 16.125 369.964 17.005 370.200 17.900 370.200 Z"
       stroke="rgb(0,0,0)"
       stroke-width="0.20"
       id="path16"
       style="stroke:#ff0000;stroke-opacity:1" />
  </g>
  <g
     id="g1360"
     transform="matrix(1.1224031,0,0,1.1224031,-16.554586,-22.241109)">
    <path
       inkscape:connector-curvature="0"
       id="path1267-5"
       style="fill:none;stroke:#0000ff;stroke-width:0.22803983;stroke-linecap:butt;stroke-linejoin:miter;stroke-miterlimit:10;stroke-dasharray:none;stroke-opacity:1"
       d="m 207.27132,122.85796 -19.86645,3.71828 c -13.88359,-22.75853 -38.95739,-37.964675 -67.58214,-37.964675 -28.599001,0 -53.644647,15.181205 -67.559611,37.910775 l -19.920351,-3.66438 1.628253,89.79041 18.074891,-3.9942 c 13.855432,22.92103 39.013704,38.21245 67.748658,38.21245 28.87011,0 54.11044,-15.45473 67.94335,-38.54229 l 19.50524,4.29589 v -89.76226 z" />
    <path
       inkscape:connector-curvature="0"
       id="path1271-6"
       style="fill:#000000;fill-opacity:1;fill-rule:nonzero;stroke:#000000;stroke-width:6.435781;stroke-linecap:butt;stroke-linejoin:miter;stroke-miterlimit:10;stroke-dasharray:none;stroke-opacity:1"
       d="m 185.47574,165.91978 c 0,36.8545 -29.8757,66.7302 -66.72778,66.7302 -36.857723,0 -66.730205,-29.8757 -66.730205,-66.7302 0,-36.85209 29.872482,-66.727791 66.730205,-66.727791 36.85208,0 66.72778,29.875701 66.72778,66.727791" />
    <path
       inkscape:connector-curvature="0"
       id="path1275-3"
       style="fill:none;stroke:#ffffff;stroke-width:4.02236319;stroke-linecap:butt;stroke-linejoin:miter;stroke-miterlimit:10;stroke-dasharray:none;stroke-opacity:1"
       d="m 119.13169,100.48719 v 7.10832" />
    <path
       d="m 120.34162,120.70922 c 7.69236,0.21962 13.50307,2.01118 13.2577,11.13068 -0.25099,9.1187 -6.7278,16.30908 -14.41132,16.08945 -7.68593,-0.22042 -13.71947,-7.79694 -13.44354,-16.88829 0.27352,-9.09376 6.88548,-10.55227 14.59716,-10.33184 z"
       style="fill:#ffffff;fill-opacity:1;fill-rule:nonzero;stroke:none;stroke-width:0.80447263"
       id="path1277-9"
       inkscape:connector-curvature="0" />
    <path
       inkscape:connector-curvature="0"
       id="path1281-4"
       style="fill:none;stroke:#000000;stroke-width:0.27551657;stroke-linecap:butt;stroke-linejoin:miter;stroke-miterlimit:10;stroke-dasharray:none;stroke-opacity:1"
       d="m 107.58912,125.11773 -0.46821,3.00068" />
    <path
       d="m 106.15313,106.10563 h 26.12042 v 8.45983 h -26.12042 z"
       style="fill:#ffffff;fill-opacity:1;fill-rule:nonzero;stroke:none;stroke-width:0.80447263"
       id="path1283-8"
       inkscape:connector-curvature="0" />
    <path
       d="m 106.15313,115.69333 h 26.12042 l -4.79546,3.99743 h -16.00498 z"
       style="fill:#ffffff;fill-opacity:1;fill-rule:nonzero;stroke:none;stroke-width:0.80447263"
       id="path1285-1"
       inkscape:connector-curvature="0" />
    <path
       d="m 114.19786,110.79088 c 0,1.39897 -1.44242,2.53328 -3.21789,2.53328 -1.78191,0 -3.22433,-1.13431 -3.22433,-2.53328 0,-1.4014 1.44242,-2.5357 3.22433,-2.5357 1.77547,0 3.21789,1.1343 3.21789,2.5357"
       style="fill:#010202;fill-opacity:1;fill-rule:nonzero;stroke:none;stroke-width:0.80447263"
       id="path1287-2"
       inkscape:connector-curvature="0" />
    <path
       d="m 130.34684,110.79088 c 0,1.39897 -1.44242,2.53328 -3.22352,2.53328 -1.78191,0 -3.22754,-1.13431 -3.22754,-2.53328 0,-1.4014 1.44563,-2.5357 3.22754,-2.5357 1.7811,0 3.22352,1.1343 3.22352,2.5357"
       style="fill:#010202;fill-opacity:1;fill-rule:nonzero;stroke:none;stroke-width:0.80447263"
       id="path1289-9"
       inkscape:connector-curvature="0" />
    <path
       d="m 106.92623,110.79088 c 0,1.71915 -0.96134,3.1117 -2.14955,3.1117 -1.18418,0 -2.14633,-1.39255 -2.14633,-3.1117 0,-1.72158 0.96215,-3.11412 2.14633,-3.11412 1.18821,0 2.14955,1.39254 2.14955,3.11412"
       style="fill:#ffffff;fill-opacity:1;fill-rule:nonzero;stroke:none;stroke-width:0.80447263"
       id="path1291-3"
       inkscape:connector-curvature="0" />
    <path
       d="m 135.74888,110.79088 c 0,1.71915 -0.96779,3.1117 -2.14956,3.1117 -1.19061,0 -2.14955,-1.39255 -2.14955,-3.1117 0,-1.72158 0.95894,-3.11412 2.14955,-3.11412 1.18177,0 2.14956,1.39254 2.14956,3.11412"
       style="fill:#ffffff;fill-opacity:1;fill-rule:nonzero;stroke:none;stroke-width:0.80447263"
       id="path1293-9"
       inkscape:connector-curvature="0" />
    <path
       d="m 104.22401,110.79088 c 0,-0.35799 0.63473,-8.43088 0.63473,-8.43088 l 0.63472,8.43088 z"
       style="fill:#ffffff;fill-opacity:1;fill-rule:nonzero;stroke:none;stroke-width:0.80447263"
       id="path1295-0"
       inkscape:connector-curvature="0" />
    <path
       d="m 132.9646,110.79088 c 0,-0.35799 0.63472,-8.43088 0.63472,-8.43088 l 0.63232,8.43088 z"
       style="fill:#ffffff;fill-opacity:1;fill-rule:nonzero;stroke:none;stroke-width:0.80447263"
       id="path1297-8"
       inkscape:connector-curvature="0" />
    <path
       d="m 121.22734,101.56197 c 0,0.86722 -0.90181,1.56791 -2.01118,1.56791 -1.10856,0 -2.01118,-0.70069 -2.01118,-1.56791 0,-0.86723 0.90262,-1.57114 2.01118,-1.57114 1.10937,0 2.01118,0.70391 2.01118,1.57114"
       style="fill:#ffffff;fill-opacity:1;fill-rule:nonzero;stroke:none;stroke-width:0.80447263"
       id="path1299-8"
       inkscape:connector-curvature="0" />
    <path
       d="m 125.79674,112.7739 c 0.80126,0.27674 1.68135,0.27674 2.48261,0 0.80125,-0.27593 1.46092,-0.82619 1.8165,-1.48908 -0.0507,0.49636 -0.49636,0.88251 -0.93641,1.18419 -0.18905,0.13836 -0.41189,0.27673 -0.63473,0.38695 -0.60335,0.30489 -1.29198,0.44004 -1.98302,0.35799 -0.32984,-0.0282 -0.71357,-0.16331 -0.85194,-0.41189 0.0282,-0.0282 0.0821,-0.0563 0.10699,-0.0845"
       style="fill:#ffffff;fill-opacity:1;fill-rule:nonzero;stroke:none;stroke-width:0.80447263"
       id="path1301-5"
       inkscape:connector-curvature="0" />
    <path
       d="m 108.25281,111.4795 c 0.24456,0.38615 0.65645,0.65967 1.09649,0.85435 0.49636,0.22043 1.04903,0.38374 1.59929,0.3588 0.99272,0 1.87282,-0.4682 2.72797,-0.91147 -0.11021,0.32984 -0.35558,0.66289 -0.68541,0.85435 -0.52773,0.33064 -1.2413,0.38695 -1.90419,0.41511 -0.27674,0.0249 -0.55026,0.0249 -0.82297,-0.0282 -0.3588,-0.082 -0.69185,-0.24858 -1.0249,-0.44004 -0.40867,-0.24859 -0.79804,-0.55348 -1.01525,-0.93963 -0.0281,-0.0249 -0.0595,-0.11021 0.029,-0.16331"
       style="fill:#ffffff;fill-opacity:1;fill-rule:nonzero;stroke:none;stroke-width:0.80447263"
       id="path1303-0"
       inkscape:connector-curvature="0" />
    <path
       d="m 132.27355,108.53192 c 0.0563,-0.0282 0.41511,-0.60658 0.88331,-0.66289 0.46499,-0.0539 1.26624,-0.22042 1.98544,0.96456 0.71357,1.18419 0.38052,2.67407 0.38052,2.67407 h -0.24537 c 0,0 0.35558,-1.35151 -0.27352,-2.47938 -0.63473,-1.13109 -1.32577,-1.04984 -1.76581,-0.93963 -0.44005,0.11021 -0.66289,0.60657 -0.66289,0.60657 z"
       style="fill:#010202;fill-opacity:1;fill-rule:nonzero;stroke:none;stroke-width:0.80447263"
       id="path1305-9"
       inkscape:connector-curvature="0" />
    <path
       d="m 106.31966,108.4756 v -2.20345 h 3.72068 c 0,-0.0281 -3.49704,0.11022 -3.72068,2.20345 z"
       style="fill:#010202;fill-opacity:1;fill-rule:nonzero;stroke:none;stroke-width:0.80447263"
       id="path1307-6"
       inkscape:connector-curvature="0" />
    <path
       d="m 106.31966,127.70733 3.72068,-5.34572 -5.81633,-1.15603 z"
       style="fill:#ffffff;fill-opacity:1;fill-rule:nonzero;stroke:none;stroke-width:0.80447263"
       id="path1309-3"
       inkscape:connector-curvature="0" />
    <path
       d="m 104.74852,122.82981 c 0.13837,0.41511 -2.11817,9.20156 -2.11817,9.20156 l 4.29588,-2.50513 0.74172,-5.09634 z"
       style="fill:#ffffff;fill-opacity:1;fill-rule:nonzero;stroke:none;stroke-width:0.80447263"
       id="path1311-8"
       inkscape:connector-curvature="0" />
    <path
       d="m 132.79807,127.70733 -3.71747,-5.34572 5.78577,-1.15603"
       style="fill:#ffffff;fill-opacity:1;fill-rule:nonzero;stroke:none;stroke-width:0.80447263"
       id="path1313-5"
       inkscape:connector-curvature="0" />
    <path
       inkscape:connector-curvature="0"
       id="path1317-6"
       style="fill:#ffffff;fill-opacity:1;fill-rule:nonzero;stroke:#010202;stroke-width:0.27551657;stroke-linecap:butt;stroke-linejoin:miter;stroke-miterlimit:10;stroke-dasharray:none;stroke-opacity:1"
       d="m 122.10743,126.96238 c 0.57842,1.81972 -4.68525,5.09714 -11.73403,7.35691 -7.05764,2.2308 -7.33438,0.68782 -7.90958,-1.12868 -0.57842,-1.81972 -1.23808,-3.22432 5.81071,-5.45513 7.08579,-2.25976 13.28023,-2.58959 13.8329,-0.7731 z" />
    <path
       d="m 134.39817,122.7204 c -0.22365,0.38615 0.0249,9.42037 0.0249,9.42037 l -3.63621,-3.38683 0.38373,-5.15103 z"
       style="fill:#ffffff;fill-opacity:1;fill-rule:nonzero;stroke:none;stroke-width:0.80447263"
       id="path1319-1"
       inkscape:connector-curvature="0" />
    <path
       inkscape:connector-curvature="0"
       id="path1323-1"
       style="fill:#ffffff;fill-opacity:1;fill-rule:nonzero;stroke:#010202;stroke-width:0.27551657;stroke-linecap:butt;stroke-linejoin:miter;stroke-miterlimit:10;stroke-dasharray:none;stroke-opacity:1"
       d="m 115.13426,129.22215 c -0.43682,1.84707 5.0722,4.73834 12.26499,6.41969 7.18716,1.68135 7.35369,0.13837 7.79373,-1.73444 0.44005,-1.84788 0.99272,-3.3088 -6.22259,-4.98693 -7.22095,-1.68135 -13.39286,-1.57194 -13.83613,0.30168 z" />
    <path
       inkscape:connector-curvature="0"
       id="path1327-5"
       style="fill:none;stroke:#000000;stroke-width:0.27551657;stroke-linecap:butt;stroke-linejoin:miter;stroke-miterlimit:10;stroke-dasharray:none;stroke-opacity:1"
       d="m 130.70242,126.60439 0.44326,3.0039" />
    <path
       d="m 120.29093,132.3081 c 0.0788,-0.30167 12.34061,3.22353 13.61007,1.57114 1.26705,-1.65319 0.5752,2.09243 -1.6556,2.03934 -2.28792,-0.27674 -12.45083,-1.79156 -11.95447,-3.61048 z"
       style="fill:#000000;fill-opacity:1;fill-rule:nonzero;stroke:none;stroke-width:0.80447263"
       id="path1329-9"
       inkscape:connector-curvature="0" />
    <path
       d="m 102.63035,132.03137 0.85193,2.42548 c 0,0 0.35799,0.63473 1.90097,0.49717 1.51482,-0.13837 6.00539,-1.27027 6.00539,-1.27027 0,0 -7.79373,1.04984 -8.75829,-1.65238 z"
       style="fill:#010202;fill-opacity:1;fill-rule:nonzero;stroke:none;stroke-width:0.80447263"
       id="path1331-8"
       inkscape:connector-curvature="0" />
    <path
       d="m 108.11122,124.67446 c 0,-0.27352 -0.44327,2.75613 -0.44327,2.75613 l 6.77849,-1.8165 c 0,0 -6.44543,1.7634 -6.33522,-0.93963 z"
       style="fill:#010202;fill-opacity:1;fill-rule:nonzero;stroke:none;stroke-width:0.80447263"
       id="path1333-4"
       inkscape:connector-curvature="0" />
    <path
       inkscape:connector-curvature="0"
       id="path1337-8"
       style="fill:none;stroke:#ffffff;stroke-width:0.27551657;stroke-linecap:butt;stroke-linejoin:miter;stroke-miterlimit:10;stroke-dasharray:none;stroke-opacity:1"
       d="m 133.901,231.41189 -4.99014,2.61776 -4.76409,-3.00471 0.22043,-5.61844 4.9837,-2.64591 4.76731,3.0039 z" />
    <path
       inkscape:connector-curvature="0"
       id="path1341-1"
       style="fill:none;stroke:#ffffff;stroke-width:0.27551657;stroke-linecap:butt;stroke-linejoin:miter;stroke-miterlimit:10;stroke-dasharray:none;stroke-opacity:1"
       d="m 119.51784,222.62222 -4.98693,2.64592 -4.76409,-3.00391 0.21721,-5.64739 4.98693,-2.61776 4.7673,3.00149 z" />
    <path
       inkscape:connector-curvature="0"
       id="path1345-0"
       style="fill:none;stroke:#ffffff;stroke-width:0.27551657;stroke-linecap:butt;stroke-linejoin:miter;stroke-miterlimit:10;stroke-dasharray:none;stroke-opacity:1"
       d="m 99.984436,221.9344 0.217204,-5.62246 4.98693,-2.64269 4.7673,3.00149 -0.2172,5.64981 -4.99015,2.61453 z" />
    <path
       inkscape:connector-curvature="0"
       id="path1349-3"
       style="fill:none;stroke:#ffffff;stroke-width:0.27551657;stroke-linecap:butt;stroke-linejoin:miter;stroke-miterlimit:10;stroke-dasharray:none;stroke-opacity:1"
       d="m 105.32694,213.69499 0.22284,-5.61924 4.98692,-2.61775 4.76731,3.0047 -0.22284,5.61844 -4.98371,2.61775 z" />
    <path
       inkscape:connector-curvature="0"
       id="path1353-0"
       style="fill:none;stroke:#ffffff;stroke-width:0.27551657;stroke-linecap:butt;stroke-linejoin:miter;stroke-miterlimit:10;stroke-dasharray:none;stroke-opacity:1"
       d="m 95.383657,213.36435 0.217207,-5.61843 4.958766,-2.64591 4.76731,3.0039 -0.21721,5.64739 -4.95877,2.61776 z" />
    <path
       inkscape:connector-curvature="0"
       id="path1357-4"
       style="fill:none;stroke:#ffffff;stroke-width:0.27551657;stroke-linecap:butt;stroke-linejoin:miter;stroke-miterlimit:10;stroke-dasharray:none;stroke-opacity:1"
       d="m 129.27207,222.89896 0.2172,-5.62165 4.95877,-2.61776 4.76731,3.00391 -0.21721,5.61843 -4.95877,2.61776 z" />
    <path
       inkscape:connector-curvature="0"
       id="path1361-4"
       style="fill:none;stroke:#ffffff;stroke-width:0.27551657;stroke-linecap:butt;stroke-linejoin:miter;stroke-miterlimit:10;stroke-dasharray:none;stroke-opacity:1"
       d="m 134.61457,214.68771 0.22284,-5.6474 4.98451,-2.61775 4.76972,3.00149 -0.22284,5.62165 -4.98693,2.64591 z" />
    <path
       inkscape:connector-curvature="0"
       id="path1365-4"
       style="fill:none;stroke:#ffffff;stroke-width:0.27551657;stroke-linecap:butt;stroke-linejoin:miter;stroke-miterlimit:10;stroke-dasharray:none;stroke-opacity:1"
       d="m 133.76263,231.49314 0.19227,-5.61843 4.98693,-2.61776 4.76408,3.00149 -0.2172,5.62166 -4.95877,2.61775 z" />
    <path
       inkscape:connector-curvature="0"
       id="path1369-4"
       style="fill:none;stroke:#ffffff;stroke-width:0.27551657;stroke-linecap:butt;stroke-linejoin:miter;stroke-miterlimit:10;stroke-dasharray:none;stroke-opacity:1"
       d="m 135.35951,198.01984 0.22284,-5.62165 4.98693,-2.61776 4.7673,3.0039 -0.22606,5.61925 -4.98049,2.61775 z" />
    <path
       inkscape:connector-curvature="0"
       id="path1373-7"
       style="fill:none;stroke:#ffffff;stroke-width:0.27551657;stroke-linecap:butt;stroke-linejoin:miter;stroke-miterlimit:10;stroke-dasharray:none;stroke-opacity:1"
       d="m 154.45286,215.45759 0.22365,-5.6474 4.98371,-2.61775 4.77052,3.0047 -0.22365,5.61844 -4.99014,2.64591 z" />
    <path
       inkscape:connector-curvature="0"
       id="path1377-6"
       style="fill:none;stroke:#ffffff;stroke-width:0.27551657;stroke-linecap:butt;stroke-linejoin:miter;stroke-miterlimit:10;stroke-dasharray:none;stroke-opacity:1"
       d="m 114.33623,230.69511 0.22284,-5.62166 4.98451,-2.61775 4.76972,3.0039 -0.22284,5.62246 -4.98693,2.61775 z" />
    <path
       inkscape:connector-curvature="0"
       id="path1381-3"
       style="fill:none;stroke:#ffffff;stroke-width:0.27551657;stroke-linecap:butt;stroke-linejoin:miter;stroke-miterlimit:10;stroke-dasharray:none;stroke-opacity:1"
       d="m 139.05204,223.2288 0.21962,-5.62166 4.99014,-2.64269 4.76087,3.00068 -0.21962,5.65062 -4.98451,2.61695 z" />
    <path
       inkscape:connector-curvature="0"
       id="path1385-1"
       style="fill:none;stroke:#ffffff;stroke-width:0.27551657;stroke-linecap:butt;stroke-linejoin:miter;stroke-miterlimit:10;stroke-dasharray:none;stroke-opacity:1"
       d="m 114.8897,214.13745 0.21963,-5.62165 4.98692,-2.64591 4.76409,3.0039 -0.2164,5.6474 -4.98773,2.61775 z" />
    <path
       inkscape:connector-curvature="0"
       id="path1389-7"
       style="fill:none;stroke:#ffffff;stroke-width:0.27551657;stroke-linecap:butt;stroke-linejoin:miter;stroke-miterlimit:10;stroke-dasharray:none;stroke-opacity:1"
       d="m 124.69703,214.46729 0.22284,-5.64982 4.98693,-2.61453 4.7673,3.00068 -0.22606,5.62246 -4.9837,2.64269 z" />
    <path
       inkscape:connector-curvature="0"
       id="path1393-5"
       style="fill:none;stroke:#ffffff;stroke-width:0.27551657;stroke-linecap:butt;stroke-linejoin:miter;stroke-miterlimit:10;stroke-dasharray:none;stroke-opacity:1"
       d="m 120.26278,205.89804 0.21721,-5.61843 4.98692,-2.61776 4.74237,3.00069 -0.19227,5.62245 -4.99015,2.61695 z" />
    <path
       inkscape:connector-curvature="0"
       id="path1397-9"
       style="fill:none;stroke:#ffffff;stroke-width:0.27551657;stroke-linecap:butt;stroke-linejoin:miter;stroke-miterlimit:10;stroke-dasharray:none;stroke-opacity:1"
       d="m 104.39053,230.39021 0.19147,-5.64659 4.99014,-2.61775 4.76409,3.0039 -0.21641,5.61924 -4.95957,2.64591 z" />
    <path
       inkscape:connector-curvature="0"
       id="path1401-6"
       style="fill:none;stroke:#ffffff;stroke-width:0.27551657;stroke-linecap:butt;stroke-linejoin:miter;stroke-miterlimit:10;stroke-dasharray:none;stroke-opacity:1"
       d="m 110.42408,205.458 4.76972,3.0047 -0.22284,5.61844 -4.98693,2.61775 -4.7673,-3.0039 0.22283,-5.61924 z" />
    <path
       inkscape:connector-curvature="0"
       id="path1405-2"
       style="fill:none;stroke:#ffffff;stroke-width:0.27551657;stroke-linecap:butt;stroke-linejoin:miter;stroke-miterlimit:10;stroke-dasharray:none;stroke-opacity:1"
       d="m 115.77221,197.21859 4.76409,3.0039 -0.21641,5.6474 -4.98773,2.61775 -4.7665,-3.00149 0.21641,-5.62165 z" />
    <path
       inkscape:connector-curvature="0"
       id="path1409-1"
       style="fill:none;stroke:#ffffff;stroke-width:0.27551657;stroke-linecap:butt;stroke-linejoin:miter;stroke-miterlimit:10;stroke-dasharray:none;stroke-opacity:1"
       d="m 105.8233,196.88875 4.74236,3.0039 -0.19226,5.61925 -4.99015,2.64591 -4.76409,-3.00471 0.21721,-5.64659 z" />
    <path
       inkscape:connector-curvature="0"
       id="path1413-7"
       style="fill:none;stroke:#ffffff;stroke-width:0.27551657;stroke-linecap:butt;stroke-linejoin:miter;stroke-miterlimit:10;stroke-dasharray:none;stroke-opacity:1"
       d="m 89.844058,221.43724 4.769719,3.0047 -0.226057,5.61844 -4.95877,2.61775 -4.764086,-3.00068 0.223643,-5.62246 z" />
    <path
       inkscape:connector-curvature="0"
       id="path1417-8"
       style="fill:none;stroke:#ffffff;stroke-width:0.27551657;stroke-linecap:butt;stroke-linejoin:miter;stroke-miterlimit:10;stroke-dasharray:none;stroke-opacity:1"
       d="m 95.217131,213.20105 4.767305,3.00148 -0.222839,5.62166 -4.983708,2.64269 -4.770523,-3.00068 0.222839,-5.65062 z" />
    <path
       inkscape:connector-curvature="0"
       id="path1421-5"
       style="fill:none;stroke:#ffffff;stroke-width:0.27551657;stroke-linecap:butt;stroke-linejoin:miter;stroke-miterlimit:10;stroke-dasharray:none;stroke-opacity:1"
       d="m 85.243279,212.86799 4.764087,3.00471 -0.217207,5.62165 -4.990144,2.61454 -4.760869,-3.00149 0.217208,-5.62165 z" />
    <path
       inkscape:connector-curvature="0"
       id="path1425-7"
       style="fill:none;stroke:#ffffff;stroke-width:0.27551657;stroke-linecap:butt;stroke-linejoin:miter;stroke-miterlimit:10;stroke-dasharray:none;stroke-opacity:1"
       d="m 90.475569,204.85142 4.770523,3.00471 -0.223643,5.61844 -4.986926,2.64591 -4.767305,-3.0039 0.226057,-5.6474 z" />
    <path
       inkscape:connector-curvature="0"
       id="path1429-4"
       style="fill:none;stroke:#ffffff;stroke-width:0.27551657;stroke-linecap:butt;stroke-linejoin:miter;stroke-miterlimit:10;stroke-dasharray:none;stroke-opacity:1"
       d="m 95.85186,196.64017 4.7673,3.00471 -0.22283,5.61843 -4.983712,2.61776 -4.770523,-3.00149 0.222839,-5.62165 z" />
    <path
       inkscape:connector-curvature="0"
       id="path1433-1"
       style="fill:none;stroke:#ffffff;stroke-width:0.27551657;stroke-linecap:butt;stroke-linejoin:miter;stroke-miterlimit:10;stroke-dasharray:none;stroke-opacity:1"
       d="m 85.87479,196.28218 4.767305,3.0039 -0.217207,5.6474 -4.986926,2.61775 -4.767305,-3.00148 0.217208,-5.62166 z" />
    <path
       inkscape:connector-curvature="0"
       id="path1437-8"
       style="fill:none;stroke:#ffffff;stroke-width:0.27551657;stroke-linecap:butt;stroke-linejoin:miter;stroke-miterlimit:10;stroke-dasharray:none;stroke-opacity:1"
       d="m 75.159215,212.64837 4.770523,3.0039 -0.223644,5.6474 -4.990143,2.61776 -4.764087,-3.00471 0.222839,-5.61844 z" />
    <path
       inkscape:connector-curvature="0"
       id="path1441-5"
       style="fill:none;stroke:#ffffff;stroke-width:0.27551657;stroke-linecap:butt;stroke-linejoin:miter;stroke-miterlimit:10;stroke-dasharray:none;stroke-opacity:1"
       d="m 80.507349,204.43712 4.760869,3.0039 -0.219621,5.62166 -4.958769,2.61775 -4.767305,-3.0039 0.222839,-5.62166 z" />
    <path
       inkscape:connector-curvature="0"
       id="path1445-9"
       style="fill:none;stroke:#ffffff;stroke-width:0.27551657;stroke-linecap:butt;stroke-linejoin:miter;stroke-miterlimit:10;stroke-dasharray:none;stroke-opacity:1"
       d="m 70.558436,204.07833 4.764087,3.0047 -0.217208,5.64659 -4.986926,2.61776 -4.767304,-3.00068 0.220425,-5.62246 z" />
    <path
       inkscape:connector-curvature="0"
       id="path1449-7"
       style="fill:none;stroke:#ffffff;stroke-width:0.27551657;stroke-linecap:butt;stroke-linejoin:miter;stroke-miterlimit:10;stroke-dasharray:none;stroke-opacity:1"
       d="m 94.613777,230.06038 0.217207,-5.64659 4.986926,-2.61776 4.76409,3.0039 -0.21721,5.6474 -4.986927,2.61775 z" />
    <path
       inkscape:connector-curvature="0"
       id="path1453-5"
       style="fill:none;stroke:#ffffff;stroke-width:0.27551657;stroke-linecap:butt;stroke-linejoin:miter;stroke-miterlimit:10;stroke-dasharray:none;stroke-opacity:1"
       d="m 70.693587,204.1636 0.226057,-5.62165 4.984513,-2.61776 4.7665,3.0039 -0.222839,5.62166 -4.986926,2.61453 z" />
    <path
       inkscape:connector-curvature="0"
       id="path1457-3"
       style="fill:none;stroke:#ffffff;stroke-width:0.27551657;stroke-linecap:butt;stroke-linejoin:miter;stroke-miterlimit:10;stroke-dasharray:none;stroke-opacity:1"
       d="m 105.8233,196.83485 0.22284,-5.64981 4.98773,-2.61775 4.7665,3.0047 -0.22284,5.62166 -4.98693,2.64269 z" />
    <path
       inkscape:connector-curvature="0"
       id="path1461-8"
       style="fill:none;stroke:#ffffff;stroke-width:0.27551657;stroke-linecap:butt;stroke-linejoin:miter;stroke-miterlimit:10;stroke-dasharray:none;stroke-opacity:1"
       d="m 125.38807,197.68679 0.21721,-5.61844 4.98693,-2.61775 4.7673,3.0039 -0.21721,5.61924 -4.99014,2.61695 z" />
    <path
       inkscape:connector-curvature="0"
       id="path1465-8"
       style="fill:none;stroke:#ffffff;stroke-width:0.27551657;stroke-linecap:butt;stroke-linejoin:miter;stroke-miterlimit:10;stroke-dasharray:none;stroke-opacity:1"
       d="m 139.9627,206.3944 0.21721,-5.62165 4.99014,-2.61776 4.76409,3.0039 -0.2164,5.62246 -4.98773,2.61776 z" />
    <path
       inkscape:connector-curvature="0"
       id="path1469-3"
       style="fill:none;stroke:#ffffff;stroke-width:0.27551657;stroke-linecap:butt;stroke-linejoin:miter;stroke-miterlimit:10;stroke-dasharray:none;stroke-opacity:1"
       d="m 149.93414,206.72424 0.22284,-5.61844 4.98451,-2.64591 4.76972,3.0039 -0.22606,5.6474 -4.9837,2.61775 z" />
    <path
       inkscape:connector-curvature="0"
       id="path1473-1"
       style="fill:none;stroke:#ffffff;stroke-width:0.27551657;stroke-linecap:butt;stroke-linejoin:miter;stroke-miterlimit:10;stroke-dasharray:none;stroke-opacity:1"
       d="m 148.99774,223.72516 0.22283,-5.62166 4.98773,-2.61775 4.7665,3.0039 -0.22605,5.61924 -4.98693,2.61775 z" />
    <path
       inkscape:connector-curvature="0"
       id="path1477-8"
       style="fill:none;stroke:#ffffff;stroke-width:0.27551657;stroke-linecap:butt;stroke-linejoin:miter;stroke-miterlimit:10;stroke-dasharray:none;stroke-opacity:1"
       d="m 159.91121,207.05487 0.21721,-5.64739 4.95877,-2.61776 4.7673,3.00471 -0.2172,5.61844 -4.96199,2.64591 z" />
    <path
       inkscape:connector-curvature="0"
       id="path1481-9"
       style="fill:none;stroke:#ffffff;stroke-width:0.27551657;stroke-linecap:butt;stroke-linejoin:miter;stroke-miterlimit:10;stroke-dasharray:none;stroke-opacity:1"
       d="m 164.43074,215.84374 0.2164,-5.6466 4.99015,-2.61775 4.76086,3.0039 -0.21962,5.61924 -4.98451,2.64591 z" />
    <path
       d="m 80.975552,199.47835 c 3.221108,-2.83818 8.261934,-3.91295 18.100634,0.10941 9.833074,4.02236 16.501344,10.33265 14.876304,14.13539 -1.62744,3.80194 -22.591196,1.51402 -32.429897,-2.50835 -9.833068,-4.02236 -3.607255,-8.65049 -0.547041,-11.73645 z"
       style="fill:#ffffff;fill-opacity:1;fill-rule:nonzero;stroke:none;stroke-width:0.80447263"
       id="path1483-6"
       inkscape:connector-curvature="0" />
    <path
       d="m 91.93971,204.54975 c 2.177707,-1.90097 5.565341,-2.61776 12.20224,0.0821 6.64012,2.69901 11.10253,6.96995 10.00281,9.50565 -1.09971,2.56144 -15.206943,1.01846 -21.84706,-1.68135 -6.639313,-2.699 -2.425485,-5.81312 -0.35799,-7.90635 z"
       style="fill:#ffffff;fill-opacity:1;fill-rule:nonzero;stroke:none;stroke-width:0.80447263"
       id="path1485-4"
       inkscape:connector-curvature="0" />
    <path
       d="m 156.73757,199.06646 c -3.30558,-2.72797 -8.37456,-3.66437 -18.10064,0.63151 -9.72607,4.2991 -16.19645,10.80085 -14.4612,14.54969 1.73445,3.74563 22.61614,0.85194 32.34543,-3.41579 9.72527,-4.27094 3.39005,-8.73576 0.21641,-11.76541 z"
       style="fill:#ffffff;fill-opacity:1;fill-rule:nonzero;stroke:none;stroke-width:0.80447263"
       id="path1487-3"
       inkscape:connector-curvature="0" />
    <path
       d="m 145.93993,204.46528 c -2.23402,-1.84466 -5.64981,-2.47939 -12.1773,0.4143 -6.55806,2.89128 -10.91347,7.27243 -9.72848,9.80813 1.1874,2.5357 15.23751,0.57842 21.79557,-2.31286 6.52749,-2.89449 2.23161,-5.89839 0.11021,-7.90957 z"
       style="fill:#ffffff;fill-opacity:1;fill-rule:nonzero;stroke:none;stroke-width:0.80447263"
       id="path1489-3"
       inkscape:connector-curvature="0" />
    <path
       inkscape:connector-curvature="0"
       id="path1493-3"
       style="fill:#ffffff;fill-opacity:1;fill-rule:nonzero;stroke:#0000ff;stroke-width:0.27551657;stroke-linecap:butt;stroke-linejoin:miter;stroke-miterlimit:4;stroke-dasharray:none;stroke-opacity:1"
       d="m 105.52162,207.08303 c -0.11021,-7.98841 6.41969,-19.97345 12.31809,-20.05872 5.89276,-0.0813 11.48626,11.73726 11.59888,19.72889 0.11021,7.99082 -5.29182,9.1195 -11.18699,9.20075 -5.8984,0.0853 -12.61977,-0.88009 -12.72998,-8.87092 z" />
    <path
       d="m 133.4328,205.84495 c -2.84059,1.78754 -4.85178,3.5791 -4.49057,3.96524 0.35558,0.41511 2.91943,-0.71598 5.75761,-2.50754 2.83416,-1.79075 4.84534,-3.5791 4.49057,-3.96605 -0.33064,-0.4143 -2.92265,0.71679 -5.75761,2.50835 z"
       style="fill:#000000;fill-opacity:1;fill-rule:nonzero;stroke:none;stroke-width:0.80447263"
       id="path1495-8"
       inkscape:connector-curvature="0" />
    <path
       d="m 132.27355,201.46379 c 3.52601,0.74172 6.39154,1.62503 6.39154,1.95487 0,0.32983 -2.89128,-0.0282 -6.41969,-0.76988 -3.52601,-0.74494 -6.38912,-1.62745 -6.38912,-1.95809 0,-0.32983 2.86311,0.029 6.41727,0.7731 z"
       style="fill:#000000;fill-opacity:1;fill-rule:nonzero;stroke:none;stroke-width:0.80447263"
       id="path1497-6"
       inkscape:connector-curvature="0" />
    <path
       d="m 137.86705,204.02523 c -0.4682,-0.55026 -0.49636,-1.21314 -0.0282,-1.48988 0.44004,-0.27272 1.1874,-0.0531 1.6556,0.47142 0.4682,0.55026 0.49395,1.20993 0.0257,1.48666 -0.44326,0.30168 -1.18498,0.0821 -1.65319,-0.4682 z"
       style="fill:#000000;fill-opacity:1;fill-rule:nonzero;stroke:none;stroke-width:0.80447263"
       id="path1499-0"
       inkscape:connector-curvature="0" />
    <path
       d="m 126.79268,209.67263 c 0.63473,-1.10052 1.95487,-1.68135 2.94759,-1.26705 0.99031,0.41189 1.2413,1.6532 0.60657,2.75613 -0.63473,1.09971 -1.95728,1.68135 -2.94759,1.26624 -0.99593,-0.41109 -1.2413,-1.65239 -0.60657,-2.75532 z"
       style="fill:#000000;fill-opacity:1;fill-rule:nonzero;stroke:none;stroke-width:0.80447263"
       id="path1501-4"
       inkscape:connector-curvature="0" />
    <path
       d="m 134.09005,200.36086 c -2.83496,1.79156 -4.84614,3.58231 -4.49056,3.96605 0.35799,0.41511 2.92506,-0.71679 5.76002,-2.50433 2.83738,-1.79156 4.84856,-3.58231 4.49057,-3.96926 -0.32984,-0.38615 -2.91943,0.71678 -5.76003,2.50754 z"
       style="fill:#000000;fill-opacity:1;fill-rule:nonzero;stroke:none;stroke-width:0.80447263"
       id="path1503-8"
       inkscape:connector-curvature="0" />
    <path
       d="m 132.93322,196.00866 c 3.526,0.74172 6.39475,1.62504 6.39475,1.95487 0,0.32983 -2.89368,-0.0282 -6.42291,-0.76988 -3.52278,-0.74494 -6.39153,-1.62825 -6.39153,-1.95809 0,-0.32983 2.86875,0 6.41969,0.7731 z"
       style="fill:#000000;fill-opacity:1;fill-rule:nonzero;stroke:none;stroke-width:0.80447263"
       id="path1505-8"
       inkscape:connector-curvature="0" />
    <path
       d="m 138.52994,198.5701 c -0.46821,-0.55026 -0.49958,-1.21314 -0.0314,-1.48666 0.44327,-0.27674 1.18499,-0.0563 1.65319,0.4682 0.46821,0.55026 0.49636,1.20993 0.0282,1.48667 -0.4682,0.27593 -1.18177,0.0813 -1.64997,-0.46821 z"
       style="fill:#000000;fill-opacity:1;fill-rule:nonzero;stroke:none;stroke-width:0.80447263"
       id="path1507-8"
       inkscape:connector-curvature="0" />
    <path
       d="m 127.44994,204.2167 c 0.63472,-1.09972 1.9605,-1.68135 2.9508,-1.26624 0.99272,0.4151 1.23808,1.65319 0.60336,2.75612 -0.6283,1.09971 -1.95487,1.68135 -2.94759,1.26624 -0.98709,-0.41189 -1.23487,-1.65319 -0.60657,-2.75612 z"
       style="fill:#000000;fill-opacity:1;fill-rule:nonzero;stroke:none;stroke-width:0.80447263"
       id="path1509-9"
       inkscape:connector-curvature="0" />
    <path
       d="m 133.46096,195.92419 c -2.8406,1.79076 -4.85178,3.58232 -4.49057,3.96846 0.35558,0.41189 2.91943,-0.71598 5.75439,-2.50754 2.83738,-1.79075 4.84856,-3.58231 4.49057,-3.96926 -0.35558,-0.38293 -2.91943,0.71678 -5.75439,2.50834 z"
       style="fill:#000000;fill-opacity:1;fill-rule:nonzero;stroke:none;stroke-width:0.80447263"
       id="path1511-7"
       inkscape:connector-curvature="0" />
    <path
       d="m 132.27355,191.54303 c 3.52601,0.74495 6.39154,1.62826 6.39154,1.95809 0,0.32983 -2.89128,-0.0282 -6.41969,-0.7731 -3.52601,-0.74172 -6.38912,-1.62503 -6.38912,-1.95487 0.0281,-0.32983 2.89127,0.0282 6.41727,0.76988 z"
       style="fill:#000000;fill-opacity:1;fill-rule:nonzero;stroke:none;stroke-width:0.80447263"
       id="path1513-7"
       inkscape:connector-curvature="0" />
    <path
       d="m 137.86705,194.10769 c -0.4682,-0.55347 -0.49636,-1.21314 -0.0282,-1.48988 0.44004,-0.27352 1.1874,-0.0531 1.6556,0.4682 0.4682,0.55348 0.49395,1.21315 0.0257,1.48989 -0.4682,0.27352 -1.18498,0.0813 -1.65319,-0.46821 z"
       style="fill:#000000;fill-opacity:1;fill-rule:nonzero;stroke:none;stroke-width:0.80447263"
       id="path1515-6"
       inkscape:connector-curvature="0" />
    <path
       d="m 126.79268,199.75429 c 0.63473,-1.10294 1.95487,-1.68055 2.94759,-1.26624 0.99031,0.41189 1.2413,1.65319 0.60657,2.7529 -0.63473,1.10293 -1.95728,1.68135 -2.94759,1.26946 -0.96778,-0.38615 -1.2413,-1.62745 -0.60657,-2.75612 z"
       style="fill:#000000;fill-opacity:1;fill-rule:nonzero;stroke:none;stroke-width:0.80447263"
       id="path1517-4"
       inkscape:connector-curvature="0" />
    <path
       d="m 101.77278,206.20294 c 2.8969,1.70628 4.95877,3.44395 4.62893,3.85584 -0.32661,0.4151 -2.94437,-0.63473 -5.84208,-2.34102 -2.888053,-1.7095 -4.958766,-3.44395 -4.628932,-3.85905 0.361208,-0.41189 2.978962,0.63472 5.842082,2.34423 z"
       style="fill:#000000;fill-opacity:1;fill-rule:nonzero;stroke:none;stroke-width:0.80447263"
       id="path1519-3"
       inkscape:connector-curvature="0" />
    <path
       d="m 102.82262,201.79443 c -3.529226,0.85435 -6.364188,1.81569 -6.335227,2.12059 0.02172,0.32983 2.862314,-0.10941 6.388317,-0.96456 3.526,-0.85435 6.36338,-1.81972 6.33522,-2.1214 0,-0.30489 -2.8599,0.11021 -6.38831,0.96537 z"
       style="fill:#000000;fill-opacity:1;fill-rule:nonzero;stroke:none;stroke-width:0.80447263"
       id="path1521-0"
       inkscape:connector-curvature="0" />
    <path
       d="m 97.310369,204.52159 c 0.440046,-0.55267 0.440046,-1.2413 0,-1.48908 -0.440047,-0.27352 -1.18177,-0.0257 -1.649974,0.52452 -0.468203,0.55026 -0.443264,1.23808 0,1.48666 0.468204,0.27594 1.209927,0.0563 1.649974,-0.5221 z"
       style="fill:#000000;fill-opacity:1;fill-rule:nonzero;stroke:none;stroke-width:0.80447263"
       id="path1523-3"
       inkscape:connector-curvature="0" />
    <path
       d="m 108.55448,209.83915 c -0.66047,-1.10373 -2.01118,-1.62503 -2.97655,-1.18498 -0.96778,0.44004 -1.21314,1.68134 -0.52773,2.78106 0.69426,1.10293 2.0144,1.62745 2.97896,1.18499 0.96456,-0.44005 1.18177,-1.67813 0.52532,-2.78107 z"
       style="fill:#000000;fill-opacity:1;fill-rule:nonzero;stroke:none;stroke-width:0.80447263"
       id="path1525-0"
       inkscape:connector-curvature="0" />
    <path
       d="m 100.97796,200.74781 c 2.89047,1.70629 4.95555,3.44395 4.62813,3.85584 -0.32983,0.4143 -2.94759,-0.63473 -5.844493,-2.34102 -2.891275,-1.7095 -4.958769,-3.44475 -4.628936,-3.85905 0.329834,-0.38374 2.947588,0.63473 5.845299,2.34423 z"
       style="fill:#000000;fill-opacity:1;fill-rule:nonzero;stroke:none;stroke-width:0.80447263"
       id="path1527-9"
       inkscape:connector-curvature="0" />
    <path
       d="m 102.02377,196.36665 c -3.525195,0.85194 -6.363375,1.8165 -6.335218,2.1214 0.02574,0.32983 2.8599,-0.11022 6.389118,-0.96457 3.52842,-0.85515 6.36338,-1.81971 6.33523,-2.12139 -0.0257,-0.33305 -2.89128,0.11021 -6.38913,0.96456 z"
       style="fill:#000000;fill-opacity:1;fill-rule:nonzero;stroke:none;stroke-width:0.80447263"
       id="path1529-2"
       inkscape:connector-curvature="0" />
    <path
       d="m 96.487393,199.06646 c 0.439242,-0.55348 0.439242,-1.2413 0,-1.48988 -0.443264,-0.24778 -1.188206,-0.0249 -1.656409,0.52532 -0.468203,0.54945 -0.443264,1.23808 0,1.48586 0.440047,0.24858 1.213145,0.0571 1.656409,-0.5213 z"
       style="fill:#000000;fill-opacity:1;fill-rule:nonzero;stroke:none;stroke-width:0.80447263"
       id="path1531-5"
       inkscape:connector-curvature="0" />
    <path
       d="m 107.72748,204.41138 c -0.66288,-1.10293 -2.01118,-1.62745 -2.97896,-1.18419 -0.96456,0.44005 -1.20992,1.68135 -0.52451,2.78107 0.69104,1.10293 2.01118,1.62423 2.97574,1.18418 0.96456,-0.43924 1.1874,-1.70629 0.52773,-2.78106 z"
       style="fill:#000000;fill-opacity:1;fill-rule:nonzero;stroke:none;stroke-width:0.80447263"
       id="path1533-4"
       inkscape:connector-curvature="0" />
    <path
       d="m 101.49604,196.31034 c 2.89449,1.7095 4.96199,3.44395 4.62894,3.85584 -0.32984,0.4151 -2.94759,-0.63152 -5.83887,-2.34102 -2.891272,-1.70629 -4.958766,-3.44395 -4.625715,-3.85584 0.329834,-0.4151 2.947588,0.63151 5.835645,2.34102 z"
       style="fill:#000000;fill-opacity:1;fill-rule:nonzero;stroke:none;stroke-width:0.80447263"
       id="path1535-0"
       inkscape:connector-curvature="0" />
    <path
       d="m 102.52094,191.90183 c -3.529223,0.85435 -6.364185,1.81891 -6.34166,2.12059 0.02816,0.33305 2.865532,-0.10941 6.39154,-0.96456 3.52922,-0.85114 6.36659,-1.8165 6.33844,-2.1214 0,-0.32983 -2.86312,0.11021 -6.38832,0.96537 z"
       style="fill:#000000;fill-opacity:1;fill-rule:nonzero;stroke:none;stroke-width:0.80447263"
       id="path1537-5"
       inkscape:connector-curvature="0" />
    <path
       d="m 97.005474,194.62899 c 0.443264,-0.54945 0.443264,-1.23808 0,-1.48586 -0.440047,-0.27674 -1.181771,-0.029 -1.649974,0.5213 -0.468203,0.55348 -0.440046,1.2413 0,1.48988 0.468203,0.27272 1.209927,0.0282 1.649974,-0.52532 z"
       style="fill:#000000;fill-opacity:1;fill-rule:nonzero;stroke:none;stroke-width:0.80447263"
       id="path1539-9"
       inkscape:connector-curvature="0" />
    <path
       d="m 108.25281,199.94655 c -0.66369,-1.10051 -2.01762,-1.62503 -2.97655,-1.18498 -0.96778,0.44326 -1.21234,1.68134 -0.52774,2.78428 0.66289,1.10293 2.01118,1.62423 2.97896,1.18498 0.96457,-0.44004 1.18178,-1.68134 0.52533,-2.78428 z"
       style="fill:#000000;fill-opacity:1;fill-rule:nonzero;stroke:none;stroke-width:0.80447263"
       id="path1541-4"
       inkscape:connector-curvature="0" />
    <path
       inkscape:connector-curvature="0"
       id="path1545-6"
       style="fill:#ffffff;fill-opacity:1;fill-rule:nonzero;stroke:#010202;stroke-width:0.27551657;stroke-linecap:butt;stroke-linejoin:miter;stroke-miterlimit:10;stroke-dasharray:none;stroke-opacity:1"
       d="m 122.40911,229.53908 h 0.85515 l 0.11263,9.42118 z" />
    <path
       inkscape:connector-curvature="0"
       id="path1549-9"
       style="fill:#ffffff;fill-opacity:1;fill-rule:nonzero;stroke:#010202;stroke-width:0.27551657;stroke-linecap:butt;stroke-linejoin:miter;stroke-miterlimit:10;stroke-dasharray:none;stroke-opacity:1"
       d="m 115.87921,229.78686 h -0.85194 l 0.13837,9.45014 z" />
    <path
       inkscape:connector-curvature="0"
       id="path1553-2"
       style="fill:#000000;fill-opacity:1;fill-rule:nonzero;stroke:#0000ff;stroke-width:0.27551657;stroke-linecap:butt;stroke-linejoin:miter;stroke-miterlimit:10;stroke-dasharray:none;stroke-opacity:1"
       d="m 107.80632,225.32203 c -0.0788,-4.98773 6.3135,-13.22392 10.55227,-13.28023 4.2452,-0.0539 10.52411,7.99083 10.6118,12.97856 0.0788,4.98692 -6.12123,5.04002 -10.36,5.09714 -4.21463,0.0812 -10.71638,0.19146 -10.80407,-4.79547 z" />
    <path
       inkscape:connector-curvature="0"
       id="path1557-2"
       style="fill:#ffffff;fill-opacity:1;fill-rule:nonzero;stroke:#ffffff;stroke-width:0.27551594;stroke-linecap:butt;stroke-linejoin:miter;stroke-miterlimit:10;stroke-dasharray:none;stroke-opacity:1"
       d="m 120.82856,223.06209 c -0.72097,-2.62925 0.40876,-5.2228 2.50762,-5.79144 2.10233,-0.56871 4.38076,1.09976 5.09425,3.73017 0.71348,2.6304 -0.41487,5.21927 -2.51108,5.7915 -2.10233,0.56871 -4.38422,-1.10312 -5.09079,-3.73023" />
    <path
       inkscape:connector-curvature="0"
       id="path1561-4"
       style="fill:#ffffff;fill-opacity:1;fill-rule:nonzero;stroke:#ffffff;stroke-width:0.27552047;stroke-linecap:butt;stroke-linejoin:miter;stroke-miterlimit:10;stroke-dasharray:none;stroke-opacity:1"
       d="m 115.60923,223.13486 c -0.63707,2.64913 -2.86586,4.38362 -4.98146,3.87406 -2.11496,-0.50857 -3.31837,-3.0701 -2.68058,-5.71562 0.63802,-2.64974 2.86931,-4.38364 4.98427,-3.87508 2.11471,0.50937 3.31821,3.06749 2.67777,5.71664" />
    <path
       inkscape:connector-curvature="0"
       id="path1565-7"
       style="fill:#000000;fill-opacity:1;fill-rule:nonzero;stroke:#0000ff;stroke-width:0.27551657;stroke-linecap:butt;stroke-linejoin:miter;stroke-miterlimit:4;stroke-dasharray:none;stroke-opacity:1"
       d="m 108.30268,195.40209 h 18.597 l 1.04662,2.39491 -20.60818,-0.0539 z" />
    <path
       inkscape:connector-curvature="0"
       id="path1569-7"
       style="fill:#000000;fill-opacity:1;fill-rule:nonzero;stroke:#0000ff;stroke-width:0.27551657;stroke-linecap:butt;stroke-linejoin:miter;stroke-miterlimit:4;stroke-dasharray:none;stroke-opacity:1"
       d="m 128.8827,200.25145 0.6661,1.68054 -0.13836,0.46821 -23.88882,-0.35799 1.04662,-2.20587 z" />
    <path
       inkscape:connector-curvature="0"
       id="path1573-5"
       style="fill:#000000;fill-opacity:1;fill-rule:nonzero;stroke:#0000ff;stroke-width:0.27551657;stroke-linecap:butt;stroke-linejoin:miter;stroke-miterlimit:4;stroke-dasharray:none;stroke-opacity:1"
       d="m 105.57793,204.60365 24.10603,0.49636 -0.27352,2.78106 -23.88882,-0.79804 z" />
    <path
       d="m 123.62226,218.15981 c 0.4682,-0.57761 1.57113,-0.4682 2.45122,0.24859 0.88573,0.71678 1.35393,2.78106 0.74816,2.34101 -1.51804,-1.13109 -3.66759,-2.01118 -3.19938,-2.5896 z"
       style="fill:#010202;fill-opacity:1;fill-rule:nonzero;stroke:none;stroke-width:0.80447263"
       id="path1575-4"
       inkscape:connector-curvature="0" />
    <path
       d="m 111.58332,218.48965 c 0.46821,-0.57761 1.57114,-0.4682 2.45123,0.24858 0.88009,0.71679 1.3483,2.78106 0.74172,2.34102 -1.54297,-1.15603 -3.66437,-2.01119 -3.19295,-2.5896 z"
       style="fill:#010202;fill-opacity:1;fill-rule:nonzero;stroke:none;stroke-width:0.80447263"
       id="path1577-8"
       inkscape:connector-curvature="0" />
    <path
       d="m 81.13886,231.93319 c -0.08447,0.11343 -0.163308,0.16653 -0.250995,0.24858 -0.07884,0.0563 -0.188247,0.11022 -0.301678,0.11022 -0.110212,0.0282 -0.217207,0.0282 -0.329833,0 -0.110213,-0.0257 -0.217208,-0.0539 -0.304896,-0.13516 -0.07884,-0.0853 -0.163308,-0.13837 -0.217207,-0.24858 -0.05631,-0.0845 -0.109408,-0.19468 -0.109408,-0.30489 -0.02896,-0.11022 -0.02896,-0.21962 0,-0.32984 0.02494,-0.11021 0.05309,-0.21962 0.137564,-0.30167 l 1.621817,-2.34424 0.440047,0.3049 -1.593661,2.2847 c -0.08447,0.11263 -0.112626,0.19468 -0.08447,0.3049 0.02816,0.1094 0.05631,0.16652 0.135151,0.21962 0.08769,0.0563 0.166526,0.0821 0.2518,0.0563 0.08125,-0.0282 0.166526,-0.0845 0.24456,-0.19468 l 1.602509,-2.28471 0.440047,0.30168 z"
       style="fill:#010202;fill-opacity:1;fill-rule:nonzero;stroke:none;stroke-width:0.80447263"
       id="path1579-1"
       inkscape:connector-curvature="0" />
    <path
       d="m 84.69302,230.86163 0.443265,0.27352 -0.499578,2.31608 1.159245,-1.87603 0.440047,0.27674 -1.929126,3.14227 -0.41189,-0.24858 0.468203,-2.31528 -1.159245,1.87282 -0.440046,-0.27352 z"
       style="fill:#010202;fill-opacity:1;fill-rule:nonzero;stroke:none;stroke-width:0.80447263"
       id="path1581-2"
       inkscape:connector-curvature="0" />
    <path
       d="m 89.237486,234.68931 -0.468203,-0.24777 0.05631,-0.11022 c 0.05631,-0.11021 0.08527,-0.22042 0.08527,-0.30167 0,-0.11022 -0.08527,-0.19469 -0.195487,-0.24859 -0.05631,-0.0281 -0.112626,-0.0563 -0.163308,-0.0563 -0.05953,0 -0.109408,0.0282 -0.138369,0.0563 -0.05953,0.0282 -0.08447,0.0539 -0.112626,0.11022 -0.02574,0.0531 -0.05068,0.0821 -0.110213,0.13837 -0.02816,0.0531 -0.05631,0.11021 -0.07884,0.1633 -0.02816,0.0563 -0.02816,0.0845 -0.02816,0.13837 0,0.0563 0,0.0845 0.02816,0.13837 0.02252,0.0563 0.05068,0.0812 0.106995,0.13837 l 0.27352,0.32984 c 0.08769,0.0812 0.13837,0.19146 0.166526,0.27673 0.02816,0.0813 0.05631,0.16331 0.05631,0.27272 0,0.0853 -0.02816,0.19549 -0.05631,0.27674 -0.02816,0.11021 -0.07884,0.22043 -0.166526,0.32983 -0.07884,0.13837 -0.163308,0.24859 -0.245364,0.3588 -0.08447,0.10941 -0.194682,0.16652 -0.301677,0.21962 -0.112626,0.0563 -0.222839,0.0845 -0.361208,0.0563 -0.135152,0 -0.273521,-0.0563 -0.41189,-0.13837 -0.112626,-0.0531 -0.194683,-0.13756 -0.272716,-0.21962 -0.08527,-0.082 -0.141588,-0.19146 -0.166526,-0.30168 -0.02574,-0.11021 -0.05712,-0.22283 -0.02574,-0.33305 0,-0.11021 0.05068,-0.22042 0.106994,-0.32983 l 0.08527,-0.16331 0.468203,0.24456 -0.08527,0.13837 c -0.05631,0.0853 -0.05631,0.16653 -0.05631,0.27674 0,0.11021 0.08769,0.16652 0.194683,0.24858 0.08447,0.0531 0.135151,0.0531 0.194682,0.0531 0.05631,0 0.106995,0 0.135152,-0.0531 0.03137,-0.0571 0.08206,-0.0821 0.138369,-0.13837 0.02816,-0.0539 0.08527,-0.11021 0.110213,-0.19227 0.05309,-0.0845 0.08447,-0.16652 0.112626,-0.21962 0.02896,-0.0563 0.02896,-0.11343 0.02896,-0.16652 0,-0.0563 -0.02896,-0.0821 -0.02896,-0.13837 -0.02816,-0.0282 -0.05953,-0.0813 -0.112626,-0.13837 l -0.248582,-0.30168 c -0.166526,-0.19468 -0.219621,-0.35799 -0.219621,-0.55267 0,-0.19227 0.05309,-0.3588 0.163307,-0.55026 0.05631,-0.11021 0.13837,-0.21962 0.250996,-0.32984 0.07884,-0.0821 0.195487,-0.16652 0.304895,-0.19146 0.106995,-0.0571 0.217208,-0.0571 0.358795,-0.0571 0.135151,0 0.247777,0.0571 0.379711,0.11021 0.110213,0.0563 0.226057,0.13837 0.276739,0.21963 0.08447,0.082 0.138369,0.19548 0.166525,0.30489 0.02816,0.11021 0.02816,0.22043 0.02816,0.33064 0,0.10941 -0.02816,0.19146 -0.08125,0.30168 z"
       style="fill:#010202;fill-opacity:1;fill-rule:nonzero;stroke:none;stroke-width:0.80447263"
       id="path1583-8"
       inkscape:connector-curvature="0" />
    <path
       d="m 91.301763,235.51551 c 0.05953,-0.13757 0.138369,-0.24778 0.226057,-0.32984 0.07884,-0.0812 0.189051,-0.13837 0.301677,-0.16652 0.110213,-0.0249 0.217207,-0.0531 0.32742,-0.0249 0.112626,0.0249 0.219621,0.0249 0.308113,0.0821 0.07803,0.0531 0.188247,0.1094 0.272716,0.19146 0.08206,0.0845 0.13837,0.16653 0.195487,0.27674 0.04988,0.10941 0.04988,0.21962 0.04988,0.32983 0,0.11022 -0.02494,0.24778 -0.07884,0.38615 l -0.798037,1.7634 c -0.05953,0.13837 -0.138369,0.24778 -0.250995,0.32984 -0.08206,0.0845 -0.189051,0.13837 -0.301677,0.16652 -0.113431,0.0282 -0.220426,0.0531 -0.329834,0.0282 -0.113431,0 -0.223643,-0.0282 -0.301677,-0.0845 -0.113431,-0.0539 -0.195487,-0.11021 -0.279957,-0.19227 -0.07884,-0.0812 -0.138369,-0.16653 -0.188246,-0.27593 -0.05712,-0.11022 -0.08528,-0.22043 -0.08528,-0.33064 0,-0.10941 0.02816,-0.24778 0.08528,-0.38615 z m -0.329834,1.98302 c -0.04988,0.11343 -0.04988,0.22365 -0.02494,0.3049 0.02494,0.0821 0.112626,0.13837 0.191465,0.19227 0.08527,0.0563 0.166526,0.0563 0.276738,0.0282 0.112627,-0.0282 0.163308,-0.0821 0.222839,-0.22042 l 0.798037,-1.7626 c 0.05068,-0.11021 0.05068,-0.22043 0.02896,-0.3049 -0.02896,-0.0821 -0.11343,-0.13515 -0.195487,-0.19146 -0.08447,-0.0571 -0.163308,-0.0571 -0.272716,-0.029 -0.08849,0.029 -0.16733,0.0853 -0.223643,0.22042 z"
       style="fill:#010202;fill-opacity:1;fill-rule:nonzero;stroke:none;stroke-width:0.80447263"
       id="path1585-9"
       inkscape:connector-curvature="0" />
    <path
       d="m 95.3555,236.31435 0.49636,0.19468 -1.131089,2.94759 0.967781,0.35799 -0.194682,0.49636 -1.464141,-0.55267 z"
       style="fill:#010202;fill-opacity:1;fill-rule:nonzero;stroke:none;stroke-width:0.80447263"
       id="path1587-3"
       inkscape:connector-curvature="0" />
    <path
       d="m 98.853347,237.58381 0.744942,0.21962 c 0.275934,0.0821 0.468201,0.22042 0.580831,0.44004 0.10699,0.22043 0.10699,0.44005 0.0225,0.74495 l -0.490725,1.65319 c -0.115844,0.32983 -0.250995,0.54945 -0.471421,0.65966 -0.222839,0.11022 -0.468203,0.11022 -0.76988,0.0282 l -0.691042,-0.21962 z m -0.41189,3.19536 0.217208,0.0821 c 0.141587,0.0563 0.250995,0.0281 0.333052,-0.0282 0.08447,-0.0539 0.135151,-0.16331 0.191464,-0.30168 l 0.527734,-1.7095 c 0.05068,-0.13837 0.05068,-0.24858 0,-0.35799 -0.05953,-0.11021 -0.112626,-0.16411 -0.275934,-0.22043 l -0.220425,-0.0813 z"
       style="fill:#010202;fill-opacity:1;fill-rule:nonzero;stroke:none;stroke-width:0.80447263"
       id="path1589-6"
       inkscape:connector-curvature="0" />
    <path
       d="m 102.68103,238.65858 1.54298,0.35799 -0.11022,0.49636 -1.01524,-0.22284 -0.251,1.04984 0.88573,0.19146 -0.11263,0.49636 -0.88331,-0.19468 -0.24536,1.04984 1.01846,0.21962 -0.11021,0.5213 -1.54298,-0.35799 z"
       style="fill:#010202;fill-opacity:1;fill-rule:nonzero;stroke:none;stroke-width:0.80447263"
       id="path1591-8"
       inkscape:connector-curvature="0" />
    <path
       d="m 106.31966,239.37456 0.82941,0.13837 c 0.60657,0.0821 0.85194,0.49395 0.76988,1.20993 -0.0249,0.22042 -0.0845,0.38695 -0.19147,0.52532 -0.11021,0.13756 -0.22283,0.24778 -0.4143,0.30087 l 0.30409,1.73847 -0.55267,-0.0853 -0.24536,-1.62423 -0.3049,-0.0539 -0.251,1.54298 -0.51888,-0.0845 z m 0.27352,1.70629 0.30489,0.0571 c 0.0845,0.0282 0.16653,0 0.22284,0 0.0507,-0.0282 0.107,-0.0571 0.13837,-0.0853 0.0282,-0.0531 0.0539,-0.10941 0.0788,-0.16331 0.0282,-0.0563 0.0282,-0.13836 0.0563,-0.24777 0.0314,-0.11022 0.0314,-0.16653 0.0314,-0.24858 0,-0.0821 0,-0.13837 -0.0314,-0.19147 -0.0281,-0.0571 -0.0563,-0.11021 -0.10699,-0.13837 -0.0595,-0.0282 -0.13837,-0.0563 -0.22284,-0.082 l -0.27674,-0.0282 z"
       style="fill:#010202;fill-opacity:1;fill-rule:nonzero;stroke:none;stroke-width:0.80447263"
       id="path1593-0"
       inkscape:connector-curvature="0" />
    <path
       d="m 110.28571,239.89667 0.52451,0.0563 -0.30167,3.66437 -0.52452,-0.0571 z"
       style="fill:#010202;fill-opacity:1;fill-rule:nonzero;stroke:none;stroke-width:0.80447263"
       id="path1595-2"
       inkscape:connector-curvature="0" />
    <path
       d="m 113.09814,240.06319 h 0.49636 l 0.76988,2.2308 0.0314,-2.20264 h 0.51888 l -0.0507,3.68931 h -0.49958 l -0.76988,-2.23161 -0.0281,2.20667 h -0.5213 z"
       style="fill:#010202;fill-opacity:1;fill-rule:nonzero;stroke:none;stroke-width:0.80447263"
       id="path1597-1"
       inkscape:connector-curvature="0" />
    <path
       d="m 117.23394,240.91754 c 0,-0.13837 0,-0.27593 0.0499,-0.38615 0.0595,-0.11021 0.11021,-0.22042 0.1979,-0.30489 0.0788,-0.0821 0.1633,-0.13515 0.2703,-0.19147 0.11021,-0.0539 0.22284,-0.0821 0.30489,-0.0821 0.11022,0 0.22284,0 0.32984,0.0282 0.11021,0.0257 0.19468,0.082 0.30167,0.13515 0.0885,0.0853 0.16653,0.16652 0.22365,0.27674 0.0531,0.11021 0.0812,0.24858 0.11262,0.38614 v 0.19227 l -0.52773,0.0282 v -0.19147 c 0,-0.13837 -0.0539,-0.22364 -0.11021,-0.27674 -0.078,-0.0563 -0.16653,-0.082 -0.24456,-0.082 -0.11343,0 -0.16733,0.0257 -0.2518,0.11021 -0.0507,0.0531 -0.107,0.16331 -0.0788,0.27352 l 0.10699,1.92913 c 0,0.13837 0.0563,0.22042 0.11022,0.27674 0.0563,0.0531 0.1633,0.0821 0.25099,0.0821 0.0788,0 0.16331,-0.029 0.24537,-0.11021 0.0563,-0.0563 0.11021,-0.16653 0.0853,-0.27674 l -0.029,-0.68782 -0.4143,0.0281 -0.0249,-0.4682 0.9364,-0.0571 0.0531,1.16005 c 0,0.13515 0,0.27352 -0.0531,0.38293 -0.0539,0.11021 -0.11343,0.22043 -0.19227,0.3049 -0.0845,0.0821 -0.16652,0.13837 -0.27593,0.19226 -0.11343,0.0563 -0.22364,0.0813 -0.30168,0.0813 -0.11343,0 -0.22364,0 -0.33385,-0.0249 -0.11263,-0.0282 -0.19147,-0.0853 -0.30168,-0.13837 -0.11263,-0.0563 -0.16653,-0.16653 -0.22284,-0.27674 -0.0563,-0.10941 -0.0788,-0.24778 -0.10699,-0.38615 z"
       style="fill:#010202;fill-opacity:1;fill-rule:nonzero;stroke:none;stroke-width:0.80447263"
       id="path1599-0"
       inkscape:connector-curvature="0" />
    <path
       d="m 125.79674,240.33993 -0.52129,0.0531 v -0.11022 c 0,-0.10941 -0.0539,-0.21962 -0.11022,-0.30167 -0.0531,-0.0845 -0.16652,-0.11263 -0.30489,-0.11263 -0.0788,0 -0.13837,0.0282 -0.16331,0.0563 -0.0531,0.0282 -0.0821,0.0821 -0.0821,0.11021 -0.0281,0.0563 -0.0281,0.10941 -0.0281,0.16653 0,0.0531 0,0.10941 0,0.16331 0,0.0845 0.0281,0.13837 0.0281,0.19468 0,0.0531 0.029,0.0821 0.0539,0.13837 0.0282,0.0249 0.0531,0.0531 0.11263,0.0812 0.0507,0.029 0.107,0.0539 0.16653,0.0539 l 0.41189,0.11021 c 0.10699,0.0282 0.2172,0.0845 0.30167,0.13757 0.0821,0.0571 0.13515,0.11021 0.19469,0.19549 0.0539,0.0812 0.0788,0.1633 0.10699,0.27271 0.0314,0.11021 0.0563,0.22043 0.0563,0.3588 0.0258,0.16652 0.0258,0.30489 0,0.44326 -0.0249,0.13515 -0.0563,0.24456 -0.11262,0.35799 -0.0507,0.11021 -0.13837,0.19147 -0.24537,0.24537 -0.11021,0.0563 -0.24777,0.11262 -0.41189,0.13756 -0.13756,0.029 -0.25099,0 -0.3612,-0.0249 -0.107,-0.0282 -0.21963,-0.0845 -0.30168,-0.13837 -0.0845,-0.0563 -0.16653,-0.16652 -0.22284,-0.24777 -0.0507,-0.11022 -0.0788,-0.22043 -0.11021,-0.32984 l -0.0282,-0.19549 0.52773,-0.0531 0.0282,0.16331 c 0,0.0853 0.0507,0.16652 0.107,0.24858 0.0595,0.0813 0.16652,0.10941 0.30167,0.0813 0.0853,0 0.16975,-0.0249 0.1979,-0.0531 0.0507,-0.0282 0.0788,-0.0821 0.107,-0.11022 0.0281,-0.0563 0.0281,-0.11021 0.0281,-0.16652 0,-0.0813 0,-0.13837 -0.0281,-0.21962 0,-0.0821 -0.0282,-0.16331 -0.0282,-0.24859 -0.0282,-0.0531 -0.0282,-0.11021 -0.0531,-0.13837 -0.0258,-0.0249 -0.0539,-0.0531 -0.11343,-0.0812 -0.0507,-0.029 -0.11022,-0.029 -0.16331,-0.0539 l -0.38374,-0.11262 c -0.25099,-0.0539 -0.41752,-0.16331 -0.49957,-0.30168 -0.078,-0.13837 -0.16331,-0.33064 -0.19147,-0.55026 -0.0281,-0.13837 0,-0.27674 0,-0.38615 0.0249,-0.13837 0.0563,-0.24858 0.13837,-0.33063 0.0531,-0.10941 0.13515,-0.16653 0.251,-0.24778 0.10699,-0.0571 0.24214,-0.11021 0.38051,-0.13837 0.13837,-0.0282 0.251,0 0.35799,0.0282 0.11022,0.0282 0.22365,0.0821 0.3049,0.1633 0.082,0.0853 0.16652,0.16653 0.22284,0.24859 0.0507,0.0845 0.0788,0.19468 0.0788,0.30489 z"
       style="fill:#010202;fill-opacity:1;fill-rule:nonzero;stroke:none;stroke-width:0.80447263"
       id="path1601-5"
       inkscape:connector-curvature="0" />
    <path
       d="m 127.86746,239.01657 0.5221,-0.0563 0.4682,3.63541 -0.5221,0.0853 z"
       style="fill:#010202;fill-opacity:1;fill-rule:nonzero;stroke:none;stroke-width:0.80447263"
       id="path1603-1"
       inkscape:connector-curvature="0" />
    <path
       d="m 130.65174,238.63043 0.49394,-0.0821 1.12787,2.06428 -0.32983,-2.20265 0.5213,-0.0812 0.57841,3.63541 -0.49636,0.0821 -1.12545,-2.06508 0.32983,2.17448 -0.52452,0.0821 z"
       style="fill:#010202;fill-opacity:1;fill-rule:nonzero;stroke:none;stroke-width:0.80447263"
       id="path1605-1"
       inkscape:connector-curvature="0" />
    <path
       d="m 136.82043,240.47508 c 0.0282,0.10941 0.0282,0.22284 0,0.33305 -0.0281,0.10941 -0.0563,0.21962 -0.13515,0.30168 -0.0595,0.0812 -0.13837,0.16653 -0.22606,0.21962 -0.0788,0.0563 -0.19146,0.11021 -0.30167,0.13837 -0.107,0.0282 -0.19147,0.0282 -0.30168,0.0282 -0.10699,0 -0.22284,-0.0282 -0.30489,-0.0845 -0.0788,-0.0539 -0.16331,-0.13515 -0.24537,-0.22043 -0.0845,-0.11021 -0.13756,-0.21962 -0.16331,-0.38293 l -0.36121,-1.98624 c -0.0282,-0.11021 -0.0282,-0.22043 0,-0.32983 0.0282,-0.11022 0.0563,-0.22043 0.11022,-0.30168 0.0531,-0.0853 0.13837,-0.16653 0.22284,-0.22043 0.0788,-0.0563 0.19146,-0.11262 0.32983,-0.13837 0.107,-0.0282 0.21721,-0.0282 0.32983,0 0.11022,0.0257 0.21721,0.0539 0.3049,0.13837 0.0788,0.0539 0.16411,0.13515 0.21721,0.24537 0.0563,0.11343 0.11343,0.22284 0.13837,0.33305 l 0.0249,0.19146 -0.51888,0.11022 -0.0282,-0.16331 c -0.0282,-0.11343 -0.0595,-0.19468 -0.13837,-0.24858 -0.0845,-0.0563 -0.1633,-0.0845 -0.25099,-0.0563 -0.13515,0.0282 -0.21721,0.0821 -0.24537,0.16653 -0.0281,0.0821 -0.0281,0.19146 0,0.30168 l 0.35558,1.84787 c 0.0282,0.11021 0.0563,0.19146 0.11585,0.24536 0.0507,0.0563 0.13515,0.0845 0.2703,0.0563 0.0314,0 0.082,-0.0282 0.11021,-0.0282 0.0282,-0.0282 0.0563,-0.0539 0.0877,-0.0821 0.0257,-0.0281 0.0507,-0.0812 0.0507,-0.13836 0,-0.0531 0,-0.10941 0,-0.19147 l -0.0249,-0.16652 0.5213,-0.11022 z"
       style="fill:#010202;fill-opacity:1;fill-rule:nonzero;stroke:none;stroke-width:0.80447263"
       id="path1607-0"
       inkscape:connector-curvature="0" />
    <path
       d="m 138.42053,237.22582 1.54217,-0.33064 0.11022,0.49394 -1.02088,0.22284 0.21962,1.04662 0.88009,-0.19468 0.11343,0.49636 -0.88331,0.19468 0.22284,1.04662 1.01525,-0.22042 0.11343,0.5221 -1.54298,0.32983 z"
       style="fill:#010202;fill-opacity:1;fill-rule:nonzero;stroke:none;stroke-width:0.80447263"
       id="path1609-8"
       inkscape:connector-curvature="0" />
    <path
       d="m 145.47173,238.73983 0.38374,-1.98302 c 0.0282,-0.10941 0.0282,-0.19468 0,-0.24778 0,-0.0563 -0.0257,-0.13837 -0.0507,-0.24858 0,-0.0563 -0.0314,-0.0812 -0.0595,-0.13837 -0.0282,-0.0531 -0.0282,-0.0813 -0.0563,-0.10941 -0.0225,-0.0282 -0.0507,-0.0539 -0.11021,-0.0821 -0.0249,-0.0282 -0.0788,0 -0.16331,0 -0.0821,0.0281 -0.13837,0.0539 -0.16653,0.11021 -0.0249,0.0531 -0.0249,0.13837 0,0.21962 l 0.0845,0.27674 -0.49636,0.13515 -0.0812,-0.27352 c -0.0257,-0.11021 -0.0571,-0.21962 -0.0257,-0.3049 0,-0.1094 0.0507,-0.19146 0.0788,-0.30167 0.0281,-0.10941 0.11343,-0.16653 0.19146,-0.24778 0.0853,-0.0821 0.16974,-0.11021 0.27674,-0.13837 0.13837,-0.0282 0.25099,-0.0539 0.36121,-0.0282 0.10699,0.0282 0.19146,0.0563 0.30167,0.13757 0.0821,0.0571 0.16653,0.13837 0.22365,0.24858 0.0499,0.11021 0.10941,0.19468 0.13515,0.32983 0.0249,0.0853 0.0531,0.16653 0.0531,0.22043 0,0.0563 0.0282,0.11263 0.0282,0.16652 0,0.0563 0,0.10941 0,0.16653 0,0.0531 -0.0282,0.13837 -0.0282,0.21962 l -0.30167,1.65319 0.90825,-0.27674 0.13837,0.49636 -1.51483,0.44005 z"
       style="fill:#010202;fill-opacity:1;fill-rule:nonzero;stroke:none;stroke-width:0.80447263"
       id="path1611-5"
       inkscape:connector-curvature="0" />
    <path
       d="m 148.39116,235.29589 c -0.0563,-0.11022 -0.0563,-0.21962 -0.0563,-0.32984 0,-0.11021 0.0282,-0.19146 0.0845,-0.30489 0.0571,-0.0821 0.11021,-0.16331 0.19468,-0.21962 0.0788,-0.0539 0.16411,-0.11022 0.27674,-0.13837 0.107,-0.0257 0.19146,-0.0539 0.30168,-0.0539 0.10699,0 0.19146,0.0282 0.27352,0.0539 0.0845,0.0282 0.16331,0.11262 0.2518,0.16652 0.078,0.0563 0.13435,0.16653 0.16009,0.3049 l 0.7192,2.03612 c 0.0507,0.11021 0.0507,0.21962 0.0507,0.33305 0,0.11021 -0.0225,0.19146 -0.0821,0.30168 -0.0531,0.0813 -0.10699,0.16652 -0.19146,0.21962 -0.0788,0.0571 -0.16653,0.11021 -0.27674,0.13837 -0.107,0.0282 -0.19147,0.0539 -0.30168,0.0539 -0.10699,0 -0.19468,-0.0257 -0.27352,-0.0539 -0.0845,-0.0282 -0.16652,-0.10941 -0.25099,-0.16653 -0.0788,-0.0812 -0.13837,-0.16331 -0.16653,-0.30168 z m 1.21315,1.84787 c 0.0249,0.0821 0.0845,0.11021 0.13515,0.16331 0.0563,0.0281 0.13837,0.0281 0.19468,0 0.0845,-0.0282 0.11021,-0.0813 0.13837,-0.13837 0.0249,-0.0531 0.0249,-0.13837 0,-0.19147 l -0.71357,-2.03933 c -0.0314,-0.0821 -0.0877,-0.11022 -0.13837,-0.16331 -0.0595,-0.029 -0.13837,-0.029 -0.1979,0 -0.078,0.0249 -0.10699,0.0813 -0.13193,0.13515 -0.0314,0.0563 -0.0314,0.13756 0,0.19468 z"
       style="fill:#010202;fill-opacity:1;fill-rule:nonzero;stroke:none;stroke-width:0.80447263"
       id="path1613-0"
       inkscape:connector-curvature="0" />
    <path
       d="m 151.91717,233.97333 c -0.0539,-0.11021 -0.0788,-0.22042 -0.0788,-0.33063 0,-0.10941 0.0249,-0.19147 0.0507,-0.30168 0.0282,-0.10941 0.0845,-0.16653 0.16653,-0.24778 0.0845,-0.0853 0.16652,-0.13837 0.25099,-0.16653 0.0788,-0.0282 0.19227,-0.0539 0.30168,-0.0539 0.10699,0 0.19468,0 0.30489,0.0539 0.0788,0.0282 0.19147,0.0813 0.24537,0.16653 0.0845,0.0812 0.13837,0.16331 0.19146,0.27352 l 0.85837,1.98544 c 0.0499,0.11021 0.078,0.22043 0.078,0.33064 0,0.10941 -0.0282,0.19146 -0.0531,0.30168 -0.0249,0.0845 -0.082,0.16652 -0.16652,0.24777 -0.0821,0.0821 -0.16009,0.13837 -0.24858,0.16653 -0.078,0.0282 -0.19147,0.0539 -0.30168,0.0539 -0.107,0 -0.19468,0 -0.30168,-0.0539 -0.0845,-0.0282 -0.19468,-0.0845 -0.24778,-0.16653 -0.0853,-0.0813 -0.13837,-0.16331 -0.19227,-0.27352 z m 1.32577,1.7626 c 0.0281,0.0845 0.0788,0.11022 0.13837,0.13837 0.0507,0.0282 0.13515,0.0282 0.19146,0 0.0788,-0.0282 0.11021,-0.0821 0.13837,-0.13837 0.029,-0.0531 0.029,-0.13515 0,-0.19146 l -0.85757,-1.98303 c -0.0281,-0.0853 -0.0788,-0.11021 -0.13837,-0.13837 -0.0499,-0.0281 -0.13837,-0.0281 -0.19146,0 -0.0821,0.0282 -0.11021,0.0813 -0.13837,0.13837 -0.0282,0.0531 -0.0282,0.13837 0,0.19147 z"
       style="fill:#010202;fill-opacity:1;fill-rule:nonzero;stroke:none;stroke-width:0.80447263"
       id="path1615-6"
       inkscape:connector-curvature="0" />
    <path
       d="m 156.26936,232.84466 c 0.13837,-0.0845 0.22284,-0.13837 0.27674,-0.19468 0.0282,-0.0531 0.0282,-0.16331 -0.0249,-0.27352 l -0.22364,-0.41431 c -0.0282,-0.0539 -0.078,-0.11021 -0.13515,-0.13837 -0.0563,-0.0257 -0.13837,-0.0257 -0.19468,0.0282 -0.0788,0.0563 -0.13837,0.11021 -0.13837,0.16652 0,0.0531 0,0.13837 0.0314,0.16331 l 0.13515,0.27674 -0.4682,0.24778 -0.13515,-0.27594 c -0.0595,-0.0821 -0.0877,-0.19226 -0.0877,-0.30167 0,-0.11022 0,-0.19549 0.0282,-0.3049 0.0281,-0.0821 0.0845,-0.19227 0.13837,-0.27352 0.0563,-0.0853 0.13837,-0.13837 0.25099,-0.19468 0.13837,-0.0539 0.24537,-0.0821 0.35558,-0.0821 0.11263,0 0.19146,0.0282 0.27915,0.0563 0.0507,0.0257 0.0788,0.0539 0.13515,0.0821 0.0539,0.0282 0.0821,0.0531 0.107,0.11022 0.0314,0.0531 0.0885,0.1094 0.13837,0.16652 0.0595,0.0531 0.0877,0.16331 0.13837,0.24456 0.0595,0.11343 0.11343,0.22364 0.13837,0.27674 0.0282,0.0821 0.0563,0.13837 0.0563,0.19146 0,0.0571 0,0.11343 -0.0282,0.16653 -0.0282,0.0571 -0.0507,0.11021 -0.10699,0.19227 0.10699,0 0.1633,0.0282 0.2172,0.0563 0.0563,0.0282 0.11263,0.0563 0.16653,0.11021 0.0531,0.0563 0.0845,0.10941 0.13515,0.16653 0.0563,0.0531 0.0845,0.16331 0.14078,0.27352 0.0539,0.10941 0.11022,0.19468 0.13837,0.27594 0.029,0.0821 0.0539,0.13836 0.0788,0.19226 0.0282,0.0563 0.0282,0.10941 0.0282,0.13837 0,0.0563 0,0.0845 0,0.13757 -0.0282,0.11021 -0.0531,0.22042 -0.107,0.33064 -0.0563,0.1094 -0.16652,0.19468 -0.30167,0.27593 -0.0877,0.0282 -0.16653,0.0539 -0.251,0.0821 -0.0821,0.0281 -0.19146,0.0281 -0.27674,0 -0.0788,-0.0249 -0.19146,-0.0539 -0.27352,-0.13837 -0.0845,-0.0531 -0.16652,-0.16331 -0.22284,-0.30168 l -0.13837,-0.27674 0.46821,-0.24778 0.13837,0.24778 c 0.0281,0.0853 0.0877,0.11021 0.16652,0.13837 0.0595,0.0282 0.13837,0.0282 0.19468,-0.0282 0.0821,-0.0249 0.107,-0.0821 0.13516,-0.1633 0.0314,-0.0563 0,-0.13837 -0.0282,-0.22043 l -0.24215,-0.4682 c -0.0314,-0.0563 -0.0595,-0.10941 -0.0877,-0.13757 -0.0225,-0.029 -0.0507,-0.0571 -0.11022,-0.0571 -0.0281,0 -0.0788,0 -0.13837,0 -0.0531,0.0281 -0.10699,0.0571 -0.19146,0.0853 z"
       style="fill:#010202;fill-opacity:1;fill-rule:nonzero;stroke:none;stroke-width:0.80447263"
       id="path1617-4"
       inkscape:connector-curvature="0" />
    <path
       d="M 99.349707,137.10276 51.933286,128.8352 c -3.085957,4.7673 -5.619242,9.8926 -7.523428,15.29141 -0.382929,1.07478 -0.713568,2.14955 -1.043401,3.22433 -0.250996,0.82619 -0.468203,1.65239 -0.691042,2.47938 -1.514822,5.78497 -2.316077,11.81851 -2.316077,18.01858 0,14.16355 4.160732,27.41482 11.381679,38.71203 L 99.81791,196.53076 c 13.47492,-2.81002 27.49687,-2.81002 40.96857,0 l 46.64654,9.72527 c 7.10832,-11.24009 11.18781,-24.3538 11.18781,-38.40713 0,-14.26973 -4.21464,-27.60628 -11.54901,-38.95739 l -45.84529,8.12678 c -13.82728,2.47939 -28.04392,2.50754 -41.876823,0.0845 z"
       style="fill:#ffffff;fill-opacity:1;fill-rule:nonzero;stroke:none;stroke-width:0.80447263"
       id="path1619-6"
       inkscape:connector-curvature="0" />
    <path
       d="m 64.084845,135.09158 c 0.166526,0 0.358795,0.19227 0.603354,0.60335 v 9.81135 c 0,0.16331 -0.191464,0.35799 -0.603354,0.57842 H 52.234963 v 13.33333 h 10.084064 c 0.166526,0 0.357991,0.19468 0.581634,0.57841 v 9.67218 c 0,0.16331 -0.192269,0.35799 -0.581634,0.57841 H 52.234963 v 13.33333 h 11.849882 c 0.166526,0 0.358795,0.19469 0.603354,0.58164 v 9.83548 c 0,0.13515 -0.191464,0.32983 -0.603354,0.57842 H 42.096999 c -0.662886,0 -1.017658,-0.44327 -1.017658,-1.29521 v -56.84081 c 0,-0.8801 0.354772,-1.3483 1.017658,-1.3483 z"
       style="fill:#000000;fill-opacity:1;fill-rule:nonzero;stroke:none;stroke-width:0.80447263"
       id="path1621-2"
       inkscape:connector-curvature="0" />
    <path
       d="m 82.295692,139.96588 c 0.135151,0 0.301677,0.16653 0.524516,0.55348 v 5.36985 c 0,0.24858 0.05712,0.41511 0.135151,0.41511 l -0.135151,0.65967 v 40.39337 c 0,0.19227 0.05712,0.41189 0.135151,0.55026 -0.07803,0.13837 -0.135151,0.30168 -0.135151,0.52452 v 4.49056 c 0,0.11022 -0.166526,0.27352 -0.524516,0.52211 h -8.42846 c -0.606572,0 -0.910663,-0.41189 -0.910663,-1.18499 v -51.0808 c 0,-0.79803 0.304091,-1.21314 0.910663,-1.21314 z"
       style="fill:#000000;fill-opacity:1;fill-rule:nonzero;stroke:none;stroke-width:0.80447263"
       id="path1623-5"
       inkscape:connector-curvature="0" />
    <path
       d="m 100.36817,140.68266 c 5.07139,0 8.29572,1.24131 9.72929,3.74885 1.23808,1.48666 1.8696,4.07546 1.8696,7.85326 v 7.21773 c 0,4.40609 -1.62504,7.3569 -4.87752,8.84276 v 0.11021 c 3.96927,11.51764 6.42371,17.85286 7.3569,21.1335 -0.13837,0.41109 0.19468,0.79804 -0.24858,0.79804 l -9.36406,0.8825 c -0.38695,0 -1.21315,-2.47938 -2.48019,-7.46631 -0.0845,-0.0282 -0.79804,-2.61775 -2.23402,-7.85245 h -0.135154 v 14.46441 c 0,0.57842 -0.301677,0.85435 -0.857568,0.85435 H 91.52782 c -0.58083,0 -0.857568,-0.30409 -0.857568,-0.85435 v -48.84999 c 0,-0.60657 0.301677,-0.88251 0.857568,-0.88251 z m -0.990307,8.70762 v 12.5916 h 0.851937 c 2.01118,0 3.00712,-0.9364 3.00712,-2.86553 v -6.86054 c 0,-1.92913 -0.69104,-2.86553 -2.01118,-2.86553 z"
       style="fill:#000000;fill-opacity:1;fill-rule:nonzero;stroke:none;stroke-width:0.80447263"
       id="path1625-8"
       inkscape:connector-curvature="0" />
    <path
       d="m 128.50219,142.94162 c 4.70777,0 7.68351,1.1319 8.95297,3.33454 1.20993,1.68135 1.84788,3.96847 1.84788,6.8879 v 7.21853 c 0,2.47939 -0.71599,4.43747 -2.20909,5.84208 1.46414,1.40461 2.20909,3.33374 2.20909,5.86702 v 7.21773 c 0,5.04404 -1.84788,8.24021 -5.51466,9.61586 -1.07478,0.38695 -3.22433,0.57842 -6.41728,0.57842 h -7.44137 c -0.52452,0 -0.79804,-0.27353 -0.79804,-0.79804 v -44.93704 c 0,-0.55026 0.27352,-0.827 0.79804,-0.827 z m -1.37887,8.01979 v 11.59889 h 1.01766 c 2.0683,0 3.11411,-0.79804 3.11411,-2.42629 v -5.95149 c 0,-2.14633 -0.63473,-3.22111 -1.84465,-3.22111 z m 0,18.92683 v 11.59889 h 2.42548 c 1.15362,0 1.70629,-1.01766 1.70629,-3.08596 v -5.50823 c 0,-1.98624 -0.87929,-3.0047 -2.64591,-3.0047 z"
       style="fill:#000000;fill-opacity:1;fill-rule:nonzero;stroke:none;stroke-width:0.80447263"
       id="path1627-6"
       inkscape:connector-curvature="0" />
    <path
       d="m 169.16908,151.81335 v 30.03257 c 0,5.45513 -1.46414,9.03745 -4.35863,10.66248 -1.57114,1.2413 -3.94031,1.81891 -7.13648,1.81891 h -0.76988 c -5.2886,0 -8.72933,-2.28711 -10.27231,-6.8348 -0.44648,-1.31933 -0.66369,-2.699 -0.66369,-4.10361 v -33.14427 c 0,-5.31676 2.36676,-8.78887 7.10832,-10.38896 1.26946,-0.38293 2.75291,-0.54946 4.49057,-0.54946 5.37066,0 8.89666,1.95728 10.52733,5.81312 0.71356,1.2952 1.07477,3.52601 1.07477,6.69402 z m -13.97449,30.55709 c 0,1.87281 0.71678,2.78106 2.12139,2.78106 h 0.66289 c 1.32577,0 1.98302,-1.26624 1.98302,-3.80274 v -28.98274 c 0,-2.64591 -0.79803,-3.94031 -2.36676,-3.94031 -1.57113,0.16653 -2.36917,1.15603 -2.36917,2.89369 v 31.05104 z"
       style="fill:#000000;fill-opacity:1;fill-rule:nonzero;stroke:none;stroke-width:0.80447263"
       id="path1629-2"
       inkscape:connector-curvature="0" />
    <path
       d="m 200.24184,136.41172 c 0.16652,0 0.39017,0.19468 0.60657,0.63473 v 10.47101 c 0,0.16331 -0.19146,0.38615 -0.60657,0.60658 h -7.21532 v 50.722 c 0,0.71678 -0.38936,1.10051 -1.10293,1.10051 h -9.70033 c -0.71679,0 -1.0973,-0.38373 -1.0973,-1.10051 v -50.69706 h -7.38747 c -0.41189,-0.11022 -0.60658,-0.57842 -0.60658,-1.40461 v -8.78967 c 0,-0.76988 0.27674,-1.32014 0.7731,-1.56792 h 26.33683 z"
       style="fill:#000000;fill-opacity:1;fill-rule:nonzero;stroke:none;stroke-width:0.80447263"
       id="path1631-8"
       inkscape:connector-curvature="0" />
  </g>
</svg>
