<?xml version="1.0" encoding="UTF-8" standalone="no"?>
<svg
   xmlns:dc="http://purl.org/dc/elements/1.1/"
   xmlns:cc="http://creativecommons.org/ns#"
   xmlns:rdf="http://www.w3.org/1999/02/22-rdf-syntax-ns#"
   xmlns:svg="http://www.w3.org/2000/svg"
   xmlns="http://www.w3.org/2000/svg"
   xmlns:sodipodi="http://sodipodi.sourceforge.net/DTD/sodipodi-0.dtd"
   xmlns:inkscape="http://www.inkscape.org/namespaces/inkscape"
   height="349.60mm"
   viewBox="0.0 0.0 507.60 349.60"
   width="507.60mm"
   version="1.1"
   id="svg81"
   sodipodi:docname="TwoPiece.svg"
   inkscape:version="0.92.5 (2060ec1f9f, 2020-04-08)">
  <defs
     id="defs85" />
  <sodipodi:namedview
     pagecolor="#ffffff"
     bordercolor="#666666"
     borderopacity="1"
     objecttolerance="10"
     gridtolerance="10"
     guidetolerance="10"
     inkscape:pageopacity="0"
     inkscape:pageshadow="2"
     inkscape:window-width="2416"
     inkscape:window-height="1472"
     id="namedview83"
     showgrid="false"
     inkscape:zoom="0.50518221"
     inkscape:cx="759.9883"
     inkscape:cy="556.92343"
     inkscape:window-x="144"
     inkscape:window-y="54"
     inkscape:window-maximized="1"
     inkscape:current-layer="svg81" />
  <!--
TwoPiece - A two piece box where top slips over the bottom half to form 
       the enclosure.
    

Created with Boxes.py (https://festi.info/boxes.py)
Creation date: 2021-02-08 15:44:03
Command line (remove spaces between dashes): boxes TwoPiece - -FingerJoint_angle=90.0 - -FingerJoint_style=rectangular - -FingerJoint_surroundingspaces=2.0 - -FingerJoint_edge_width=1.0 - -FingerJoint_finger=2.0 - -FingerJoint_play=0.0 - -FingerJoint_space=2.0 - -FingerJoint_width=1.0 - -x=120 - -y=120 - -h=100.0 - -hi=0.0 - -outside=0 - -outside=1 - -play=0.05 - -thickness=4.0 - -format=svg - -tabs=0.0 - -debug=0 - -reference=100 - -burn=0.2
Url: http://www.festi.info/TwoPiece?FingerJoint_angle=90.0&FingerJoint_style=rectangular&FingerJoint_surroundingspaces=2.0&FingerJoint_edge_width=1.0&FingerJoint_finger=2.0&FingerJoint_play=0.0&FingerJoint_space=2.0&FingerJoint_width=1.0&x=120&y=120&h=100.0&hi=0.0&outside=0&outside=1&play=0.05&thickness=4.0&format=svg&tabs=0.0&debug=0&reference=100&burn=0.2&render=1
SettingsUrl: http://www.festi.info/TwoPiece?FingerJoint_angle=90.0&FingerJoint_style=rectangular&FingerJoint_surroundingspaces=2.0&FingerJoint_edge_width=1.0&FingerJoint_finger=2.0&FingerJoint_play=0.0&FingerJoint_space=2.0&FingerJoint_width=1.0&x=120&y=120&h=100.0&hi=0.0&outside=0&outside=1&play=0.05&thickness=4.0&format=svg&tabs=0.0&debug=0&reference=100&burn=0.2
-->
  <title
     id="title2">TwoPiece</title>
  <metadata
     id="metadata4">
    <rdf:RDF>
      <cc:Work>
        <dc:title>Box - TwoPiece</dc:title>
        <dc:date>2021-02-08 15:44:03</dc:date>
        <dc:source>http://www.festi.info/TwoPiece?FingerJoint_angle=90.0&amp;FingerJoint_style=rectangular&amp;FingerJoint_surroundingspaces=2.0&amp;FingerJoint_edge_width=1.0&amp;FingerJoint_finger=2.0&amp;FingerJoint_play=0.0&amp;FingerJoint_space=2.0&amp;FingerJoint_width=1.0&amp;x=120&amp;y=120&amp;h=100.0&amp;hi=0.0&amp;outside=0&amp;outside=1&amp;play=0.05&amp;thickness=4.0&amp;format=svg&amp;tabs=0.0&amp;debug=0&amp;reference=100&amp;burn=0.2&amp;render=1</dc:source>
        <dc:description>A two piece box where top slips over the bottom half to form 
       the enclosure.
    

Created with Boxes.py (https://festi.info/boxes.py)
Command line: boxes TwoPiece --FingerJoint_angle=90.0 --FingerJoint_style=rectangular --FingerJoint_surroundingspaces=2.0 --FingerJoint_edge_width=1.0 --FingerJoint_finger=2.0 --FingerJoint_play=0.0 --FingerJoint_space=2.0 --FingerJoint_width=1.0 --x=120 --y=120 --h=100.0 --hi=0.0 --outside=0 --outside=1 --play=0.05 --thickness=4.0 --format=svg --tabs=0.0 --debug=0 --reference=100 --burn=0.2
Url: http://www.festi.info/TwoPiece?FingerJoint_angle=90.0&amp;FingerJoint_style=rectangular&amp;FingerJoint_surroundingspaces=2.0&amp;FingerJoint_edge_width=1.0&amp;FingerJoint_finger=2.0&amp;FingerJoint_play=0.0&amp;FingerJoint_space=2.0&amp;FingerJoint_width=1.0&amp;x=120&amp;y=120&amp;h=100.0&amp;hi=0.0&amp;outside=0&amp;outside=1&amp;play=0.05&amp;thickness=4.0&amp;format=svg&amp;tabs=0.0&amp;debug=0&amp;reference=100&amp;burn=0.2&amp;render=1
SettingsUrl: http://www.festi.info/TwoPiece?FingerJoint_angle=90.0&amp;FingerJoint_style=rectangular&amp;FingerJoint_surroundingspaces=2.0&amp;FingerJoint_edge_width=1.0&amp;FingerJoint_finger=2.0&amp;FingerJoint_play=0.0&amp;FingerJoint_space=2.0&amp;FingerJoint_width=1.0&amp;x=120&amp;y=120&amp;h=100.0&amp;hi=0.0&amp;outside=0&amp;outside=1&amp;play=0.05&amp;thickness=4.0&amp;format=svg&amp;tabs=0.0&amp;debug=0&amp;reference=100&amp;burn=0.2
</dc:description>
        <dc:format>image/svg+xml</dc:format>
        <dc:type
           rdf:resource="http://purl.org/dc/dcmitype/StillImage" />
      </cc:Work>
    </rdf:RDF>
  </metadata>
  <g
     id="p-1"
     style="fill:none;stroke-linecap:round;stroke-linejoin:round;fill-opacity:1;stroke:#ff0000;stroke-opacity:1;stroke-width:0.1;stroke-miterlimit:4;stroke-dasharray:none">
    <path
       d="M 14.200 323.200 H 29.800 C 30.000 323.200 29.800 323.000 29.800 323.200 V 327.000 C 29.800 327.110 29.890 327.200 30.000 327.200 H 38.000 C 38.110 327.200 38.200 327.110 38.200 327.000 V 323.200 C 38.200 323.000 38.000 323.200 38.200 323.200 H 45.800 C 46.000 323.200 45.800 323.000 45.800 323.200 V 327.000 C 45.800 327.110 45.890 327.200 46.000 327.200 H 54.000 C 54.110 327.200 54.200 327.110 54.200 327.000 V 323.200 C 54.200 323.000 54.000 323.200 54.200 323.200 H 61.800 C 62.000 323.200 61.800 323.000 61.800 323.200 V 327.000 C 61.800 327.110 61.890 327.200 62.000 327.200 H 70.000 C 70.110 327.200 70.200 327.110 70.200 327.000 V 323.200 C 70.200 323.000 70.000 323.200 70.200 323.200 H 77.800 C 78.000 323.200 77.800 323.000 77.800 323.200 V 327.000 C 77.800 327.110 77.890 327.200 78.000 327.200 H 86.000 C 86.110 327.200 86.200 327.110 86.200 327.000 V 323.200 C 86.200 323.000 86.000 323.200 86.200 323.200 H 93.800 C 94.000 323.200 93.800 323.000 93.800 323.200 V 327.000 C 93.800 327.110 93.890 327.200 94.000 327.200 H 102.000 C 102.110 327.200 102.200 327.110 102.200 327.000 V 323.200 C 102.200 323.000 102.000 323.200 102.200 323.200 H 117.800 H 121.800 C 121.910 323.200 122.000 323.110 122.000 323.000 V 313.000 C 122.000 312.890 121.910 312.800 121.800 312.800 H 118.000 C 117.800 312.800 118.000 313.000 118.000 312.800 V 305.200 C 118.000 305.000 117.800 305.200 118.000 305.200 H 121.800 C 121.910 305.200 122.000 305.110 122.000 305.000 V 297.000 C 122.000 296.890 121.910 296.800 121.800 296.800 H 118.000 C 117.800 296.800 118.000 297.000 118.000 296.800 V 289.200 C 118.000 289.000 117.800 289.200 118.000 289.200 H 121.800 C 121.910 289.200 122.000 289.110 122.000 289.000 V 281.000 C 122.000 280.890 121.910 280.800 121.800 280.800 H 118.000 C 117.800 280.800 118.000 281.000 118.000 280.800 V 273.200 C 118.000 273.000 117.800 273.200 118.000 273.200 H 121.800 C 121.910 273.200 122.000 273.110 122.000 273.000 V 265.000 C 122.000 264.890 121.910 264.800 121.800 264.800 H 118.000 C 117.800 264.800 118.000 265.000 118.000 264.800 V 257.200 C 118.000 257.000 117.800 257.200 118.000 257.200 H 121.800 C 121.910 257.200 122.000 257.110 122.000 257.000 V 249.000 C 122.000 248.890 121.910 248.800 121.800 248.800 H 118.000 C 117.800 248.800 118.000 249.000 118.000 248.800 V 241.200 C 118.000 241.000 117.800 241.200 118.000 241.200 H 121.800 C 121.910 241.200 122.000 241.110 122.000 241.000 V 231.000 C 122.000 230.890 121.910 230.800 121.800 230.800 H 117.800 H 14.200 H 10.200 C 10.090 230.800 10.000 230.890 10.000 231.000 V 241.000 C 10.000 241.110 10.090 241.200 10.200 241.200 H 14.000 C 14.200 241.200 14.000 241.000 14.000 241.200 V 248.800 C 14.000 249.000 14.200 248.800 14.000 248.800 H 10.200 C 10.090 248.800 10.000 248.890 10.000 249.000 V 257.000 C 10.000 257.110 10.090 257.200 10.200 257.200 H 14.000 C 14.200 257.200 14.000 257.000 14.000 257.200 V 264.800 C 14.000 265.000 14.200 264.800 14.000 264.800 H 10.200 C 10.090 264.800 10.000 264.890 10.000 265.000 V 273.000 C 10.000 273.110 10.090 273.200 10.200 273.200 H 14.000 C 14.200 273.200 14.000 273.000 14.000 273.200 V 280.800 C 14.000 281.000 14.200 280.800 14.000 280.800 H 10.200 C 10.090 280.800 10.000 280.890 10.000 281.000 V 289.000 C 10.000 289.110 10.090 289.200 10.200 289.200 H 14.000 C 14.200 289.200 14.000 289.000 14.000 289.200 V 296.800 C 14.000 297.000 14.200 296.800 14.000 296.800 H 10.200 C 10.090 296.800 10.000 296.890 10.000 297.000 V 305.000 C 10.000 305.110 10.090 305.200 10.200 305.200 H 14.000 C 14.200 305.200 14.000 305.000 14.000 305.200 V 312.800 C 14.000 313.000 14.200 312.800 14.000 312.800 H 10.200 C 10.090 312.800 10.000 312.890 10.000 313.000 V 323.000 C 10.000 323.110 10.090 323.200 10.200 323.200 H 14.200 Z"
       stroke="rgb(0,0,0)"
       stroke-width="0.40"
       id="path11"
       style="fill:none;fill-opacity:1;stroke:#ff0000;stroke-opacity:1;stroke-width:0.1;stroke-miterlimit:4;stroke-dasharray:none" />
  </g>
  <g
     id="p-2"
     style="fill:none;stroke-linecap:round;stroke-linejoin:round;fill-opacity:1;stroke:#ff0000;stroke-opacity:1;stroke-width:0.1;stroke-miterlimit:4;stroke-dasharray:none">
    <path
       d="M 128.200 323.200 H 143.800 C 144.000 323.200 143.800 323.000 143.800 323.200 V 327.000 C 143.800 327.110 143.890 327.200 144.000 327.200 H 152.000 C 152.110 327.200 152.200 327.110 152.200 327.000 V 323.200 C 152.200 323.000 152.000 323.200 152.200 323.200 H 159.800 C 160.000 323.200 159.800 323.000 159.800 323.200 V 327.000 C 159.800 327.110 159.890 327.200 160.000 327.200 H 168.000 C 168.110 327.200 168.200 327.110 168.200 327.000 V 323.200 C 168.200 323.000 168.000 323.200 168.200 323.200 H 175.800 C 176.000 323.200 175.800 323.000 175.800 323.200 V 327.000 C 175.800 327.110 175.890 327.200 176.000 327.200 H 184.000 C 184.110 327.200 184.200 327.110 184.200 327.000 V 323.200 C 184.200 323.000 184.000 323.200 184.200 323.200 H 191.800 C 192.000 323.200 191.800 323.000 191.800 323.200 V 327.000 C 191.800 327.110 191.890 327.200 192.000 327.200 H 200.000 C 200.110 327.200 200.200 327.110 200.200 327.000 V 323.200 C 200.200 323.000 200.000 323.200 200.200 323.200 H 207.800 C 208.000 323.200 207.800 323.000 207.800 323.200 V 327.000 C 207.800 327.110 207.890 327.200 208.000 327.200 H 216.000 C 216.110 327.200 216.200 327.110 216.200 327.000 V 323.200 C 216.200 323.000 216.000 323.200 216.200 323.200 H 231.800 C 231.910 323.200 232.000 323.110 232.000 323.000 V 313.200 C 232.000 313.000 231.800 313.200 232.000 313.200 H 235.800 C 235.910 313.200 236.000 313.110 236.000 313.000 V 305.000 C 236.000 304.890 235.910 304.800 235.800 304.800 H 232.000 C 231.800 304.800 232.000 305.000 232.000 304.800 V 297.200 C 232.000 297.000 231.800 297.200 232.000 297.200 H 235.800 C 235.910 297.200 236.000 297.110 236.000 297.000 V 289.000 C 236.000 288.890 235.910 288.800 235.800 288.800 H 232.000 C 231.800 288.800 232.000 289.000 232.000 288.800 V 281.200 C 232.000 281.000 231.800 281.200 232.000 281.200 H 235.800 C 235.910 281.200 236.000 281.110 236.000 281.000 V 273.000 C 236.000 272.890 235.910 272.800 235.800 272.800 H 232.000 C 231.800 272.800 232.000 273.000 232.000 272.800 V 265.200 C 232.000 265.000 231.800 265.200 232.000 265.200 H 235.800 C 235.910 265.200 236.000 265.110 236.000 265.000 V 257.000 C 236.000 256.890 235.910 256.800 235.800 256.800 H 232.000 C 231.800 256.800 232.000 257.000 232.000 256.800 V 249.200 C 232.000 249.000 231.800 249.200 232.000 249.200 H 235.800 C 235.910 249.200 236.000 249.110 236.000 249.000 V 241.000 C 236.000 240.890 235.910 240.800 235.800 240.800 H 232.000 C 231.800 240.800 232.000 241.000 232.000 240.800 V 231.000 C 232.000 230.890 231.910 230.800 231.800 230.800 H 128.200 C 128.090 230.800 128.000 230.890 128.000 231.000 V 240.800 C 128.000 241.000 128.200 240.800 128.000 240.800 H 124.200 C 124.090 240.800 124.000 240.890 124.000 241.000 V 249.000 C 124.000 249.110 124.090 249.200 124.200 249.200 H 128.000 C 128.200 249.200 128.000 249.000 128.000 249.200 V 256.800 C 128.000 257.000 128.200 256.800 128.000 256.800 H 124.200 C 124.090 256.800 124.000 256.890 124.000 257.000 V 265.000 C 124.000 265.110 124.090 265.200 124.200 265.200 H 128.000 C 128.200 265.200 128.000 265.000 128.000 265.200 V 272.800 C 128.000 273.000 128.200 272.800 128.000 272.800 H 124.200 C 124.090 272.800 124.000 272.890 124.000 273.000 V 281.000 C 124.000 281.110 124.090 281.200 124.200 281.200 H 128.000 C 128.200 281.200 128.000 281.000 128.000 281.200 V 288.800 C 128.000 289.000 128.200 288.800 128.000 288.800 H 124.200 C 124.090 288.800 124.000 288.890 124.000 289.000 V 297.000 C 124.000 297.110 124.090 297.200 124.200 297.200 H 128.000 C 128.200 297.200 128.000 297.000 128.000 297.200 V 304.800 C 128.000 305.000 128.200 304.800 128.000 304.800 H 124.200 C 124.090 304.800 124.000 304.890 124.000 305.000 V 313.000 C 124.000 313.110 124.090 313.200 124.200 313.200 H 128.000 C 128.200 313.200 128.000 313.000 128.000 313.200 V 323.000 C 128.000 323.110 128.090 323.200 128.200 323.200 Z"
       stroke="rgb(0,0,0)"
       stroke-width="0.40"
       id="path14"
       style="fill:none;fill-opacity:1;stroke:#ff0000;stroke-opacity:1;stroke-width:0.1;stroke-miterlimit:4;stroke-dasharray:none" />
  </g>
  <g
     id="p-3"
     style="fill:none;stroke-linecap:round;stroke-linejoin:round;fill-opacity:1;stroke:#ff0000;stroke-opacity:1;stroke-width:0.1;stroke-miterlimit:4;stroke-dasharray:none">
    <path
       d="M 242.200 323.200 H 257.800 C 258.000 323.200 257.800 323.000 257.800 323.200 V 327.000 C 257.800 327.110 257.890 327.200 258.000 327.200 H 266.000 C 266.110 327.200 266.200 327.110 266.200 327.000 V 323.200 C 266.200 323.000 266.000 323.200 266.200 323.200 H 273.800 C 274.000 323.200 273.800 323.000 273.800 323.200 V 327.000 C 273.800 327.110 273.890 327.200 274.000 327.200 H 282.000 C 282.110 327.200 282.200 327.110 282.200 327.000 V 323.200 C 282.200 323.000 282.000 323.200 282.200 323.200 H 289.800 C 290.000 323.200 289.800 323.000 289.800 323.200 V 327.000 C 289.800 327.110 289.890 327.200 290.000 327.200 H 298.000 C 298.110 327.200 298.200 327.110 298.200 327.000 V 323.200 C 298.200 323.000 298.000 323.200 298.200 323.200 H 305.800 C 306.000 323.200 305.800 323.000 305.800 323.200 V 327.000 C 305.800 327.110 305.890 327.200 306.000 327.200 H 314.000 C 314.110 327.200 314.200 327.110 314.200 327.000 V 323.200 C 314.200 323.000 314.000 323.200 314.200 323.200 H 321.800 C 322.000 323.200 321.800 323.000 321.800 323.200 V 327.000 C 321.800 327.110 321.890 327.200 322.000 327.200 H 330.000 C 330.110 327.200 330.200 327.110 330.200 327.000 V 323.200 C 330.200 323.000 330.000 323.200 330.200 323.200 H 345.800 H 349.800 C 349.910 323.200 350.000 323.110 350.000 323.000 V 313.000 C 350.000 312.890 349.910 312.800 349.800 312.800 H 346.000 C 345.800 312.800 346.000 313.000 346.000 312.800 V 305.200 C 346.000 305.000 345.800 305.200 346.000 305.200 H 349.800 C 349.910 305.200 350.000 305.110 350.000 305.000 V 297.000 C 350.000 296.890 349.910 296.800 349.800 296.800 H 346.000 C 345.800 296.800 346.000 297.000 346.000 296.800 V 289.200 C 346.000 289.000 345.800 289.200 346.000 289.200 H 349.800 C 349.910 289.200 350.000 289.110 350.000 289.000 V 281.000 C 350.000 280.890 349.910 280.800 349.800 280.800 H 346.000 C 345.800 280.800 346.000 281.000 346.000 280.800 V 273.200 C 346.000 273.000 345.800 273.200 346.000 273.200 H 349.800 C 349.910 273.200 350.000 273.110 350.000 273.000 V 265.000 C 350.000 264.890 349.910 264.800 349.800 264.800 H 346.000 C 345.800 264.800 346.000 265.000 346.000 264.800 V 257.200 C 346.000 257.000 345.800 257.200 346.000 257.200 H 349.800 C 349.910 257.200 350.000 257.110 350.000 257.000 V 249.000 C 350.000 248.890 349.910 248.800 349.800 248.800 H 346.000 C 345.800 248.800 346.000 249.000 346.000 248.800 V 241.200 C 346.000 241.000 345.800 241.200 346.000 241.200 H 349.800 C 349.910 241.200 350.000 241.110 350.000 241.000 V 231.000 C 350.000 230.890 349.910 230.800 349.800 230.800 H 345.800 H 242.200 H 238.200 C 238.090 230.800 238.000 230.890 238.000 231.000 V 241.000 C 238.000 241.110 238.090 241.200 238.200 241.200 H 242.000 C 242.200 241.200 242.000 241.000 242.000 241.200 V 248.800 C 242.000 249.000 242.200 248.800 242.000 248.800 H 238.200 C 238.090 248.800 238.000 248.890 238.000 249.000 V 257.000 C 238.000 257.110 238.090 257.200 238.200 257.200 H 242.000 C 242.200 257.200 242.000 257.000 242.000 257.200 V 264.800 C 242.000 265.000 242.200 264.800 242.000 264.800 H 238.200 C 238.090 264.800 238.000 264.890 238.000 265.000 V 273.000 C 238.000 273.110 238.090 273.200 238.200 273.200 H 242.000 C 242.200 273.200 242.000 273.000 242.000 273.200 V 280.800 C 242.000 281.000 242.200 280.800 242.000 280.800 H 238.200 C 238.090 280.800 238.000 280.890 238.000 281.000 V 289.000 C 238.000 289.110 238.090 289.200 238.200 289.200 H 242.000 C 242.200 289.200 242.000 289.000 242.000 289.200 V 296.800 C 242.000 297.000 242.200 296.800 242.000 296.800 H 238.200 C 238.090 296.800 238.000 296.890 238.000 297.000 V 305.000 C 238.000 305.110 238.090 305.200 238.200 305.200 H 242.000 C 242.200 305.200 242.000 305.000 242.000 305.200 V 312.800 C 242.000 313.000 242.200 312.800 242.000 312.800 H 238.200 C 238.090 312.800 238.000 312.890 238.000 313.000 V 323.000 C 238.000 323.110 238.090 323.200 238.200 323.200 H 242.200 Z"
       stroke="rgb(0,0,0)"
       stroke-width="0.40"
       id="path17"
       style="fill:none;fill-opacity:1;stroke:#ff0000;stroke-opacity:1;stroke-width:0.1;stroke-miterlimit:4;stroke-dasharray:none" />
  </g>
  <g
     id="p-4"
     style="fill:none;stroke-linecap:round;stroke-linejoin:round;fill-opacity:1;stroke:#ff0000;stroke-opacity:1;stroke-width:0.1;stroke-miterlimit:4;stroke-dasharray:none">
    <path
       d="M 356.200 323.200 H 371.800 C 372.000 323.200 371.800 323.000 371.800 323.200 V 327.000 C 371.800 327.110 371.890 327.200 372.000 327.200 H 380.000 C 380.110 327.200 380.200 327.110 380.200 327.000 V 323.200 C 380.200 323.000 380.000 323.200 380.200 323.200 H 387.800 C 388.000 323.200 387.800 323.000 387.800 323.200 V 327.000 C 387.800 327.110 387.890 327.200 388.000 327.200 H 396.000 C 396.110 327.200 396.200 327.110 396.200 327.000 V 323.200 C 396.200 323.000 396.000 323.200 396.200 323.200 H 403.800 C 404.000 323.200 403.800 323.000 403.800 323.200 V 327.000 C 403.800 327.110 403.890 327.200 404.000 327.200 H 412.000 C 412.110 327.200 412.200 327.110 412.200 327.000 V 323.200 C 412.200 323.000 412.000 323.200 412.200 323.200 H 419.800 C 420.000 323.200 419.800 323.000 419.800 323.200 V 327.000 C 419.800 327.110 419.890 327.200 420.000 327.200 H 428.000 C 428.110 327.200 428.200 327.110 428.200 327.000 V 323.200 C 428.200 323.000 428.000 323.200 428.200 323.200 H 435.800 C 436.000 323.200 435.800 323.000 435.800 323.200 V 327.000 C 435.800 327.110 435.890 327.200 436.000 327.200 H 444.000 C 444.110 327.200 444.200 327.110 444.200 327.000 V 323.200 C 444.200 323.000 444.000 323.200 444.200 323.200 H 459.800 C 459.910 323.200 460.000 323.110 460.000 323.000 V 313.200 C 460.000 313.000 459.800 313.200 460.000 313.200 H 463.800 C 463.910 313.200 464.000 313.110 464.000 313.000 V 305.000 C 464.000 304.890 463.910 304.800 463.800 304.800 H 460.000 C 459.800 304.800 460.000 305.000 460.000 304.800 V 297.200 C 460.000 297.000 459.800 297.200 460.000 297.200 H 463.800 C 463.910 297.200 464.000 297.110 464.000 297.000 V 289.000 C 464.000 288.890 463.910 288.800 463.800 288.800 H 460.000 C 459.800 288.800 460.000 289.000 460.000 288.800 V 281.200 C 460.000 281.000 459.800 281.200 460.000 281.200 H 463.800 C 463.910 281.200 464.000 281.110 464.000 281.000 V 273.000 C 464.000 272.890 463.910 272.800 463.800 272.800 H 460.000 C 459.800 272.800 460.000 273.000 460.000 272.800 V 265.200 C 460.000 265.000 459.800 265.200 460.000 265.200 H 463.800 C 463.910 265.200 464.000 265.110 464.000 265.000 V 257.000 C 464.000 256.890 463.910 256.800 463.800 256.800 H 460.000 C 459.800 256.800 460.000 257.000 460.000 256.800 V 249.200 C 460.000 249.000 459.800 249.200 460.000 249.200 H 463.800 C 463.910 249.200 464.000 249.110 464.000 249.000 V 241.000 C 464.000 240.890 463.910 240.800 463.800 240.800 H 460.000 C 459.800 240.800 460.000 241.000 460.000 240.800 V 231.000 C 460.000 230.890 459.910 230.800 459.800 230.800 H 356.200 C 356.090 230.800 356.000 230.890 356.000 231.000 V 240.800 C 356.000 241.000 356.200 240.800 356.000 240.800 H 352.200 C 352.090 240.800 352.000 240.890 352.000 241.000 V 249.000 C 352.000 249.110 352.090 249.200 352.200 249.200 H 356.000 C 356.200 249.200 356.000 249.000 356.000 249.200 V 256.800 C 356.000 257.000 356.200 256.800 356.000 256.800 H 352.200 C 352.090 256.800 352.000 256.890 352.000 257.000 V 265.000 C 352.000 265.110 352.090 265.200 352.200 265.200 H 356.000 C 356.200 265.200 356.000 265.000 356.000 265.200 V 272.800 C 356.000 273.000 356.200 272.800 356.000 272.800 H 352.200 C 352.090 272.800 352.000 272.890 352.000 273.000 V 281.000 C 352.000 281.110 352.090 281.200 352.200 281.200 H 356.000 C 356.200 281.200 356.000 281.000 356.000 281.200 V 288.800 C 356.000 289.000 356.200 288.800 356.000 288.800 H 352.200 C 352.090 288.800 352.000 288.890 352.000 289.000 V 297.000 C 352.000 297.110 352.090 297.200 352.200 297.200 H 356.000 C 356.200 297.200 356.000 297.000 356.000 297.200 V 304.800 C 356.000 305.000 356.200 304.800 356.000 304.800 H 352.200 C 352.090 304.800 352.000 304.890 352.000 305.000 V 313.000 C 352.000 313.110 352.090 313.200 352.200 313.200 H 356.000 C 356.200 313.200 356.000 313.000 356.000 313.200 V 323.000 C 356.000 323.110 356.090 323.200 356.200 323.200 Z"
       stroke="rgb(0,0,0)"
       stroke-width="0.40"
       id="path20"
       style="fill:none;fill-opacity:1;stroke:#ff0000;stroke-opacity:1;stroke-width:0.1;stroke-miterlimit:4;stroke-dasharray:none" />
  </g>
  <g
     id="p-5"
     style="fill:none;stroke-linecap:round;stroke-linejoin:round;fill-opacity:1;stroke:#ff0000;stroke-opacity:1;stroke-width:0.1;stroke-miterlimit:4;stroke-dasharray:none">
    <path
       d="M 14.200 224.800 H 26.000 C 26.200 224.800 26.000 224.600 26.000 224.800 V 228.600 C 26.000 228.710 26.090 228.800 26.200 228.800 H 34.200 C 34.310 228.800 34.400 228.710 34.400 228.600 V 224.800 C 34.400 224.600 34.200 224.800 34.400 224.800 H 42.000 C 42.200 224.800 42.000 224.600 42.000 224.800 V 228.600 C 42.000 228.710 42.090 228.800 42.200 228.800 H 50.200 C 50.310 228.800 50.400 228.710 50.400 228.600 V 224.800 C 50.400 224.600 50.200 224.800 50.400 224.800 H 58.000 C 58.200 224.800 58.000 224.600 58.000 224.800 V 228.600 C 58.000 228.710 58.090 228.800 58.200 228.800 H 66.200 C 66.310 228.800 66.400 228.710 66.400 228.600 V 224.800 C 66.400 224.600 66.200 224.800 66.400 224.800 H 74.000 C 74.200 224.800 74.000 224.600 74.000 224.800 V 228.600 C 74.000 228.710 74.090 228.800 74.200 228.800 H 82.200 C 82.310 228.800 82.400 228.710 82.400 228.600 V 224.800 C 82.400 224.600 82.200 224.800 82.400 224.800 H 90.000 C 90.200 224.800 90.000 224.600 90.000 224.800 V 228.600 C 90.000 228.710 90.090 228.800 90.200 228.800 H 98.200 C 98.310 228.800 98.400 228.710 98.400 228.600 V 224.800 C 98.400 224.600 98.200 224.800 98.400 224.800 H 106.000 C 106.200 224.800 106.000 224.600 106.000 224.800 V 228.600 C 106.000 228.710 106.090 228.800 106.200 228.800 H 114.200 C 114.310 228.800 114.400 228.710 114.400 228.600 V 224.800 C 114.400 224.600 114.200 224.800 114.400 224.800 H 126.200 H 130.200 C 130.310 224.800 130.400 224.710 130.400 224.600 V 214.600 C 130.400 214.490 130.310 214.400 130.200 214.400 H 126.400 C 126.200 214.400 126.400 214.600 126.400 214.400 V 206.800 C 126.400 206.600 126.200 206.800 126.400 206.800 H 130.200 C 130.310 206.800 130.400 206.710 130.400 206.600 V 198.600 C 130.400 198.490 130.310 198.400 130.200 198.400 H 126.400 C 126.200 198.400 126.400 198.600 126.400 198.400 V 190.800 C 126.400 190.600 126.200 190.800 126.400 190.800 H 130.200 C 130.310 190.800 130.400 190.710 130.400 190.600 V 182.600 C 130.400 182.490 130.310 182.400 130.200 182.400 H 126.400 C 126.200 182.400 126.400 182.600 126.400 182.400 V 174.800 C 126.400 174.600 126.200 174.800 126.400 174.800 H 130.200 C 130.310 174.800 130.400 174.710 130.400 174.600 V 166.600 C 130.400 166.490 130.310 166.400 130.200 166.400 H 126.400 C 126.200 166.400 126.400 166.600 126.400 166.400 V 158.800 C 126.400 158.600 126.200 158.800 126.400 158.800 H 130.200 C 130.310 158.800 130.400 158.710 130.400 158.600 V 150.600 C 130.400 150.490 130.310 150.400 130.200 150.400 H 126.400 C 126.200 150.400 126.400 150.600 126.400 150.400 V 142.800 C 126.400 142.600 126.200 142.800 126.400 142.800 H 130.200 C 130.310 142.800 130.400 142.710 130.400 142.600 V 132.600 C 130.400 132.490 130.310 132.400 130.200 132.400 H 126.200 H 14.200 H 10.200 C 10.090 132.400 10.000 132.490 10.000 132.600 V 142.600 C 10.000 142.710 10.090 142.800 10.200 142.800 H 14.000 C 14.200 142.800 14.000 142.600 14.000 142.800 V 150.400 C 14.000 150.600 14.200 150.400 14.000 150.400 H 10.200 C 10.090 150.400 10.000 150.490 10.000 150.600 V 158.600 C 10.000 158.710 10.090 158.800 10.200 158.800 H 14.000 C 14.200 158.800 14.000 158.600 14.000 158.800 V 166.400 C 14.000 166.600 14.200 166.400 14.000 166.400 H 10.200 C 10.090 166.400 10.000 166.490 10.000 166.600 V 174.600 C 10.000 174.710 10.090 174.800 10.200 174.800 H 14.000 C 14.200 174.800 14.000 174.600 14.000 174.800 V 182.400 C 14.000 182.600 14.200 182.400 14.000 182.400 H 10.200 C 10.090 182.400 10.000 182.490 10.000 182.600 V 190.600 C 10.000 190.710 10.090 190.800 10.200 190.800 H 14.000 C 14.200 190.800 14.000 190.600 14.000 190.800 V 198.400 C 14.000 198.600 14.200 198.400 14.000 198.400 H 10.200 C 10.090 198.400 10.000 198.490 10.000 198.600 V 206.600 C 10.000 206.710 10.090 206.800 10.200 206.800 H 14.000 C 14.200 206.800 14.000 206.600 14.000 206.800 V 214.400 C 14.000 214.600 14.200 214.400 14.000 214.400 H 10.200 C 10.090 214.400 10.000 214.490 10.000 214.600 V 224.600 C 10.000 224.710 10.090 224.800 10.200 224.800 H 14.200 Z"
       stroke="rgb(0,0,0)"
       stroke-width="0.40"
       id="path23"
       style="fill:none;fill-opacity:1;stroke:#ff0000;stroke-opacity:1;stroke-width:0.1;stroke-miterlimit:4;stroke-dasharray:none" />
  </g>
  <g
     id="p-6"
     style="fill:none;stroke-linecap:round;stroke-linejoin:round;fill-opacity:1;stroke:#ff0000;stroke-opacity:1;stroke-width:0.1;stroke-miterlimit:4;stroke-dasharray:none">
    <path
       d="M 136.600 224.800 H 148.400 C 148.600 224.800 148.400 224.600 148.400 224.800 V 228.600 C 148.400 228.710 148.490 228.800 148.600 228.800 H 156.600 C 156.710 228.800 156.800 228.710 156.800 228.600 V 224.800 C 156.800 224.600 156.600 224.800 156.800 224.800 H 164.400 C 164.600 224.800 164.400 224.600 164.400 224.800 V 228.600 C 164.400 228.710 164.490 228.800 164.600 228.800 H 172.600 C 172.710 228.800 172.800 228.710 172.800 228.600 V 224.800 C 172.800 224.600 172.600 224.800 172.800 224.800 H 180.400 C 180.600 224.800 180.400 224.600 180.400 224.800 V 228.600 C 180.400 228.710 180.490 228.800 180.600 228.800 H 188.600 C 188.710 228.800 188.800 228.710 188.800 228.600 V 224.800 C 188.800 224.600 188.600 224.800 188.800 224.800 H 196.400 C 196.600 224.800 196.400 224.600 196.400 224.800 V 228.600 C 196.400 228.710 196.490 228.800 196.600 228.800 H 204.600 C 204.710 228.800 204.800 228.710 204.800 228.600 V 224.800 C 204.800 224.600 204.600 224.800 204.800 224.800 H 212.400 C 212.600 224.800 212.400 224.600 212.400 224.800 V 228.600 C 212.400 228.710 212.490 228.800 212.600 228.800 H 220.600 C 220.710 228.800 220.800 228.710 220.800 228.600 V 224.800 C 220.800 224.600 220.600 224.800 220.800 224.800 H 228.400 C 228.600 224.800 228.400 224.600 228.400 224.800 V 228.600 C 228.400 228.710 228.490 228.800 228.600 228.800 H 236.600 C 236.710 228.800 236.800 228.710 236.800 228.600 V 224.800 C 236.800 224.600 236.600 224.800 236.800 224.800 H 248.600 C 248.710 224.800 248.800 224.710 248.800 224.600 V 214.800 C 248.800 214.600 248.600 214.800 248.800 214.800 H 252.600 C 252.710 214.800 252.800 214.710 252.800 214.600 V 206.600 C 252.800 206.490 252.710 206.400 252.600 206.400 H 248.800 C 248.600 206.400 248.800 206.600 248.800 206.400 V 198.800 C 248.800 198.600 248.600 198.800 248.800 198.800 H 252.600 C 252.710 198.800 252.800 198.710 252.800 198.600 V 190.600 C 252.800 190.490 252.710 190.400 252.600 190.400 H 248.800 C 248.600 190.400 248.800 190.600 248.800 190.400 V 182.800 C 248.800 182.600 248.600 182.800 248.800 182.800 H 252.600 C 252.710 182.800 252.800 182.710 252.800 182.600 V 174.600 C 252.800 174.490 252.710 174.400 252.600 174.400 H 248.800 C 248.600 174.400 248.800 174.600 248.800 174.400 V 166.800 C 248.800 166.600 248.600 166.800 248.800 166.800 H 252.600 C 252.710 166.800 252.800 166.710 252.800 166.600 V 158.600 C 252.800 158.490 252.710 158.400 252.600 158.400 H 248.800 C 248.600 158.400 248.800 158.600 248.800 158.400 V 150.800 C 248.800 150.600 248.600 150.800 248.800 150.800 H 252.600 C 252.710 150.800 252.800 150.710 252.800 150.600 V 142.600 C 252.800 142.490 252.710 142.400 252.600 142.400 H 248.800 C 248.600 142.400 248.800 142.600 248.800 142.400 V 132.600 C 248.800 132.490 248.710 132.400 248.600 132.400 H 136.600 C 136.490 132.400 136.400 132.490 136.400 132.600 V 142.400 C 136.400 142.600 136.600 142.400 136.400 142.400 H 132.600 C 132.490 142.400 132.400 142.490 132.400 142.600 V 150.600 C 132.400 150.710 132.490 150.800 132.600 150.800 H 136.400 C 136.600 150.800 136.400 150.600 136.400 150.800 V 158.400 C 136.400 158.600 136.600 158.400 136.400 158.400 H 132.600 C 132.490 158.400 132.400 158.490 132.400 158.600 V 166.600 C 132.400 166.710 132.490 166.800 132.600 166.800 H 136.400 C 136.600 166.800 136.400 166.600 136.400 166.800 V 174.400 C 136.400 174.600 136.600 174.400 136.400 174.400 H 132.600 C 132.490 174.400 132.400 174.490 132.400 174.600 V 182.600 C 132.400 182.710 132.490 182.800 132.600 182.800 H 136.400 C 136.600 182.800 136.400 182.600 136.400 182.800 V 190.400 C 136.400 190.600 136.600 190.400 136.400 190.400 H 132.600 C 132.490 190.400 132.400 190.490 132.400 190.600 V 198.600 C 132.400 198.710 132.490 198.800 132.600 198.800 H 136.400 C 136.600 198.800 136.400 198.600 136.400 198.800 V 206.400 C 136.400 206.600 136.600 206.400 136.400 206.400 H 132.600 C 132.490 206.400 132.400 206.490 132.400 206.600 V 214.600 C 132.400 214.710 132.490 214.800 132.600 214.800 H 136.400 C 136.600 214.800 136.400 214.600 136.400 214.800 V 224.600 C 136.400 224.710 136.490 224.800 136.600 224.800 Z"
       stroke="rgb(0,0,0)"
       stroke-width="0.40"
       id="path26"
       style="fill:none;fill-opacity:1;stroke:#ff0000;stroke-opacity:1;stroke-width:0.1;stroke-miterlimit:4;stroke-dasharray:none" />
  </g>
  <g
     id="p-7"
     style="fill:none;stroke-linecap:round;stroke-linejoin:round;fill-opacity:1;stroke:#ff0000;stroke-opacity:1;stroke-width:0.1;stroke-miterlimit:4;stroke-dasharray:none">
    <path
       d="M 259.000 224.800 H 270.800 C 271.000 224.800 270.800 224.600 270.800 224.800 V 228.600 C 270.800 228.710 270.890 228.800 271.000 228.800 H 279.000 C 279.110 228.800 279.200 228.710 279.200 228.600 V 224.800 C 279.200 224.600 279.000 224.800 279.200 224.800 H 286.800 C 287.000 224.800 286.800 224.600 286.800 224.800 V 228.600 C 286.800 228.710 286.890 228.800 287.000 228.800 H 295.000 C 295.110 228.800 295.200 228.710 295.200 228.600 V 224.800 C 295.200 224.600 295.000 224.800 295.200 224.800 H 302.800 C 303.000 224.800 302.800 224.600 302.800 224.800 V 228.600 C 302.800 228.710 302.890 228.800 303.000 228.800 H 311.000 C 311.110 228.800 311.200 228.710 311.200 228.600 V 224.800 C 311.200 224.600 311.000 224.800 311.200 224.800 H 318.800 C 319.000 224.800 318.800 224.600 318.800 224.800 V 228.600 C 318.800 228.710 318.890 228.800 319.000 228.800 H 327.000 C 327.110 228.800 327.200 228.710 327.200 228.600 V 224.800 C 327.200 224.600 327.000 224.800 327.200 224.800 H 334.800 C 335.000 224.800 334.800 224.600 334.800 224.800 V 228.600 C 334.800 228.710 334.890 228.800 335.000 228.800 H 343.000 C 343.110 228.800 343.200 228.710 343.200 228.600 V 224.800 C 343.200 224.600 343.000 224.800 343.200 224.800 H 350.800 C 351.000 224.800 350.800 224.600 350.800 224.800 V 228.600 C 350.800 228.710 350.890 228.800 351.000 228.800 H 359.000 C 359.110 228.800 359.200 228.710 359.200 228.600 V 224.800 C 359.200 224.600 359.000 224.800 359.200 224.800 H 371.000 H 375.000 C 375.110 224.800 375.200 224.710 375.200 224.600 V 214.600 C 375.200 214.490 375.110 214.400 375.000 214.400 H 371.200 C 371.000 214.400 371.200 214.600 371.200 214.400 V 206.800 C 371.200 206.600 371.000 206.800 371.200 206.800 H 375.000 C 375.110 206.800 375.200 206.710 375.200 206.600 V 198.600 C 375.200 198.490 375.110 198.400 375.000 198.400 H 371.200 C 371.000 198.400 371.200 198.600 371.200 198.400 V 190.800 C 371.200 190.600 371.000 190.800 371.200 190.800 H 375.000 C 375.110 190.800 375.200 190.710 375.200 190.600 V 182.600 C 375.200 182.490 375.110 182.400 375.000 182.400 H 371.200 C 371.000 182.400 371.200 182.600 371.200 182.400 V 174.800 C 371.200 174.600 371.000 174.800 371.200 174.800 H 375.000 C 375.110 174.800 375.200 174.710 375.200 174.600 V 166.600 C 375.200 166.490 375.110 166.400 375.000 166.400 H 371.200 C 371.000 166.400 371.200 166.600 371.200 166.400 V 158.800 C 371.200 158.600 371.000 158.800 371.200 158.800 H 375.000 C 375.110 158.800 375.200 158.710 375.200 158.600 V 150.600 C 375.200 150.490 375.110 150.400 375.000 150.400 H 371.200 C 371.000 150.400 371.200 150.600 371.200 150.400 V 142.800 C 371.200 142.600 371.000 142.800 371.200 142.800 H 375.000 C 375.110 142.800 375.200 142.710 375.200 142.600 V 132.600 C 375.200 132.490 375.110 132.400 375.000 132.400 H 371.000 H 259.000 H 255.000 C 254.890 132.400 254.800 132.490 254.800 132.600 V 142.600 C 254.800 142.710 254.890 142.800 255.000 142.800 H 258.800 C 259.000 142.800 258.800 142.600 258.800 142.800 V 150.400 C 258.800 150.600 259.000 150.400 258.800 150.400 H 255.000 C 254.890 150.400 254.800 150.490 254.800 150.600 V 158.600 C 254.800 158.710 254.890 158.800 255.000 158.800 H 258.800 C 259.000 158.800 258.800 158.600 258.800 158.800 V 166.400 C 258.800 166.600 259.000 166.400 258.800 166.400 H 255.000 C 254.890 166.400 254.800 166.490 254.800 166.600 V 174.600 C 254.800 174.710 254.890 174.800 255.000 174.800 H 258.800 C 259.000 174.800 258.800 174.600 258.800 174.800 V 182.400 C 258.800 182.600 259.000 182.400 258.800 182.400 H 255.000 C 254.890 182.400 254.800 182.490 254.800 182.600 V 190.600 C 254.800 190.710 254.890 190.800 255.000 190.800 H 258.800 C 259.000 190.800 258.800 190.600 258.800 190.800 V 198.400 C 258.800 198.600 259.000 198.400 258.800 198.400 H 255.000 C 254.890 198.400 254.800 198.490 254.800 198.600 V 206.600 C 254.800 206.710 254.890 206.800 255.000 206.800 H 258.800 C 259.000 206.800 258.800 206.600 258.800 206.800 V 214.400 C 258.800 214.600 259.000 214.400 258.800 214.400 H 255.000 C 254.890 214.400 254.800 214.490 254.800 214.600 V 224.600 C 254.800 224.710 254.890 224.800 255.000 224.800 H 259.000 Z"
       stroke="rgb(0,0,0)"
       stroke-width="0.40"
       id="path29"
       style="fill:none;fill-opacity:1;stroke:#ff0000;stroke-opacity:1;stroke-width:0.1;stroke-miterlimit:4;stroke-dasharray:none" />
  </g>
  <g
     id="p-8"
     style="fill:none;stroke-linecap:round;stroke-linejoin:round;fill-opacity:1;stroke:#ff0000;stroke-opacity:1;stroke-width:0.1;stroke-miterlimit:4;stroke-dasharray:none">
    <path
       d="M 381.400 224.800 H 393.200 C 393.400 224.800 393.200 224.600 393.200 224.800 V 228.600 C 393.200 228.710 393.290 228.800 393.400 228.800 H 401.400 C 401.510 228.800 401.600 228.710 401.600 228.600 V 224.800 C 401.600 224.600 401.400 224.800 401.600 224.800 H 409.200 C 409.400 224.800 409.200 224.600 409.200 224.800 V 228.600 C 409.200 228.710 409.290 228.800 409.400 228.800 H 417.400 C 417.510 228.800 417.600 228.710 417.600 228.600 V 224.800 C 417.600 224.600 417.400 224.800 417.600 224.800 H 425.200 C 425.400 224.800 425.200 224.600 425.200 224.800 V 228.600 C 425.200 228.710 425.290 228.800 425.400 228.800 H 433.400 C 433.510 228.800 433.600 228.710 433.600 228.600 V 224.800 C 433.600 224.600 433.400 224.800 433.600 224.800 H 441.200 C 441.400 224.800 441.200 224.600 441.200 224.800 V 228.600 C 441.200 228.710 441.290 228.800 441.400 228.800 H 449.400 C 449.510 228.800 449.600 228.710 449.600 228.600 V 224.800 C 449.600 224.600 449.400 224.800 449.600 224.800 H 457.200 C 457.400 224.800 457.200 224.600 457.200 224.800 V 228.600 C 457.200 228.710 457.290 228.800 457.400 228.800 H 465.400 C 465.510 228.800 465.600 228.710 465.600 228.600 V 224.800 C 465.600 224.600 465.400 224.800 465.600 224.800 H 473.200 C 473.400 224.800 473.200 224.600 473.200 224.800 V 228.600 C 473.200 228.710 473.290 228.800 473.400 228.800 H 481.400 C 481.510 228.800 481.600 228.710 481.600 228.600 V 224.800 C 481.600 224.600 481.400 224.800 481.600 224.800 H 493.400 C 493.510 224.800 493.600 224.710 493.600 224.600 V 214.800 C 493.600 214.600 493.400 214.800 493.600 214.800 H 497.400 C 497.510 214.800 497.600 214.710 497.600 214.600 V 206.600 C 497.600 206.490 497.510 206.400 497.400 206.400 H 493.600 C 493.400 206.400 493.600 206.600 493.600 206.400 V 198.800 C 493.600 198.600 493.400 198.800 493.600 198.800 H 497.400 C 497.510 198.800 497.600 198.710 497.600 198.600 V 190.600 C 497.600 190.490 497.510 190.400 497.400 190.400 H 493.600 C 493.400 190.400 493.600 190.600 493.600 190.400 V 182.800 C 493.600 182.600 493.400 182.800 493.600 182.800 H 497.400 C 497.510 182.800 497.600 182.710 497.600 182.600 V 174.600 C 497.600 174.490 497.510 174.400 497.400 174.400 H 493.600 C 493.400 174.400 493.600 174.600 493.600 174.400 V 166.800 C 493.600 166.600 493.400 166.800 493.600 166.800 H 497.400 C 497.510 166.800 497.600 166.710 497.600 166.600 V 158.600 C 497.600 158.490 497.510 158.400 497.400 158.400 H 493.600 C 493.400 158.400 493.600 158.600 493.600 158.400 V 150.800 C 493.600 150.600 493.400 150.800 493.600 150.800 H 497.400 C 497.510 150.800 497.600 150.710 497.600 150.600 V 142.600 C 497.600 142.490 497.510 142.400 497.400 142.400 H 493.600 C 493.400 142.400 493.600 142.600 493.600 142.400 V 132.600 C 493.600 132.490 493.510 132.400 493.400 132.400 H 381.400 C 381.290 132.400 381.200 132.490 381.200 132.600 V 142.400 C 381.200 142.600 381.400 142.400 381.200 142.400 H 377.400 C 377.290 142.400 377.200 142.490 377.200 142.600 V 150.600 C 377.200 150.710 377.290 150.800 377.400 150.800 H 381.200 C 381.400 150.800 381.200 150.600 381.200 150.800 V 158.400 C 381.200 158.600 381.400 158.400 381.200 158.400 H 377.400 C 377.290 158.400 377.200 158.490 377.200 158.600 V 166.600 C 377.200 166.710 377.290 166.800 377.400 166.800 H 381.200 C 381.400 166.800 381.200 166.600 381.200 166.800 V 174.400 C 381.200 174.600 381.400 174.400 381.200 174.400 H 377.400 C 377.290 174.400 377.200 174.490 377.200 174.600 V 182.600 C 377.200 182.710 377.290 182.800 377.400 182.800 H 381.200 C 381.400 182.800 381.200 182.600 381.200 182.800 V 190.400 C 381.200 190.600 381.400 190.400 381.200 190.400 H 377.400 C 377.290 190.400 377.200 190.490 377.200 190.600 V 198.600 C 377.200 198.710 377.290 198.800 377.400 198.800 H 381.200 C 381.400 198.800 381.200 198.600 381.200 198.800 V 206.400 C 381.200 206.600 381.400 206.400 381.200 206.400 H 377.400 C 377.290 206.400 377.200 206.490 377.200 206.600 V 214.600 C 377.200 214.710 377.290 214.800 377.400 214.800 H 381.200 C 381.400 214.800 381.200 214.600 381.200 214.800 V 224.600 C 381.200 224.710 381.290 224.800 381.400 224.800 Z"
       stroke="rgb(0,0,0)"
       stroke-width="0.40"
       id="path32"
       style="fill:none;fill-opacity:1;stroke:#ff0000;stroke-opacity:1;stroke-width:0.1;stroke-miterlimit:4;stroke-dasharray:none" />
  </g>
  <g
     id="p-9"
     style="fill:none;stroke-linecap:round;stroke-linejoin:round;fill-opacity:1;stroke:#ff0000;stroke-opacity:1;stroke-width:0.1;stroke-miterlimit:4;stroke-dasharray:none">
    <path
       d="M 38.200 125.800 H 34.400 C 34.200 125.800 34.400 126.000 34.400 125.800 V 122.200 C 34.400 122.000 34.200 122.200 34.400 122.200 H 42.000 C 42.200 122.200 42.000 122.000 42.000 122.200 V 125.800 C 42.000 126.000 42.200 125.800 42.000 125.800 H 38.200 Z"
       stroke="rgb(0,0,255)"
       stroke-width="0.40"
       id="path35"
       style="fill:none;fill-opacity:1;stroke:#ff0000;stroke-opacity:1;stroke-width:0.1;stroke-miterlimit:4;stroke-dasharray:none" />
    <path
       d="M 54.200 125.800 H 50.400 C 50.200 125.800 50.400 126.000 50.400 125.800 V 122.200 C 50.400 122.000 50.200 122.200 50.400 122.200 H 58.000 C 58.200 122.200 58.000 122.000 58.000 122.200 V 125.800 C 58.000 126.000 58.200 125.800 58.000 125.800 H 54.200 Z"
       stroke="rgb(0,0,255)"
       stroke-width="0.40"
       id="path37"
       style="fill:none;fill-opacity:1;stroke:#ff0000;stroke-opacity:1;stroke-width:0.1;stroke-miterlimit:4;stroke-dasharray:none" />
    <path
       d="M 70.200 125.800 H 66.400 C 66.200 125.800 66.400 126.000 66.400 125.800 V 122.200 C 66.400 122.000 66.200 122.200 66.400 122.200 H 74.000 C 74.200 122.200 74.000 122.000 74.000 122.200 V 125.800 C 74.000 126.000 74.200 125.800 74.000 125.800 H 70.200 Z"
       stroke="rgb(0,0,255)"
       stroke-width="0.40"
       id="path39"
       style="fill:none;fill-opacity:1;stroke:#ff0000;stroke-opacity:1;stroke-width:0.1;stroke-miterlimit:4;stroke-dasharray:none" />
    <path
       d="M 86.200 125.800 H 82.400 C 82.200 125.800 82.400 126.000 82.400 125.800 V 122.200 C 82.400 122.000 82.200 122.200 82.400 122.200 H 90.000 C 90.200 122.200 90.000 122.000 90.000 122.200 V 125.800 C 90.000 126.000 90.200 125.800 90.000 125.800 H 86.200 Z"
       stroke="rgb(0,0,255)"
       stroke-width="0.40"
       id="path41"
       style="fill:none;fill-opacity:1;stroke:#ff0000;stroke-opacity:1;stroke-width:0.1;stroke-miterlimit:4;stroke-dasharray:none" />
    <path
       d="M 102.200 125.800 H 98.400 C 98.200 125.800 98.400 126.000 98.400 125.800 V 122.200 C 98.400 122.000 98.200 122.200 98.400 122.200 H 106.000 C 106.200 122.200 106.000 122.000 106.000 122.200 V 125.800 C 106.000 126.000 106.200 125.800 106.000 125.800 H 102.200 Z"
       stroke="rgb(0,0,255)"
       stroke-width="0.40"
       id="path43"
       style="fill:none;fill-opacity:1;stroke:#ff0000;stroke-opacity:1;stroke-width:0.1;stroke-miterlimit:4;stroke-dasharray:none" />
    <path
       d="M 18.400 130.400 H 122.000 H 130.200 C 130.310 130.400 130.400 130.310 130.400 130.200 V 122.000 V 18.400 V 10.200 C 130.400 10.090 130.310 10.000 130.200 10.000 H 122.000 H 18.400 H 10.200 C 10.090 10.000 10.000 10.090 10.000 10.200 V 18.400 V 122.000 V 130.200 C 10.000 130.310 10.090 130.400 10.200 130.400 H 18.400 Z"
       stroke="rgb(0,0,0)"
       stroke-width="0.40"
       id="path45"
       style="fill:none;fill-opacity:1;stroke:#ff0000;stroke-opacity:1;stroke-width:0.1;stroke-miterlimit:4;stroke-dasharray:none" />
    <path
       d="M 125.800 102.200 V 106.000 C 125.800 106.200 126.000 106.000 125.800 106.000 H 122.200 C 122.000 106.000 122.200 106.200 122.200 106.000 V 98.400 C 122.200 98.200 122.000 98.400 122.200 98.400 H 125.800 C 126.000 98.400 125.800 98.200 125.800 98.400 V 102.200 Z"
       stroke="rgb(0,0,255)"
       stroke-width="0.40"
       id="path47"
       style="fill:none;fill-opacity:1;stroke:#ff0000;stroke-opacity:1;stroke-width:0.1;stroke-miterlimit:4;stroke-dasharray:none" />
    <path
       d="M 125.800 86.200 V 90.000 C 125.800 90.200 126.000 90.000 125.800 90.000 H 122.200 C 122.000 90.000 122.200 90.200 122.200 90.000 V 82.400 C 122.200 82.200 122.000 82.400 122.200 82.400 H 125.800 C 126.000 82.400 125.800 82.200 125.800 82.400 V 86.200 Z"
       stroke="rgb(0,0,255)"
       stroke-width="0.40"
       id="path49"
       style="fill:none;fill-opacity:1;stroke:#ff0000;stroke-opacity:1;stroke-width:0.1;stroke-miterlimit:4;stroke-dasharray:none" />
    <path
       d="M 125.800 70.200 V 74.000 C 125.800 74.200 126.000 74.000 125.800 74.000 H 122.200 C 122.000 74.000 122.200 74.200 122.200 74.000 V 66.400 C 122.200 66.200 122.000 66.400 122.200 66.400 H 125.800 C 126.000 66.400 125.800 66.200 125.800 66.400 V 70.200 Z"
       stroke="rgb(0,0,255)"
       stroke-width="0.40"
       id="path51"
       style="fill:none;fill-opacity:1;stroke:#ff0000;stroke-opacity:1;stroke-width:0.1;stroke-miterlimit:4;stroke-dasharray:none" />
    <path
       d="M 125.800 54.200 V 58.000 C 125.800 58.200 126.000 58.000 125.800 58.000 H 122.200 C 122.000 58.000 122.200 58.200 122.200 58.000 V 50.400 C 122.200 50.200 122.000 50.400 122.200 50.400 H 125.800 C 126.000 50.400 125.800 50.200 125.800 50.400 V 54.200 Z"
       stroke="rgb(0,0,255)"
       stroke-width="0.40"
       id="path53"
       style="fill:none;fill-opacity:1;stroke:#ff0000;stroke-opacity:1;stroke-width:0.1;stroke-miterlimit:4;stroke-dasharray:none" />
    <path
       d="M 125.800 38.200 V 42.000 C 125.800 42.200 126.000 42.000 125.800 42.000 H 122.200 C 122.000 42.000 122.200 42.200 122.200 42.000 V 34.400 C 122.200 34.200 122.000 34.400 122.200 34.400 H 125.800 C 126.000 34.400 125.800 34.200 125.800 34.400 V 38.200 Z"
       stroke="rgb(0,0,255)"
       stroke-width="0.40"
       id="path55"
       style="fill:none;fill-opacity:1;stroke:#ff0000;stroke-opacity:1;stroke-width:0.1;stroke-miterlimit:4;stroke-dasharray:none" />
    <path
       d="M 102.200 14.600 H 106.000 C 106.200 14.600 106.000 14.400 106.000 14.600 V 18.200 C 106.000 18.400 106.200 18.200 106.000 18.200 H 98.400 C 98.200 18.200 98.400 18.400 98.400 18.200 V 14.600 C 98.400 14.400 98.200 14.600 98.400 14.600 H 102.200 Z"
       stroke="rgb(0,0,255)"
       stroke-width="0.40"
       id="path57"
       style="fill:none;fill-opacity:1;stroke:#ff0000;stroke-opacity:1;stroke-width:0.1;stroke-miterlimit:4;stroke-dasharray:none" />
    <path
       d="M 86.200 14.600 H 90.000 C 90.200 14.600 90.000 14.400 90.000 14.600 V 18.200 C 90.000 18.400 90.200 18.200 90.000 18.200 H 82.400 C 82.200 18.200 82.400 18.400 82.400 18.200 V 14.600 C 82.400 14.400 82.200 14.600 82.400 14.600 H 86.200 Z"
       stroke="rgb(0,0,255)"
       stroke-width="0.40"
       id="path59"
       style="fill:none;fill-opacity:1;stroke:#ff0000;stroke-opacity:1;stroke-width:0.1;stroke-miterlimit:4;stroke-dasharray:none" />
    <path
       d="M 70.200 14.600 H 74.000 C 74.200 14.600 74.000 14.400 74.000 14.600 V 18.200 C 74.000 18.400 74.200 18.200 74.000 18.200 H 66.400 C 66.200 18.200 66.400 18.400 66.400 18.200 V 14.600 C 66.400 14.400 66.200 14.600 66.400 14.600 H 70.200 Z"
       stroke="rgb(0,0,255)"
       stroke-width="0.40"
       id="path61"
       style="fill:none;fill-opacity:1;stroke:#ff0000;stroke-opacity:1;stroke-width:0.1;stroke-miterlimit:4;stroke-dasharray:none" />
    <path
       d="M 54.200 14.600 H 58.000 C 58.200 14.600 58.000 14.400 58.000 14.600 V 18.200 C 58.000 18.400 58.200 18.200 58.000 18.200 H 50.400 C 50.200 18.200 50.400 18.400 50.400 18.200 V 14.600 C 50.400 14.400 50.200 14.600 50.400 14.600 H 54.200 Z"
       stroke="rgb(0,0,255)"
       stroke-width="0.40"
       id="path63"
       style="fill:none;fill-opacity:1;stroke:#ff0000;stroke-opacity:1;stroke-width:0.1;stroke-miterlimit:4;stroke-dasharray:none" />
    <path
       d="M 38.200 14.600 H 42.000 C 42.200 14.600 42.000 14.400 42.000 14.600 V 18.200 C 42.000 18.400 42.200 18.200 42.000 18.200 H 34.400 C 34.200 18.200 34.400 18.400 34.400 18.200 V 14.600 C 34.400 14.400 34.200 14.600 34.400 14.600 H 38.200 Z"
       stroke="rgb(0,0,255)"
       stroke-width="0.40"
       id="path65"
       style="fill:none;fill-opacity:1;stroke:#ff0000;stroke-opacity:1;stroke-width:0.1;stroke-miterlimit:4;stroke-dasharray:none" />
    <path
       d="M 14.600 38.200 V 34.400 C 14.600 34.200 14.400 34.400 14.600 34.400 H 18.200 C 18.400 34.400 18.200 34.200 18.200 34.400 V 42.000 C 18.200 42.200 18.400 42.000 18.200 42.000 H 14.600 C 14.400 42.000 14.600 42.200 14.600 42.000 V 38.200 Z"
       stroke="rgb(0,0,255)"
       stroke-width="0.40"
       id="path67"
       style="fill:none;fill-opacity:1;stroke:#ff0000;stroke-opacity:1;stroke-width:0.1;stroke-miterlimit:4;stroke-dasharray:none" />
    <path
       d="M 14.600 54.200 V 50.400 C 14.600 50.200 14.400 50.400 14.600 50.400 H 18.200 C 18.400 50.400 18.200 50.200 18.200 50.400 V 58.000 C 18.200 58.200 18.400 58.000 18.200 58.000 H 14.600 C 14.400 58.000 14.600 58.200 14.600 58.000 V 54.200 Z"
       stroke="rgb(0,0,255)"
       stroke-width="0.40"
       id="path69"
       style="fill:none;fill-opacity:1;stroke:#ff0000;stroke-opacity:1;stroke-width:0.1;stroke-miterlimit:4;stroke-dasharray:none" />
    <path
       d="M 14.600 70.200 V 66.400 C 14.600 66.200 14.400 66.400 14.600 66.400 H 18.200 C 18.400 66.400 18.200 66.200 18.200 66.400 V 74.000 C 18.200 74.200 18.400 74.000 18.200 74.000 H 14.600 C 14.400 74.000 14.600 74.200 14.600 74.000 V 70.200 Z"
       stroke="rgb(0,0,255)"
       stroke-width="0.40"
       id="path71"
       style="fill:none;fill-opacity:1;stroke:#ff0000;stroke-opacity:1;stroke-width:0.1;stroke-miterlimit:4;stroke-dasharray:none" />
    <path
       d="M 14.600 86.200 V 82.400 C 14.600 82.200 14.400 82.400 14.600 82.400 H 18.200 C 18.400 82.400 18.200 82.200 18.200 82.400 V 90.000 C 18.200 90.200 18.400 90.000 18.200 90.000 H 14.600 C 14.400 90.000 14.600 90.200 14.600 90.000 V 86.200 Z"
       stroke="rgb(0,0,255)"
       stroke-width="0.40"
       id="path73"
       style="fill:none;fill-opacity:1;stroke:#ff0000;stroke-opacity:1;stroke-width:0.1;stroke-miterlimit:4;stroke-dasharray:none" />
    <path
       d="M 14.600 102.200 V 98.400 C 14.600 98.200 14.400 98.400 14.600 98.400 H 18.200 C 18.400 98.400 18.200 98.200 18.200 98.400 V 106.000 C 18.200 106.200 18.400 106.000 18.200 106.000 H 14.600 C 14.400 106.000 14.600 106.200 14.600 106.000 V 102.200 Z"
       stroke="rgb(0,0,255)"
       stroke-width="0.40"
       id="path75"
       style="fill:none;fill-opacity:1;stroke:#ff0000;stroke-opacity:1;stroke-width:0.1;stroke-miterlimit:4;stroke-dasharray:none" />
  </g>
  <g
     id="g984">
    <g
       style="fill:none;stroke-linecap:round;stroke-linejoin:round;fill-opacity:1;stroke:#ff0000;stroke-opacity:1;stroke-width:0.1;stroke-miterlimit:4;stroke-dasharray:none"
       id="p-10">
      <path
         style="fill:none;fill-opacity:1;stroke:#ff0000;stroke-opacity:1;stroke-width:0.1;stroke-miterlimit:4;stroke-dasharray:none"
         id="path78"
         stroke-width="0.40"
         stroke="rgb(0,0,0)"
         d="M 136.600 130.400 H 148.600 C 148.710 130.400 148.800 130.310 148.800 130.200 V 126.400 C 148.800 126.200 148.600 126.400 148.800 126.400 H 156.400 C 156.600 126.400 156.400 126.200 156.400 126.400 V 130.200 C 156.400 130.310 156.490 130.400 156.600 130.400 H 164.600 C 164.710 130.400 164.800 130.310 164.800 130.200 V 126.400 C 164.800 126.200 164.600 126.400 164.800 126.400 H 172.400 C 172.600 126.400 172.400 126.200 172.400 126.400 V 130.200 C 172.400 130.310 172.490 130.400 172.600 130.400 H 180.600 C 180.710 130.400 180.800 130.310 180.800 130.200 V 126.400 C 180.800 126.200 180.600 126.400 180.800 126.400 H 188.400 C 188.600 126.400 188.400 126.200 188.400 126.400 V 130.200 C 188.400 130.310 188.490 130.400 188.600 130.400 H 196.600 C 196.710 130.400 196.800 130.310 196.800 130.200 V 126.400 C 196.800 126.200 196.600 126.400 196.800 126.400 H 204.400 C 204.600 126.400 204.400 126.200 204.400 126.400 V 130.200 C 204.400 130.310 204.490 130.400 204.600 130.400 H 212.600 C 212.710 130.400 212.800 130.310 212.800 130.200 V 126.400 C 212.800 126.200 212.600 126.400 212.800 126.400 H 220.400 C 220.600 126.400 220.400 126.200 220.400 126.400 V 130.200 C 220.400 130.310 220.490 130.400 220.600 130.400 H 228.600 C 228.710 130.400 228.800 130.310 228.800 130.200 V 126.400 C 228.800 126.200 228.600 126.400 228.800 126.400 H 236.400 C 236.600 126.400 236.400 126.200 236.400 126.400 V 130.200 C 236.400 130.310 236.490 130.400 236.600 130.400 H 248.600 H 252.600 C 252.710 130.400 252.800 130.310 252.800 130.200 V 126.200 V 114.200 C 252.800 114.090 252.710 114.000 252.600 114.000 H 248.800 C 248.600 114.000 248.800 114.200 248.800 114.000 V 106.400 C 248.800 106.200 248.600 106.400 248.800 106.400 H 252.600 C 252.710 106.400 252.800 106.310 252.800 106.200 V 98.200 C 252.800 98.090 252.710 98.000 252.600 98.000 H 248.800 C 248.600 98.000 248.800 98.200 248.800 98.000 V 90.400 C 248.800 90.200 248.600 90.400 248.800 90.400 H 252.600 C 252.710 90.400 252.800 90.310 252.800 90.200 V 82.200 C 252.800 82.090 252.710 82.000 252.600 82.000 H 248.800 C 248.600 82.000 248.800 82.200 248.800 82.000 V 74.400 C 248.800 74.200 248.600 74.400 248.800 74.400 H 252.600 C 252.710 74.400 252.800 74.310 252.800 74.200 V 66.200 C 252.800 66.090 252.710 66.000 252.600 66.000 H 248.800 C 248.600 66.000 248.800 66.200 248.800 66.000 V 58.400 C 248.800 58.200 248.600 58.400 248.800 58.400 H 252.600 C 252.710 58.400 252.800 58.310 252.800 58.200 V 50.200 C 252.800 50.090 252.710 50.000 252.600 50.000 H 248.800 C 248.600 50.000 248.800 50.200 248.800 50.000 V 42.400 C 248.800 42.200 248.600 42.400 248.800 42.400 H 252.600 C 252.710 42.400 252.800 42.310 252.800 42.200 V 34.200 C 252.800 34.090 252.710 34.000 252.600 34.000 H 248.800 C 248.600 34.000 248.800 34.200 248.800 34.000 V 26.400 C 248.800 26.200 248.600 26.400 248.800 26.400 H 252.600 C 252.710 26.400 252.800 26.310 252.800 26.200 V 14.200 V 10.200 C 252.800 10.090 252.710 10.000 252.600 10.000 H 248.600 H 236.600 C 236.490 10.000 236.400 10.090 236.400 10.200 V 14.000 C 236.400 14.200 236.600 14.000 236.400 14.000 H 228.800 C 228.600 14.000 228.800 14.200 228.800 14.000 V 10.200 C 228.800 10.090 228.710 10.000 228.600 10.000 H 220.600 C 220.490 10.000 220.400 10.090 220.400 10.200 V 14.000 C 220.400 14.200 220.600 14.000 220.400 14.000 H 212.800 C 212.600 14.000 212.800 14.200 212.800 14.000 V 10.200 C 212.800 10.090 212.710 10.000 212.600 10.000 H 204.600 C 204.490 10.000 204.400 10.090 204.400 10.200 V 14.000 C 204.400 14.200 204.600 14.000 204.400 14.000 H 196.800 C 196.600 14.000 196.800 14.200 196.800 14.000 V 10.200 C 196.800 10.090 196.710 10.000 196.600 10.000 H 188.600 C 188.490 10.000 188.400 10.090 188.400 10.200 V 14.000 C 188.400 14.200 188.600 14.000 188.400 14.000 H 180.800 C 180.600 14.000 180.800 14.200 180.800 14.000 V 10.200 C 180.800 10.090 180.710 10.000 180.600 10.000 H 172.600 C 172.490 10.000 172.400 10.090 172.400 10.200 V 14.000 C 172.400 14.200 172.600 14.000 172.400 14.000 H 164.800 C 164.600 14.000 164.800 14.200 164.800 14.000 V 10.200 C 164.800 10.090 164.710 10.000 164.600 10.000 H 156.600 C 156.490 10.000 156.400 10.090 156.400 10.200 V 14.000 C 156.400 14.200 156.600 14.000 156.400 14.000 H 148.800 C 148.600 14.000 148.800 14.200 148.800 14.000 V 10.200 C 148.800 10.090 148.710 10.000 148.600 10.000 H 136.600 H 132.600 C 132.490 10.000 132.400 10.090 132.400 10.200 V 14.200 V 26.200 C 132.400 26.310 132.490 26.400 132.600 26.400 H 136.400 C 136.600 26.400 136.400 26.200 136.400 26.400 V 34.000 C 136.400 34.200 136.600 34.000 136.400 34.000 H 132.600 C 132.490 34.000 132.400 34.090 132.400 34.200 V 42.200 C 132.400 42.310 132.490 42.400 132.600 42.400 H 136.400 C 136.600 42.400 136.400 42.200 136.400 42.400 V 50.000 C 136.400 50.200 136.600 50.000 136.400 50.000 H 132.600 C 132.490 50.000 132.400 50.090 132.400 50.200 V 58.200 C 132.400 58.310 132.490 58.400 132.600 58.400 H 136.400 C 136.600 58.400 136.400 58.200 136.400 58.400 V 66.000 C 136.400 66.200 136.600 66.000 136.400 66.000 H 132.600 C 132.490 66.000 132.400 66.090 132.400 66.200 V 74.200 C 132.400 74.310 132.490 74.400 132.600 74.400 H 136.400 C 136.600 74.400 136.400 74.200 136.400 74.400 V 82.000 C 136.400 82.200 136.600 82.000 136.400 82.000 H 132.600 C 132.490 82.000 132.400 82.090 132.400 82.200 V 90.200 C 132.400 90.310 132.490 90.400 132.600 90.400 H 136.400 C 136.600 90.400 136.400 90.200 136.400 90.400 V 98.000 C 136.400 98.200 136.600 98.000 136.400 98.000 H 132.600 C 132.490 98.000 132.400 98.090 132.400 98.200 V 106.200 C 132.400 106.310 132.490 106.400 132.600 106.400 H 136.400 C 136.600 106.400 136.400 106.200 136.400 106.400 V 114.000 C 136.400 114.200 136.600 114.000 136.400 114.000 H 132.600 C 132.490 114.000 132.400 114.090 132.400 114.200 V 126.200 V 130.200 C 132.400 130.310 132.490 130.400 132.600 130.400 H 136.600 Z" />
    </g>
    <path
       inkscape:connector-curvature="0"
       id="path976"
       d="m 163.52538,122.37212 c -1.67417,-0.24595 -3.66085,-1.14004 -5.01626,-2.25754 -1.58597,-1.30759 -2.81858,-3.18212 -3.46453,-5.26881 l -0.31114,-1.0051 -0.0357,-34.262781 -0.0357,-34.262781 -0.36811,-0.08125 c -1.86999,-0.412705 -3.35324,-1.230181 -4.74125,-2.613075 -3.50634,-3.493444 -3.5444,-9.153701 -0.0858,-12.760645 0.99833,-1.04114 2.41452,-1.9282 3.80595,-2.383936 1.03994,-0.340612 1.38721,-0.389537 2.7378,-0.385689 1.08775,0.0031 1.7863,0.07607 2.35383,0.245885 1.41397,0.423083 1.29833,0.449091 1.80719,-0.406477 0.66581,-1.119467 2.42354,-2.889059 3.65318,-3.677847 2.01544,-1.292852 4.05115,-1.882918 6.49601,-1.882918 3.25747,0 5.995,1.114388 8.38735,3.414316 0.38838,0.373376 0.70614,0.60924 0.70614,0.524145 0,-0.409754 1.71346,-2.661584 2.80837,-3.690776 4.21121,-3.958411 10.23484,-4.834224 15.40884,-2.240389 1.40526,0.704487 2.07474,1.175935 3.2352,2.27827 l 0.9614,0.913233 0.79758,-0.320745 c 1.41991,-0.571018 2.86855,-0.785894 4.75557,-0.705389 2.44632,0.104372 4.44811,0.784147 6.39027,2.170049 0.88275,0.629922 2.44805,2.214846 2.83596,2.871511 0.21196,0.358828 0.3283,0.411047 1.08933,0.489019 1.15117,0.117943 2.4923,0.542366 3.54823,1.122905 1.0676,0.586954 2.88147,2.365716 3.46319,3.396156 1.06618,1.888593 1.45759,4.217186 1.06258,6.321691 -0.50679,2.700151 -2.39246,5.239044 -4.77673,6.431459 -0.61887,0.309506 -1.20901,0.562751 -1.31142,0.562751 -0.15502,0 -0.18618,0.787758 -0.18618,4.707632 v 4.707644 l 4.53951,0.001 c 2.49674,5.1e-4 5.06963,0.06186 5.71754,0.13608 2.87506,0.329417 5.30404,1.98354 6.90894,4.704966 1.1343,1.923401 1.78446,4.73749 1.61233,6.9787 -0.092,1.19744 -0.99093,5.563002 -1.78967,8.691024 -1.79364,7.02426 -4.90977,13.360934 -9.29312,18.897804 -1.31923,1.66639 -5.18398,5.49547 -6.58421,6.523428 l -1.09927,0.80703 -0.006,5.5182 c -0.004,3.04282 -0.07,6.02947 -0.14871,6.65795 -0.31128,2.48622 -1.25398,4.38285 -3.07351,6.18366 -1.25449,1.24157 -2.20246,1.86758 -3.61102,2.38461 -1.96731,0.72212 -1.16097,0.7005 -25.65549,0.68789 -12.50215,-0.006 -23.07197,-0.0617 -23.4885,-0.12296 z m 46.83416,-5.44973 c 1.50449,-0.43993 2.55711,-1.3643 3.27233,-2.8736 l 0.41731,-0.88064 0.035,-33.861389 0.035,-33.861377 h -2.15337 -2.15336 l -0.003,13.013258 c -0.003,14.315898 0.0115,14.05551 -0.8263,15.770601 -0.28002,0.573516 -0.75458,1.20309 -1.37953,1.8301 -0.9685,0.971706 -1.62573,1.389067 -2.83416,1.799782 l -0.67409,0.229113 -0.0672,12.438684 -0.0672,12.438688 -0.36101,0.54547 c -1.05775,1.59817 -3.70558,1.44477 -4.53208,-0.26257 -0.28457,-0.58782 -0.28531,-0.62235 -0.28531,-13.295768 V 77.246324 l -0.37959,-0.224228 c -0.70603,-0.417055 -1.88605,-1.740422 -2.36554,-2.65287 -0.91199,-1.735511 -0.88228,-1.205845 -0.88449,-15.776073 l -0.003,-13.147769 h -2.89183 -2.89184 v 3.713069 c 0,4.117992 -0.0823,4.714238 -0.85197,6.172984 -0.2342,0.443852 -0.82279,1.206074 -1.30798,1.693815 -2.77629,2.790889 -7.17391,2.857048 -10.09668,0.151897 -0.94687,-0.876353 -1.5175,-1.749822 -1.97346,-3.02078 -0.34071,-0.949756 -0.35199,-1.084867 -0.40428,-4.843992 l -0.0536,-3.866993 h -7.3179 -7.31789 l 0.0347,33.928633 0.0347,33.928633 0.35784,0.76333 c 0.652,1.39086 1.94717,2.51286 3.33151,2.88612 0.475,0.12808 5.75437,0.16782 23.22067,0.17484 20.27345,0.008 22.68127,-0.013 23.33644,-0.20455 z m -38.90729,-12.56971 c -0.56529,-0.29855 -1.07559,-0.92464 -1.30005,-1.59505 -0.20898,-0.62419 -0.21753,-35.755869 -0.009,-36.507263 0.19353,-0.696931 0.95611,-1.506563 1.67906,-1.782665 1.09848,-0.419503 2.37107,-0.0038 3.08614,1.008695 l 0.40351,0.571221 0.0401,18.112855 c 0.0283,12.809129 -0.003,18.261207 -0.10689,18.619467 -0.18408,0.63464 -0.86907,1.42702 -1.43979,1.66548 -0.63111,0.26369 -1.76258,0.2191 -2.35303,-0.0927 z m 14.4831,0.087 c -0.54929,-0.23935 -1.23092,-1.0418 -1.40985,-1.65977 -0.10357,-0.35773 -0.13501,-5.829758 -0.10689,-18.619466 l 0.0398,-18.112841 0.4035,-0.571234 c 0.71506,-1.012266 1.98766,-1.428211 3.08614,-1.008695 0.72295,0.276102 1.48553,1.085734 1.67906,1.782665 0.20304,0.731178 0.19896,35.682531 -0.004,36.426471 -0.32966,1.20685 -1.31724,1.95431 -2.56987,1.94504 -0.39133,-0.003 -0.89422,-0.0848 -1.11752,-0.18217 z M 222.1499,91.378472 c 4.01235,-4.6311 7.01412,-10.301943 8.83594,-16.692549 0.25529,-0.895446 0.80737,-3.195468 1.22684,-5.11114 0.6957,-3.177076 0.75614,-3.583505 0.6882,-4.626345 -0.041,-0.628808 -0.20505,-1.523974 -0.3646,-1.989253 -0.51392,-1.49872 -1.72242,-2.782624 -2.93665,-3.119897 -0.28324,-0.0787 -2.49208,-0.135315 -5.29451,-0.135761 l -4.80852,-10e-4 V 76.9476 94.192692 l 0.68572,-0.66747 c 0.37716,-0.36711 1.26256,-1.33325 1.96758,-2.14701 z M 203.44968,72.621114 c 0.23641,-0.144142 0.53905,-0.428725 0.67253,-0.632406 0.22916,-0.349683 0.24643,-1.199837 0.30994,-15.2611 l 0.0672,-14.890792 0.4053,-0.583159 c 0.23692,-0.340896 0.65389,-0.708883 1.00366,-0.885804 0.59052,-0.298677 0.66799,-0.302631 5.92558,-0.302631 5.91671,0 6.1972,-0.03303 7.27507,-0.856009 0.3272,-0.249839 0.77498,-0.779837 0.99508,-1.177784 0.35002,-0.632877 0.40023,-0.858368 0.40072,-1.799565 4.1e-4,-0.866213 -0.0607,-1.19406 -0.31381,-1.681304 -0.4567,-0.879285 -1.02005,-1.407854 -1.94098,-1.821146 -0.75889,-0.340577 -0.89364,-0.358803 -2.036,-0.275349 -1.91065,0.139562 -2.59464,-0.201639 -3.37281,-1.682486 -1.0157,-1.932852 -2.32825,-3.088312 -4.12982,-3.635523 -0.75175,-0.228335 -1.183,-0.272375 -2.23546,-0.228289 -1.44757,0.06064 -2.27299,0.354231 -3.64058,1.294909 -0.67804,0.466375 -0.78565,0.496964 -1.74854,0.496964 -1.28128,0 -1.59204,-0.19726 -2.61854,-1.662201 -0.93191,-1.329924 -2.01109,-2.294576 -3.25407,-2.908753 -2.99993,-1.482288 -6.64287,-0.998705 -9.17715,1.218223 -0.86497,0.756661 -1.89603,2.283565 -2.31178,3.42355 -0.72548,1.989265 -1.24488,2.277095 -4.10912,2.277095 -2.32717,0 -2.86138,-0.154101 -3.51364,-1.013546 -0.7435,-0.979664 -1.84148,-2.073318 -2.42459,-2.415044 -3.95739,-2.319176 -8.96556,-0.0395 -9.90913,4.510531 -0.31846,1.535645 -0.8897,2.232869 -2.09147,2.552707 -0.97103,0.258436 -1.75968,-0.0102 -2.75383,-0.93621 -1.06423,-0.991859 -1.5633,-1.238969 -2.66082,-1.317487 -0.75086,-0.0537 -1.00864,-0.01148 -1.61512,0.267798 -0.97515,0.448239 -1.46597,0.8894 -1.9384,1.742258 -0.34811,0.628438 -0.39703,0.850537 -0.39499,1.793303 0.003,0.852539 0.0649,1.194021 0.30355,1.644097 0.40784,0.769136 1.15592,1.491679 1.90142,1.836503 0.61026,0.282262 0.74916,0.28628 12.18463,0.352758 12.33695,0.07168 11.80269,0.04094 12.55529,0.722951 0.75796,0.68688 0.7552,0.665503 0.82787,6.40577 0.0671,5.296607 0.0682,5.314247 0.38048,5.752078 0.44448,0.623158 1.01101,0.881301 1.7734,0.808038 0.64183,-0.06161 1.17384,-0.361214 1.49847,-0.8437 0.14087,-0.209343 0.19618,-1.432471 0.24943,-5.514661 0.0755,-5.785189 0.0741,-5.775228 0.94934,-6.627576 0.24873,-0.242212 0.66623,-0.502791 0.92778,-0.579077 0.30563,-0.08916 2.68964,-0.123976 6.6727,-0.09757 l 6.19717,0.04107 0.559,0.37004 c 0.30745,0.203515 0.69638,0.627202 0.86429,0.941529 l 0.30529,0.571489 0.0672,14.80142 c 0.0635,13.975104 0.0809,14.822095 0.30994,15.17174 0.34697,0.529437 1.01642,0.894503 1.64037,0.894503 0.29654,0 0.73093,-0.117599 0.96785,-0.262085 z"
       style="fill:#000000;stroke-width:0.13450399" />
    <rect
       y="65.682755"
       x="167.9843"
       height="9.0344877"
       width="49.231411"
       id="rect978"
       style="opacity:1;fill:none;fill-opacity:1;stroke:#ff0000;stroke-width:0.1;stroke-miterlimit:4;stroke-dasharray:none;stroke-opacity:1" />
  </g>
</svg>
