<?xml version='1.0' encoding='us-ascii'?>
<svg height="390.20mm" viewBox="0.0 0.0 144.60 390.20" width="144.60mm" xmlns="http://www.w3.org/2000/svg" xmlns:cc="http://creativecommons.org/ns#" xmlns:dc="http://purl.org/dc/elements/1.1/" xmlns:inkscape="http://www.inkscape.org/namespaces/inkscape" xmlns:rdf="http://www.w3.org/1999/02/22-rdf-syntax-ns#" xmlns:svg="http://www.w3.org/2000/svg" xmlns:xlink="http://www.w3.org/1999/xlink">
<!--
TypeTray - Type tray - allows only continuous walls

Created with Boxes.py (https://festi.info/boxes.py)
Creation date: 2021-02-15 10:18:56
Command line (remove spaces between dashes): boxes TypeTray - -FingerJoint_angle=90.0 - -FingerJoint_style=rectangular - -FingerJoint_surroundingspaces=0.5 - -FingerJoint_edge_width=1.0 - -FingerJoint_finger=2.0 - -FingerJoint_play=0.0 - -FingerJoint_space=2.0 - -FingerJoint_width=1.0 - -Stackable_angle=60 - -Stackable_height=2.0 - -Stackable_holedistance=1.0 - -Stackable_width=4.0 - -Hinge_grip_percentage=0 - -Hinge_outset=0 - -Hinge_pinwidth=0.5 - -Hinge_style=outset - -Hinge_axle=2 - -Hinge_grip_length=0 - -Hinge_hingestrength=1 - -CabinetHinge_bore=3.2 - -CabinetHinge_eyes_per_hinge=5 - -CabinetHinge_hinges=2 - -CabinetHinge_style=inside - -CabinetHinge_eye=1.5 - -CabinetHinge_play=0.05 - -CabinetHinge_spacing=2.0 - -Lid_angle=90.0 - -Lid_second_pin=0 - -Lid_second_pin=1 - -Lid_spring=both - -Lid_style=rectangular - -Lid_surroundingspaces=2.0 - -Lid_edge_width=1.0 - -Lid_finger=3.0 - -Lid_play=0.05 - -Lid_space=2.0 - -Lid_width=1.0 - -Click_angle=5.0 - -Click_bottom_radius=0.1 - -Click_depth=3.0 - -RoundedTriangleEdge_height=150.0 - -RoundedTriangleEdge_r_hole=2.0 - -RoundedTriangleEdge_radius=30.0 - -RoundedTriangleEdge_outset=1 - -sx=61/2 - -sy=61/2 - -h=98 - -hi=0.0 - -outside=0 - -outside=1 - -bottom_edge=h - -top_edge=e - -gripheight=0 - -gripwidth=0 - -thickness=4 - -format=svg - -tabs=0.0 - -debug=0 - -reference=0 - -burn=0.15
Url: http://www.festi.info/TypeTray?FingerJoint_angle=90.0&FingerJoint_style=rectangular&FingerJoint_surroundingspaces=0.5&FingerJoint_edge_width=1.0&FingerJoint_finger=2.0&FingerJoint_play=0.0&FingerJoint_space=2.0&FingerJoint_width=1.0&Stackable_angle=60&Stackable_height=2.0&Stackable_holedistance=1.0&Stackable_width=4.0&Hinge_grip_percentage=0&Hinge_outset=0&Hinge_pinwidth=0.5&Hinge_style=outset&Hinge_axle=2&Hinge_grip_length=0&Hinge_hingestrength=1&CabinetHinge_bore=3.2&CabinetHinge_eyes_per_hinge=5&CabinetHinge_hinges=2&CabinetHinge_style=inside&CabinetHinge_eye=1.5&CabinetHinge_play=0.05&CabinetHinge_spacing=2.0&Lid_angle=90.0&Lid_second_pin=0&Lid_second_pin=1&Lid_spring=both&Lid_style=rectangular&Lid_surroundingspaces=2.0&Lid_edge_width=1.0&Lid_finger=3.0&Lid_play=0.05&Lid_space=2.0&Lid_width=1.0&Click_angle=5.0&Click_bottom_radius=0.1&Click_depth=3.0&RoundedTriangleEdge_height=150.0&RoundedTriangleEdge_r_hole=2.0&RoundedTriangleEdge_radius=30.0&RoundedTriangleEdge_outset=1&sx=61%2F2&sy=61%2F2&h=98&hi=0.0&outside=0&outside=1&bottom_edge=h&top_edge=e&gripheight=0&gripwidth=0&thickness=4&format=svg&tabs=0.0&debug=0&reference=0&burn=0.15&render=1
SettingsUrl: http://www.festi.info/TypeTray?FingerJoint_angle=90.0&FingerJoint_style=rectangular&FingerJoint_surroundingspaces=0.5&FingerJoint_edge_width=1.0&FingerJoint_finger=2.0&FingerJoint_play=0.0&FingerJoint_space=2.0&FingerJoint_width=1.0&Stackable_angle=60&Stackable_height=2.0&Stackable_holedistance=1.0&Stackable_width=4.0&Hinge_grip_percentage=0&Hinge_outset=0&Hinge_pinwidth=0.5&Hinge_style=outset&Hinge_axle=2&Hinge_grip_length=0&Hinge_hingestrength=1&CabinetHinge_bore=3.2&CabinetHinge_eyes_per_hinge=5&CabinetHinge_hinges=2&CabinetHinge_style=inside&CabinetHinge_eye=1.5&CabinetHinge_play=0.05&CabinetHinge_spacing=2.0&Lid_angle=90.0&Lid_second_pin=0&Lid_second_pin=1&Lid_spring=both&Lid_style=rectangular&Lid_surroundingspaces=2.0&Lid_edge_width=1.0&Lid_finger=3.0&Lid_play=0.05&Lid_space=2.0&Lid_width=1.0&Click_angle=5.0&Click_bottom_radius=0.1&Click_depth=3.0&RoundedTriangleEdge_height=150.0&RoundedTriangleEdge_r_hole=2.0&RoundedTriangleEdge_radius=30.0&RoundedTriangleEdge_outset=1&sx=61%2F2&sy=61%2F2&h=98&hi=0.0&outside=0&outside=1&bottom_edge=h&top_edge=e&gripheight=0&gripwidth=0&thickness=4&format=svg&tabs=0.0&debug=0&reference=0&burn=0.15
-->
<title>TypeTray</title>
<metadata>
<rdf:RDF><cc:Work>
<dc:title>Tray - TypeTray</dc:title>
<dc:date>2021-02-15 10:18:56</dc:date>
<dc:source>http://www.festi.info/TypeTray?FingerJoint_angle=90.0&amp;FingerJoint_style=rectangular&amp;FingerJoint_surroundingspaces=0.5&amp;FingerJoint_edge_width=1.0&amp;FingerJoint_finger=2.0&amp;FingerJoint_play=0.0&amp;FingerJoint_space=2.0&amp;FingerJoint_width=1.0&amp;Stackable_angle=60&amp;Stackable_height=2.0&amp;Stackable_holedistance=1.0&amp;Stackable_width=4.0&amp;Hinge_grip_percentage=0&amp;Hinge_outset=0&amp;Hinge_pinwidth=0.5&amp;Hinge_style=outset&amp;Hinge_axle=2&amp;Hinge_grip_length=0&amp;Hinge_hingestrength=1&amp;CabinetHinge_bore=3.2&amp;CabinetHinge_eyes_per_hinge=5&amp;CabinetHinge_hinges=2&amp;CabinetHinge_style=inside&amp;CabinetHinge_eye=1.5&amp;CabinetHinge_play=0.05&amp;CabinetHinge_spacing=2.0&amp;Lid_angle=90.0&amp;Lid_second_pin=0&amp;Lid_second_pin=1&amp;Lid_spring=both&amp;Lid_style=rectangular&amp;Lid_surroundingspaces=2.0&amp;Lid_edge_width=1.0&amp;Lid_finger=3.0&amp;Lid_play=0.05&amp;Lid_space=2.0&amp;Lid_width=1.0&amp;Click_angle=5.0&amp;Click_bottom_radius=0.1&amp;Click_depth=3.0&amp;RoundedTriangleEdge_height=150.0&amp;RoundedTriangleEdge_r_hole=2.0&amp;RoundedTriangleEdge_radius=30.0&amp;RoundedTriangleEdge_outset=1&amp;sx=61%2F2&amp;sy=61%2F2&amp;h=98&amp;hi=0.0&amp;outside=0&amp;outside=1&amp;bottom_edge=h&amp;top_edge=e&amp;gripheight=0&amp;gripwidth=0&amp;thickness=4&amp;format=svg&amp;tabs=0.0&amp;debug=0&amp;reference=0&amp;burn=0.15&amp;render=1</dc:source>
<dc:description>Type tray - allows only continuous walls

Created with Boxes.py (https://festi.info/boxes.py)
Command line: boxes TypeTray --FingerJoint_angle=90.0 --FingerJoint_style=rectangular --FingerJoint_surroundingspaces=0.5 --FingerJoint_edge_width=1.0 --FingerJoint_finger=2.0 --FingerJoint_play=0.0 --FingerJoint_space=2.0 --FingerJoint_width=1.0 --Stackable_angle=60 --Stackable_height=2.0 --Stackable_holedistance=1.0 --Stackable_width=4.0 --Hinge_grip_percentage=0 --Hinge_outset=0 --Hinge_pinwidth=0.5 --Hinge_style=outset --Hinge_axle=2 --Hinge_grip_length=0 --Hinge_hingestrength=1 --CabinetHinge_bore=3.2 --CabinetHinge_eyes_per_hinge=5 --CabinetHinge_hinges=2 --CabinetHinge_style=inside --CabinetHinge_eye=1.5 --CabinetHinge_play=0.05 --CabinetHinge_spacing=2.0 --Lid_angle=90.0 --Lid_second_pin=0 --Lid_second_pin=1 --Lid_spring=both --Lid_style=rectangular --Lid_surroundingspaces=2.0 --Lid_edge_width=1.0 --Lid_finger=3.0 --Lid_play=0.05 --Lid_space=2.0 --Lid_width=1.0 --Click_angle=5.0 --Click_bottom_radius=0.1 --Click_depth=3.0 --RoundedTriangleEdge_height=150.0 --RoundedTriangleEdge_r_hole=2.0 --RoundedTriangleEdge_radius=30.0 --RoundedTriangleEdge_outset=1 --sx=61/2 --sy=61/2 --h=98 --hi=0.0 --outside=0 --outside=1 --bottom_edge=h --top_edge=e --gripheight=0 --gripwidth=0 --thickness=4 --format=svg --tabs=0.0 --debug=0 --reference=0 --burn=0.15
Url: http://www.festi.info/TypeTray?FingerJoint_angle=90.0&amp;FingerJoint_style=rectangular&amp;FingerJoint_surroundingspaces=0.5&amp;FingerJoint_edge_width=1.0&amp;FingerJoint_finger=2.0&amp;FingerJoint_play=0.0&amp;FingerJoint_space=2.0&amp;FingerJoint_width=1.0&amp;Stackable_angle=60&amp;Stackable_height=2.0&amp;Stackable_holedistance=1.0&amp;Stackable_width=4.0&amp;Hinge_grip_percentage=0&amp;Hinge_outset=0&amp;Hinge_pinwidth=0.5&amp;Hinge_style=outset&amp;Hinge_axle=2&amp;Hinge_grip_length=0&amp;Hinge_hingestrength=1&amp;CabinetHinge_bore=3.2&amp;CabinetHinge_eyes_per_hinge=5&amp;CabinetHinge_hinges=2&amp;CabinetHinge_style=inside&amp;CabinetHinge_eye=1.5&amp;CabinetHinge_play=0.05&amp;CabinetHinge_spacing=2.0&amp;Lid_angle=90.0&amp;Lid_second_pin=0&amp;Lid_second_pin=1&amp;Lid_spring=both&amp;Lid_style=rectangular&amp;Lid_surroundingspaces=2.0&amp;Lid_edge_width=1.0&amp;Lid_finger=3.0&amp;Lid_play=0.05&amp;Lid_space=2.0&amp;Lid_width=1.0&amp;Click_angle=5.0&amp;Click_bottom_radius=0.1&amp;Click_depth=3.0&amp;RoundedTriangleEdge_height=150.0&amp;RoundedTriangleEdge_r_hole=2.0&amp;RoundedTriangleEdge_radius=30.0&amp;RoundedTriangleEdge_outset=1&amp;sx=61%2F2&amp;sy=61%2F2&amp;h=98&amp;hi=0.0&amp;outside=0&amp;outside=1&amp;bottom_edge=h&amp;top_edge=e&amp;gripheight=0&amp;gripwidth=0&amp;thickness=4&amp;format=svg&amp;tabs=0.0&amp;debug=0&amp;reference=0&amp;burn=0.15&amp;render=1
SettingsUrl: http://www.festi.info/TypeTray?FingerJoint_angle=90.0&amp;FingerJoint_style=rectangular&amp;FingerJoint_surroundingspaces=0.5&amp;FingerJoint_edge_width=1.0&amp;FingerJoint_finger=2.0&amp;FingerJoint_play=0.0&amp;FingerJoint_space=2.0&amp;FingerJoint_width=1.0&amp;Stackable_angle=60&amp;Stackable_height=2.0&amp;Stackable_holedistance=1.0&amp;Stackable_width=4.0&amp;Hinge_grip_percentage=0&amp;Hinge_outset=0&amp;Hinge_pinwidth=0.5&amp;Hinge_style=outset&amp;Hinge_axle=2&amp;Hinge_grip_length=0&amp;Hinge_hingestrength=1&amp;CabinetHinge_bore=3.2&amp;CabinetHinge_eyes_per_hinge=5&amp;CabinetHinge_hinges=2&amp;CabinetHinge_style=inside&amp;CabinetHinge_eye=1.5&amp;CabinetHinge_play=0.05&amp;CabinetHinge_spacing=2.0&amp;Lid_angle=90.0&amp;Lid_second_pin=0&amp;Lid_second_pin=1&amp;Lid_spring=both&amp;Lid_style=rectangular&amp;Lid_surroundingspaces=2.0&amp;Lid_edge_width=1.0&amp;Lid_finger=3.0&amp;Lid_play=0.05&amp;Lid_space=2.0&amp;Lid_width=1.0&amp;Click_angle=5.0&amp;Click_bottom_radius=0.1&amp;Click_depth=3.0&amp;RoundedTriangleEdge_height=150.0&amp;RoundedTriangleEdge_r_hole=2.0&amp;RoundedTriangleEdge_radius=30.0&amp;RoundedTriangleEdge_outset=1&amp;sx=61%2F2&amp;sy=61%2F2&amp;h=98&amp;hi=0.0&amp;outside=0&amp;outside=1&amp;bottom_edge=h&amp;top_edge=e&amp;gripheight=0&amp;gripwidth=0&amp;thickness=4&amp;format=svg&amp;tabs=0.0&amp;debug=0&amp;reference=0&amp;burn=0.15
</dc:description>
</cc:Work></rdf:RDF></metadata>
<g id="p-0" style="fill:none;stroke-linecap:round;stroke-linejoin:round;">
  <path d="M 42.500 365.050 V 368.900 C 42.500 369.050 42.650 368.900 42.500 368.900 H 38.800 C 38.650 368.900 38.800 369.050 38.800 368.900 V 361.200 C 38.800 361.050 38.650 361.200 38.800 361.200 H 42.500 C 42.650 361.200 42.500 361.050 42.500 361.200 V 365.050 Z" stroke="rgb(0,0,255)" stroke-width="0.30" />
  <path d="M 42.500 349.050 V 352.900 C 42.500 353.050 42.650 352.900 42.500 352.900 H 38.800 C 38.650 352.900 38.800 353.050 38.800 352.900 V 345.200 C 38.800 345.050 38.650 345.200 38.800 345.200 H 42.500 C 42.650 345.200 42.500 345.050 42.500 345.200 V 349.050 Z" stroke="rgb(0,0,255)" stroke-width="0.30" />
  <path d="M 42.500 333.050 V 336.900 C 42.500 337.050 42.650 336.900 42.500 336.900 H 38.800 C 38.650 336.900 38.800 337.050 38.800 336.900 V 329.200 C 38.800 329.050 38.650 329.200 38.800 329.200 H 42.500 C 42.650 329.200 42.500 329.050 42.500 329.200 V 333.050 Z" stroke="rgb(0,0,255)" stroke-width="0.30" />
  <path d="M 42.500 317.050 V 320.900 C 42.500 321.050 42.650 320.900 42.500 320.900 H 38.800 C 38.650 320.900 38.800 321.050 38.800 320.900 V 313.200 C 38.800 313.050 38.650 313.200 38.800 313.200 H 42.500 C 42.650 313.200 42.500 313.050 42.500 313.200 V 317.050 Z" stroke="rgb(0,0,255)" stroke-width="0.30" />
  <path d="M 42.500 301.050 V 304.900 C 42.500 305.050 42.650 304.900 42.500 304.900 H 38.800 C 38.650 304.900 38.800 305.050 38.800 304.900 V 297.200 C 38.800 297.050 38.650 297.200 38.800 297.200 H 42.500 C 42.650 297.200 42.500 297.050 42.500 297.200 V 301.050 Z" stroke="rgb(0,0,255)" stroke-width="0.30" />
  <path d="M 42.500 285.050 V 288.900 C 42.500 289.050 42.650 288.900 42.500 288.900 H 38.800 C 38.650 288.900 38.800 289.050 38.800 288.900 V 281.200 C 38.800 281.050 38.650 281.200 38.800 281.200 H 42.500 C 42.650 281.200 42.500 281.050 42.500 281.200 V 285.050 Z" stroke="rgb(0,0,255)" stroke-width="0.30" />
  <path d="M 24.650 375.900 H 20.800 C 20.650 375.900 20.800 376.050 20.800 375.900 V 372.200 C 20.800 372.050 20.650 372.200 20.800 372.200 H 28.500 C 28.650 372.200 28.500 372.050 28.500 372.200 V 375.900 C 28.500 376.050 28.650 375.900 28.500 375.900 H 24.650 Z" stroke="rgb(0,0,255)" stroke-width="0.30" />
  <path d="M 40.650 375.900 H 36.800 C 36.650 375.900 36.800 376.050 36.800 375.900 V 372.200 C 36.800 372.050 36.650 372.200 36.800 372.200 H 44.500 C 44.650 372.200 44.500 372.050 44.500 372.200 V 375.900 C 44.500 376.050 44.650 375.900 44.500 375.900 H 40.650 Z" stroke="rgb(0,0,255)" stroke-width="0.30" />
  <path d="M 56.650 375.900 H 52.800 C 52.650 375.900 52.800 376.050 52.800 375.900 V 372.200 C 52.800 372.050 52.650 372.200 52.800 372.200 H 60.500 C 60.650 372.200 60.500 372.050 60.500 372.200 V 375.900 C 60.500 376.050 60.650 375.900 60.500 375.900 H 56.650 Z" stroke="rgb(0,0,255)" stroke-width="0.30" />
  <path d="M 14.150 380.200 H 67.150 H 71.150 C 71.233 380.200 71.300 380.133 71.300 380.050 V 373.050 C 71.300 372.967 71.233 372.900 71.150 372.900 H 67.300 C 67.150 372.900 67.300 373.050 67.300 372.900 V 365.200 C 67.300 365.050 67.150 365.200 67.300 365.200 H 71.150 C 71.233 365.200 71.300 365.133 71.300 365.050 V 357.050 C 71.300 356.967 71.233 356.900 71.150 356.900 H 67.300 C 67.150 356.900 67.300 357.050 67.300 356.900 V 349.200 C 67.300 349.050 67.150 349.200 67.300 349.200 H 71.150 C 71.233 349.200 71.300 349.133 71.300 349.050 V 341.050 C 71.300 340.967 71.233 340.900 71.150 340.900 H 67.300 C 67.150 340.900 67.300 341.050 67.300 340.900 V 333.200 C 67.300 333.050 67.150 333.200 67.300 333.200 H 71.150 C 71.233 333.200 71.300 333.133 71.300 333.050 V 325.050 C 71.300 324.967 71.233 324.900 71.150 324.900 H 67.300 C 67.150 324.900 67.300 325.050 67.300 324.900 V 317.200 C 67.300 317.050 67.150 317.200 67.300 317.200 H 71.150 C 71.233 317.200 71.300 317.133 71.300 317.050 V 309.050 C 71.300 308.967 71.233 308.900 71.150 308.900 H 67.300 C 67.150 308.900 67.300 309.050 67.300 308.900 V 301.200 C 67.300 301.050 67.150 301.200 67.300 301.200 H 71.150 C 71.233 301.200 71.300 301.133 71.300 301.050 V 293.050 C 71.300 292.967 71.233 292.900 71.150 292.900 H 67.300 C 67.150 292.900 67.300 293.050 67.300 292.900 V 285.200 C 67.300 285.050 67.150 285.200 67.300 285.200 H 71.150 C 71.233 285.200 71.300 285.133 71.300 285.050 V 278.050 C 71.300 277.967 71.233 277.900 71.150 277.900 H 67.150 H 14.150 H 10.150 C 10.067 277.900 10.000 277.967 10.000 278.050 V 285.050 C 10.000 285.133 10.067 285.200 10.150 285.200 H 14.000 C 14.150 285.200 14.000 285.050 14.000 285.200 V 292.900 C 14.000 293.050 14.150 292.900 14.000 292.900 H 10.150 C 10.067 292.900 10.000 292.967 10.000 293.050 V 301.050 C 10.000 301.133 10.067 301.200 10.150 301.200 H 14.000 C 14.150 301.200 14.000 301.050 14.000 301.200 V 308.900 C 14.000 309.050 14.150 308.900 14.000 308.900 H 10.150 C 10.067 308.900 10.000 308.967 10.000 309.050 V 317.050 C 10.000 317.133 10.067 317.200 10.150 317.200 H 14.000 C 14.150 317.200 14.000 317.050 14.000 317.200 V 324.900 C 14.000 325.050 14.150 324.900 14.000 324.900 H 10.150 C 10.067 324.900 10.000 324.967 10.000 325.050 V 333.050 C 10.000 333.133 10.067 333.200 10.150 333.200 H 14.000 C 14.150 333.200 14.000 333.050 14.000 333.200 V 340.900 C 14.000 341.050 14.150 340.900 14.000 340.900 H 10.150 C 10.067 340.900 10.000 340.967 10.000 341.050 V 349.050 C 10.000 349.133 10.067 349.200 10.150 349.200 H 14.000 C 14.150 349.200 14.000 349.050 14.000 349.200 V 356.900 C 14.000 357.050 14.150 356.900 14.000 356.900 H 10.150 C 10.067 356.900 10.000 356.967 10.000 357.050 V 365.050 C 10.000 365.133 10.067 365.200 10.150 365.200 H 14.000 C 14.150 365.200 14.000 365.050 14.000 365.200 V 372.900 C 14.000 373.050 14.150 372.900 14.000 372.900 H 10.150 C 10.067 372.900 10.000 372.967 10.000 373.050 V 380.050 C 10.000 380.133 10.067 380.200 10.150 380.200 H 14.150 Z" stroke="rgb(0,0,0)" stroke-width="0.30" />
</g>
<g id="p-1" style="fill:none;stroke-linecap:round;stroke-linejoin:round;">
  <path d="M 38.800 260.750 V 264.600 C 38.800 264.750 38.650 264.600 38.800 264.600 H 42.500 C 42.650 264.600 42.500 264.750 42.500 264.600 V 256.900 C 42.500 256.750 42.650 256.900 42.500 256.900 H 38.800 C 38.650 256.900 38.800 256.750 38.800 256.900 V 260.750 Z" stroke="rgb(0,0,255)" stroke-width="0.30" />
  <path d="M 38.800 244.750 V 248.600 C 38.800 248.750 38.650 248.600 38.800 248.600 H 42.500 C 42.650 248.600 42.500 248.750 42.500 248.600 V 240.900 C 42.500 240.750 42.650 240.900 42.500 240.900 H 38.800 C 38.650 240.900 38.800 240.750 38.800 240.900 V 244.750 Z" stroke="rgb(0,0,255)" stroke-width="0.30" />
  <path d="M 38.800 228.750 V 232.600 C 38.800 232.750 38.650 232.600 38.800 232.600 H 42.500 C 42.650 232.600 42.500 232.750 42.500 232.600 V 224.900 C 42.500 224.750 42.650 224.900 42.500 224.900 H 38.800 C 38.650 224.900 38.800 224.750 38.800 224.900 V 228.750 Z" stroke="rgb(0,0,255)" stroke-width="0.30" />
  <path d="M 38.800 212.750 V 216.600 C 38.800 216.750 38.650 216.600 38.800 216.600 H 42.500 C 42.650 216.600 42.500 216.750 42.500 216.600 V 208.900 C 42.500 208.750 42.650 208.900 42.500 208.900 H 38.800 C 38.650 208.900 38.800 208.750 38.800 208.900 V 212.750 Z" stroke="rgb(0,0,255)" stroke-width="0.30" />
  <path d="M 38.800 196.750 V 200.600 C 38.800 200.750 38.650 200.600 38.800 200.600 H 42.500 C 42.650 200.600 42.500 200.750 42.500 200.600 V 192.900 C 42.500 192.750 42.650 192.900 42.500 192.900 H 38.800 C 38.650 192.900 38.800 192.750 38.800 192.900 V 196.750 Z" stroke="rgb(0,0,255)" stroke-width="0.30" />
  <path d="M 38.800 180.750 V 184.600 C 38.800 184.750 38.650 184.600 38.800 184.600 H 42.500 C 42.650 184.600 42.500 184.750 42.500 184.600 V 176.900 C 42.500 176.750 42.650 176.900 42.500 176.900 H 38.800 C 38.650 176.900 38.800 176.750 38.800 176.900 V 180.750 Z" stroke="rgb(0,0,255)" stroke-width="0.30" />
  <path d="M 24.650 271.600 H 20.800 C 20.650 271.600 20.800 271.750 20.800 271.600 V 267.900 C 20.800 267.750 20.650 267.900 20.800 267.900 H 28.500 C 28.650 267.900 28.500 267.750 28.500 267.900 V 271.600 C 28.500 271.750 28.650 271.600 28.500 271.600 H 24.650 Z" stroke="rgb(0,0,255)" stroke-width="0.30" />
  <path d="M 40.650 271.600 H 36.800 C 36.650 271.600 36.800 271.750 36.800 271.600 V 267.900 C 36.800 267.750 36.650 267.900 36.800 267.900 H 44.500 C 44.650 267.900 44.500 267.750 44.500 267.900 V 271.600 C 44.500 271.750 44.650 271.600 44.500 271.600 H 40.650 Z" stroke="rgb(0,0,255)" stroke-width="0.30" />
  <path d="M 56.650 271.600 H 52.800 C 52.650 271.600 52.800 271.750 52.800 271.600 V 267.900 C 52.800 267.750 52.650 267.900 52.800 267.900 H 60.500 C 60.650 267.900 60.500 267.750 60.500 267.900 V 271.600 C 60.500 271.750 60.650 271.600 60.500 271.600 H 56.650 Z" stroke="rgb(0,0,255)" stroke-width="0.30" />
  <path d="M 14.150 275.900 H 67.150 H 71.150 C 71.233 275.900 71.300 275.833 71.300 275.750 V 268.750 C 71.300 268.667 71.233 268.600 71.150 268.600 H 67.300 C 67.150 268.600 67.300 268.750 67.300 268.600 V 260.900 C 67.300 260.750 67.150 260.900 67.300 260.900 H 71.150 C 71.233 260.900 71.300 260.833 71.300 260.750 V 252.750 C 71.300 252.667 71.233 252.600 71.150 252.600 H 67.300 C 67.150 252.600 67.300 252.750 67.300 252.600 V 244.900 C 67.300 244.750 67.150 244.900 67.300 244.900 H 71.150 C 71.233 244.900 71.300 244.833 71.300 244.750 V 236.750 C 71.300 236.667 71.233 236.600 71.150 236.600 H 67.300 C 67.150 236.600 67.300 236.750 67.300 236.600 V 228.900 C 67.300 228.750 67.150 228.900 67.300 228.900 H 71.150 C 71.233 228.900 71.300 228.833 71.300 228.750 V 220.750 C 71.300 220.667 71.233 220.600 71.150 220.600 H 67.300 C 67.150 220.600 67.300 220.750 67.300 220.600 V 212.900 C 67.300 212.750 67.150 212.900 67.300 212.900 H 71.150 C 71.233 212.900 71.300 212.833 71.300 212.750 V 204.750 C 71.300 204.667 71.233 204.600 71.150 204.600 H 67.300 C 67.150 204.600 67.300 204.750 67.300 204.600 V 196.900 C 67.300 196.750 67.150 196.900 67.300 196.900 H 71.150 C 71.233 196.900 71.300 196.833 71.300 196.750 V 188.750 C 71.300 188.667 71.233 188.600 71.150 188.600 H 67.300 C 67.150 188.600 67.300 188.750 67.300 188.600 V 180.900 C 67.300 180.750 67.150 180.900 67.300 180.900 H 71.150 C 71.233 180.900 71.300 180.833 71.300 180.750 V 173.750 C 71.300 173.667 71.233 173.600 71.150 173.600 H 67.150 H 14.150 H 10.150 C 10.067 173.600 10.000 173.667 10.000 173.750 V 180.750 C 10.000 180.833 10.067 180.900 10.150 180.900 H 14.000 C 14.150 180.900 14.000 180.750 14.000 180.900 V 188.600 C 14.000 188.750 14.150 188.600 14.000 188.600 H 10.150 C 10.067 188.600 10.000 188.667 10.000 188.750 V 196.750 C 10.000 196.833 10.067 196.900 10.150 196.900 H 14.000 C 14.150 196.900 14.000 196.750 14.000 196.900 V 204.600 C 14.000 204.750 14.150 204.600 14.000 204.600 H 10.150 C 10.067 204.600 10.000 204.667 10.000 204.750 V 212.750 C 10.000 212.833 10.067 212.900 10.150 212.900 H 14.000 C 14.150 212.900 14.000 212.750 14.000 212.900 V 220.600 C 14.000 220.750 14.150 220.600 14.000 220.600 H 10.150 C 10.067 220.600 10.000 220.667 10.000 220.750 V 228.750 C 10.000 228.833 10.067 228.900 10.150 228.900 H 14.000 C 14.150 228.900 14.000 228.750 14.000 228.900 V 236.600 C 14.000 236.750 14.150 236.600 14.000 236.600 H 10.150 C 10.067 236.600 10.000 236.667 10.000 236.750 V 244.750 C 10.000 244.833 10.067 244.900 10.150 244.900 H 14.000 C 14.150 244.900 14.000 244.750 14.000 244.900 V 252.600 C 14.000 252.750 14.150 252.600 14.000 252.600 H 10.150 C 10.067 252.600 10.000 252.667 10.000 252.750 V 260.750 C 10.000 260.833 10.067 260.900 10.150 260.900 H 14.000 C 14.150 260.900 14.000 260.750 14.000 260.900 V 268.600 C 14.000 268.750 14.150 268.600 14.000 268.600 H 10.150 C 10.067 268.600 10.000 268.667 10.000 268.750 V 275.750 C 10.000 275.833 10.067 275.900 10.150 275.900 H 14.150 Z" stroke="rgb(0,0,0)" stroke-width="0.30" />
</g>
<g id="p-2" style="fill:none;stroke-linecap:round;stroke-linejoin:round;">
  <path d="M 42.500 155.200 V 159.050 C 42.500 159.200 42.650 159.050 42.500 159.050 H 38.800 C 38.650 159.050 38.800 159.200 38.800 159.050 V 151.350 C 38.800 151.200 38.650 151.350 38.800 151.350 H 42.500 C 42.650 151.350 42.500 151.200 42.500 151.350 V 155.200 Z" stroke="rgb(0,0,255)" stroke-width="0.30" />
  <path d="M 42.500 126.700 V 130.550 C 42.500 130.700 42.650 130.550 42.500 130.550 H 38.800 C 38.650 130.550 38.800 130.700 38.800 130.550 V 122.850 C 38.800 122.700 38.650 122.850 38.800 122.850 H 42.500 C 42.650 122.850 42.500 122.700 42.500 122.850 V 126.700 Z" stroke="rgb(0,0,255)" stroke-width="0.30" />
  <path d="M 14.150 167.600 H 20.500 C 20.650 167.600 20.500 167.450 20.500 167.600 V 171.450 C 20.500 171.533 20.567 171.600 20.650 171.600 H 28.650 C 28.733 171.600 28.800 171.533 28.800 171.450 V 167.600 C 28.800 167.450 28.650 167.600 28.800 167.600 H 36.500 C 36.650 167.600 36.500 167.450 36.500 167.600 V 171.450 C 36.500 171.533 36.567 171.600 36.650 171.600 H 44.650 C 44.733 171.600 44.800 171.533 44.800 171.450 V 167.600 C 44.800 167.450 44.650 167.600 44.800 167.600 H 52.500 C 52.650 167.600 52.500 167.450 52.500 167.600 V 171.450 C 52.500 171.533 52.567 171.600 52.650 171.600 H 60.650 C 60.733 171.600 60.800 171.533 60.800 171.450 V 167.600 C 60.800 167.450 60.650 167.600 60.800 167.600 H 67.150 C 67.233 167.600 67.300 167.533 67.300 167.450 V 161.100 C 67.300 160.950 67.150 161.100 67.300 161.100 H 71.150 C 71.233 161.100 71.300 161.033 71.300 160.950 V 152.950 C 71.300 152.867 71.233 152.800 71.150 152.800 H 67.300 C 67.150 152.800 67.300 152.950 67.300 152.800 V 145.100 C 67.300 144.950 67.150 145.100 67.300 145.100 H 71.150 C 71.233 145.100 71.300 145.033 71.300 144.950 V 136.950 C 71.300 136.867 71.233 136.800 71.150 136.800 H 67.300 C 67.150 136.800 67.300 136.950 67.300 136.800 V 129.100 C 67.300 128.950 67.150 129.100 67.300 129.100 H 71.150 C 71.233 129.100 71.300 129.033 71.300 128.950 V 120.950 C 71.300 120.867 71.233 120.800 71.150 120.800 H 67.300 C 67.150 120.800 67.300 120.950 67.300 120.800 V 114.450 C 67.300 114.367 67.233 114.300 67.150 114.300 H 60.800 C 60.650 114.300 60.800 114.450 60.800 114.300 V 110.450 C 60.800 110.367 60.733 110.300 60.650 110.300 H 52.650 C 52.567 110.300 52.500 110.367 52.500 110.450 V 114.300 C 52.500 114.450 52.650 114.300 52.500 114.300 H 44.800 C 44.650 114.300 44.800 114.450 44.800 114.300 V 110.450 C 44.800 110.367 44.733 110.300 44.650 110.300 H 36.650 C 36.567 110.300 36.500 110.367 36.500 110.450 V 114.300 C 36.500 114.450 36.650 114.300 36.500 114.300 H 28.800 C 28.650 114.300 28.800 114.450 28.800 114.300 V 110.450 C 28.800 110.367 28.733 110.300 28.650 110.300 H 20.650 C 20.567 110.300 20.500 110.367 20.500 110.450 V 114.300 C 20.500 114.450 20.650 114.300 20.500 114.300 H 14.150 C 14.067 114.300 14.000 114.367 14.000 114.450 V 120.800 C 14.000 120.950 14.150 120.800 14.000 120.800 H 10.150 C 10.067 120.800 10.000 120.867 10.000 120.950 V 128.950 C 10.000 129.033 10.067 129.100 10.150 129.100 H 14.000 C 14.150 129.100 14.000 128.950 14.000 129.100 V 136.800 C 14.000 136.950 14.150 136.800 14.000 136.800 H 10.150 C 10.067 136.800 10.000 136.867 10.000 136.950 V 144.950 C 10.000 145.033 10.067 145.100 10.150 145.100 H 14.000 C 14.150 145.100 14.000 144.950 14.000 145.100 V 152.800 C 14.000 152.950 14.150 152.800 14.000 152.800 H 10.150 C 10.067 152.800 10.000 152.867 10.000 152.950 V 160.950 C 10.000 161.033 10.067 161.100 10.150 161.100 H 14.000 C 14.150 161.100 14.000 160.950 14.000 161.100 V 167.450 C 14.000 167.533 14.067 167.600 14.150 167.600 Z" stroke="rgb(0,0,0)" stroke-width="0.30" />
  <path d="M 54.900 139.100 H 58.750 C 58.900 139.100 58.750 138.950 58.750 139.100 V 142.800 C 58.750 142.950 58.900 142.800 58.750 142.800 H 51.050 C 50.900 142.800 51.050 142.950 51.050 142.800 V 139.100 C 51.050 138.950 50.900 139.100 51.050 139.100 H 54.900 Z" stroke="rgb(0,0,255)" stroke-width="0.30" />
  <path d="M 26.400 139.100 H 30.250 C 30.400 139.100 30.250 138.950 30.250 139.100 V 142.800 C 30.250 142.950 30.400 142.800 30.250 142.800 H 22.550 C 22.400 142.800 22.550 142.950 22.550 142.800 V 139.100 C 22.550 138.950 22.400 139.100 22.550 139.100 H 26.400 Z" stroke="rgb(0,0,255)" stroke-width="0.30" />
</g>
<g id="p-3" style="fill:none;stroke-linecap:round;stroke-linejoin:round;">
  <path d="M 14.150 104.300 H 22.250 C 22.400 104.300 22.250 104.150 22.250 104.300 V 108.150 C 22.250 108.233 22.317 108.300 22.400 108.300 H 30.400 C 30.483 108.300 30.550 108.233 30.550 108.150 V 104.300 C 30.550 104.150 30.400 104.300 30.550 104.300 H 38.650 H 40.650 H 42.650 H 50.750 C 50.900 104.300 50.750 104.150 50.750 104.300 V 108.150 C 50.750 108.233 50.817 108.300 50.900 108.300 H 58.900 C 58.983 108.300 59.050 108.233 59.050 108.150 V 104.300 C 59.050 104.150 58.900 104.300 59.050 104.300 H 67.150 C 67.233 104.300 67.300 104.233 67.300 104.150 V 101.300 C 67.300 101.150 67.150 101.300 67.300 101.300 H 71.150 C 71.233 101.300 71.300 101.233 71.300 101.150 V 93.150 C 71.300 93.067 71.233 93.000 71.150 93.000 H 67.300 C 67.150 93.000 67.300 93.150 67.300 93.000 V 85.300 C 67.300 85.150 67.150 85.300 67.300 85.300 H 71.150 C 71.233 85.300 71.300 85.233 71.300 85.150 V 77.150 C 71.300 77.067 71.233 77.000 71.150 77.000 H 67.300 C 67.150 77.000 67.300 77.150 67.300 77.000 V 69.300 C 67.300 69.150 67.150 69.300 67.300 69.300 H 71.150 C 71.233 69.300 71.300 69.233 71.300 69.150 V 61.150 C 71.300 61.067 71.233 61.000 71.150 61.000 H 67.300 C 67.150 61.000 67.300 61.150 67.300 61.000 V 53.300 C 67.300 53.150 67.150 53.300 67.300 53.300 H 71.150 C 71.233 53.300 71.300 53.233 71.300 53.150 V 45.150 C 71.300 45.067 71.233 45.000 71.150 45.000 H 67.300 C 67.150 45.000 67.300 45.150 67.300 45.000 V 37.300 C 67.300 37.150 67.150 37.300 67.300 37.300 H 71.150 C 71.233 37.300 71.300 37.233 71.300 37.150 V 29.150 C 71.300 29.067 71.233 29.000 71.150 29.000 H 67.300 C 67.150 29.000 67.300 29.150 67.300 29.000 V 21.300 C 67.300 21.150 67.150 21.300 67.300 21.300 H 71.150 C 71.233 21.300 71.300 21.233 71.300 21.150 V 13.150 C 71.300 13.067 71.233 13.000 71.150 13.000 H 67.300 C 67.150 13.000 67.300 13.150 67.300 13.000 V 10.150 C 67.300 10.067 67.233 10.000 67.150 10.000 H 42.650 C 42.567 10.000 42.500 10.067 42.500 10.150 V 57.000 C 42.500 57.150 42.650 57.000 42.500 57.000 H 38.800 C 38.650 57.000 38.800 57.150 38.800 57.000 V 10.150 C 38.800 10.067 38.733 10.000 38.650 10.000 H 14.150 C 14.067 10.000 14.000 10.067 14.000 10.150 V 13.000 C 14.000 13.150 14.150 13.000 14.000 13.000 H 10.150 C 10.067 13.000 10.000 13.067 10.000 13.150 V 21.150 C 10.000 21.233 10.067 21.300 10.150 21.300 H 14.000 C 14.150 21.300 14.000 21.150 14.000 21.300 V 29.000 C 14.000 29.150 14.150 29.000 14.000 29.000 H 10.150 C 10.067 29.000 10.000 29.067 10.000 29.150 V 37.150 C 10.000 37.233 10.067 37.300 10.150 37.300 H 14.000 C 14.150 37.300 14.000 37.150 14.000 37.300 V 45.000 C 14.000 45.150 14.150 45.000 14.000 45.000 H 10.150 C 10.067 45.000 10.000 45.067 10.000 45.150 V 53.150 C 10.000 53.233 10.067 53.300 10.150 53.300 H 14.000 C 14.150 53.300 14.000 53.150 14.000 53.300 V 61.000 C 14.000 61.150 14.150 61.000 14.000 61.000 H 10.150 C 10.067 61.000 10.000 61.067 10.000 61.150 V 69.150 C 10.000 69.233 10.067 69.300 10.150 69.300 H 14.000 C 14.150 69.300 14.000 69.150 14.000 69.300 V 77.000 C 14.000 77.150 14.150 77.000 14.000 77.000 H 10.150 C 10.067 77.000 10.000 77.067 10.000 77.150 V 85.150 C 10.000 85.233 10.067 85.300 10.150 85.300 H 14.000 C 14.150 85.300 14.000 85.150 14.000 85.300 V 93.000 C 14.000 93.150 14.150 93.000 14.000 93.000 H 10.150 C 10.067 93.000 10.000 93.067 10.000 93.150 V 101.150 C 10.000 101.233 10.067 101.300 10.150 101.300 H 14.000 C 14.150 101.300 14.000 101.150 14.000 101.300 V 104.150 C 14.000 104.233 14.067 104.300 14.150 104.300 Z" stroke="rgb(0,0,0)" stroke-width="0.30" />
</g>
<g id="p-4" style="fill:none;stroke-linecap:round;stroke-linejoin:round;">
  <path d="M 105.800 365.050 V 368.900 C 105.800 369.050 105.950 368.900 105.800 368.900 H 102.100 C 101.950 368.900 102.100 369.050 102.100 368.900 V 361.200 C 102.100 361.050 101.950 361.200 102.100 361.200 H 105.800 C 105.950 361.200 105.800 361.050 105.800 361.200 V 365.050 Z" stroke="rgb(0,0,255)" stroke-width="0.30" />
  <path d="M 105.800 349.050 V 352.900 C 105.800 353.050 105.950 352.900 105.800 352.900 H 102.100 C 101.950 352.900 102.100 353.050 102.100 352.900 V 345.200 C 102.100 345.050 101.950 345.200 102.100 345.200 H 105.800 C 105.950 345.200 105.800 345.050 105.800 345.200 V 349.050 Z" stroke="rgb(0,0,255)" stroke-width="0.30" />
  <path d="M 105.800 333.050 V 336.900 C 105.800 337.050 105.950 336.900 105.800 336.900 H 102.100 C 101.950 336.900 102.100 337.050 102.100 336.900 V 329.200 C 102.100 329.050 101.950 329.200 102.100 329.200 H 105.800 C 105.950 329.200 105.800 329.050 105.800 329.200 V 333.050 Z" stroke="rgb(0,0,255)" stroke-width="0.30" />
  <path d="M 105.800 317.050 V 320.900 C 105.800 321.050 105.950 320.900 105.800 320.900 H 102.100 C 101.950 320.900 102.100 321.050 102.100 320.900 V 313.200 C 102.100 313.050 101.950 313.200 102.100 313.200 H 105.800 C 105.950 313.200 105.800 313.050 105.800 313.200 V 317.050 Z" stroke="rgb(0,0,255)" stroke-width="0.30" />
  <path d="M 105.800 301.050 V 304.900 C 105.800 305.050 105.950 304.900 105.800 304.900 H 102.100 C 101.950 304.900 102.100 305.050 102.100 304.900 V 297.200 C 102.100 297.050 101.950 297.200 102.100 297.200 H 105.800 C 105.950 297.200 105.800 297.050 105.800 297.200 V 301.050 Z" stroke="rgb(0,0,255)" stroke-width="0.30" />
  <path d="M 105.800 285.050 V 288.900 C 105.800 289.050 105.950 288.900 105.800 288.900 H 102.100 C 101.950 288.900 102.100 289.050 102.100 288.900 V 281.200 C 102.100 281.050 101.950 281.200 102.100 281.200 H 105.800 C 105.950 281.200 105.800 281.050 105.800 281.200 V 285.050 Z" stroke="rgb(0,0,255)" stroke-width="0.30" />
  <path d="M 87.950 375.900 H 84.100 C 83.950 375.900 84.100 376.050 84.100 375.900 V 372.200 C 84.100 372.050 83.950 372.200 84.100 372.200 H 91.800 C 91.950 372.200 91.800 372.050 91.800 372.200 V 375.900 C 91.800 376.050 91.950 375.900 91.800 375.900 H 87.950 Z" stroke="rgb(0,0,255)" stroke-width="0.30" />
  <path d="M 103.950 375.900 H 100.100 C 99.950 375.900 100.100 376.050 100.100 375.900 V 372.200 C 100.100 372.050 99.950 372.200 100.100 372.200 H 107.800 C 107.950 372.200 107.800 372.050 107.800 372.200 V 375.900 C 107.800 376.050 107.950 375.900 107.800 375.900 H 103.950 Z" stroke="rgb(0,0,255)" stroke-width="0.30" />
  <path d="M 119.950 375.900 H 116.100 C 115.950 375.900 116.100 376.050 116.100 375.900 V 372.200 C 116.100 372.050 115.950 372.200 116.100 372.200 H 123.800 C 123.950 372.200 123.800 372.050 123.800 372.200 V 375.900 C 123.800 376.050 123.950 375.900 123.800 375.900 H 119.950 Z" stroke="rgb(0,0,255)" stroke-width="0.30" />
  <path d="M 77.450 380.200 H 130.450 C 130.533 380.200 130.600 380.133 130.600 380.050 V 373.200 C 130.600 373.050 130.450 373.200 130.600 373.200 H 134.450 C 134.533 373.200 134.600 373.133 134.600 373.050 V 365.050 C 134.600 364.967 134.533 364.900 134.450 364.900 H 130.600 C 130.450 364.900 130.600 365.050 130.600 364.900 V 357.200 C 130.600 357.050 130.450 357.200 130.600 357.200 H 134.450 C 134.533 357.200 134.600 357.133 134.600 357.050 V 349.050 C 134.600 348.967 134.533 348.900 134.450 348.900 H 130.600 C 130.450 348.900 130.600 349.050 130.600 348.900 V 341.200 C 130.600 341.050 130.450 341.200 130.600 341.200 H 134.450 C 134.533 341.200 134.600 341.133 134.600 341.050 V 333.050 C 134.600 332.967 134.533 332.900 134.450 332.900 H 130.600 C 130.450 332.900 130.600 333.050 130.600 332.900 V 325.200 C 130.600 325.050 130.450 325.200 130.600 325.200 H 134.450 C 134.533 325.200 134.600 325.133 134.600 325.050 V 317.050 C 134.600 316.967 134.533 316.900 134.450 316.900 H 130.600 C 130.450 316.900 130.600 317.050 130.600 316.900 V 309.200 C 130.600 309.050 130.450 309.200 130.600 309.200 H 134.450 C 134.533 309.200 134.600 309.133 134.600 309.050 V 301.050 C 134.600 300.967 134.533 300.900 134.450 300.900 H 130.600 C 130.450 300.900 130.600 301.050 130.600 300.900 V 293.200 C 130.600 293.050 130.450 293.200 130.600 293.200 H 134.450 C 134.533 293.200 134.600 293.133 134.600 293.050 V 285.050 C 134.600 284.967 134.533 284.900 134.450 284.900 H 130.600 C 130.450 284.900 130.600 285.050 130.600 284.900 V 278.050 C 130.600 277.967 130.533 277.900 130.450 277.900 H 77.450 C 77.367 277.900 77.300 277.967 77.300 278.050 V 284.900 C 77.300 285.050 77.450 284.900 77.300 284.900 H 73.450 C 73.367 284.900 73.300 284.967 73.300 285.050 V 293.050 C 73.300 293.133 73.367 293.200 73.450 293.200 H 77.300 C 77.450 293.200 77.300 293.050 77.300 293.200 V 300.900 C 77.300 301.050 77.450 300.900 77.300 300.900 H 73.450 C 73.367 300.900 73.300 300.967 73.300 301.050 V 309.050 C 73.300 309.133 73.367 309.200 73.450 309.200 H 77.300 C 77.450 309.200 77.300 309.050 77.300 309.200 V 316.900 C 77.300 317.050 77.450 316.900 77.300 316.900 H 73.450 C 73.367 316.900 73.300 316.967 73.300 317.050 V 325.050 C 73.300 325.133 73.367 325.200 73.450 325.200 H 77.300 C 77.450 325.200 77.300 325.050 77.300 325.200 V 332.900 C 77.300 333.050 77.450 332.900 77.300 332.900 H 73.450 C 73.367 332.900 73.300 332.967 73.300 333.050 V 341.050 C 73.300 341.133 73.367 341.200 73.450 341.200 H 77.300 C 77.450 341.200 77.300 341.050 77.300 341.200 V 348.900 C 77.300 349.050 77.450 348.900 77.300 348.900 H 73.450 C 73.367 348.900 73.300 348.967 73.300 349.050 V 357.050 C 73.300 357.133 73.367 357.200 73.450 357.200 H 77.300 C 77.450 357.200 77.300 357.050 77.300 357.200 V 364.900 C 77.300 365.050 77.450 364.900 77.300 364.900 H 73.450 C 73.367 364.900 73.300 364.967 73.300 365.050 V 373.050 C 73.300 373.133 73.367 373.200 73.450 373.200 H 77.300 C 77.450 373.200 77.300 373.050 77.300 373.200 V 380.050 C 77.300 380.133 77.367 380.200 77.450 380.200 Z" stroke="rgb(0,0,0)" stroke-width="0.30" />
</g>
<g id="p-5" style="fill:none;stroke-linecap:round;stroke-linejoin:round;">
  <path d="M 102.100 260.750 V 264.600 C 102.100 264.750 101.950 264.600 102.100 264.600 H 105.800 C 105.950 264.600 105.800 264.750 105.800 264.600 V 256.900 C 105.800 256.750 105.950 256.900 105.800 256.900 H 102.100 C 101.950 256.900 102.100 256.750 102.100 256.900 V 260.750 Z" stroke="rgb(0,0,255)" stroke-width="0.30" />
  <path d="M 102.100 244.750 V 248.600 C 102.100 248.750 101.950 248.600 102.100 248.600 H 105.800 C 105.950 248.600 105.800 248.750 105.800 248.600 V 240.900 C 105.800 240.750 105.950 240.900 105.800 240.900 H 102.100 C 101.950 240.900 102.100 240.750 102.100 240.900 V 244.750 Z" stroke="rgb(0,0,255)" stroke-width="0.30" />
  <path d="M 102.100 228.750 V 232.600 C 102.100 232.750 101.950 232.600 102.100 232.600 H 105.800 C 105.950 232.600 105.800 232.750 105.800 232.600 V 224.900 C 105.800 224.750 105.950 224.900 105.800 224.900 H 102.100 C 101.950 224.900 102.100 224.750 102.100 224.900 V 228.750 Z" stroke="rgb(0,0,255)" stroke-width="0.30" />
  <path d="M 102.100 212.750 V 216.600 C 102.100 216.750 101.950 216.600 102.100 216.600 H 105.800 C 105.950 216.600 105.800 216.750 105.800 216.600 V 208.900 C 105.800 208.750 105.950 208.900 105.800 208.900 H 102.100 C 101.950 208.900 102.100 208.750 102.100 208.900 V 212.750 Z" stroke="rgb(0,0,255)" stroke-width="0.30" />
  <path d="M 102.100 196.750 V 200.600 C 102.100 200.750 101.950 200.600 102.100 200.600 H 105.800 C 105.950 200.600 105.800 200.750 105.800 200.600 V 192.900 C 105.800 192.750 105.950 192.900 105.800 192.900 H 102.100 C 101.950 192.900 102.100 192.750 102.100 192.900 V 196.750 Z" stroke="rgb(0,0,255)" stroke-width="0.30" />
  <path d="M 102.100 180.750 V 184.600 C 102.100 184.750 101.950 184.600 102.100 184.600 H 105.800 C 105.950 184.600 105.800 184.750 105.800 184.600 V 176.900 C 105.800 176.750 105.950 176.900 105.800 176.900 H 102.100 C 101.950 176.900 102.100 176.750 102.100 176.900 V 180.750 Z" stroke="rgb(0,0,255)" stroke-width="0.30" />
  <path d="M 87.950 271.600 H 84.100 C 83.950 271.600 84.100 271.750 84.100 271.600 V 267.900 C 84.100 267.750 83.950 267.900 84.100 267.900 H 91.800 C 91.950 267.900 91.800 267.750 91.800 267.900 V 271.600 C 91.800 271.750 91.950 271.600 91.800 271.600 H 87.950 Z" stroke="rgb(0,0,255)" stroke-width="0.30" />
  <path d="M 103.950 271.600 H 100.100 C 99.950 271.600 100.100 271.750 100.100 271.600 V 267.900 C 100.100 267.750 99.950 267.900 100.100 267.900 H 107.800 C 107.950 267.900 107.800 267.750 107.800 267.900 V 271.600 C 107.800 271.750 107.950 271.600 107.800 271.600 H 103.950 Z" stroke="rgb(0,0,255)" stroke-width="0.30" />
  <path d="M 119.950 271.600 H 116.100 C 115.950 271.600 116.100 271.750 116.100 271.600 V 267.900 C 116.100 267.750 115.950 267.900 116.100 267.900 H 123.800 C 123.950 267.900 123.800 267.750 123.800 267.900 V 271.600 C 123.800 271.750 123.950 271.600 123.800 271.600 H 119.950 Z" stroke="rgb(0,0,255)" stroke-width="0.30" />
  <path d="M 77.450 275.900 H 130.450 C 130.533 275.900 130.600 275.833 130.600 275.750 V 268.900 C 130.600 268.750 130.450 268.900 130.600 268.900 H 134.450 C 134.533 268.900 134.600 268.833 134.600 268.750 V 260.750 C 134.600 260.667 134.533 260.600 134.450 260.600 H 130.600 C 130.450 260.600 130.600 260.750 130.600 260.600 V 252.900 C 130.600 252.750 130.450 252.900 130.600 252.900 H 134.450 C 134.533 252.900 134.600 252.833 134.600 252.750 V 244.750 C 134.600 244.667 134.533 244.600 134.450 244.600 H 130.600 C 130.450 244.600 130.600 244.750 130.600 244.600 V 236.900 C 130.600 236.750 130.450 236.900 130.600 236.900 H 134.450 C 134.533 236.900 134.600 236.833 134.600 236.750 V 228.750 C 134.600 228.667 134.533 228.600 134.450 228.600 H 130.600 C 130.450 228.600 130.600 228.750 130.600 228.600 V 220.900 C 130.600 220.750 130.450 220.900 130.600 220.900 H 134.450 C 134.533 220.900 134.600 220.833 134.600 220.750 V 212.750 C 134.600 212.667 134.533 212.600 134.450 212.600 H 130.600 C 130.450 212.600 130.600 212.750 130.600 212.600 V 204.900 C 130.600 204.750 130.450 204.900 130.600 204.900 H 134.450 C 134.533 204.900 134.600 204.833 134.600 204.750 V 196.750 C 134.600 196.667 134.533 196.600 134.450 196.600 H 130.600 C 130.450 196.600 130.600 196.750 130.600 196.600 V 188.900 C 130.600 188.750 130.450 188.900 130.600 188.900 H 134.450 C 134.533 188.900 134.600 188.833 134.600 188.750 V 180.750 C 134.600 180.667 134.533 180.600 134.450 180.600 H 130.600 C 130.450 180.600 130.600 180.750 130.600 180.600 V 173.750 C 130.600 173.667 130.533 173.600 130.450 173.600 H 77.450 C 77.367 173.600 77.300 173.667 77.300 173.750 V 180.600 C 77.300 180.750 77.450 180.600 77.300 180.600 H 73.450 C 73.367 180.600 73.300 180.667 73.300 180.750 V 188.750 C 73.300 188.833 73.367 188.900 73.450 188.900 H 77.300 C 77.450 188.900 77.300 188.750 77.300 188.900 V 196.600 C 77.300 196.750 77.450 196.600 77.300 196.600 H 73.450 C 73.367 196.600 73.300 196.667 73.300 196.750 V 204.750 C 73.300 204.833 73.367 204.900 73.450 204.900 H 77.300 C 77.450 204.900 77.300 204.750 77.300 204.900 V 212.600 C 77.300 212.750 77.450 212.600 77.300 212.600 H 73.450 C 73.367 212.600 73.300 212.667 73.300 212.750 V 220.750 C 73.300 220.833 73.367 220.900 73.450 220.900 H 77.300 C 77.450 220.900 77.300 220.750 77.300 220.900 V 228.600 C 77.300 228.750 77.450 228.600 77.300 228.600 H 73.450 C 73.367 228.600 73.300 228.667 73.300 228.750 V 236.750 C 73.300 236.833 73.367 236.900 73.450 236.900 H 77.300 C 77.450 236.900 77.300 236.750 77.300 236.900 V 244.600 C 77.300 244.750 77.450 244.600 77.300 244.600 H 73.450 C 73.367 244.600 73.300 244.667 73.300 244.750 V 252.750 C 73.300 252.833 73.367 252.900 73.450 252.900 H 77.300 C 77.450 252.900 77.300 252.750 77.300 252.900 V 260.600 C 77.300 260.750 77.450 260.600 77.300 260.600 H 73.450 C 73.367 260.600 73.300 260.667 73.300 260.750 V 268.750 C 73.300 268.833 73.367 268.900 73.450 268.900 H 77.300 C 77.450 268.900 77.300 268.750 77.300 268.900 V 275.750 C 77.300 275.833 77.367 275.900 77.450 275.900 Z" stroke="rgb(0,0,0)" stroke-width="0.30" />
</g>
<g id="p-6" style="fill:none;stroke-linecap:round;stroke-linejoin:round;">
  <path d="M 77.450 167.600 H 85.550 C 85.700 167.600 85.550 167.450 85.550 167.600 V 171.450 C 85.550 171.533 85.617 171.600 85.700 171.600 H 93.700 C 93.783 171.600 93.850 171.533 93.850 171.450 V 167.600 C 93.850 167.450 93.700 167.600 93.850 167.600 H 101.950 C 102.033 167.600 102.100 167.533 102.100 167.450 V 120.600 C 102.100 120.450 101.950 120.600 102.100 120.600 H 105.800 C 105.950 120.600 105.800 120.450 105.800 120.600 V 167.450 C 105.800 167.533 105.867 167.600 105.950 167.600 H 114.050 C 114.200 167.600 114.050 167.450 114.050 167.600 V 171.450 C 114.050 171.533 114.117 171.600 114.200 171.600 H 122.200 C 122.283 171.600 122.350 171.533 122.350 171.450 V 167.600 C 122.350 167.450 122.200 167.600 122.350 167.600 H 130.450 C 130.533 167.600 130.600 167.533 130.600 167.450 V 164.600 C 130.600 164.450 130.450 164.600 130.600 164.600 H 134.450 C 134.533 164.600 134.600 164.533 134.600 164.450 V 156.450 C 134.600 156.367 134.533 156.300 134.450 156.300 H 130.600 C 130.450 156.300 130.600 156.450 130.600 156.300 V 148.600 C 130.600 148.450 130.450 148.600 130.600 148.600 H 134.450 C 134.533 148.600 134.600 148.533 134.600 148.450 V 140.450 C 134.600 140.367 134.533 140.300 134.450 140.300 H 130.600 C 130.450 140.300 130.600 140.450 130.600 140.300 V 132.600 C 130.600 132.450 130.450 132.600 130.600 132.600 H 134.450 C 134.533 132.600 134.600 132.533 134.600 132.450 V 124.450 C 134.600 124.367 134.533 124.300 134.450 124.300 H 130.600 C 130.450 124.300 130.600 124.450 130.600 124.300 V 116.600 C 130.600 116.450 130.450 116.600 130.600 116.600 H 134.450 C 134.533 116.600 134.600 116.533 134.600 116.450 V 108.450 C 134.600 108.367 134.533 108.300 134.450 108.300 H 130.600 C 130.450 108.300 130.600 108.450 130.600 108.300 V 100.600 C 130.600 100.450 130.450 100.600 130.600 100.600 H 134.450 C 134.533 100.600 134.600 100.533 134.600 100.450 V 92.450 C 134.600 92.367 134.533 92.300 134.450 92.300 H 130.600 C 130.450 92.300 130.600 92.450 130.600 92.300 V 84.600 C 130.600 84.450 130.450 84.600 130.600 84.600 H 134.450 C 134.533 84.600 134.600 84.533 134.600 84.450 V 76.450 C 134.600 76.367 134.533 76.300 134.450 76.300 H 130.600 C 130.450 76.300 130.600 76.450 130.600 76.300 V 73.450 C 130.600 73.367 130.533 73.300 130.450 73.300 H 77.450 C 77.367 73.300 77.300 73.367 77.300 73.450 V 76.300 C 77.300 76.450 77.450 76.300 77.300 76.300 H 73.450 C 73.367 76.300 73.300 76.367 73.300 76.450 V 84.450 C 73.300 84.533 73.367 84.600 73.450 84.600 H 77.300 C 77.450 84.600 77.300 84.450 77.300 84.600 V 92.300 C 77.300 92.450 77.450 92.300 77.300 92.300 H 73.450 C 73.367 92.300 73.300 92.367 73.300 92.450 V 100.450 C 73.300 100.533 73.367 100.600 73.450 100.600 H 77.300 C 77.450 100.600 77.300 100.450 77.300 100.600 V 108.300 C 77.300 108.450 77.450 108.300 77.300 108.300 H 73.450 C 73.367 108.300 73.300 108.367 73.300 108.450 V 116.450 C 73.300 116.533 73.367 116.600 73.450 116.600 H 77.300 C 77.450 116.600 77.300 116.450 77.300 116.600 V 124.300 C 77.300 124.450 77.450 124.300 77.300 124.300 H 73.450 C 73.367 124.300 73.300 124.367 73.300 124.450 V 132.450 C 73.300 132.533 73.367 132.600 73.450 132.600 H 77.300 C 77.450 132.600 77.300 132.450 77.300 132.600 V 140.300 C 77.300 140.450 77.450 140.300 77.300 140.300 H 73.450 C 73.367 140.300 73.300 140.367 73.300 140.450 V 148.450 C 73.300 148.533 73.367 148.600 73.450 148.600 H 77.300 C 77.450 148.600 77.300 148.450 77.300 148.600 V 156.300 C 77.300 156.450 77.450 156.300 77.300 156.300 H 73.450 C 73.367 156.300 73.300 156.367 73.300 156.450 V 164.450 C 73.300 164.533 73.367 164.600 73.450 164.600 H 77.300 C 77.450 164.600 77.300 164.450 77.300 164.600 V 167.450 C 77.300 167.533 77.367 167.600 77.450 167.600 Z" stroke="rgb(0,0,0)" stroke-width="0.30" />
</g>
</svg>