<?xml version="1.0" encoding="UTF-8" standalone="no"?>
<svg
   xmlns:dc="http://purl.org/dc/elements/1.1/"
   xmlns:cc="http://creativecommons.org/ns#"
   xmlns:rdf="http://www.w3.org/1999/02/22-rdf-syntax-ns#"
   xmlns:svg="http://www.w3.org/2000/svg"
   xmlns="http://www.w3.org/2000/svg"
   xmlns:sodipodi="http://sodipodi.sourceforge.net/DTD/sodipodi-0.dtd"
   xmlns:inkscape="http://www.inkscape.org/namespaces/inkscape"
   height="469.50mm"
   viewBox="0.0 0.0 314.60 469.50"
   width="314.60mm"
   version="1.1"
   id="svg168"
   sodipodi:docname="TypeTray.svg"
   inkscape:version="0.92.5 (2060ec1f9f, 2020-04-08)">
  <defs
     id="defs172" />
  <sodipodi:namedview
     pagecolor="#ffffff"
     bordercolor="#666666"
     borderopacity="1"
     objecttolerance="10"
     gridtolerance="10"
     guidetolerance="10"
     inkscape:pageopacity="0"
     inkscape:pageshadow="2"
     inkscape:window-width="2416"
     inkscape:window-height="1472"
     id="namedview170"
     showgrid="false"
     inkscape:zoom="1.0639688"
     inkscape:cx="502.16653"
     inkscape:cy="672.90102"
     inkscape:window-x="144"
     inkscape:window-y="54"
     inkscape:window-maximized="1"
     inkscape:current-layer="svg168" />
  <!--
TypeTray - Type tray - allows only continuous walls

Created with Boxes.py (https://festi.info/boxes.py)
Creation date: 2021-02-15 09:58:51
Command line (remove spaces between dashes): boxes TypeTray - -FingerJoint_angle=90.0 - -FingerJoint_style=rectangular - -FingerJoint_surroundingspaces=0.5 - -FingerJoint_edge_width=1.0 - -FingerJoint_finger=2.0 - -FingerJoint_play=0.0 - -FingerJoint_space=2.0 - -FingerJoint_width=1.0 - -Stackable_angle=60 - -Stackable_height=2.0 - -Stackable_holedistance=1.0 - -Stackable_width=4.0 - -Hinge_grip_percentage=0 - -Hinge_outset=0 - -Hinge_pinwidth=0.5 - -Hinge_style=outset - -Hinge_axle=2 - -Hinge_grip_length=0 - -Hinge_hingestrength=1 - -CabinetHinge_bore=3.2 - -CabinetHinge_eyes_per_hinge=5 - -CabinetHinge_hinges=2 - -CabinetHinge_style=inside - -CabinetHinge_eye=1.5 - -CabinetHinge_play=0.05 - -CabinetHinge_spacing=2.0 - -Lid_angle=90.0 - -Lid_second_pin=0 - -Lid_second_pin=1 - -Lid_spring=both - -Lid_style=rectangular - -Lid_surroundingspaces=2.0 - -Lid_edge_width=1.0 - -Lid_finger=3.0 - -Lid_play=0.05 - -Lid_space=2.0 - -Lid_width=1.0 - -Click_angle=5.0 - -Click_bottom_radius=0.1 - -Click_depth=3.0 - -RoundedTriangleEdge_height=150.0 - -RoundedTriangleEdge_r_hole=2.0 - -RoundedTriangleEdge_radius=30.0 - -RoundedTriangleEdge_outset=1 '- -sx=73*2' '- -sy=73*2' - -h=92 - -hi=0.0 - -outside=0 - -outside=1 - -bottom_edge=h - -top_edge=e - -gripheight=0 - -gripwidth=0 - -thickness=4 - -format=svg - -tabs=0.0 - -debug=0 - -reference=100 - -burn=0.15
Url: http://www.festi.info/TypeTray?FingerJoint_angle=90.0&FingerJoint_style=rectangular&FingerJoint_surroundingspaces=0.5&FingerJoint_edge_width=1.0&FingerJoint_finger=2.0&FingerJoint_play=0.0&FingerJoint_space=2.0&FingerJoint_width=1.0&Stackable_angle=60&Stackable_height=2.0&Stackable_holedistance=1.0&Stackable_width=4.0&Hinge_grip_percentage=0&Hinge_outset=0&Hinge_pinwidth=0.5&Hinge_style=outset&Hinge_axle=2&Hinge_grip_length=0&Hinge_hingestrength=1&CabinetHinge_bore=3.2&CabinetHinge_eyes_per_hinge=5&CabinetHinge_hinges=2&CabinetHinge_style=inside&CabinetHinge_eye=1.5&CabinetHinge_play=0.05&CabinetHinge_spacing=2.0&Lid_angle=90.0&Lid_second_pin=0&Lid_second_pin=1&Lid_spring=both&Lid_style=rectangular&Lid_surroundingspaces=2.0&Lid_edge_width=1.0&Lid_finger=3.0&Lid_play=0.05&Lid_space=2.0&Lid_width=1.0&Click_angle=5.0&Click_bottom_radius=0.1&Click_depth=3.0&RoundedTriangleEdge_height=150.0&RoundedTriangleEdge_r_hole=2.0&RoundedTriangleEdge_radius=30.0&RoundedTriangleEdge_outset=1&sx=73*2&sy=73*2&h=92&hi=0.0&outside=0&outside=1&bottom_edge=h&top_edge=e&gripheight=0&gripwidth=0&thickness=4&format=svg&tabs=0.0&debug=0&reference=100&burn=0.15&render=1
SettingsUrl: http://www.festi.info/TypeTray?FingerJoint_angle=90.0&FingerJoint_style=rectangular&FingerJoint_surroundingspaces=0.5&FingerJoint_edge_width=1.0&FingerJoint_finger=2.0&FingerJoint_play=0.0&FingerJoint_space=2.0&FingerJoint_width=1.0&Stackable_angle=60&Stackable_height=2.0&Stackable_holedistance=1.0&Stackable_width=4.0&Hinge_grip_percentage=0&Hinge_outset=0&Hinge_pinwidth=0.5&Hinge_style=outset&Hinge_axle=2&Hinge_grip_length=0&Hinge_hingestrength=1&CabinetHinge_bore=3.2&CabinetHinge_eyes_per_hinge=5&CabinetHinge_hinges=2&CabinetHinge_style=inside&CabinetHinge_eye=1.5&CabinetHinge_play=0.05&CabinetHinge_spacing=2.0&Lid_angle=90.0&Lid_second_pin=0&Lid_second_pin=1&Lid_spring=both&Lid_style=rectangular&Lid_surroundingspaces=2.0&Lid_edge_width=1.0&Lid_finger=3.0&Lid_play=0.05&Lid_space=2.0&Lid_width=1.0&Click_angle=5.0&Click_bottom_radius=0.1&Click_depth=3.0&RoundedTriangleEdge_height=150.0&RoundedTriangleEdge_r_hole=2.0&RoundedTriangleEdge_radius=30.0&RoundedTriangleEdge_outset=1&sx=73*2&sy=73*2&h=92&hi=0.0&outside=0&outside=1&bottom_edge=h&top_edge=e&gripheight=0&gripwidth=0&thickness=4&format=svg&tabs=0.0&debug=0&reference=100&burn=0.15
-->
  <title
     id="title2">TypeTray</title>
  <metadata
     id="metadata4">
    <rdf:RDF>
      <cc:Work>
        <dc:title>Tray - TypeTray</dc:title>
        <dc:date>2021-02-15 09:58:51</dc:date>
        <dc:source>http://www.festi.info/TypeTray?FingerJoint_angle=90.0&amp;FingerJoint_style=rectangular&amp;FingerJoint_surroundingspaces=0.5&amp;FingerJoint_edge_width=1.0&amp;FingerJoint_finger=2.0&amp;FingerJoint_play=0.0&amp;FingerJoint_space=2.0&amp;FingerJoint_width=1.0&amp;Stackable_angle=60&amp;Stackable_height=2.0&amp;Stackable_holedistance=1.0&amp;Stackable_width=4.0&amp;Hinge_grip_percentage=0&amp;Hinge_outset=0&amp;Hinge_pinwidth=0.5&amp;Hinge_style=outset&amp;Hinge_axle=2&amp;Hinge_grip_length=0&amp;Hinge_hingestrength=1&amp;CabinetHinge_bore=3.2&amp;CabinetHinge_eyes_per_hinge=5&amp;CabinetHinge_hinges=2&amp;CabinetHinge_style=inside&amp;CabinetHinge_eye=1.5&amp;CabinetHinge_play=0.05&amp;CabinetHinge_spacing=2.0&amp;Lid_angle=90.0&amp;Lid_second_pin=0&amp;Lid_second_pin=1&amp;Lid_spring=both&amp;Lid_style=rectangular&amp;Lid_surroundingspaces=2.0&amp;Lid_edge_width=1.0&amp;Lid_finger=3.0&amp;Lid_play=0.05&amp;Lid_space=2.0&amp;Lid_width=1.0&amp;Click_angle=5.0&amp;Click_bottom_radius=0.1&amp;Click_depth=3.0&amp;RoundedTriangleEdge_height=150.0&amp;RoundedTriangleEdge_r_hole=2.0&amp;RoundedTriangleEdge_radius=30.0&amp;RoundedTriangleEdge_outset=1&amp;sx=73*2&amp;sy=73*2&amp;h=92&amp;hi=0.0&amp;outside=0&amp;outside=1&amp;bottom_edge=h&amp;top_edge=e&amp;gripheight=0&amp;gripwidth=0&amp;thickness=4&amp;format=svg&amp;tabs=0.0&amp;debug=0&amp;reference=100&amp;burn=0.15&amp;render=1</dc:source>
        <dc:description>Type tray - allows only continuous walls

Created with Boxes.py (https://festi.info/boxes.py)
Command line: boxes TypeTray --FingerJoint_angle=90.0 --FingerJoint_style=rectangular --FingerJoint_surroundingspaces=0.5 --FingerJoint_edge_width=1.0 --FingerJoint_finger=2.0 --FingerJoint_play=0.0 --FingerJoint_space=2.0 --FingerJoint_width=1.0 --Stackable_angle=60 --Stackable_height=2.0 --Stackable_holedistance=1.0 --Stackable_width=4.0 --Hinge_grip_percentage=0 --Hinge_outset=0 --Hinge_pinwidth=0.5 --Hinge_style=outset --Hinge_axle=2 --Hinge_grip_length=0 --Hinge_hingestrength=1 --CabinetHinge_bore=3.2 --CabinetHinge_eyes_per_hinge=5 --CabinetHinge_hinges=2 --CabinetHinge_style=inside --CabinetHinge_eye=1.5 --CabinetHinge_play=0.05 --CabinetHinge_spacing=2.0 --Lid_angle=90.0 --Lid_second_pin=0 --Lid_second_pin=1 --Lid_spring=both --Lid_style=rectangular --Lid_surroundingspaces=2.0 --Lid_edge_width=1.0 --Lid_finger=3.0 --Lid_play=0.05 --Lid_space=2.0 --Lid_width=1.0 --Click_angle=5.0 --Click_bottom_radius=0.1 --Click_depth=3.0 --RoundedTriangleEdge_height=150.0 --RoundedTriangleEdge_r_hole=2.0 --RoundedTriangleEdge_radius=30.0 --RoundedTriangleEdge_outset=1 '--sx=73*2' '--sy=73*2' --h=92 --hi=0.0 --outside=0 --outside=1 --bottom_edge=h --top_edge=e --gripheight=0 --gripwidth=0 --thickness=4 --format=svg --tabs=0.0 --debug=0 --reference=100 --burn=0.15
Url: http://www.festi.info/TypeTray?FingerJoint_angle=90.0&amp;FingerJoint_style=rectangular&amp;FingerJoint_surroundingspaces=0.5&amp;FingerJoint_edge_width=1.0&amp;FingerJoint_finger=2.0&amp;FingerJoint_play=0.0&amp;FingerJoint_space=2.0&amp;FingerJoint_width=1.0&amp;Stackable_angle=60&amp;Stackable_height=2.0&amp;Stackable_holedistance=1.0&amp;Stackable_width=4.0&amp;Hinge_grip_percentage=0&amp;Hinge_outset=0&amp;Hinge_pinwidth=0.5&amp;Hinge_style=outset&amp;Hinge_axle=2&amp;Hinge_grip_length=0&amp;Hinge_hingestrength=1&amp;CabinetHinge_bore=3.2&amp;CabinetHinge_eyes_per_hinge=5&amp;CabinetHinge_hinges=2&amp;CabinetHinge_style=inside&amp;CabinetHinge_eye=1.5&amp;CabinetHinge_play=0.05&amp;CabinetHinge_spacing=2.0&amp;Lid_angle=90.0&amp;Lid_second_pin=0&amp;Lid_second_pin=1&amp;Lid_spring=both&amp;Lid_style=rectangular&amp;Lid_surroundingspaces=2.0&amp;Lid_edge_width=1.0&amp;Lid_finger=3.0&amp;Lid_play=0.05&amp;Lid_space=2.0&amp;Lid_width=1.0&amp;Click_angle=5.0&amp;Click_bottom_radius=0.1&amp;Click_depth=3.0&amp;RoundedTriangleEdge_height=150.0&amp;RoundedTriangleEdge_r_hole=2.0&amp;RoundedTriangleEdge_radius=30.0&amp;RoundedTriangleEdge_outset=1&amp;sx=73*2&amp;sy=73*2&amp;h=92&amp;hi=0.0&amp;outside=0&amp;outside=1&amp;bottom_edge=h&amp;top_edge=e&amp;gripheight=0&amp;gripwidth=0&amp;thickness=4&amp;format=svg&amp;tabs=0.0&amp;debug=0&amp;reference=100&amp;burn=0.15&amp;render=1
SettingsUrl: http://www.festi.info/TypeTray?FingerJoint_angle=90.0&amp;FingerJoint_style=rectangular&amp;FingerJoint_surroundingspaces=0.5&amp;FingerJoint_edge_width=1.0&amp;FingerJoint_finger=2.0&amp;FingerJoint_play=0.0&amp;FingerJoint_space=2.0&amp;FingerJoint_width=1.0&amp;Stackable_angle=60&amp;Stackable_height=2.0&amp;Stackable_holedistance=1.0&amp;Stackable_width=4.0&amp;Hinge_grip_percentage=0&amp;Hinge_outset=0&amp;Hinge_pinwidth=0.5&amp;Hinge_style=outset&amp;Hinge_axle=2&amp;Hinge_grip_length=0&amp;Hinge_hingestrength=1&amp;CabinetHinge_bore=3.2&amp;CabinetHinge_eyes_per_hinge=5&amp;CabinetHinge_hinges=2&amp;CabinetHinge_style=inside&amp;CabinetHinge_eye=1.5&amp;CabinetHinge_play=0.05&amp;CabinetHinge_spacing=2.0&amp;Lid_angle=90.0&amp;Lid_second_pin=0&amp;Lid_second_pin=1&amp;Lid_spring=both&amp;Lid_style=rectangular&amp;Lid_surroundingspaces=2.0&amp;Lid_edge_width=1.0&amp;Lid_finger=3.0&amp;Lid_play=0.05&amp;Lid_space=2.0&amp;Lid_width=1.0&amp;Click_angle=5.0&amp;Click_bottom_radius=0.1&amp;Click_depth=3.0&amp;RoundedTriangleEdge_height=150.0&amp;RoundedTriangleEdge_r_hole=2.0&amp;RoundedTriangleEdge_radius=30.0&amp;RoundedTriangleEdge_outset=1&amp;sx=73*2&amp;sy=73*2&amp;h=92&amp;hi=0.0&amp;outside=0&amp;outside=1&amp;bottom_edge=h&amp;top_edge=e&amp;gripheight=0&amp;gripwidth=0&amp;thickness=4&amp;format=svg&amp;tabs=0.0&amp;debug=0&amp;reference=100&amp;burn=0.15
</dc:description>
        <dc:format>image/svg+xml</dc:format>
        <dc:type
           rdf:resource="http://purl.org/dc/dcmitype/StillImage" />
      </cc:Work>
    </rdf:RDF>
  </metadata>
  <g
     id="p-1"
     style="fill:none;stroke-linecap:round;stroke-linejoin:round;">
    <path
       d="M 85.000 427.050 V 430.900 C 85.000 431.050 85.150 430.900 85.000 430.900 H 81.300 C 81.150 430.900 81.300 431.050 81.300 430.900 V 423.200 C 81.300 423.050 81.150 423.200 81.300 423.200 H 85.000 C 85.150 423.200 85.000 423.050 85.000 423.200 V 427.050 Z"
       stroke="rgb(0,0,255)"
       stroke-width="0.30"
       id="path11" />
    <path
       d="M 85.000 411.050 V 414.900 C 85.000 415.050 85.150 414.900 85.000 414.900 H 81.300 C 81.150 414.900 81.300 415.050 81.300 414.900 V 407.200 C 81.300 407.050 81.150 407.200 81.300 407.200 H 85.000 C 85.150 407.200 85.000 407.050 85.000 407.200 V 411.050 Z"
       stroke="rgb(0,0,255)"
       stroke-width="0.30"
       id="path13" />
    <path
       d="M 85.000 395.050 V 398.900 C 85.000 399.050 85.150 398.900 85.000 398.900 H 81.300 C 81.150 398.900 81.300 399.050 81.300 398.900 V 391.200 C 81.300 391.050 81.150 391.200 81.300 391.200 H 85.000 C 85.150 391.200 85.000 391.050 85.000 391.200 V 395.050 Z"
       stroke="rgb(0,0,255)"
       stroke-width="0.30"
       id="path15" />
    <path
       d="M 85.000 379.050 V 382.900 C 85.000 383.050 85.150 382.900 85.000 382.900 H 81.300 C 81.150 382.900 81.300 383.050 81.300 382.900 V 375.200 C 81.300 375.050 81.150 375.200 81.300 375.200 H 85.000 C 85.150 375.200 85.000 375.050 85.000 375.200 V 379.050 Z"
       stroke="rgb(0,0,255)"
       stroke-width="0.30"
       id="path17" />
    <path
       d="M 85.000 363.050 V 366.900 C 85.000 367.050 85.150 366.900 85.000 366.900 H 81.300 C 81.150 366.900 81.300 367.050 81.300 366.900 V 359.200 C 81.300 359.050 81.150 359.200 81.300 359.200 H 85.000 C 85.150 359.200 85.000 359.050 85.000 359.200 V 363.050 Z"
       stroke="rgb(0,0,255)"
       stroke-width="0.30"
       id="path19" />
    <path
       d="M 27.150 442.900 H 23.300 C 23.150 442.900 23.300 443.050 23.300 442.900 V 439.200 C 23.300 439.050 23.150 439.200 23.300 439.200 H 31.000 C 31.150 439.200 31.000 439.050 31.000 439.200 V 442.900 C 31.000 443.050 31.150 442.900 31.000 442.900 H 27.150 Z"
       stroke="rgb(0,0,255)"
       stroke-width="0.30"
       id="path21" />
    <path
       d="M 43.150 442.900 H 39.300 C 39.150 442.900 39.300 443.050 39.300 442.900 V 439.200 C 39.300 439.050 39.150 439.200 39.300 439.200 H 47.000 C 47.150 439.200 47.000 439.050 47.000 439.200 V 442.900 C 47.000 443.050 47.150 442.900 47.000 442.900 H 43.150 Z"
       stroke="rgb(0,0,255)"
       stroke-width="0.30"
       id="path23" />
    <path
       d="M 59.150 442.900 H 55.300 C 55.150 442.900 55.300 443.050 55.300 442.900 V 439.200 C 55.300 439.050 55.150 439.200 55.300 439.200 H 63.000 C 63.150 439.200 63.000 439.050 63.000 439.200 V 442.900 C 63.000 443.050 63.150 442.900 63.000 442.900 H 59.150 Z"
       stroke="rgb(0,0,255)"
       stroke-width="0.30"
       id="path25" />
    <path
       d="M 75.150 442.900 H 71.300 C 71.150 442.900 71.300 443.050 71.300 442.900 V 439.200 C 71.300 439.050 71.150 439.200 71.300 439.200 H 79.000 C 79.150 439.200 79.000 439.050 79.000 439.200 V 442.900 C 79.000 443.050 79.150 442.900 79.000 442.900 H 75.150 Z"
       stroke="rgb(0,0,255)"
       stroke-width="0.30"
       id="path27" />
    <path
       d="M 91.150 442.900 H 87.300 C 87.150 442.900 87.300 443.050 87.300 442.900 V 439.200 C 87.300 439.050 87.150 439.200 87.300 439.200 H 95.000 C 95.150 439.200 95.000 439.050 95.000 439.200 V 442.900 C 95.000 443.050 95.150 442.900 95.000 442.900 H 91.150 Z"
       stroke="rgb(0,0,255)"
       stroke-width="0.30"
       id="path29" />
    <path
       d="M 107.150 442.900 H 103.300 C 103.150 442.900 103.300 443.050 103.300 442.900 V 439.200 C 103.300 439.050 103.150 439.200 103.300 439.200 H 111.000 C 111.150 439.200 111.000 439.050 111.000 439.200 V 442.900 C 111.000 443.050 111.150 442.900 111.000 442.900 H 107.150 Z"
       stroke="rgb(0,0,255)"
       stroke-width="0.30"
       id="path31" />
    <path
       d="M 123.150 442.900 H 119.300 C 119.150 442.900 119.300 443.050 119.300 442.900 V 439.200 C 119.300 439.050 119.150 439.200 119.300 439.200 H 127.000 C 127.150 439.200 127.000 439.050 127.000 439.200 V 442.900 C 127.000 443.050 127.150 442.900 127.000 442.900 H 123.150 Z"
       stroke="rgb(0,0,255)"
       stroke-width="0.30"
       id="path33" />
    <path
       d="M 139.150 442.900 H 135.300 C 135.150 442.900 135.300 443.050 135.300 442.900 V 439.200 C 135.300 439.050 135.150 439.200 135.300 439.200 H 143.000 C 143.150 439.200 143.000 439.050 143.000 439.200 V 442.900 C 143.000 443.050 143.150 442.900 143.000 442.900 H 139.150 Z"
       stroke="rgb(0,0,255)"
       stroke-width="0.30"
       id="path35" />
    <path
       d="M 14.150 447.200 H 152.150 H 156.150 C 156.233 447.200 156.300 447.133 156.300 447.050 V 443.050 C 156.300 442.967 156.233 442.900 156.150 442.900 H 152.300 C 152.150 442.900 152.300 443.050 152.300 442.900 V 435.200 C 152.300 435.050 152.150 435.200 152.300 435.200 H 156.150 C 156.233 435.200 156.300 435.133 156.300 435.050 V 427.050 C 156.300 426.967 156.233 426.900 156.150 426.900 H 152.300 C 152.150 426.900 152.300 427.050 152.300 426.900 V 419.200 C 152.300 419.050 152.150 419.200 152.300 419.200 H 156.150 C 156.233 419.200 156.300 419.133 156.300 419.050 V 411.050 C 156.300 410.967 156.233 410.900 156.150 410.900 H 152.300 C 152.150 410.900 152.300 411.050 152.300 410.900 V 403.200 C 152.300 403.050 152.150 403.200 152.300 403.200 H 156.150 C 156.233 403.200 156.300 403.133 156.300 403.050 V 395.050 C 156.300 394.967 156.233 394.900 156.150 394.900 H 152.300 C 152.150 394.900 152.300 395.050 152.300 394.900 V 387.200 C 152.300 387.050 152.150 387.200 152.300 387.200 H 156.150 C 156.233 387.200 156.300 387.133 156.300 387.050 V 379.050 C 156.300 378.967 156.233 378.900 156.150 378.900 H 152.300 C 152.150 378.900 152.300 379.050 152.300 378.900 V 371.200 C 152.300 371.050 152.150 371.200 152.300 371.200 H 156.150 C 156.233 371.200 156.300 371.133 156.300 371.050 V 363.050 C 156.300 362.967 156.233 362.900 156.150 362.900 H 152.300 C 152.150 362.900 152.300 363.050 152.300 362.900 V 355.200 C 152.300 355.050 152.150 355.200 152.300 355.200 H 156.150 C 156.233 355.200 156.300 355.133 156.300 355.050 V 351.050 C 156.300 350.967 156.233 350.900 156.150 350.900 H 152.150 H 14.150 H 10.150 C 10.067 350.900 10.000 350.967 10.000 351.050 V 355.050 C 10.000 355.133 10.067 355.200 10.150 355.200 H 14.000 C 14.150 355.200 14.000 355.050 14.000 355.200 V 362.900 C 14.000 363.050 14.150 362.900 14.000 362.900 H 10.150 C 10.067 362.900 10.000 362.967 10.000 363.050 V 371.050 C 10.000 371.133 10.067 371.200 10.150 371.200 H 14.000 C 14.150 371.200 14.000 371.050 14.000 371.200 V 378.900 C 14.000 379.050 14.150 378.900 14.000 378.900 H 10.150 C 10.067 378.900 10.000 378.967 10.000 379.050 V 387.050 C 10.000 387.133 10.067 387.200 10.150 387.200 H 14.000 C 14.150 387.200 14.000 387.050 14.000 387.200 V 394.900 C 14.000 395.050 14.150 394.900 14.000 394.900 H 10.150 C 10.067 394.900 10.000 394.967 10.000 395.050 V 403.050 C 10.000 403.133 10.067 403.200 10.150 403.200 H 14.000 C 14.150 403.200 14.000 403.050 14.000 403.200 V 410.900 C 14.000 411.050 14.150 410.900 14.000 410.900 H 10.150 C 10.067 410.900 10.000 410.967 10.000 411.050 V 419.050 C 10.000 419.133 10.067 419.200 10.150 419.200 H 14.000 C 14.150 419.200 14.000 419.050 14.000 419.200 V 426.900 C 14.000 427.050 14.150 426.900 14.000 426.900 H 10.150 C 10.067 426.900 10.000 426.967 10.000 427.050 V 435.050 C 10.000 435.133 10.067 435.200 10.150 435.200 H 14.000 C 14.150 435.200 14.000 435.050 14.000 435.200 V 442.900 C 14.000 443.050 14.150 442.900 14.000 442.900 H 10.150 C 10.067 442.900 10.000 442.967 10.000 443.050 V 447.050 C 10.000 447.133 10.067 447.200 10.150 447.200 H 14.150 Z"
       stroke="rgb(0,0,0)"
       stroke-width="0.30"
       id="path37" />
  </g>
  <g
     id="p-2"
     style="fill:none;stroke-linecap:round;stroke-linejoin:round;">
    <path
       d="M 81.300 328.750 V 332.600 C 81.300 332.750 81.150 332.600 81.300 332.600 H 85.000 C 85.150 332.600 85.000 332.750 85.000 332.600 V 324.900 C 85.000 324.750 85.150 324.900 85.000 324.900 H 81.300 C 81.150 324.900 81.300 324.750 81.300 324.900 V 328.750 Z"
       stroke="rgb(0,0,255)"
       stroke-width="0.30"
       id="path40" />
    <path
       d="M 81.300 312.750 V 316.600 C 81.300 316.750 81.150 316.600 81.300 316.600 H 85.000 C 85.150 316.600 85.000 316.750 85.000 316.600 V 308.900 C 85.000 308.750 85.150 308.900 85.000 308.900 H 81.300 C 81.150 308.900 81.300 308.750 81.300 308.900 V 312.750 Z"
       stroke="rgb(0,0,255)"
       stroke-width="0.30"
       id="path42" />
    <path
       d="M 81.300 296.750 V 300.600 C 81.300 300.750 81.150 300.600 81.300 300.600 H 85.000 C 85.150 300.600 85.000 300.750 85.000 300.600 V 292.900 C 85.000 292.750 85.150 292.900 85.000 292.900 H 81.300 C 81.150 292.900 81.300 292.750 81.300 292.900 V 296.750 Z"
       stroke="rgb(0,0,255)"
       stroke-width="0.30"
       id="path44" />
    <path
       d="M 81.300 280.750 V 284.600 C 81.300 284.750 81.150 284.600 81.300 284.600 H 85.000 C 85.150 284.600 85.000 284.750 85.000 284.600 V 276.900 C 85.000 276.750 85.150 276.900 85.000 276.900 H 81.300 C 81.150 276.900 81.300 276.750 81.300 276.900 V 280.750 Z"
       stroke="rgb(0,0,255)"
       stroke-width="0.30"
       id="path46" />
    <path
       d="M 81.300 264.750 V 268.600 C 81.300 268.750 81.150 268.600 81.300 268.600 H 85.000 C 85.150 268.600 85.000 268.750 85.000 268.600 V 260.900 C 85.000 260.750 85.150 260.900 85.000 260.900 H 81.300 C 81.150 260.900 81.300 260.750 81.300 260.900 V 264.750 Z"
       stroke="rgb(0,0,255)"
       stroke-width="0.30"
       id="path48" />
    <path
       d="M 27.150 344.600 H 23.300 C 23.150 344.600 23.300 344.750 23.300 344.600 V 340.900 C 23.300 340.750 23.150 340.900 23.300 340.900 H 31.000 C 31.150 340.900 31.000 340.750 31.000 340.900 V 344.600 C 31.000 344.750 31.150 344.600 31.000 344.600 H 27.150 Z"
       stroke="rgb(0,0,255)"
       stroke-width="0.30"
       id="path50" />
    <path
       d="M 43.150 344.600 H 39.300 C 39.150 344.600 39.300 344.750 39.300 344.600 V 340.900 C 39.300 340.750 39.150 340.900 39.300 340.900 H 47.000 C 47.150 340.900 47.000 340.750 47.000 340.900 V 344.600 C 47.000 344.750 47.150 344.600 47.000 344.600 H 43.150 Z"
       stroke="rgb(0,0,255)"
       stroke-width="0.30"
       id="path52" />
    <path
       d="M 59.150 344.600 H 55.300 C 55.150 344.600 55.300 344.750 55.300 344.600 V 340.900 C 55.300 340.750 55.150 340.900 55.300 340.900 H 63.000 C 63.150 340.900 63.000 340.750 63.000 340.900 V 344.600 C 63.000 344.750 63.150 344.600 63.000 344.600 H 59.150 Z"
       stroke="rgb(0,0,255)"
       stroke-width="0.30"
       id="path54" />
    <path
       d="M 75.150 344.600 H 71.300 C 71.150 344.600 71.300 344.750 71.300 344.600 V 340.900 C 71.300 340.750 71.150 340.900 71.300 340.900 H 79.000 C 79.150 340.900 79.000 340.750 79.000 340.900 V 344.600 C 79.000 344.750 79.150 344.600 79.000 344.600 H 75.150 Z"
       stroke="rgb(0,0,255)"
       stroke-width="0.30"
       id="path56" />
    <path
       d="M 91.150 344.600 H 87.300 C 87.150 344.600 87.300 344.750 87.300 344.600 V 340.900 C 87.300 340.750 87.150 340.900 87.300 340.900 H 95.000 C 95.150 340.900 95.000 340.750 95.000 340.900 V 344.600 C 95.000 344.750 95.150 344.600 95.000 344.600 H 91.150 Z"
       stroke="rgb(0,0,255)"
       stroke-width="0.30"
       id="path58" />
    <path
       d="M 107.150 344.600 H 103.300 C 103.150 344.600 103.300 344.750 103.300 344.600 V 340.900 C 103.300 340.750 103.150 340.900 103.300 340.900 H 111.000 C 111.150 340.900 111.000 340.750 111.000 340.900 V 344.600 C 111.000 344.750 111.150 344.600 111.000 344.600 H 107.150 Z"
       stroke="rgb(0,0,255)"
       stroke-width="0.30"
       id="path60" />
    <path
       d="M 123.150 344.600 H 119.300 C 119.150 344.600 119.300 344.750 119.300 344.600 V 340.900 C 119.300 340.750 119.150 340.900 119.300 340.900 H 127.000 C 127.150 340.900 127.000 340.750 127.000 340.900 V 344.600 C 127.000 344.750 127.150 344.600 127.000 344.600 H 123.150 Z"
       stroke="rgb(0,0,255)"
       stroke-width="0.30"
       id="path62" />
    <path
       d="M 139.150 344.600 H 135.300 C 135.150 344.600 135.300 344.750 135.300 344.600 V 340.900 C 135.300 340.750 135.150 340.900 135.300 340.900 H 143.000 C 143.150 340.900 143.000 340.750 143.000 340.900 V 344.600 C 143.000 344.750 143.150 344.600 143.000 344.600 H 139.150 Z"
       stroke="rgb(0,0,255)"
       stroke-width="0.30"
       id="path64" />
    <path
       d="M 14.150 348.900 H 152.150 H 156.150 C 156.233 348.900 156.300 348.833 156.300 348.750 V 344.750 C 156.300 344.667 156.233 344.600 156.150 344.600 H 152.300 C 152.150 344.600 152.300 344.750 152.300 344.600 V 336.900 C 152.300 336.750 152.150 336.900 152.300 336.900 H 156.150 C 156.233 336.900 156.300 336.833 156.300 336.750 V 328.750 C 156.300 328.667 156.233 328.600 156.150 328.600 H 152.300 C 152.150 328.600 152.300 328.750 152.300 328.600 V 320.900 C 152.300 320.750 152.150 320.900 152.300 320.900 H 156.150 C 156.233 320.900 156.300 320.833 156.300 320.750 V 312.750 C 156.300 312.667 156.233 312.600 156.150 312.600 H 152.300 C 152.150 312.600 152.300 312.750 152.300 312.600 V 304.900 C 152.300 304.750 152.150 304.900 152.300 304.900 H 156.150 C 156.233 304.900 156.300 304.833 156.300 304.750 V 296.750 C 156.300 296.667 156.233 296.600 156.150 296.600 H 152.300 C 152.150 296.600 152.300 296.750 152.300 296.600 V 288.900 C 152.300 288.750 152.150 288.900 152.300 288.900 H 156.150 C 156.233 288.900 156.300 288.833 156.300 288.750 V 280.750 C 156.300 280.667 156.233 280.600 156.150 280.600 H 152.300 C 152.150 280.600 152.300 280.750 152.300 280.600 V 272.900 C 152.300 272.750 152.150 272.900 152.300 272.900 H 156.150 C 156.233 272.900 156.300 272.833 156.300 272.750 V 264.750 C 156.300 264.667 156.233 264.600 156.150 264.600 H 152.300 C 152.150 264.600 152.300 264.750 152.300 264.600 V 256.900 C 152.300 256.750 152.150 256.900 152.300 256.900 H 156.150 C 156.233 256.900 156.300 256.833 156.300 256.750 V 252.750 C 156.300 252.667 156.233 252.600 156.150 252.600 H 152.150 H 14.150 H 10.150 C 10.067 252.600 10.000 252.667 10.000 252.750 V 256.750 C 10.000 256.833 10.067 256.900 10.150 256.900 H 14.000 C 14.150 256.900 14.000 256.750 14.000 256.900 V 264.600 C 14.000 264.750 14.150 264.600 14.000 264.600 H 10.150 C 10.067 264.600 10.000 264.667 10.000 264.750 V 272.750 C 10.000 272.833 10.067 272.900 10.150 272.900 H 14.000 C 14.150 272.900 14.000 272.750 14.000 272.900 V 280.600 C 14.000 280.750 14.150 280.600 14.000 280.600 H 10.150 C 10.067 280.600 10.000 280.667 10.000 280.750 V 288.750 C 10.000 288.833 10.067 288.900 10.150 288.900 H 14.000 C 14.150 288.900 14.000 288.750 14.000 288.900 V 296.600 C 14.000 296.750 14.150 296.600 14.000 296.600 H 10.150 C 10.067 296.600 10.000 296.667 10.000 296.750 V 304.750 C 10.000 304.833 10.067 304.900 10.150 304.900 H 14.000 C 14.150 304.900 14.000 304.750 14.000 304.900 V 312.600 C 14.000 312.750 14.150 312.600 14.000 312.600 H 10.150 C 10.067 312.600 10.000 312.667 10.000 312.750 V 320.750 C 10.000 320.833 10.067 320.900 10.150 320.900 H 14.000 C 14.150 320.900 14.000 320.750 14.000 320.900 V 328.600 C 14.000 328.750 14.150 328.600 14.000 328.600 H 10.150 C 10.067 328.600 10.000 328.667 10.000 328.750 V 336.750 C 10.000 336.833 10.067 336.900 10.150 336.900 H 14.000 C 14.150 336.900 14.000 336.750 14.000 336.900 V 344.600 C 14.000 344.750 14.150 344.600 14.000 344.600 H 10.150 C 10.067 344.600 10.000 344.667 10.000 344.750 V 348.750 C 10.000 348.833 10.067 348.900 10.150 348.900 H 14.150 Z"
       stroke="rgb(0,0,0)"
       stroke-width="0.30"
       id="path66" />
  </g>
  <g
     id="p-3"
     style="fill:none;stroke-linecap:round;stroke-linejoin:round;">
    <path
       d="M 85.000 236.950 V 240.800 C 85.000 240.950 85.150 240.800 85.000 240.800 H 81.300 C 81.150 240.800 81.300 240.950 81.300 240.800 V 233.100 C 81.300 232.950 81.150 233.100 81.300 233.100 H 85.000 C 85.150 233.100 85.000 232.950 85.000 233.100 V 236.950 Z"
       stroke="rgb(0,0,255)"
       stroke-width="0.30"
       id="path69" />
    <path
       d="M 85.000 220.950 V 224.800 C 85.000 224.950 85.150 224.800 85.000 224.800 H 81.300 C 81.150 224.800 81.300 224.950 81.300 224.800 V 217.100 C 81.300 216.950 81.150 217.100 81.300 217.100 H 85.000 C 85.150 217.100 85.000 216.950 85.000 217.100 V 220.950 Z"
       stroke="rgb(0,0,255)"
       stroke-width="0.30"
       id="path71" />
    <path
       d="M 85.000 204.950 V 208.800 C 85.000 208.950 85.150 208.800 85.000 208.800 H 81.300 C 81.150 208.800 81.300 208.950 81.300 208.800 V 201.100 C 81.300 200.950 81.150 201.100 81.300 201.100 H 85.000 C 85.150 201.100 85.000 200.950 85.000 201.100 V 204.950 Z"
       stroke="rgb(0,0,255)"
       stroke-width="0.30"
       id="path73" />
    <path
       d="M 85.000 188.950 V 192.800 C 85.000 192.950 85.150 192.800 85.000 192.800 H 81.300 C 81.150 192.800 81.300 192.950 81.300 192.800 V 185.100 C 81.300 184.950 81.150 185.100 81.300 185.100 H 85.000 C 85.150 185.100 85.000 184.950 85.000 185.100 V 188.950 Z"
       stroke="rgb(0,0,255)"
       stroke-width="0.30"
       id="path75" />
    <path
       d="M 85.000 165.950 V 169.800 C 85.000 169.950 85.150 169.800 85.000 169.800 H 81.300 C 81.150 169.800 81.300 169.950 81.300 169.800 V 162.100 C 81.300 161.950 81.150 162.100 81.300 162.100 H 85.000 C 85.150 162.100 85.000 161.950 85.000 162.100 V 165.950 Z"
       stroke="rgb(0,0,255)"
       stroke-width="0.30"
       id="path77" />
    <path
       d="M 85.000 149.950 V 153.800 C 85.000 153.950 85.150 153.800 85.000 153.800 H 81.300 C 81.150 153.800 81.300 153.950 81.300 153.800 V 146.100 C 81.300 145.950 81.150 146.100 81.300 146.100 H 85.000 C 85.150 146.100 85.000 145.950 85.000 146.100 V 149.950 Z"
       stroke="rgb(0,0,255)"
       stroke-width="0.30"
       id="path79" />
    <path
       d="M 85.000 133.950 V 137.800 C 85.000 137.950 85.150 137.800 85.000 137.800 H 81.300 C 81.150 137.800 81.300 137.950 81.300 137.800 V 130.100 C 81.300 129.950 81.150 130.100 81.300 130.100 H 85.000 C 85.150 130.100 85.000 129.950 85.000 130.100 V 133.950 Z"
       stroke="rgb(0,0,255)"
       stroke-width="0.30"
       id="path81" />
    <path
       d="M 85.000 117.950 V 121.800 C 85.000 121.950 85.150 121.800 85.000 121.800 H 81.300 C 81.150 121.800 81.300 121.950 81.300 121.800 V 114.100 C 81.300 113.950 81.150 114.100 81.300 114.100 H 85.000 C 85.150 114.100 85.000 113.950 85.000 114.100 V 117.950 Z"
       stroke="rgb(0,0,255)"
       stroke-width="0.30"
       id="path83" />
    <path
       d="M 14.150 246.600 H 23.000 C 23.150 246.600 23.000 246.450 23.000 246.600 V 250.450 C 23.000 250.533 23.067 250.600 23.150 250.600 H 31.150 C 31.233 250.600 31.300 250.533 31.300 250.450 V 246.600 C 31.300 246.450 31.150 246.600 31.300 246.600 H 39.000 C 39.150 246.600 39.000 246.450 39.000 246.600 V 250.450 C 39.000 250.533 39.067 250.600 39.150 250.600 H 47.150 C 47.233 250.600 47.300 250.533 47.300 250.450 V 246.600 C 47.300 246.450 47.150 246.600 47.300 246.600 H 55.000 C 55.150 246.600 55.000 246.450 55.000 246.600 V 250.450 C 55.000 250.533 55.067 250.600 55.150 250.600 H 63.150 C 63.233 250.600 63.300 250.533 63.300 250.450 V 246.600 C 63.300 246.450 63.150 246.600 63.300 246.600 H 71.000 C 71.150 246.600 71.000 246.450 71.000 246.600 V 250.450 C 71.000 250.533 71.067 250.600 71.150 250.600 H 79.150 C 79.233 250.600 79.300 250.533 79.300 250.450 V 246.600 C 79.300 246.450 79.150 246.600 79.300 246.600 H 87.000 C 87.150 246.600 87.000 246.450 87.000 246.600 V 250.450 C 87.000 250.533 87.067 250.600 87.150 250.600 H 95.150 C 95.233 250.600 95.300 250.533 95.300 250.450 V 246.600 C 95.300 246.450 95.150 246.600 95.300 246.600 H 103.000 C 103.150 246.600 103.000 246.450 103.000 246.600 V 250.450 C 103.000 250.533 103.067 250.600 103.150 250.600 H 111.150 C 111.233 250.600 111.300 250.533 111.300 250.450 V 246.600 C 111.300 246.450 111.150 246.600 111.300 246.600 H 119.000 C 119.150 246.600 119.000 246.450 119.000 246.600 V 250.450 C 119.000 250.533 119.067 250.600 119.150 250.600 H 127.150 C 127.233 250.600 127.300 250.533 127.300 250.450 V 246.600 C 127.300 246.450 127.150 246.600 127.300 246.600 H 135.000 C 135.150 246.600 135.000 246.450 135.000 246.600 V 250.450 C 135.000 250.533 135.067 250.600 135.150 250.600 H 143.150 C 143.233 250.600 143.300 250.533 143.300 250.450 V 246.600 C 143.300 246.450 143.150 246.600 143.300 246.600 H 152.150 C 152.233 246.600 152.300 246.533 152.300 246.450 V 237.600 C 152.300 237.450 152.150 237.600 152.300 237.600 H 156.150 C 156.233 237.600 156.300 237.533 156.300 237.450 V 229.450 C 156.300 229.367 156.233 229.300 156.150 229.300 H 152.300 C 152.150 229.300 152.300 229.450 152.300 229.300 V 221.600 C 152.300 221.450 152.150 221.600 152.300 221.600 H 156.150 C 156.233 221.600 156.300 221.533 156.300 221.450 V 213.450 C 156.300 213.367 156.233 213.300 156.150 213.300 H 152.300 C 152.150 213.300 152.300 213.450 152.300 213.300 V 205.600 C 152.300 205.450 152.150 205.600 152.300 205.600 H 156.150 C 156.233 205.600 156.300 205.533 156.300 205.450 V 197.450 C 156.300 197.367 156.233 197.300 156.150 197.300 H 152.300 C 152.150 197.300 152.300 197.450 152.300 197.300 V 189.600 C 152.300 189.450 152.150 189.600 152.300 189.600 H 156.150 C 156.233 189.600 156.300 189.533 156.300 189.450 V 181.450 C 156.300 181.367 156.233 181.300 156.150 181.300 H 152.300 C 152.150 181.300 152.300 181.450 152.300 181.300 V 173.600 C 152.300 173.450 152.150 173.600 152.300 173.600 H 156.150 C 156.233 173.600 156.300 173.533 156.300 173.450 V 165.450 C 156.300 165.367 156.233 165.300 156.150 165.300 H 152.300 C 152.150 165.300 152.300 165.450 152.300 165.300 V 157.600 C 152.300 157.450 152.150 157.600 152.300 157.600 H 156.150 C 156.233 157.600 156.300 157.533 156.300 157.450 V 149.450 C 156.300 149.367 156.233 149.300 156.150 149.300 H 152.300 C 152.150 149.300 152.300 149.450 152.300 149.300 V 141.600 C 152.300 141.450 152.150 141.600 152.300 141.600 H 156.150 C 156.233 141.600 156.300 141.533 156.300 141.450 V 133.450 C 156.300 133.367 156.233 133.300 156.150 133.300 H 152.300 C 152.150 133.300 152.300 133.450 152.300 133.300 V 125.600 C 152.300 125.450 152.150 125.600 152.300 125.600 H 156.150 C 156.233 125.600 156.300 125.533 156.300 125.450 V 117.450 C 156.300 117.367 156.233 117.300 156.150 117.300 H 152.300 C 152.150 117.300 152.300 117.450 152.300 117.300 V 108.450 C 152.300 108.367 152.233 108.300 152.150 108.300 H 143.300 C 143.150 108.300 143.300 108.450 143.300 108.300 V 104.450 C 143.300 104.367 143.233 104.300 143.150 104.300 H 135.150 C 135.067 104.300 135.000 104.367 135.000 104.450 V 108.300 C 135.000 108.450 135.150 108.300 135.000 108.300 H 127.300 C 127.150 108.300 127.300 108.450 127.300 108.300 V 104.450 C 127.300 104.367 127.233 104.300 127.150 104.300 H 119.150 C 119.067 104.300 119.000 104.367 119.000 104.450 V 108.300 C 119.000 108.450 119.150 108.300 119.000 108.300 H 111.300 C 111.150 108.300 111.300 108.450 111.300 108.300 V 104.450 C 111.300 104.367 111.233 104.300 111.150 104.300 H 103.150 C 103.067 104.300 103.000 104.367 103.000 104.450 V 108.300 C 103.000 108.450 103.150 108.300 103.000 108.300 H 95.300 C 95.150 108.300 95.300 108.450 95.300 108.300 V 104.450 C 95.300 104.367 95.233 104.300 95.150 104.300 H 87.150 C 87.067 104.300 87.000 104.367 87.000 104.450 V 108.300 C 87.000 108.450 87.150 108.300 87.000 108.300 H 79.300 C 79.150 108.300 79.300 108.450 79.300 108.300 V 104.450 C 79.300 104.367 79.233 104.300 79.150 104.300 H 71.150 C 71.067 104.300 71.000 104.367 71.000 104.450 V 108.300 C 71.000 108.450 71.150 108.300 71.000 108.300 H 63.300 C 63.150 108.300 63.300 108.450 63.300 108.300 V 104.450 C 63.300 104.367 63.233 104.300 63.150 104.300 H 55.150 C 55.067 104.300 55.000 104.367 55.000 104.450 V 108.300 C 55.000 108.450 55.150 108.300 55.000 108.300 H 47.300 C 47.150 108.300 47.300 108.450 47.300 108.300 V 104.450 C 47.300 104.367 47.233 104.300 47.150 104.300 H 39.150 C 39.067 104.300 39.000 104.367 39.000 104.450 V 108.300 C 39.000 108.450 39.150 108.300 39.000 108.300 H 31.300 C 31.150 108.300 31.300 108.450 31.300 108.300 V 104.450 C 31.300 104.367 31.233 104.300 31.150 104.300 H 23.150 C 23.067 104.300 23.000 104.367 23.000 104.450 V 108.300 C 23.000 108.450 23.150 108.300 23.000 108.300 H 14.150 C 14.067 108.300 14.000 108.367 14.000 108.450 V 117.300 C 14.000 117.450 14.150 117.300 14.000 117.300 H 10.150 C 10.067 117.300 10.000 117.367 10.000 117.450 V 125.450 C 10.000 125.533 10.067 125.600 10.150 125.600 H 14.000 C 14.150 125.600 14.000 125.450 14.000 125.600 V 133.300 C 14.000 133.450 14.150 133.300 14.000 133.300 H 10.150 C 10.067 133.300 10.000 133.367 10.000 133.450 V 141.450 C 10.000 141.533 10.067 141.600 10.150 141.600 H 14.000 C 14.150 141.600 14.000 141.450 14.000 141.600 V 149.300 C 14.000 149.450 14.150 149.300 14.000 149.300 H 10.150 C 10.067 149.300 10.000 149.367 10.000 149.450 V 157.450 C 10.000 157.533 10.067 157.600 10.150 157.600 H 14.000 C 14.150 157.600 14.000 157.450 14.000 157.600 V 165.300 C 14.000 165.450 14.150 165.300 14.000 165.300 H 10.150 C 10.067 165.300 10.000 165.367 10.000 165.450 V 173.450 C 10.000 173.533 10.067 173.600 10.150 173.600 H 14.000 C 14.150 173.600 14.000 173.450 14.000 173.600 V 181.300 C 14.000 181.450 14.150 181.300 14.000 181.300 H 10.150 C 10.067 181.300 10.000 181.367 10.000 181.450 V 189.450 C 10.000 189.533 10.067 189.600 10.150 189.600 H 14.000 C 14.150 189.600 14.000 189.450 14.000 189.600 V 197.300 C 14.000 197.450 14.150 197.300 14.000 197.300 H 10.150 C 10.067 197.300 10.000 197.367 10.000 197.450 V 205.450 C 10.000 205.533 10.067 205.600 10.150 205.600 H 14.000 C 14.150 205.600 14.000 205.450 14.000 205.600 V 213.300 C 14.000 213.450 14.150 213.300 14.000 213.300 H 10.150 C 10.067 213.300 10.000 213.367 10.000 213.450 V 221.450 C 10.000 221.533 10.067 221.600 10.150 221.600 H 14.000 C 14.150 221.600 14.000 221.450 14.000 221.600 V 229.300 C 14.000 229.450 14.150 229.300 14.000 229.300 H 10.150 C 10.067 229.300 10.000 229.367 10.000 229.450 V 237.450 C 10.000 237.533 10.067 237.600 10.150 237.600 H 14.000 C 14.150 237.600 14.000 237.450 14.000 237.600 V 246.450 C 14.000 246.533 14.067 246.600 14.150 246.600 Z"
       stroke="rgb(0,0,0)"
       stroke-width="0.30"
       id="path85" />
    <path
       d="M 142.650 175.600 H 146.500 C 146.650 175.600 146.500 175.450 146.500 175.600 V 179.300 C 146.500 179.450 146.650 179.300 146.500 179.300 H 138.800 C 138.650 179.300 138.800 179.450 138.800 179.300 V 175.600 C 138.800 175.450 138.650 175.600 138.800 175.600 H 142.650 Z"
       stroke="rgb(0,0,255)"
       stroke-width="0.30"
       id="path87" />
    <path
       d="M 126.650 175.600 H 130.500 C 130.650 175.600 130.500 175.450 130.500 175.600 V 179.300 C 130.500 179.450 130.650 179.300 130.500 179.300 H 122.800 C 122.650 179.300 122.800 179.450 122.800 179.300 V 175.600 C 122.800 175.450 122.650 175.600 122.800 175.600 H 126.650 Z"
       stroke="rgb(0,0,255)"
       stroke-width="0.30"
       id="path89" />
    <path
       d="M 110.650 175.600 H 114.500 C 114.650 175.600 114.500 175.450 114.500 175.600 V 179.300 C 114.500 179.450 114.650 179.300 114.500 179.300 H 106.800 C 106.650 179.300 106.800 179.450 106.800 179.300 V 175.600 C 106.800 175.450 106.650 175.600 106.800 175.600 H 110.650 Z"
       stroke="rgb(0,0,255)"
       stroke-width="0.30"
       id="path91" />
    <path
       d="M 94.650 175.600 H 98.500 C 98.650 175.600 98.500 175.450 98.500 175.600 V 179.300 C 98.500 179.450 98.650 179.300 98.500 179.300 H 90.800 C 90.650 179.300 90.800 179.450 90.800 179.300 V 175.600 C 90.800 175.450 90.650 175.600 90.800 175.600 H 94.650 Z"
       stroke="rgb(0,0,255)"
       stroke-width="0.30"
       id="path93" />
    <path
       d="M 71.650 175.600 H 75.500 C 75.650 175.600 75.500 175.450 75.500 175.600 V 179.300 C 75.500 179.450 75.650 179.300 75.500 179.300 H 67.800 C 67.650 179.300 67.800 179.450 67.800 179.300 V 175.600 C 67.800 175.450 67.650 175.600 67.800 175.600 H 71.650 Z"
       stroke="rgb(0,0,255)"
       stroke-width="0.30"
       id="path95" />
    <path
       d="M 55.650 175.600 H 59.500 C 59.650 175.600 59.500 175.450 59.500 175.600 V 179.300 C 59.500 179.450 59.650 179.300 59.500 179.300 H 51.800 C 51.650 179.300 51.800 179.450 51.800 179.300 V 175.600 C 51.800 175.450 51.650 175.600 51.800 175.600 H 55.650 Z"
       stroke="rgb(0,0,255)"
       stroke-width="0.30"
       id="path97" />
    <path
       d="M 39.650 175.600 H 43.500 C 43.650 175.600 43.500 175.450 43.500 175.600 V 179.300 C 43.500 179.450 43.650 179.300 43.500 179.300 H 35.800 C 35.650 179.300 35.800 179.450 35.800 179.300 V 175.600 C 35.800 175.450 35.650 175.600 35.800 175.600 H 39.650 Z"
       stroke="rgb(0,0,255)"
       stroke-width="0.30"
       id="path99" />
    <path
       d="M 23.650 175.600 H 27.500 C 27.650 175.600 27.500 175.450 27.500 175.600 V 179.300 C 27.500 179.450 27.650 179.300 27.500 179.300 H 19.800 C 19.650 179.300 19.800 179.450 19.800 179.300 V 175.600 C 19.800 175.450 19.650 175.600 19.800 175.600 H 23.650 Z"
       stroke="rgb(0,0,255)"
       stroke-width="0.30"
       id="path101" />
  </g>
  <g
     id="p-4"
     style="fill:none;stroke-linecap:round;stroke-linejoin:round;">
    <path
       d="M 14.150 98.300 H 19.500 C 19.650 98.300 19.500 98.150 19.500 98.300 V 102.150 C 19.500 102.233 19.567 102.300 19.650 102.300 H 27.650 C 27.733 102.300 27.800 102.233 27.800 102.150 V 98.300 C 27.800 98.150 27.650 98.300 27.800 98.300 H 35.500 C 35.650 98.300 35.500 98.150 35.500 98.300 V 102.150 C 35.500 102.233 35.567 102.300 35.650 102.300 H 43.650 C 43.733 102.300 43.800 102.233 43.800 102.150 V 98.300 C 43.800 98.150 43.650 98.300 43.800 98.300 H 51.500 C 51.650 98.300 51.500 98.150 51.500 98.300 V 102.150 C 51.500 102.233 51.567 102.300 51.650 102.300 H 59.650 C 59.733 102.300 59.800 102.233 59.800 102.150 V 98.300 C 59.800 98.150 59.650 98.300 59.800 98.300 H 67.500 C 67.650 98.300 67.500 98.150 67.500 98.300 V 102.150 C 67.500 102.233 67.567 102.300 67.650 102.300 H 75.650 C 75.733 102.300 75.800 102.233 75.800 102.150 V 98.300 C 75.800 98.150 75.650 98.300 75.800 98.300 H 81.150 H 83.150 H 85.150 H 90.500 C 90.650 98.300 90.500 98.150 90.500 98.300 V 102.150 C 90.500 102.233 90.567 102.300 90.650 102.300 H 98.650 C 98.733 102.300 98.800 102.233 98.800 102.150 V 98.300 C 98.800 98.150 98.650 98.300 98.800 98.300 H 106.500 C 106.650 98.300 106.500 98.150 106.500 98.300 V 102.150 C 106.500 102.233 106.567 102.300 106.650 102.300 H 114.650 C 114.733 102.300 114.800 102.233 114.800 102.150 V 98.300 C 114.800 98.150 114.650 98.300 114.800 98.300 H 122.500 C 122.650 98.300 122.500 98.150 122.500 98.300 V 102.150 C 122.500 102.233 122.567 102.300 122.650 102.300 H 130.650 C 130.733 102.300 130.800 102.233 130.800 102.150 V 98.300 C 130.800 98.150 130.650 98.300 130.800 98.300 H 138.500 C 138.650 98.300 138.500 98.150 138.500 98.300 V 102.150 C 138.500 102.233 138.567 102.300 138.650 102.300 H 146.650 C 146.733 102.300 146.800 102.233 146.800 102.150 V 98.300 C 146.800 98.150 146.650 98.300 146.800 98.300 H 152.150 C 152.233 98.300 152.300 98.233 152.300 98.150 V 90.300 C 152.300 90.150 152.150 90.300 152.300 90.300 H 156.150 C 156.233 90.300 156.300 90.233 156.300 90.150 V 82.150 C 156.300 82.067 156.233 82.000 156.150 82.000 H 152.300 C 152.150 82.000 152.300 82.150 152.300 82.000 V 74.300 C 152.300 74.150 152.150 74.300 152.300 74.300 H 156.150 C 156.233 74.300 156.300 74.233 156.300 74.150 V 66.150 C 156.300 66.067 156.233 66.000 156.150 66.000 H 152.300 C 152.150 66.000 152.300 66.150 152.300 66.000 V 58.300 C 152.300 58.150 152.150 58.300 152.300 58.300 H 156.150 C 156.233 58.300 156.300 58.233 156.300 58.150 V 50.150 C 156.300 50.067 156.233 50.000 156.150 50.000 H 152.300 C 152.150 50.000 152.300 50.150 152.300 50.000 V 42.300 C 152.300 42.150 152.150 42.300 152.300 42.300 H 156.150 C 156.233 42.300 156.300 42.233 156.300 42.150 V 34.150 C 156.300 34.067 156.233 34.000 156.150 34.000 H 152.300 C 152.150 34.000 152.300 34.150 152.300 34.000 V 26.300 C 152.300 26.150 152.150 26.300 152.300 26.300 H 156.150 C 156.233 26.300 156.300 26.233 156.300 26.150 V 18.150 C 156.300 18.067 156.233 18.000 156.150 18.000 H 152.300 C 152.150 18.000 152.300 18.150 152.300 18.000 V 10.150 C 152.300 10.067 152.233 10.000 152.150 10.000 H 85.150 C 85.067 10.000 85.000 10.067 85.000 10.150 V 54.000 C 85.000 54.150 85.150 54.000 85.000 54.000 H 81.300 C 81.150 54.000 81.300 54.150 81.300 54.000 V 10.150 C 81.300 10.067 81.233 10.000 81.150 10.000 H 14.150 C 14.067 10.000 14.000 10.067 14.000 10.150 V 18.000 C 14.000 18.150 14.150 18.000 14.000 18.000 H 10.150 C 10.067 18.000 10.000 18.067 10.000 18.150 V 26.150 C 10.000 26.233 10.067 26.300 10.150 26.300 H 14.000 C 14.150 26.300 14.000 26.150 14.000 26.300 V 34.000 C 14.000 34.150 14.150 34.000 14.000 34.000 H 10.150 C 10.067 34.000 10.000 34.067 10.000 34.150 V 42.150 C 10.000 42.233 10.067 42.300 10.150 42.300 H 14.000 C 14.150 42.300 14.000 42.150 14.000 42.300 V 50.000 C 14.000 50.150 14.150 50.000 14.000 50.000 H 10.150 C 10.067 50.000 10.000 50.067 10.000 50.150 V 58.150 C 10.000 58.233 10.067 58.300 10.150 58.300 H 14.000 C 14.150 58.300 14.000 58.150 14.000 58.300 V 66.000 C 14.000 66.150 14.150 66.000 14.000 66.000 H 10.150 C 10.067 66.000 10.000 66.067 10.000 66.150 V 74.150 C 10.000 74.233 10.067 74.300 10.150 74.300 H 14.000 C 14.150 74.300 14.000 74.150 14.000 74.300 V 82.000 C 14.000 82.150 14.150 82.000 14.000 82.000 H 10.150 C 10.067 82.000 10.000 82.067 10.000 82.150 V 90.150 C 10.000 90.233 10.067 90.300 10.150 90.300 H 14.000 C 14.150 90.300 14.000 90.150 14.000 90.300 V 98.150 C 14.000 98.233 14.067 98.300 14.150 98.300 Z"
       stroke="rgb(0,0,0)"
       stroke-width="0.30"
       id="path104" />
  </g>
  <g
     id="p-5"
     style="fill:none;stroke-linecap:round;stroke-linejoin:round;">
    <path
       d="M 233.300 427.050 V 430.900 C 233.300 431.050 233.450 430.900 233.300 430.900 H 229.600 C 229.450 430.900 229.600 431.050 229.600 430.900 V 423.200 C 229.600 423.050 229.450 423.200 229.600 423.200 H 233.300 C 233.450 423.200 233.300 423.050 233.300 423.200 V 427.050 Z"
       stroke="rgb(0,0,255)"
       stroke-width="0.30"
       id="path107" />
    <path
       d="M 233.300 411.050 V 414.900 C 233.300 415.050 233.450 414.900 233.300 414.900 H 229.600 C 229.450 414.900 229.600 415.050 229.600 414.900 V 407.200 C 229.600 407.050 229.450 407.200 229.600 407.200 H 233.300 C 233.450 407.200 233.300 407.050 233.300 407.200 V 411.050 Z"
       stroke="rgb(0,0,255)"
       stroke-width="0.30"
       id="path109" />
    <path
       d="M 233.300 395.050 V 398.900 C 233.300 399.050 233.450 398.900 233.300 398.900 H 229.600 C 229.450 398.900 229.600 399.050 229.600 398.900 V 391.200 C 229.600 391.050 229.450 391.200 229.600 391.200 H 233.300 C 233.450 391.200 233.300 391.050 233.300 391.200 V 395.050 Z"
       stroke="rgb(0,0,255)"
       stroke-width="0.30"
       id="path111" />
    <path
       d="M 233.300 379.050 V 382.900 C 233.300 383.050 233.450 382.900 233.300 382.900 H 229.600 C 229.450 382.900 229.600 383.050 229.600 382.900 V 375.200 C 229.600 375.050 229.450 375.200 229.600 375.200 H 233.300 C 233.450 375.200 233.300 375.050 233.300 375.200 V 379.050 Z"
       stroke="rgb(0,0,255)"
       stroke-width="0.30"
       id="path113" />
    <path
       d="M 233.300 363.050 V 366.900 C 233.300 367.050 233.450 366.900 233.300 366.900 H 229.600 C 229.450 366.900 229.600 367.050 229.600 366.900 V 359.200 C 229.600 359.050 229.450 359.200 229.600 359.200 H 233.300 C 233.450 359.200 233.300 359.050 233.300 359.200 V 363.050 Z"
       stroke="rgb(0,0,255)"
       stroke-width="0.30"
       id="path115" />
    <path
       d="M 175.450 442.900 H 171.600 C 171.450 442.900 171.600 443.050 171.600 442.900 V 439.200 C 171.600 439.050 171.450 439.200 171.600 439.200 H 179.300 C 179.450 439.200 179.300 439.050 179.300 439.200 V 442.900 C 179.300 443.050 179.450 442.900 179.300 442.900 H 175.450 Z"
       stroke="rgb(0,0,255)"
       stroke-width="0.30"
       id="path117" />
    <path
       d="M 191.450 442.900 H 187.600 C 187.450 442.900 187.600 443.050 187.600 442.900 V 439.200 C 187.600 439.050 187.450 439.200 187.600 439.200 H 195.300 C 195.450 439.200 195.300 439.050 195.300 439.200 V 442.900 C 195.300 443.050 195.450 442.900 195.300 442.900 H 191.450 Z"
       stroke="rgb(0,0,255)"
       stroke-width="0.30"
       id="path119" />
    <path
       d="M 207.450 442.900 H 203.600 C 203.450 442.900 203.600 443.050 203.600 442.900 V 439.200 C 203.600 439.050 203.450 439.200 203.600 439.200 H 211.300 C 211.450 439.200 211.300 439.050 211.300 439.200 V 442.900 C 211.300 443.050 211.450 442.900 211.300 442.900 H 207.450 Z"
       stroke="rgb(0,0,255)"
       stroke-width="0.30"
       id="path121" />
    <path
       d="M 223.450 442.900 H 219.600 C 219.450 442.900 219.600 443.050 219.600 442.900 V 439.200 C 219.600 439.050 219.450 439.200 219.600 439.200 H 227.300 C 227.450 439.200 227.300 439.050 227.300 439.200 V 442.900 C 227.300 443.050 227.450 442.900 227.300 442.900 H 223.450 Z"
       stroke="rgb(0,0,255)"
       stroke-width="0.30"
       id="path123" />
    <path
       d="M 239.450 442.900 H 235.600 C 235.450 442.900 235.600 443.050 235.600 442.900 V 439.200 C 235.600 439.050 235.450 439.200 235.600 439.200 H 243.300 C 243.450 439.200 243.300 439.050 243.300 439.200 V 442.900 C 243.300 443.050 243.450 442.900 243.300 442.900 H 239.450 Z"
       stroke="rgb(0,0,255)"
       stroke-width="0.30"
       id="path125" />
    <path
       d="M 255.450 442.900 H 251.600 C 251.450 442.900 251.600 443.050 251.600 442.900 V 439.200 C 251.600 439.050 251.450 439.200 251.600 439.200 H 259.300 C 259.450 439.200 259.300 439.050 259.300 439.200 V 442.900 C 259.300 443.050 259.450 442.900 259.300 442.900 H 255.450 Z"
       stroke="rgb(0,0,255)"
       stroke-width="0.30"
       id="path127" />
    <path
       d="M 271.450 442.900 H 267.600 C 267.450 442.900 267.600 443.050 267.600 442.900 V 439.200 C 267.600 439.050 267.450 439.200 267.600 439.200 H 275.300 C 275.450 439.200 275.300 439.050 275.300 439.200 V 442.900 C 275.300 443.050 275.450 442.900 275.300 442.900 H 271.450 Z"
       stroke="rgb(0,0,255)"
       stroke-width="0.30"
       id="path129" />
    <path
       d="M 287.450 442.900 H 283.600 C 283.450 442.900 283.600 443.050 283.600 442.900 V 439.200 C 283.600 439.050 283.450 439.200 283.600 439.200 H 291.300 C 291.450 439.200 291.300 439.050 291.300 439.200 V 442.900 C 291.300 443.050 291.450 442.900 291.300 442.900 H 287.450 Z"
       stroke="rgb(0,0,255)"
       stroke-width="0.30"
       id="path131" />
    <path
       d="M 162.450 447.200 H 300.450 C 300.533 447.200 300.600 447.133 300.600 447.050 V 443.200 C 300.600 443.050 300.450 443.200 300.600 443.200 H 304.450 C 304.533 443.200 304.600 443.133 304.600 443.050 V 435.050 C 304.600 434.967 304.533 434.900 304.450 434.900 H 300.600 C 300.450 434.900 300.600 435.050 300.600 434.900 V 427.200 C 300.600 427.050 300.450 427.200 300.600 427.200 H 304.450 C 304.533 427.200 304.600 427.133 304.600 427.050 V 419.050 C 304.600 418.967 304.533 418.900 304.450 418.900 H 300.600 C 300.450 418.900 300.600 419.050 300.600 418.900 V 411.200 C 300.600 411.050 300.450 411.200 300.600 411.200 H 304.450 C 304.533 411.200 304.600 411.133 304.600 411.050 V 403.050 C 304.600 402.967 304.533 402.900 304.450 402.900 H 300.600 C 300.450 402.900 300.600 403.050 300.600 402.900 V 395.200 C 300.600 395.050 300.450 395.200 300.600 395.200 H 304.450 C 304.533 395.200 304.600 395.133 304.600 395.050 V 387.050 C 304.600 386.967 304.533 386.900 304.450 386.900 H 300.600 C 300.450 386.900 300.600 387.050 300.600 386.900 V 379.200 C 300.600 379.050 300.450 379.200 300.600 379.200 H 304.450 C 304.533 379.200 304.600 379.133 304.600 379.050 V 371.050 C 304.600 370.967 304.533 370.900 304.450 370.900 H 300.600 C 300.450 370.900 300.600 371.050 300.600 370.900 V 363.200 C 300.600 363.050 300.450 363.200 300.600 363.200 H 304.450 C 304.533 363.200 304.600 363.133 304.600 363.050 V 355.050 C 304.600 354.967 304.533 354.900 304.450 354.900 H 300.600 C 300.450 354.900 300.600 355.050 300.600 354.900 V 351.050 C 300.600 350.967 300.533 350.900 300.450 350.900 H 162.450 C 162.367 350.900 162.300 350.967 162.300 351.050 V 354.900 C 162.300 355.050 162.450 354.900 162.300 354.900 H 158.450 C 158.367 354.900 158.300 354.967 158.300 355.050 V 363.050 C 158.300 363.133 158.367 363.200 158.450 363.200 H 162.300 C 162.450 363.200 162.300 363.050 162.300 363.200 V 370.900 C 162.300 371.050 162.450 370.900 162.300 370.900 H 158.450 C 158.367 370.900 158.300 370.967 158.300 371.050 V 379.050 C 158.300 379.133 158.367 379.200 158.450 379.200 H 162.300 C 162.450 379.200 162.300 379.050 162.300 379.200 V 386.900 C 162.300 387.050 162.450 386.900 162.300 386.900 H 158.450 C 158.367 386.900 158.300 386.967 158.300 387.050 V 395.050 C 158.300 395.133 158.367 395.200 158.450 395.200 H 162.300 C 162.450 395.200 162.300 395.050 162.300 395.200 V 402.900 C 162.300 403.050 162.450 402.900 162.300 402.900 H 158.450 C 158.367 402.900 158.300 402.967 158.300 403.050 V 411.050 C 158.300 411.133 158.367 411.200 158.450 411.200 H 162.300 C 162.450 411.200 162.300 411.050 162.300 411.200 V 418.900 C 162.300 419.050 162.450 418.900 162.300 418.900 H 158.450 C 158.367 418.900 158.300 418.967 158.300 419.050 V 427.050 C 158.300 427.133 158.367 427.200 158.450 427.200 H 162.300 C 162.450 427.200 162.300 427.050 162.300 427.200 V 434.900 C 162.300 435.050 162.450 434.900 162.300 434.900 H 158.450 C 158.367 434.900 158.300 434.967 158.300 435.050 V 443.050 C 158.300 443.133 158.367 443.200 158.450 443.200 H 162.300 C 162.450 443.200 162.300 443.050 162.300 443.200 V 447.050 C 162.300 447.133 162.367 447.200 162.450 447.200 Z"
       stroke="rgb(0,0,0)"
       stroke-width="0.30"
       id="path133" />
  </g>
  <g
     id="p-6"
     style="fill:none;stroke-linecap:round;stroke-linejoin:round;">
    <path
       d="M 229.600 328.750 V 332.600 C 229.600 332.750 229.450 332.600 229.600 332.600 H 233.300 C 233.450 332.600 233.300 332.750 233.300 332.600 V 324.900 C 233.300 324.750 233.450 324.900 233.300 324.900 H 229.600 C 229.450 324.900 229.600 324.750 229.600 324.900 V 328.750 Z"
       stroke="rgb(0,0,255)"
       stroke-width="0.30"
       id="path136" />
    <path
       d="M 229.600 312.750 V 316.600 C 229.600 316.750 229.450 316.600 229.600 316.600 H 233.300 C 233.450 316.600 233.300 316.750 233.300 316.600 V 308.900 C 233.300 308.750 233.450 308.900 233.300 308.900 H 229.600 C 229.450 308.900 229.600 308.750 229.600 308.900 V 312.750 Z"
       stroke="rgb(0,0,255)"
       stroke-width="0.30"
       id="path138" />
    <path
       d="M 229.600 296.750 V 300.600 C 229.600 300.750 229.450 300.600 229.600 300.600 H 233.300 C 233.450 300.600 233.300 300.750 233.300 300.600 V 292.900 C 233.300 292.750 233.450 292.900 233.300 292.900 H 229.600 C 229.450 292.900 229.600 292.750 229.600 292.900 V 296.750 Z"
       stroke="rgb(0,0,255)"
       stroke-width="0.30"
       id="path140" />
    <path
       d="M 229.600 280.750 V 284.600 C 229.600 284.750 229.450 284.600 229.600 284.600 H 233.300 C 233.450 284.600 233.300 284.750 233.300 284.600 V 276.900 C 233.300 276.750 233.450 276.900 233.300 276.900 H 229.600 C 229.450 276.900 229.600 276.750 229.600 276.900 V 280.750 Z"
       stroke="rgb(0,0,255)"
       stroke-width="0.30"
       id="path142" />
    <path
       d="M 229.600 264.750 V 268.600 C 229.600 268.750 229.450 268.600 229.600 268.600 H 233.300 C 233.450 268.600 233.300 268.750 233.300 268.600 V 260.900 C 233.300 260.750 233.450 260.900 233.300 260.900 H 229.600 C 229.450 260.900 229.600 260.750 229.600 260.900 V 264.750 Z"
       stroke="rgb(0,0,255)"
       stroke-width="0.30"
       id="path144" />
    <path
       d="M 175.450 344.600 H 171.600 C 171.450 344.600 171.600 344.750 171.600 344.600 V 340.900 C 171.600 340.750 171.450 340.900 171.600 340.900 H 179.300 C 179.450 340.900 179.300 340.750 179.300 340.900 V 344.600 C 179.300 344.750 179.450 344.600 179.300 344.600 H 175.450 Z"
       stroke="rgb(0,0,255)"
       stroke-width="0.30"
       id="path146" />
    <path
       d="M 191.450 344.600 H 187.600 C 187.450 344.600 187.600 344.750 187.600 344.600 V 340.900 C 187.600 340.750 187.450 340.900 187.600 340.900 H 195.300 C 195.450 340.900 195.300 340.750 195.300 340.900 V 344.600 C 195.300 344.750 195.450 344.600 195.300 344.600 H 191.450 Z"
       stroke="rgb(0,0,255)"
       stroke-width="0.30"
       id="path148" />
    <path
       d="M 207.450 344.600 H 203.600 C 203.450 344.600 203.600 344.750 203.600 344.600 V 340.900 C 203.600 340.750 203.450 340.900 203.600 340.900 H 211.300 C 211.450 340.900 211.300 340.750 211.300 340.900 V 344.600 C 211.300 344.750 211.450 344.600 211.300 344.600 H 207.450 Z"
       stroke="rgb(0,0,255)"
       stroke-width="0.30"
       id="path150" />
    <path
       d="M 223.450 344.600 H 219.600 C 219.450 344.600 219.600 344.750 219.600 344.600 V 340.900 C 219.600 340.750 219.450 340.900 219.600 340.900 H 227.300 C 227.450 340.900 227.300 340.750 227.300 340.900 V 344.600 C 227.300 344.750 227.450 344.600 227.300 344.600 H 223.450 Z"
       stroke="rgb(0,0,255)"
       stroke-width="0.30"
       id="path152" />
    <path
       d="M 239.450 344.600 H 235.600 C 235.450 344.600 235.600 344.750 235.600 344.600 V 340.900 C 235.600 340.750 235.450 340.900 235.600 340.900 H 243.300 C 243.450 340.900 243.300 340.750 243.300 340.900 V 344.600 C 243.300 344.750 243.450 344.600 243.300 344.600 H 239.450 Z"
       stroke="rgb(0,0,255)"
       stroke-width="0.30"
       id="path154" />
    <path
       d="M 255.450 344.600 H 251.600 C 251.450 344.600 251.600 344.750 251.600 344.600 V 340.900 C 251.600 340.750 251.450 340.900 251.600 340.900 H 259.300 C 259.450 340.900 259.300 340.750 259.300 340.900 V 344.600 C 259.300 344.750 259.450 344.600 259.300 344.600 H 255.450 Z"
       stroke="rgb(0,0,255)"
       stroke-width="0.30"
       id="path156" />
    <path
       d="M 271.450 344.600 H 267.600 C 267.450 344.600 267.600 344.750 267.600 344.600 V 340.900 C 267.600 340.750 267.450 340.900 267.600 340.900 H 275.300 C 275.450 340.900 275.300 340.750 275.300 340.900 V 344.600 C 275.300 344.750 275.450 344.600 275.300 344.600 H 271.450 Z"
       stroke="rgb(0,0,255)"
       stroke-width="0.30"
       id="path158" />
    <path
       d="M 287.450 344.600 H 283.600 C 283.450 344.600 283.600 344.750 283.600 344.600 V 340.900 C 283.600 340.750 283.450 340.900 283.600 340.900 H 291.300 C 291.450 340.900 291.300 340.750 291.300 340.900 V 344.600 C 291.300 344.750 291.450 344.600 291.300 344.600 H 287.450 Z"
       stroke="rgb(0,0,255)"
       stroke-width="0.30"
       id="path160" />
    <path
       d="M 162.450 348.900 H 300.450 C 300.533 348.900 300.600 348.833 300.600 348.750 V 344.900 C 300.600 344.750 300.450 344.900 300.600 344.900 H 304.450 C 304.533 344.900 304.600 344.833 304.600 344.750 V 336.750 C 304.600 336.667 304.533 336.600 304.450 336.600 H 300.600 C 300.450 336.600 300.600 336.750 300.600 336.600 V 328.900 C 300.600 328.750 300.450 328.900 300.600 328.900 H 304.450 C 304.533 328.900 304.600 328.833 304.600 328.750 V 320.750 C 304.600 320.667 304.533 320.600 304.450 320.600 H 300.600 C 300.450 320.600 300.600 320.750 300.600 320.600 V 312.900 C 300.600 312.750 300.450 312.900 300.600 312.900 H 304.450 C 304.533 312.900 304.600 312.833 304.600 312.750 V 304.750 C 304.600 304.667 304.533 304.600 304.450 304.600 H 300.600 C 300.450 304.600 300.600 304.750 300.600 304.600 V 296.900 C 300.600 296.750 300.450 296.900 300.600 296.900 H 304.450 C 304.533 296.900 304.600 296.833 304.600 296.750 V 288.750 C 304.600 288.667 304.533 288.600 304.450 288.600 H 300.600 C 300.450 288.600 300.600 288.750 300.600 288.600 V 280.900 C 300.600 280.750 300.450 280.900 300.600 280.900 H 304.450 C 304.533 280.900 304.600 280.833 304.600 280.750 V 272.750 C 304.600 272.667 304.533 272.600 304.450 272.600 H 300.600 C 300.450 272.600 300.600 272.750 300.600 272.600 V 264.900 C 300.600 264.750 300.450 264.900 300.600 264.900 H 304.450 C 304.533 264.900 304.600 264.833 304.600 264.750 V 256.750 C 304.600 256.667 304.533 256.600 304.450 256.600 H 300.600 C 300.450 256.600 300.600 256.750 300.600 256.600 V 252.750 C 300.600 252.667 300.533 252.600 300.450 252.600 H 162.450 C 162.367 252.600 162.300 252.667 162.300 252.750 V 256.600 C 162.300 256.750 162.450 256.600 162.300 256.600 H 158.450 C 158.367 256.600 158.300 256.667 158.300 256.750 V 264.750 C 158.300 264.833 158.367 264.900 158.450 264.900 H 162.300 C 162.450 264.900 162.300 264.750 162.300 264.900 V 272.600 C 162.300 272.750 162.450 272.600 162.300 272.600 H 158.450 C 158.367 272.600 158.300 272.667 158.300 272.750 V 280.750 C 158.300 280.833 158.367 280.900 158.450 280.900 H 162.300 C 162.450 280.900 162.300 280.750 162.300 280.900 V 288.600 C 162.300 288.750 162.450 288.600 162.300 288.600 H 158.450 C 158.367 288.600 158.300 288.667 158.300 288.750 V 296.750 C 158.300 296.833 158.367 296.900 158.450 296.900 H 162.300 C 162.450 296.900 162.300 296.750 162.300 296.900 V 304.600 C 162.300 304.750 162.450 304.600 162.300 304.600 H 158.450 C 158.367 304.600 158.300 304.667 158.300 304.750 V 312.750 C 158.300 312.833 158.367 312.900 158.450 312.900 H 162.300 C 162.450 312.900 162.300 312.750 162.300 312.900 V 320.600 C 162.300 320.750 162.450 320.600 162.300 320.600 H 158.450 C 158.367 320.600 158.300 320.667 158.300 320.750 V 328.750 C 158.300 328.833 158.367 328.900 158.450 328.900 H 162.300 C 162.450 328.900 162.300 328.750 162.300 328.900 V 336.600 C 162.300 336.750 162.450 336.600 162.300 336.600 H 158.450 C 158.367 336.600 158.300 336.667 158.300 336.750 V 344.750 C 158.300 344.833 158.367 344.900 158.450 344.900 H 162.300 C 162.450 344.900 162.300 344.750 162.300 344.900 V 348.750 C 162.300 348.833 162.367 348.900 162.450 348.900 Z"
       stroke="rgb(0,0,0)"
       stroke-width="0.30"
       id="path162" />
  </g>
  <g
     id="p-7"
     style="fill:none;stroke-linecap:round;stroke-linejoin:round;">
    <path
       d="M 162.450 246.600 H 167.800 C 167.950 246.600 167.800 246.450 167.800 246.600 V 250.450 C 167.800 250.533 167.867 250.600 167.950 250.600 H 175.950 C 176.033 250.600 176.100 250.533 176.100 250.450 V 246.600 C 176.100 246.450 175.950 246.600 176.100 246.600 H 183.800 C 183.950 246.600 183.800 246.450 183.800 246.600 V 250.450 C 183.800 250.533 183.867 250.600 183.950 250.600 H 191.950 C 192.033 250.600 192.100 250.533 192.100 250.450 V 246.600 C 192.100 246.450 191.950 246.600 192.100 246.600 H 199.800 C 199.950 246.600 199.800 246.450 199.800 246.600 V 250.450 C 199.800 250.533 199.867 250.600 199.950 250.600 H 207.950 C 208.033 250.600 208.100 250.533 208.100 250.450 V 246.600 C 208.100 246.450 207.950 246.600 208.100 246.600 H 215.800 C 215.950 246.600 215.800 246.450 215.800 246.600 V 250.450 C 215.800 250.533 215.867 250.600 215.950 250.600 H 223.950 C 224.033 250.600 224.100 250.533 224.100 250.450 V 246.600 C 224.100 246.450 223.950 246.600 224.100 246.600 H 229.450 C 229.533 246.600 229.600 246.533 229.600 246.450 V 202.600 C 229.600 202.450 229.450 202.600 229.600 202.600 H 233.300 C 233.450 202.600 233.300 202.450 233.300 202.600 V 246.450 C 233.300 246.533 233.367 246.600 233.450 246.600 H 238.800 C 238.950 246.600 238.800 246.450 238.800 246.600 V 250.450 C 238.800 250.533 238.867 250.600 238.950 250.600 H 246.950 C 247.033 250.600 247.100 250.533 247.100 250.450 V 246.600 C 247.100 246.450 246.950 246.600 247.100 246.600 H 254.800 C 254.950 246.600 254.800 246.450 254.800 246.600 V 250.450 C 254.800 250.533 254.867 250.600 254.950 250.600 H 262.950 C 263.033 250.600 263.100 250.533 263.100 250.450 V 246.600 C 263.100 246.450 262.950 246.600 263.100 246.600 H 270.800 C 270.950 246.600 270.800 246.450 270.800 246.600 V 250.450 C 270.800 250.533 270.867 250.600 270.950 250.600 H 278.950 C 279.033 250.600 279.100 250.533 279.100 250.450 V 246.600 C 279.100 246.450 278.950 246.600 279.100 246.600 H 286.800 C 286.950 246.600 286.800 246.450 286.800 246.600 V 250.450 C 286.800 250.533 286.867 250.600 286.950 250.600 H 294.950 C 295.033 250.600 295.100 250.533 295.100 250.450 V 246.600 C 295.100 246.450 294.950 246.600 295.100 246.600 H 300.450 C 300.533 246.600 300.600 246.533 300.600 246.450 V 238.600 C 300.600 238.450 300.450 238.600 300.600 238.600 H 304.450 C 304.533 238.600 304.600 238.533 304.600 238.450 V 230.450 C 304.600 230.367 304.533 230.300 304.450 230.300 H 300.600 C 300.450 230.300 300.600 230.450 300.600 230.300 V 222.600 C 300.600 222.450 300.450 222.600 300.600 222.600 H 304.450 C 304.533 222.600 304.600 222.533 304.600 222.450 V 214.450 C 304.600 214.367 304.533 214.300 304.450 214.300 H 300.600 C 300.450 214.300 300.600 214.450 300.600 214.300 V 206.600 C 300.600 206.450 300.450 206.600 300.600 206.600 H 304.450 C 304.533 206.600 304.600 206.533 304.600 206.450 V 198.450 C 304.600 198.367 304.533 198.300 304.450 198.300 H 300.600 C 300.450 198.300 300.600 198.450 300.600 198.300 V 190.600 C 300.600 190.450 300.450 190.600 300.600 190.600 H 304.450 C 304.533 190.600 304.600 190.533 304.600 190.450 V 182.450 C 304.600 182.367 304.533 182.300 304.450 182.300 H 300.600 C 300.450 182.300 300.600 182.450 300.600 182.300 V 174.600 C 300.600 174.450 300.450 174.600 300.600 174.600 H 304.450 C 304.533 174.600 304.600 174.533 304.600 174.450 V 166.450 C 304.600 166.367 304.533 166.300 304.450 166.300 H 300.600 C 300.450 166.300 300.600 166.450 300.600 166.300 V 158.450 C 300.600 158.367 300.533 158.300 300.450 158.300 H 162.450 C 162.367 158.300 162.300 158.367 162.300 158.450 V 166.300 C 162.300 166.450 162.450 166.300 162.300 166.300 H 158.450 C 158.367 166.300 158.300 166.367 158.300 166.450 V 174.450 C 158.300 174.533 158.367 174.600 158.450 174.600 H 162.300 C 162.450 174.600 162.300 174.450 162.300 174.600 V 182.300 C 162.300 182.450 162.450 182.300 162.300 182.300 H 158.450 C 158.367 182.300 158.300 182.367 158.300 182.450 V 190.450 C 158.300 190.533 158.367 190.600 158.450 190.600 H 162.300 C 162.450 190.600 162.300 190.450 162.300 190.600 V 198.300 C 162.300 198.450 162.450 198.300 162.300 198.300 H 158.450 C 158.367 198.300 158.300 198.367 158.300 198.450 V 206.450 C 158.300 206.533 158.367 206.600 158.450 206.600 H 162.300 C 162.450 206.600 162.300 206.450 162.300 206.600 V 214.300 C 162.300 214.450 162.450 214.300 162.300 214.300 H 158.450 C 158.367 214.300 158.300 214.367 158.300 214.450 V 222.450 C 158.300 222.533 158.367 222.600 158.450 222.600 H 162.300 C 162.450 222.600 162.300 222.450 162.300 222.600 V 230.300 C 162.300 230.450 162.450 230.300 162.300 230.300 H 158.450 C 158.367 230.300 158.300 230.367 158.300 230.450 V 238.450 C 158.300 238.533 158.367 238.600 158.450 238.600 H 162.300 C 162.450 238.600 162.300 238.450 162.300 238.600 V 246.450 C 162.300 246.533 162.367 246.600 162.450 246.600 Z"
       stroke="rgb(0,0,0)"
       stroke-width="0.30"
       id="path165" />
  </g>
</svg>
