<?xml version="1.0" encoding="UTF-8" standalone="no"?>
<!-- Created with Inkscape (http://www.inkscape.org/) -->

<svg
   xmlns:dc="http://purl.org/dc/elements/1.1/"
   xmlns:cc="http://creativecommons.org/ns#"
   xmlns:rdf="http://www.w3.org/1999/02/22-rdf-syntax-ns#"
   xmlns:svg="http://www.w3.org/2000/svg"
   xmlns="http://www.w3.org/2000/svg"
   xmlns:sodipodi="http://sodipodi.sourceforge.net/DTD/sodipodi-0.dtd"
   xmlns:inkscape="http://www.inkscape.org/namespaces/inkscape"
   sodipodi:docname="PlaqueSoudage.svg"
   viewBox="0 0 4493.3335 3178.6667"
   height="3178.6667"
   width="4493.3335"
   xml:space="preserve"
   id="svg2"
   version="1.1"
   inkscape:version="0.92.5 (2060ec1f9f, 2020-04-08)"><metadata
     id="metadata8"><rdf:RDF><cc:Work
         rdf:about=""><dc:format>image/svg+xml</dc:format><dc:type
           rdf:resource="http://purl.org/dc/dcmitype/StillImage" /><dc:title /></cc:Work></rdf:RDF></metadata><defs
     id="defs6"><clipPath
       clipPathUnits="userSpaceOnUse"
       id="clipPath18"><path
         d="M 0,0 H 28091 V 19875 H 0 Z"
         id="path16"
         inkscape:connector-curvature="0" /></clipPath></defs><sodipodi:namedview
     pagecolor="#ffffff"
     bordercolor="#666666"
     borderopacity="1"
     objecttolerance="10"
     gridtolerance="10"
     guidetolerance="10"
     inkscape:pageopacity="0"
     inkscape:pageshadow="2"
     inkscape:window-width="2416"
     inkscape:window-height="1472"
     id="namedview4"
     showgrid="false"
     inkscape:zoom="0.59395971"
     inkscape:cx="2116.4325"
     inkscape:cy="1622.2312"
     inkscape:window-x="144"
     inkscape:window-y="54"
     inkscape:window-maximized="1"
     inkscape:current-layer="g10" /><g
     id="g10"
     inkscape:groupmode="layer"
     inkscape:label="PlaqueSoudageDessin"
     transform="matrix(0.16,0,0,-0.16,0,3178.6667)"><path
       inkscape:connector-curvature="0"
       id="path20"
       style="fill:none;stroke:#ff0000;stroke-width:2.36220479;stroke-linecap:round;stroke-linejoin:round;stroke-miterlimit:4;stroke-dasharray:none;stroke-opacity:1"
       d="m 21481.74,7475.478 c 0,-652.301 -528.789,-1181.094 -1181.089,-1181.094" /><path
       inkscape:connector-curvature="0"
       id="path22"
       style="fill:none;stroke:#ff0000;stroke-width:2.36220479;stroke-linecap:round;stroke-linejoin:round;stroke-miterlimit:4;stroke-dasharray:none;stroke-opacity:1"
       d="m 21481.74,7475.478 v 8267.66" /><path
       inkscape:connector-curvature="0"
       id="path24"
       style="fill:none;stroke:#ff0000;stroke-width:2.36220479;stroke-linecap:round;stroke-linejoin:round;stroke-miterlimit:4;stroke-dasharray:none;stroke-opacity:1"
       d="M 7497.59,15743.138 H 21481.74" /><path
       inkscape:connector-curvature="0"
       id="path26"
       style="fill:none;stroke:#ff0000;stroke-width:2.36220479;stroke-linecap:round;stroke-linejoin:round;stroke-miterlimit:4;stroke-dasharray:none;stroke-opacity:1"
       d="m 7497.59,7475.478 v 8267.66" /><path
       inkscape:connector-curvature="0"
       id="path28"
       style="fill:none;stroke:#ff0000;stroke-width:2.36220479;stroke-linecap:round;stroke-linejoin:round;stroke-miterlimit:4;stroke-dasharray:none;stroke-opacity:1"
       d="m 8678.69,6294.388 c -652.3036,0 -1181.0974,528.789 -1181.0974,1181.09" /><path
       inkscape:connector-curvature="0"
       id="path30"
       style="fill:none;stroke:#ff0000;stroke-width:2.36220479;stroke-linecap:round;stroke-linejoin:round;stroke-miterlimit:4;stroke-dasharray:none;stroke-opacity:1"
       d="m 19119.56,12554.178 c 0,456.614 370.153,826.769 826.763,826.769 456.61,0 826.765,-370.155 826.765,-826.765 0,-456.611 -370.155,-826.766 -826.765,-826.766 -456.61,0 -826.766,370.155 -826.766,826.766" /><path
       inkscape:connector-curvature="0"
       id="path32"
       style="fill:none;stroke:#ff0000;stroke-width:2.36220479;stroke-linecap:round;stroke-linejoin:round;stroke-miterlimit:4;stroke-dasharray:none;stroke-opacity:1"
       d="M 8678.69,6294.388 H 20300.65" /><path
       inkscape:connector-curvature="0"
       id="path1271-6"
       style="fill:#000000;fill-opacity:1;fill-rule:nonzero;stroke:#000000;stroke-width:2.93651152;stroke-linecap:butt;stroke-linejoin:miter;stroke-miterlimit:8.9830513;stroke-dasharray:none;stroke-opacity:1"
       d="m 16654.552,10616.233 c 0,-1214.7062 -984.688,-2199.3942 -2199.314,-2199.3942 -1214.812,0 -2199.394,984.688 -2199.394,2199.3942 0,1214.626 984.582,2199.314 2199.394,2199.314 1214.626,0 2199.314,-984.688 2199.314,-2199.314" /><path
       inkscape:connector-curvature="0"
       id="path1275-3"
       style="fill:none;stroke:#ffffff;stroke-width:2.93651152;stroke-linecap:butt;stroke-linejoin:miter;stroke-miterlimit:8.9830513;stroke-dasharray:none;stroke-opacity:1"
       d="m 14467.886,12772.858 v -234.287" /><path
       d="m 14507.765,12106.35 c 253.536,-7.239 445.054,-66.288 436.967,-366.862 -8.273,-300.548 -221.745,-537.539 -474.99,-530.3 -253.325,7.265 -452.187,256.983 -443.093,556.629 9.016,299.726 226.942,347.798 481.116,340.533 z"
       style="fill:#ffffff;fill-opacity:1;fill-rule:nonzero;stroke:none;stroke-width:2.93651152;stroke-miterlimit:8.9830513;stroke-dasharray:none"
       id="path1277-9"
       inkscape:connector-curvature="0" /><path
       inkscape:connector-curvature="0"
       id="path1281-4"
       style="fill:none;stroke:#000000;stroke-width:2.93651152;stroke-linecap:butt;stroke-linejoin:miter;stroke-miterlimit:8.9830513;stroke-dasharray:none;stroke-opacity:1"
       d="m 14087.449,11961.047 -15.432,-98.9" /><path
       d="m 14040.119,12587.677 h 860.916 v -278.832 h -860.916 z"
       style="fill:#ffffff;fill-opacity:1;fill-rule:nonzero;stroke:none;stroke-width:2.93651152;stroke-miterlimit:8.9830513;stroke-dasharray:none"
       id="path1283-8"
       inkscape:connector-curvature="0" /><path
       d="m 14040.119,12271.671 h 860.916 l -158.056,-131.753 h -527.516 z"
       style="fill:#ffffff;fill-opacity:1;fill-rule:nonzero;stroke:none;stroke-width:2.93651152;stroke-miterlimit:8.9830513;stroke-dasharray:none"
       id="path1285-1"
       inkscape:connector-curvature="0" /><path
       d="m 14305.269,12433.253 c 0,-46.109 -47.541,-83.495 -106.06,-83.495 -58.731,0 -106.272,37.386 -106.272,83.495 0,46.19 47.541,83.576 106.272,83.576 58.519,0 106.06,-37.386 106.06,-83.576"
       style="fill:#010202;fill-opacity:1;fill-rule:nonzero;stroke:none;stroke-width:2.93651152;stroke-miterlimit:8.9830513;stroke-dasharray:none"
       id="path1287-2"
       inkscape:connector-curvature="0" /><path
       d="m 14837.532,12433.253 c 0,-46.109 -47.542,-83.495 -106.246,-83.495 -58.731,0 -106.378,37.386 -106.378,83.495 0,46.19 47.647,83.576 106.378,83.576 58.704,0 106.246,-37.386 106.246,-83.576"
       style="fill:#010202;fill-opacity:1;fill-rule:nonzero;stroke:none;stroke-width:2.93651152;stroke-miterlimit:8.9830513;stroke-dasharray:none"
       id="path1289-9"
       inkscape:connector-curvature="0" /><path
       d="m 14065.6,12433.253 c 0,-56.662 -31.685,-102.56 -70.848,-102.56 -39.03,0 -70.742,45.898 -70.742,102.56 0,56.743 31.712,102.64 70.742,102.64 39.163,0 70.848,-45.897 70.848,-102.64"
       style="fill:#ffffff;fill-opacity:1;fill-rule:nonzero;stroke:none;stroke-width:2.93651152;stroke-miterlimit:8.9830513;stroke-dasharray:none"
       id="path1291-3"
       inkscape:connector-curvature="0" /><path
       d="m 15015.58,12433.253 c 0,-56.662 -31.898,-102.56 -70.848,-102.56 -39.242,0 -70.848,45.898 -70.848,102.56 0,56.743 31.606,102.64 70.848,102.64 38.95,0 70.848,-45.897 70.848,-102.64"
       style="fill:#ffffff;fill-opacity:1;fill-rule:nonzero;stroke:none;stroke-width:2.93651152;stroke-miterlimit:8.9830513;stroke-dasharray:none"
       id="path1293-9"
       inkscape:connector-curvature="0" /><path
       d="m 13976.536,12433.253 c 0,11.799 20.921,277.878 20.921,277.878 l 20.92,-277.878 z"
       style="fill:#ffffff;fill-opacity:1;fill-rule:nonzero;stroke:none;stroke-width:2.93651152;stroke-miterlimit:8.9830513;stroke-dasharray:none"
       id="path1295-0"
       inkscape:connector-curvature="0" /><path
       d="m 14923.812,12433.253 c 0,11.799 20.92,277.878 20.92,277.878 l 20.841,-277.878 z"
       style="fill:#ffffff;fill-opacity:1;fill-rule:nonzero;stroke:none;stroke-width:2.93651152;stroke-miterlimit:8.9830513;stroke-dasharray:none"
       id="path1297-8"
       inkscape:connector-curvature="0" /><path
       d="m 14536.957,12737.433 c 0,-28.583 -29.723,-51.677 -66.287,-51.677 -36.538,0 -66.288,23.094 -66.288,51.677 0,28.584 29.75,51.784 66.288,51.784 36.564,0 66.287,-23.2 66.287,-51.784"
       style="fill:#ffffff;fill-opacity:1;fill-rule:nonzero;stroke:none;stroke-width:2.93651152;stroke-miterlimit:8.9830513;stroke-dasharray:none"
       id="path1299-8"
       inkscape:connector-curvature="0" /><path
       d="m 14687.563,12367.894 c 26.409,-9.121 55.416,-9.121 81.825,0 26.409,9.094 48.151,27.231 59.871,49.079 -1.671,-16.36 -16.36,-29.087 -30.864,-39.03 -6.231,-4.56 -13.575,-9.121 -20.92,-12.754 -19.886,-10.049 -42.583,-14.503 -65.359,-11.799 -10.872,0.929 -23.519,5.383 -28.08,13.576 0.928,0.929 2.708,1.855 3.527,2.785"
       style="fill:#ffffff;fill-opacity:1;fill-rule:nonzero;stroke:none;stroke-width:2.93651152;stroke-miterlimit:8.9830513;stroke-dasharray:none"
       id="path1301-5"
       inkscape:connector-curvature="0" /><path
       d="m 14109.323,12410.557 c 8.061,-12.728 21.637,-21.743 36.14,-28.159 16.36,-7.266 34.576,-12.648 52.712,-11.826 32.72,0 61.727,15.431 89.912,30.041 -3.632,-10.871 -11.719,-21.848 -22.59,-28.159 -17.394,-10.897 -40.913,-12.753 -62.761,-13.681 -9.122,-0.821 -18.137,-0.821 -27.125,0.929 -11.826,2.703 -22.803,8.193 -33.78,14.504 -13.47,8.193 -26.303,18.242 -33.462,30.969 -0.927,0.821 -1.961,3.633 0.955,5.383"
       style="fill:#ffffff;fill-opacity:1;fill-rule:nonzero;stroke:none;stroke-width:2.93651152;stroke-miterlimit:8.9830513;stroke-dasharray:none"
       id="path1303-0"
       inkscape:connector-curvature="0" /><path
       d="m 14901.035,12507.707 c 1.856,0.93 13.682,19.993 29.113,21.849 15.326,1.776 41.735,7.265 65.439,-31.792 23.519,-39.03 12.542,-88.136 12.542,-88.136 h -8.087 c 0,0 11.72,44.546 -9.015,81.72 -20.921,37.28 -43.697,34.602 -58.2,30.969 -14.504,-3.632 -21.849,-19.992 -21.849,-19.992 z"
       style="fill:#010202;fill-opacity:1;fill-rule:nonzero;stroke:none;stroke-width:2.93651152;stroke-miterlimit:8.9830513;stroke-dasharray:none"
       id="path1305-9"
       inkscape:connector-curvature="0" /><path
       d="m 14045.608,12509.564 v 72.624 h 122.632 c 0,0.926 -115.261,-3.633 -122.632,-72.624 z"
       style="fill:#010202;fill-opacity:1;fill-rule:nonzero;stroke:none;stroke-width:2.93651152;stroke-miterlimit:8.9830513;stroke-dasharray:none"
       id="path1307-6"
       inkscape:connector-curvature="0" /><path
       d="m 14045.608,11875.696 122.632,176.192 -191.704,38.102 z"
       style="fill:#ffffff;fill-opacity:1;fill-rule:nonzero;stroke:none;stroke-width:2.93651152;stroke-miterlimit:8.9830513;stroke-dasharray:none"
       id="path1309-3"
       inkscape:connector-curvature="0" /><path
       d="m 13993.824,12036.456 c 4.56,-13.682 -69.814,-303.279 -69.814,-303.279 l 141.59,82.568 24.447,167.973 z"
       style="fill:#ffffff;fill-opacity:1;fill-rule:nonzero;stroke:none;stroke-width:2.93651152;stroke-miterlimit:8.9830513;stroke-dasharray:none"
       id="path1311-8"
       inkscape:connector-curvature="0" /><path
       d="m 14918.323,11875.696 -122.526,176.192 190.696,38.102"
       style="fill:#ffffff;fill-opacity:1;fill-rule:nonzero;stroke:none;stroke-width:2.93651152;stroke-miterlimit:8.9830513;stroke-dasharray:none"
       id="path1313-5"
       inkscape:connector-curvature="0" /><path
       inkscape:connector-curvature="0"
       id="path1317-6"
       style="fill:#ffffff;fill-opacity:1;fill-rule:nonzero;stroke:#010202;stroke-width:2.93651152;stroke-linecap:butt;stroke-linejoin:miter;stroke-miterlimit:8.9830513;stroke-dasharray:none;stroke-opacity:1"
       d="m 14565.965,11900.249 c 19.064,-59.977 -154.424,-167.999 -386.748,-242.48 -232.616,-73.526 -241.737,-22.671 -260.696,37.2 -19.064,59.977 -40.806,106.272 191.518,179.799 233.544,74.48 437.71,85.351 455.926,25.481 z" /><path
       d="m 14971.061,12040.062 c -7.371,-12.727 0.82,-310.49 0.82,-310.49 l -119.848,111.628 12.647,169.775 z"
       style="fill:#ffffff;fill-opacity:1;fill-rule:nonzero;stroke:none;stroke-width:2.93651152;stroke-miterlimit:8.9830513;stroke-dasharray:none"
       id="path1319-1"
       inkscape:connector-curvature="0" /><path
       inkscape:connector-curvature="0"
       id="path1323-1"
       style="fill:#ffffff;fill-opacity:1;fill-rule:nonzero;stroke:#010202;stroke-width:2.93651152;stroke-linecap:butt;stroke-linejoin:miter;stroke-miterlimit:8.9830513;stroke-dasharray:none;stroke-opacity:1"
       d="m 14336.133,11825.768 c -14.398,-60.879 167.177,-156.173 404.247,-211.59 236.886,-55.416 242.374,-4.561 256.878,57.166 14.504,60.906 32.719,109.057 -205.094,164.367 -237.998,55.417 -441.421,51.81 -456.031,-9.943 z" /><path
       inkscape:connector-curvature="0"
       id="path1327-5"
       style="fill:none;stroke:#000000;stroke-width:2.93651152;stroke-linecap:butt;stroke-linejoin:miter;stroke-miterlimit:8.9830513;stroke-dasharray:none;stroke-opacity:1"
       d="m 14849.251,11912.048 14.61,-99.007" /><path
       d="m 14506.094,11724.056 c 2.599,9.943 406.74,-106.245 448.581,-51.783 41.761,54.488 18.958,-68.966 -54.568,-67.216 -75.408,9.121 -410.373,59.049 -394.013,118.999 z"
       style="fill:#000000;fill-opacity:1;fill-rule:nonzero;stroke:none;stroke-width:2.93651152;stroke-miterlimit:8.9830513;stroke-dasharray:none"
       id="path1329-9"
       inkscape:connector-curvature="0" /><path
       d="m 13924.01,11733.177 28.079,-79.942 c 0,0 11.799,-20.921 62.655,-16.387 49.928,4.561 197.935,41.868 197.935,41.868 0,0 -256.878,-34.602 -288.669,54.461 z"
       style="fill:#010202;fill-opacity:1;fill-rule:nonzero;stroke:none;stroke-width:2.93651152;stroke-miterlimit:8.9830513;stroke-dasharray:none"
       id="path1331-8"
       inkscape:connector-curvature="0" /><path
       d="m 14104.657,11975.657 c 0,9.015 -14.61,-90.84 -14.61,-90.84 l 223.415,59.871 c 0,0 -212.438,-58.121 -208.805,30.969 z"
       style="fill:#010202;fill-opacity:1;fill-rule:nonzero;stroke:none;stroke-width:2.93651152;stroke-miterlimit:8.9830513;stroke-dasharray:none"
       id="path1333-4"
       inkscape:connector-curvature="0" /><path
       inkscape:connector-curvature="0"
       id="path1337-8"
       style="fill:none;stroke:#ffffff;stroke-width:2.93651152;stroke-linecap:butt;stroke-linejoin:miter;stroke-miterlimit:8.9830513;stroke-dasharray:none;stroke-opacity:1"
       d="m 14954.675,8457.6457 -164.473,-86.28 -157.022,99.0336 7.266,185.1811 164.26,87.2076 157.128,-99.0068 z" /><path
       inkscape:connector-curvature="0"
       id="path1341-1"
       style="fill:none;stroke:#ffffff;stroke-width:2.93651152;stroke-linecap:butt;stroke-linejoin:miter;stroke-miterlimit:8.9830513;stroke-dasharray:none;stroke-opacity:1"
       d="m 14480.613,8747.3487 -164.367,-87.2082 -157.022,99.0074 7.16,186.1352 164.366,86.28 157.128,-98.9276 z" /><path
       inkscape:connector-curvature="0"
       id="path1345-0"
       style="fill:none;stroke:#ffffff;stroke-width:2.93651152;stroke-linecap:butt;stroke-linejoin:miter;stroke-miterlimit:8.9830513;stroke-dasharray:none;stroke-opacity:1"
       d="m 13836.802,8770.0189 7.159,185.3135 164.367,87.1016 157.127,-98.9275 -7.158,-186.2148 -164.473,-86.1737 z" /><path
       inkscape:connector-curvature="0"
       id="path1349-3"
       style="fill:none;stroke:#ffffff;stroke-width:2.93651152;stroke-linecap:butt;stroke-linejoin:miter;stroke-miterlimit:8.9830513;stroke-dasharray:none;stroke-opacity:1"
       d="m 14012.888,9041.5857 7.345,185.2072 164.366,86.2797 157.128,-99.0332 -7.344,-185.1812 -164.261,-86.2797 z" /><path
       inkscape:connector-curvature="0"
       id="path1353-0"
       style="fill:none;stroke:#ffffff;stroke-width:2.93651152;stroke-linecap:butt;stroke-linejoin:miter;stroke-miterlimit:8.9830513;stroke-dasharray:none;stroke-opacity:1"
       d="m 13685.163,9052.4834 7.159,185.1808 163.438,87.2076 157.128,-99.0068 -7.159,-186.1352 -163.438,-86.28 z" /><path
       inkscape:connector-curvature="0"
       id="path1357-4"
       style="fill:none;stroke:#ffffff;stroke-width:2.93651152;stroke-linecap:butt;stroke-linejoin:miter;stroke-miterlimit:8.9830513;stroke-dasharray:none;stroke-opacity:1"
       d="m 14802.108,8738.2276 7.159,185.2865 163.438,86.2803 157.128,-99.0074 -7.159,-185.1808 -163.439,-86.28 z" /><path
       inkscape:connector-curvature="0"
       id="path1361-4"
       style="fill:none;stroke:#ffffff;stroke-width:2.93651152;stroke-linecap:butt;stroke-linejoin:miter;stroke-miterlimit:8.9830513;stroke-dasharray:none;stroke-opacity:1"
       d="m 14978.194,9008.8662 7.344,186.1355 164.287,86.2797 157.208,-98.9276 -7.345,-185.2868 -164.366,-87.2079 z" /><path
       inkscape:connector-curvature="0"
       id="path1365-4"
       style="fill:none;stroke:#ffffff;stroke-width:2.93651152;stroke-linecap:butt;stroke-linejoin:miter;stroke-miterlimit:8.9830513;stroke-dasharray:none;stroke-opacity:1"
       d="m 14950.114,8454.9676 6.337,185.1808 164.367,86.28 157.022,-98.9275 -7.159,-185.2872 -163.439,-86.2797 z" /><path
       inkscape:connector-curvature="0"
       id="path1369-4"
       style="fill:none;stroke:#ffffff;stroke-width:2.93651152;stroke-linecap:butt;stroke-linejoin:miter;stroke-miterlimit:8.9830513;stroke-dasharray:none;stroke-opacity:1"
       d="m 15002.747,9558.2308 7.344,185.2868 164.367,86.28 157.128,-99.0071 -7.451,-185.2076 -164.154,-86.2797 z" /><path
       inkscape:connector-curvature="0"
       id="path1373-7"
       style="fill:none;stroke:#ffffff;stroke-width:2.93651152;stroke-linecap:butt;stroke-linejoin:miter;stroke-miterlimit:8.9830513;stroke-dasharray:none;stroke-opacity:1"
       d="m 15632.054,8983.4912 7.371,186.1355 164.261,86.2797 157.234,-99.0333 -7.372,-185.1811 -164.472,-87.2076 z" /><path
       inkscape:connector-curvature="0"
       id="path1377-6"
       style="fill:none;stroke:#ffffff;stroke-width:2.93651152;stroke-linecap:butt;stroke-linejoin:miter;stroke-miterlimit:8.9830513;stroke-dasharray:none;stroke-opacity:1"
       d="m 14309.83,8481.2702 7.345,185.2871 164.286,86.2797 157.208,-99.0068 -7.345,-185.3135 -164.366,-86.2797 z" /><path
       inkscape:connector-curvature="0"
       id="path1381-3"
       style="fill:none;stroke:#ffffff;stroke-width:2.93651152;stroke-linecap:butt;stroke-linejoin:miter;stroke-miterlimit:8.9830513;stroke-dasharray:none;stroke-opacity:1"
       d="m 15124.451,8727.356 7.238,185.2872 164.473,87.1016 156.915,-98.9008 -7.238,-186.2415 -164.287,-86.2533 z" /><path
       inkscape:connector-curvature="0"
       id="path1385-1"
       style="fill:none;stroke:#ffffff;stroke-width:2.93651152;stroke-linecap:butt;stroke-linejoin:miter;stroke-miterlimit:8.9830513;stroke-dasharray:none;stroke-opacity:1"
       d="m 14328.072,9027.0024 7.239,185.2868 164.366,87.2079 157.022,-99.0071 -7.132,-186.1355 -164.393,-86.2797 z" /><path
       inkscape:connector-curvature="0"
       id="path1389-7"
       style="fill:none;stroke:#ffffff;stroke-width:2.93651152;stroke-linecap:butt;stroke-linejoin:miter;stroke-miterlimit:8.9830513;stroke-dasharray:none;stroke-opacity:1"
       d="m 14651.317,9016.1311 7.344,186.2151 164.367,86.1737 157.128,-98.9009 -7.451,-185.3135 -164.26,-87.1016 z" /><path
       inkscape:connector-curvature="0"
       id="path1393-5"
       style="fill:none;stroke:#ffffff;stroke-width:2.93651152;stroke-linecap:butt;stroke-linejoin:miter;stroke-miterlimit:8.9830513;stroke-dasharray:none;stroke-opacity:1"
       d="m 14505.166,9298.5692 7.159,185.1805 164.367,86.2803 156.306,-98.9014 -6.338,-185.313 -164.472,-86.2535 z" /><path
       inkscape:connector-curvature="0"
       id="path1397-9"
       style="fill:none;stroke:#ffffff;stroke-width:2.93651152;stroke-linecap:butt;stroke-linejoin:miter;stroke-miterlimit:8.9830513;stroke-dasharray:none;stroke-opacity:1"
       d="m 13982.025,8491.3196 6.31,186.1087 164.473,86.2797 157.022,-99.0068 -7.133,-185.2073 -163.465,-87.2079 z" /><path
       inkscape:connector-curvature="0"
       id="path1401-6"
       style="fill:none;stroke:#ffffff;stroke-width:2.93651152;stroke-linecap:butt;stroke-linejoin:miter;stroke-miterlimit:8.9830513;stroke-dasharray:none;stroke-opacity:1"
       d="m 14180.887,9313.0726 157.208,-99.0332 -7.345,-185.1812 -164.366,-86.2797 -157.128,99.0072 7.344,185.2072 z" /><path
       inkscape:connector-curvature="0"
       id="path1405-2"
       style="fill:none;stroke:#ffffff;stroke-width:2.93651152;stroke-linecap:butt;stroke-linejoin:miter;stroke-miterlimit:8.9830513;stroke-dasharray:none;stroke-opacity:1"
       d="m 14357.159,9584.6394 157.022,-99.0068 -7.133,-186.1355 -164.393,-86.2797 -157.101,98.9276 7.133,185.2868 z" /><path
       inkscape:connector-curvature="0"
       id="path1409-1"
       style="fill:none;stroke:#ffffff;stroke-width:2.93651152;stroke-linecap:butt;stroke-linejoin:miter;stroke-miterlimit:8.9830513;stroke-dasharray:none;stroke-opacity:1"
       d="m 14029.248,9595.511 156.306,-99.0071 -6.337,-185.2076 -164.473,-87.2079 -157.022,99.0335 7.159,186.1088 z" /><path
       inkscape:connector-curvature="0"
       id="path1413-7"
       style="fill:none;stroke:#ffffff;stroke-width:2.93651152;stroke-linecap:butt;stroke-linejoin:miter;stroke-miterlimit:8.9830513;stroke-dasharray:none;stroke-opacity:1"
       d="m 13502.58,8786.4052 157.208,-99.0336 -7.451,-185.1808 -163.438,-86.2797 -157.022,98.9008 7.371,185.3133 z" /><path
       inkscape:connector-curvature="0"
       id="path1417-8"
       style="fill:none;stroke:#ffffff;stroke-width:2.93651152;stroke-linecap:butt;stroke-linejoin:miter;stroke-miterlimit:8.9830513;stroke-dasharray:none;stroke-opacity:1"
       d="m 13679.674,9057.8657 157.128,-98.9273 -7.345,-185.2871 -164.26,-87.1016 -157.234,98.9008 7.344,186.2415 z" /><path
       inkscape:connector-curvature="0"
       id="path1421-5"
       style="fill:none;stroke:#ffffff;stroke-width:2.93651152;stroke-linecap:butt;stroke-linejoin:miter;stroke-miterlimit:8.9830513;stroke-dasharray:none;stroke-opacity:1"
       d="m 13350.941,9068.8433 157.022,-99.0339 -7.159,-185.2868 -164.473,-86.1737 -156.916,98.9275 7.159,185.2869 z" /><path
       inkscape:connector-curvature="0"
       id="path1425-7"
       style="fill:none;stroke:#ffffff;stroke-width:2.93651152;stroke-linecap:butt;stroke-linejoin:miter;stroke-miterlimit:8.9830513;stroke-dasharray:none;stroke-opacity:1"
       d="m 13523.395,9333.0653 157.234,-99.0336 -7.372,-185.1811 -164.366,-87.2079 -157.128,99.0071 7.451,186.1355 z" /><path
       inkscape:connector-curvature="0"
       id="path1429-4"
       style="fill:none;stroke:#ffffff;stroke-width:2.93651152;stroke-linecap:butt;stroke-linejoin:miter;stroke-miterlimit:8.9830513;stroke-dasharray:none;stroke-opacity:1"
       d="m 13700.594,9603.7038 157.128,-99.0335 -7.344,-185.1808 -164.261,-86.28 -157.234,98.9275 7.345,185.2869 z" /><path
       inkscape:connector-curvature="0"
       id="path1433-1"
       style="fill:none;stroke:#ffffff;stroke-width:2.93651152;stroke-linecap:butt;stroke-linejoin:miter;stroke-miterlimit:8.9830513;stroke-dasharray:none;stroke-opacity:1"
       d="m 13371.755,9615.503 157.128,-99.0068 -7.159,-186.1355 -164.366,-86.2797 -157.128,98.9273 7.159,185.2871 z" /><path
       inkscape:connector-curvature="0"
       id="path1437-8"
       style="fill:none;stroke:#ffffff;stroke-width:2.93651152;stroke-linecap:butt;stroke-linejoin:miter;stroke-miterlimit:8.9830513;stroke-dasharray:none;stroke-opacity:1"
       d="m 13018.575,9076.0818 157.234,-99.0072 -7.371,-186.1354 -164.473,-86.28 -157.021,99.0338 7.344,185.1808 z" /><path
       inkscape:connector-curvature="0"
       id="path1441-5"
       style="fill:none;stroke:#ffffff;stroke-width:2.93651152;stroke-linecap:butt;stroke-linejoin:miter;stroke-miterlimit:8.9830513;stroke-dasharray:none;stroke-opacity:1"
       d="m 13194.847,9346.7203 156.916,-99.0068 -7.239,-185.2871 -163.438,-86.2797 -157.128,99.0068 7.344,185.2871 z" /><path
       inkscape:connector-curvature="0"
       id="path1445-9"
       style="fill:none;stroke:#ffffff;stroke-width:2.93651152;stroke-linecap:butt;stroke-linejoin:miter;stroke-miterlimit:8.9830513;stroke-dasharray:none;stroke-opacity:1"
       d="m 12866.936,9358.546 157.022,-99.0333 -7.159,-186.1087 -164.367,-86.2803 -157.128,98.9011 7.265,185.3132 z" /><path
       inkscape:connector-curvature="0"
       id="path1449-7"
       style="fill:none;stroke:#ffffff;stroke-width:2.93651152;stroke-linecap:butt;stroke-linejoin:miter;stroke-miterlimit:8.9830513;stroke-dasharray:none;stroke-opacity:1"
       d="m 13659.788,8502.1908 7.159,186.1088 164.366,86.28 157.022,-99.0072 -7.159,-186.1354 -164.366,-86.2797 z" /><path
       inkscape:connector-curvature="0"
       id="path1453-5"
       style="fill:none;stroke:#ffffff;stroke-width:2.93651152;stroke-linecap:butt;stroke-linejoin:miter;stroke-miterlimit:8.9830513;stroke-dasharray:none;stroke-opacity:1"
       d="m 12871.39,9355.7354 7.451,185.2868 164.287,86.28 157.102,-99.0068 -7.345,-185.2871 -164.367,-86.1737 z" /><path
       inkscape:connector-curvature="0"
       id="path1457-3"
       style="fill:none;stroke:#ffffff;stroke-width:2.93651152;stroke-linecap:butt;stroke-linejoin:miter;stroke-miterlimit:8.9830513;stroke-dasharray:none;stroke-opacity:1"
       d="m 14029.248,9597.2873 7.345,186.215 164.393,86.2797 157.101,-99.0335 -7.344,-185.2869 -164.367,-87.1019 z" /><path
       inkscape:connector-curvature="0"
       id="path1461-8"
       style="fill:none;stroke:#ffffff;stroke-width:2.93651152;stroke-linecap:butt;stroke-linejoin:miter;stroke-miterlimit:8.9830513;stroke-dasharray:none;stroke-opacity:1"
       d="m 14674.093,9569.2078 7.159,185.1811 164.367,86.2797 157.128,-99.0072 -7.16,-185.2072 -164.472,-86.2533 z" /><path
       inkscape:connector-curvature="0"
       id="path1465-8"
       style="fill:none;stroke:#ffffff;stroke-width:2.93651152;stroke-linecap:butt;stroke-linejoin:miter;stroke-miterlimit:8.9830513;stroke-dasharray:none;stroke-opacity:1"
       d="m 15154.466,9282.2096 7.158,185.2865 164.473,86.28 157.022,-99.0068 -7.133,-185.3136 -164.392,-86.28 z" /><path
       inkscape:connector-curvature="0"
       id="path1469-3"
       style="fill:none;stroke:#ffffff;stroke-width:2.93651152;stroke-linecap:butt;stroke-linejoin:miter;stroke-miterlimit:8.9830513;stroke-dasharray:none;stroke-opacity:1"
       d="m 15483.119,9271.338 7.345,185.1811 164.287,87.2077 157.207,-99.0069 -7.45,-186.1354 -164.261,-86.2797 z" /><path
       inkscape:connector-curvature="0"
       id="path1473-1"
       style="fill:none;stroke:#ffffff;stroke-width:2.93651152;stroke-linecap:butt;stroke-linejoin:miter;stroke-miterlimit:8.9830513;stroke-dasharray:none;stroke-opacity:1"
       d="m 15452.256,8710.9965 7.344,185.2871 164.393,86.2797 157.102,-99.0072 -7.451,-185.2072 -164.367,-86.2797 z" /><path
       inkscape:connector-curvature="0"
       id="path1477-8"
       style="fill:none;stroke:#ffffff;stroke-width:2.93651152;stroke-linecap:butt;stroke-linejoin:miter;stroke-miterlimit:8.9830513;stroke-dasharray:none;stroke-opacity:1"
       d="m 15811.958,9260.4406 7.159,186.1352 163.439,86.28 157.128,-99.0335 -7.159,-185.1812 -163.545,-87.2079 z" /><path
       inkscape:connector-curvature="0"
       id="path1481-9"
       style="fill:none;stroke:#ffffff;stroke-width:2.93651152;stroke-linecap:butt;stroke-linejoin:miter;stroke-miterlimit:8.9830513;stroke-dasharray:none;stroke-opacity:1"
       d="m 15960.92,8970.7641 7.132,186.109 164.473,86.2797 156.915,-99.0071 -7.238,-185.2073 -164.287,-87.2079 z" /><path
       d="m 13210.279,9510.1589 c 106.166,93.5449 272.309,128.969 596.588,-3.606 324.093,-132.575 543.876,-340.559 490.315,-465.8955 -53.64,-125.31 -744.594,-49.9013 -1068.873,82.674 -324.093,132.575 -118.893,285.1159 -18.03,386.8275 z"
       style="fill:#ffffff;fill-opacity:1;fill-rule:nonzero;stroke:none;stroke-width:2.93651152;stroke-miterlimit:8.9830513;stroke-dasharray:none"
       id="path1483-6"
       inkscape:connector-curvature="0" /><path
       d="m 13571.652,9343.0083 c 71.776,62.6549 183.431,86.28 402.18,-2.7045 218.855,-88.9581 365.933,-229.7263 329.687,-313.3014 -36.246,-84.4239 -501.213,-33.5682 -720.068,55.4163 -218.828,88.9575 -79.943,191.5974 -11.799,260.5893 z"
       style="fill:#ffffff;fill-opacity:1;fill-rule:nonzero;stroke:none;stroke-width:2.93651152;stroke-miterlimit:8.9830513;stroke-dasharray:none"
       id="path1485-4"
       inkscape:connector-curvature="0" /><path
       d="m 15707.357,9523.7347 c -108.951,89.9125 -276.022,120.7758 -596.588,-20.8143 -320.567,-141.696 -533.827,-355.9906 -476.634,-479.5505 57.166,-123.4539 745.416,-28.0795 1066.089,112.5829 320.54,140.7679 111.734,287.9261 7.133,387.7819 z"
       style="fill:#ffffff;fill-opacity:1;fill-rule:nonzero;stroke:none;stroke-width:2.93651152;stroke-miterlimit:8.9830513;stroke-dasharray:none"
       id="path1487-3"
       inkscape:connector-curvature="0" /><path
       d="m 15351.472,9345.7924 c -73.632,60.799 -186.215,81.7193 -401.358,-13.6554 -216.15,-95.295 -359.702,-239.6954 -320.646,-323.2708 39.136,-83.5755 502.221,-19.0644 718.371,76.2306 215.143,95.4008 73.553,194.408 3.633,260.6956 z"
       style="fill:#ffffff;fill-opacity:1;fill-rule:nonzero;stroke:none;stroke-width:2.93651152;stroke-miterlimit:8.9830513;stroke-dasharray:none"
       id="path1489-3"
       inkscape:connector-curvature="0" /><path
       inkscape:connector-curvature="0"
       id="path1493-3"
       style="fill:#ffffff;fill-opacity:1;fill-rule:nonzero;stroke:#0000ff;stroke-width:2.93651152;stroke-linecap:butt;stroke-linejoin:miter;stroke-miterlimit:8.9830513;stroke-dasharray:none;stroke-opacity:1"
       d="m 14019.305,9259.5127 c -3.633,263.2938 211.59,658.3148 405.998,661.125 194.222,2.681 378.581,-386.854 382.293,-650.254 3.632,-263.3734 -174.416,-300.5743 -368.718,-303.2521 -194.408,-2.8102 -415.941,29.0072 -419.573,292.3811 z" /><path
       d="m 14939.243,9300.3191 c -93.624,-58.9165 -159.912,-117.9653 -148.007,-130.6924 11.72,-13.6818 96.223,23.5984 189.768,82.6472 93.413,59.0224 159.7,117.9655 148.007,130.7191 -10.898,13.6551 -96.329,-23.6251 -189.768,-82.6739 z"
       style="fill:#000000;fill-opacity:1;fill-rule:nonzero;stroke:none;stroke-width:2.93651152;stroke-miterlimit:8.9830513;stroke-dasharray:none"
       id="path1495-8"
       inkscape:connector-curvature="0" /><path
       d="m 14901.035,9444.7199 c 116.216,-24.4467 210.662,-53.5602 210.662,-64.4314 0,-10.8713 -95.295,0.9309 -211.59,25.3747 -116.215,24.5527 -210.582,53.64 -210.582,64.5377 0,10.871 94.367,-0.9543 211.51,-25.481 z"
       style="fill:#000000;fill-opacity:1;fill-rule:nonzero;stroke:none;stroke-width:2.93651152;stroke-miterlimit:8.9830513;stroke-dasharray:none"
       id="path1497-6"
       inkscape:connector-curvature="0" /><path
       d="m 15085.394,9360.2961 c -15.432,18.1362 -16.36,39.9844 -0.928,49.1058 14.503,8.9887 39.136,1.7502 54.568,-15.5379 15.431,-18.1362 16.28,-39.8787 0.848,-48.9995 -14.61,-9.9434 -39.056,-2.7046 -54.488,15.4316 z"
       style="fill:#000000;fill-opacity:1;fill-rule:nonzero;stroke:none;stroke-width:2.93651152;stroke-miterlimit:8.9830513;stroke-dasharray:none"
       id="path1499-0"
       inkscape:connector-curvature="0" /><path
       d="m 14720.388,9174.1606 c 20.921,36.2727 64.432,55.4164 97.151,41.7614 32.64,-13.5758 40.913,-54.4888 19.993,-90.8407 -20.921,-36.246 -64.511,-55.4164 -97.152,-41.7346 -32.825,13.5493 -40.912,54.462 -19.992,90.8139 z"
       style="fill:#000000;fill-opacity:1;fill-rule:nonzero;stroke:none;stroke-width:2.93651152;stroke-miterlimit:8.9830513;stroke-dasharray:none"
       id="path1501-4"
       inkscape:connector-curvature="0" /><path
       d="m 14960.906,9481.0719 c -93.439,-59.0488 -159.727,-118.0713 -148.007,-130.7191 11.8,-13.6818 96.409,23.6251 189.848,82.5415 93.518,59.0489 159.806,118.0713 148.006,130.8248 -10.871,12.7275 -96.223,-23.6248 -189.847,-82.6472 z"
       style="fill:#000000;fill-opacity:1;fill-rule:nonzero;stroke:none;stroke-width:2.93651152;stroke-miterlimit:8.9830513;stroke-dasharray:none"
       id="path1503-8"
       inkscape:connector-curvature="0" /><path
       d="m 14922.777,9624.5181 c 116.215,-24.4467 210.768,-53.5605 210.768,-64.4314 0,-10.871 -95.374,0.9308 -211.696,25.3749 -116.109,24.5528 -210.661,53.6663 -210.661,64.5375 0,10.871 94.552,0 211.589,-25.481 z"
       style="fill:#000000;fill-opacity:1;fill-rule:nonzero;stroke:none;stroke-width:2.93651152;stroke-miterlimit:8.9830513;stroke-dasharray:none"
       id="path1505-8"
       inkscape:connector-curvature="0" /><path
       d="m 15107.242,9540.0943 c -15.432,18.1365 -16.466,39.9847 -1.033,48.9998 14.61,9.1211 39.056,1.8559 54.488,-15.4316 15.432,-18.1365 16.36,-39.8788 0.931,-49.0001 -15.432,-9.0944 -38.951,-2.6811 -54.383,15.4319 z"
       style="fill:#000000;fill-opacity:1;fill-rule:nonzero;stroke:none;stroke-width:2.93651152;stroke-miterlimit:8.9830513;stroke-dasharray:none"
       id="path1507-8"
       inkscape:connector-curvature="0" /><path
       d="m 14742.051,9353.9853 c 20.92,36.2462 64.617,55.4166 97.257,41.7345 32.719,-13.6812 40.807,-54.4881 19.887,-90.8401 -20.709,-36.2459 -64.432,-55.4166 -97.152,-41.7345 -32.534,13.5755 -40.7,54.4881 -19.992,90.8401 z"
       style="fill:#000000;fill-opacity:1;fill-rule:nonzero;stroke:none;stroke-width:2.93651152;stroke-miterlimit:8.9830513;stroke-dasharray:none"
       id="path1509-9"
       inkscape:connector-curvature="0" /><path
       d="m 14940.171,9627.3022 c -93.625,-59.0224 -159.912,-118.0715 -148.007,-130.7983 11.72,-13.5758 96.223,23.5983 189.662,82.6472 93.519,59.0221 159.806,118.0712 148.007,130.8248 -11.72,12.6211 -96.223,-23.6248 -189.662,-82.6737 z"
       style="fill:#000000;fill-opacity:1;fill-rule:nonzero;stroke:none;stroke-width:2.93651152;stroke-miterlimit:8.9830513;stroke-dasharray:none"
       id="path1511-7"
       inkscape:connector-curvature="0" /><path
       d="m 14901.035,9771.7031 c 116.216,-24.553 210.662,-53.6665 210.662,-64.5377 0,-10.871 -95.295,0.9279 -211.59,25.481 -116.215,24.4467 -210.582,53.5602 -210.582,64.4317 0.925,10.871 95.295,-0.9309 211.51,-25.375 z"
       style="fill:#000000;fill-opacity:1;fill-rule:nonzero;stroke:none;stroke-width:2.93651152;stroke-miterlimit:8.9830513;stroke-dasharray:none"
       id="path1513-7"
       inkscape:connector-curvature="0" /><path
       d="m 15085.394,9687.1733 c -15.432,18.2419 -16.36,39.9844 -0.928,49.1055 14.503,9.0151 39.136,1.7502 54.568,-15.4316 15.431,-18.2422 16.28,-39.9848 0.848,-49.1059 -15.431,-9.015 -39.056,-2.681 -54.488,15.432 z"
       style="fill:#000000;fill-opacity:1;fill-rule:nonzero;stroke:none;stroke-width:2.93651152;stroke-miterlimit:8.9830513;stroke-dasharray:none"
       id="path1515-6"
       inkscape:connector-curvature="0" /><path
       d="m 14720.388,9501.0643 c 20.921,36.3522 64.432,55.3899 97.151,41.7345 32.64,-13.5757 40.913,-54.4884 19.993,-90.7343 -20.921,-36.352 -64.511,-55.4164 -97.152,-41.8406 -31.897,12.7271 -40.912,53.6397 -19.992,90.8404 z"
       style="fill:#000000;fill-opacity:1;fill-rule:nonzero;stroke:none;stroke-width:2.93651152;stroke-miterlimit:8.9830513;stroke-dasharray:none"
       id="path1517-4"
       inkscape:connector-curvature="0" /><path
       d="m 13895.745,9288.5199 c 95.48,-56.2381 163.438,-113.5109 152.567,-127.0867 -10.765,-13.6815 -97.045,20.9206 -192.552,77.1589 -95.189,56.3443 -163.438,113.5109 -152.567,127.1924 11.905,13.5757 98.185,-20.92 192.552,-77.2646 z"
       style="fill:#000000;fill-opacity:1;fill-rule:nonzero;stroke:none;stroke-width:2.93651152;stroke-miterlimit:8.9830513;stroke-dasharray:none"
       id="path1519-3"
       inkscape:connector-curvature="0" /><path
       d="m 13930.347,9433.8223 c -116.321,-28.1591 -209.76,-59.8444 -208.806,-69.8937 0.716,-10.871 94.341,3.606 210.556,31.7912 116.215,28.1591 209.734,59.9771 208.806,69.9204 0,10.0491 -94.261,-3.6324 -210.556,-31.8179 z"
       style="fill:#000000;fill-opacity:1;fill-rule:nonzero;stroke:none;stroke-width:2.93651152;stroke-miterlimit:8.9830513;stroke-dasharray:none"
       id="path1521-0"
       inkscape:connector-curvature="0" /><path
       d="m 13748.666,9343.9362 c 14.504,18.2158 14.504,40.9127 0,49.0794 -14.504,9.0151 -38.95,0.8487 -54.382,-17.2878 -15.432,-18.1365 -14.61,-40.8067 0,-48.9995 15.432,-9.095 39.878,-1.8559 54.382,17.2079 z"
       style="fill:#000000;fill-opacity:1;fill-rule:nonzero;stroke:none;stroke-width:2.93651152;stroke-miterlimit:8.9830513;stroke-dasharray:none"
       id="path1523-3"
       inkscape:connector-curvature="0" /><path
       d="m 14119.266,9168.6723 c -21.768,36.3784 -66.287,53.5602 -98.105,39.0562 -31.898,-14.5034 -39.985,-55.4161 -17.394,-91.6623 22.882,-36.352 66.394,-53.6398 98.185,-39.0565 31.791,14.5037 38.951,55.3101 17.314,91.6626 z"
       style="fill:#000000;fill-opacity:1;fill-rule:nonzero;stroke:none;stroke-width:2.93651152;stroke-miterlimit:8.9830513;stroke-dasharray:none"
       id="path1525-0"
       inkscape:connector-curvature="0" /><path
       d="m 13869.548,9468.3183 c 95.268,-56.2386 163.332,-113.5108 152.541,-127.0866 -10.871,-13.6551 -97.151,20.9203 -192.632,77.1589 -95.295,56.3443 -163.438,113.5373 -152.567,127.1923 10.871,12.6479 97.151,-20.9205 192.658,-77.2646 z"
       style="fill:#000000;fill-opacity:1;fill-rule:nonzero;stroke:none;stroke-width:2.93651152;stroke-miterlimit:8.9830513;stroke-dasharray:none"
       id="path1527-9"
       inkscape:connector-curvature="0" /><path
       d="m 13904.017,9612.7189 c -116.188,-28.0795 -209.733,-59.8707 -208.805,-69.9201 0.848,-10.8709 94.261,3.6328 210.582,31.7916 116.295,28.1855 209.734,59.9768 208.806,69.9201 -0.847,10.977 -95.295,-3.6325 -210.583,-31.7916 z"
       style="fill:#000000;fill-opacity:1;fill-rule:nonzero;stroke:none;stroke-width:2.93651152;stroke-miterlimit:8.9830513;stroke-dasharray:none"
       id="path1529-2"
       inkscape:connector-curvature="0" /><path
       d="m 13721.541,9523.7347 c 14.477,18.2425 14.477,40.9127 0,49.1055 -14.61,8.1668 -39.162,0.8223 -54.594,-17.3142 -15.432,-18.1095 -14.61,-40.8064 0,-48.9731 14.504,-8.1932 39.984,-1.8823 54.594,17.1818 z"
       style="fill:#000000;fill-opacity:1;fill-rule:nonzero;stroke:none;stroke-width:2.93651152;stroke-miterlimit:8.9830513;stroke-dasharray:none"
       id="path1531-5"
       inkscape:connector-curvature="0" /><path
       d="m 14092.009,9347.5687 c -21.848,36.3522 -66.288,53.6401 -98.185,39.0303 -31.792,-14.5037 -39.879,-55.4163 -17.288,-91.6626 22.777,-36.3519 66.288,-53.5338 98.079,-39.03 31.792,14.4773 39.136,56.2386 17.394,91.6623 z"
       style="fill:#000000;fill-opacity:1;fill-rule:nonzero;stroke:none;stroke-width:2.93651152;stroke-miterlimit:8.9830513;stroke-dasharray:none"
       id="path1533-4"
       inkscape:connector-curvature="0" /><path
       d="m 13886.624,9614.5751 c 95.401,-56.3443 163.544,-113.5108 152.567,-127.0866 -10.871,-13.6815 -97.151,20.8146 -192.446,77.1589 -95.295,56.2383 -163.438,113.5108 -152.461,127.0863 10.871,13.6815 97.151,-20.814 192.34,-77.1586 z"
       style="fill:#000000;fill-opacity:1;fill-rule:nonzero;stroke:none;stroke-width:2.93651152;stroke-miterlimit:8.9830513;stroke-dasharray:none"
       id="path1535-0"
       inkscape:connector-curvature="0" /><path
       d="m 13920.404,9759.8772 c -116.322,-28.1588 -209.76,-59.9503 -209.018,-69.8937 0.928,-10.9769 94.446,3.6064 210.662,31.7916 116.321,28.0531 209.84,59.8708 208.912,69.9204 0,10.871 -94.367,-3.6325 -210.556,-31.8183 z"
       style="fill:#000000;fill-opacity:1;fill-rule:nonzero;stroke:none;stroke-width:2.93651152;stroke-miterlimit:8.9830513;stroke-dasharray:none"
       id="path1537-5"
       inkscape:connector-curvature="0" /><path
       d="m 13738.617,9669.9915 c 14.61,18.1094 14.61,40.8063 0,48.9731 -14.504,9.1214 -38.951,0.9543 -54.382,-17.1819 -15.432,-18.2422 -14.504,-40.9126 0,-49.1055 15.431,-8.9886 39.878,-0.9309 54.382,17.3143 z"
       style="fill:#000000;fill-opacity:1;fill-rule:nonzero;stroke:none;stroke-width:2.93651152;stroke-miterlimit:8.9830513;stroke-dasharray:none"
       id="path1539-9"
       inkscape:connector-curvature="0" /><path
       d="m 14109.323,9494.7273 c -21.874,36.2723 -66.499,53.5602 -98.105,39.0564 -31.898,-14.6097 -39.958,-55.416 -17.394,-91.7686 21.848,-36.3519 66.287,-53.5338 98.185,-39.0562 31.792,14.5035 38.951,55.4161 17.314,91.7684 z"
       style="fill:#000000;fill-opacity:1;fill-rule:nonzero;stroke:none;stroke-width:2.93651152;stroke-miterlimit:8.9830513;stroke-dasharray:none"
       id="path1541-4"
       inkscape:connector-curvature="0" /><path
       inkscape:connector-curvature="0"
       id="path1545-6"
       style="fill:#ffffff;fill-opacity:1;fill-rule:nonzero;stroke:#010202;stroke-width:2.93651152;stroke-linecap:butt;stroke-linejoin:miter;stroke-miterlimit:8.9830513;stroke-dasharray:none;stroke-opacity:1"
       d="m 14575.908,8519.3726 h 28.185 l 3.712,-310.5175 z" /><path
       inkscape:connector-curvature="0"
       id="path1549-9"
       style="fill:#ffffff;fill-opacity:1;fill-rule:nonzero;stroke:#010202;stroke-width:2.93651152;stroke-linecap:butt;stroke-linejoin:miter;stroke-miterlimit:8.9830513;stroke-dasharray:none;stroke-opacity:1"
       d="m 14360.686,8511.2059 h -28.08 l 4.561,-311.4719 z" /><path
       inkscape:connector-curvature="0"
       id="path1553-2"
       style="fill:#000000;fill-opacity:1;fill-rule:nonzero;stroke:#0000ff;stroke-width:2.93651152;stroke-linecap:butt;stroke-linejoin:miter;stroke-miterlimit:8.9830513;stroke-dasharray:none;stroke-opacity:1"
       d="m 14094.607,8658.3645 c -2.597,164.3929 208.09,435.8534 347.798,437.7096 139.919,1.7766 346.869,-263.3739 349.759,-427.7669 2.599,-164.3662 -201.752,-166.1164 -341.46,-167.9993 -138.912,-2.6751 -353.206,-6.3102 -356.097,158.0566 z" /><path
       inkscape:connector-curvature="0"
       id="path1557-2"
       style="fill:#ffffff;fill-opacity:1;fill-rule:nonzero;stroke:#ffffff;stroke-width:2.93651152;stroke-linecap:butt;stroke-linejoin:miter;stroke-miterlimit:8.9830513;stroke-dasharray:none;stroke-opacity:1"
       d="m 14523.814,8732.8509 c -23.763,86.6588 13.472,172.1409 82.65,190.8829 69.291,18.7443 144.387,-36.2477 167.904,-122.9447 23.515,-86.6964 -13.674,-172.0244 -82.764,-190.8847 -69.292,-18.7443 -144.502,36.3581 -167.79,122.9465" /><path
       inkscape:connector-curvature="0"
       id="path1561-4"
       style="fill:#ffffff;fill-opacity:1;fill-rule:nonzero;stroke:#ffffff;stroke-width:2.93651152;stroke-linecap:butt;stroke-linejoin:miter;stroke-miterlimit:8.9830513;stroke-dasharray:none;stroke-opacity:1"
       d="m 14351.787,8730.4523 c -20.997,-87.3139 -94.457,-144.4819 -164.186,-127.6871 -69.708,16.7624 -109.372,101.1889 -88.351,188.3839 21.029,87.3342 94.571,144.4828 164.279,127.7209 69.7,-16.7886 109.367,-101.1029 88.258,-188.4177" /><path
       inkscape:connector-curvature="0"
       id="path1565-7"
       style="fill:#000000;fill-opacity:1;fill-rule:nonzero;stroke:#0000ff;stroke-width:2.93651152;stroke-linecap:butt;stroke-linejoin:miter;stroke-miterlimit:8.9830513;stroke-dasharray:none;stroke-opacity:1"
       d="m 14110.967,9644.5105 h 612.948 l 34.496,-78.9352 -679.235,1.7766 z" /><path
       inkscape:connector-curvature="0"
       id="path1569-7"
       style="fill:#000000;fill-opacity:1;fill-rule:nonzero;stroke:#0000ff;stroke-width:2.93651152;stroke-linecap:butt;stroke-linejoin:miter;stroke-miterlimit:8.9830513;stroke-dasharray:none;stroke-opacity:1"
       d="m 14789.274,9484.6779 21.954,-55.3896 -4.56,-15.432 -787.363,11.7992 34.496,72.7042 z" /><path
       inkscape:connector-curvature="0"
       id="path1573-5"
       style="fill:#000000;fill-opacity:1;fill-rule:nonzero;stroke:#0000ff;stroke-width:2.93651152;stroke-linecap:butt;stroke-linejoin:miter;stroke-miterlimit:8.9830513;stroke-dasharray:none;stroke-opacity:1"
       d="m 14021.161,9341.2317 794.522,-16.3599 -9.015,-91.6623 -787.363,26.3032 z" /><path
       d="m 14615.893,8894.4274 c 15.431,19.0377 51.783,15.4317 80.791,-8.1935 29.193,-23.6245 44.625,-91.6623 24.659,-77.1583 -50.034,37.2802 -120.882,66.2874 -105.45,85.3518 z"
       style="fill:#010202;fill-opacity:1;fill-rule:nonzero;stroke:none;stroke-width:2.93651152;stroke-miterlimit:8.9830513;stroke-dasharray:none"
       id="path1575-4"
       inkscape:connector-curvature="0" /><path
       d="m 14219.095,8883.5561 c 15.432,19.0377 51.784,15.4317 80.792,-8.1931 29.007,-23.6248 44.439,-91.6623 24.446,-77.1589 -50.855,38.1024 -120.775,66.2879 -105.238,85.352 z"
       style="fill:#010202;fill-opacity:1;fill-rule:nonzero;stroke:none;stroke-width:2.93651152;stroke-miterlimit:8.9830513;stroke-dasharray:none"
       id="path1577-8"
       inkscape:connector-curvature="0" /><path
       d="m 13215.661,8440.4639 c -2.784,-3.7388 -5.382,-5.4889 -8.272,-8.1932 -2.599,-1.8559 -6.205,-3.6327 -9.943,-3.6327 -3.633,-0.928 -7.16,-0.928 -10.872,0 -3.632,0.8486 -7.159,1.7765 -10.049,4.4546 -2.598,2.8132 -5.382,4.5607 -7.159,8.1932 -1.856,2.7838 -3.606,6.4166 -3.606,10.049 -0.955,3.6328 -0.955,7.2385 0,10.8713 0.822,3.6325 1.75,7.2388 4.534,9.943 l 53.454,77.2649 14.504,-10.0493 -52.526,-75.3024 c -2.784,-3.7124 -3.712,-6.4166 -2.784,-10.0494 0.928,-3.6057 1.856,-5.4886 4.454,-7.2388 2.89,-1.8558 5.489,-2.7074 8.299,-1.8558 2.678,0.9279 5.489,2.7838 8.061,6.4165 l 52.818,75.3031 14.504,-9.9434 z"
       style="fill:#010202;fill-opacity:1;fill-rule:nonzero;stroke:none;stroke-width:2.93651152;stroke-miterlimit:8.9830513;stroke-dasharray:none"
       id="path1579-1"
       inkscape:connector-curvature="0" /><path
       d="m 13332.805,8475.7819 14.609,-9.0151 -16.465,-76.3367 38.208,61.833 14.503,-9.1214 -63.583,-103.5675 -13.575,8.1931 15.431,76.3103 -38.208,-61.727 -14.503,9.0151 z"
       style="fill:#010202;fill-opacity:1;fill-rule:nonzero;stroke:none;stroke-width:2.93651152;stroke-miterlimit:8.9830513;stroke-dasharray:none"
       id="path1581-2"
       inkscape:connector-curvature="0" /><path
       d="m 13482.588,8349.6235 -15.432,8.1664 1.856,3.6328 c 1.856,3.6324 2.811,7.2649 2.811,9.943 0,3.6328 -2.811,6.4169 -6.444,8.1932 -1.855,0.925 -3.712,1.8558 -5.382,1.8558 -1.962,0 -3.606,-0.9279 -4.561,-1.8558 -1.962,-0.9309 -2.784,-1.7766 -3.712,-3.6328 -0.848,-1.7501 -1.67,-2.7045 -3.632,-4.5604 -0.929,-1.7502 -1.856,-3.6325 -2.599,-5.3823 -0.928,-1.8559 -0.928,-2.7868 -0.928,-4.5607 0,-1.8559 0,-2.7838 0.928,-4.5607 0.743,-1.8559 1.67,-2.6752 3.527,-4.5604 l 9.015,-10.8716 c 2.89,-2.6751 4.56,-6.3102 5.488,-9.1208 0.929,-2.681 1.856,-5.3826 1.856,-8.9886 0,-2.8103 -0.928,-6.4433 -1.856,-9.1214 -0.928,-3.6325 -2.598,-7.2652 -5.488,-10.871 -2.599,-4.5604 -5.383,-8.1934 -8.087,-11.8259 -2.784,-3.606 -6.417,-5.4883 -9.943,-7.2385 -3.713,-1.8559 -7.345,-2.7838 -11.906,-1.8559 -4.454,0 -9.015,1.8559 -13.575,4.5607 -3.712,1.7502 -6.417,4.534 -8.989,7.2385 -2.81,2.7016 -4.667,6.3103 -5.489,9.9433 -0.848,3.6325 -1.882,7.3442 -0.848,10.977 0,3.6325 1.67,7.2649 3.527,10.871 l 2.81,5.3826 15.432,-8.0604 -2.811,-4.5607 c -1.856,-2.8103 -1.856,-5.4887 -1.856,-9.1211 0,-3.6325 2.891,-5.4884 6.417,-8.1932 2.784,-1.7501 4.455,-1.7501 6.417,-1.7501 1.856,0 3.526,0 4.454,1.7501 1.034,1.8823 2.705,2.7075 4.561,4.5607 0.928,1.7766 2.81,3.6325 3.632,6.337 1.75,2.7867 2.784,5.4886 3.712,7.2388 0.955,1.8559 0.955,3.7385 0.955,5.4883 0,1.8559 -0.955,2.7046 -0.955,4.5604 -0.928,0.9309 -1.962,2.6811 -3.712,4.5607 l -8.193,9.9434 c -5.488,6.4165 -7.238,11.7991 -7.238,18.2157 0,6.337 1.75,11.8259 5.382,18.1362 1.856,3.6325 4.561,7.2385 8.273,10.8713 2.598,2.7074 6.443,5.4886 10.049,6.3105 3.527,1.8823 7.159,1.8823 11.826,1.8823 4.454,0 8.166,-1.8823 12.515,-3.6324 3.632,-1.8559 7.451,-4.5607 9.121,-7.2391 2.784,-2.7016 4.561,-6.4427 5.489,-10.0488 0.928,-3.6324 0.928,-7.2655 0.928,-10.8979 0,-3.6061 -0.928,-6.3103 -2.678,-9.9431 z"
       style="fill:#010202;fill-opacity:1;fill-rule:nonzero;stroke:none;stroke-width:2.93651152;stroke-miterlimit:8.9830513;stroke-dasharray:none"
       id="path1583-8"
       inkscape:connector-curvature="0" /><path
       d="m 13550.625,8322.3923 c 1.963,4.5343 4.561,8.1668 7.451,10.8713 2.599,2.6752 6.231,4.5607 9.943,5.4886 3.633,0.8222 7.159,1.7502 10.792,0.8222 3.712,-0.8222 7.239,-0.8222 10.155,-2.7074 2.572,-1.7502 6.205,-3.6058 8.989,-6.3106 2.704,-2.7838 4.56,-5.4886 6.443,-9.1211 1.644,-3.6063 1.644,-7.2388 1.644,-10.8712 0,-3.6328 -0.822,-8.1665 -2.599,-12.7272 l -26.303,-58.1209 c -1.962,-4.5604 -4.56,-8.1667 -8.272,-10.8712 -2.705,-2.7838 -6.231,-4.5607 -9.943,-5.4884 -3.739,-0.9279 -7.266,-1.7501 -10.872,-0.9279 -3.738,0 -7.371,0.9279 -9.943,2.7838 -3.738,1.7766 -6.443,3.6325 -9.227,6.337 -2.598,2.6752 -4.561,5.4889 -6.204,9.0947 -1.883,3.6327 -2.811,7.2652 -2.811,10.8977 0,3.606 0.928,8.1667 2.811,12.7271 z m -10.871,-65.3594 c -1.644,-3.7384 -1.644,-7.3712 -0.822,-10.0493 0.822,-2.7075 3.712,-4.5604 6.311,-6.337 2.811,-1.8559 5.489,-1.8559 9.121,-0.9279 3.712,0.9279 5.383,2.7074 7.345,7.2649 l 26.303,58.0942 c 1.67,3.6324 1.67,7.2655 0.954,10.0496 -0.954,2.7045 -3.738,4.4544 -6.443,6.3103 -2.784,1.8823 -5.382,1.8823 -8.988,0.9543 -2.917,-0.9543 -5.515,-2.8102 -7.372,-7.2649 z"
       style="fill:#010202;fill-opacity:1;fill-rule:nonzero;stroke:none;stroke-width:2.93651152;stroke-miterlimit:8.9830513;stroke-dasharray:none"
       id="path1585-9"
       inkscape:connector-curvature="0" /><path
       d="m 13684.235,8296.063 16.359,-6.4166 -37.28,-97.1509 31.898,-11.7992 -6.417,-16.3599 -48.257,18.2157 z"
       style="fill:#010202;fill-opacity:1;fill-rule:nonzero;stroke:none;stroke-width:2.93651152;stroke-miterlimit:8.9830513;stroke-dasharray:none"
       id="path1587-3"
       inkscape:connector-curvature="0" /><path
       d="m 13799.522,8254.2224 24.553,-7.2388 c 9.094,-2.7075 15.431,-7.2649 19.144,-14.5034 3.526,-7.2653 3.526,-14.5038 0.741,-24.5531 l -16.174,-54.4884 c -3.818,-10.871 -8.273,-18.1095 -15.538,-21.7419 -7.344,-3.6328 -15.431,-3.6328 -25.375,-0.9309 l -22.776,7.2388 z m -13.576,-105.3177 7.159,-2.7075 c 4.667,-1.8558 8.273,-0.925 10.977,0.9309 2.785,1.7766 4.455,5.3826 6.311,9.943 l 17.394,56.3444 c 1.67,4.5607 1.67,8.1931 0,11.7992 -1.962,3.6324 -3.712,5.409 -9.095,7.2652 l -7.265,2.681 z"
       style="fill:#010202;fill-opacity:1;fill-rule:nonzero;stroke:none;stroke-width:2.93651152;stroke-miterlimit:8.9830513;stroke-dasharray:none"
       id="path1589-6"
       inkscape:connector-curvature="0" /><path
       d="m 13925.68,8218.7984 50.856,-11.7992 -3.633,-16.3599 -33.461,7.3448 -8.273,-34.6021 29.193,-6.3106 -3.712,-16.3596 -29.114,6.4166 -8.087,-34.6024 33.568,-7.2385 -3.632,-17.1818 -50.856,11.7992 z"
       style="fill:#010202;fill-opacity:1;fill-rule:nonzero;stroke:none;stroke-width:2.93651152;stroke-miterlimit:8.9830513;stroke-dasharray:none"
       id="path1591-8"
       inkscape:connector-curvature="0" /><path
       d="m 14045.608,8195.2 27.337,-4.5607 c 19.992,-2.7045 28.079,-16.2803 25.375,-39.8784 -0.821,-7.265 -2.785,-12.7539 -6.311,-17.3146 -3.633,-4.5337 -7.345,-8.1664 -13.655,-9.9163 l 10.022,-57.2992 -18.215,2.8102 -8.087,53.5341 -10.05,1.7766 -8.272,-50.8557 -17.103,2.7838 z m 9.015,-56.2383 10.049,-1.8823 c 2.785,-0.928 5.489,0 7.345,0 1.671,0.9309 3.526,1.8823 4.56,2.8102 0.93,1.7502 1.777,3.6061 2.598,5.3826 0.929,1.8559 0.929,4.5602 1.855,8.1665 1.035,3.6327 1.035,5.4886 1.035,8.1928 0,2.7075 0,4.5607 -1.035,6.3109 -0.926,1.8823 -1.855,3.6325 -3.526,4.5607 -1.961,0.9279 -4.561,1.8559 -7.345,2.7016 l -9.121,0.9309 z"
       style="fill:#010202;fill-opacity:1;fill-rule:nonzero;stroke:none;stroke-width:2.93651152;stroke-miterlimit:8.9830513;stroke-dasharray:none"
       id="path1593-0"
       inkscape:connector-curvature="0" /><path
       d="m 14176.327,8177.9914 17.287,-1.8558 -9.943,-120.7758 -17.287,1.8823 z"
       style="fill:#010202;fill-opacity:1;fill-rule:nonzero;stroke:none;stroke-width:2.93651152;stroke-miterlimit:8.9830513;stroke-dasharray:none"
       id="path1595-2"
       inkscape:connector-curvature="0" /><path
       d="m 14269.023,8172.5031 h 16.36 l 25.375,-73.5261 1.035,72.5979 h 17.102 l -1.672,-121.5977 h -16.465 l -25.375,73.5528 -0.927,-72.7309 h -17.181 z"
       style="fill:#010202;fill-opacity:1;fill-rule:nonzero;stroke:none;stroke-width:2.93651152;stroke-miterlimit:8.9830513;stroke-dasharray:none"
       id="path1597-1"
       inkscape:connector-curvature="0" /><path
       d="m 14405.337,8144.3443 c 0,4.5604 0,9.0944 1.645,12.7271 1.961,3.6325 3.632,7.265 6.522,10.0491 2.596,2.7074 5.383,4.4544 8.909,6.3108 3.633,1.7766 7.345,2.7075 10.049,2.7075 3.633,0 7.345,0 10.872,-0.9279 3.632,-0.8487 6.416,-2.7016 9.943,-4.4547 2.915,-2.8103 5.488,-5.4884 7.371,-9.1211 1.75,-3.6325 2.675,-8.1932 3.712,-12.7272 v -6.337 l -17.394,-0.9279 v 6.3106 c 0,4.5607 -1.776,7.3712 -3.632,9.1214 -2.57,1.8558 -5.489,2.7016 -8.061,2.7016 -3.738,0 -5.515,-0.8487 -8.299,-3.6325 -1.671,-1.7502 -3.527,-5.3826 -2.596,-9.0151 l 3.526,-63.5834 c 0,-4.5604 1.856,-7.2649 3.633,-9.1211 1.856,-1.7502 5.383,-2.7045 8.273,-2.7045 2.596,0 5.382,0.9543 8.087,3.6324 1.856,1.8559 3.633,5.489 2.81,9.1214 l -0.957,22.6702 -13.655,-0.925 -0.822,15.4317 30.863,1.8823 1.75,-38.2349 c 0,-4.4544 0,-9.0151 -1.75,-12.6211 -1.777,-3.6325 -3.739,-7.2652 -6.337,-10.0493 -2.784,-2.7075 -5.489,-4.5607 -9.095,-6.3367 -3.738,-1.8559 -7.371,-2.6811 -9.943,-2.6811 -3.738,0 -7.371,0 -11.003,0.8222 -3.713,0.9309 -6.311,2.8103 -9.944,4.5607 -3.712,1.8559 -5.488,5.4887 -7.344,9.1211 -1.856,3.6064 -2.596,8.1668 -3.527,12.7275 z"
       style="fill:#010202;fill-opacity:1;fill-rule:nonzero;stroke:none;stroke-width:2.93651152;stroke-miterlimit:8.9830513;stroke-dasharray:none"
       id="path1599-0"
       inkscape:connector-curvature="0" /><path
       d="m 14687.563,8163.382 -17.182,-1.7502 v 3.6328 c 0,3.606 -1.777,7.2385 -3.633,9.9427 -1.75,2.7868 -5.488,3.7124 -10.049,3.7124 -2.596,0 -4.56,-0.928 -5.382,-1.8559 -1.751,-0.9309 -2.705,-2.7075 -2.705,-3.6325 -0.925,-1.8558 -0.925,-3.606 -0.925,-5.4886 0,-1.7502 0,-3.6063 0,-5.3826 0,-2.7868 0.925,-4.5607 0.925,-6.4166 0,-1.7502 0.957,-2.7075 1.777,-4.5607 0.928,-0.8222 1.75,-1.7502 3.712,-2.6752 1.671,-0.9543 3.526,-1.7765 5.489,-1.7765 l 13.575,-3.6325 c 3.527,-0.9309 7.159,-2.7838 9.943,-4.5343 2.708,-1.8823 4.455,-3.6324 6.417,-6.443 1.777,-2.6751 2.596,-5.3823 3.526,-8.9886 1.034,-3.6325 1.856,-7.2653 1.856,-11.8257 0.852,-5.4886 0.852,-10.049 0,-14.6097 -0.822,-4.4544 -1.856,-8.0604 -3.712,-11.7992 -1.671,-3.6325 -4.56,-6.3108 -8.087,-8.0871 -3.632,-1.8559 -8.166,-3.7121 -13.576,-4.534 -4.533,-0.9544 -8.272,0 -11.905,0.8222 -3.526,0.9279 -7.238,2.7838 -9.943,4.5604 -2.784,1.8559 -5.489,5.4886 -7.344,8.1664 -1.671,3.6328 -2.596,7.2653 -3.633,10.8716 l -0.928,6.443 17.394,1.7502 0.928,-5.3827 c 0,-2.8102 1.671,-5.4883 3.526,-8.1928 1.962,-2.6811 5.489,-3.6064 9.943,-2.6811 2.811,0 5.595,0.8193 6.523,1.7502 1.671,0.9279 2.599,2.7045 3.527,3.6328 0.925,1.8558 0.925,3.6324 0.925,5.4883 0,2.681 0,4.5607 -0.925,7.2385 0,2.7075 -0.928,5.3826 -0.928,8.1934 -0.931,1.7502 -0.931,3.6325 -1.75,4.5607 -0.852,0.8193 -1.777,1.7502 -3.739,2.6752 -1.671,0.9573 -3.633,0.9573 -5.383,1.7766 l -12.648,3.712 c -8.272,1.7766 -13.761,5.3827 -16.465,9.9431 -2.57,4.5607 -5.383,10.8979 -6.311,18.1364 -0.925,4.5604 0,9.1211 0,12.7272 0.82,4.5607 1.856,8.1931 4.561,10.8974 1.75,3.6063 4.454,5.4889 8.273,8.1667 3.526,1.8823 7.98,3.6325 12.541,4.5607 4.561,0.9279 8.273,0 11.799,-0.9309 3.633,-0.9279 7.372,-2.7074 10.05,-5.3823 2.701,-2.8102 5.488,-5.4886 7.344,-8.1935 1.671,-2.7838 2.596,-6.4165 2.596,-10.049 z"
       style="fill:#010202;fill-opacity:1;fill-rule:nonzero;stroke:none;stroke-width:2.93651152;stroke-miterlimit:8.9830513;stroke-dasharray:none"
       id="path1601-5"
       inkscape:connector-curvature="0" /><path
       d="m 14755.812,8206.9992 17.209,1.8559 15.431,-119.8212 -17.208,-2.8102 z"
       style="fill:#010202;fill-opacity:1;fill-rule:nonzero;stroke:none;stroke-width:2.93651152;stroke-miterlimit:8.9830513;stroke-dasharray:none"
       id="path1603-1"
       inkscape:connector-curvature="0" /><path
       d="m 14847.581,8219.7263 16.28,2.7045 37.174,-68.0375 -10.871,72.5982 17.182,2.6752 19.064,-119.8211 -16.36,-2.7075 -37.094,68.0639 10.871,-71.6696 -17.288,-2.7075 z"
       style="fill:#010202;fill-opacity:1;fill-rule:nonzero;stroke:none;stroke-width:2.93651152;stroke-miterlimit:8.9830513;stroke-dasharray:none"
       id="path1605-1"
       inkscape:connector-curvature="0" /><path
       d="m 15050.898,8158.9273 c 0.928,-3.606 0.928,-7.3445 0,-10.977 -0.925,-3.606 -1.856,-7.2385 -4.455,-9.9433 -1.961,-2.6751 -4.56,-5.4886 -7.451,-7.2385 -2.595,-1.8559 -6.31,-3.6324 -9.943,-4.5607 -3.526,-0.9279 -6.31,-0.9279 -9.943,-0.9279 -3.526,0 -7.344,0.9279 -10.049,2.7838 -2.598,1.7766 -5.382,4.4547 -8.087,7.2655 -2.784,3.6325 -4.534,7.2385 -5.383,12.6211 l -11.905,65.4655 c -0.928,3.6324 -0.928,7.2652 0,10.8709 0.928,3.6328 1.856,7.2652 3.633,9.9433 1.75,2.8103 4.561,5.4887 7.345,7.2653 2.596,1.8558 6.31,3.7117 10.871,4.5607 3.526,0.9308 7.159,0.9308 10.871,0 3.632,-0.8487 7.159,-1.7766 10.049,-4.5607 2.596,-1.7766 5.409,-4.4544 7.159,-8.0872 1.856,-3.7388 3.739,-7.3448 4.561,-10.9773 l 0.822,-6.3105 -17.102,-3.6328 -0.928,5.3826 c -0.928,3.7388 -1.962,6.4166 -4.561,8.1932 -2.784,1.8559 -5.382,2.7838 -8.272,1.8559 -4.455,-0.9309 -7.159,-2.7075 -8.087,-5.4887 -0.925,-2.7045 -0.925,-6.3105 0,-9.9433 l 11.719,-60.905 c 0.928,-3.6324 1.856,-6.3102 3.819,-8.0868 1.67,-1.8559 4.454,-2.7839 8.909,-1.8559 1.033,0 2.701,0.9309 3.632,0.9309 0.928,0.9279 1.856,1.7765 2.89,2.7074 0.848,0.925 1.671,2.6752 1.671,4.5604 0,1.7502 0,3.6061 0,6.3106 l -0.823,5.4886 17.182,3.6328 z"
       style="fill:#010202;fill-opacity:1;fill-rule:nonzero;stroke:none;stroke-width:2.93651152;stroke-miterlimit:8.9830513;stroke-dasharray:none"
       id="path1607-0"
       inkscape:connector-curvature="0" /><path
       d="m 15103.636,8266.0213 50.83,10.898 3.632,-16.28 -33.647,-7.3448 7.238,-34.4961 29.007,6.4165 3.739,-16.3598 -29.113,-6.4166 7.344,-34.4961 33.462,7.2649 3.739,-17.2079 -50.856,-10.871 z"
       style="fill:#010202;fill-opacity:1;fill-rule:nonzero;stroke:none;stroke-width:2.93651152;stroke-miterlimit:8.9830513;stroke-dasharray:none"
       id="path1609-8"
       inkscape:connector-curvature="0" /><path
       d="m 15336.04,8216.1203 12.648,65.3594 c 0.931,3.606 0.931,6.4166 0,8.1667 0,1.8559 -0.849,4.5607 -1.671,8.1932 0,1.8559 -1.033,2.6751 -1.961,4.5607 -0.928,1.7501 -0.928,2.681 -1.856,3.606 -0.74,0.9309 -1.671,1.7766 -3.633,2.7075 -0.822,0.9279 -2.598,0 -5.382,0 -2.708,-0.925 -4.561,-1.7766 -5.489,-3.6325 -0.822,-1.7502 -0.822,-4.5607 0,-7.2388 l 2.784,-9.1211 -16.36,-4.4544 -2.675,9.0151 c -0.846,3.6325 -1.882,7.2385 -0.846,10.0493 0,3.6058 1.671,6.3103 2.596,9.9428 0.925,3.6063 3.739,5.4889 6.311,8.1667 2.81,2.7045 5.594,3.6325 9.121,4.5607 4.56,0.9309 8.272,1.7766 11.905,0.9309 3.526,-0.9309 6.31,-1.8559 9.943,-4.5343 2.707,-1.8823 5.489,-4.5604 7.371,-8.1929 1.645,-3.6324 3.606,-6.4165 4.455,-10.8712 0.822,-2.8103 1.75,-5.4887 1.75,-7.2652 0,-1.8559 0.928,-3.7121 0.928,-5.4884 0,-1.8559 0,-3.606 0,-5.4886 0,-1.7502 -0.928,-4.5607 -0.928,-7.2388 l -9.943,-54.4882 29.936,9.1211 4.56,-16.3596 -49.928,-14.504 z"
       style="fill:#010202;fill-opacity:1;fill-rule:nonzero;stroke:none;stroke-width:2.93651152;stroke-miterlimit:8.9830513;stroke-dasharray:none"
       id="path1611-5"
       inkscape:connector-curvature="0" /><path
       d="m 15432.263,8329.6308 c -1.856,3.6328 -1.856,7.2388 -1.856,10.8716 0,3.6325 0.931,6.3103 2.787,10.049 1.882,2.7075 3.633,5.3826 6.417,7.2385 2.596,1.7766 5.409,3.6328 9.121,4.5607 3.527,0.8457 6.31,1.7766 9.943,1.7766 3.526,0 6.31,-0.9309 9.015,-1.7766 2.784,-0.9309 5.383,-3.712 8.299,-5.4886 2.57,-1.8559 4.428,-5.4886 5.277,-10.0493 l 23.704,-67.1096 c 1.671,-3.6325 1.671,-7.2385 1.671,-10.977 0,-3.6324 -0.74,-6.3105 -2.707,-9.9433 -1.75,-2.681 -3.526,-5.4883 -6.31,-7.2385 -2.596,-1.8823 -5.489,-3.6325 -9.122,-4.5607 -3.526,-0.9279 -6.31,-1.7766 -9.943,-1.7766 -3.526,0 -6.416,0.8457 -9.015,1.7766 -2.787,0.9309 -5.489,3.6063 -8.272,5.4889 -2.596,2.6752 -4.561,5.3827 -5.489,9.9431 z m 39.985,-60.9047 c 0.822,-2.7074 2.784,-3.6324 4.454,-5.3826 1.856,-0.925 4.561,-0.925 6.417,0 2.784,0.9309 3.632,2.681 4.561,4.5607 0.819,1.7502 0.819,4.5604 0,6.3106 l -23.519,67.2152 c -1.034,2.7075 -2.89,3.6328 -4.561,5.3827 -1.961,0.9543 -4.561,0.9543 -6.523,0 -2.569,-0.8223 -3.526,-2.6811 -4.348,-4.4544 -1.033,-1.8559 -1.033,-4.534 0,-6.4166 z"
       style="fill:#010202;fill-opacity:1;fill-rule:nonzero;stroke:none;stroke-width:2.93651152;stroke-miterlimit:8.9830513;stroke-dasharray:none"
       id="path1613-0"
       inkscape:connector-curvature="0" /><path
       d="m 15548.479,8373.2219 c -1.777,3.6324 -2.596,7.2649 -2.596,10.8974 0,3.606 0.819,6.3108 1.671,9.9433 0.931,3.606 2.783,5.4886 5.488,8.1664 2.784,2.8132 5.489,4.5607 8.273,5.489 2.596,0.9279 6.337,1.7765 9.943,1.7765 3.527,0 6.417,0 10.049,-1.7765 2.596,-0.9309 6.311,-2.6811 8.088,-5.489 2.783,-2.6751 4.56,-5.3823 6.31,-9.0148 l 28.291,-65.4392 c 1.645,-3.6325 2.57,-7.2653 2.57,-10.8977 0,-3.6061 -0.931,-6.3106 -1.75,-9.9433 -0.823,-2.7839 -2.702,-5.4884 -5.489,-8.1662 -2.705,-2.7075 -5.276,-4.5607 -8.193,-5.4889 -2.569,-0.928 -6.311,-1.7766 -9.943,-1.7766 -3.527,0 -6.417,0 -9.944,1.7766 -2.783,0.9309 -6.416,2.7838 -8.166,5.4889 -2.813,2.681 -4.561,5.3826 -6.337,9.0151 z m 43.696,-58.0945 c 0.925,-2.7838 2.596,-3.6328 4.561,-4.5607 1.671,-0.9309 4.455,-0.9309 6.31,0 2.596,0.9309 3.633,2.7075 4.561,4.5607 0.957,1.7502 0.957,4.4544 0,6.3106 l -28.265,65.3597 c -0.925,2.8102 -2.596,3.6324 -4.561,4.5604 -1.644,0.925 -4.56,0.925 -6.31,0 -2.707,-0.928 -3.632,-2.6781 -4.561,-4.5604 -0.931,-1.7502 -0.931,-4.5607 0,-6.3109 z"
       style="fill:#010202;fill-opacity:1;fill-rule:nonzero;stroke:none;stroke-width:2.93651152;stroke-miterlimit:8.9830513;stroke-dasharray:none"
       id="path1615-6"
       inkscape:connector-curvature="0" /><path
       d="m 15691.925,8410.4222 c 4.56,2.7838 7.344,4.5607 9.121,6.4166 0.931,1.7501 0.931,5.3826 -0.822,9.0151 l -7.371,13.6553 c -0.931,1.7766 -2.57,3.6325 -4.455,4.5607 -1.856,0.8487 -4.561,0.8487 -6.416,-0.9279 -2.596,-1.8559 -4.561,-3.6325 -4.561,-5.4884 0,-1.7501 0,-4.5607 1.036,-5.3826 l 4.455,-9.1214 -15.432,-8.1667 -4.454,9.095 c -1.962,2.7074 -2.89,6.3366 -2.89,9.943 0,3.6327 0,6.443 0.931,10.0493 0.925,2.7075 2.784,6.337 4.561,9.0151 1.855,2.8102 4.56,4.5604 8.272,6.4163 4.561,1.7766 8.087,2.7074 11.72,2.7074 3.712,0 6.31,-0.9308 9.201,-1.8558 1.67,-0.8458 2.595,-1.7766 4.454,-2.7075 1.777,-0.9309 2.707,-1.7502 3.527,-3.6328 1.033,-1.7501 2.916,-3.6057 4.56,-5.4883 1.962,-1.7502 2.89,-5.3826 4.561,-8.0607 1.961,-3.7385 3.739,-7.371 4.561,-9.1211 0.927,-2.7075 1.855,-4.5607 1.855,-6.3103 0,-1.8823 0,-3.7388 -0.928,-5.4889 -0.93,-1.8823 -1.67,-3.6325 -3.526,-6.337 3.526,0 5.382,-0.9309 7.159,-1.8559 1.856,-0.9309 3.712,-1.8559 5.489,-3.6324 1.75,-1.8559 2.783,-3.6064 4.454,-5.489 1.856,-1.7501 2.784,-5.3826 4.64,-9.0151 1.777,-3.606 3.633,-6.4165 4.561,-9.0946 0.957,-2.7075 1.776,-4.5604 2.598,-6.337 0.928,-1.8559 0.928,-3.6061 0.928,-4.5604 0,-1.8559 0,-2.7868 0,-4.5343 -0.928,-3.6325 -1.75,-7.2649 -3.526,-10.8977 -1.856,-3.6057 -5.489,-6.4166 -9.943,-9.0947 -2.89,-0.9308 -5.489,-1.7765 -8.273,-2.7074 -2.705,-0.925 -6.31,-0.925 -9.121,0 -2.596,0.8222 -6.31,1.7766 -9.015,4.5607 -2.784,1.7501 -5.489,5.3826 -7.345,9.9433 l -4.561,9.1211 15.432,8.1667 4.561,-8.1667 c 0.925,-2.8102 2.89,-3.6325 5.488,-4.5607 1.962,-0.9309 4.561,-0.9309 6.417,0.9279 2.708,0.8223 3.527,2.7075 4.455,5.3824 1.033,1.8558 0,4.5607 -0.928,7.2652 l -7.981,15.4317 c -1.034,1.8558 -1.962,3.6063 -2.89,4.5342 -0.743,0.9544 -1.671,1.8823 -3.633,1.8823 -0.925,0 -2.596,0 -4.56,0 -1.75,-0.925 -3.527,-1.8823 -6.311,-2.8102 z"
       style="fill:#010202;fill-opacity:1;fill-rule:nonzero;stroke:none;stroke-width:2.93651152;stroke-miterlimit:8.9830513;stroke-dasharray:none"
       id="path1617-4"
       inkscape:connector-curvature="0" /><path
       d="m 13815.882,11566.027 -1562.822,272.495 c -101.711,-157.128 -185.207,-326.056 -247.968,-503.998 -12.621,-35.424 -23.519,-70.848 -34.39,-106.272 -8.273,-27.231 -15.432,-54.462 -22.776,-81.719 -49.928,-190.67 -76.337,-389.532 -76.337,-593.883 0,-466.824 137.136,-903.5788 375.134,-1275.9293 l 1584.59,330.5895 c 444.127,92.6167 906.283,92.6167 1350.304,0 L 16719.063,9286.77 c 234.287,370.4676 368.745,802.689 368.745,1265.88 0,470.323 -138.913,909.889 -380.65,1284.016 l -1511.037,-267.855 c -455.741,-81.719 -924.314,-82.647 -1380.239,-2.785 z"
       style="fill:#ffffff;fill-opacity:1;fill-rule:nonzero;stroke:none;stroke-width:2.93651152;stroke-miterlimit:8.9830513;stroke-dasharray:none"
       id="path1619-6"
       inkscape:connector-curvature="0" /><path
       d="m 12653.57,11632.314 c 5.488,0 11.825,-6.337 19.886,-19.886 v -323.377 c 0,-5.382 -6.311,-11.799 -19.886,-19.064 h -390.567 v -439.46 h 332.366 c 5.489,0 11.799,-6.417 19.171,-19.064 v -318.791 c 0,-5.382 -6.338,-11.798 -19.171,-19.063 h -332.366 v -439.46 h 390.567 c 5.488,0 11.825,-6.417 19.886,-19.171 v -324.1722 c 0,-4.4547 -6.311,-10.8713 -19.886,-19.0645 h -724.709 c -21.848,0 -33.541,14.6098 -33.541,42.6893 v 1873.4444 c 0,29.008 11.693,44.439 33.541,44.439 z"
       style="fill:#000000;fill-opacity:1;fill-rule:nonzero;stroke:#0000ff;stroke-width:2.93651152;stroke-miterlimit:8.9830513;stroke-dasharray:none;stroke-opacity:1"
       id="path1621-2"
       inkscape:connector-curvature="0" /><path
       d="m 13253.79,11471.66 c 4.454,0 9.943,-5.489 17.288,-18.242 v -176.988 c 0,-8.193 1.882,-13.682 4.454,-13.682 l -4.454,-21.742 V 9909.6607 c 0,-6.3373 1.882,-13.5758 4.454,-18.1365 -2.572,-4.5604 -4.454,-9.943 -4.454,-17.2878 v -148.0066 c 0,-3.6328 -5.489,-9.0151 -17.288,-17.2083 h -277.798 c -19.992,0 -30.015,13.5755 -30.015,39.0565 v 1683.597 c 0,26.303 10.023,39.985 30.015,39.985 z"
       style="fill:#000000;fill-opacity:1;fill-rule:nonzero;stroke:#0000ff;stroke-width:2.93651152;stroke-miterlimit:8.9830513;stroke-dasharray:none;stroke-opacity:1"
       id="path1623-5"
       inkscape:connector-curvature="0" /><path
       d="m 13849.45,11448.035 c 167.15,0 273.422,-40.913 320.672,-123.56 40.807,-49 61.621,-134.325 61.621,-258.839 v -237.893 c 0,-145.223 -53.56,-242.48 -160.76,-291.453 v -3.633 c 130.825,-379.615 211.722,-588.4209 242.479,-696.5491 -4.56,-13.5494 6.417,-26.3029 -8.193,-26.3029 l -308.634,-29.0868 c -12.754,0 -39.985,81.719 -81.746,246.0858 -2.785,0.928 -26.303,86.28 -73.632,258.813 h -4.455 v -476.74 c 0,-19.0644 -9.943,-28.1588 -28.265,-28.1588 h -250.461 c -19.144,0 -28.265,10.0226 -28.265,28.1588 v 1610.071 c 0,19.992 9.943,29.087 28.265,29.087 z m -32.64,-286.999 v -415.012 h 28.079 c 66.288,0 99.113,30.863 99.113,94.446 v 226.12 c 0,63.583 -22.776,94.446 -66.287,94.446 z"
       style="fill:#000000;fill-opacity:1;fill-rule:nonzero;stroke:#0000ff;stroke-width:2.93651152;stroke-miterlimit:8.9830513;stroke-dasharray:none;stroke-opacity:1"
       id="path1625-8"
       inkscape:connector-curvature="0" /><path
       d="m 14776.733,11373.581 c 155.165,0 253.244,-37.307 295.085,-109.905 39.879,-55.416 60.905,-130.798 60.905,-227.021 v -237.92 c 0,-81.719 -23.598,-146.256 -72.81,-192.552 48.257,-46.295 72.81,-109.878 72.81,-193.374 v -237.892 c 0,-166.249 -60.905,-271.5936 -181.76,-316.9342 -35.424,-12.7535 -106.272,-19.0644 -211.51,-19.0644 h -245.264 c -17.288,0 -26.303,9.0154 -26.303,26.3029 v 1481.1027 c 0,18.136 9.015,27.257 26.303,27.257 z m -45.447,-264.328 v -382.294 h 33.541 c 68.171,0 102.64,26.303 102.64,79.97 v 196.158 c 0,70.742 -20.921,106.166 -60.799,106.166 z m 0,-623.819 v -382.294 h 79.942 c 38.023,0 56.239,33.542 56.239,101.712 v 181.549 c 0,65.465 -28.981,99.033 -87.208,99.033 z"
       style="fill:#000000;fill-opacity:1;fill-rule:nonzero;stroke:#0000ff;stroke-width:2.93651152;stroke-miterlimit:8.9830513;stroke-dasharray:none;stroke-opacity:1"
       id="path1627-6"
       inkscape:connector-curvature="0" /><path
       d="m 16117.093,11081.173 v -989.858 c 0,-179.7984 -48.257,-297.8699 -143.658,-351.4299 -51.784,-40.9126 -129.871,-59.9506 -235.215,-59.9506 h -25.375 c -174.31,0 -287.714,75.382 -338.57,225.2718 -14.716,43.4845 -21.875,88.9575 -21.875,135.2527 v 1092.419 c 0,175.237 78.007,289.676 234.287,342.414 41.84,12.622 90.734,18.11 148.006,18.11 177.015,0 293.23,-64.511 346.976,-191.597 23.518,-42.689 35.424,-116.216 35.424,-220.632 z m -460.592,-1007.146 c 0,-61.727 23.624,-91.6624 69.92,-91.6624 h 21.848 c 43.697,0 65.36,41.7344 65.36,125.3364 v 955.257 c 0,87.207 -26.303,129.87 -78.008,129.87 -51.783,-5.489 -78.086,-38.102 -78.086,-95.374 v -1023.427 z"
       style="fill:#000000;fill-opacity:1;fill-rule:nonzero;stroke:#0000ff;stroke-width:2.93651152;stroke-miterlimit:8.9830513;stroke-dasharray:none;stroke-opacity:1"
       id="path1629-2"
       inkscape:connector-curvature="0" /><path
       d="m 17141.235,11588.803 c 5.489,0 12.86,-6.416 19.993,-20.92 v -345.119 c 0,-5.383 -6.311,-12.728 -19.993,-19.993 h -237.813 V 9530.9996 c 0,-23.6248 -12.833,-36.2723 -36.352,-36.2723 h -319.718 c -23.625,0 -36.166,12.6475 -36.166,36.2723 v 1670.9494 h -243.488 c -13.575,3.633 -19.992,19.065 -19.992,46.295 v 289.703 c 0,25.375 9.121,43.512 25.481,51.678 h 868.048 z"
       style="fill:#000000;fill-opacity:1;fill-rule:nonzero;stroke:#0000ff;stroke-width:2.93651152;stroke-miterlimit:8.9830513;stroke-dasharray:none;stroke-opacity:1"
       id="path1631-8"
       inkscape:connector-curvature="0" /></g></svg>